/* XPM */
static char *w11672848918[] = {
/* columns rows colors chars-per-pixel */
"80 80 157 2 ",
"   c None",
".  c gray11",
"X  c #202020",
"o  c gray13",
"O  c #222222",
"+  c #232323",
"@  c gray14",
"#  c #252525",
"$  c gray15",
"%  c #272727",
"&  c #282828",
"*  c gray16",
"=  c #2A2A2A",
"-  c gray17",
";  c #2C2C2C",
":  c #2D2D2D",
">  c gray18",
",  c #2F2F2F",
"<  c gray19",
"1  c #313131",
"2  c #323232",
"3  c gray20",
"4  c #343434",
"5  c #353535",
"6  c gray21",
"7  c #373737",
"8  c gray22",
"9  c #393939",
"0  c #3A3A3A",
"q  c gray23",
"w  c #3C3C3C",
"e  c gray24",
"r  c #3E3E3E",
"t  c #3F3F3F",
"y  c gray25",
"u  c #414141",
"i  c gray26",
"p  c #434343",
"a  c #444444",
"s  c gray27",
"d  c #464646",
"f  c gray28",
"g  c #484848",
"h  c #494949",
"j  c gray29",
"k  c #4B4B4B",
"l  c #4C4C4C",
"z  c gray30",
"x  c #4E4E4E",
"c  c gray31",
"v  c #505050",
"b  c #515151",
"n  c gray32",
"m  c #535353",
"M  c gray33",
"N  c #555555",
"B  c #565656",
"V  c gray34",
"C  c #585858",
"Z  c gray35",
"A  c #5A5A5A",
"S  c #5B5B5B",
"D  c gray36",
"F  c #5D5D5D",
"G  c gray37",
"H  c #5F5F5F",
"J  c #606060",
"K  c gray38",
"L  c #626262",
"P  c gray39",
"I  c #646464",
"U  c #656565",
"Y  c gray40",
"T  c #676767",
"R  c #686868",
"E  c DimGray",
"W  c #6A6A6A",
"Q  c gray42",
"!  c #6C6C6C",
"~  c #6D6D6D",
"^  c gray43",
"/  c #6F6F6F",
"(  c gray44",
")  c #717171",
"_  c #727272",
"`  c gray45",
"'  c #747474",
"]  c gray46",
"[  c #767676",
"{  c #777777",
"}  c gray47",
"|  c #797979",
" . c gray48",
".. c #7B7B7B",
"X. c #7C7C7C",
"o. c gray49",
"O. c #7E7E7E",
"+. c gray50",
"@. c #808080",
"#. c #818181",
"$. c gray51",
"%. c #838383",
"&. c #848484",
"*. c gray52",
"=. c #868686",
"-. c gray53",
";. c #888888",
":. c #898989",
">. c gray54",
",. c #8B8B8B",
"<. c gray55",
"1. c #8D8D8D",
"2. c #8E8E8E",
"3. c gray56",
"4. c #909090",
"5. c gray57",
"6. c #929292",
"7. c #939393",
"8. c gray58",
"9. c #959595",
"0. c gray59",
"q. c #979797",
"w. c #989898",
"e. c gray60",
"r. c #9A9A9A",
"t. c gray61",
"y. c #9D9D9D",
"u. c gray62",
"i. c #9F9F9F",
"p. c #A0A0A0",
"a. c #A2A2A2",
"s. c gray64",
"d. c #A4A4A4",
"f. c #A5A5A5",
"g. c gray65",
"h. c #A7A7A7",
"j. c gray66",
"k. c #A9A9A9",
"l. c #AAAAAA",
"z. c gray67",
"x. c #ACACAC",
"c. c gray68",
"v. c #AEAEAE",
"b. c #AFAFAF",
"n. c gray69",
"m. c #B1B1B1",
"M. c #B2B2B2",
"N. c #B4B4B4",
"B. c gray71",
"V. c #B6B6B6",
"C. c gray72",
"Z. c gray73",
"A. c #BBBBBB",
"S. c #BCBCBC",
"D. c gray",
"F. c #C1C1C1",
"G. c gray76",
/* pixels */
"                                                                                                                                                                ",
"                                                                                                                                                                ",
"                                                                                                                                                                ",
"                                                                                                                                                                ",
"                                                                                                                                                                ",
"                                                                                                                                                                ",
"                                                                                                                                                                ",
"                                                                                                                @                                               ",
"                                                                                                              & > >                                             ",
"                                                  @ @ @                         @ @ @ @ @                   @ 4 t 2 &                                           ",
"                                                2 > & @                         > > & & @                   > 8 a 4 @                                           ",
"                                              & t i > @                   @ @ > 8 8 4 > @               @ > t a a 2 @                                           ",
"                                              @ 8 a 2 +                 2 4 2 4 t 8 4 > @               > 8 a i 8 > @                                           ",
"                                              & 8 t > +           @ @ & t l a t 8 2 & @           @ @ & t a i t 4 > @                                           ",
"                                            2 8 4 2 &           @ @ > 4 i l a 8 2 > @           2 8 8 8 i a t 2 > @                                             ",
"                                          @ 8 k 8 @           & & & 4 k k i t 2 & @       > & & 8 l l k i t 2 > @                                               ",
"                                          + 2 a 4 @         @ 8 t t i k i t 2 > @ + + . > l V i a l l a t 4 & &             + + + + + @ @                       ",
"                                          > 4 t 2 @       & > i v V l a t 8 & @ @ & > & 8 U [ A l k a t 4 > @ @           > > & & > & & & @                     ",
"                                        > t a t > @     @ 4 a l v v l a 8 4 & @ 2 4 i V U ( Q V k a t 2 > @ @ @     + + 4 l l l l k a 8 & @                     ",
"                                      @ 2 k a t 2 @     & t v V V V l k i 8 > & 8 k A ( ..~ A l i t 4 > & @ @ @   4 8 4 i K K A v l k 8 &                       ",
"                                      @ > t t 4 > @ + & 2 i v K U U F v k t & > a F [ [ ~ A k a t 2 > @ @ @ @ @ @ v U F A F F v t > > >                         ",
"                                      @ & t t 2 > @ @ > t l A U ( [ ~ F l i > > a K ..~ F l a t 4 & @ @ & & @ > i K [ ~ F l a t 2 + +                           ",
"                      @ @ @           @ > 8 8 4 2 > & > a A Q ( ..@...Q V i 2 & 4 l U F k a i 4 2 & & & 2 2 @ i Q ( Q K l 4 & &                                 ",
"                    @ & > 2 &       + + > t 8 4 4 2 @ 2 a F [ ..@.;.@.( F a > @ & t l l i i 8 2 & & > 8 a i & i ( ~ F l a i 4 @                                 ",
"                    + & 4 8 > @ @ & @ @ > t 8 4 4 4 & 2 a F [ @.-.;.@.~ A a 4 & & 2 8 t 8 8 4 > & @ 8 l F v 2 t F F V 4 8 A k @                                 ",
"                      & 2 4 4 4 8 4 2 & > a a 8 8 8 2 > 4 k U [ @.-...F a 8 a v v i > & > > & > @ & a F ~ Q l i i v v > 2 A k &                                 ",
"                        @ > 8 a k a t 2 2 a a 8 8 t t 2 & 4 l Q ....U k 2 2 K @.o.F 8 & > & & @ & > k U [ [ U l 2 i l 2 4 v i &                                 ",
"                          @ 2 i V v a i i 4 > > 4 t i 8 4 > 4 l K K l 4 2 k @.h.a.-.U V l 8 > + & 4 k F Q ( Q V 8 8 8 t i k t &                                 ",
"                            @ 8 v v v A v 8 > & 2 4 8 t 8 4 2 8 a a t > 8 F 9.B.m.i.;...~ a 2 4 t l V A U U K V a 2 & t k a 8 &                                 ",
"                  @ @ + + + @ @ 4 k F Q Q A l 8 > & & 2 8 a l 8 > > 2 t A [ r.x.j.i.6.;.[ i 4 F ( [ ~ Q Q K v l a 2 & 4 t 8 4 @                                 ",
"                & > > 2 2 2 2 2 4 t V ( [ Q v 8 4 4 4 2 4 a A k 4 & > k K ..6.i.a.a.6.o.U a l @.9.6.@.[ ~ K l a a 4 & 2 4 2 > @ @                               ",
"              @ > 8 i k k k k v V t 4 U [ K a 2 a A V a > t V K A 2 2 a U ..-.6.i.a.2.K 8 v ( r.j.a.6.@.[ U l k a 4 @ 2 4 > @ @ @ @                             ",
"            & > 2 4 t a k l l V A k t l V a i k V K F l 8 8 a l l 8 t A Q ( o.;.r.;.~ v k ~ 9.h.m.m.9...( U v k a 2 @ > > 2 2 4 2 2 &                           ",
"          @ & 8 4 & & > 8 t t k v A V t & > l ( ~ F v l v i & > 4 i A ~ ~ Q [ -.2.~ 8 v ..r.j.j.m.B.9.( Q F v k a 2 @ @ 2 i a k k i 2 @ @ @ @                   ",
"          @ & 2 > @ @ @ > > 2 8 k V A a a V ~ -...Q F A v 8 @ t k i a K Q ~ [ o.@.F > v 2.j.m.x.m.D.a.o.~ K v k a 4 & 2 8 a k k k a 8 4 8 8 4 >                 ",
"          @ @ @ @   @ @ @ & @ 2 t a l V Q @.2.;.@...[ U l 4 > F ~ 8 2 i V Q ( ..( l 2 A 2.h.m.x.m.B.a.;.( F l k a 2 & i k i t t t t k k l l k 4 &               ",
"                      & 2 4 @ @ > 8 k v K [ @.@.-.-.@.( A 8 > A ~ a 2 2 i v F V k t 8 K -.i.a.a.i.r.2.@.Q V l a t 2 & t a t 4 8 2 2 i k a a a i 8 >             ",
"                    @ > i a 4 & @ 2 t a v F ~ ..;.6.;...F i > l U V i > 2 t i 8 & > a U o.2.6.6.;.o...[ K v a i 8 > & 8 t 4 4 4 > > 8 t t t t a i > +           ",
"              + + @ 2 t V A v t & & > 8 a l F ~ ;.i.6...F 8 & a F U A i 2 > & & + > a F ..-.2.@.o.( ( Q A k i 8 4 > & 2 8 4 2 & 8 i 4 & > > 2 t t > +           ",
"              > > > 4 k F U Q k & & 2 4 t i v U @.9.2.( l 8 8 a V U F l t 4 2 2 2 4 t V ~ o.o...( Q Q K v k t 4 2 & & 2 4 2 2 2 k l 2 + + + @ 4 4 > +           ",
"          @ > i i 8 a v K Q Q k > t l 4 2 i k V [ @.o.A 4 t A v l v v k l v V l l t 2 a K ( [ ~ ~ U F A l i 8 2 & & > 8 4 > 4 k v k > +       & & & @           ",
"          @ & t i 8 t a A K K a & i v 4 & 8 t k K Q F k 8 i l a 8 8 8 8 k V A V A i & t A Q Q Q U F V v k t 2 > & & > 8 i 4 a v v a > +         @ @             ",
"          @ @ & & & & 2 i v V i & 8 a 8 2 & > 8 l V 8 4 l i 2 > & & & > 2 i k l k t & 4 k F Q U F v l l i 4 & & > & > t l v v l a 8 & @                         ",
"            @ @ + @ + @ 2 8 t 4 2 8 t t 4 > & > 4 t t t i a a l v V v k t 2 2 4 8 4 > 2 t a V A A v k i 4 & & & > & & t l v v a 8 2 &                           ",
"                    & @ & & & 2 8 t 8 t 8 4 > & & 4 v l 2 l [ -.6.6.2.o.V > @ > > > 2 & & 2 t k l k i 2 > @ & & > & & 8 i i t 8 2 @                             ",
"                    > 2 2 2 & > 2 4 8 2 > > & > 8 a F l & l -.i.h.x.j.6.~ a 8 2 & @ > @ @ & 2 8 i t 4 > & & & > > & & > 2 > 2 > & @ @   @                       ",
"                  @ 2 t 8 t 8 > @ 2 4 > > & 2 4 l F F k 4 A 6.j.m.A.B.a.-.Q V a 4 > 2 > & @ & > 2 2 2 > > & & > > & > @ @ & @ & & @ & @ & &                     ",
"              @ > 4 4 8 8 8 8 2 @ @ 2 i k a t t k l i i A @.h.B.D.G.D.j.6...( ~ K F v a 2 @ @ & & & > 2 2 > > & @ > > & & 2 4 4 2 4 4 2 & & @                   ",
"              & 2 8 8 2 2 4 8 2 & @ 8 A Q K v a a i > 8 ~ 6.x.A.G.D.A.x.r.;.-.-.-.@.( A t > @ @ & > 2 4 4 8 4 > > & > & > 4 8 8 t i t 8 2 & @                   ",
"            & 4 8 8 2 & & > 2 > @ t V Q [ ( U V k 8 & 4 F -.h.m.A.A.m.a.6.;.2.9.9.2.-.Q k 4 > @ & 2 4 4 t a k a 8 2 & & & > > > i v k t 8 > @                   ",
"          @ > 4 8 2 & @ @ & > & > l ~ ..@.o.[ Q k 2 & 4 V [ 2.h.x.j.i.9.6.2.9.i.i.r.;.( V t 2 > & 2 > 4 i l V v k 4 & 4 4 & @ > i k l k i 4 > &                 ",
"          @ & 4 2 & &   @ @ @ 2 i K o.@.@.@.o.( l 2 & 4 v F ~ 2.i.6.-.-.;.6.i.h.h.r.2...K a 4 4 2 & @ > a V V A V 4 & k k & > 4 2 4 l v a i 4 > @               ",
"            & > > @     @ @ & 8 v ~ @.-.-.o.o.( l 2 @ 2 t a l U [ [ ( ( o.2.r.i.9.2.o.[ K k 8 4 > @ @ > t k V F F a 8 a t & 2 8 > & t k k i 8 > @               ",
"              & @       @ & > k K Q [ @.@.[ ~ Q k 2 > > & & > 8 a A K F ~ @.;.2.o.[ ~ U A a 8 8 2 & & 2 & 4 l K U A k 4 @ & 2 8 2 @ & 2 i i t > @               ",
"                        + > t V Q K A K K F F A a 4 4 2 > & & & 2 k v v F ( ....U K U F v a 8 4 > & > 4 > > 8 l F K v 2 @ 2 2 2 & @ + > 4 t t > @               ",
"                        @ 4 v F K l i t i i k l t 4 8 4 4 2 2 & & t a a V U Q K V V F V a t 8 4 > @ > 4 2 > & t V F A 4 & 8 4 @ @ @     @ 4 a 4 &               ",
"                      > t k v V l t > > > 2 4 4 2 2 > 4 8 4 2 & > 2 4 4 i l v v k k l a t 2 > > & > 2 2 2 > @ 2 i A A 4 & 4 2 + +       @ 8 v 8 @               ",
"                    @ & a A l i 4 > @ @ @ @ @ @ @ & & > 8 4 > & & > & & & 8 t i i i t 4 2 & @ @ > 2 2 > 4 2 & & 2 k V 4 @ > > &         @ t l 4 @               ",
"                    @ > a v i 4 > & > & & & & & & & & 2 8 4 > & & & @ @ @ > 2 8 4 8 4 2 & @ & & > > 2 > > 2 > & & 2 4 & @ & 2 t 2 @       2 4 2                 ",
"                    @ & i a 8 > @ & > 2 2 2 > > > & & 2 4 4 > > & & @ @ @ @ & 2 2 2 2 > @ & & > > 2 2 4 2 2 > > > @ & @ @ @ 2 i 2 @         @                   ",
"                    @ & 4 8 > @   & & 2 8 4 2 & & > 2 2 4 2 > > > & & & & @ & & & & & @ @ > > 2 2 8 t i a t 4 4 t 4 > & @ @ 2 t 2 +                             ",
"                    @ & 2 4 & @   @ & 2 4 4 4 > > 2 8 t 8 2 & > > > > > > > & & & @ @ & & > 2 2 4 8 t k l k t 8 8 4 & & @ @ 2 4 4 >                             ",
"                    @ @ 2 2 & @   @ @ & > 8 4 2 > 4 a k i 2 & > & 2 > & > 2 2 2 > > > > > 2 2 4 4 8 8 a l v i t 4 & @ @ & @ & 2 8 8 > @                         ",
"                      & > > &     & > @ @ 2 > & 2 t a k a 4 & & 2 2 2 & > 4 8 8 t 8 4 4 4 > > 2 4 8 8 8 a i t 8 4 2 > & @ @ @ > 4 4 & @                         ",
"                        @ &     @ > 2 & @ @ & & 4 i k a i 2 @ > 4 8 2 & > 8 i a k i t t 8 > @ > 4 4 4 2 2 4 4 4 8 t 4 > @     @ > 2 & @                         ",
"                                & 2 4 & @ @ & 4 t k a i 4 > & > 4 4 2 @ > t a k l k i i t > @ 2 4 8 4 4 2 2 > > 2 8 t & @       & & &                           ",
"                                @ > 2 & @ @ 2 i a a i 4 & & > > 2 > > & 2 t a a l a t t 8 > & 2 4 8 4 4 8 4 @ @ & 4 8 > @       @ @                             ",
"                                  > & & @ @ 4 a k t 4 > & & > & > > & @ 2 t a k a i i 4 > > 2 4 8 8 8 8 2 > @ @ & 4 8 > @                                       ",
"                                    @     @ 2 a i t > @ & > & & > & & & 2 t a a i t 8 2 & 2 4 8 4 4 4 4 & @ @ @ @ 4 t > @                                       ",
"                                          @ 2 i t 4 & @ @ & & & @ & & @ > 8 a k i 8 > 2 4 8 8 8 2 & & > @ @   @ & 4 t & @                                       ",
"                                          @ 2 t 4 > & @ @ & @ @ & @ @ @ > 2 t a i 4 @ > 8 8 4 4 2 & @ @ @ &     @ 2 4 2 >                                       ",
"                                          & 2 t 2 &       @ @ & & & @   @ & 8 i 8 2 & @ & & & & > 4 2 > & @       & > 4 4 &                                     ",
"                                          @ > t 4 > @       @ & & @ @     & 4 8 4 > @ @ @ @ @ @ > 2 2 2 & &         & 4 4 &                                     ",
"                                          @ & 4 t 8 > @       & & @ @     & 4 4 > @ & @ @         & 2 4 2 & @ @       & &                                       ",
"                                            & > 4 8 4 2 &       @ @       & 4 8 @ & > & @         @ & 2 2 2 & @                                                 ",
"                                              & > 4 t 4 &                 & 4 8 & 2 t 4 &           @ & 4 2 & @                                                 ",
"                                                & > > 2 &               @ & 4 8 8 t i 4 @               > & & @                                                 ",
"                                                @ @ @ @                   @ 2 4 8 i i 4 &               @ @ @ &                                                 ",
"                                                                            & > > > 2 >                                                                         ",
"                                                                            @ @ @ @ @                                                                           "
};
