/* XPM */
static char *w21672848918[] = {
/* columns rows colors chars-per-pixel */
"80 80 99 2 ",
"   c None",
".  c #020202",
"X  c #0C0403",
"o  c #0F0804",
"O  c #040808",
"+  c #0D0F0F",
"@  c #150606",
"#  c #100905",
"$  c #190E0E",
"%  c #1C100A",
"&  c #0F1010",
"*  c #161616",
"=  c #181817",
"-  c #171719",
";  c #1C1C1C",
":  c #330F0F",
">  c #231514",
",  c #321111",
"<  c #3C1312",
"1  c #331B1B",
"2  c #381D1D",
"3  c #252525",
"4  c #282827",
"5  c #2B2B2B",
"6  c #332F2F",
"7  c #392F2F",
"8  c #2E3030",
"9  c #333333",
"0  c #383737",
"q  c #3B3B3B",
"w  c #420C0C",
"e  c #471212",
"r  c #4B1515",
"t  c #4D1817",
"y  c #401918",
"u  c #501919",
"i  c #5C1E1D",
"p  c #631F1F",
"a  c #4E2223",
"s  c #542221",
"d  c #423D3D",
"f  c #6D2420",
"g  c #732222",
"h  c #7A2825",
"j  c #444343",
"k  c #4A4646",
"l  c #47494B",
"z  c #4B4B4B",
"x  c #524E4E",
"c  c #535353",
"v  c #555759",
"b  c #5C5C5C",
"n  c #636364",
"m  c #636669",
"M  c #6C6C6C",
"N  c #6D7478",
"B  c #747474",
"V  c #777D7E",
"C  c #7B7B7B",
"Z  c #842D2D",
"A  c #932E2E",
"S  c #853131",
"D  c #913030",
"F  c #A33637",
"G  c #8C5153",
"H  c #B54445",
"J  c #B8585A",
"K  c #C9686A",
"L  c #D26365",
"P  c #7B7E80",
"I  c #7C8289",
"U  c #848484",
"Y  c #82878B",
"T  c #86888B",
"R  c #8B8B8B",
"E  c #898D97",
"W  c #8A8E98",
"Q  c #949494",
"!  c #979A9C",
"~  c #9A9A9A",
"^  c #9DA3A7",
"/  c #9DA3AA",
"(  c #A4A4A4",
")  c #ACACAC",
"_  c #A4ABB0",
"`  c #A9B0B6",
"'  c #AEB5BA",
"]  c #B2B2B2",
"[  c #B5B9BC",
"{  c #BBC1C5",
"}  c #BFC5CD",
"|  c #C5CCD2",
" . c #CBD1D6",
".. c #D6DBE7",
"X. c #DCE4ED",
"o. c #E3ECF5",
"O. c #E6EFF8",
"+. c #E7F1F9",
"@. c #EBF4FC",
/* pixels */
"                                                                                                                                                                ",
"                                                                                                                                                                ",
"                                                                                                                                                                ",
"                                                                                                                                                                ",
"                                                          3 3 3                                                                                                 ",
"                                                        4 9 9 8 5                             3                                                                 ",
"                                                      3 5 q j 9 5 3                         4 4 4                                                               ",
"                                3 3                   3 5 j d 0 4 3                       5 0 q 0 8 3                                                           ",
"                              3 4 4 5                 3 5 q q q 8 3                     3 8 j l q 9 3                                                           ",
"                              3 5 q q 4                   5 0 q 0 9 4                 4 0 j j q 9 4 3                                                           ",
"                              3 8 l l 9 5                 3 9 j j 0 5 4               4 j x l d 9 5 3                                                           ",
"                              3 5 k x j 0 3               3 0 z l d 0 8 3             5 z n c k q 9 3         3 3 3                                             ",
"                                5 q j z 9 3               3 0 x z l q 0 5 4         5 0 c b c l q 5 3       9 0 9 8                                             ",
"                                  4 9 j 9 4               4 0 c v z z q 0 8 3 3 3 3 q z v v z d 9 5 3     3 d c z j 5 3                                         ",
"                                  3 9 j q 9 4           5 q j x c z z q 0 5 4 5 8 0 c m n b z j 0 4 3       0 j v c d 9                                         ",
"                                  3 9 z j q 5 3       3 8 z c c c z j j 0 5 4 9 j x M C M b z k j 9 3       4 9 c m b j 4         4                             ",
"                          3 3       9 9 q j 9 4 3 3 4 5 0 z v b b b z k d 8 4 q v M B N n c l d 9 5 3 3 3 3 5 j n B m j 4       8 0 9                           ",
"                        4 4 4         3 9 q 0 9 4 3 4 9 j z n M N M b z j 8 5 j b B B n c j j 0 5 4 3 4 4 5 d v M B M j 4     4 0 j 9 3                         ",
"                      5 9 q q 9 3     3 9 d 0 9 8 4 4 q z b M B C C M b k 8 4 q c M n c k j 0 9 5 3 3 8 9 q b M B M n j 3 3 5 q q q 8 3                         ",
"                    3 5 0 j l 0 4     3 9 q 9 9 9 4 4 d v M C V U U B b z 9 3 5 d v c j j q 8 5 4 3 3 8 0 k n B M b c j 9 4 4 j j 9 5 3                         ",
"                        5 9 j j q 5 3 3 9 q 0 9 8 5 4 q v M C P R U B n l 0 3 3 8 q j d q 0 8 4 3 3 3 3 9 l b m b c 0 j c 0 5 0 9 4 4                           ",
"                        3 5 j j j 9 4 3 0 j q 0 q 9 8 9 z n C U U U M c j q q q q 8 8 9 8 8 5 4 3 9 q d d d z b b z 4 j b q 4 8 8 3                             ",
"                        3 9 d l l j 8 4 q z q q q q 9 5 9 z M C P B c q 8 x M B b 8 4 4 4 4 4 3 4 j n M v 8 0 z v z 5 d v q 3 4 3                               ",
"                      3 3 4 9 l c j j q q q 9 8 d d q 9 8 9 z m M n j 8 0 M Q ~ C c j j 9 4 3 4 9 z n B b 8 9 l l d 9 j z 9 3 3 3                               ",
"          3 3 3     3 3 3 3 3 l v z z c q 5 4 5 0 q q q 9 8 0 z c k 8 9 x U ] ) ~ U B n k 8 4 9 j x b m c 5 9 j 8 8 j z j 9 3 3 3                               ",
"          3 4 9 5 3 3 3 3 3 3 9 j c b m b j q 8 5 5 8 q q d q 9 0 0 0 k n R ( ) ( Q U B j 9 x b n m n M c 5 9 q 5 5 q j j 5 3 3 3                               ",
"          3 5 0 9 4 3 4 5 4 4 4 9 x m B M n k 0 5 5 5 8 d b z 8 3 5 j b C C U ~ ~ Q U B j d C T R C M m z 5 8 0 5 5 9 0 9 5 3 3 4                               ",
"            5 5 9 9 j j j j j l k q c B B b q 9 k z j 9 8 c b c 8 4 j n C C B U R Q M z z n Q ( ~ R B z 0 9 q j 5 4 9 9 5 3 4 0 0 3                             ",
"              3 5 0 j z c z c b v 0 j n b x q j n M n j 9 j b M z 0 d c M M M C U U b 8 v U ( ) ) ~ C q 3 9 q d 5 3 8 9 5 4 9 j d 8 4                           ",
"                5 5 8 0 j j j c v c l q 8 0 v M C C B n x 0 l B N b q q c b M C C B z 6 n ~ ) ] ) ] ~ k 3 4 5 5 4 3 4 9 j j j j j j 9 3                         ",
"                  3 3 3 9 0 0 j c b x 0 0 z B R R R U C n d j b B B d 8 q c n M M n j 6 n Q ( ) ( ) ~ j 3 6 9 9 9 5 5 q z z l 0 j j 9 3                         ",
"                    3 3 4 4 5 0 j x c v M C T R U R R U B b j 0 v m z 0 5 0 z z z j 8 5 n R ~ ~ ~ Q C q 5 z z z l j j z z z q 8 9 d 9 3                         ",
"                    3 4 8 5 3 5 9 j c b M U R U U R Q Q P b d 4 z n b x 9 9 9 9 9 8 3 5 b U R Q U M v k l c v c l l j l k d 9 4 5 9 8 3                         ",
"                  3 3 5 d q 4 3 8 0 j x b M C V C R ~ Q C b q 5 d b m b z 9 4 4 4 4 3 5 c C U U C z 0 c b v x z d q j j q 8 4     4 4                           ",
"                9 0 9 q c c d 8 3 5 0 j x b M B B U R C M v q 4 8 q k j 0 9 9 9 0 0 8 5 l m B C M d 5 c b c l j q 9 4 3 3 3 ; ;                                 ",
"              4 0 k j z b m n q 3 4 8 q d z b M B B B b z c j 5 5 8 8 8 5 9 q j j j 0 8 q x n m n q 5 z c k j q 0 8 4 4 3 = = = -                               ",
"            9 0 0 0 j c n M n q 5 d q 9 0 k c b M M n b x q q k b n n n b j 5 9 q q 9 8 9 q k z k 8 5 k z d 8 ; = d Y U b 3 O O O                               ",
"          3 5 j 0 5 q c b m n 0 8 z z 8 8 j z c b v x c z 8 q n C Q Q Q U c 8 5 5 4 8 8 8 8 8 9 9 5 5 j j 8 9 9 8 m | { C 6 # # @                               ",
"          3 4 8 8   8 q c b v 0 8 j j 8 5 8 q d j q 9 9 0 0 c B R Q Q Q Q B x 9 3 3 3 4 4 4 4 8 9 9 q q 5 3 n _ ` ' [ V 9 s g g u X                             ",
"          3 3 3     3 5 q k j 9 8 q q q 8 4 8 8 6 8 5 4 8 l M C U U R R R C b 9 4 9 0 9 5 3 4 4 5 0 0 8 8 l ^ +.@.| U d , S H A r X                             ",
"                    3 3 5 5 8 9 0 q q q q 8 5 4 4 0 q 9 q n C C C C U U B n c 8 9 n M v 0 3 4 3 4 4 3 ; c ' X.+.X./ 0 2 Z L K s X .                             ",
"                    5 5 5 5 4 9 0 0 0 9 8 8 5 5 5 0 d j v B C C B B B B n x j j b U R B z 5 4 3 3 4 3 * v | +.O.X.W - w F J G > . .                             ",
"          3 3 3 3 4 9 q q 0 9 5 5 9 9 5 3 4 8 0 q 8 9 b V B B M M M M n v q q M R Q R U b j 5 3 4 9 9 ; j Q  .o...E ; e A s > % o .                             ",
"        3 5 5 9 8 8 0 q q q 9 5 4 5 9 q q q q 0 0 q x B U B m b v z k j d k b R ( ( ~ R B x 8 3 8 q j 5 9 v ! | } I - e A t X o X .                             ",
"        4 8 9 q 0 q 0 0 0 q q 8 3 4 q n b c j 0 5 x B P B m b c q 4 4 4 5 b R ( ) ( Q R B v 9 4 9 j z j 9 3 b Q / N ; e A f < # . .                             ",
"        4 5 5 9 9 8 5 5 4 8 0 5 4 q c M M c z 9 5 z B M b k q 0 8 4 4 3 3 b R ~ ~ R U C M c 8 4 0 l z j 9 4 9 b T C 0 1 t g h p : .                             ",
"          3 3 3 4 4 3 3 3 4 6 4 0 c M V M b z 9 5 d v v k 8 4 4 5 8 5 5 5 v C R U B B M n z 5 4 0 j z j q 0 4 4 M C c 4 $ p A A i X                             ",
"                      3 3 4 4 8 j M C P B n c k 0 0 q 0 9 5 5 4 5 8 4 9 x n B B B b b n b k 5 5 0 q j q 0 0 6 4 q z x j 6 2 < < :                               ",
"                        3 3 4 q c B U U C M n c q 9 4 3 4 9 9 8 5 5 5 j b M n m b x c v x d 5 4 9 0 q 0 9 0 0 9 3 3 d k d ; . . .                               ",
"                        3 4 9 z n B P T G B b c j 0 9 4 5 0 9 8 3 5 q z v v c c z l l l d 0 4 3 4 9 0 5 8 q q 0 4 3 3 3 3 - + + *                               ",
"                        3 5 d v M m M B I m b c j q 9 8 5 q 9 5 5 0 k z z z l q q d q q 8 8 4 4 4 5 8 4 8 0 q 9 9 5 3 ; > ; ; -                                 ",
"                        3 0 c n n z l l l l c l q q 9 8 8 9 8 4 0 z j j j k j q 0 q 0 9 5 4 5 4 5 4 5 5 8 0 0 9 8 5 4 8 0 4 3                                   ",
"                      4 9 j z v c 0 9 9 9 0 d d q 0 8 8 8 8 8 9 j l j q d q q 9 8 8 8 5 4 4 8 8 8 4 3 5 5 8 8 8 8 8 9 0 q 5 3                                   ",
"                  3 3 8 j j q q 0 5 4 4 4 4 4 5 9 8 4 8 9 4 8 d j d 0 9 0 0 9 5 3 3 4 3 4 5 8 6 8 8 5 3 4 3 3 3 5 8 0 9 8 5 3 3 3 3                             ",
"                9 9 9 0 j q 8 5 5 5 4 3 4 3 4 5 8 8 8 9 8 4 5 0 q 9 8 5 8 5 5 5 4 4 4 4 5 8 8 8 8 9 9 9 9 9 8 5 5 8 9 9 5 9 0 0 0 0 9                           ",
"              3 9 j j j 0 9 4 3 4 5 8 8 8 8 5 4 4 8 q q 9 5 5 8 8 8 4 4 3 3 3 5 5 5 5 5 6 8 8 8 9 0 q j l k d 9 4 4 9 5 4 0 j l z j 9 3                         ",
"                5 9 9 9 5 5     3 4 8 0 9 9 5 5 3 5 q q q q 0 4 4 4 4 5 4 3 3 3 4 4 3 5 5 8 8 9 9 0 q j z c l q 9 5 5 3 3 0 j z z j 9 3                         ",
"                  3 3 3 3 3       3 5 0 0 9 8 5 3 8 0 d j l 0 4 3 4 5 6 5 4 4 4 5 4 4 3 5 9 9 9 9 9 0 q j z l d 9 5 3 3 5 9 q q q q 8 3                         ",
"                            3 3 3 8 9 0 0 q 9 4 3 8 q j k l 0 3 5 8 8 5 4 8 0 0 0 q 9 3 5 9 9 9 8 9 9 0 d j q 9 5 3 3 5 9 9 5 5 5 5 4 3                         ",
"                          4 4 3 5 9 9 9 9 9 8 5 5 0 j k j q 9 5 8 9 8 4 5 0 q j j l q 5 5 5 9 9 8 9 8 9 0 q 0 9 5 3 3 9 q 5 3 3 3 3 3 3                         ",
"                        3 5 9 9 9 9 9 4 4 4 4 5 0 d l j q 8 5 9 0 9 5 5 9 d l j j j q 0 5 5 9 9 0 8 8 9 9 9 0 0 9 5 3 5 9 5 3                                   ",
"                        3 5 8 8 8 9 5 3 3 3 5 9 j l l q 9 4 5 9 0 9 3 5 0 j l z l d j q 8 4 5 9 0 9 8 9 9 8 8 9 0 9 4 4 5 3 3                                   ",
"                          3 3 4 3 3 3   3 4 9 j j l q 9 4 5 5 8 9 8 3 8 q j l z z j j q 5 3 8 9 0 9 9 0 9 4 3 5 0 0 4 3 3                                       ",
"                            3 3 3 3     3 4 q j l d 9 4 4 5 5 5 8 5 3 8 d j l k j j 0 9 8 5 9 0 0 0 0 9 8 3 4 8 0 0 3 3 3                                       ",
"                                        3 4 q z j 9 4 4 5 5 5 5 5 5 3 5 d l j j d q 9 4 5 9 0 0 9 0 9 5 3 3 9 q 9 8 4 3                                         ",
"                                        3 4 q j q 5 3 3 4 4 4 3 5 3 3 5 0 j l j q 9 8 9 0 q 0 9 5 8 8 3 3 3 9 q 9 4 3                                           ",
"                                        4 5 q q 9 5 3 3 3 4 3 3 3 3 3 5 9 j j j 0 5 8 0 0 0 9 8 4 3 4 3 3 3 9 q 8 3                                             ",
"                                      3 8 9 j q 5 4   3 3 4 4 3 3     3 5 0 j q 9 3 4 8 8 5 5 5 8 5 5 3 3 3 0 q 5 3                                             ",
"                                      4 0 j d 9 5     3 4 5 4 3         4 9 q 0 8 3 3 3 3 3 3 8 0 9 5 3 3 3 9 0 5 3                                             ",
"                                  3 9 j l j 9 5     3 3 4 4 4       3 5 9 0 0 8 5       3 3 9 0 0 8 4       5 5 4                                               ",
"                                  3 9 j j q 5       3 5 5 3         8 8 0 0 9 4 3       4 8 0 0 9 5 3         3                                                 ",
"                                  3 5 q 0 5         3 3 3         3 0 q d 8 4         3 9 9 0 9 4 3                                                             ",
"                                  3 5 q 8 3         3 3         3 4 0 q 0 8 3         3 8 9 9 5 3                                                               ",
"                                  3 5 9 5 3                     3 4 q 0 5 3             4 3 4 3                                                                 ",
"                                    4 5 5                       3 4 j 0 3                 3 3                                                                   ",
"                                      3                         3 5 q 0 4                                                                                       ",
"                                                                  5 9 9                                                                                         ",
"                                                                    3 3                                                                                         ",
"                                                                                                                                                                ",
"                                                                                                                                                                "
};
