/* XPM */
static char *w31672848918[] = {
/* columns rows colors chars-per-pixel */
"80 80 97 2 ",
"   c None",
".  c #010101",
"X  c #0B0503",
"o  c #0E0905",
"O  c #0B0D0D",
"+  c #1C0404",
"@  c #1B0B09",
"#  c #1B110E",
"$  c #0E1111",
"%  c #151515",
"&  c #1C1C1C",
"*  c #200707",
"=  c #230C0B",
"-  c #2D0E0E",
";  c #281515",
":  c #2D1A19",
">  c #341515",
",  c #3A1212",
"<  c #311B1B",
"1  c #252525",
"2  c #2A2525",
"3  c #2B2B2B",
"4  c #332323",
"5  c #3B2121",
"6  c #322F2F",
"7  c #2F3637",
"8  c #333333",
"9  c #393737",
"0  c #33393C",
"q  c #3B3B3B",
"w  c #471616",
"e  c #4A1616",
"r  c #4E1B17",
"t  c #451919",
"y  c #501919",
"u  c #5A1E1E",
"i  c #611D1C",
"p  c #5F3838",
"a  c #6C2322",
"s  c #762625",
"d  c #7D2626",
"f  c #7E2A2B",
"g  c #373C41",
"h  c #3C3F42",
"j  c #434343",
"k  c #4A4747",
"l  c #4B4B4B",
"z  c #4D4F50",
"x  c #535353",
"c  c #595353",
"v  c #53575A",
"b  c #5B5B5B",
"n  c #646363",
"m  c #6B6B6B",
"M  c #747474",
"N  c #7B7B7B",
"B  c #812626",
"V  c #842827",
"C  c #862A2A",
"Z  c #9B3130",
"A  c #954C4E",
"S  c #AC4041",
"D  c #B04647",
"F  c #B2484A",
"G  c #A95B5E",
"H  c #E37477",
"J  c #7B7E80",
"K  c #838383",
"L  c #8B8B8B",
"P  c #878D92",
"I  c #8E8F90",
"U  c #8F959A",
"Y  c #949494",
"T  c #929698",
"R  c #96999C",
"E  c #9B9B9B",
"W  c #9CA2A7",
"Q  c #9CA1AA",
"!  c #A4A4A4",
"~  c #A0A5A8",
"^  c #ABABAB",
"/  c #A7ADB3",
"(  c #ABB1B6",
")  c #AEB1BC",
"_  c #B3B3B3",
"`  c #B5BBBF",
"'  c #B7BEC4",
"]  c #B9BDC8",
"[  c #C1C7CA",
"{  c #C6CCD4",
"}  c #CBD2D7",
"|  c #D7DFE7",
" . c #DBE3EC",
".. c #DEE4F0",
"X. c #E3EBF3",
"o. c #E7F1F9",
"O. c #F2FCFF",
/* pixels */
"                                                                                                                                                                ",
"                                                                                                                                                                ",
"                                                                                  1 1 1                                                                         ",
"                                                                                3 3 3 3 3                                                                       ",
"                                                                              1 3 8 q q 8 1                                                                     ",
"                                                                              1 3 8 q j 8 1                                                                     ",
"                                              1 1 3 1                         1 3 8 q j 8 1                                                                     ",
"                                            3 8 8 q 8 1                       1 3 8 q j 8 1                         1 1                                         ",
"                                          1 3 8 j j q 3 3                     1 3 8 q j 8 3                       3 3 1                                         ",
"                                          1 3 8 q j j 9 3 1                   1 3 8 q j j q 8                   3 q 8 1                                         ",
"                                          1 1 3 7 j j l q 6                   1 1 8 q j x l 8 1               3 8 l q 3                                         ",
"                                1 1 1     1 1 3 8 h l x x z 8 1 1             1 3 8 q j l l 8 1             3 q l x j 1                                         ",
"                                3 6 6 6   1 3 3 8 q j x b n l 8 3 3           3 3 8 q j x l 8 1           1 3 q l l q 1                                         ",
"                            1 3 q l l q 1     3 3 8 q l x b n n x q 3 1 1 1 1 3 8 j l l x l 8 1           1 3 q j 8 3                                           ",
"                            1 3 k v b j 1       1 3 9 k l x M M m x 8 3 3 1 1 8 q j j x x l q 8           3 8 q q 3 1                                           ",
"                            1 3 l n n k 3         3 3 j k z b M M m x q 8 3 3 8 q j l l x x l j 3 1     3 8 q l q 3 1                                           ",
"                            1 3 x m m x 8 3     1 1 3 q j k x n M M m x j 3 1 8 j j z b b b x l 8 3   1 1 7 q l q 3 1                                           ",
"                  1 1       1 8 b m M n l 8 1 1 1 1 3 3 9 j l z n M N m z 8 3 q j z b n m n b z j 8 1 1 1 6 9 h q 3 1                                           ",
"                3 8 8     1 1 3 x m M m n j 8 6 3 1 1 3 8 q j l x n M n l 6 1 q l b m M M M n x l 8 1 1 3 6 9 q 9 1 1                                           ",
"              1 3 j q 3 1 1 1 8 l n n M M b j q 3 3 1 3 3 8 q j l x n x q 3 3 q x n M K K M M n x q 3 3 6 8 9 q 9 3 1       3 1 3 1 1 3                         ",
"              1 3 q q 8 3 3 q j h k b m m b k 8 3 1 1 1 3 3 9 q j k l q 3 1 2 q x m N K K K N m x q 1 3 7 7 7 q 8 3 1 1   3 8 8 q 8 8 3 1                       ",
"              1 3 8 j j 8 3 x b 8 8 x n b x j 8 3 3 1 1 3 3 8 9 q q 9 8 3 3 8 q l n M L K K N m l q 3 3 8 7 9 q q 1 1 1 1 3 q l l j q 8 1                       ",
"                3 3 8 q 8 3 l x 6 8 x b x q 0 l v z 9 3 1 3 3 3 3 3 3 q x x x q 9 x m K K K m x q 6 7 7 0 9 q k j 3 3 8 q q j j l q 8 3                         ",
"                  3 3 8 3 3 l l 8 9 l z k 6 8 n N n l 3 1 1 1 3 3 6 8 x K K M j 3 q x M N m b j 3 8 8 p h 9 9 k j 3 8 q l l j q q 8 3 1                         ",
"                    3 3 1 3 j l j q 9 h j 8 6 b m n z 7 3 1 3 9 l b n K E ^ Y b 9 3 j b n x q 8 8 9 q h q 8 3 3 9 j k k x x q 3 3 3 1 1                         ",
"                    1 1 1 1 q j k 0 3 8 j 6 8 x m b x x j 9 3 h n N K E ^ _ ! M l 8 8 j j j 8 8 9 q q q 8 3 3 6 h v b l x l 8 1 1 1 1 1                         ",
"              1 1 1 1 1 1 3 8 q q 7 1 6 9 3 3 x m n M M M n 9 9 m K I E ^ E I N n k q 6 3 8 j z q 9 3 2 3 8 h z n m m b j 8 1 1 1 1 1 1 1 1 1 1 1               ",
"              1 3 3 3 3 3 1 3 8 9 6 1 6 q 8 8 l b M K I T L x j b N L T Y K K N M x q 1 3 q x x q 3 8 8 8 8 h b m N m z h 8 8 6 8 3 8 8 3 3 3 1 1               ",
"              1 3 j j j 8 3 1 3 8 6 3 7 j q 8 3 k M Y ! ! E N x q z K L K M M M M x q 3 j b b z 8 9 z x x 9 6 z m M b 9 j c x l l l l j q q 8 3 1               ",
"              1 3 j l l q 8 8 8 3 3 1 6 q 9 3 1 j K ! ^ _ ^ Y m 8 j N K N M m m b j q j n M x q q l n M M x j j l x l q l b x l l l j q 8 8 8 3                 ",
"              1 3 q j j j j j q 6 1 1 2 3 1 1 1 l E _ ^ _ _ E M q q m N N M n x j 3 j m M m h 9 x M N K K N n j 3 6 j x v x k h q q 3 1 3 1 3                   ",
"                3 8 8 8 j l x l 0 9 7 9 9 q 9 1 k Y ^ ! ! ! E M 9 8 x b n n x j 6 8 x M m z j l m K K K L L K b l j k b x k q 8 8 3 1 1 1 1                     ",
"                  3 1 3 8 j k l j l k l x x l 8 q M L Y Y Y L m 9 3 9 j j j j 3 6 j b n l 8 j n N K I L K L L K N n x z j q 3 3 1 1 1 1                         ",
"                        3 8 h l l l j l z v x l l l n K I I K n 8 1 3 3 8 8 8 8 j b n b q 3 j n K Y Y I J K K K M n x k q 6 1 1 8 8 1 1                         ",
"                        1 1 8 h q q q j l z b n x 8 k M K K N b 8 1 3 3 3 3 3 q z n n z 9 3 q b N I E L N N M m b z k q 8 1 1 8 j q 3 3 3 3 1                   ",
"                      % & : & 1 1 1 8 q j l x b l 3 q m M M m z 8 3 8 q 9 8 8 8 8 j q 8 3 3 j x n M L K M M m b l k q 3 1 3 q z b l q 8 q q q 3                 ",
"                      % % % & 3 8 7 8 6 9 j l x l 3 q b n b z q 8 8 j j j q q 8 8 8 8 8 3 6 j z l b M M m m b z j q 7 3 1 3 x n m b j j l j j 3 1               ",
"                      . . % l J W N 3 $ & 6 q l j 3 3 j k j q 8 8 8 8 8 8 3 8 x n M M m b l q 9 l b n m m n x l q 6 q k 8 3 x m n n x j 8 8 8 3 1               ",
"                    @ @ + ; x U } ( x q h 7 6 j q 6 3 8 7 8 3 3 6 3 1 3 3 3 q M L Y Y Y N n q 8 l x l x x x l j 8 3 q x q 3 l n n b l q 1 1 1 1 1               ",
"                  . , s d a 5 j T ` ` ' ^ v & 8 q q 8 8 3 3 3 1 1 1 1 1 3 j n K Y Y Y Y K M z 9 8 8 6 9 j q q 6 3 8 q l 8 3 l x x j 8 3                         ",
"                  . - s S D u < x E  .O...U l 7 6 9 8 3 3 1 1 1 8 q q 6 3 k m K L L L K K N n l 3 1 3 8 3 8 3 3 3 q q j 8 8 q j j 8 3 1                         ",
"                  . . - A H D a : v ] X.o. ./ l & 1 3 1 1 1 1 6 x m m l 3 j b m M K K N N K N n q 8 j 9 3 1 3 6 8 q q q q 8 8 3 3 3 1 1                         ",
"                  . . o p G F B o q (  .o.o.` l % 1 3 1 1 1 6 j m K K m z j j x m M M M M M N M b j q 8 3 3 3 3 3 8 8 q q 8 3 3 3 3 3 3                         ",
"                  . X # # : V d @ j `  ...[ L 0 & 7 8 1 1 3 q b N I Y T K z 8 k b n m m m m M M N b 8 8 q 8 3 3 3 1 8 8 3 3 3 8 8 q q 8 1 1 1 1 1               ",
"                  . . o X = d V @ 0 W { [ I x 8 3 q q 6 1 3 k m K Y E ^ E M z j j j k z b b m M K M l j 9 q q q q q 8 8 3 3 8 8 q q q 8 8 3 8 3 3 1             ",
"                  . . X = r C d = 7 P ! I z 1 8 j l k 8 3 3 z M K Y ! ! ! E M j 1 3 3 3 j x b n M N M z 6 8 j l b n l 3 1 1 8 q 8 q 8 q q q q 8 3 3 1           ",
"                  . = r a s i t 4 l L J x 8 1 7 j z k 9 3 3 z m N K I Y E E N q & 3 3 3 8 9 q l b M M z 3 7 j x n m b j 3 3 8 8 3 3 3 3 8 8 8 8 8 3 1           ",
"                  . , C Z C , % q n J b 1 3 q q j l j 8 3 3 j n n m M K L K m j 3 3 3 3 3 3 3 8 l b b j 3 8 j x n M M b j 3 3 6 3 1 1 1 1 1 1 8 3 1 1           ",
"                    - w w t 4 8 l x l 9 3 3 9 9 q j j 7 3 3 q x n n b m N N m x j 6 3 6 3 3 3 3 8 q q 9 8 j x n m N K M x 9 3 1 1 1         1 3 3 3             ",
"                      . . O 6 k k 9 & 3 8 9 9 7 9 q q 8 3 3 9 z b x x b n n m m x 8 1 3 6 3 8 8 3 1 1 8 j z b n M K K N n j 8 1 1 1           1 1               ",
"                      $ O $ 1 2 3 1 1 3 9 q 9 8 3 9 8 3 1 3 8 q k l k l z x x b x j 8 3 1 3 9 9 3 3 3 9 j l b m N L K N m x q 1 1 1                             ",
"                      % & & & & & 1 3 8 8 q 9 3 3 8 3 3 1 1 3 8 q q j q j k z z z z h 8 3 3 7 9 3 6 8 q j l b n m N M m m n l 9 1 1                             ",
"                        & 1 3 6 3 3 6 8 7 9 8 8 3 3 3 3 3 3 3 3 8 7 q 8 q q k j j j k j 8 3 8 8 3 3 7 q j k x z z x x l b n b l 3 1                             ",
"                        1 1 8 q 8 8 3 6 8 3 8 3 3 1 3 3 3 3 3 1 6 6 8 8 8 q q j q j j l q 3 3 8 3 8 8 9 q j j q 9 9 7 q l b x l q 3                             ",
"                      1 1 1 3 8 8 8 3 3 3 3 3 1 3 3 3 3 8 3 3 3 3 3 1 1 3 3 q q 8 7 q j j q 3 3 7 3 3 6 8 8 3 3 3 3 3 3 9 j j j j q 1 1 1                       ",
"                    3 8 6 7 3 6 9 8 3 3 3 3 3 8 3 8 8 6 3 8 8 3 1 1 1 3 3 3 3 3 8 8 8 q q q 3 3 8 8 3 6 6 3 1 1 1 1 1 1 3 6 6 7 j j 8 8 8 3                     ",
"                  1 8 j l j 3 3 8 3 3 3 8 q j j j q 8 8 6 6 7 3 3 3 3 3 3 1 1 3 3 1 3 8 8 3 3 1 8 9 q 8 3 3 3 3 3 3 3 3 3 1 1 3 8 j j l j 8 1                   ",
"                3 8 q j l q 3 1 3 3 3 3 q k z l j q 7 8 7 6 8 6 3 3 1 3 3 1 1 1 1 3 1 3 3 3 8 8 9 q 9 6 1 2 3 8 8 8 7 3 3 1 1 3 3 8 8 j l 8 1                   ",
"              1 3 j j j q q 3 1 1 3 3 8 j z z j q 9 8 8 6 7 6 3 1 1 1 3 1 1 1 3 3 3 3 3 1 3 9 j j q q 3 1 1 3 7 9 q 8 1 3       1 1 3 q j 8 1                   ",
"              1 8 j j 8 8 8 8 8 1 3 3 8 9 j k j q 8 8 8 8 8 8 3 1 3 8 8 7 6 6 3 3 3 3 3 1 3 q l j j h 3 1 3 3 9 9 9 8 3 3         1 1 3 8 3                     ",
"              1 3 q 8 3 1 1 8 q 3 1 1 3 8 9 q 9 8 8 8 8 8 8 6 3 1 8 j j q q q 6 1 3 8 8 3 3 8 j l l j 8 1 3 6 7 9 8 8 8 7 1             1                       ",
"              1 3 8 3 1 1 1 8 8 3 1 3 3 7 9 8 8 8 3 8 8 8 8 3 3 8 q j j j k j 8 3 3 3 9 8 8 3 8 h j j q 8 3 3 3 3 3 8 8 8 3 3                                   ",
"              1 1 1 1     1 3 3 1 3 8 9 q 8 8 8 8 3 8 8 8 8 1 3 7 j j j j l j q 8 3 3 8 8 8 3 3 9 j l j j 8 3 1 1 1 3 8 9 8 3 3                                 ",
"                            1 3 3 3 8 9 3 3 3 8 8 8 8 9 8 6 3 3 9 j q j l l l j 8 3 3 8 8 8 3 3 3 9 j j j q 8 3 1   1 3 8 7 8 3 3                               ",
"                            1 1 1 3 q 8 3 1 3 8 8 8 8 q 8 8 3 3 8 q j j l l k j 0 1 3 6 3 3 3 3 1 3 q j j k q 6 1     1 3 8 8 3 3 1                             ",
"                                1 3 8 q 8 3 1 3 8 q q 8 q 8 8 3 3 8 q j j l k j 9 3 1 3 3 3 6 3 3 3 3 7 j k h 6 1       1 3 3 3                                 ",
"                                1 3 3 q q 8 1 1 1 8 8 8 8 9 8 8 3 3 q q q j k j 8 3 1 3 3 3 3 3 1 3 1 6 q k j 6 1         1 1 1                                 ",
"                                    1 8 q 3 1 1 1 3 3 1 3 8 q q q 8 3 8 j j j q 8 3 1 1 1 1 1 1 1 1 1 3 9 h g 3 1                                               ",
"                                    1 8 q 8 1 1 1 3 3 3 3 3 8 8 8 8 1 3 q j j q 8 3 1 1 1 1 1 1 1 1 1 3 6 q q 8 3                                               ",
"                                    1 8 q 3 1 1 1 3 3 8 8 3 3 3 3 1 1 3 q q j j 8 3 1 1 1 3 3 1       1 3 7 j q 8 3 1                                           ",
"                                    1 3 8 3 1 1 1 3 8 q 3 1 1 1 1 1 1 3 8 8 q q 8 1 1 1 3 3 1 1         3 6 9 j j 8 3                                           ",
"                                      1 3         1 3 8 8 1           1 1 8 8 q 8 3 1   1 1 3 1 1 1       1 3 q l j q 3                                         ",
"                                                    3 3 8 3 3           1 3 8 8 q 8 3     1 1 3 1 1         3 8 q j q 1                                         ",
"                                                      1 8 8 3 1           1 3 q q q 8 3     1 1 1 1           1 8 q 9 1                                         ",
"                                                        3 3 3 1             1 3 8 q q 3 3 1                   1 3 8 8 1                                         ",
"                                                          1 1 1               1 3 8 8 q 3 1                   1 3 6 7 1                                         ",
"                                                                                1 3 8 j 8 3                     1 3 3                                           ",
"                                                                                  1 8 j 8 1                       1 1                                           ",
"                                                                                    3 3 3                                                                       ",
"                                                                                      1                                                                         "
};
