/* XPM */
static char *w41672848918[] = {
/* columns rows colors chars-per-pixel */
"80 80 113 2 ",
"   c None",
".  c #020606",
"X  c #0D0503",
"o  c #050909",
"O  c #100606",
"+  c #130806",
"@  c #120B0B",
"#  c #180F0C",
"$  c #0E1212",
"%  c #171011",
"&  c #161919",
"*  c #1D1C1D",
"=  c #210C08",
"-  c #2D0C0A",
";  c #320E0E",
":  c #2C100D",
">  c #221514",
",  c #2E1414",
"<  c #201818",
"1  c #2B1A1A",
"2  c #3A1311",
"3  c #361A1A",
"4  c #252525",
"5  c #282827",
"6  c #272929",
"7  c #2B2B2B",
"8  c #3F2727",
"9  c #302F2F",
"0  c #30302F",
"q  c #2F3030",
"w  c #333333",
"e  c #3B3636",
"r  c #373839",
"t  c #3B3B3B",
"y  c #461515",
"u  c #4A1211",
"i  c #451E1E",
"p  c #541C1D",
"a  c #5B1E1B",
"s  c #611B1B",
"d  c #6A1D1D",
"f  c #67221F",
"g  c #421F20",
"h  c #432625",
"j  c #423E3E",
"k  c #652121",
"l  c #6C2321",
"z  c #742423",
"x  c #782525",
"c  c #7C2D2E",
"v  c #444444",
"b  c #4A4747",
"n  c #464748",
"m  c #4B4B4B",
"M  c #514D4D",
"N  c #4D4F50",
"B  c #535353",
"V  c #585555",
"C  c #5C5C5C",
"Z  c #714243",
"A  c #5C5F62",
"S  c #5D6163",
"D  c #636363",
"F  c #63696F",
"G  c #6B6B6B",
"H  c #6F747C",
"J  c #737373",
"K  c #717578",
"L  c #72797D",
"P  c #7C7C7C",
"I  c #802827",
"U  c #852B2A",
"Y  c #8A2D2C",
"T  c #942E2E",
"R  c #983030",
"E  c #A1484A",
"W  c #B64647",
"Q  c #CB6C6F",
"!  c #D16163",
"~  c #7D7F80",
"^  c #7E8286",
"/  c #848484",
"(  c #8A8A8A",
")  c #828890",
"_  c #8C8E90",
"`  c #8E9397",
"'  c #929393",
"]  c #90969B",
"[  c #94999D",
"{  c #9C9C9C",
"}  c #9396A0",
"|  c #979DA1",
" . c #9A9FA4",
".. c #9DA1A4",
"X. c #A3A4A4",
"o. c gray68",
"O. c #A5ACB1",
"+. c #A9B0B3",
"@. c #B2B2B2",
"#. c #B6BCC2",
"$. c #B8BEC6",
"%. c #BEC6CC",
"&. c #C1C6CC",
"*. c #C6CCD1",
"=. c #CAD1D7",
"-. c #CED5DD",
";. c #D2D9DE",
":. c #CFD4E0",
">. c #D8DEEA",
",. c #DAE2EB",
"<. c #E4ECF5",
"1. c #E6EFF8",
"2. c #EAF3FB",
/* pixels */
"                                                                                                                                                                ",
"                                                                                                                                                                ",
"                                                                                                                                                                ",
"                                                                                                                                                                ",
"                                                                                                                                                                ",
"                                                                                                                                                                ",
"                                                                                                                                                                ",
"                                                                                                                                                                ",
"                                                                                                                                                                ",
"                                                                                                                                                                ",
"                                                                                                                                                                ",
"                                                                                                            4                                                   ",
"                                                                                                          5 w 7                                                 ",
"                                                  4 4 4                       4 4 4 4 4                 4 w v r 4                                               ",
"                                              4 r t 7 4                   4 4 w r 0 5 4               4 w t v r 4                                               ",
"                                              4 t n 7 4                 7 7 7 t t r 7 4             5 7 v v j w 4                                               ",
"                                              4 w j 7 4           4 4 0 v n t t r 5 6           4 4 w t v j w 7 4                                               ",
"                                            7 r r w 7           4 4 0 j m m j w 7 4           w t r t v j r 7 6 4                                               ",
"                                          4 w b t 4           5 4 7 v N v t w 7 4       0 7 7 v B n n v r 7 4                                                   ",
"                                          4 7 v r 4         5 v v v b n t w 5 4 4 4 * 0 C C v m m v j w 7 5           4 4 4 4 4 4 4 4                           ",
"                                          7 t t w 4       0 t m V B n j r 7 6 6 5 w r b J G B m v v r 5 5 4         w r r w r w w 5 4                           ",
"                                        5 v n v 0 4     6 t N M B N n j r q 6 0 t B D J J C m v t w 7 4 4 4     4 4 t C C B B m n w 4                           ",
"                                        5 t v t 0 4 4 7 0 v B C D A B n j q 6 j V G P J C N b t r 7 5 4 4 4 4 v B m B D C M v t r 7                             ",
"                                        4 r t r 7 6 4 7 t m C G J G S B n w 7 j A J J C N v j w 5 4 4 5 4 5 q V P G C B m v 5 4 4                               ",
"                        4 4 4           5 r t w 0 7 5 0 b C G J P P J C m 0 5 w m D D m n t w 7 6 4 7 0 6 w D G G D m w 7 7                                     ",
"                      4 5 q q         4 5 w t r w 0 4 w n D J ~ / / P D m w 4 5 t m m v t t 7 6 7 w j n 7 r G J C n v j q 4                                     ",
"                        5 t r 5 6 5 5 4 6 r t r w w 5 w v D P ~ ( ( J D m t 7 7 0 t t t t 0 7 6 7 n C C t r V C V w r C v 4                                     ",
"                          5 w t t t t 7 6 j b r t t r 0 0 v D P / ~ D b w v C D m 7 5 5 5 5 5 4 0 V G J D m t n B w r V j 4                                     ",
"                          4 7 t n B n t r t t r e t t r 7 r n D J G m r 0 C _ ' J b t w 0 5 6 5 r V G J J V w t n r t m r 4                                     ",
"                              7 n V m M M t 6 6 w t t t t 7 w b B m t 7 m ~ o.o.{ ~ J C j 7 5 w n B D G G C n r 7 j n b r 4                                     ",
"                    4 4 4 4 4 4 w v B D G B v r 7 7 7 w t v v r 0 r e v D ( { o.X._ ( J t r V D G D D D C m v w 5 t v t 0 4                                     ",
"                    5 7 7 7 5 7 7 r m D J J C j w q w 0 w m V t 5 5 j V J ~ / ' { ' ~ D j N ( _ ( P J D M v r 7 4 w r r 5 4                                     ",
"                4 7 r v m m m m B m w N J G N 0 t V B j 7 v C D m 5 t C J J J ~ ( ( C t B ~ X.X.{ / P G V v r 7 5 0 0 5 5 5 4                                   ",
"                7 0 w t v m m N V C v v m m j m D J J D n t n G G m t v C G G J ~ ~ N 0 G ' o.@.o.X.' P D N v 0 5 5 0 w r w r w                                 ",
"              5 w r 5 4 5 r t j m B C m 0 7 v J / ( ~ P G n w C J J n 7 v V G J L G v w J { @.o.o.@.X.( J C M r 5 5 w n m m m t 5 5 5 5 5                       ",
"            4 4 7 7   4 4 5 7 7 r m B B B D P / ( / ( ( P D m t V G B r 0 t m V B n q w G ' { { { ' ' ~ G B m w 5 r v v v v v v t v v j r 4                     ",
"              4 4     4 6 7 7 4 7 r v B D P / ( / / ' ' / J N 5 t D C m w 0 w t w q 6 q H ^ _ _ / J J J C m v w 5 v b t t t r t n m n n t w 5                   ",
"                      4 7 t t 5 5 7 t v N D G P P ~ ' { ( G v 0 r V D D m t 7 5 6 6 4 q F E ( / J C C D C m t 0 5 r j r r w 7 0 t v v v v v w 4                 ",
"                  4 4 7 t B B v 0 4 5 r n m C G J J / ( P B e n v t m C m m n v v v q q C K P J G C C C M v t 0 5 w r w 0 0 t t 7 w w 7 t v w 4                 ",
"                7 7 5 t n D G D t 5 0 w r j m C G J J J C v w B m 7 t n v N C C C B r q N B A G G D C B m t w 7 6 0 r 0 0 w N v 4 4 4 4 w r 7 4                 ",
"              5 j v t v B D G D t 0 m v 7 r m B D D D m w v n e w t v v v v m b b n j t w 7 r B D V N m v w 7 5 0 r r 5 t N N t 5       5 5 4 4                 ",
"            4 5 w t r r v B D C r 0 m v 0 0 r v N N v t t b m e 7 0 0 0 w r w w w w 0 0 q w 0 t m m m j w q 5 5 0 t v t m B b t 6         4 4                   ",
"              4 5 5 4 4 7 j m m w 0 t j e 7 5 w w w 7 t V N t t t r w 7 4 * 4 * 4 q w t t t t 0 q n n r 7 5 7 7 6 j N B B n t w 4                               ",
"                      4 4 7 q w w r t t r w 0 5 5 5 w t n r 5 4 S +.' C & . o . 6 G ....n 4 6 w t t w 7 7 7 0 6 5 t n n n j 0 5                                 ",
"                      7 7 0 0 5 0 e t r w w 0 5 7 0 r t w N S S [ =.[ B 3 - ; ; 8 S +.*.^ S S n w 0 7 5 7 7 7 7 5 0 r r w 0 5 4                                 ",
"                    6 r t r r w 7 7 w 0 5 5 7 w r t r 0 w ` ,.,.&.' j , U R T T l < B X.=.,.-.H 5 6 5 0 q 0 7 7 7 5 5 5 5 5 4 5 4 4 4                           ",
"                  7 w w r t t r 0 4 5 r n n t t w 0 7 N ] -.2.<...v g c ! E p f f a h V #.2.2.%.^ t 4 6 7 0 7 7 7 6 5 0 w 0 0 0 w 7 5 4                         ",
"                5 0 r e w 0 w r 5 5 7 m G D B m r 5 * S -.2.<.;.H @ s W Q Z X = a R u * } ,.1.1.#.n * 6 0 w w w w 5 7 r r t j v t r 7 4 4                       ",
"              5 w t r 9 6 5 7 w 6 q n S L L G C v w 5 m ..;.<.;.K @ d T 3 > # X 2 T u * } ,.1.*._ t 4 7 0 w j v j w 7 7 5 0 m N v j w 6 4                       ",
"            4 5 w r q 5 4 4 4 7 q v F L ~ ~ P G C j 0 r D ..*.#.F @ d U - X + + y R u * ) &.&.( B w 7 w w t v m N n r 5 5 w j m B n t w 7                       ",
"              5 q q 5     4 4 5 r B F ^ / / P P D m r 7 7 S ' { S % s U a : + 2 k Y y * L  .( B 5 0 w r r t v M C V n 6 0 r 6 t M m v t w 4                     ",
"                6 6       4 5 7 n S H Q ( P J J D N t 0 0 w B ( K e 1 y I U x Y z 2 1 v / ~ n w 7 w r r w w t v m m j 5 w r 7 6 r v n j 0 4                     ",
"                4         4 7 j C G D G J G D D V m t w w 5 w D G M 5 1 k x x x p * w V G V 6 5 w r r w 0 w r r t t e 7 0 w 6 4 4 r t t w 4                     ",
"                          4 r V D A n v v v v N m t t w r w 0 0 t b b e # X O X < j M n e 7 6 0 e r w 0 w w w w 7 0 r r 0 6 4 4   4 7 v t 6                     ",
"                        q j n V B v w 7 7 q w w r r 0 0 t w w 7 7 r t 9 & $ $ % * w e w 7 5 0 7 7 7 7 6 5 7 7 7 0 w w r 7 4 4     4 w m t 5                     ",
"                      4 7 N V n t w 5 5 4 4 4 5 7 0 7 0 t t r 0 7 5 4 5 6 6 6 6 6 5 4 6 7 r w 7 5 5 7 7 7 7 5 7 7 r r w 7 5         w n j 4                     ",
"                      4 5 n m t w 5 7 7 7 7 5 7 6 7 q t r r t w 9 9 9 9 7 9 7 w 0 7 5 6 w w w 7 q r t j v t w 5 5 w w 6 r t 7         q 7                       ",
"                      4 5 t t w 5 4 5 w r w w 7 6 6 w t t v v t w 9 9 0 w 7 7 5 7 7 5 5 w w 0 w w r j v N m t 0 5 5 5 4 r t 7 4                                 ",
"                      4 6 w w 6     4 7 r e w 7 6 6 w t v n n j r 7 7 7 7 5 5 5 6 5 4 6 0 r 0 w w r t j m B v r w 5 4 4 w r 7 4                                 ",
"                      4 6 w w 4     4 6 7 w r 7 5 6 w j n n j w 7 w w 7 5 7 r t t t 0 6 7 w w w w q w t j v t 7 6 4 4 4 7 r e w 4                               ",
"                        5 q 9 5     5 5 4 0 w 7 7 w t v n j w 7 7 r 9 7 5 r v v v n r 7 7 0 w w w q w w r r w 7 7 5 4 4 5 7 t w 4                               ",
"                          5 5   4 6 w 7 4 6 4 6 w t b b j w 6 q e e 7 5 r t n v n v j r 7 5 0 w w q q q w r e t r 5 4   4 5 9 7 4                               ",
"                                4 6 w 0 4 4 6 w j n n j w 7 5 w w w 7 7 r v n m b j j t 7 5 0 r r w w r w 5 7 t t 7 4     5 5 5                                 ",
"                                  6 0 7 4 4 q t n n j w 5 5 7 7 7 0 5 7 t n n m n v t r 7 7 w w r w r r 5 4 4 w t 7 4       4 4                                 ",
"                                    5 5   4 7 v n v w 5 5 7 7 7 7 7 5 7 t v n v v j q 7 7 r e r r r w 5 4 4 4 w t 7 4                                           ",
"                                          4 7 v v e 5 4 5 5 5 5 5 5 5 7 r v n j t w q q w r r 9 7 9 7 4 4 4 4 w t 7 4                                           ",
"                                          4 7 t t w 6 4 4 4 4 5 4 4 4 5 w j v v r 6 q t t r w 7 5 4 4 4     4 w t 7 4                                           ",
"                                          4 7 t w 6       4 5 5 5 4 4   5 r v t w 5 6 7 7 7 5 q w 7 5 4       5 7 r w 5                                         ",
"                                          4 5 t r 7         5 5 5 4     4 9 t r 7 4 4 4 4 * 4 q w 9 7 4 4       5 w w 5                                         ",
"                                          4 5 r t t 7 4       5 4 4     4 7 r 7 5 4 4 4       5 5 r r 5 4 4       5 5                                           ",
"                                            4 7 w r r q 5               4 9 t 5 5 w 7 4         5 7 w w 5 4                                                     ",
"                                              4 5 w r r 5               4 w t 7 w t w 4           4 7 r 7 4                                                     ",
"                                                5 5 5 5                 4 q t t t v r 4             5 5 4 4                                                     ",
"                                                  4 4                     7 7 r e r w                 4 4                                                       ",
"                                                                            4 4 4 4                                                                             ",
"                                                                                                                                                                ",
"                                                                                                                                                                ",
"                                                                                                                                                                ",
"                                                                                                                                                                ",
"                                                                                                                                                                "
};
