/* XPM */
static char *result[] = {
/* columns rows colors chars-per-pixel */
"80 80 243 2 ",
"   c #7D462B",
".  c #6E4D3D",
"X  c #734C3B",
"o  c #794836",
"O  c #5C5D55",
"+  c #5D5D5D",
"@  c #575E5A",
"#  c #5F5A4E",
"$  c #6E4C44",
"%  c #734D42",
"&  c #6B534C",
"*  c #675349",
"=  c #625C55",
"-  c #615C5B",
";  c #665553",
":  c #5B615D",
">  c #56605D",
",  c #5C5D61",
"<  c #5B5E67",
"1  c #615C61",
"2  c #635B6A",
"3  c #556163",
"4  c #5A6163",
"5  c #55616A",
"6  c #9C1F01",
"7  c #A21E04",
"8  c #962402",
"9  c #9C2502",
"0  c #962B03",
"q  c #9D2C03",
"w  c #9C2D0A",
"e  c #992A0A",
"r  c #9D3103",
"t  c #95330B",
"y  c #9B310B",
"u  c #943608",
"i  c #9A2E12",
"p  c #982F15",
"a  c #8C3A1C",
"s  c #8D3719",
"d  c #943313",
"f  c #94341B",
"g  c #993414",
"h  c #A22603",
"j  c #A22B03",
"k  c #A22C0A",
"l  c #A62607",
"z  c #A23204",
"x  c #AB3C04",
"c  c #A5320B",
"v  c #A83809",
"b  c #A33413",
"n  c #A63917",
"m  c #A83011",
"M  c #853D24",
"N  c #8B3B21",
"B  c #873C29",
"V  c #8F3B2B",
"C  c #A53B22",
"Z  c #86431B",
"A  c #AD430B",
"S  c #AB4506",
"D  c #B34404",
"F  c #B94B08",
"G  c #BB5406",
"H  c #AA4719",
"J  c #B34A17",
"K  c #B95516",
"L  c #AE5215",
"P  c #BE6309",
"I  c #BD621A",
"U  c #844125",
"Y  c #82422B",
"T  c #8A402D",
"R  c #814431",
"E  c #AC4925",
"W  c #B14A29",
"Q  c #B35937",
"!  c #B1582B",
"~  c #BD6529",
"^  c #B86339",
"/  c #C35703",
"(  c #CB6303",
")  c #C96605",
"_  c #D36A08",
"`  c #DA7805",
"'  c #C56817",
"]  c #C97618",
"[  c #CE740E",
"{  c #E17C04",
"}  c #C8792A",
"|  c #C46F2D",
" . c #B45B42",
".. c #B86846",
"X. c #B87156",
"o. c #BF7E60",
"O. c #C47956",
"+. c #C47848",
"@. c #C97D63",
"#. c #D7830C",
"$. c #D78919",
"%. c #DA9718",
"&. c #E88705",
"*. c #F18C03",
"=. c #EE9202",
"-. c #F49403",
";. c #FD9602",
":. c #F69C03",
">. c #FC9C03",
",. c #FD950A",
"<. c #FD9C0A",
"1. c #F59D0C",
"2. c #E49C16",
"3. c #FC9D13",
"4. c #E78010",
"5. c #FDA103",
"6. c #FDA30C",
"7. c #F9A909",
"8. c #FAB509",
"9. c #E8A619",
"0. c #FDA414",
"q. c #FDAB12",
"w. c #FDAC1C",
"e. c #FAA21A",
"r. c #FBB414",
"t. c #FBBA16",
"y. c #FAB719",
"u. c #EFB717",
"i. c #D48827",
"p. c #D1883A",
"a. c #D89439",
"s. c #D58E2D",
"d. c #E7A72A",
"f. c #FCAB24",
"g. c #FAAB26",
"h. c #EBB525",
"j. c #FCBB22",
"k. c #FBB52C",
"l. c #F7B928",
"z. c #FDAC33",
"x. c #EDB537",
"c. c #F9B838",
"v. c #E6A836",
"b. c #E0A227",
"n. c #FBC31D",
"m. c #FCCB1D",
"M. c #F9C519",
"N. c #FED01E",
"B. c #FBC422",
"V. c #FCCA23",
"C. c #FCC42B",
"Z. c #FCCB2B",
"A. c #F6C726",
"S. c #FCD32C",
"D. c #FCC334",
"F. c #FCCC34",
"G. c #FDCD3C",
"H. c #F7C736",
"J. c #FDD23C",
"K. c #FCD235",
"L. c #CD8857",
"P. c #D48B4A",
"I. c #DDA44F",
"U. c #FABB47",
"Y. c #E2AE58",
"T. c #FDBC54",
"R. c #FCBB59",
"E. c #E6AF4A",
"W. c #C88666",
"Q. c #C98B75",
"!. c #D3996E",
"~. c #DBAB75",
"^. c #DBAA69",
"/. c #E4B666",
"(. c #EFB668",
"). c #E09F56",
"_. c #FAC747",
"`. c #FCD243",
"'. c #FCD24C",
"]. c #FED84F",
"[. c #FAC658",
"{. c #FDD454",
"}. c #FFDB5D",
"|. c #FDD658",
" X c #EAC05C",
".X c #FDD463",
"XX c #FBD769",
"oX c #FBCA77",
"OX c #FDDD7A",
"+X c #FBD677",
"@X c #F0C56C",
"#X c #FCE277",
"$X c #FEE265",
"%X c #DDAF8F",
"&X c #E7BC89",
"*X c #DDB8A1",
"=X c #E2BEA7",
"-X c #D49F88",
";X c #EED487",
":X c #FBD985",
">X c #E6C79A",
",X c #FADA95",
"<X c #F0CD86",
"1X c #FDE28C",
"2X c #FDE687",
"3X c #FCE394",
"4X c #FBEB93",
"5X c #FCE49B",
"6X c #F8E598",
"7X c #F9F29D",
"8X c #E6CAA6",
"9X c #F8DDA7",
"0X c #F5D7B8",
"qX c #E6CFB1",
"wX c #FCE5A5",
"eX c #FCEBAC",
"rX c #FCE7A7",
"tX c #FAF1A8",
"yX c #FCECB4",
"uX c #FCECBB",
"iX c #F6E7B6",
"pX c #FDF2BA",
"aX c #F9F1B3",
"sX c #EDDBC5",
"dX c #EFDECE",
"fX c #FBEDC7",
"gX c #FDF3C3",
"hX c #FBF4CB",
"jX c #F4F4C3",
"kX c #F5E8D7",
"lX c #FBF4D3",
"zX c #FDF3DA",
"xX c #FCF9DB",
"cX c #FBFAD5",
"vX c #EFE5C4",
"bX c #F8EDE4",
"nX c #FCF4E5",
"mX c #FBF5EC",
"MX c #FBF8E9",
"NX c #FCFBF3",
"BX c #FDFDFC",
"VX c #FAFAF9",
"CX c None",
/* pixels */
"CXCXCXCXCXCXCXCXCXCXCXCXCXCXCXCXCXCXCXCXCXCXCXCXCXCXCXCXCXCXCXCXCXCXCXCXCXCXCXCXCXCXCXCXCXCXCXCXCXCXCXCXCXCXCXCXCXCXCXCXCXCXCXCXCXCXCXCXCXCXCXCXCXCXCXCXCXCXCXCX",
"CXCXCXCXCXCXCXCXCXCXCXCXCXCXCXCXCXCXCXCXCXCXCXCXCXCXCXCXCXCXCXCXCXCXCXCXCXCXCXCXCXCXCXCXCXCXCXCXCXCXCXCXCXCXCXCXCXCXCXCXCXCXCXCXCXCXCXCXCXCXCXCXCXCXCXCXCXCXCXCX",
"CXCXCXCXCXCXCXCXCXCXCXCXCXCXCXCXCXCXCXCXCXCXCXCXCXCXCXCXCXCXCXCXCXCXCXCXCXCXCXCXCXCXCXCXCXCXCXCXCXCXCXCXCXCXCXCXCXCXCXCXCXCXCXCXCXCXCXCXCXCXCXCXCXCXCXCXCXCXCXCX",
"CXCXCXCXCXCXCXCXCXCXCXCXCXCXCXCXCXCXCXCXCXCXCXCXCXCXCXCXCXCXCXCXCXCXCXCXCXCXCXCXCXCXCXCXCXCXCXCXCXCXCXCXCXCXCXCXCXCXCXCXCXCXCXCXCXCXCXCXCXCXCXCXCXCXCXCXCXCXCXCX",
"CXCXCXCXCXCXCXCXCXCXCXCXCXCXCXCXCXCXCXCXCXCXCXCXCXCXCXCXCXCXCXCXCXCXCXCXCXCXCXCXCXCXCXCXCXCXCXCXCXCXCXCXCXCXCXCXCXCXCXCXCXCXCXCXCXCXCXCXCXCXCXCXCXCXCXCXCXCXCXCX",
"CXCXCXCXCXCXCXCXCXCXCXCXCXCXCXCXCXCXCXCXCXCXCXCXCXCXCXCXCXCXCXCXk m k y y t t w w w w y d u CXCXCXCXCXCXCXCXCXCXCXCXCXCXCXCXCXCXCXCXCXCXCXCXCXCXCXCXCXCXCXCXCXCX",
"CXCXCXCXCXCXCXCXCXCXCXCXCXCXCXCXCXCXCXCXCXCXCXCXCXCXCXCXy t t e q j j j j j j q j j q q q r w i g CXCXCXCXCXCXCXCXCXCXCXCXCXCXCXCXCXCXCXCXCXCXCXCXCXCXCXCXCXCXCX",
"CXCXCXCXCXCXCXCXCXCXCXCXCXCXCXCXCXCXCXCXCXCXCXCXCXw y j j j q q q q q q z j q r r r q r q 9 j h j q t d CXCXCXCXCXCXCXCXCXCXCXCXCXCXCXCXCXCXCXCXCXCXCXCXCXCXCXCX",
"CXCXCXCXCXCXCXCXCXCXCXCXCXCXCXCXCXCXCXCXCXCXCXg k q j q l k j l j j h 9 j 9 e 9 q 9 q j j j q q q q 9 j j d CXCXCXCXCXCXCXCXCXCXCXCXCXCXCXCXCXCXCXCXCXCXCXCXCXCX",
"CXCXCXCXCXCXCXCXCXCXCXCXCXCXCXCXCXCXCXCXCXt j j j q w e j h e 9 q q e c b b b b m w e h l 7 j q q k k q q j w a CXCXCXCXCXCXCXCXCXCXCXCXCXCXCXCXCXCXCXCXCXCXCXCX",
"CXCXCXCXCXCXCXCXCXCXCXCXCXCXCXCXCXCXCXCXw j q r j j 9 q q w i C W  .X.W.Q.Q.Q.Q.Q.o...Q C C k 9 q q j r q z j j g M CXCXCXCXCXCXCXCXCXCXCXCXCXCXCXCXCXCXCXCXCXCX",
"CXCXCXCXCXCXCXCXCXCXCXCXCXCXCXCXCXCXw j j z q q q q i p n ^ Q.*XsXbXVXBXBXBXVXBXVXVXVXkXqX-XX.E b k q z j 8 z q h k f CXCXCXCXCXCXCXCXCXCXCXCXCXCXCXCXCXCXCXCXCX",
"CXCXCXCXCXCXCXCXCXCXCXCXCXCXCXCXCXq q j q l k q q y W W.8XbXNXVXBXBXNXNXmXnXzXhXfXbXmXmXmXmXnXkX%X .C e l c 0 j q q j q CXCXCXCXCXCXCXCXCXCXCXCXCXCXCXCXCXCXCXCX",
"CXCXCXCXCXCXCXCXCXCXCXCXCXCXCXCXj j q q q i k 9 E Q.dXmXNXmXmXVXNXkX9X:XR.U.k.g.e.g.f.c.T.oX9XgXbXbX=XX.m e j j j j q 0 z CXCXCXCXCXCXCXCXCXCXCXCXCXCXCXCXCXCXCX",
"CXCXCXCXCXCXCXCXCXCXCXCXCXCXCXe e q j l r 0 b @.0XmXVXzXbXVXnX9X[.z.e.3.>.>.<.>.<.>.>.>.>.,.e.g.R.9XkXbX*XQ e q j j z w q j CXCXCXCXCXCXCXCXCXCXCXCXCXCXCXCXCXCX",
"CXCXCXCXCXCXCXCXCXCXCXCXCXCXl q r r l k 9 Q *XbXmXnXnXmXzX,XU.g.3.<.>.<.>.>.;.>.<.>.>.>.>.<.>.:.,.3.z.oXkXdXQ.n 9 j q r 9 j k CXCXCXCXCXCXCXCXCXCXCXCXCXCXCXCXCX",
"CXCXCXCXCXCXCXCXCXCXCXCXCXCXq z r z j w X.qXmXMXzXxXzX9XR.3.:.>.>.>.1.6.5.5.5.6.<.>.>.>.>.>.<.>.;.>.>.3.c.,XdX%XW 6 q j q q h w CXCXCXCXCXCXCXCXCXCXCXCXCXCXCXCX",
"CXCXCXCXCXCXCXCXCXCXCXCXCXj q q j 9 b Q.0XcXxXlXzXzX:Xz.3.,.>.>.,.>.5.=.#.` ) G / ( { -.>.;.<.,.,.>.>.>.5.g.oXiX*XQ 8 j c j j j w CXCXCXCXCXCXCXCXCXCXCXCXCXCXCX",
"CXCXCXCXCXCXCXCXCXCXCXCXk q q q 9 n W.sXnXlXlXcXuX[.e.:.>.:.6.6.:.&._ F x z r H O.-X&XoXR.z.e.,.>.<.<.;.<.:.3.R.9X*X..6 w j j j j CXCXCXCXCXCXCXCXCXCXCXCXCXCXCX",
"CXCXCXCXCXCXCXCXCXCXCXj j q q 9 b W.iXcXhXfXlXiXR.<.:.5.>.>.>.&.( S z 9 w W W.>XvXcXxXhXuXwX+X[.g.>.,.>.5.<.-.1.U.,X=XQ 0 q w e j j CXCXCXCXCXCXCXCXCXCXCXCXCXCX",
"CXCXCXCXCXCXCXCXCXCXCXq q z 0 e O.qXcXjXhXhX9XT.1.<.>.>.>.*.` F 9 0 h q H +.%X*X8XqXuXcXxXxXcXyX:XT.g.;.:.<.>.>.;.k.6X*XW c q k j q k CXCXCXCXCXCXCXCXCXCXCXCXCX",
"CXCXCXCXCXCXCXCXCXCXq q q r 9 ..>XcXfXfXlXiXT.<.>.>.;.>.*.( x e 0 q l j n E ! H Q ^ L.%XqXhXhXhXgXyX+Xz.,.;.>.<.,.;.c.wX!.n 9 q j w j CXCXCXCXCXCXCXCXCXCXCXCXCX",
"CXCXCXCXCXCXCXCXCXq j l q 8 E &XgXgXfXgXuX[.0.:.>.>.>.=./ r 9 j j q q k h 8 9 8 6 6 6 m ^ !.8XuXuXfXjX6Xc.,.1.>.:.:.,.U.9XO.n 0 r j j j CXCXCXCXCXCXCXCXCXCXCXCX",
"CXCXCXCXCXCXCXCXh j l l w k !.iXpXyXuXyX+X0.>.>.>.5.=./ k 9 r r q h k j q l j j q z r 9 8 0 ^ &XaXpXaXpXwXU.1.:.>.6.<.1.oX>X^ e q q q j CXCXCXCXCXCXCXCXCXCXCXCX",
"CXCXCXCXCXCXCXCXj j j j r ^ 9XpXaXeXuX,Xf.1.>.>.5.-.( q q j j 9 w q q 9 q r q w q q j j z w 9 b !.9XpXeXiXwXc.<.>.>.>.>.6.:X~.n h j q j j CXCXCXCXCXCXCXCXCXCXCX",
"CXCXCXCXCXCXCXe j q q 9 n ~.iXiXtXaXrX[.,.>.<.<.:.` r q q j j 9 0 q q q q j j k e 9 j l e q z h e L.wXpXeXyX,Xk.>.>.5.>.;.U.<XO.9 q q q j CXCXCXCXCXCXCXCXCXCXCX",
"CXCXCXCXCXCXCXj q q j w ^ ,XeXeXeXeXOXe.<.>.>.5.&.D q j 9 r q e j j z i s B U Z d y q j j q q j 8 w +.wXtXrXyXoXg.>.>.5.1.3.+X~.E 9 j r j w CXCXCXCXCXCXCXCXCXCX",
"CXCXCXCXCXCXr q q q 9 n ^.tXeXwXyX5XU.:.>.>.>.-.( q 9 j q q q j j f % & O : 2 + ; . B i j q q 0 q h n L.tXeXrXwX[.3.,.>.>.;.U.@XO.9 q r j j CXCXCXCXCXCXCXCXCXCX",
"CXCXCXCXCXCXl z q q h ! :XeX5XwXrX+Xg.>.5.-.>.{ x 0 q q l w u r B ; + + + 1 , < , + + $ f j q 0 z j 9 E ~.7XrXeX:Xc.;.>.>.>.0.[.~.b e 0 j z k CXCXCXCXCXCXCXCXCX",
"CXCXCXCXCXy j q z 9 k P.5XwX7XrX,X_.<.>.>.>.;.( q 0 z q l l r   O < , O : O O - 3 + + , & V l h q w 0 e ^ ;X7X5X5X[.<.:.:.<.:.U.(.~ 0 e z j j CXCXCXCXCXCXCXCXCX",
"CXCXCXCXCXr j q r 8 E /.7X6X5XwX+Xz.>.:.:.5.&.D 8 9 j q j k Y = 4 , - + + < , - 1 , O - - & s k k q q q b !.6X6X5X+Xf.>.:.>.;.f. XL.9 q j j j k CXCXCXCXCXCXCXCX",
"CXCXCXCXCXj q j j 9 ^ ;X4X5X3X3X[.w.;.<.>.5._ z e k j w j Y & 1 4 + = O : , 1 - - , O O O O . i j q j j q ! <X4X6X1X[.>.>.>.>.0.U.^.c q j r j k CXCXCXCXCXCXCXCX",
"CXCXCXCXCXj q q j z +.1X3X3X3X1X_.:.>.:.>.;./ q j j q w d $ 1 1 O , - O O + 1 , = + < + - + O U w w y q j b ^.6X6X1XXX3.1.>.>.>.c.@XJ k j 9 q k CXCXCXCXCXCXCXCX",
"CXCXCXCXg j k w 9 n P.4X1X3X1XOXk.>.,.>.5.&.D 9 j j q w   ; < O - , 1 O + + + 5 - O 4 , - + + & d q w q j l P.+X4X1X+Xg.<.>.>.>.w.@X~ e q r q w s CXCXCXCXCXCXCX",
"CXCXCXCXy l j q 9 J Y.4X2X:X1XXXf.>.>.>.5.` x q j j j w $ + , O + + + , , + : - - - , : O - + - M q q q q 9 ^ @X2X:XOXU.,.>.1.>.w.[.} k q j q w t CXCXCXCXCXCXCX",
"CXCXCXCXr j j r 7 ! /.2X#X+X1X[.f.,.5.>.5._ z 9 j j r f & , + + + + + , , : + + + , + + , + + 1 Y r q j 9 0 H /.2X2XOX_.<.>.:.,.w.[.P.i q q q w y CXCXCXCXCXCXCX",
"CXCXCXCX0 q j z 6 ~ (.4X1X1X3X_.0.;.>.>.>.( q 9 j j r U ; < + O + : , + + + + + + + + , + + + , X f j j q 9 z I.2X#X:X[.<.>.>.>.6.c.).b q q j q y CXCXCXCXCXCXCX",
"CXCXCXCXq j j j 9 | ;XhXnXlXpX[.,.;.>.>.>.G q 9 j j w o O , + + + - , + + + + + + + O + + + + 4 & N j q j j q P.+X#XOX.X6.>.>.;.6.k.Y.n 9 j q j w CXCXCXCXCXCXCX",
"CXCXCXCXr q j j 8 +.0XBXBXBXNXoX0.>.>.>.>./ j q q q q . + , + + + + , + + - , - + + O + : + + + O U j j z j 9 P.+X#X+X|.6.>.>.>.6.k.Y.b j j q q j CXCXCXCXCXCXCX",
"CXCXCXCXq q q j 9 @.kXBXNXVXBX:X0.>.>.>.>.G j q q q r . + , , : + + + + + + , : + + + + , + + : = M h j q q 9 p.XX#X+X.X6.>.>.;.6.l.Y.v h q q j h CXCXCXCXCXCXCX",
"CXCXCXCXq r q q 9 O.sXVXNXBXBXoX0.>.5.>.>.F j q q j q o - 4 + + + , + + + + + + + + + + + + + : = a j j q q 9 p..XOXXX}.0.>.>.>.<.k.Y.c h q q j j CXCXCXCXCXCXCX",
"CXCXCXCXr w j j 9 ~ ;XMXNXNXgX[.>.,.,.>.>./ j q q j r o = 4 + + - , + , + + + + + 1 + + , O - , * s h q q 0 r a.|.XXXX[.6.>.>.>.<.c.E.v h q r j j CXCXCXCXCXCXCX",
"CXCXCXCXr q j z 9 '  X2X2X1X#Xc.0.<.>.;.;./ j q j j w   = < + + + + , 1 + + O + + 1 , , + - + 5 * d j q j q r a.XXXX}._.<.;.5.>.6.c.I.v j j q q q CXCXCXCXCXCXCX",
"CXCXCXCX0 q j j 9 I E.$XXXXXXXG.0.>.:.>.>._ v 9 j j q a & 1 1 - + , , + - - 1 + + O - , + = - < o g j r q q b E.}..XXXG.6.>.>.>.6.c.a.y h q q q i CXCXCXCXCXCXCX",
"CXCXCXCXr j r j 8 J I.$XXX|..X_.0.;.5.>.5._ v 9 j j q d & , + O + + + + O + , + + O O , , @ @ < Y j j j q 0 K E.}..X.Xk.:.>.5.;.0.H.p.r j r q j d CXCXCXCXCXCXCX",
"CXCXCXCXCXj z q 9 A s.}.|.|.}.'.w.>.>.>.5.&.S 0 j j j w R + 4 : + - = + , , > + + + - - , < + * s j j j j 8 ' [.}.|.|.w.>.>.5.;.w.c.~ 9 9 q j j CXCXCXCXCXCXCXCX",
"CXCXCXCXCXj j q q j } {.|.{.|.{.j.>.>.:.>.-.F 0 q j h k f ; 4 O O < O + + - O O @ + , - - , O o y j j j q q a.{.}.|.'.6.>.:.>.>.w.x.L q j q q j CXCXCXCXCXCXCXCX",
"CXCXCXCXCXj j j q q ~ _.{.'.{.}.k.5.>.>.>.>.) r 9 j j j q   = < , @ , 1 , + - + + @ + + < , * f j q w r e J U.|.|.'.k.>.>.:.>.>.f.E.v j j q j l CXCXCXCXCXCXCXCX",
"CXCXCXCXCXw j j j 9 J v.}.'.'.{.D.0.:.>.,.>.` x 9 j z q l y   , < O = 1 < , O 1 - : O + < ; N k j q q q w i.[.{.{.H.w.>.>.>.>.q.l.p.q j j j q k CXCXCXCXCXCXCXCX",
"CXCXCXCXCXCXq j q 8 v i.].`.`.{.`.w.>.>.>.>.-./ q j q 9 j j d X + : O + , , + - + , 1 , ; Y j q 9 z j 9 J x.`.'.{.H.6.>.5.>.;.y.x.~ 9 z j l w CXCXCXCXCXCXCXCXCX",
"CXCXCXCXCXCXl j r 9 q I G.'.`.'.{.C.5.;.>.:.:.` x 9 j 0 r e j d $ - + , , O - 1 , + O *   0 9 q q r 9 v i.`.`.'._.f.>.>.>.;.:.j.b.A q j j l w CXCXCXCXCXCXCXCXCX",
"CXCXCXCXCXCXl j q r q A d.'.G.'.'.H.q.>.5.>.5.=./ 9 j r e w r l i V $ + , - O : , = X a w q j q r 9 w ~ U.`.`.`.l.6.5.5.>.>.q.x.} l q q q k y CXCXCXCXCXCXCXCXCX",
"CXCXCXCXCXCXj q r q 9 j ' _.`.G.`.G.k.<.<.<.5.5.` x 0 9 k k y q q q i B o $ . % Y d k k j j z j w q ' v.`.G.`.D.q.>.>.>.;.>.y.b.L 7 j z y q CXCXCXCXCXCXCXCXCXCX",
"CXCXCXCXCXCXCXj q q j j S v.`.K.F.`.F.q.,.:.:.>.:.) e k l q 0 q e r z j j q y j q q j j j r q w 9 K v.`.J.G.G.r.:.>.5.>.>.q.h.i.w q q q h w CXCXCXCXCXCXCXCXCXCX",
"CXCXCXCXCXCXCXj y q q q 8 ] H.J.F.F.G.C.<.<.>.>.>.=.G 9 j j l j j k 9 r q j j l w y r 9 q q j 9 I d.F.J.J.F.w.5.>.:.>.>.:.C.b.L 9 j q j j CXCXCXCXCXCXCXCXCXCXCX",
"CXCXCXCXCXCXCXCXj j q r 9 v s.H.F.G.G.F.q.:.>.>.>.:.&.D j l q j j j q j w q j j j q r z h h v ] x.K.K.F.F.l.6.>.:.<.<.>.r.x.' w q z l j y CXCXCXCXCXCXCXCXCXCXCX",
"CXCXCXCXCXCXCXCXj l k j q e K h.S.F.F.F.C.q.>.>.>.,.:.&.D q 0 w r q j j h 0 0 0 j j 8 7 v ' b.H.F.F.K.F.f.0.<.>.6.<.:.7.A.i.v 6 q q j 9 CXCXCXCXCXCXCXCXCXCXCXCX",
"CXCXCXCXCXCXCXCXCXj k q j q l ] x.K.H.F.K.C.7.:.>.>.:.>.{ F q 8 r l j q z k 9 0 r A K ] b.h.J.Z.S.F.C.w.3.>.>.>.:.>.7.M.d.H h j w q j w CXCXCXCXCXCXCXCXCXCXCXCX",
"CXCXCXCXCXCXCXCXCXCXq r l q 9 v i.A.S.Z.F.Z.y.6.>.>.:.>.<.&.( x 9 q q w A ' $.$.$.%.h.l.A.K.K.F.A.j.q.:.5.>.>.>.;.5.y.h.K j q j j w q CXCXCXCXCXCXCXCXCXCXCXCXCX",
"CXCXCXCXCXCXCXCXCXCXq q z q q 9 S $.A.Z.C.Z.Z.j.6.>.>.>.>.6.-._ F j w 9 c G $.l.S.S.S.S.Z.C.y.j.0.1.5.>.>.5.>.>.6.y.h.' j q 0 9 j w u CXCXCXCXCXCXCXCXCXCXCXCXCX",
"CXCXCXCXCXCXCXCXCXCXCXw q q j j 0 S s.A.Z.Z.A.V.y.q.>.>.:.>.5.5.*._ / x q q x I i.2.h.j.t.r.6.6.>.>.>.>.>.5.>.q.y.h.] j j q q j j q CXCXCXCXCXCXCXCXCXCXCXCXCXCX",
"CXCXCXCXCXCXCXCXCXCXCXCXq j l q 0 0 S %.l.S.V.V.V.j.q.>.>.>.>.:.5.>.*.{ ) / D S F _ 4.:.>.>.>.>.>.>.;.>.>.5.7.n.h.' r 9 k q j l j CXCXCXCXCXCXCXCXCXCXCXCXCXCXCX",
"CXCXCXCXCXCXCXCXCXCXCXCXj q w q q c 0 x i.l.Z.V.B.V.B.r.7.>.>.>.>.>.>.5.5.>.;.-.*.&.*.;.>.>.>.>.>.5.>.>.5.8.n.d.) q h q j q r j k CXCXCXCXCXCXCXCXCXCXCXCXCXCXCX",
"CXCXCXCXCXCXCXCXCXCXCXCXCXq k k 9 h k 9 r [ 9.m.m.V.V.n.t.q.5.>.>.>.>.>.;.>.>.>.5.5.5.>.<.>.;.<.:.>.5.0.8.M.%.F e w z q q q y a CXCXCXCXCXCXCXCXCXCXCXCXCXCXCXCX",
"CXCXCXCXCXCXCXCXCXCXCXCXCXCXk k j j j j k 8 F %.n.A.B.A.B.n.t.r.6.>.>.>.5.>.>.:.:.>.>.>.5.>.;.5.7.8.y.A.h.[ x l k 9 j q 9 q f CXCXCXCXCXCXCXCXCXCXCXCXCXCXCXCXCX",
"CXCXCXCXCXCXCXCXCXCXCXCXCXCXCXh j r w j q q 9 v ' 9.n.V.m.M.m.n.M.8.8.7.5.5.>.5.5.>.5.5.5.7.7.8.n.B.u.#.S 0 j q r q w q r a CXCXCXCXCXCXCXCXCXCXCXCXCXCXCXCXCXCX",
"CXCXCXCXCXCXCXCXCXCXCXCXCXCXCXCXb l 9 k q k k k 9 z ) %.t.m.V.V.n.B.B.B.M.t.t.8.r.r.u.t.M.M.m.m.u.#.A c j j y 0 q q 0 k N CXCXCXCXCXCXCXCXCXCXCXCXCXCXCXCXCXCXCX",
"CXCXCXCXCXCXCXCXCXCXCXCXCXCXCXCXCXp k r r q w q 9 j q z L [ 2.t.M.V.V.V.V.m.m.m.N.N.m.m.y.9.%.P D j q r j q l e k j i V CXCXCXCXCXCXCXCXCXCXCXCXCXCXCXCXCXCXCXCX",
"CXCXCXCXCXCXCXCXCXCXCXCXCXCXCXCXCXCXa c w w q q q q 9 9 j j z D G [ #.%.2.2.9.9.%.%.` ' G S z l j w j k z q q j q d CXCXCXCXCXCXCXCXCXCXCXCXCXCXCXCXCXCXCXCXCXCX",
"CXCXCXCXCXCXCXCXCXCXCXCXCXCXCXCXCXCXCXCXa q q j j j z q q q j q q j z x v v x x z x z q q 9 q q k w w y 9 h q u U CXCXCXCXCXCXCXCXCXCXCXCXCXCXCXCXCXCXCXCXCXCXCX",
"CXCXCXCXCXCXCXCXCXCXCXCXCXCXCXCXCXCXCXCXCXCXf k h j q k r q q j q 9 q q q h 9 q h q j j q j j q q j j j j d B o CXCXCXCXCXCXCXCXCXCXCXCXCXCXCXCXCXCXCXCXCXCXCXCX",
"CXCXCXCXCXCXCXCXCXCXCXCXCXCXCXCXCXCXCXCXCXCXCXCXf y q q j j q q q j q q j q q q q q q q r r q j j h j g U o CXCXCXCXCXCXCXCXCXCXCXCXCXCXCXCXCXCXCXCXCXCXCXCXCXCX",
"CXCXCXCXCXCXCXCXCXCXCXCXCXCXCXCXCXCXCXCXCXCXCXCXCXY N f i w j j j j j q j q r r j j h j h q q j y a T o CXCXCXCXCXCXCXCXCXCXCXCXCXCXCXCXCXCXCXCXCXCXCXCXCXCXCXCX",
"CXCXCXCXCXCXCXCXCXCXCXCXCXCXCXCXCXCXCXCXCXCXCXCXCXCXCXo R Y M s y r j j h q q q j j j w d a M   o CXCXCXCXCXCXCXCXCXCXCXCXCXCXCXCXCXCXCXCXCXCXCXCXCXCXCXCXCXCXCX",
"CXCXCXCXCXCXCXCXCXCXCXCXCXCXCXCXCXCXCXCXCXCXCXCXCXCXCXCXCXCX* . X o   U M a U a M Y   X X $ & CXCXCXCXCXCXCXCXCXCXCXCXCXCXCXCXCXCXCXCXCXCXCXCXCXCXCXCXCXCXCXCXCX",
"CXCXCXCXCXCXCXCXCXCXCXCXCXCXCXCXCXCXCXCXCXCXCXCXCXCXCXCXCXCXCXCXCX5 4 : = = = = + : 3 3 CXCXCXCXCXCXCXCXCXCXCXCXCXCXCXCXCXCXCXCXCXCXCXCXCXCXCXCXCXCXCXCXCXCXCXCX",
"CXCXCXCXCXCXCXCXCXCXCXCXCXCXCXCXCXCXCXCXCXCXCXCXCXCXCXCXCXCXCXCXCXCXCXCXCXCXCXCXCXCXCXCXCXCXCXCXCXCXCXCXCXCXCXCXCXCXCXCXCXCXCXCXCXCXCXCXCXCXCXCXCXCXCXCXCXCXCXCX",
"CXCXCXCXCXCXCXCXCXCXCXCXCXCXCXCXCXCXCXCXCXCXCXCXCXCXCXCXCXCXCXCXCXCXCXCXCXCXCXCXCXCXCXCXCXCXCXCXCXCXCXCXCXCXCXCXCXCXCXCXCXCXCXCXCXCXCXCXCXCXCXCXCXCXCXCXCXCXCXCX",
"CXCXCXCXCXCXCXCXCXCXCXCXCXCXCXCXCXCXCXCXCXCXCXCXCXCXCXCXCXCXCXCXCXCXCXCXCXCXCXCXCXCXCXCXCXCXCXCXCXCXCXCXCXCXCXCXCXCXCXCXCXCXCXCXCXCXCXCXCXCXCXCXCXCXCXCXCXCXCXCX",
"CXCXCXCXCXCXCXCXCXCXCXCXCXCXCXCXCXCXCXCXCXCXCXCXCXCXCXCXCXCXCXCXCXCXCXCXCXCXCXCXCXCXCXCXCXCXCXCXCXCXCXCXCXCXCXCXCXCXCXCXCXCXCXCXCXCXCXCXCXCXCXCXCXCXCXCXCXCXCXCX"
};
