/* XPM */
static char *result[] = {
/* columns rows colors chars-per-pixel */
"80 80 242 2 ",
"   c #7D4429",
".  c #7D4432",
"X  c #744C3B",
"o  c #784937",
"O  c #6C513B",
"+  c #5D5E56",
"@  c #5D5D5C",
"#  c #595B5A",
"$  c #6D4E45",
"%  c #714E41",
"&  c #6B5243",
"*  c #69544B",
"=  c #655652",
"-  c #615B55",
";  c #615C5C",
":  c #65595A",
">  c #755149",
",  c #5A605D",
"<  c #57625C",
"1  c #5C5D62",
"2  c #615C62",
"3  c #635760",
"4  c #556361",
"5  c #5A6163",
"6  c #596168",
"7  c #9C1F01",
"8  c #962401",
"9  c #9B2503",
"0  c #962B02",
"q  c #9D2C03",
"w  c #9C260B",
"e  c #9C2C0A",
"r  c #962D0A",
"t  c #9C3103",
"y  c #94330C",
"u  c #9B310B",
"i  c #973105",
"p  c #9B2E12",
"a  c #8C3A1D",
"s  c #8C3818",
"d  c #953413",
"f  c #993213",
"g  c #94341A",
"h  c #943718",
"j  c #A22602",
"k  c #A22B03",
"l  c #A82904",
"z  c #A22B0A",
"x  c #A52809",
"c  c #A33203",
"v  c #AB3A05",
"b  c #A3330B",
"n  c #A63908",
"m  c #B13E03",
"M  c #A32A11",
"N  c #A63A19",
"B  c #B03F14",
"V  c #8B3B23",
"C  c #863D26",
"Z  c #A63D22",
"A  c #AC4409",
"S  c #B34304",
"D  c #B74B06",
"F  c #B95508",
"G  c #AC4616",
"H  c #B75815",
"J  c #AF5207",
"K  c #BC6713",
"L  c #82422B",
"P  c #844125",
"I  c #814532",
"U  c #A94828",
"Y  c #B65627",
"T  c #B75739",
"R  c #AD502D",
"E  c #BA663A",
"W  c #C55803",
"Q  c #C2510C",
"!  c #CB6706",
"~  c #D46C03",
"^  c #CC750D",
"/  c #D87503",
"(  c #C36714",
")  c #C97517",
"_  c #D27D17",
"`  c #E27906",
"'  c #E17C19",
"]  c #C67628",
"[  c #C87335",
"{  c #BB6947",
"}  c #BD7454",
"|  c #B86E4F",
" . c #AE5D40",
".. c #C47544",
"X. c #C37954",
"o. c #C77864",
"O. c #DC9618",
"+. c #D78612",
"@. c #EB8C03",
"#. c #E68505",
"$. c #F39403",
"%. c #FD9602",
"&. c #F59B03",
"*. c #FC9C03",
"=. c #FB9509",
"-. c #FD9C0A",
";. c #F69908",
":. c #FD9E14",
">. c #EB8D0D",
",. c #FCA103",
"<. c #FCA30C",
"1. c #FCAB0C",
"2. c #F7A104",
"3. c #FBB10D",
"4. c #E9A819",
"5. c #FDA412",
"6. c #FDAB13",
"7. c #FBA41B",
"8. c #FDAC1B",
"9. c #F7A714",
"0. c #F6BC15",
"q. c #FDB41C",
"w. c #FAB717",
"e. c #EFB519",
"r. c #CE8122",
"t. c #DC9827",
"y. c #DD9839",
"u. c #D08833",
"i. c #E49B2D",
"p. c #E7AA29",
"a. c #FCAB22",
"s. c #FDAC2D",
"d. c #FAA624",
"f. c #EDB926",
"g. c #FDB223",
"h. c #FDB32B",
"j. c #FCBC2A",
"k. c #F7B925",
"l. c #FBAB32",
"z. c #ECB837",
"x. c #FCB43C",
"c. c #F9B937",
"v. c #E4A638",
"b. c #DFA320",
"n. c #FDC41C",
"m. c #FDCB1B",
"M. c #FAC81A",
"N. c #FED11A",
"B. c #FDC423",
"V. c #FCCA24",
"C. c #FCC52B",
"Z. c #FCCB2B",
"A. c #F5C628",
"S. c #FED42A",
"D. c #FCCC33",
"F. c #FCCC3C",
"G. c #F9C638",
"H. c #FCD23C",
"J. c #FDD134",
"K. c #D38B46",
"L. c #D49051",
"P. c #E19957",
"I. c #ECB647",
"U. c #FAB948",
"Y. c #E9B459",
"T. c #FCBD53",
"R. c #E4A851",
"E. c #C78968",
"W. c #D69866",
"Q. c #CA9471",
"!. c #D8A67A",
"~. c #DCA66B",
"^. c #EBBA76",
"/. c #DBA05F",
"(. c #FCCD43",
"). c #FAC94B",
"_. c #FDD244",
"`. c #FCD34C",
"'. c #FAD74B",
"]. c #FAC755",
"[. c #FDD453",
"{. c #FDD55B",
"}. c #F7D857",
"|. c #EFC348",
" X c #FBC967",
".X c #FCD563",
"XX c #FCDC6C",
"oX c #FAD767",
"OX c #FACB77",
"+X c #FDDC74",
"@X c #FAD579",
"#X c #EBC677",
"$X c #FBE27A",
"%X c #CD9783",
"&X c #D39D83",
"*X c #D8AE8E",
"=X c #E2BC8A",
"-X c #E3B593",
";X c #DCBAAA",
":X c #E4BDA4",
">X c #FACE86",
",X c #FBD788",
"<X c #EBCB96",
"1X c #FDDA95",
"2X c #EECC91",
"3X c #FDE385",
"4X c #FCE48C",
"5X c #F7E186",
"6X c #FCE493",
"7X c #FCE69B",
"8X c #FAE79A",
"9X c #EBD5A5",
"0X c #FCDCA5",
"qX c #EACCB4",
"wX c #FCE4A4",
"eX c #FAE8A8",
"rX c #FBF0AB",
"tX c #FDECB4",
"yX c #FDEBBB",
"uX c #F7E6B7",
"iX c #FCF3BD",
"pX c #FCF1B2",
"aX c #EFE0A6",
"sX c #DFC49E",
"dX c #EDD5C9",
"fX c #EED9CF",
"gX c #FCEDC4",
"hX c #FBECCC",
"jX c #FCF2CA",
"kX c #FCF3C5",
"lX c #F6EAD9",
"zX c #FCF5D5",
"xX c #FCF4DB",
"cX c #FAF8D7",
"vX c #EDE7C8",
"bX c #F5EAE3",
"nX c #FBF7E7",
"mX c #FDFCF3",
"MX c #FBFEFD",
"NX c #F8F6F4",
"BX c #ECE6E3",
"VX c None",
/* pixels */
"VXVXVXVXVXVXVXVXVXVXVXVXVXVXVXVXVXVXVXVXVXVXVXVXVXVXVXVXVXVXVXVXVXVXVXVXVXVXVXVXVXVXVXVXVXVXVXVXVXVXVXVXVXVXVXVXVXVXVXVXVXVXVXVXVXVXVXVXVXVXVXVXVXVXVXVXVXVXVXVX",
"VXVXVXVXVXVXVXVXVXVXVXVXVXVXVXVXVXVXVXVXVXVXVXVXVXVXVXVXVXVXVXVXVXVXVXVXVXVXVXa a C VXVXVXVXVXVXVXVXVXVXVXVXVXVXVXVXVXVXVXVXVXVXVXVXVXVXVXVXVXVXVXVXVXVXVXVXVXVX",
"VXVXVXVXVXVXVXVXVXVXVXVXVXVXVXVXVXVXVXVXVXVXVXVXVXVXVXVXVXVXVXVXVXVXz x z k e u u u z q e q y VXVXVXVXVXVXVXVXVXVXVXVXVXVXVXVXVXVXVXVXVXVXVXVXVXVXVXVXVXVXVXVXVX",
"VXVXVXVXVXVXVXVXVXVXVXVXVXVXVXVXVXVXVXVXVXVXVXVXVXVXVXVXVXVXVXz e e k k k l k q q k k l l q 0 u r u VXVXVXVXVXVXVXVXVXVXVXVXVXVXVXVXVXVXVXVXVXVXVXVXVXVXVXVXVXVX",
"VXVXVXVXVXVXVXVXVXVXVXVXVXVXVXVXVXVXVXVXVXVXVXVXVXVXVXVXVXu q k l k q q q k c q w u k t q q q k z k e p VXVXVXVXVXVXVXVXVXVXVXVXVXVXVXVXVXVXVXVXVXVXVXVXVXVXVXVX",
"VXVXVXVXVXVXVXVXVXVXVXVXVXVXVXVXVXVXVXVXVXVXVXVXVXVXVXf l l k q q q u 0 q k q q w x l q 0 q k l z u 0 z l u V VXVXVXVXVXVXVXVXVXVXVXVXVXVXVXVXVXVXVXVXVXVXVXVXVX",
"VXVXVXVXVXVXVXVXVXVXVXVXVXVXVXVXVXVXVXVXVXVXVXVXVXu k q w q j l q q j k 9 r w z M w x x e k q 9 z z e q k k j p VXVXVXVXVXVXVXVXVXVXVXVXVXVXVXVXVXVXVXVXVXVXVXVX",
"VXVXVXVXVXVXVXVXVXVXVXVXVXVXVXVXVXVXVXVXVXVXVXVXk w e q k k z r w 9 k b U T | } | | | T U b x 7 q k k k t t e q q a VXVXVXVXVXVXVXVXVXVXVXVXVXVXVXVXVXVXVXVXVXVX",
"VXVXVXVXVXVXVXVXVXVXVXVXVXVXVXVXVXVXVXVXVXVXVXq k k z z z q 8 w U } &X;XfXlXBXlXbXBXBXfXdX;XQ.{ g 8 7 z k q 0 t k k d VXVXVXVXVXVXVXVXVXVXVXVXVXVXVXVXVXVXVXVXVX",
"VXVXVXVXVXVXVXVXVXVXVXVXVXVXVXVXVXVXVXVXVXVXu k q k t 8 9 f  .%XqXfXNXMXMXmXmXmXMXMXMXMXMXNXBXdX;XQ.R 8 j k c k 0 k 0 y VXVXVXVXVXVXVXVXVXVXVXVXVXVXVXVXVXVXVXVX",
"VXVXVXVXVXVXVXVXVXVXVXVXVXVXVXVXVXVXVXVXVXq q q k k 7 r T %XqXbXbXgX0X>XOX X XOX>X1XuXhXmXMXMXmXmXBX;XE.U 7 z k 0 k k t y VXVXVXVXVXVXVXVXVXVXVXVXVXVXVXVXVXVXVX",
"VXVXVXVXVXVXVXVXVXVXVXVXVXVXVXVXVXVXVXVXq e q q z 9 N o.:XlXyX1X XU.d.:.-.*.&.-.-.d.x.T.@XuXlXnXmXmXNXlX*X{ M 9 l q t k t u VXVXVXVXVXVXVXVXVXVXVXVXVXVXVXVXVXVX",
"VXVXVXVXVXVXVXVXVXVXVXVXVXVXVXVXVXVXVXk 0 q k j w U %XfXhX1Xx.9.%.%.%.*.*.*.*.*.%.%.*.*.*.s.OXuXbXnXnXmXmXqX} Z q q q q k k f VXVXVXVXVXVXVXVXVXVXVXVXVXVXVXVXVX",
"VXVXVXVXVXVXVXVXVXVXVXVXVXVXVXVXVXVXj l k q j x U -XxXwXx.<.%.%.*.-.-.*.*.*.-.-.*.*.*.-.%.&.&.s.OXgXnXnXxXNXxXQ.U q k k 0 q x VXVXVXVXVXVXVXVXVXVXVXVXVXVXVXVXVX",
"VXVXVXVXVXVXVXVXVXVXVXVXVXVXVXVXVXt q t t t w T :XhX X5.*.-.*.-.-.-.%.*.*.;.=.=.*.2.2.,.*.%.&.,.-.x.0XnXnXxXcXcX&XN w c k e M k VXVXVXVXVXVXVXVXVXVXVXVXVXVXVXVX",
"VXVXVXVXVXVXVXVXVXVXVXVXVXVXVXVXVXq 0 k k 9 T qXuXU.5.;.%.%.*.-.-.%.%.;.' Q A D W ~ #.$.*.<.-.&.*.-.a.>XxXxXzXzXlX*XZ 9 e k q q VXVXVXVXVXVXVXVXVXVXVXVXVXVXVXVX",
"VXVXVXVXVXVXVXVXVXVXVXVXVXVXVXVXq e k q 8 R :XuXc.-.*.,.&.*.%.&.5.x. X>X<X=XE.U k k m Q ~ $.,.-.-.*.-.d.OXxXlXcXxXlXQ.Z j l q q c VXVXVXVXVXVXVXVXVXVXVXVXVXVXVX",
"VXVXVXVXVXVXVXVXVXVXVXVXVXVXVXj q q l 9 U *X0Xx.%.-.-.-.-.%.:.T.>X0XgXjXcXcXvX;Xo.N 9 e v F #.*.*.&.-.*.7.OXzXzXkXcXuXE.b 0 q z q q VXVXVXVXVXVXVXVXVXVXVXVXVXVX",
"VXVXVXVXVXVXVXVXVXVXVXVXVXVXVXk q t j z Q.0XT.%.-.-.*.*.-.l.OXeXhXxXcXzXuX9X<X-X!.T c j q k S / $.,.-.*.%.d.,XzXkXjXcX9X{ 0 0 z k k VXVXVXVXVXVXVXVXVXVXVXVXVXVX",
"VXVXVXVXVXVXVXVXVXVXVXVXVXVXk k q k j ..<X X-.*.-.*.*.-.x.1XkXjXjXjXuX-XW.| Y U T U b l q 0 8 v ~ $.*.=.*.%.s.0XkXjXkXkX=XR 8 k k q q VXVXVXVXVXVXVXVXVXVXVXVXVX",
"VXVXVXVXVXVXVXVXVXVXVXVXVXq q k 0 7 G -X,X:.%.,.*.*.-.x.eXkXiXiXuX-XE.n k 7 7 9 7 9 j k q q q w b ~ &.*.*.*.*.T.eXkXgXkXyXW.M 8 k q 0 VXVXVXVXVXVXVXVXVXVXVXVXVX",
"VXVXVXVXVXVXVXVXVXVXVXVXVXq q z q 0 E.2XU.=.-.*.-.-.x.wXgXiXiXaXW.G 9 8 k k q u r 0 q e q k k k e n / ,.*.,.*.-.@XtXyXuXkX9XE 9 c k z l VXVXVXVXVXVXVXVXVXVXVXVX",
"VXVXVXVXVXVXVXVXVXVXVXVXl t z z 8 Y =X].*.-.-.*.-.s.7XtXuXkX9X..b q k t t q q k k k t z l q t l q 0 A #.*.-.*.%.s.1XiXpXyXtX!.N 0 q x q VXVXVXVXVXVXVXVXVXVXVXVX",
"VXVXVXVXVXVXVXVXVXVXVXVXq 0 k w q E.OXh.*.*.*.*.7.>XyXrXiX9XE z j k k t t 0 j l k k q q l k 0 q q r e Q *.,.%.*.%. XwXpXrXyX9XE 8 k e q l VXVXVXVXVXVXVXVXVXVXVX",
"VXVXVXVXVXVXVXVXVXVXVXe t q k 8 U =XT.-.%.*.,.<.T.tXtXrXwX} f k z q e q k k M d d y t q j 0 q q l k q v / ,.*.*.*.s.,XpXrXtXeXW.w x p k k VXVXVXVXVXVXVXVXVXVXVX",
"VXVXVXVXVXVXVXVXVXVXVXz q k c 8 K.#Xs.&.<.-.*.s.,XrXeXrXL.B q k q e q z f C X % & O . C u k e q q k k 0 S $.*.*.-.-. XeXrXwXpX2XY w e k 0 e VXVXVXVXVXVXVXVXVXVX",
"VXVXVXVXVXVXVXVXVXVXVXk q k w r ~.).5.%.&.-.7.].eX8XrX2XU l k k q q e g X + 5 6 6 4 @ = o g x z q 9 k q t / *.*.=.*.x.,XrXeXrXwXK.8 q c q k VXVXVXVXVXVXVXVXVXVX",
"VXVXVXVXVXVXVXVXVXVXe q q k w R #Xh.*.&.&.*.s.,XeXwX7X{ e q k c c t C * 5 5 1 1 2 @ + @ 1 % g e z k k e q F &.*.-.%.:. XeX7X8XeX^.b q l k l VXVXVXVXVXVXVXVXVXVX",
"VXVXVXVXVXVXVXVXVXVXq k x q 8 L. X8.*.*.%.<.T.7X8X8X=XB q q 0 k k V * 5 @ @ @ @ # @ @ + 2 6 & s 0 c x q 0 k >.-.%.*.*.U.4X7X6XeX2XY 0 k 0 k u VXVXVXVXVXVXVXVXVX",
"VXVXVXVXVXVXVXVXVXVXk q z q q ~.T.5.*.*.*.7.+X7X6X8X[ e q l q k h X - @ @ 1 1 1 5 1 < # ; ; # o u k z q k k ! =.*.*.*.s.,XwX6X7X5X..0 k q q e VXVXVXVXVXVXVXVXVX",
"VXVXVXVXVXVXVXVXVXg z t t k B #Xx.-.%.2.-.c.3X6X8X2XA 0 c k k t o @ 5 2 @ @ # ; ; < 1 # @ ; @ = L 0 e k j q D $.*.,.=.7..XwX4X6X6X/.u k k 0 b VXVXVXVXVXVXVXVXVX",
"VXVXVXVXVXVXVXVXVXd q q q 9 Y  Xa.%.*.*.-.T.6X4X4X/.i t q 0 l h * 1 1 @ 1 - , , @ # 1 @ # @ # , > e 0 k j q v @.,.*.=.-.).6X4X1X6X^.n k k 0 k g VXVXVXVXVXVXVXVX",
"VXVXVXVXVXVXVXVXVXi q b 9 w ..].5.%.*.*.5. X7X4X5X[ 8 c k 0 q . ; 1 @ @ @ ; @ 1 @ @ @ ; @ , @ 5 - C j k j e t / ,.*.-.*.c.,X3X4X4X>XG q t t k d VXVXVXVXVXVXVXVX",
"VXVXVXVXVXVXVXVXVX0 q e k 8 L.U.5.*.-.*.8.OX7X3X@XY 9 c q e p & 1 1 # @ @ @ @ 1 @ @ @ 1 @ @ @ @ - o k q q q 0 ~ %.*.*.*.h.+X3X3X4X,XY i t q k u VXVXVXVXVXVXVXVX",
"VXVXVXVXVXVXVXVXVXt k q k q W.G.<.*.*.*.h.+X6X$X^.n k q k l V * 1 # @ 1 1 @ @ @ @ @ 5 ; # + ; @ ; % r q q k 9 W &.*.-.*.s.OX4X+X5X,XE 9 q k k y VXVXVXVXVXVXVXVX",
"VXVXVXVXVXVXVXVXVXq k q q u R.c.,.*.*.*.c.+X5X$XY.z q 0 q q L = 1 1 @ 1 @ @ ; @ @ @ @ ; < + ; ; < * s k 0 l j W $.-.*.*.a..X4X3X3X5Xu.w k k k y VXVXVXVXVXVXVXVX",
"VXVXVXVXVXVXVXVXVXk k k 0 n Y.h.-.*.*.*.G.+X3X+XP.w 0 q k l o + @ @ 2 @ ; 1 @ ; @ @ @ , 1 1 @ @ 5 ; C j q l 9 D $.-.-.*.5. XiXzXhXwXu.x z k q y VXVXVXVXVXVXVXVX",
"VXVXVXVXVXVXVXVXVXk q t q b Y.s.*.*.*.-.U.+X$XXXK.w e k k k O # @ @ < @ @ @ 1 @ @ @ @ + # 1 ; ; 1 + . l q l 9 S @.*.-.%.7.,XmXmXNXbXW.z k k q e VXVXVXVXVXVXVXVX",
"VXVXVXVXVXVXVXVXVXk q q q n Y.g.*.*.*.,.x.+X$XXXK.8 k k k 0 % @ @ 1 , @ 1 @ @ @ @ ; @ @ , @ ; @ 5 @ . l k k 0 S @.*.*.%.l.0XMXmXMXNX!.f q z q t VXVXVXVXVXVXVXVX",
"VXVXVXVXVXVXVXVXVXk t k q n Y.g.*.*.*.-.G.XXXXoXK.0 k k k r X ; @ @ 1 @ @ @ @ ; , @ @ # @ 2 ; < 1 ; . j q k 8 m @.-.*.$.l.0XMXMXMXNX!.p 8 z q t VXVXVXVXVXVXVXVX",
"VXVXVXVXVXVXVXVXVXk 0 k k b I.a.*.*.*.-.j.XXXXoXy.8 k q q q X ; @ @ @ 1 @ @ @ @ @ @ @ @ ; ; @ # 1 3 I q q k 0 S @.*.*.%.d.,XmXMXMXcXW.e k k q t VXVXVXVXVXVXVXVX",
"VXVXVXVXVXVXVXVXVXk 0 k k c R.a.,.*.*.*.h.oX+XoXL.0 k k q z o , @ @ 3 @ 1 @ ; , ; 1 1 @ 1 @ # @ 2 : C k k k 0 S @.-.*.*.5.].tXxXzX8Xu.w l k q i VXVXVXVXVXVXVXVX",
"VXVXVXVXVXVXVXVXVXk q k k c R.k.,.-.*.*.h.{.XXoXR.t q q 0 l . # , - @ 1 @ @ @ , @ @ 1 5 @ @ @ ; 1 : s k k k 0 F =.*.*.*.8.).XX+X+X.X] z z k q e VXVXVXVXVXVXVXVX",
"VXVXVXVXVXVXVXVXVXq q k q k y.j.-.*.*.*.g.{.oX{.I.n e q c l V = , ; @ @ @ @ @ ; @ 2 @ @ , 2 1 ; , * d k k q 8 W $.-.*.*.8.(.oXoXoX}.] e k q j y VXVXVXVXVXVXVXVX",
"VXVXVXVXVXVXVXVXVXq k 0 k q u.c.-.*.*.*.8.(..X{.].G y q k j g % ; ; @ @ @ @ @ @ , @ @ @ @ ; 1 @ ; o q k q k 0 ~ *.*.*.*.8.[.oX.X X}.H 0 q q l g VXVXVXVXVXVXVXVX",
"VXVXVXVXVXVXVXVXVXu l t c 0 E c.<.*.*.*.6.G.{.{.].( 0 k k k e o ; 5 @ @ @ @ 2 , @ @ @ ; ; ; # 5 : V 9 c 0 k l ` *.,.*.*.g.[.}.[..X|.G z q q k g VXVXVXVXVXVXVXVX",
"VXVXVXVXVXVXVXVXVXVXk q q 9 H z.5.*.*.%.-.j.}.{.}.y.q k k k q V = 5 @ @ 1 1 @ # 3 ; @ 2 5 @ @ 1 > g k k 9 q v #.,.,.*.-.j.[.'.}.[.I.n k q t l g VXVXVXVXVXVXVXVX",
"VXVXVXVXVXVXVXVXVXVXt q c j B z.8.*.*.*.%.q.'.}.[.I.B e q k q q o < 5 ; ; 2 1 @ ; ; @ 1 1 , < - I q q k l 9 D $.,.*.%.<.G.[.'.'.[.y.k q k t l VXVXVXVXVXVXVXVXVX",
"VXVXVXVXVXVXVXVXVXVXk k k k q y.k.-.*.*.*.5.G.[.[.).] 8 q x k l d & 5 2 - @ @ 2 ; 1 # @ + 5 < X e k 0 q k q ! &.*.*.%.8.F.[.(.'.).] r k k k t VXVXVXVXVXVXVXVXVX",
"VXVXVXVXVXVXVXVXVXVXq k k q 0 ] f.6.*.*.*.<.h.`.(.`.v.n z z q 9 c P = ; + < # 3 @ @ 1 ; @ # & h l 0 k k k b #.&.*.*.%.q.(.`.[.[.|.H 8 z q z y VXVXVXVXVXVXVXVXVX",
"VXVXVXVXVXVXVXVXVXVXq 0 q t 9 H c.6.*.*.*.*.6.(.'._.G.K M c e e q 0   = @ ; 3 1 1 1 < @ 1 = a k l q l q q D $.&.*.%.,.j._.(.'.`.v.n q x q l y VXVXVXVXVXVXVXVXVX",
"VXVXVXVXVXVXVXVXVXVXVXk t t w n i.q.*.-.*.%.<.k._.(._.R.b q k k c z u C & 2 6 @ 2 1 < - X s k j x q q M k / 2.*.*.*.6.D._.F._.).r.q q k q k VXVXVXVXVXVXVXVXVXVX",
"VXVXVXVXVXVXVXVXVXVXVXl 0 l k 8 ] B.<.%.,.*.-.6.Z.'.F._.r.i j e q k e e d   O * * * o V u q k q r k q q S $.,.,.-.*.q.(._.H._.I.F 8 t k q e VXVXVXVXVXVXVXVXVXVX",
"VXVXVXVXVXVXVXVXVXVXVXVXq x t w G p.q.-.*.,.%.<.q._.G.H.A.K e r q k k 9 k t y s a d p 0 t q q r 0 q k t ~ ,.*.*.-.5.C._.(.(.F.i.c 0 0 k q VXVXVXVXVXVXVXVXVXVXVX",
"VXVXVXVXVXVXVXVXVXVXVXVXx q t z 0 r.k.1.*.-.*.*.<.j.J.H._.p.K r 9 k q q 9 k 9 q q k k w 0 z k k 0 e j D $.*.*.*.%.g.D.F.F.H.z.( 9 q q k k VXVXVXVXVXVXVXVXVXVXVX",
"VXVXVXVXVXVXVXVXVXVXVXVXl 0 t k 7 H p.q.*.;.*.*.-.6.G.H._.H.p.K b 9 q k k l q q q k k u e l l k k e m #.<.%.,.&.,.C.D.D.F.G.b.c j z k e k VXVXVXVXVXVXVXVXVXVXVX",
"VXVXVXVXVXVXVXVXVXVXVXVXVXk q e l q r.k.9.&.-.*.*.-.8.D.D.J.J.z.) v z z 9 j k q q q k q q 0 q k 9 v ~ *.-.,.*.;.k.D.D.D.H.f.H 9 k k k q VXVXVXVXVXVXVXVXVXVXVXVX",
"VXVXVXVXVXVXVXVXVXVXVXVXVXq z x t 8 G i.j.<.-.*.,.-.,.8.C.G.F.H.G.t.F t q q q q t 8 z l q t q q c ! -.*.&.*.*.6.G.D.D.F.Z.t.e q q q c k VXVXVXVXVXVXVXVXVXVXVXVX",
"VXVXVXVXVXVXVXVXVXVXVXVXVXVXk z k k j ( k.w.&.-.,.%.,.&.q.B.Z.D.D.J.A.t.K A b c c v q j z k 9 c ! =.*.,.-.*.1.j.D.Z.A.J.p.J 8 z k 0 0 VXVXVXVXVXVXVXVXVXVXVXVXVX",
"VXVXVXVXVXVXVXVXVXVXVXVXVXVXz q j q 0 c _ j.1.%.*.,.-.*.2.5.q.V.Z.Z.A.A.A.f.4.p.i.F c k k 9 v / $.%.*.,.-.&.w.D.D.C.J.f.K q t q l k k VXVXVXVXVXVXVXVXVXVXVXVXVX",
"VXVXVXVXVXVXVXVXVXVXVXVXVXVXVXq 0 e u 0 A O.n.5.*.-.*.,.*.*.<.6.q.B.Z.D.S.S.V.4.( v 8 9 k F ` ;.,.*.*.*.,.g.V.Z.C.S.D.] t w t q l k VXVXVXVXVXVXVXVXVXVXVXVXVXVX",
"VXVXVXVXVXVXVXVXVXVXVXVXVXVXVX0 q z k q k J b.B.5.%.*.-.*.&.*.-.:.6.q.q.4.t.) A q k n F ~ @.-.,.*.*.-.-.q.A.Z.B.Z.Z.+.n 9 k q k k u VXVXVXVXVXVXVXVXVXVXVXVXVXVX",
"VXVXVXVXVXVXVXVXVXVXVXVXVXVXVXVXl q 9 k q q F 4.j.1.*.*.*.,.*.-.%.*.-.*.#.! D S D ! / @.&.,.,.%.-.*.,.q.C.M.V.D.V.O.A j l k t e e VXVXVXVXVXVXVXVXVXVXVXVXVXVXVX",
"VXVXVXVXVXVXVXVXVXVXVXVXVXVXVXVXM k k j q q k F e.V.3.*.*.-.-.*.,.,.-.$.@.#.>.=.%.*.,.,.,.,.*.-.,.,.3.B.Z.n.Z.A.O.A 9 k k q t e VXVXVXVXVXVXVXVXVXVXVXVXVXVXVXVX",
"VXVXVXVXVXVXVXVXVXVXVXVXVXVXVXVXVXk z k q t k j J p.M.w.*.%.2.,.-.*.*.-.,.,.,.,.*.,.*.*.*.%.*.-.1.n.B.A.B.B.A.O.A w e t e e q c VXVXVXVXVXVXVXVXVXVXVXVXVXVXVXVX",
"VXVXVXVXVXVXVXVXVXVXVXVXVXVXVXVXVXVXp x k q q z k A O.C.B.1.2.,.*.*.*.*.*.,.2.*.*.*.*.%.*.,.<.w.n.m.M.M.M.A.^ c k q t k k 0 u VXVXVXVXVXVXVXVXVXVXVXVXVXVXVXVXVX",
"VXVXVXVXVXVXVXVXVXVXVXVXVXVXVXVXVXVXVXx l r e q k k c ) 4.M.n.3.1.2.*.,.%.%.*.*.*.*.,.,.1.0.n.n.n.m.V.V.4.H e q k k q e k r VXVXVXVXVXVXVXVXVXVXVXVXVXVXVXVXVXVX",
"VXVXVXVXVXVXVXVXVXVXVXVXVXVXVXVXVXVXVXVXz e q t q r 0 t J +.e.n.m.n.3.3.3.1.6.6.1.w.0.0.n.n.m.M.N.n.4.) S q q r k k 9 k f VXVXVXVXVXVXVXVXVXVXVXVXVXVXVXVXVXVXVX",
"VXVXVXVXVXVXVXVXVXVXVXVXVXVXVXVXVXVXVXVXVXf k k k q l q 8 n F +.4.w.n.N.N.m.n.n.m.m.m.m.m.V.n.e.O.^ D c 8 0 k k t k k r VXVXVXVXVXVXVXVXVXVXVXVXVXVXVXVXVXVXVXVX",
"VXVXVXVXVXVXVXVXVXVXVXVXVXVXVXVXVXVXVXVXVXVXu z l k k k 0 8 8 b D ^ +.O.4.e.0.M.0.0.e.e.4.O.+.( D k q q k k k t q k f VXVXVXVXVXVXVXVXVXVXVXVXVXVXVXVXVXVXVXVXVX",
"VXVXVXVXVXVXVXVXVXVXVXVXVXVXVXVXVXVXVXVXVXVXVXz y q q q q k 0 9 9 j k S F ( ^ ^ ^ ^ ( ( F v t q 9 9 q q q k k q e h VXVXVXVXVXVXVXVXVXVXVXVXVXVXVXVXVXVXVXVXVXVX",
"VXVXVXVXVXVXVXVXVXVXVXVXVXVXVXVXVXVXVXVXVXVXVXVXa u q z k k 0 c k q 0 9 q 8 8 9 9 9 j 9 9 9 9 q q k k k 0 k e p V VXVXVXVXVXVXVXVXVXVXVXVXVXVXVXVXVXVXVXVXVXVXVX",
"VXVXVXVXVXVXVXVXVXVXVXVXVXVXVXVXVXVXVXVXVXVXVXVXVXL f k q 0 0 k q 0 k t q q e x k k q t t c z k k k q k k t s VXVXVXVXVXVXVXVXVXVXVXVXVXVXVXVXVXVXVXVXVXVXVXVXVX",
"VXVXVXVXVXVXVXVXVXVXVXVXVXVXVXVXVXVXVXVXVXVXVXVXVXVXVX  d u q k k q t k k t k k k k k k q q q t q q 0 q g o VXVXVXVXVXVXVXVXVXVXVXVXVXVXVXVXVXVXVXVXVXVXVXVXVXVX",
"VXVXVXVXVXVXVXVXVXVXVXVXVXVXVXVXVXVXVXVXVXVXVXVXVXVXVXVXVXI C u l j j x l k 0 0 q k k k l k l q q s C I % VXVXVXVXVXVXVXVXVXVXVXVXVXVXVXVXVXVXVXVXVXVXVXVXVXVXVX",
"VXVXVXVXVXVXVXVXVXVXVXVXVXVXVXVXVXVXVXVXVXVXVXVXVXVXVXVXVXVXVXI L P g f r k k k q k q k e d a P . X VXVXVXVXVXVXVXVXVXVXVXVXVXVXVXVXVXVXVXVXVXVXVXVXVXVXVXVXVXVX",
"VXVXVXVXVXVXVXVXVXVXVXVXVXVXVXVXVXVXVXVXVXVXVXVXVXVXVXVXVXVXVXVXVX& o o o . P P P L     X X O & VXVXVXVXVXVXVXVXVXVXVXVXVXVXVXVXVXVXVXVXVXVXVXVXVXVXVXVXVXVXVXVX",
"VXVXVXVXVXVXVXVXVXVXVXVXVXVXVXVXVXVXVXVXVXVXVXVXVXVXVXVXVXVXVXVXVXVXVXVX, - : - - = , < 4 VXVXVXVXVXVXVXVXVXVXVXVXVXVXVXVXVXVXVXVXVXVXVXVXVXVXVXVXVXVXVXVXVXVXVX",
"VXVXVXVXVXVXVXVXVXVXVXVXVXVXVXVXVXVXVXVXVXVXVXVXVXVXVXVXVXVXVXVXVXVXVXVXVXVXVXVXVXVXVXVXVXVXVXVXVXVXVXVXVXVXVXVXVXVXVXVXVXVXVXVXVXVXVXVXVXVXVXVXVXVXVXVXVXVXVXVX",
"VXVXVXVXVXVXVXVXVXVXVXVXVXVXVXVXVXVXVXVXVXVXVXVXVXVXVXVXVXVXVXVXVXVXVXVXVXVXVXVXVXVXVXVXVXVXVXVXVXVXVXVXVXVXVXVXVXVXVXVXVXVXVXVXVXVXVXVXVXVXVXVXVXVXVXVXVXVXVXVX"
};
