/* XPM */
static char *result[] = {
/* columns rows colors chars-per-pixel */
"80 80 236 2 ",
"   c #7E432C",
".  c #6D4B3E",
"X  c #744C3C",
"o  c #784836",
"O  c #5C5D55",
"+  c #5D5D5D",
"@  c #545B57",
"#  c #6E4D43",
"$  c #67564A",
"%  c #645453",
"&  c #625B5C",
"*  c #645956",
"=  c #734B47",
"-  c #5B605C",
";  c #59605A",
":  c #5C5D61",
">  c #555F63",
",  c #625C62",
"<  c #596163",
"1  c #971F00",
"2  c #962504",
"3  c #9C2602",
"4  c #962C02",
"5  c #9D2C03",
"6  c #9D260A",
"7  c #962F0B",
"8  c #9D2C0A",
"9  c #9C3103",
"0  c #96320D",
"q  c #9A310B",
"w  c #973005",
"e  c #9B2E12",
"r  c #952F14",
"t  c #8D391C",
"y  c #8C3916",
"u  c #943413",
"i  c #9B3213",
"p  c #923519",
"a  c #913919",
"s  c #973617",
"d  c #A22603",
"f  c #A22B03",
"g  c #A12709",
"h  c #A22B0A",
"j  c #A92C07",
"k  c #A33304",
"l  c #AA3503",
"z  c #AC3C05",
"x  c #A3320A",
"c  c #AB3E0C",
"v  c #A43909",
"b  c #A42B12",
"n  c #A63A1A",
"m  c #A63715",
"M  c #8B3B24",
"N  c #883B25",
"B  c #933923",
"V  c #A93C21",
"C  c #AC4408",
"Z  c #B54304",
"A  c #B34A06",
"S  c #B4490A",
"D  c #BD5103",
"F  c #BB580A",
"G  c #A8471B",
"H  c #B24715",
"J  c #B55515",
"K  c #BD6613",
"L  c #BE650C",
"P  c #844028",
"I  c #824332",
"U  c #AD4423",
"Y  c #AC4B2A",
"T  c #B65626",
"R  c #B15433",
"E  c #AD4E2F",
"W  c #BD642A",
"Q  c #BA633A",
"!  c #C55A04",
"~  c #C96608",
"^  c #D36902",
"/  c #DB7404",
"(  c #D87707",
")  c #C56919",
"_  c #C77215",
"`  c #D27C17",
"'  c #CB720A",
"]  c #E37B06",
"[  c #C46A26",
"{  c #CA7726",
"}  c #C36C38",
"|  c #C77738",
" . c #DC7F24",
".. c #B05E43",
"X. c #B76749",
"o. c #BD7757",
"O. c #C27448",
"+. c #C1734F",
"@. c #C77C65",
"#. c #DC830C",
"$. c #D98A17",
"%. c #D28E19",
"&. c #E78806",
"*. c #F38D06",
"=. c #ED930A",
"-. c #EE9007",
";. c #F49302",
":. c #FD9702",
">. c #F59B02",
",. c #FD9C03",
"<. c #FD9709",
"1. c #FD9C0A",
"2. c #F69B0B",
"3. c #E69617",
"4. c #FD9D13",
"5. c #F59810",
"6. c #E88F11",
"7. c #FDA203",
"8. c #FCA20B",
"9. c #F9A707",
"0. c #E8A416",
"q. c #FDA413",
"w. c #FBAC12",
"e. c #FDAB1C",
"r. c #F6A716",
"t. c #FBBB15",
"y. c #FDB41A",
"u. c #F8B617",
"i. c #F3B314",
"p. c #DB9938",
"a. c #D28A2A",
"s. c #E4992A",
"d. c #E9A927",
"f. c #FCAB25",
"g. c #FAAA29",
"h. c #ECB927",
"j. c #FCB420",
"k. c #FCB32D",
"l. c #F9BB25",
"z. c #FCAE31",
"x. c #FBAF36",
"c. c #FCB43A",
"v. c #F8B733",
"b. c #E9AF38",
"n. c #FCC51D",
"m. c #FACC1E",
"M. c #F9C617",
"N. c #FCC523",
"B. c #FCCB25",
"V. c #FCC429",
"C. c #FCCA2B",
"Z. c #F5C627",
"A. c #FCCB33",
"S. c #FDCC3C",
"D. c #F9C537",
"F. c #FCD23D",
"G. c #FBD233",
"H. c #FED72E",
"J. c #D19159",
"K. c #CD884C",
"L. c #D9A25C",
"P. c #FCB846",
"I. c #FEBA55",
"U. c #E8AD4B",
"Y. c #CA8868",
"T. c #CB8C75",
"R. c #CD9479",
"E. c #D3966D",
"W. c #DBA979",
"Q. c #E3B372",
"!. c #FCCC43",
"~. c #F9C546",
"^. c #FCD34C",
"/. c #FDD545",
"(. c #FDC656",
"). c #FDD353",
"_. c #FDD35B",
"`. c #FBD959",
"'. c #EEC154",
"]. c #FCE05F",
"[. c #FCCA66",
"{. c #FCDA63",
"}. c #FDDB6B",
"|. c #FAD466",
" X c #FBC975",
".X c #FDDB73",
"XX c #FDDE7D",
"oX c #FED276",
"OX c #ECC474",
"+X c #FDE17C",
"@X c #CD9B81",
"#X c #D7AB8F",
"$X c #E3B88C",
"%X c #DEB9AB",
"&X c #E0B9A7",
"*X c #FDDE84",
"=X c #FBDB8B",
"-X c #F7D487",
";X c #FCDD98",
":X c #F3CD8B",
">X c #FCE48A",
",X c #FDE687",
"<X c #FCE293",
"1X c #FCE59B",
"2X c #FCEA9C",
"3X c #FAEA97",
"4X c #DFD4BA",
"5X c #EDD2A7",
"6X c #E7D2B0",
"7X c #FBE3A2",
"8X c #FCEBA2",
"9X c #FCEAAA",
"0X c #F9E8AA",
"qX c #FDF2AB",
"wX c #FCECB4",
"eX c #FCEDBB",
"rX c #F7E4B6",
"tX c #FBF1BD",
"yX c #EFEDBC",
"uX c #ECD8C8",
"iX c #FBEBC8",
"pX c #FCF3C3",
"aX c #FCF3CC",
"sX c #F6F0C4",
"dX c #FAECD7",
"fX c #FDF5D4",
"gX c #FCF4DC",
"hX c #FBFCD8",
"jX c #FBF4E3",
"kX c #FDF9E6",
"lX c #FCFAED",
"zX c #F9F6EA",
"xX c #FCFDFC",
"cX c #FBF9F6",
"vX c #F2F3EA",
"bX c None",
/* pixels */
"bXbXbXbXbXbXbXbXbXbXbXbXbXbXbXbXbXbXbXbXbXbXbXbXbXbXbXbXbXbXbXbXbXbXbXbXbXbXbXbXbXbXbXbXbXbXbXbXbXbXbXbXbXbXbXbXbXbXbXbXbXbXbXbXbXbXbXbXbXbXbXbXbXbXbXbXbXbXbXbX",
"bXbXbXbXbXbXbXbXbXbXbXbXbXbXbXbXbXbXbXbXbXbXbXbXbXbXbXbXbXbXbXbXbXbXbXbXbXbXbXbXbXbXbXbXbXbXbXbXbXbXbXbXbXbXbXbXbXbXbXbXbXbXbXbXbXbXbXbXbXbXbXbXbXbXbXbXbXbXbXbX",
"bXbXbXbXbXbXbXbXbXbXbXbXbXbXbXbXbXbXbXbXbXbXbXbXbXbXbXbXbXbXbXbXbXbXbXbXbXbXbXbXbXbXbXbXbXbXbXbXbXbXbXbXbXbXbXbXbXbXbXbXbXbXbXbXbXbXbXbXbXbXbXbXbXbXbXbXbXbXbXbX",
"bXbXbXbXbXbXbXbXbXbXbXbXbXbXbXbXbXbXbXbXbXbXbXbXbXbXbXbXbXbXbXbXbXbXbXbXbXbXbXbXbXbXbXbXbXbXbXbXbXbXbXbXbXbXbXbXbXbXbXbXbXbXbXbXbXbXbXbXbXbXbXbXbXbXbXbXbXbXbXbX",
"bXbXbXbXbXbXbXbXbXbXbXbXbXbXbXbXbXbXbXbXbXbXbXbXbXbXbXbXbXbXbXbXbXbXbXbXbXbXbXbXbXbXbXbXbXbXbXbXbXbXbXbXbXbXbXbXbXbXbXbXbXbXbXbXbXbXbXbXbXbXbXbXbXbXbXbXbXbXbXbX",
"bXbXbXbXbXbXbXbXbXbXbXbXbXbXbXbXbXbXbXbXbXbXbXbXbXbXbXbXbXbXbXbXbXbX5 8 8 8 i 7 0 q 0 0 0 u bXbXbXbXbXbXbXbXbXbXbXbXbXbXbXbXbXbXbXbXbXbXbXbXbXbXbXbXbXbXbXbXbXbX",
"bXbXbXbXbXbXbXbXbXbXbXbXbXbXbXbXbXbXbXbXbXbXbXbXbXbXbXbXbXbXbXbXu q 5 h 5 f h 5 5 5 5 5 5 5 f q 0 bXbXbXbXbXbXbXbXbXbXbXbXbXbXbXbXbXbXbXbXbXbXbXbXbXbXbXbXbXbXbX",
"bXbXbXbXbXbXbXbXbXbXbXbXbXbXbXbXbXbXbXbXbXbXbXbXbXbXbXbXbXu r 8 f 5 5 5 8 5 k f f 5 k f f f f j 9 0 u bXbXbXbXbXbXbXbXbXbXbXbXbXbXbXbXbXbXbXbXbXbXbXbXbXbXbXbXbX",
"bXbXbXbXbXbXbXbXbXbXbXbXbXbXbXbXbXbXbXbXbXbXbXbXbXbXbXbX0 5 h 8 4 5 5 5 f 5 5 3 2 3 5 f f f f f f 5 f 9 p bXbXbXbXbXbXbXbXbXbXbXbXbXbXbXbXbXbXbXbXbXbXbXbXbXbXbX",
"bXbXbXbXbXbXbXbXbXbXbXbXbXbXbXbXbXbXbXbXbXbXbXbXbXbXbX5 5 4 f 9 f 5 3 3 f 8 b m m i b 3 5 5 4 4 f 5 f f 3 u bXbXbXbXbXbXbXbXbXbXbXbXbXbXbXbXbXbXbXbXbXbXbXbXbXbX",
"bXbXbXbXbXbXbXbXbXbXbXbXbXbXbXbXbXbXbXbXbXbXbXbXbX0 3 h 5 w 3 h d j m U ..o.T.T.T.T.@.X.R V h d 5 5 h f w 5 h bXbXbXbXbXbXbXbXbXbXbXbXbXbXbXbXbXbXbXbXbXbXbXbXbX",
"bXbXbXbXbXbXbXbXbXbXbXbXbXbXbXbXbXbXbXbXbXbXbXbXr 5 k 5 8 q g 6 n X.@X4XvXcXxXxXxXxXxXcXuX&X@.U b 5 f 5 k f d h s bXbXbXbXbXbXbXbXbXbXbXbXbXbXbXbXbXbXbXbXbXbXbX",
"bXbXbXbXbXbXbXbXbXbXbXbXbXbXbXbXbXbXbXbXbXbXbXd h 4 4 4 3 g h X.%XzXlXzXdXdXfXgXzXcXlXcXxXcXcXuXR.Y 7 2 5 8 5 5 7 bXbXbXbXbXbXbXbXbXbXbXbXbXbXbXbXbXbXbXbXbXbXbX",
"bXbXbXbXbXbXbXbXbXbXbXbXbXbXbXbXbXbXbXbXbXbXq f 5 4 f j 2 E #XvXiX-XI.c.e.f.d.z.P. XrXjXcXlXjXcXvXuX+.x 2 5 j 5 4 k bXbXbXbXbXbXbXbXbXbXbXbXbXbXbXbXbXbXbXbXbXbX",
"bXbXbXbXbXbXbXbXbXbXbXbXbXbXbXbXbXbXbXbXbXbXd 4 8 5 3 8 o.uX7XP.g.4.1.,.:.>.1.1.<.5.q.z.-XgXlXhXjXcXdX#XV 6 f f f f 5 bXbXbXbXbXbXbXbXbXbXbXbXbXbXbXbXbXbXbXbXbX",
"bXbXbXbXbXbXbXbXbXbXbXbXbXbXbXbXbXbXbXbXbXd d f 9 3 e T.6X(.f.4.<.,.,.,.,.:.,.:.,.1.,.1.4.x.;XkXlXgXjXjX&XE 3 f f 5 9 0 bXbXbXbXbXbXbXbXbXbXbXbXbXbXbXbXbXbXbXbX",
"bXbXbXbXbXbXbXbXbXbXbXbXbXbXbXbXbXbXbXbX8 h h 5 3 e T.:Xc.1.,.8.:.,.,.,.7.9.7.8.,.1.<.,.,.<.g.[.aXjXgXhXgX%XE 2 8 f 5 8 u bXbXbXbXbXbXbXbXbXbXbXbXbXbXbXbXbXbXbX",
"bXbXbXbXbXbXbXbXbXbXbXbXbXbXbXbXbXbXbXq 3 9 4 4 r Y.OXz.<.:.>.,.<.:.,.;.&.^ / &.*.,.8.,.>.,.:.8.I.iXlXfXgXfX#XY 3 f h 5 f bXbXbXbXbXbXbXbXbXbXbXbXbXbXbXbXbXbXbX",
"bXbXbXbXbXbXbXbXbXbXbXbXbXbXbXbXbXbXbX5 9 5 5 4 O.I.g.>.>.7.2.>.,.g.I.[.Q.O.H v A ! / -.,.,.>.:.4.I.iXhXhXfXdX@Xn 2 f 5 f h bXbXbXbXbXbXbXbXbXbXbXbXbXbXbXbXbXbX",
"bXbXbXbXbXbXbXbXbXbXbXbXbXbXbXbXbXbX8 h 5 5 3 R L.k.,.,.>.,.,.f.(.;XrXpXdX4X#XX.0 5 l ! ] >.2.>.>.1.I.tXgXaXfXiXY.8 f 5 4 5 bXbXbXbXbXbXbXbXbXbXbXbXbXbXbXbXbXbX",
"bXbXbXbXbXbXbXbXbXbXbXbXbXbXbXbXbX7 h h f g s J.c.1.>.9.:.<.c.=XsXfXfXhXaXrX6XE.Y d 4 5 z ^ 2.7.,.,.4. XaXaXaXfX6XQ 3 h 9 5 q bXbXbXbXbXbXbXbXbXbXbXbXbXbXbXbXbX",
"bXbXbXbXbXbXbXbXbXbXbXbXbXbXbXbXbX7 f 9 8 5 } U.1.,.1.1.1.P.;XpXpXaXpX5XW.+.E E G h 5 7 8 k ~ >.,.1.1.q.=XdXiXpXpXW.n 8 5 5 f bXbXbXbXbXbXbXbXbXbXbXbXbXbXbXbXbX",
"bXbXbXbXbXbXbXbXbXbXbXbXbXbXbXbXu h 5 f 3 G s.e.:.,.1.<.c.0XtXeXpXyX$XQ b 2 1 3 5 5 f h f 3 4 ~ 2.,.7.>.v.9XeXpXpX0X+.3 9 d f 8 bXbXbXbXbXbXbXbXbXbXbXbXbXbXbXbX",
"bXbXbXbXbXbXbXbXbXbXbXbXbXbXbXbX8 f 4 5 8 } g.:.>.7.>.z.1XpXeXtXwXE.n 2 f 9 k 4 f 5 h f d 5 f x / ,.7.,.4.[.eXeXtXpX$XG 2 f 5 f bXbXbXbXbXbXbXbXbXbXbXbXbXbXbXbX",
"bXbXbXbXbXbXbXbXbXbXbXbXbXbXbXu f f f 3 U s.4.,.,.,.r.=XtXeXeXrXE.x 5 5 5 f 5 9 5 5 4 5 f j 5 8 z &.7.1.>.g.;XeXwXtXwXo.5 f 5 f 0 bXbXbXbXbXbXbXbXbXbXbXbXbXbXbX",
"bXbXbXbXbXbXbXbXbXbXbXbXbXbXbXu f f 5 8 [ 4.,.,.,.>.[.wXqX9XtXW.m 4 f 4 9 j 4 5 j h h 4 k 5 h f 9 D 2.1.<.1.(.wXwX0XtXW.n 4 5 5 5 bXbXbXbXbXbXbXbXbXbXbXbXbXbXbX",
"bXbXbXbXbXbXbXbXbXbXbXbXbXbXbX7 f 5 4 m  .q.,.,.,.z.<X0X0XwX:XG 5 5 5 h 5 h q B   a 5 5 8 h h b f l ( 1.>.,.z.>XwX0XwX:XQ 3 5 f f bXbXbXbXbXbXbXbXbXbXbXbXbXbXbX",
"bXbXbXbXbXbXbXbXbXbXbXbXbXbXbX5 k f 3 J 3.1.,.>.,.[.0X9X8X0XO.5 h 9 5 5 8 N % + + , # u h 4 d h 5 5 D <.7.:.q.oXwX9X8X8XJ.h d f f u bXbXbXbXbXbXbXbXbXbXbXbXbXbX",
"bXbXbXbXbXbXbXbXbXbXbXbXbXbXi f 5 f h _ 8.,.,.,.f.=X9X2X9XW.n 4 5 h 5 k o @ , - & : > $ p 5 f 5 9 5 l ] 7.:.,.c.7X0X2XqXQ.U 5 5 5 f bXbXbXbXbXbXbXbXbXbXbXbXbXbX",
"bXbXbXbXbXbXbXbXbXbXbXbXbXbXq f 5 3 m ( ,.,.,.,.(.7X2X8X1X} h 8 5 h f I & ; : & O & + * % u f 9 5 f 5 ! ,.,.,.f.*X8X1X8X:XQ 3 5 5 f bXbXbXbXbXbXbXbXbXbXbXbXbXbX",
"bXbXbXbXbXbXbXbXbXbXbXbXbXbX5 f 5 5 H 6.7.,.,.q.oX8X<X8XQ.G 5 h f 5 a % , ; : & + + : + > # f f 5 f w C *.,.>.q.(.8X;X1X1XK.f 5 5 f p bXbXbXbXbXbXbXbXbXbXbXbXbX",
"bXbXbXbXbXbXbXbXbXbXbXbXbXbX5 5 f 4 F 5.7.,.,.k.*X3X<X2XJ.0 3 5 f 9 . - + - - < + + : O , * u d f f q k ] 9.,.,.P.3X1X<X8XL.x 5 9 f u bXbXbXbXbXbXbXbXbXbXbXbXbX",
"bXbXbXbXbXbXbXbXbXbXbXbXbXa 5 5 5 f ~ 8.,.,.,.~.>X>X3X*XW 3 5 9 h t + > O - & O & & - : , , o 9 h f 3 9 ~ 7.,.:.k.>X3X=X3XQ.G 5 f 5 9 bXbXbXbXbXbXbXbXbXbXbXbXbX",
"bXbXbXbXbXbXbXbXbXbXbXbXbXa f 5 5 h ( 8.,.,.,.(.>X*X3XOXH d 5 f 8 X : + O - + + , & - : + : % y f f f 5 D ,.,.:.f..X1X*X,XOXT 5 f f 5 bXbXbXbXbXbXbXbXbXbXbXbXbX",
"bXbXbXbXbXbXbXbXbXbXbXbXbXu f f 3 l ( 7.,.,.4.[.>X*X3XL.m 6 5 f 9 $ - + O + : + + + + & ; + + P f f f 3 Z ;.7.,.q.|.<X*X,X-XW 2 f h f bXbXbXbXbXbXbXbXbXbXbXbXbX",
"bXbXbXbXbXbXbXbXbXbXbXbXbXu 5 f 3 c &.,.,.,.e.|.>X*X,XK.x h 5 f s $ < + & - + + + + + + + + &   f f f 5 z &.7.,.4.(.>X*X,XXX} 3 5 f f bXbXbXbXbXbXbXbXbXbXbXbXbX",
"bXbXbXbXbXbXbXbXbXbXbXbXbX0 5 f 5 C 6.,.,.,.f.}.>XXX,X| h f 5 f M $ : + + + + + & + & + + : + X 5 d f 4 l ] 7.,.1.P.<X<X3X=X| f f 5 f p bXbXbXbXbXbXbXbXbXbXbXbX",
"bXbXbXbXbXbXbXbXbXbXbXbXbX9 5 f 5 C -.,.,.,.j..XXXXXXX[ 3 f 5 f I + : , + : + + + : : + O + + $ 8 5 f 5 l ] ,.,.,.(.pXkXzXsXK.f f 5 d u bXbXbXbXbXbXbXbXbXbXbXbX",
"bXbXbXbXbXbXbXbXbXbXbXbXbX5 5 k 5 A *.7.,.,.k..X.X+X.XW f f 9 f o + : : + + - + & : & + + + : % 0 5 5 4 k / ,.,.7. XxXxXxXlXJ.9 f 5 f p bXbXbXbXbXbXbXbXbXbXbXbX",
"bXbXbXbXbXbXbXbXbXbXbXbXbX5 5 5 3 A =.,.,.>.v.}..X.X|.W 3 f 9 f X + + : - + + + + : + + + + : % 0 f f 5 9 ( 7.,.8.-XxXxXxXxXR.h d 5 f a bXbXbXbXbXbXbXbXbXbXbXbX",
"bXbXbXbXbXbXbXbXbXbXbXbXbX5 f 5 3 A -.,.,.,.k.}.}.}.|.W 4 5 5 f o : : + - + + + + : + + + + : % w 5 h 5 9 / 7.,.,.oXxXxXxXxXR.b d 5 f a bXbXbXbXbXbXbXbXbXbXbXbX",
"bXbXbXbXbXbXbXbXbXbXbXbXbX8 5 5 5 Z -.7.,.,.k._.}.}.}.W f 5 5 f N : & + O + : + - : + + + + : $ q f f 5 k / 7.,.,.(.gXxXxXfXK.h 5 f f y bXbXbXbXbXbXbXbXbXbXbXbX",
"bXbXbXbXbXbXbXbXbXbXbXbXbXq 5 5 3 Z -.7.,.,.f._.}.|..X[ 5 5 5 f N + , - + & : - + + : + + + < # 7 5 5 5 l / 7.,.,.D.XX2X0XXX{ f 5 f h t bXbXbXbXbXbXbXbXbXbXbXbX",
"bXbXbXbXbXbXbXbXbXbXbXbXbXi f 5 4 z &.,.,.,.e.(.`.{.}.a.k 4 f 5 M , + - O + : + + & & ; + : < X 5 f d 4 z &.7.,.8.P.{.{.}.`.[ d 5 5 h t bXbXbXbXbXbXbXbXbXbXbXbX",
"bXbXbXbXbXbXbXbXbXbXbXbXbXe f 5 3 c ( 7.,.,.1.!._._.].p.x 5 f 5 0 % ; - & & + + + : & * + < - P d f f 5 z *.,.,.q.~.{._.{.'.W 9 5 f f bXbXbXbXbXbXbXbXbXbXbXbXbX",
"bXbXbXbXbXbXbXbXbXbXbXbXbXi f 9 3 l ( 8.,.,.1.D._._.].U.C 5 f 5 j X * bXbXbXbXbXbXbXbX& + & * t f f f 5 D >.7.:.q.!.`.).`.'.J 5 5 f 5 bXbXbXbXbXbXbXbXbXbXbXbXbX",
"bXbXbXbXbXbXbXbXbXbXbXbXbXu f 5 5 k ^ 1.,.,.,.k.^._.].~.J 6 5 l d t * bXbXbXbXbXbXbXbXbXbX+ = h f 5 h f ! 7.,.,.e.)._.).`.U.H d 9 f 9 bXbXbXbXbXbXbXbXbXbXbXbXbX",
"bXbXbXbXbXbXbXbXbXbXbXbXbXbXf f h 4 ! 2.,.,.,.j.^.`.).).[ 8 f x 3 9 # bXbXbXbXbXbXbXbXbXbXbXP f 5 5 8 k / 7.,.,.j._.`.).^.p.m 3 5 h q bXbXbXbXbXbXbXbXbXbXbXbXbX",
"bXbXbXbXbXbXbXbXbXbXbXbXbXbX9 f f 4 A =.7.,.,.q.!.).^.).p.v 4 4 5 f N bXbXbXbXbXbXbXbXbXbXo q f 4 9 8 z &.7.,.7.l.`.).^.^.a.h 5 5 f u bXbXbXbXbXbXbXbXbXbXbXbXbX",
"bXbXbXbXbXbXbXbXbXbXbXbXbXbXq 5 5 5 z #.7.,.,.,.v.^.^.^.~.J 4 4 d f 8   bXbXbXbXbXbXbXbXbXt d h 9 5 6 ! ,.,.<.8.D.^././.!.K 3 8 5 f bXbXbXbXbXbXbXbXbXbXbXbXbXbX",
"bXbXbXbXbXbXbXbXbXbXbXbXbXbXu h 5 5 x ~ ,.,.,.,.e.!.!.^./.a.k 5 l 5 h p X bXbXbXbXbXbXbXN f f 5 f h f / 7.7.<.e.!.^.!./.b.H 3 5 5 q bXbXbXbXbXbXbXbXbXbXbXbXbXbX",
"bXbXbXbXbXbXbXbXbXbXbXbXbXbXbXg f f 2 ! >.,.7.,.7.D.!.!./.~.J f 5 5 h 5 p X bXbXbXbXbXP 9 8 d 5 f h Z *.2.,.,.y.F.!.!.^.a.l 4 5 5 8 bXbXbXbXbXbXbXbXbXbXbXbXbXbX",
"bXbXbXbXbXbXbXbXbXbXbXbXbXbXbXh 5 k 3 c #.7.<.,.,.e.S.S.F.^.p.v 8 f x d f q N X #   u h 9 4 f 5 8 5 ^ 7.,.,.q.D.F.F.!.~.) 3 5 f j r bXbXbXbXbXbXbXbXbXbXbXbXbXbX",
"bXbXbXbXbXbXbXbXbXbXbXbXbXbXbX8 3 9 5 3 ' 7.,.,.>.9.V.S.A.A.!.K 4 5 5 h f 4 5 d h 5 f f f f h 5 4 Z *.7.7.,.y.S.S.S.F.d.H 4 5 9 h bXbXbXbXbXbXbXbXbXbXbXbXbXbXbX",
"bXbXbXbXbXbXbXbXbXbXbXbXbXbXbXbXf 9 5 6 H =.7.>.7.,.q.D.S.A.F.C.K 2 f 8 5 f f k 5 9 5 8 d d f 6 l ] 2.>.7.8.l./.S.!.S.` 4 5 9 5 h bXbXbXbXbXbXbXbXbXbXbXbXbXbXbX",
"bXbXbXbXbXbXbXbXbXbXbXbXbXbXbXbXq f f 2 5 ` 8.,.,.7.,.y.D.S.A.S.v.~ 3 2 k j d 4 d f f f d f 5 3 ! ,.7.,.,.e.A.A.D.F.h.S 2 f 5 f bXbXbXbXbXbXbXbXbXbXbXbXbXbXbXbX",
"bXbXbXbXbXbXbXbXbXbXbXbXbXbXbXbX8 f 5 5 4 S 3.8.:.>.,.,.y.A.A.A.S.h.%.i 2 3 g 3 f h 9 5 f 5 4 ! ;.7.>.>.8.l.G.C.G.D.` 4 8 f f 8 bXbXbXbXbXbXbXbXbXbXbXbXbXbXbXbX",
"bXbXbXbXbXbXbXbXbXbXbXbXbXbXbXbXbX8 f h 5 k _ r.,.,.1.,.8.y.C.C.A.G.l.d.) c 9 5 h 5 5 5 5 4 A *.7.>.,.7.u.A.G.C.G.d.G 3 8 4 h bXbXbXbXbXbXbXbXbXbXbXbXbXbXbXbXbX",
"bXbXbXbXbXbXbXbXbXbXbXbXbXbXbXbXbX0 5 5 f 3 C 6.8.1.1.,.>.1.u.N.C.G.C.B.h.d.3.%.A 9 5 3 f ! &.,.1.,.,.w.V.C.A.C.D.K 5 h h 5 5 bXbXbXbXbXbXbXbXbXbXbXbXbXbXbXbXbX",
"bXbXbXbXbXbXbXbXbXbXbXbXbXbXbXbXbXbXq 5 h h 2 F r.9.,.,.1.,.,.w.t.V.V.C.H.A.d.) k 2 5 z ^ ;.,.,.1.,.w.N.C.V.C.C.%.q 5 9 8 d x bXbXbXbXbXbXbXbXbXbXbXbXbXbXbXbXbX",
"bXbXbXbXbXbXbXbXbXbXbXbXbXbXbXbXbXbX8 5 5 5 5 f ' r.,.,.,.1.1.2.7.w.y.j.0.` J l l Z ~ &.,.,.7.7.,.8.n.B.C.Z.B.d.Z 3 4 8 d h bXbXbXbXbXbXbXbXbXbXbXbXbXbXbXbXbXbX",
"bXbXbXbXbXbXbXbXbXbXbXbXbXbXbXbXbXbXbX5 5 9 f 3 q $.i.9.,.,.,.,.7.,.,.4.&.~ ! ^ ( &.>.,.1.,.,.7.7.l.B.N.C.B.d.F 2 f x 8 d bXbXbXbXbXbXbXbXbXbXbXbXbXbXbXbXbXbXbX",
"bXbXbXbXbXbXbXbXbXbXbXbXbXbXbXbXbXbXbXbX5 f d f 3 c $.w.7.7.,.,.,.,.,.,.,.,.,.7.9.7.,.:.,.,.7.9.t.Z.N.B.Z.d.K 3 f f q 8 8 bXbXbXbXbXbXbXbXbXbXbXbXbXbXbXbXbXbXbX",
"bXbXbXbXbXbXbXbXbXbXbXbXbXbXbXbXbXbXbXbXi h 5 f 5 3 Z $.w.w.,.,.:.,.7.,.,.8.<.:.,.,.,.,.,.,.w.n.B.B.n.N.h.K 8 h f 8 3 8 bXbXbXbXbXbXbXbXbXbXbXbXbXbXbXbXbXbXbXbX",
"bXbXbXbXbXbXbXbXbXbXbXbXbXbXbXbXbXbXbXbXbXe 5 5 5 f 5 c $.i.w.w.2.>.1.,.,.,.,.7.,.1.1.7.9.t.N.B.m.B.m.0.F 2 f f 5 q f bXbXbXbXbXbXbXbXbXbXbXbXbXbXbXbXbXbXbXbXbX",
"bXbXbXbXbXbXbXbXbXbXbXbXbXbXbXbXbXbXbXbXbXbX7 f 8 5 k 5 5 ) i.M.t.w.9.>.,.,.,.,.7.8.w.t.n.n.N.M.M.l.$.C 4 8 8 5 3 f h bXbXbXbXbXbXbXbXbXbXbXbXbXbXbXbXbXbXbXbXbX",
"bXbXbXbXbXbXbXbXbXbXbXbXbXbXbXbXbXbXbXbXbXbXbX8 5 5 f d 5 5 C $.i.n.M.t.t.y.t.t.M.M.m.N.M.M.M.t.d.K 8 3 9 f f f 8 h bXbXbXbXbXbXbXbXbXbXbXbXbXbXbXbXbXbXbXbXbXbX",
"bXbXbXbXbXbXbXbXbXbXbXbXbXbXbXbXbXbXbXbXbXbXbXbX8 h h h f d 4 5 F ( 0.n.m.B.B.m.M.m.m.M.M.l.3.L 9 4 5 5 f f f 5 w bXbXbXbXbXbXbXbXbXbXbXbXbXbXbXbXbXbXbXbXbXbXbX",
"bXbXbXbXbXbXbXbXbXbXbXbXbXbXbXbXbXbXbXbXbXbXbXbXbXq 5 8 f f 5 4 5 f C F ' %.3.3.0.2.3.` ~ A l h 5 f d d 5 5 h 0 bXbXbXbXbXbXbXbXbXbXbXbXbXbXbXbXbXbXbXbXbXbXbXbX",
"bXbXbXbXbXbXbXbXbXbXbXbXbXbXbXbXbXbXbXbXbXbXbXbXbXbXu 5 4 5 h h h f 5 f k k v z z v l f f 4 4 f f q f f f i bXbXbXbXbXbXbXbXbXbXbXbXbXbXbXbXbXbXbXbXbXbXbXbXbXbX",
"bXbXbXbXbXbXbXbXbXbXbXbXbXbXbXbXbXbXbXbXbXbXbXbXbXbXbXu 5 5 5 f 5 5 5 5 f 5 5 5 5 5 3 4 5 f f 5 9 9 5 d i bXbXbXbXbXbXbXbXbXbXbXbXbXbXbXbXbXbXbXbXbXbXbXbXbXbXbX",
"bXbXbXbXbXbXbXbXbXbXbXbXbXbXbXbXbXbXbXbXbXbXbXbXbXbXbXbXbXu 9 5 f 5 5 f 5 5 5 5 f f f 5 9 f h 5 h f w p bXbXbXbXbXbXbXbXbXbXbXbXbXbXbXbXbXbXbXbXbXbXbXbXbXbXbXbX",
"bXbXbXbXbXbXbXbXbXbXbXbXbXbXbXbXbXbXbXbXbXbXbXbXbXbXbXbXbXbXbX0 u h d f 5 5 f f 5 8 5 f k 5 5 q i i bXbXbXbXbXbXbXbXbXbXbXbXbXbXbXbXbXbXbXbXbXbXbXbXbXbXbXbXbXbX",
"bXbXbXbXbXbXbXbXbXbXbXbXbXbXbXbXbXbXbXbXbXbXbXbXbXbXbXbXbXbXbXbXbXi 8 u q f 9 f 5 f 5 9 q u a a bXbXbXbXbXbXbXbXbXbXbXbXbXbXbXbXbXbXbXbXbXbXbXbXbXbXbXbXbXbXbXbX",
"bXbXbXbXbXbXbXbXbXbXbXbXbXbXbXbXbXbXbXbXbXbXbXbXbXbXbXbXbXbXbXbXbXbXbXbXi q q 0 0 0 0 u M bXbXbXbXbXbXbXbXbXbXbXbXbXbXbXbXbXbXbXbXbXbXbXbXbXbXbXbXbXbXbXbXbXbXbX",
"bXbXbXbXbXbXbXbXbXbXbXbXbXbXbXbXbXbXbXbXbXbXbXbXbXbXbXbXbXbXbXbXbXbXbXbXbXbXbXbXbXbXbXbXbXbXbXbXbXbXbXbXbXbXbXbXbXbXbXbXbXbXbXbXbXbXbXbXbXbXbXbXbXbXbXbXbXbXbXbX",
"bXbXbXbXbXbXbXbXbXbXbXbXbXbXbXbXbXbXbXbXbXbXbXbXbXbXbXbXbXbXbXbXbXbXbXbXbXbXbXbXbXbXbXbXbXbXbXbXbXbXbXbXbXbXbXbXbXbXbXbXbXbXbXbXbXbXbXbXbXbXbXbXbXbXbXbXbXbXbXbX",
"bXbXbXbXbXbXbXbXbXbXbXbXbXbXbXbXbXbXbXbXbXbXbXbXbXbXbXbXbXbXbXbXbXbXbXbXbXbXbXbXbXbXbXbXbXbXbXbXbXbXbXbXbXbXbXbXbXbXbXbXbXbXbXbXbXbXbXbXbXbXbXbXbXbXbXbXbXbXbXbX",
"bXbXbXbXbXbXbXbXbXbXbXbXbXbXbXbXbXbXbXbXbXbXbXbXbXbXbXbXbXbXbXbXbXbXbXbXbXbXbXbXbXbXbXbXbXbXbXbXbXbXbXbXbXbXbXbXbXbXbXbXbXbXbXbXbXbXbXbXbXbXbXbXbXbXbXbXbXbXbXbX",
"bXbXbXbXbXbXbXbXbXbXbXbXbXbXbXbXbXbXbXbXbXbXbXbXbXbXbXbXbXbXbXbXbXbXbXbXbXbXbXbXbXbXbXbXbXbXbXbXbXbXbXbXbXbXbXbXbXbXbXbXbXbXbXbXbXbXbXbXbXbXbXbXbXbXbXbXbXbXbXbX"
};
