/* XPM */
static char *result[] = {
/* columns rows colors chars-per-pixel */
"80 80 240 2 ",
"   c #7E3F2D",
".  c #7C4532",
"X  c #784B37",
"o  c #764A30",
"O  c #66564C",
"+  c #952602",
"@  c #9B2502",
"#  c #962B03",
"$  c #9D2C03",
"%  c #9E260A",
"&  c #9C2D0A",
"*  c #95290C",
"=  c #9C3103",
"-  c #94330D",
";  c #9B310B",
":  c #993405",
">  c #9E2C12",
",  c #8D3B1D",
"<  c #8D3518",
"1  c #933313",
"2  c #9A3113",
"3  c #973819",
"4  c #A32602",
"5  c #A22B03",
"6  c #A22B0A",
"7  c #A62908",
"8  c #A33204",
"9  c #AA3605",
"0  c #A63A04",
"q  c #AB3C03",
"w  c #A3340B",
"e  c #AB330C",
"r  c #A43A0D",
"t  c #AB3B0C",
"y  c #B13D06",
"u  c #A22C14",
"i  c #A43612",
"p  c #A43A13",
"a  c #AA3B13",
"s  c #A73918",
"d  c #B12509",
"f  c #863E24",
"g  c #8A3C21",
"h  c #8A3B26",
"j  c #A83D23",
"k  c #AB4307",
"l  c #B44404",
"z  c #B54904",
"x  c #BC4E02",
"c  c #B74908",
"v  c #BA5C0C",
"b  c #BA5205",
"n  c #A94617",
"m  c #B14C1B",
"M  c #B5571A",
"N  c #AF540C",
"B  c #BF650D",
"V  c #BB641A",
"C  c #BE7212",
"Z  c #83422D",
"A  c #AA4628",
"S  c #B85A2A",
"D  c #B04E33",
"F  c #BB682D",
"G  c #BA673C",
"H  c #BC7238",
"J  c #C45C03",
"K  c #C55808",
"L  c #CA5402",
"P  c #CB6402",
"I  c #C7670B",
"U  c #D36A02",
"Y  c #D76B05",
"T  c #D77304",
"R  c #DC7404",
"E  c #DC7A05",
"W  c #C46819",
"Q  c #D57F12",
"!  c #C97514",
"~  c #E27D02",
"^  c #E27C0A",
"/  c #CB7927",
"(  c #C47438",
")  c #B45C42",
"_  c #BD7557",
"`  c #BA6F48",
"'  c #BC7B61",
"]  c #C37A59",
"[  c #CA7941",
"{  c #C77B6A",
"}  c #D5850E",
"|  c #D58312",
" . c #DE9716",
".. c #D79014",
"X. c #E48304",
"o. c #EB8503",
"O. c #ED8C02",
"+. c #E78907",
"@. c #F08907",
"#. c #EE9203",
"$. c #EB9C0E",
"%. c #F49403",
"&. c #FC9603",
"*. c #F59B04",
"=. c #FC9C03",
"-. c #F59B09",
";. c #FC9C0A",
":. c #FD960A",
">. c #FD9E12",
",. c #EA8E15",
"<. c #F7A102",
"1. c #FDA203",
"2. c #FCA30B",
"3. c #FBAB0B",
"4. c #FAA806",
"5. c #F9B20C",
"6. c #E8A717",
"7. c #FCA214",
"8. c #FCAA12",
"9. c #FDA419",
"0. c #FBAC1C",
"q. c #F5A816",
"w. c #EEB417",
"e. c #F9B717",
"r. c #D99828",
"t. c #D59630",
"y. c #CC8329",
"u. c #E69E2E",
"i. c #DDA337",
"p. c #FDAC24",
"a. c #FEA927",
"s. c #EBB52B",
"d. c #FBB32D",
"f. c #FBBB2C",
"g. c #F9B726",
"h. c #EBB936",
"j. c #FCB431",
"k. c #FBB737",
"l. c #EAAA27",
"z. c #FDC514",
"x. c #FAC31B",
"c. c #FCCB1C",
"v. c #F7C519",
"b. c #FBC424",
"n. c #FBCA22",
"m. c #FAC329",
"M. c #FBCC2B",
"N. c #F6C62A",
"B. c #FCC533",
"V. c #FDCB34",
"C. c #FAC43A",
"Z. c #FBCD3C",
"A. c #F5C73A",
"S. c #FBD23D",
"D. c #FDD133",
"F. c #F8D229",
"G. c #C9875A",
"H. c #D39454",
"J. c #FBB948",
"K. c #E9BB59",
"L. c #FBBC52",
"P. c #F5B051",
"I. c #EBB348",
"U. c #C78565",
"Y. c #D09674",
"T. c #DCA467",
"R. c #E9BB65",
"E. c #EBBB72",
"W. c #FCCD44",
"Q. c #FCCD4C",
"!. c #F7C84A",
"~. c #FCD244",
"^. c #FDD34B",
"/. c #FEDA4B",
"(. c #FBCD53",
"). c #F9C957",
"_. c #FBD254",
"`. c #FCD55C",
"'. c #F8D857",
"]. c #ECC351",
"[. c #FCE05A",
"{. c #FBCD67",
"}. c #FCD865",
"|. c #FED56C",
" X c #FDDB6C",
".X c #FBD765",
"XX c #EDC57D",
"oX c #FACB77",
"OX c #FDDC73",
"+X c #FCDC7D",
"@X c #FBD57A",
"#X c #FBE279",
"$X c #D69E91",
"%X c #D89C8D",
"&X c #D6A88D",
"*X c #DFBC9C",
"=X c #E1B88E",
"-X c #D9B2A6",
";X c #FDDE83",
":X c #FBDC8C",
">X c #F8D485",
",X c #FDDE97",
"<X c #E8C991",
"1X c #FDE285",
"2X c #FCE38C",
"3X c #FBE78C",
"4X c #FBE495",
"5X c #FDE59C",
"6X c #F9E99A",
"7X c #E9CDA7",
"8X c #F8DDA9",
"9X c #EAD7B7",
"0X c #E9CDB3",
"qX c #FDEAA3",
"wX c #FCEAAC",
"eX c #F8E5A8",
"rX c #FAE5B2",
"tX c #FDECB4",
"yX c #FEEDBC",
"uX c #F9E9B8",
"iX c #FCF3BC",
"pX c #F7F3BA",
"aX c #FCF0AF",
"sX c #EADACE",
"dX c #FDECC3",
"fX c #FDEDCB",
"gX c #FDE7C6",
"hX c #FDF3CE",
"jX c #FCF5C4",
"kX c #FCF4D3",
"lX c #FDF4DB",
"zX c #FCFADA",
"xX c #F6EAD4",
"cX c #FCF5E3",
"vX c #FDFBEC",
"bX c #FBF8E8",
"nX c #FCFCF4",
"mX c #FDFDFC",
"MX c #FBF8F2",
"NX c None",
/* pixels */
"NXNXNXNXNXNXNXNXNXNXNXNXNXNXNXNXNXNXNXNXNXNXNXNXNXNXNXNXNXNXNXNXNXNXNXNXNXNXNXNXNXNXNXNXNXNXNXNXNXNXNXNXNXNXNXNXNXNXNXNXNXNXNXNXNXNXNXNXNXNXNXNXNXNXNXNXNXNXNXNX",
"NXNXNXNXNXNXNXNXNXNXNXNXNXNXNXNXNXNXNXNXNXNXNXNXNXNXNXNXNXNXNXNXNXNXNXNXNXNXNXNXNXNXNXNXNXNXNXNXNXNXNXNXNXNXNXNXNXNXNXNXNXNXNXNXNXNXNXNXNXNXNXNXNXNXNXNXNXNXNXNX",
"NXNXNXNXNXNXNXNXNXNXNXNXNXNXNXNXNXNXNXNXNXNXNXNXNXNXNXNXNXNXNXNXNXNXNXNX- - $ $ $ $ $ u u % 5 8 3 NXNXNXNXNXNXNXNXNXNXNXNXNXNXNXNXNXNXNXNXNXNXNXNXNXNXNXNXNXNXNX",
"NXNXNXNXNXNXNXNXNXNXNXNXNXNXNXNXNXNXNXNXNXNXNXNXNXNXNXNXNXNXNXNXNX; 8 5 4 $ 5 5 5 $ 5 5 $ 5 $ $ $ 6 6 NXNXNXNXNXNXNXNXNXNXNXNXNXNXNXNXNXNXNXNXNXNXNXNXNXNXNXNXNX",
"NXNXNXNXNXNXNXNXNXNXNXNXNXNXNXNXNXNXNXNXNXNXNXNXNXNXNXNXNXNXNX& # $ $ 4 7 5 5 $ 5 w w 5 w $ # $ 5 5 & 5 & 1 NXNXNXNXNXNXNXNXNXNXNXNXNXNXNXNXNXNXNXNXNXNXNXNXNXNX",
"NXNXNXNXNXNXNXNXNXNXNXNXNXNXNXNXNXNXNXNXNXNXNXNXNXNXNXNXNX& $ 5 $ $ $ $ 5 $ $ $ @ @ @ @ @ 6 6 4 5 $ 5 6 7 $ 3 NXNXNXNXNXNXNXNXNXNXNXNXNXNXNXNXNXNXNXNXNXNXNXNXNX",
"NXNXNXNXNXNXNXNXNXNXNXNXNXNXNXNXNXNXNXNXNXNXNXNXNXNXNXNX& % $ 5 $ = % $ @ $ $ 2 j j j 3 2 @ @ @ 4 $ & & 5 5 & - 1 NXNXNXNXNXNXNXNXNXNXNXNXNXNXNXNXNXNXNXNXNXNXNX",
"NXNXNXNXNXNXNXNXNXNXNXNXNXNXNXNXNXNXNXNXNXNXNXNXNXNX; 6 & & 5 5 5 $ @ u A ) ' Y.%X$X$X$XY._ ) A i + & $ 5 5 5 $ 5 1 NXNXNXNXNXNXNXNXNXNXNXNXNXNXNXNXNXNXNXNXNXNX",
"NXNXNXNXNXNXNXNXNXNXNXNXNXNXNXNXNXNXNXNXNXNXNXNXNX2 6 7 $ $ 4 @ $ 3 ) { -XxXnXmXmXmXmXmXmXMXsX-X{ D ; : 5 5 5 5 5 = - NXNXNXNXNXNXNXNXNXNXNXNXNXNXNXNXNXNXNXNXNX",
"NXNXNXNXNXNXNXNXNXNXNXNXNXNXNXNXNXNXNXNXNXNXNXNXNX5 & & 5 5 @ 6 j U.sXcXlXfXgXgXfXcXvXvXMXnXmXnXMX0X_ 3 & 5 6 @ $ $ $ & NXNXNXNXNXNXNXNXNXNXNXNXNXNXNXNXNXNXNXNX",
"NXNXNXNXNXNXNXNXNXNXNXNXNXNXNXNXNXNXNXNXNXNXNXNX7 $ $ $ = $ > ) *XrXXXP.g.2.9.p.d.J.>XyXcXMXbXbXcXvXcX&XD & # 5 & ; 5 7 ; NXNXNXNXNXNXNXNXNXNXNXNXNXNXNXNXNXNXNX",
"NXNXNXNXNXNXNXNXNXNXNXNXNXNXNXNXNXNXNXNXNXNXNX7 $ 5 8 $ + i [ <Xk.7.:.&.=.;.=.=.&.:.>.9.J.rXMXMXbXbXMXMXsX] > $ 8 $ 7 9 & < NXNXNXNXNXNXNXNXNXNXNXNXNXNXNXNXNXNX",
"NXNXNXNXNXNXNXNXNXNXNXNXNXNXNXNXNXNXNXNXNXNX5 4 $ $ $ # 2 [ P.q.2.*.=.=.=.-.&.&.;.;.&.=.&.p.{.dXvXzXcXbXbXsX] & $ $ $ $ $ 7 NXNXNXNXNXNXNXNXNXNXNXNXNXNXNXNXNXNX",
"NXNXNXNXNXNXNXNXNXNXNXNXNXNXNXNXNXNXNXNXNXNX$ $ 5 $ $ e W l.>.&.;.;.*.=.1.=.1.1.4.=.=.&.=.=.>.J.uXvXcXlXlXzX9X' u 4 5 $ $ $ $ NXNXNXNXNXNXNXNXNXNXNXNXNXNXNXNXNX",
"NXNXNXNXNXNXNXNXNXNXNXNXNXNXNXNXNXNXNXNXNX$ $ 5 % + & K :.2.=.=.;.2.=.%.:.@.R R X.%.=.=.1.=.=.2.h.8XlXcXlXcXzX9X) 6 $ 5 5 6 & NXNXNXNXNXNXNXNXNXNXNXNXNXNXNXNXNX",
"NXNXNXNXNXNXNXNXNXNXNXNXNXNXNXNXNXNXNXNX& 5 4 & & @ L o.2.&.=.=.=.=.q.J.oX<X( y 8 x P o.<.=.*.&.&.k.rXzXzXkXkXzX7XD $ 5 4 7 5 & NXNXNXNXNXNXNXNXNXNXNXNXNXNXNXNX",
"NXNXNXNXNXNXNXNXNXNXNXNXNXNXNXNXNXNXNXNX& 5 5 5 & l ~ <.<.=.=.=.:.j.@XuXhXhX0X] i @ 6 c Y %.1.=.:.;.).rXkXhXhXkXfXY.A + 5 $ $ 5 % NXNXNXNXNXNXNXNXNXNXNXNXNXNXNX",
"NXNXNXNXNXNXNXNXNXNXNXNXNXNXNXNXNXNXNX$ & & 5 5 8 E *.<.-.;.=.;.L.8XhXkXkXhXzX7X` + $ * e U #.1.=.;.:.oXyXhXfXfXkXrX] % 5 $ 5 5 & NXNXNXNXNXNXNXNXNXNXNXNXNXNXNX",
"NXNXNXNXNXNXNXNXNXNXNXNXNXNXNXNXNXNX& 7 $ $ @ 5 b *.1.=.=.1.=.k.rXhXjXyXjXfX7XY.D $ 5 $ 7 8 P *.=.;.&.a.>XhXhXdXfXjX=XS @ = $ $ 6 7 NXNXNXNXNXNXNXNXNXNXNXNXNXNX",
"NXNXNXNXNXNXNXNXNXNXNXNXNXNXNXNXNXNX7 7 $ $ @ k X.=.-.;.&.2.p.8XfXpXaXiXjX7X_ > @ $ 6 5 & @ t Y =.;.*.;.L.rXjXyXyXjXrXU.& 8 5 5 4 5 NXNXNXNXNXNXNXNXNXNXNXNXNXNX",
"NXNXNXNXNXNXNXNXNXNXNXNXNXNXNXNXNXNX$ 5 = @ 8 J 1.=.=.&.&.a.@XpXyXyXjXpX7XG 6 4 5 5 5 5 5 = % l @.;.<.=.p.oXiXtXiXpXiX*XA 4 5 $ $ 5 NXNXNXNXNXNXNXNXNXNXNXNXNXNX",
"NXNXNXNXNXNXNXNXNXNXNXNXNXNXNXNXNX$ $ = $ $ l o.&.&.=.=.7.L.tXuXyXrXiX8XG.% 4 $ $ $ $ $ 5 5 $ 5 K -.1.=.&.k.rXyXtXwXiXeXU.5 5 = $ 5 & NXNXNXNXNXNXNXNXNXNXNXNXNX",
"NXNXNXNXNXNXNXNXNXNXNXNXNXNXNXNXNX5 = = $ 5 J =.=.&.=.*.j.:XaXyXuXaXeXT.i $ $ 5 8 5 $ @ 5 5 $ & 9 X.=.=.&.9.@XtXuXrXaXaX=Xp $ & & 5 = NXNXNXNXNXNXNXNXNXNXNXNXNX",
"NXNXNXNXNXNXNXNXNXNXNXNXNXNXNXNXNX$ 5 5 @ q T 1.=.&.&.7.!.wXwXwXwXyX<XF + $ $ 6 7 @ $ 5 @ $ 5 # 8 P %.=.=.7.J.wXwXwXaXaX<XS % 6 6 5 8 NXNXNXNXNXNXNXNXNXNXNXNXNX",
"NXNXNXNXNXNXNXNXNXNXNXNXNXNXNXNX= 5 6 4 @ x O.1.1.=.&.j.+XtXqXeXwXeXH.; $ 5 5 5 6 2 < % 5 = = # 5 q o.=.=.=.p.:XqX6XqXwXeXU.i @ 5 $ 5 5 NXNXNXNXNXNXNXNXNXNXNXNX",
"NXNXNXNXNXNXNXNXNXNXNXNXNXNXNXNX$ 5 & 5 5 P =.=.;.=.=.L.5XwX6X5XwX<XG + # 5 5 5 2 X X & 5 = = 4 5 $ Y =.=.&.7.|.qXqXqXqXqXE.a $ = $ $ 5 NXNXNXNXNXNXNXNXNXNXNXNX",
"NXNXNXNXNXNXNXNXNXNXNXNXNXNXNXNX6 $ $ # q R 1.&.;.=.7.{.qX5X6X5XqXT.s @ $ 5 4 7 Z NXNXg 5 5 & $ $ @ K %.1.=.;.J.5XqX5X5XeX>XM 5 $ $ 4 7 NXNXNXNXNXNXNXNXNXNXNXNX",
"NXNXNXNXNXNXNXNXNXNXNXNXNXNXNXNX5 5 = + c o.1.&.=.&.a.@XqX5X5X5X4Xy.& $ = 5 4 > NXNXNXNX& 5 5 $ = @ y X.1.=.=.p.:XqX4X6XqX4XH 6 $ = 7 5 NXNXNXNXNXNXNXNXNXNXNXNX",
"NXNXNXNXNXNXNXNXNXNXNXNXNXNXNXNX5 6 5 $ J @.1.=.1.=.J.+X4X4X5X6X<XS @ $ 5 8 $ , NXNXNXNX1 $ 5 5 5 $ 8 R =.=.=.8.@X5X6X4X5X6XG.r + = 5 4 1 NXNXNXNXNXNXNXNXNXNXNX",
"NXNXNXNXNXNXNXNXNXNXNXNXNXNXNX; $ 5 5 $ Y *.1.=.1.&.).2X4X2X4X6XT.n @ 8 & $ & f NXNXNXNX, ; & 5 $ $ 4 U =.=.=.1.).4X2X2X2X6XT.s @ 8 5 5 ; NXNXNXNXNXNXNXNXNXNXNX",
"NXNXNXNXNXNXNXNXNXNXNXNXNXNXNX; $ $ 5 8 R =.=.=.=.;.{.2X2X2X:X3Xt.u 4 = 5 8 - NXNXNXNXNXZ - 5 7 5 = % J O.2.;.&.!.;X2X:X1X3XR.A @ $ 5 $ i NXNXNXNXNXNXNXNXNXNXNX",
"NXNXNXNXNXNXNXNXNXNXNXNXNXNXNX$ $ $ 4 9 ~ =.=.=.=.9.}.2X1X1X2X1X( 7 $ $ % 4 , NXNXNXNXNXo < 4 4 $ $ @ x O.1.;.&.J.+X2X1X1X1XXXS @ & ; 5 w NXNXNXNXNXNXNXNXNXNXNX",
"NXNXNXNXNXNXNXNXNXNXNXNXNXNXNX& 5 $ 5 q X.1.=.=.&.p.|.2X;X1X;X+X( @ $ $ $ 4 g NXNXNXNXNXNX3 5 $ $ $ @ z X.1.1.&.k.+X:X+X+X+XXXF @ $ $ = w NXNXNXNXNXNXNXNXNXNXNX",
"NXNXNXNXNXNXNXNXNXNXNXNXNXNXNX$ 5 $ $ l O.1.=.=.&.j.|.1X;X+X1XoXS @ $ $ 5 5 Z NXNXNXNXNXNX, $ $ $ 5 + l ~ 1.=.=.a.|.2X2X6X2X@XF $ $ $ 5 8 NXNXNXNXNXNXNXNXNXNXNX",
"NXNXNXNXNXNXNXNXNXNXNXNXNXNXNX5 5 $ $ c +.1.=.=.&.k.}.;X+X#X1XR.m @ 5 $ $ 5 . NXNXNXNXNXNXg $ $ $ 5 @ q R 2.=.=.p.>XkXMXMXhX6XH = $ $ 6 8 NXNXNXNXNXNXNXNXNXNXNX",
"NXNXNXNXNXNXNXNXNXNXNXNXNXNXNX$ $ $ @ x O.1.=.:.=.k.}.+X+X+X#X].m @ $ $ 5 $ o NXNXNXNXNXNXf & $ 5 $ @ 9 T 2.:.*.d.rXmXmXmXmXcX' 6 @ & & 5 NXNXNXNXNXNXNXNXNXNXNX",
"NXNXNXNXNXNXNXNXNXNXNXNXNXNXNX$ 8 $ @ L O.=.=.;.=.k.}.+X@XOX#XK.m @ $ 5 5 $ X NXNXNXNXNXNXf ; 5 5 5 @ 0 T =.:.;.L.gXmXnXmXmXMX{ w @ $ & $ NXNXNXNXNXNXNXNXNXNXNX",
"NXNXNXNXNXNXNXNXNXNXNXNXNXNXNX5 5 $ @ x %.1.=.&.=.j.}.#X|.OX XK.m @ 5 5 5 # . NXNXNXNXNXNXf = 5 5 6 @ 8 T 1.;.;.J.gXmXnXmXMXnX' 8 $ $ $ $ NXNXNXNXNXNXNXNXNXNXNX",
"NXNXNXNXNXNXNXNXNXNXNXNXNXNXNX5 5 $ $ x O.1.=.;.&.d..X X}. X XK.m $ 5 5 5 $ . NXNXNXNXNXNXg ; $ 4 6 $ r T 1.&.&.0.eXnXmXmXnXxX` $ 4 $ # $ NXNXNXNXNXNXNXNXNXNXNX",
"NXNXNXNXNXNXNXNXNXNXNXNXNXNXNX$ 8 $ @ z O.1.&.&.=.d.`. X}.}. XK.m @ 5 $ $ $ . NXNXNXNXNXNX, = $ 5 $ $ 0 R 1.;.&.9.|.uXfXfXiX;XH $ $ = $ 8 NXNXNXNXNXNXNXNXNXNXNX",
"NXNXNXNXNXNXNXNXNXNXNXNXNXNXNX5 $ $ @ l o.1.=.=.=.p.(.}.`.}. X).M $ $ $ 5 5 Z NXNXNXNXNXNX, 5 5 5 6 $ k E 1.;.&.p.(.#X+X+X+X).V $ 4 $ # 8 NXNXNXNXNXNXNXNXNXNXNX",
"NXNXNXNXNXNXNXNXNXNXNXNXNXNXNX& 5 5 $ y X.=.=.=.=.9.(.}.`.`.}.(.W 5 & $ 5 4 f NXNXNXNXNXNX, 5 5 7 $ @ c X.1.=.=.j._.`._.'.'.].M 4 $ $ $ w NXNXNXNXNXNXNXNXNXNXNX",
"NXNXNXNXNXNXNXNXNXNXNXNXNXNXNX$ 5 5 $ 9 ~ =.=.=.&.8.W.`.`.`.`.'./ e @ 6 $ 5 , NXNXNXNXNXX < 5 5 5 $ @ b X.1.*.&.d._.`._.).'.I.M # $ $ $ e NXNXNXNXNXNXNXNXNXNXNX",
"NXNXNXNXNXNXNXNXNXNXNXNXNXNXNXw $ 5 $ 5 R =.=.=.&.;.C._.`.`.'.'.y.e @ 5 5 5 1 Z NXNXNXNXZ - $ 5 $ $ + J %.=.;.*.f.).{.(.'..XI.n + # = 5 e NXNXNXNXNXNXNXNXNXNXNX",
"NXNXNXNXNXNXNXNXNXNXNXNXNXNXNXNX5 5 $ @ U *.1.&.=.=.f._.`._._.[.i.m + 5 4 $ 5 Z NXNXNXNX, - 5 $ $ 5 $ U *.=.&.;.A.'._.Q.'.].t.r + $ $ $ i NXNXNXNXNXNXNXNXNXNXNX",
"NXNXNXNXNXNXNXNXNXNXNXNXNXNXNXNX4 5 = @ L O.=.=.=.=.g.W._._.^./.J.M @ 5 $ $ = Z NXNXNXO , 5 5 $ $ $ 8 T -.=.=.2.!.!.(.Q.!.'.y.- + $ $ $ 3 NXNXNXNXNXNXNXNXNXNXNX",
"NXNXNXNXNXNXNXNXNXNXNXNXNXNXNXNX7 5 $ @ l X.1.=.=.=.8.Z._.(.~./.!./ 6 $ = 5 $ - f NXNX. u 4 $ $ $ # z X.1.=.7.q.!.Q.!._.^.!.C ; @ = ; $ NXNXNXNXNXNXNXNXNXNXNXNX",
"NXNXNXNXNXNXNXNXNXNXNXNXNXNXNXNX4 5 $ & q R 1.=.=.=.=.f.^.^.W.~./.t.t @ = $ 5 5 g O NX3 7 $ $ $ $ + P #.2.;.9.s.^._.!._.W.h.n $ $ $ ; $ NXNXNXNXNXNXNXNXNXNXNXNX",
"NXNXNXNXNXNXNXNXNXNXNXNXNXNXNXNX$ 5 5 $ $ P *.=.=.=.&.0.W.^.^.Z./.h.V @ 5 $ & 5 1 . o & $ $ $ & $ $ T -.7.>.9.C.^.^.^._.^.t.: # $ $ $ @ NXNXNXNXNXNXNXNXNXNXNXNX",
"NXNXNXNXNXNXNXNXNXNXNXNXNXNXNXNX& 5 5 $ @ x O.2.*.=.=.8.B.~.Z.W.~.A.r.w 4 5 5 5 $ - < & $ & 5 $ $ l @.8.7.7.0.W.^.^.Q._.!.y.3 : $ $ $ $ NXNXNXNXNXNXNXNXNXNXNXNX",
"NXNXNXNXNXNXNXNXNXNXNXNXNXNXNXNXNX5 $ 8 $ 9 T 1.=.=.=.;.0.Z.Z.W.W.S.h.B + 5 5 5 5 $ 4 4 5 5 5 $ 5 P -.2.7.9.g.^.^.^.~.^.I.V t r w ; & NXNXNXNXNXNXNXNXNXNXNXNXNX",
"NXNXNXNXNXNXNXNXNXNXNXNXNXNXNXNXNX5 $ 6 $ 5 K *.=.;.=.=.7.m.~.W.V.D.A.r.r & $ & 5 5 $ 5 & 6 $ $ q o.=.2.>.0.m.W.W.W.~.~.i.s r r i r r NXNXNXNXNXNXNXNXNXNXNXNXNX",
"NXNXNXNXNXNXNXNXNXNXNXNXNXNXNXNXNX$ 5 $ 5 % k ~ =.;.=.=.=.0.Z.Z.V.V.S.A./ 5 5 $ 5 5 $ = $ = & $ I &.&.;.7.g.Z.Z.W.A.~.A.y.u r p a r NXNXNXNXNXNXNXNXNXNXNXNXNXNX",
"NXNXNXNXNXNXNXNXNXNXNXNXNXNXNXNXNXNX7 $ = $ 8 K -.;.1.1.=.8.g.M.V.V.A.Z.f.W e @ $ 5 5 $ % $ $ l +.=.*.*.9.f.S.S.Z.A.A.r.m ; e r i p NXNXNXNXNXNXNXNXNXNXNXNXNXNX",
"NXNXNXNXNXNXNXNXNXNXNXNXNXNXNXNXNXNX5 5 $ $ 5 0 ^ -.1.=.=.=.2.f.V.V.V.A.M.s.W 8 & & & $ & + y R <.*.&.*.0.V.Z.^.A.S.s.C + = 6 r n NXNXNXNXNXNXNXNXNXNXNXNXNXNXNX",
"NXNXNXNXNXNXNXNXNXNXNXNXNXNXNXNXNXNX- 5 $ $ 5 = x %.1.=.=.=.=.3.e.M.D.F.M.F.N.r.N = $ 5 = q Y &.=.1.&.2.f.Z.S.Z.W.S.r.k + ; % r p NXNXNXNXNXNXNXNXNXNXNXNXNXNXNX",
"NXNXNXNXNXNXNXNXNXNXNXNXNXNXNXNXNXNXNX$ 5 6 5 $ 8 U -.1.&.=.1.=.5.b.Z.B.b.V.D.g.! = 5 5 8 Y ;.;.=.&.;.e.b.A.A.V.S.s.W @ $ ; a r p NXNXNXNXNXNXNXNXNXNXNXNXNXNXNX",
"NXNXNXNXNXNXNXNXNXNXNXNXNXNXNXNXNXNXNX$ $ 5 4 5 & q E =.=.=.=.=.*.2.e.b.M.b.l.v % % 5 x } ;.=.%.;.=.3.x.M.A.N.M.A...n u w w p e NXNXNXNXNXNXNXNXNXNXNXNXNXNXNXNX",
"NXNXNXNXNXNXNXNXNXNXNXNXNXNXNXNXNXNXNXNX$ $ 6 5 $ & c ~ 1.-.=.*.=.;.7.4.q.,.z 8 q K Y %.=.=.1.=.*.3.g.n.N.b.N.A.i.N w s p p r p NXNXNXNXNXNXNXNXNXNXNXNXNXNXNXNX",
"NXNXNXNXNXNXNXNXNXNXNXNXNXNXNXNXNXNXNXNX& $ $ 5 5 4 @ b +.1.=.;.1.=.=.=.=.-.+.O.#.%.-.*.=.1.*.%.3.x.m.m.b.N.F.l.M p a i i 3 a NXNXNXNXNXNXNXNXNXNXNXNXNXNXNXNXNX",
"NXNXNXNXNXNXNXNXNXNXNXNXNXNXNXNXNXNXNXNXNX5 $ ; 6 5 $ $ K #.<.;.=.=.=.=.&.=.=.1.1.1.=.;.:.=.-.8.v.n.b.f.n.n.l.N r i i r p s NXNXNXNXNXNXNXNXNXNXNXNXNXNXNXNXNXNX",
"NXNXNXNXNXNXNXNXNXNXNXNXNXNXNXNXNXNXNXNXNXNX5 $ $ % = $ 8 v $.3.=.=.=.=.=.=.=.;.=.=.=.=.=.2.e.b.b.b.N.n.c.6.v - 8 r e r r a NXNXNXNXNXNXNXNXNXNXNXNXNXNXNXNXNXNX",
"NXNXNXNXNXNXNXNXNXNXNXNXNXNXNXNXNXNXNXNXNXNXNX5 $ $ 5 $ @ 5 v $.5.4.2.*.=.=.*.&.=.=.1.4.5.e.v.x.b.x.v.v. .M $ $ % e r r r NXNXNXNXNXNXNXNXNXNXNXNXNXNXNXNXNXNXNX",
"NXNXNXNXNXNXNXNXNXNXNXNXNXNXNXNXNXNXNXNXNXNXNXNX5 = $ 5 5 $ # N } q.e.5.4.4.4.3.3.3.5.5.x.c.c.z.c.v.w.| c * $ @ # w r r NXNXNXNXNXNXNXNXNXNXNXNXNXNXNXNXNXNXNXNX",
"NXNXNXNXNXNXNXNXNXNXNXNXNXNXNXNXNXNXNXNXNXNXNXNXNX= $ % 5 = $ @ 9 I  .w.v.z.z.z.z.c.c.c.n.M.c.x.w. .I ; + = 5 4 $ ; 2 NXNXNXNXNXNXNXNXNXNXNXNXNXNXNXNXNXNXNXNXNX",
"NXNXNXNXNXNXNXNXNXNXNXNXNXNXNXNXNXNXNXNXNXNXNXNXNXd $ $ = $ 5 5 @ @ q W  .6.w.e.v.c.e.v.e.w.6.} I 9 @ # # = 5 5 $ = NXNXNXNXNXNXNXNXNXNXNXNXNXNXNXNXNXNXNXNXNXNX",
"NXNXNXNXNXNXNXNXNXNXNXNXNXNXNXNXNXNXNXNXNXNXNXNXNXNXNX6 $ $ 5 % $ $ @ @ $ l v ! Q | } | ! v k 5 @ @ $ = $ $ 8 $ & NXNXNXNXNXNXNXNXNXNXNXNXNXNXNXNXNXNXNXNXNXNXNX",
"NXNXNXNXNXNXNXNXNXNXNXNXNXNXNXNXNXNXNXNXNXNXNXNXNXNXNXNXu e 8 5 $ $ $ $ 5 $ $ @ % @ # # @ @ @ $ $ $ 5 5 $ 4 4 $ NXNXNXNXNXNXNXNXNXNXNXNXNXNXNXNXNXNXNXNXNXNXNXNX",
"NXNXNXNXNXNXNXNXNXNXNXNXNXNXNXNXNXNXNXNXNXNXNXNXNXNXNXNXNXu 4 $ 6 5 & $ % 5 5 8 $ $ 5 $ 8 5 5 5 5 5 $ $ 5 & - NXNXNXNXNXNXNXNXNXNXNXNXNXNXNXNXNXNXNXNXNXNXNXNXNX",
"NXNXNXNXNXNXNXNXNXNXNXNXNXNXNXNXNXNXNXNXNXNXNXNXNXNXNXNXNXNXNX; 5 5 5 5 $ = = $ $ $ 5 5 5 $ $ = = $ 6 & - f NXNXNXNXNXNXNXNXNXNXNXNXNXNXNXNXNXNXNXNXNXNXNXNXNXNX",
"NXNXNXNXNXNXNXNXNXNXNXNXNXNXNXNXNXNXNXNXNXNXNXNXNXNXNXNXNXNXNXNXNX1 5 4 5 5 $ $ $ $ 5 $ $ $ 5 5 5 & , NXNXNXNXNXNXNXNXNXNXNXNXNXNXNXNXNXNXNXNXNXNXNXNXNXNXNXNXNX",
"NXNXNXNXNXNXNXNXNXNXNXNXNXNXNXNXNXNXNXNXNXNXNXNXNXNXNXNXNXNXNXNXNXNXNXh g , 2 6 $ 5 5 $ = - 1 , f NXNXNXNXNXNXNXNXNXNXNXNXNXNXNXNXNXNXNXNXNXNXNXNXNXNXNXNXNXNXNX",
"NXNXNXNXNXNXNXNXNXNXNXNXNXNXNXNXNXNXNXNXNXNXNXNXNXNXNXNXNXNXNXNXNXNXNXNXNXNXNXg f g , f NXNXNXNXNXNXNXNXNXNXNXNXNXNXNXNXNXNXNXNXNXNXNXNXNXNXNXNXNXNXNXNXNXNXNXNX",
"NXNXNXNXNXNXNXNXNXNXNXNXNXNXNXNXNXNXNXNXNXNXNXNXNXNXNXNXNXNXNXNXNXNXNXNXNXNXNXNXNXNXNXNXNXNXNXNXNXNXNXNXNXNXNXNXNXNXNXNXNXNXNXNXNXNXNXNXNXNXNXNXNXNXNXNXNXNXNXNX",
"NXNXNXNXNXNXNXNXNXNXNXNXNXNXNXNXNXNXNXNXNXNXNXNXNXNXNXNXNXNXNXNXNXNXNXNXNXNXNXNXNXNXNXNXNXNXNXNXNXNXNXNXNXNXNXNXNXNXNXNXNXNXNXNXNXNXNXNXNXNXNXNXNXNXNXNXNXNXNXNX",
"NXNXNXNXNXNXNXNXNXNXNXNXNXNXNXNXNXNXNXNXNXNXNXNXNXNXNXNXNXNXNXNXNXNXNXNXNXNXNXNXNXNXNXNXNXNXNXNXNXNXNXNXNXNXNXNXNXNXNXNXNXNXNXNXNXNXNXNXNXNXNXNXNXNXNXNXNXNXNXNX",
"NXNXNXNXNXNXNXNXNXNXNXNXNXNXNXNXNXNXNXNXNXNXNXNXNXNXNXNXNXNXNXNXNXNXNXNXNXNXNXNXNXNXNXNXNXNXNXNXNXNXNXNXNXNXNXNXNXNXNXNXNXNXNXNXNXNXNXNXNXNXNXNXNXNXNXNXNXNXNXNX",
"NXNXNXNXNXNXNXNXNXNXNXNXNXNXNXNXNXNXNXNXNXNXNXNXNXNXNXNXNXNXNXNXNXNXNXNXNXNXNXNXNXNXNXNXNXNXNXNXNXNXNXNXNXNXNXNXNXNXNXNXNXNXNXNXNXNXNXNXNXNXNXNXNXNXNXNXNXNXNXNX",
"NXNXNXNXNXNXNXNXNXNXNXNXNXNXNXNXNXNXNXNXNXNXNXNXNXNXNXNXNXNXNXNXNXNXNXNXNXNXNXNXNXNXNXNXNXNXNXNXNXNXNXNXNXNXNXNXNXNXNXNXNXNXNXNXNXNXNXNXNXNXNXNXNXNXNXNXNXNXNXNX",
"NXNXNXNXNXNXNXNXNXNXNXNXNXNXNXNXNXNXNXNXNXNXNXNXNXNXNXNXNXNXNXNXNXNXNXNXNXNXNXNXNXNXNXNXNXNXNXNXNXNXNXNXNXNXNXNXNXNXNXNXNXNXNXNXNXNXNXNXNXNXNXNXNXNXNXNXNXNXNXNX"
};
