/* XPM */
static char *result[] = {
/* columns rows colors chars-per-pixel */
"80 80 247 2 ",
"   c #724B3B",
".  c #794735",
"X  c #784A35",
"o  c #6A5248",
"O  c #714C43",
"+  c #961D03",
"@  c #A11F00",
"#  c #952502",
"$  c #9B2503",
"%  c #962B02",
"&  c #9D2C03",
"*  c #9C2C0A",
"=  c #962A0B",
"-  c #9C3103",
";  c #96320C",
":  c #9C310C",
">  c #9A370B",
",  c #9D2D12",
"<  c #942F15",
"1  c #8B3B1D",
"2  c #893716",
"3  c #933414",
"4  c #9C3213",
"5  c #92351B",
"6  c #95391A",
"7  c #8F330F",
"8  c #A32603",
"9  c #A22B03",
"0  c #A22C0A",
"q  c #A62706",
"w  c #A33204",
"e  c #A93505",
"r  c #AD3C03",
"t  c #A3330C",
"y  c #A43A0C",
"u  c #A7380A",
"i  c #B33D05",
"p  c #A22C11",
"a  c #A12D1B",
"s  c #A43512",
"d  c #A43A14",
"f  c #A43B1B",
"g  c #A93917",
"h  c #B03F1D",
"j  c #863C23",
"k  c #8B3B24",
"l  c #993821",
"z  c #AC3D22",
"x  c #AD4407",
"c  c #B34403",
"v  c #B54C03",
"b  c #BA4E03",
"n  c #B4480A",
"m  c #BC5202",
"M  c #B6550A",
"N  c #A8431A",
"B  c #B44B17",
"V  c #BA5B16",
"C  c #AE520F",
"Z  c #BD650A",
"A  c #BC6119",
"S  c #844324",
"D  c #A84525",
"F  c #B35426",
"G  c #AF5B31",
"H  c #B45735",
"J  c #AD4E2C",
"K  c #B86438",
"L  c #BB6629",
"P  c #C55B04",
"I  c #CA5C04",
"U  c #C15402",
"Y  c #C24E02",
"T  c #CC6403",
"R  c #CC6706",
"E  c #D46C04",
"W  c #CA730C",
"Q  c #DC7B03",
"!  c #D97406",
"~  c #C66816",
"^  c #CA7817",
"/  c #E27B04",
"(  c #C57425",
")  c #C2763B",
"_  c #C76C28",
"`  c #B76548",
"'  c #BB7458",
"]  c #AD5F42",
"[  c #C3764B",
"{  c #C17152",
"}  c #C27C62",
"|  c #D78A16",
" . c #D88B12",
".. c #E48303",
"X. c #EA8503",
"o. c #EC8B03",
"O. c #E98C06",
"+. c #F18D03",
"@. c #F49303",
"#. c #FC9603",
"$. c #F69C03",
"%. c #FD9C03",
"&. c #FC9C0B",
"*. c #F99509",
"=. c #FB9C15",
"-. c #E7960B",
";. c #FDA203",
":. c #FCA30C",
">. c #F8A70A",
",. c #FCB80E",
"<. c #E8A819",
"1. c #FDA513",
"2. c #FCAA13",
"3. c #FCA71B",
"4. c #FDB51C",
"5. c #F3BC1A",
"6. c #FCB817",
"7. c #EDB415",
"8. c #D28928",
"9. c #D78F2F",
"0. c #DFA022",
"q. c #E2A428",
"w. c #FBAA28",
"e. c #E9B229",
"r. c #FEBD2A",
"t. c #FAB426",
"y. c #EAB836",
"u. c #FCB234",
"i. c #FCB33B",
"p. c #FDBD35",
"a. c #F6AF36",
"s. c #FBC41C",
"d. c #FDCB1D",
"f. c #FACB1A",
"g. c #FCC524",
"h. c #FDCB22",
"j. c #FCCB2C",
"k. c #F8C728",
"l. c #FCD02D",
"z. c #FDCB34",
"x. c #FDC43B",
"c. c #FDCC3B",
"v. c #F8C435",
"b. c #FDD234",
"n. c #FED23B",
"m. c #F7D037",
"M. c #BF8564",
"N. c #CC8B45",
"B. c #D99643",
"V. c #C98655",
"C. c #D49956",
"Z. c #DDA65A",
"A. c #E5A844",
"S. c #FDB947",
"D. c #FABC57",
"F. c #F0B547",
"G. c #C38467",
"H. c #D59769",
"J. c #C98974",
"K. c #CF9670",
"L. c #D9A669",
"P. c #E8B46A",
"I. c #FCCD42",
"U. c #FECC4C",
"Y. c #F8C645",
"T. c #FCD245",
"R. c #FDD34B",
"E. c #FAD648",
"W. c #FDCD5D",
"Q. c #FCC755",
"!. c #FED452",
"~. c #FDD954",
"^. c #FDD45B",
"/. c #FEDC5B",
"(. c #EBC04C",
"). c #F8CA69",
"_. c #FDDC63",
"`. c #FCDA6B",
"'. c #FDD466",
"]. c #FCCD77",
"[. c #FEDC74",
"{. c #FCDD7C",
"}. c #FCD477",
"|. c #EAC777",
" X c #FCE178",
".X c #FCE15A",
"XX c #CD9983",
"oX c #D29F86",
"OX c #DAA99A",
"+X c #DEB48C",
"@X c #E2B791",
"#X c #DEBAA6",
"$X c #DCBDB1",
"%X c #E4BDB8",
"&X c #F8CB84",
"*X c #FDDD82",
"=X c #FBD889",
"-X c #E8C795",
";X c #F9DB94",
":X c #E7C785",
">X c #FCE284",
",X c #FDE38C",
"<X c #FFE98E",
"1X c #FBE394",
"2X c #FBE994",
"3X c #FCE69C",
"4X c #FCEA9C",
"5X c #F7E299",
"6X c #FFF099",
"7X c #F8D8A8",
"8X c #E9C9B9",
"9X c #EACFAA",
"0X c #FCE6A4",
"qX c #FDE9A3",
"wX c #FDEBAB",
"eX c #F8E6A8",
"rX c #FDECB3",
"tX c #FCEDBB",
"yX c #F8E7B6",
"uX c #FAF2BD",
"iX c #FCF0B7",
"pX c #EDD4C8",
"aX c #EAD6D3",
"sX c #E7CCC2",
"dX c #FCEEC4",
"fX c #FCEDCC",
"gX c #F7EAC6",
"hX c #FBF3C4",
"jX c #FDF2CB",
"kX c #F7F5C5",
"lX c #F7E7D8",
"zX c #FCF4D3",
"xX c #FCF5DA",
"cX c #F8F6D9",
"vX c #EFF1CB",
"bX c #F4EAE7",
"nX c #FBF6E3",
"mX c #FCFAE4",
"MX c #FCF5EB",
"NX c #FAFAEB",
"BX c #F4F8EA",
"VX c #F4FCF5",
"CX c #FCFCF4",
"ZX c #F7FEFC",
"AX c #FCFCFB",
"SX c #F8F5F4",
"DX c None",
/* pixels */
"DXDXDXDXDXDXDXDXDXDXDXDXDXDXDXDXDXDXDXDXDXDXDXDXDXDXDXDXDXDXDXDXDXDXDXDXDXDXDXDXDXDXDXDXDXDXDXDXDXDXDXDXDXDXDXDXDXDXDXDXDXDXDXDXDXDXDXDXDXDXDXDXDXDXDXDXDXDXDXDX",
"DXDXDXDXDXDXDXDXDXDXDXDXDXDXDXDXDXDXDXDXDXDXDXDXDXDXDXDXDXDXDXDXDXDXDXDXDXDXDXDXDX1 2 1 DXDXDXDXDXDXDXDXDXDXDXDXDXDXDXDXDXDXDXDXDXDXDXDXDXDXDXDXDXDXDXDXDXDXDXDX",
"DXDXDXDXDXDXDXDXDXDXDXDXDXDXDXDXDXDXDXDXDXDXDXDXDXDXDXDXDXDXDXDXDXDXDXDX* = , , p * & * * , : : 3 DXDXDXDXDXDXDXDXDXDXDXDXDXDXDXDXDXDXDXDXDXDXDXDXDXDXDXDXDXDXDX",
"DXDXDXDXDXDXDXDXDXDXDXDXDXDXDXDXDXDXDXDXDXDXDXDXDXDXDXDXDXDXDXDXDX; * 0 & & & & 9 * & & 9 9 * & * * , DXDXDXDXDXDXDXDXDXDXDXDXDXDXDXDXDXDXDXDXDXDXDXDXDXDXDXDXDX",
"DXDXDXDXDXDXDXDXDXDXDXDXDXDXDXDXDXDXDXDXDXDXDXDXDXDXDXDXDXDXDX; ; & & 8 $ - & & & & 9 9 w & & % & $ 9 * : DXDXDXDXDXDXDXDXDXDXDXDXDXDXDXDXDXDXDXDXDXDXDXDXDXDXDX",
"DXDXDXDXDXDXDXDXDXDXDXDXDXDXDXDXDXDXDXDXDXDXDXDXDXDXDXDXDX4 * & % * & & - - $ & 8 8 9 8 $ & - - & & * 9 9 ; 3 DXDXDXDXDXDXDXDXDXDXDXDXDXDXDXDXDXDXDXDXDXDXDXDXDX",
"DXDXDXDXDXDXDXDXDXDXDXDXDXDXDXDXDXDXDXDXDXDXDXDXDXDXDX1 : * 0 9 : w $ & & % - : 4 l 6 a * * $ $ & 9 0 0 - & - * DXDXDXDXDXDXDXDXDXDXDXDXDXDXDXDXDXDXDXDXDXDXDXDX",
"DXDXDXDXDXDXDXDXDXDXDXDXDXDXDXDXDXDXDXDXDXDXDXDXDXDX6 : = = - w s t 0 p 4 D ] ' G.G.G.} ` H f , * & * & 9 9 9 & 0 DXDXDXDXDXDXDXDXDXDXDXDXDXDXDXDXDXDXDXDXDXDXDX",
"DXDXDXDXDXDXDXDXDXDXDXDXDXDXDXDXDXDXDXDXDXDXDXDXDX3 % $ - : t s g 0 f ` XXsXbXSXSXSXSXSXSXlX%XJ.J 4 & & % & * 0 9 * 7 DXDXDXDXDXDXDXDXDXDXDXDXDXDXDXDXDXDXDXDXDX",
"DXDXDXDXDXDXDXDXDXDXDXDXDXDXDXDXDXDXDXDXDXDXDXDX7 % & & - t s s f { OXbXcXnXBXSXSXCXCXVXNXCXSXbXaXJ.D $ 9 * & & 9 9 = < DXDXDXDXDXDXDXDXDXDXDXDXDXDXDXDXDXDXDXDX",
"DXDXDXDXDXDXDXDXDXDXDXDXDXDXDXDXDXDXDXDXDXDXDX2 - & & - y s , D K.@X&XD.a.u.S.D.&XgXBXVXCXNXBXBXZXbX#X' * & & 9 9 0 0 p DXDXDXDXDXDXDXDXDXDXDXDXDXDXDXDXDXDXDXDX",
"DXDXDXDXDXDXDXDXDXDXDXDXDXDXDXDXDXDXDXDXDXDXDXt : t y t g 4 J H.D.S.w.=.%.%.$.&.3.w.).tXNXNXmXSXBXVXBXsX} 4 % & w & 8 8 t DXDXDXDXDXDXDXDXDXDXDXDXDXDXDXDXDXDXDX",
"DXDXDXDXDXDXDXDXDXDXDXDXDXDXDXDXDXDXDXDXDXDXd t y y g f 4 F 9.S.w.*.*.#.#.$.$.*.*.*.1.S.7XcXVXmXmXmXNXNXpX} d & 9 9 & & 8 4 DXDXDXDXDXDXDXDXDXDXDXDXDXDXDXDXDXDX",
"DXDXDXDXDXDXDXDXDXDXDXDXDXDXDXDXDXDXDXDXDXDXd d s y g 6 D ( w.=.#.$.$.%.*.;.;.=.&.*.*.&.u.;XzXnXcXcXcXmXNX8X} * & 9 - & 8 0 : DXDXDXDXDXDXDXDXDXDXDXDXDXDXDXDXDX",
"DXDXDXDXDXDXDXDXDXDXDXDXDXDXDXDXDXDXDXDXDXf d d d y t f _ =.:.$.*.$.$.$.&.+.o.+.$.%.%.%.#.u.&XxXcXcXxXxXxXmX8X` * $ * & 0 9 w DXDXDXDXDXDXDXDXDXDXDXDXDXDXDXDXDX",
"DXDXDXDXDXDXDXDXDXDXDXDXDXDXDXDXDXDXDXDXDX> > 4 u t y m *.%.$.$.$.&.*.3.a.9.~ b E / *.%.%.#.i.7XxXxXzXzXjXmXfX@XD $ 9 9 9 & - 5 DXDXDXDXDXDXDXDXDXDXDXDXDXDXDXDX",
"DXDXDXDXDXDXDXDXDXDXDXDXDXDXDXDXDXDXDXDXq - - : 0 0 n ! &.$.#.%.>.&.w.).yX9XJ.D % e R +.%.%.=.S.rXxXxXjXxXzXcXgXV.f $ e 9 $ & & DXDXDXDXDXDXDXDXDXDXDXDXDXDXDXDX",
"DXDXDXDXDXDXDXDXDXDXDXDXDXDXDXDXDXDXDXDXq 8 % - % w T &.;.&.%.&.*.a.&XfXvXcXlX+XD = * U +.%.%.1.}.tXzXhXjXjXjXzX9X` # 8 & 9 8 9 5 DXDXDXDXDXDXDXDXDXDXDXDXDXDXDX",
"DXDXDXDXDXDXDXDXDXDXDXDXDXDXDXDXDXDXDX9 & & & & $ m ..;.$.@.#.*.w.].kXvXhXgXzXgXK.D + t I @.;.@.u.;XzXhXhXfXjXdXjXK.D + & 9 9 0 * DXDXDXDXDXDXDXDXDXDXDXDXDXDXDX",
"DXDXDXDXDXDXDXDXDXDXDXDXDXDXDXDXDXDXDX& & * * $ w W $.$.$.$.%.&.).eXfXfXtXkXuX-XG - 9 9 w E $.;.&.).yXfXuXdXdXhXhX-X[ + & 9 9 0 9 DXDXDXDXDXDXDXDXDXDXDXDXDXDXDX",
"DXDXDXDXDXDXDXDXDXDXDXDXDXDXDXDXDXDXDX& & & & & v ..;.%.$.%.%.w.;XuXtXtXiXkX9X' : $ 9 9 $ c Q %.%.u.=XfXtXiXtXtXhXtXK.: & & & 9 9 * DXDXDXDXDXDXDXDXDXDXDXDXDXDX",
"DXDXDXDXDXDXDXDXDXDXDXDXDXDXDXDXDXDXt & & & $ w E @.;.%.$.#.3.).tXdXrXrXuXwXL.d $ & - 9 8 9 P *.%.3.Q.wXrXtXtXiXiXhX@XF & $ & 0 9 : DXDXDXDXDXDXDXDXDXDXDXDXDXDX",
"DXDXDXDXDXDXDXDXDXDXDXDXDXDXDXDXDXDXt & & & & c X.%.#.%.%.%.u.;XtXyXwXrXuX+XK # 9 - & - 9 $ i / $.%.i.1XtXiXiXrXrXhX9XV.t $ - & 0 9 DXDXDXDXDXDXDXDXDXDXDXDXDXDX",
"DXDXDXDXDXDXDXDXDXDXDXDXDXDXDXDXDXDX9 & 9 & * b @.%.$.$.%.&.D.wXrXrXwXwXeXV.d $ w & 9 9 & * e I @.%.w.}.rXiXwXwXrXhXyXL.d 9 9 & 9 9 DXDXDXDXDXDXDXDXDXDXDXDXDXDX",
"DXDXDXDXDXDXDXDXDXDXDXDXDXDXDXDXDXs 9 & - # e R *.%.%.:.#.w.).wXeXeXrXwX:XG = 9 9 9 9 9 - & & c o.#.3.D.qXrXqXwXiXiXrX:XF * 9 & - 9 9 DXDXDXDXDXDXDXDXDXDXDXDXDX",
"DXDXDXDXDXDXDXDXDXDXDXDXDXDXDXDXDX* 9 9 & # c / &.&.%.:.#.S.*XqX0X0XeXeXC.N $ t 9 & 9 9 - & $ e / #.&.u.3XwX0XqXuXrXwX;XK s $ 9 9 9 9 DXDXDXDXDXDXDXDXDXDXDXDXDX",
"DXDXDXDXDXDXDXDXDXDXDXDXDXDXDXDXt & $ & & % b o.%.;.%.%.&.Q.1X0X0XqXwX;X[ t $ 0 9 & & 9 9 * $ 0 I o.;.3.{.qXqXwXuXrXwX5XV.N $ 9 & 9 0 DXDXDXDXDXDXDXDXDXDXDXDXDX",
"DXDXDXDXDXDXDXDXDXDXDXDXDXDXDXDX8 9 & & & w P $.;.%.#.&.1.'.qX3XqX3X3X&XB & # & 9 9 w 9 9 & * : v ..;.=.}.;XqX4XkXtXqX3XL.D $ 9 9 9 9 & DXDXDXDXDXDXDXDXDXDXDXDX",
"DXDXDXDXDXDXDXDXDXDXDXDXDXDXDXDX8 9 * - $ e T %.%.%.%.&.w.}.qX3X5X4X;XP.g $ & & 9 & & * - 9 & & r / #.&.Q.1XqX2XhXtXwX2XP.G $ w 9 9 9 $ DXDXDXDXDXDXDXDXDXDXDXDX",
"DXDXDXDXDXDXDXDXDXDXDXDXDXDXDXj 9 9 w & % r E %.;.%.%.&.u.[.3X;X;XqX=XN.t & w 9 9 & & 9 & 9 9 & e E $.&.S.*X2X1XxXfXqX,X&XK $ 9 9 9 $ & DXDXDXDXDXDXDXDXDXDXDXDX",
"DXDXDXDXDXDXDXDXDXDXDXDXDXDXDX1 9 9 & - % c Q ;.%.%.%.=.S.{.3X,X,X4X|.) & & - 9 0 9 & * 9 9 & $ * T @.&.i.}.2X3XMXxXwX,X=X) & 9 9 & 9 & DXDXDXDXDXDXDXDXDXDXDXDX",
"DXDXDXDXDXDXDXDXDXDXDXDXDXDXDX3 * 9 9 & % v / ;.%.%.#.&.Q.{.2X>X,X6X|.G * $ 9 & 0 * $ * & 9 & & & I o.;.w.).2XrXNXCXhX1X*X) - & & 9 9 9 DXDXDXDXDXDXDXDXDXDXDXDX",
"DXDXDXDXDXDXDXDXDXDXDXDXDXDXDX; & 9 & & % U X.;.%.%.#.1.Q.>X,X>X*X2XP.F $ & & & & 9 & 9 9 9 & & 9 Y X.>.3.W.qXzXCXZXlX1X,XN.> $ 9 9 9 & DXDXDXDXDXDXDXDXDXDXDXDX",
"DXDXDXDXDXDXDXDXDXDXDXDXDXDXj ; 9 9 & 9 $ P o.;.%.%.%.:.). X,X>X X,XZ.C $ 9 & 9 & 9 9 q q 9 & 9 $ v ..;.1.).rXCXSXAXnXwX<XN.d & 0 w 9 9 DXDXDXDXDXDXDXDXDXDXDXDX",
"DXDXDXDXDXDXDXDXDXDXDXDXDXDXS ; 9 & & & & I +.%.%.%.%.1.W. X>X>X X>XZ.y $ 9 9 & 9 9 & $ 0 9 0 0 # v Q ;.w.&XxXCXAXAXSXMXqXC.D 8 & * 9 8 DXDXDXDXDXDXDXDXDXDXDXDX",
"DXDXDXDXDXDXDXDXDXDXDXDXDXDXS ; 8 & & & 9 T @.%.%.%.#.1.^.{. X}. X*XC.e 9 9 & - 9 9 * - 9 & * 0 + i ! t.&XfXAXZXZXAXAXAXMX+XG * $ * 0 0 6 DXDXDXDXDXDXDXDXDXDXDX",
"DXDXDXDXDXDXDXDXDXDXDXDXDXDXj - & 9 & 8 & T @.%.%.#.%.:.^.[.}.[. X[.B.u 9 9 9 & * & $ 8 $ $ = p N [ +XkXNXCXAXZXVXZXAXAXCXMX8XXX` D p + 2 DXDXDXDXDXDXDXDXDXDXDX",
"DXDXDXDXDXDXDXDXDXDXDXDXDXDX1 - 9 & 9 & $ T @.%.%.%.%.2.^.[.{.[.{.}.B.t 9 - > N N F G ` } J.OX8XpXbXBXCXAXZXAXAXAXAXAXAXAXAXVXbXaXaX%XOXDXDXDXDXDXDXDXDXDXDXDXDX",
"DXDXDXDXDXDXDXDXDXDXDXDXDXDXj - 9 & & 8 & T @.%.%.%.%.1.W.[.[.[.`.`.B.u & & : d h g N J H { } oX#XaXMXAXAXAXZXAXAXAXAXCXZXAXAXSXaX$XoXG.DXDXDXDXDXDXDXDXDXDXDXDX",
"DXDXDXDXDXDXDXDXDXDXDXDXDXDXDX& & & & 9 & T @.%.%.%.%.1.Q.`.`.`.`.`.9.e & * w 0 q 0 0 t s a f N D [ P.7XnXAXAXZXCXCXCXAXAXlX#XG.` J z g l DXDXDXDXDXDXDXDXDXDXDX",
"DXDXDXDXDXDXDXDXDXDXDXDXDXDXDX* & & & 9 & R @.%.%.%.%.1.U.`._._._._.B.> & & & 9 & & & & & $ 8 $ + r Q u.].fXCXZXVXCXAXAXxX@X` # # + @ @ 4 DXDXDXDXDXDXDXDXDXDXDX",
"DXDXDXDXDXDXDXDXDXDXDXDXDXDXDX: 9 & - & $ I @.;.%.%.%.&.U.'.'._._.`.q.y $ & & 9 9 & & & 9 9 9 w # n ! %.=.}.xXAXZXAXAXxX2XN.u @ 9 w 9 e DXDXDXDXDXDXDXDXDXDXDXDX",
"DXDXDXDXDXDXDXDXDXDXDXDXDXDXDX: * 9 9 & $ I +.;.%.%.%.:.Y.^._.'.^._.Z.x 8 & 9 & & & & 9 9 9 9 & = b / ;.:.Y.2XMXZXAXxX2X_.8.r & 9 9 9 9 DXDXDXDXDXDXDXDXDXDXDXDX",
"DXDXDXDXDXDXDXDXDXDXDXDXDXDXDX3 9 9 9 & # U X.;.%.%.%.:.p.^./.^.~._.A.B & 9 9 * $ 9 9 9 & & & & # U X.;.2.x.[.tXVXZXtX_.~.8.y = q w & 9 DXDXDXDXDXDXDXDXDXDXDXDX",
"DXDXDXDXDXDXDXDXDXDXDXDXDXDXDX3 * 9 9 & $ b ..;.%.;.%.&.p.~./.^.~..XF.L = # 0 * $ & 9 & & & 9 9 $ I o.:.3.Y.'.,XmXmX3X~.W.) > & 9 & w 8 DXDXDXDXDXDXDXDXDXDXDXDX",
"DXDXDXDXDXDXDXDXDXDXDXDXDXDXDXDX9 9 w 9 $ c Q ;.%.%.%.%.w.U./.U.U./.(.L & & 9 9 & & 9 9 % * 9 9 9 T @.;.2.Y./.`.nXfX{.T.(.L & w * & & 9 DXDXDXDXDXDXDXDXDXDXDXDX",
"DXDXDXDXDXDXDXDXDXDXDXDXDXDXDXDX9 9 - & $ i E ;.%.%.%.&.w.I.~.^.U.~.Y.8.: $ 9 8 & & 9 9 & & & & 9 ! #.:.4.I.!.^.dXwX XE.F.V $ - * * 9 9 DXDXDXDXDXDXDXDXDXDXDXDX",
"DXDXDXDXDXDXDXDXDXDXDXDXDXDXDXDX9 9 9 & & e T %.%.%.%.%.2.v.~.U.U.~.E.q.g & 9 9 & & 9 9 & & & & i / %.&.r.R.E.R.3X1X.XE.A.V $ & * & & 9 DXDXDXDXDXDXDXDXDXDXDXDX",
"DXDXDXDXDXDXDXDXDXDXDXDXDXDXDXDX8 9 9 & & & P #.%.%.%.%.:.v.T.R.R.E.E.y.B 0 & 9 $ & 9 9 9 & 9 9 v O.;.&.p.!.R.T.>X[.~.E.9.N $ w * 9 * : DXDXDXDXDXDXDXDXDXDXDXDX",
"DXDXDXDXDXDXDXDXDXDXDXDXDXDXDXDX9 9 8 & $ % b +.%.%.%.%.%.t.I.T.R.T.E.Y._ e $ & & & & & 9 9 9 0 I o.;.>.x.!.R.U. X'.R.Y.( d $ 9 9 9 & DXDXDXDXDXDXDXDXDXDXDXDXDX",
"DXDXDXDXDXDXDXDXDXDXDXDXDXDXDXDXDX9 9 9 - % c / ;.%.%.%.%.w.x.n.n.I.E.Y.8.x # - 9 9 & 9 9 9 8 t ! @.;.2.I.I.I.T./.^.U.v.A - $ 9 9 9 * DXDXDXDXDXDXDXDXDXDXDXDXDX",
"DXDXDXDXDXDXDXDXDXDXDXDXDXDXDXDXDX& 9 9 9 # w T $.%.%.%.%.3.g.c.n.I.I.c.y.V $ 9 0 9 & & 9 & 0 x O.;.:.t.c.I.m.n.~.~.T.a.C & & 9 9 9 & DXDXDXDXDXDXDXDXDXDXDXDXDX",
"DXDXDXDXDXDXDXDXDXDXDXDXDXDXDXDXDX9 9 - & $ 9 Y @.%.%.%.%.:.t.c.n.I.c.c.m.8.- 9 $ & & & & $ e P $.%.2.v.c.c.n.n.E.E.z.9.u $ 9 & - 9 DXDXDXDXDXDXDXDXDXDXDXDXDXDX",
"DXDXDXDXDXDXDXDXDXDXDXDXDXDXDXDXDX9 9 & $ & 9 i X.%.%.%.%.%.1.x.n.c.c.z.m.q.A $ * 9 9 9 $ $ x / $.%.2.z.x.c.b.n.U.E.y.( 0 * 9 & - * DXDXDXDXDXDXDXDXDXDXDXDXDXDX",
"DXDXDXDXDXDXDXDXDXDXDXDXDXDXDXDXDXDX9 q 9 - $ - E *.$.%.%.;.:.t.z.b.c.c.z.z.| w 9 w * 9 * w I *.%.;.4.c.c.z.z.z.m.m.q.x $ 9 - - & * DXDXDXDXDXDXDXDXDXDXDXDXDXDX",
"DXDXDXDXDXDXDXDXDXDXDXDXDXDXDXDXDXDX: 9 9 9 & & v O.&.%.%.%.;.2.g.l.z.c.z.m.y.( - $ w 9 $ v Q %.%.2.r.c.j.j.z.z.m.v.| w 9 9 9 & 9 4 DXDXDXDXDXDXDXDXDXDXDXDXDXDX",
"DXDXDXDXDXDXDXDXDXDXDXDXDXDXDXDXDXDX3 w & & & & e E %.;.%.%.%.:.4.g.j.z.c.l.l.e.V s $ & w E $.%.%.4.j.z.j.j.j.c.c.q.V $ - 9 9 9 * DXDXDXDXDXDXDXDXDXDXDXDXDXDXDX",
"DXDXDXDXDXDXDXDXDXDXDXDXDXDXDXDXDXDXDX* & * 9 9 $ b ..;.&.#.%.%.:.t.j.z.j.j.l.v.^ t # w T o.%.%.:.r.z.z.z.j.z.j.j.^ y $ % w 9 9 : DXDXDXDXDXDXDXDXDXDXDXDXDXDXDX",
"DXDXDXDXDXDXDXDXDXDXDXDXDXDXDXDXDXDXDXp & * - * $ e T #.&.%.%.%.%.2.4.k.j.z.y.0.x & w P o.%.%.:.t.h.j.j.z.j.k.f.<.C $ 9 & - 9 $ 1 DXDXDXDXDXDXDXDXDXDXDXDXDXDXDX",
"DXDXDXDXDXDXDXDXDXDXDXDXDXDXDXDXDXDXDXDX9 9 : & - $ c / %.%.%.%.%.%.:.6.g.<.| y 9 i E +.%.%.;.2.g.j.k.j.k.k.l.t.W t $ 9 - 9 9 - DXDXDXDXDXDXDXDXDXDXDXDXDXDXDXDX",
"DXDXDXDXDXDXDXDXDXDXDXDXDXDXDXDXDXDXDXDX0 * * w & & 9 v +.&.%.&.$.%.&.%.&.Q M v T X.%.;.%.%.>.t.j.j.h.k.g.j.k.0.i 8 8 & & 8 0 > DXDXDXDXDXDXDXDXDXDXDXDXDXDXDXDX",
"DXDXDXDXDXDXDXDXDXDXDXDXDXDXDXDXDXDXDXDXDX* 9 9 & - & * T +.%.:.;.%.%.%.%.#.$.>.&.;.%.%.;.>.6.k.j.j.h.d.j.j.0.C 8 $ 9 t t 9 ; DXDXDXDXDXDXDXDXDXDXDXDXDXDXDXDXDX",
"DXDXDXDXDXDXDXDXDXDXDXDXDXDXDXDXDXDXDXDXDX9 8 9 - - & = w ! %.&.%.%.%.&.$.>.$.&.&.%.#.&.;.,.f.f.d.s.s.d.j.<.Z % & 9 * * $ * 3 DXDXDXDXDXDXDXDXDXDXDXDXDXDXDXDXDX",
"DXDXDXDXDXDXDXDXDXDXDXDXDXDXDXDXDXDXDXDXDXDXt q 0 & * t 8 r R :.%.&.*.%.$.%.%.%.%.%.%.;.s.h.k.f.g.h.d.d.7.A 9 9 & * 9 & & 5 DXDXDXDXDXDXDXDXDXDXDXDXDXDXDXDXDXDX",
"DXDXDXDXDXDXDXDXDXDXDXDXDXDXDXDXDXDXDXDXDXDXDX0 & & & & * 8 r W 7.>.;.$.%.#.%.%.%.>.,.s.s.f.g.s.s.d.g.<.V 9 9 9 * 9 9 8 < DXDXDXDXDXDXDXDXDXDXDXDXDXDXDXDXDXDXDX",
"DXDXDXDXDXDXDXDXDXDXDXDXDXDXDXDXDXDXDXDXDXDXDX5 0 & & 9 9 & & > Z -.6.,.,.>.>.2.6.6.s.s.g.h.s.d.d.6.| C * & 9 9 9 & 0 0 k DXDXDXDXDXDXDXDXDXDXDXDXDXDXDXDXDXDXDX",
"DXDXDXDXDXDXDXDXDXDXDXDXDXDXDXDXDXDXDXDXDXDXDXDX5 * & 9 9 9 9 $ & C  .<.5.f.f.s.f.f.d.d.d.d.h.5.-.W x = & 9 9 & & & : k DXDXDXDXDXDXDXDXDXDXDXDXDXDXDXDXDXDXDXDX",
"DXDXDXDXDXDXDXDXDXDXDXDXDXDXDXDXDXDXDXDXDXDXDXDXDX5 & 9 & & 9 9 & # - M ^ -.7.5.5.s.5.5.7.<.| W C - # $ w 9 9 & & * k DXDXDXDXDXDXDXDXDXDXDXDXDXDXDXDXDXDXDXDXDX",
"DXDXDXDXDXDXDXDXDXDXDXDXDXDXDXDXDXDXDXDXDXDXDXDXDXDX6 : w & = - 9 e 8 + & y M ~ ^ W W W Z v w $ # 9 9 * - & 9 9 > S DXDXDXDXDXDXDXDXDXDXDXDXDXDXDXDXDXDXDXDXDXDX",
"DXDXDXDXDXDXDXDXDXDXDXDXDXDXDXDXDXDXDXDXDXDXDXDXDXDXDXk p 9 & & $ 0 0 8 9 & # + $ $ $ $ $ % $ & e 9 8 8 9 9 & ; S DXDXDXDXDXDXDXDXDXDXDXDXDXDXDXDXDXDXDXDXDXDXDX",
"DXDXDXDXDXDXDXDXDXDXDXDXDXDXDXDXDXDXDXDXDXDXDXDXDXDXDXDXj 4 * 9 w & & & & 8 9 9 9 w 9 & 9 9 8 & & * * , 8 t j O DXDXDXDXDXDXDXDXDXDXDXDXDXDXDXDXDXDXDXDXDXDXDXDX",
"DXDXDXDXDXDXDXDXDXDXDXDXDXDXDXDXDXDXDXDXDXDXDXDXDXDXDXDXDXDXS % 8 8 9 & w & 9 9 & & % % 9 t * - * 8 0 : 3 . DXDXDXDXDXDXDXDXDXDXDXDXDXDXDXDXDXDXDXDXDXDXDXDXDXDX",
"DXDXDXDXDXDXDXDXDXDXDXDXDXDXDXDXDXDXDXDXDXDXDXDXDXDXDXDXDXDXDXDXS 5 , 8 q q 9 & & 9 9 9 & - * 0 9 0 k . o DXDXDXDXDXDXDXDXDXDXDXDXDXDXDXDXDXDXDXDXDXDXDXDXDXDXDX",
"DXDXDXDXDXDXDXDXDXDXDXDXDXDXDXDXDXDXDXDXDXDXDXDXDXDXDXDXDXDXDXDXDX  X . 1 ; - - & 9 9 9 & * 5 k .   O DXDXDXDXDXDXDXDXDXDXDXDXDXDXDXDXDXDXDXDXDXDXDXDXDXDXDXDXDX",
"DXDXDXDXDXDXDXDXDXDXDXDXDXDXDXDXDXDXDXDXDXDXDXDXDXDXDXDXDXDXDXDXDXDXDXDX  O     X . . .   O o o DXDXDXDXDXDXDXDXDXDXDXDXDXDXDXDXDXDXDXDXDXDXDXDXDXDXDXDXDXDXDXDX",
"DXDXDXDXDXDXDXDXDXDXDXDXDXDXDXDXDXDXDXDXDXDXDXDXDXDXDXDXDXDXDXDXDXDXDXDXDXDXDXDXDXDXDXDXDXDXDXDXDXDXDXDXDXDXDXDXDXDXDXDXDXDXDXDXDXDXDXDXDXDXDXDXDXDXDXDXDXDXDXDX",
"DXDXDXDXDXDXDXDXDXDXDXDXDXDXDXDXDXDXDXDXDXDXDXDXDXDXDXDXDXDXDXDXDXDXDXDXDXDXDXDXDXDXDXDXDXDXDXDXDXDXDXDXDXDXDXDXDXDXDXDXDXDXDXDXDXDXDXDXDXDXDXDXDXDXDXDXDXDXDXDX",
"DXDXDXDXDXDXDXDXDXDXDXDXDXDXDXDXDXDXDXDXDXDXDXDXDXDXDXDXDXDXDXDXDXDXDXDXDXDXDXDXDXDXDXDXDXDXDXDXDXDXDXDXDXDXDXDXDXDXDXDXDXDXDXDXDXDXDXDXDXDXDXDXDXDXDXDXDXDXDXDX",
"DXDXDXDXDXDXDXDXDXDXDXDXDXDXDXDXDXDXDXDXDXDXDXDXDXDXDXDXDXDXDXDXDXDXDXDXDXDXDXDXDXDXDXDXDXDXDXDXDXDXDXDXDXDXDXDXDXDXDXDXDXDXDXDXDXDXDXDXDXDXDXDXDXDXDXDXDXDXDXDX",
"DXDXDXDXDXDXDXDXDXDXDXDXDXDXDXDXDXDXDXDXDXDXDXDXDXDXDXDXDXDXDXDXDXDXDXDXDXDXDXDXDXDXDXDXDXDXDXDXDXDXDXDXDXDXDXDXDXDXDXDXDXDXDXDXDXDXDXDXDXDXDXDXDXDXDXDXDXDXDXDX"
};
