/* XPM */
static char *result[] = {
/* columns rows colors chars-per-pixel */
"80 80 227 2 ",
"   c #7D442C",
".  c #7C492B",
"X  c #6D4737",
"o  c #7A4633",
"O  c #744C3C",
"+  c #7A493A",
"@  c #754C34",
"#  c #6C523F",
"$  c #5E584E",
"%  c #5A5959",
"&  c #6D4E47",
"*  c #734E43",
"=  c #66544A",
"-  c #625956",
";  c #6B5250",
":  c #5F615B",
">  c #6D6A5C",
",  c #596661",
"<  c #7A7471",
"1  c #9D1E02",
"2  c #991B02",
"3  c #962401",
"4  c #9C2401",
"5  c #962D03",
"6  c #9D2C02",
"7  c #962E0B",
"8  c #9D2D0A",
"9  c #982708",
"0  c #9C3103",
"q  c #95320D",
"w  c #9B320C",
"e  c #973007",
"r  c #8E2E11",
"t  c #8F2D18",
"y  c #9B2914",
"u  c #943412",
"i  c #9C3212",
"p  c #9C321A",
"a  c #91381B",
"s  c #893A1D",
"d  c #A22503",
"f  c #A22B03",
"g  c #A4270A",
"h  c #A22C09",
"j  c #AA2908",
"k  c #A43104",
"l  c #A2330C",
"z  c #A83C05",
"x  c #A52E15",
"c  c #A23314",
"v  c #A4351A",
"b  c #A83B17",
"n  c #8D3A21",
"m  c #8B3D2B",
"M  c #963522",
"N  c #A53A21",
"B  c #AC3C20",
"V  c #AB4104",
"C  c #B44C0C",
"Z  c #B24D05",
"A  c #B55409",
"S  c #B9580C",
"D  c #AC4818",
"F  c #B55114",
"G  c #B55913",
"H  c #BA5E13",
"J  c #BA5916",
"K  c #B96019",
"L  c #854028",
"P  c #824436",
"I  c #9B412B",
"U  c #AB4A2C",
"Y  c #A84428",
"T  c #B4562D",
"R  c #BC5B2D",
"E  c #AC4A33",
"W  c #B14C36",
"Q  c #AF5432",
"!  c #B35633",
"~  c #B45B35",
"^  c #B45B3A",
"/  c #B65337",
"(  c #AF522C",
")  c #BC6629",
"_  c #BA6534",
"`  c #B96437",
"'  c #C8720B",
"]  c #CA740F",
"[  c #C36C33",
"{  c #B55D47",
"}  c #B9674A",
"|  c #B76854",
" . c #BD7355",
".. c #A9674A",
"X. c #8A7C78",
"o. c #BE7868",
"O. c #C26B56",
"+. c #C07558",
"@. c #C47867",
"#. c #D78816",
"$. c #DA9114",
"%. c #E49B0D",
"&. c #E49A18",
"*. c #E6A71B",
"=. c #F5B61C",
"-. c #EDB81D",
";. c #E69D23",
":. c #E4A124",
">. c #E6A32C",
",. c #EAA824",
"<. c #F2B829",
"1. c #E7A433",
"2. c #EDB538",
"3. c #F2B53A",
"4. c #EFB62F",
"5. c #FBCB16",
"6. c #FCC51D",
"7. c #FBCA1C",
"8. c #F5C81B",
"9. c #FCC623",
"0. c #FCCA23",
"q. c #FBC62A",
"w. c #FDCA2C",
"e. c #FDD227",
"r. c #F9C734",
"t. c #FDCB33",
"y. c #FDCD3B",
"u. c #FED034",
"i. c #FED23C",
"p. c #F7D03C",
"a. c #8A8477",
"s. c #EBA940",
"d. c #C8866C",
"f. c #CA8777",
"g. c #CD967D",
"h. c #D3937D",
"j. c #E9B87A",
"k. c #FCCD44",
"l. c #FECD4A",
"z. c #FDD244",
"x. c #FDD34C",
"c. c #FFD94F",
"v. c #FDD552",
"b. c #FAD859",
"n. c #FADB67",
"m. c #FADD7C",
"M. c #EAC078",
"N. c #969C98",
"B. c #B08E83",
"V. c #B3AEB0",
"C. c #CD9280",
"Z. c #CA9F8E",
"A. c #D29D89",
"S. c #CC8C81",
"D. c #DDAB99",
"F. c #D9A997",
"G. c #D5A48F",
"H. c #E9BA86",
"J. c #E6BE98",
"K. c #E0A99E",
"L. c #DBB8AC",
"P. c #DEB9B2",
"I. c #E3BAA9",
"U. c #E2BEB5",
"Y. c #E2AEA4",
"T. c #EDCD96",
"R. c #EAC89B",
"E. c #F3D799",
"W. c #F4CE88",
"Q. c #FDE38C",
"!. c #FDE185",
"~. c #FCE394",
"^. c #FDE59C",
"/. c #FAE99A",
"(. c #DDC2AA",
"). c #DBC4B2",
"_. c #C9C8BA",
"`. c #E5C3A3",
"'. c #EACAA6",
"]. c #F6D7A5",
"[. c #E1C3B5",
"{. c #E4C3BB",
"}. c #E8C8BA",
"|. c #F1C9B5",
" X c #FDE5A2",
".X c #FCEAA4",
"XX c #FDEAAD",
"oX c #F9E9A9",
"OX c #FDEBB3",
"+X c #FDEDBB",
"@X c #FDF2BB",
"#X c #FDF4B5",
"$X c #FCF0AD",
"%X c #D6CDC7",
"&X c #E6CDC4",
"*X c #EBD6CB",
"=X c #F2D6CC",
"-X c #E9DAD4",
";X c #F3DCD6",
":X c #FDEEC3",
">X c #FEEFCB",
",X c #FDF1C4",
"<X c #FDF2CC",
"1X c #FCF6CB",
"2X c #EFE4DA",
"3X c #E6E9DF",
"4X c #F5E7D9",
"5X c #FEF4D3",
"6X c #FDFBD5",
"7X c #FCF5DC",
"8X c #FDF9DD",
"9X c #EAE0CE",
"0X c #F0DEE0",
"qX c #F3E5E3",
"wX c #F7ECE7",
"eX c #FCF6E4",
"rX c #FEFAE3",
"tX c #F4F1EC",
"yX c #FBF5ED",
"uX c #FCFBEC",
"iX c #F6F7E8",
"pX c #F4FCF6",
"aX c #FCFBF4",
"sX c #F7FFFC",
"dX c #FEFEFE",
"fX c #FAF6F5",
"gX c None",
/* pixels */
"gXgXgXgXgXgXgXgXgXgXgXgXgXgXgXgXgXgXgXgXgXgXgXgXgXgXgXgXgXgXgXgXgXgXgXgXgXgXgXgXgXgXgXgXgXgXgXgXgXgXgXgXgXgXgXgXgXgXgXgXgXgXgXgXgXgXgXgXgXgXgXgXgXgXgXgXgXgXgXgX",
"gXgXgXgXgXgXgXgXgXgXgXgXgXgXgXgXgXgXgXgXgXgXgXgXgXgXgXgXgXgXgXgXgXgXgXgXgXgXgXgXgXgXgXgXgXgXgXgXgXgXgXgXgXgXgXgXgXgXgXgXgXgXgXgXgXgXgXgXgXgXgXgXgXgXgXgXgXgXgXgX",
"gXgXgXgXgXgXgXgXgXgXgXgXgXgXgXgXgXgXgXgXgXgXgXgXgXgXgXgXgXgXgXgXgXgXgXgXgXgXgXgXgXgXgXgXgXgXgXgXgXgXgXgXgXgXgXgXgXgXgXgXgXgXgXgXgXgXgXgXgXgXgXgXgXgXgXgXgXgXgXgX",
"gXgXgXgXgXgXgXgXgXgXgXgXgXgXgXgXgXgXgXgXgXgXgXgXgXgXgXgXgXgXgXgXgXgXgXgXgXgXgXgXgXgXgXgXgXgXgXgXgXgXgXgXgXgXgXgXgXgXgXgXgXgXgXgXgXgXgXgXgXgXgXgXgXgXgXgXgXgXgXgX",
"gXgXgXgXgXgXgXgXgXgXgXgXgXgXgXgXgXgXgXgXgXgXgXgXgXgXgXgXgXgXgXgXgXgXgXgXgX4 d d d j j f f gXgXgXgXgXgXgXgXgXgXgXgXgXgXgXgXgXgXgXgXgXgXgXgXgXgXgXgXgXgXgXgXgXgXgX",
"gXgXgXgXgXgXgXgXgXgXgXgXgXgXgXgXgXgXgXgXgXgXgXgXgXgXgXgXgXgXgXgXgXgXgXf f f f f f f f f 6 6 0 f gXgXgXgXgXgXgXgXgXgXgXgXgXgXgXgXgXgXgXgXgXgXgXgXgXgXgXgXgXgXgXgX",
"gXgXgXgXgXgXgXgXgXgXgXgXgXgXgXgXgXgXgXgXgXgXgXgXgXgXgXgXgXgXgXgXgXd k d d f f 0 0 0 k f 0 6 h f f j g gXgXgXgXgXgXgXgXgXgXgXgXgXgXgXgXgXgXgXgXgXgXgXgXgXgXgXgXgX",
"gXgXgXgXgXgXgXgXgXgXgXgXgXgXgXgXgXgXgXgXgXgXgXgXgXgXgXgXgXgXgX0 6 d 6 f f f 6 6 3 5 4 f f f d 6 8 h h 8 8 gXgXgXgXgXgXgXgXgXgXgXgXgXgXgXgXgXgXgXgXgXgXgXgXgXgXgX",
"gXgXgXgXgXgXgXgXgXgXgXgXgXgXgXgXgXgXgXgXgXgXgXgXgXgXgXgXgXgX6 6 6 6 h 6 6 4 d l v N v l 0 f 6 6 5 6 6 6 d h gXgXgXgXgXgXgXgXgXgXgXgXgXgXgXgXgXgXgXgXgXgXgXgXgXgX",
"gXgXgXgXgXgXgXgXgXgXgXgXgXgXgXgXgXgXgXgXgXgXgXgXgXgXgXgXgXf h 9 d 0 f 6 c Q  .d.C.A.h.d.} U w 6 6 8 h j f d u gXgXgXgXgXgXgXgXgXgXgXgXgXgXgXgXgXgXgXgXgXgXgXgXgX",
"gXgXgXgXgXgXgXgXgXgXgXgXgXgXgXgXgXgXgXgXgXgXgXgXgXgXgXgXh 0 6 6 j f 5 Y @.[.wXsXsXdXdXdXtX).+.b d d f f w w 8 gXgXgXgXgXgXgXgXgXgXgXgXgXgXgXgXgXgXgXgXgXgXgXgXgX",
"gXgXgXgXgXgXgXgXgXgXgXgXgXgXgXgXgXgXgXgXgXgXgXgXgXgXgXw f 6 0 0 6 f b h.9XuXpXaXaXaXaXdXaXyX;Xf.p 9 4 f 8 8 d w gXgXgXgXgXgXgXgXgXgXgXgXgXgXgXgXgXgXgXgXgXgXgXgX",
"gXgXgXgXgXgXgXgXgXgXgXgXgXgXgXgXgXgXgXgXgXgXgXgXgXgXgXh f h 0 0 2 v  .}.dXaXaXuXaXfXpXiXuXuXdX}.} w 3 f d j h 6 q gXgXgXgXgXgXgXgXgXgXgXgXgXgXgXgXgXgXgXgXgXgXgX",
"gXgXgXgXgXgXgXgXgXgXgXgXgXgXgXgXgXgXgXgXgXgXgXgXgXgX5 f d 6 0 6 1 U F.4XaXeXuXuXuXuXuXeXeXuXaX=Xg.Y 3 f f 6 h h 0 gXgXgXgXgXgXgXgXgXgXgXgXgXgXgXgXgXgXgXgXgXgXgX",
"gXgXgXgXgXgXgXgXgXgXgXgXgXgXgXgXgXgXgXgXgXgXgXgXgXgX8 6 6 6 6 0 4 Q I.qXuXrXrXrXrXrX7X8XrXeXuX4XD.W 4 f 6 6 8 6 f gXgXgXgXgXgXgXgXgXgXgXgXgXgXgXgXgXgXgXgXgXgXgX",
"gXgXgXgXgXgXgXgXgXgXgXgXgXgXgXgXgXgXgXgXgXgXgXgXgXgXw 6 6 6 f f 6 ~ |.eXrXrX8X8X7XeXrXrX7X7XrX4X`./ 4 6 6 6 5 6 6 gXgXgXgXgXgXgXgXgXgXgXgXgXgXgXgXgXgXgXgXgXgXgX",
"gXgXgXgXgXgXgXgXgXgXgXgXgXgXgXgXgXgXgXgXgXgXgXgXgXgXw f 6 f f f 3 ` '.5X8X7X8X8X7X7X7X7X7X7X6X1XI.^ 4 d 6 6 f 6 0 gXgXgXgXgXgXgXgXgXgXgXgXgXgXgXgXgXgXgXgXgXgXgX",
"gXgXgXgXgXgXgXgXgXgXgXgXgXgXgXgXgXgXgXgXgXgXgXgXgXgX8 f 6 6 6 f 6 ~ `.<X8X5X5X5X5X6X5X7X5X6X6X9XR.! 4 f 6 6 6 6 6 gXgXgXgXgXgXgXgXgXgXgXgXgXgXgXgXgXgXgXgXgXgXgX",
"gXgXgXgXgXgXgXgXgXgXgXgXgXgXgXgXgXgXgXgXgXgXgXgXgXgX6 f 6 6 6 f 4 ~ '.<X6X<X<X<X5X1X<X5X<X<X6X,XJ.! 4 f f 6 6 6 6 gXgXgXgXgXgXgXgXgXgXgXgXgXgXgXgXgXgXgXgXgXgXgX",
"gXgXgXgXgXgXgXgXgXgXgXgXgXgXgXgXgXgXgXgXgXgXgXgXgXgX6 f k 6 6 6 6 ~ R.<X5X<X<X<X<X<X<X<X<X<X6X:XJ.! 4 f 0 6 6 6 6 gXgXgXgXgXgXgXgXgXgXgXgXgXgXgXgXgXgXgXgXgXgXgX",
"gXgXgXgXgXgXgXgXgXgXgXgXgXgXgXgXgXgXgXgXgXgXgXgXgXgXf f k 6 6 6 6 ` '.,X,X>X>X>X,X,X,X>X:X:X1X+XJ.! 2 h 6 6 6 6 w gXgXgXgXgXgXgXgXgXgXgXgXgXgXgXgXgXgXgXgXgXgXgX",
"gXgXgXgXgXgXgXgXgXgXgXgXgXgXgXgXgXgXgXgXgXgXgXgXgXgXf f l 6 4 6 6 _ ].@X,X+X+X+X:X+X+X:X:X:X,X+XJ.! 4 d 6 6 6 f u O gXgXgXgXgXgXgXgXgXgXgXgXgXgXgXgXgXgXgXgXgXgX",
"gXgXgXgXgXgXgXgXgXgXgXgXgXgXgXgXgXgXgXgXgXgXgXgXgXgXf d 6 6 6 6 6 _ E.+X+X+X+X@X+X+X+X+X+X+X,XOXH.T 4 6 f f 6 f u O gXgXgXgXgXgXgXgXgXgXgXgXgXgXgXgXgXgXgXgXgXgX",
"gXgXgXgXgXgXgXgXgXgXgXgXgXgXgXgXgXgXgXgXgXgXgXgXgXgXf 6 h 6 6 6 6 _ T.+X@XOXOXOXOXOXOX+XOXOX@XXXH.T 4 6 f 6 0 6 r O = gXgXgXgXgXgXgXgXgXgXgXgXgXgXgXgXgXgXgXgXgX",
"gXgXgXgXgXgXgXgXgXgXgXgXgXgXgXgXgXgXgXgXgXgXgXgXgXgXf f h h 6 5 0 _ T.OX#XOXXXOX$XXXOXOXOXOX#XoXH.T 4 f 6 6 6 f u * % , gXgXgXgXgXgXgXgXgXgXgXgXgXgXgXgXgXgXgXgX",
"gXgXgXgXgXgXgXgXgXgXgXgXgXgXgXgXgXgXgXgXgXgXgXgXgXgX6 6 h l 6 6 k _ T.OXXXXXXXXXXXXXXXXXXXXX#XoXH.T 3 6 6 h h 6 r * < N.gXgXgXgXgXgXgXgXgXgXgXgXgXgXgXgXgXgXgXgX",
"gXgXgXgXgXgXgXgXgXgXgXgXgXgXgXgXgXgXgXgXgXgXgXgXgXgXy 4 h 0 h f h ` T. X.X.X.XXXoX$XoX.X XoXoX XH.T 4 6 h h 6 3 I B.V.V.gXgXgXgXgXgXgXgXgXgXgXgXgXgXgXgXgXgXgXgX",
"gXgXgXgXgXgXgXgXgXgXgXgXgXgXgXgXgXgXgXgXgXgXgXgXgX-XG.O.y 3 6 f 0 _ T.XX.X.X^..X^..X.X X X.X$X^.j.T 6 l f 4 8 @.P.%XN.% gXgXgXgXgXgXgXgXgXgXgXgXgXgXgXgXgXgXgXgX",
"gXgXgXgXgXgXgXgXgXgXgXgXgXgXgXgXgXgXgXgXgXgXgXgXgXgX0X=XF.} x 1 d ) W..X.X.X.X.X.X^.^.^.E./..X^.j.R d 1 c | L.;X%Xa.> gXgXgXgXgXgXgXgXgXgXgXgXgXgXgXgXgXgXgXgXgX",
"gXgXgXgXgXgXgXgXgXgXgXgXgXgXgXgXgXgXgXgXgXgXgXgXgXgXd.L.tX;XK.O.D ) M.^././.^.^./.^.^.^.^././.~.j.~ Y @.L.3XfXY.| * gXgXgXgXgXgXgXgXgXgXgXgXgXgXgXgXgXgXgXgXgXgX",
"gXgXgXgXgXgXgXgXgXgXgXgXgXgXgXgXgXgXgXgXgXgXgXgXgXgXi } {.wXfX*X(.L.].^.~.~.Q.Q.Q.Q.Q.Q.~.~..X.XE.`.[.2XpXtXU.{ y gXgXgXgXgXgXgXgXgXgXgXgXgXgXgXgXgXgXgXgXgXgXgX",
"gXgXgXgXgXgXgXgXgXgXgXgXgXgXgXgXgXgXgXgXgXgXgXgXgXgX4 b  .&XdXdXpXuXeX8X5X,X+XOXXX.XXXOX+X,X5XrXuXyXdXdXfX[.} l 4 gXgXgXgXgXgXgXgXgXgXgXgXgXgXgXgXgXgXgXgXgXgXgX",
"gXgXgXgXgXgXgXgXgXgXgXgXgXgXgXgXgXgXgXgXgXgXgXgXgXgXf 4 v f.=XfXdXdXaXdXdXaXfXuXuXrXuXeXuXaXdXdXsXsXdXaX&Xd.h 6 0 gXgXgXgXgXgXgXgXgXgXgXgXgXgXgXgXgXgXgXgXgXgXgX",
"gXgXgXgXgXgXgXgXgXgXgXgXgXgXgXgXgXgXgXgXgXgXgXgXgXgXgX6 9 W A.fXdXaXaXdXdXdXdXdXdXdXdXdXsXdXdXdXaXsXdXwXC.Y 9 4 6 gXgXgXgXgXgXgXgXgXgXgXgXgXgXgXgXgXgXgXgXgXgXgX",
"gXgXgXgXgXgXgXgXgXgXgXgXgXgXgXgXgXgXgXgXgXgXgXgXgXgXl f 5 9 | -XaXsXaXaXdXdXdXdXdXdXdXdXdXdXdXdXdXdXtX}.} 4 6 f h gXgXgXgXgXgXgXgXgXgXgXgXgXgXgXgXgXgXgXgXgXgXgX",
"gXgXgXgXgXgXgXgXgXgXgXgXgXgXgXgXgXgXgXgXgXgXgXgXgX+ i f h 2 E F.qXdXaXaXdXdXdXdXdXdXdXdXdXdXdXdXdXdX;XS.Y 2 0 0 6 gXgXgXgXgXgXgXgXgXgXgXgXgXgXgXgXgXgXgXgXgXgXgX",
"gXgXgXgXgXgXgXgXgXgXgXgXgXgXgXgXgXgXgXgXgXgXgXgXgXO q f 8 6 N @.*XdXdXdXdXdXdXdXdXdXdXdXdXdXdXdXdXsX&X| v 4 6 6 e gXgXgXgXgXgXgXgXgXgXgXgXgXgXgXgXgXgXgXgXgXgXgX",
"gXgXgXgXgXgXgXgXgXgXgXgXgXgXgXgXgXgXgXgXgXgXgXgXgXO u f h 4 i { {.dXdXdXdXdXdXdXdXdXdXdXdXdXdXdXdXdX[.Q h 4 0 k w gXgXgXgXgXgXgXgXgXgXgXgXgXgXgXgXgXgXgXgXgXgXgX",
"gXgXgXgXgXgXgXgXgXgXgXgXgXgXgXgXgXgXgXgXgXgXgXgXgX@ u f 6 3 8 ^ U.dXdXdXdXdXdXdXdXdXdXdXdXdXdXdXdXdXU.( 6 6 j h q @ gXgXgXgXgXgXgXgXgXgXgXgXgXgXgXgXgXgXgXgXgXgX",
"gXgXgXgXgXgXgXgXgXgXgXgXgXgXgXgXgXgXgXgXgXgXgXgXgX+ u j h 8 i ^ [.dXdXdXdXdXdXdXdXdXdXdXdXdXdXdXdXdX[.! h d d h 7 @ gXgXgXgXgXgXgXgXgXgXgXgXgXgXgXgXgXgXgXgXgXgX",
"gXgXgXgXgXgXgXgXgXgXgXgXgXgXgXgXgXgXgXgXgXgXgXgXgX+ u d l 6 v +.&XdXaXdXsXdXdXdXdXdXdXdXdXdXdXdXdXsX&X} c 4 h l w + gXgXgXgXgXgXgXgXgXgXgXgXgXgXgXgXgXgXgXgXgXgX",
"gXgXgXgXgXgXgXgXgXgXgXgXgXgXgXgXgXgXgXgXgXgXgXgXgX* u 6 h 2 U A.2XdXfXaXdXdXdXdXdXdXdXdXdXdXdXdXdXsX-Xf.N 3 6 h 8 gXgXgXgXgXgXgXgXgXgXgXgXgXgXgXgXgXgXgXgXgXgXgX",
"gXgXgXgXgXgXgXgXgXgXgXgXgXgXgXgXgXgXgXgXgXgXgXgXgXP u 6 w g { }.tXdXdXaXdXdXdXdXdXdXdXdXdXdXdXdXdXdXwXI.{ 4 h d 8 gXgXgXgXgXgXgXgXgXgXgXgXgXgXgXgXgXgXgXgXgXgXgX",
"gXgXgXgXgXgXgXgXgXgXgXgXgXgXgXgXgXgXgXgXgXgXgXgXgX@ u 4 y B S.tXdXdXdXdXdXdXdXdXdXsXsXsXdXdXdXdXaXsXsXqXf.v 9 6 8 gXgXgXgXgXgXgXgXgXgXgXgXgXgXgXgXgXgXgXgXgXgXgX",
"gXgXgXgXgXgXgXgXgXgXgXgXgXgXgXgXgXgXgXgXgXgXgXgXgX@ q d x f.*XaXaXaXaXdXdXdXdXfXuXuXuXaXdXdXsXdXdXpXpXaX).o.y 6 w gXgXgXgXgXgXgXgXgXgXgXgXgXgXgXgXgXgXgXgXgXgXgX",
"gXgXgXgXgXgXgXgXgXgXgXgXgXgXgXgXgXgXgXgXgXgXgXgXgX* t v { ).uXpXaXdXuX7X:XOX XE.!.!.Q.E. XOX,X7XaXsXsXdXfXP./ g 9 gXgXgXgXgXgXgXgXgXgXgXgXgXgXgXgXgXgXgXgXgXgXgX",
"gXgXgXgXgXgXgXgXgXgXgXgXgXgXgXgXgXgXgXgXgXgXgXgXgX+ t { P.tXaXqX}.I.Q.m.n.b.v.x.x.x.x.v.v.b.n.m.E.[.&XtXdXwXD./ d gXgXgXgXgXgXgXgXgXgXgXgXgXgXgXgXgXgXgXgXgXgXgX",
"gXgXgXgXgXgXgXgXgXgXgXgXgXgXgXgXgXgXgXgXgXgXgXgXgX@ ..D.fX0XU.f.{ ) 2.z.k.k.x.x.v.c.c.x.l.z.z.k.2._ { S.U.4XtXG.} gXgXgXgXgXgXgXgXgXgXgXgXgXgXgXgXgXgXgXgXgXgXgX",
"gXgXgXgXgXgXgXgXgXgXgXgXgXgXgXgXgXgXgXgXgXgXgXgXgXX.).=XU.@.E d 4 H 2.x.c.z.x.v.x.x.x.x.x.c.c.x.2.F 1 h W f.I.&X*XgXgXgXgXgXgXgXgXgXgXgXgXgXgXgXgXgXgXgXgXgXgXgX",
"gXgXgXgXgXgXgXgXgXgXgXgXgXgXgXgXgXgXgXgXgXgXgXgXgX_.(.d.Y 9 3 6 h K 2.x.c.z.k.l.l.l.k.k.k.k.v.l.2.F 9 8 4 6 Y C.{.gXgXgXgXgXgXgXgXgXgXgXgXgXgXgXgXgXgXgXgXgXgXgX",
"gXgXgXgXgXgXgXgXgXgXgXgXgXgXgXgXgXgXgXgXgXgXgXgXgXZ.W d 4 6 6 0 0 K 3.z.z.z.l.l.k.z.x.k.k.z.x.k.1.D 3 0 0 6 3 g B gXgXgXgXgXgXgXgXgXgXgXgXgXgXgXgXgXgXgXgXgXgXgX",
"gXgXgXgXgXgXgXgXgXgXgXgXgXgXgXgXgXgXgXgXgXgXgXgXgXX r f h 6 6 6 0 H 3.y.z.y.y.y.y.y.p.k.k.p.z.k.1.F 6 6 f f h 6 r X gXgXgXgXgXgXgXgXgXgXgXgXgXgXgXgXgXgXgXgXgXgX",
"gXgXgXgXgXgXgXgXgXgXgXgXgXgXgXgXgXgXgXgXgXgXgXgXgX+ q 6 6 f f 6 6 G 4.i.i.i.y.y.y.y.i.y.y.p.u.r.>.F 3 0 f k f d u @ gXgXgXgXgXgXgXgXgXgXgXgXgXgXgXgXgXgXgXgXgXgX",
"gXgXgXgXgXgXgXgXgXgXgXgXgXgXgXgXgXgXgXgXgXgXgXgXgX+ q 6 6 f f 6 0 H 4.u.t.y.y.y.y.y.y.y.y.y.i.p.>.C 3 6 6 6 6 4 u O gXgXgXgXgXgXgXgXgXgXgXgXgXgXgXgXgXgXgXgXgXgX",
"gXgXgXgXgXgXgXgXgXgXgXgXgXgXgXgXgXgXgXgXgXgXgXgXgX+ q f f f 6 6 0 H 4.u.t.y.t.t.y.t.t.y.p.t.u.r.>.F 6 0 6 f 6 6 u + gXgXgXgXgXgXgXgXgXgXgXgXgXgXgXgXgXgXgXgXgXgX",
"gXgXgXgXgXgXgXgXgXgXgXgXgXgXgXgXgXgXgXgXgXgXgXgXgXo q f f 6 6 6 k H 4.t.t.t.t.t.r.t.t.t.t.t.u.r.>.C 3 6 f 4 6 f u O gXgXgXgXgXgXgXgXgXgXgXgXgXgXgXgXgXgXgXgXgXgX",
"gXgXgXgXgXgXgXgXgXgXgXgXgXgXgXgXgXgXgXgXgXgXgXgXgXo e f 6 f f f 6 S <.r.w.w.w.t.t.t.w.t.t.w.u.r.:.F 4 l f 6 6 6 q O gXgXgXgXgXgXgXgXgXgXgXgXgXgXgXgXgXgXgXgXgXgX",
"gXgXgXgXgXgXgXgXgXgXgXgXgXgXgXgXgXgXgXgXgXgXgXgXgXgXq 6 f f f 6 6 A *.q.t.w.w.w.w.w.w.w.w.w.t.r.:.A 4 6 6 f 6 6 u O gXgXgXgXgXgXgXgXgXgXgXgXgXgXgXgXgXgXgXgXgXgX",
"gXgXgXgXgXgXgXgXgXgXgXgXgXgXgXgXgXgXgXgXgXgXgXgXgXgXq 6 6 k 6 4 6 A *.q.w.w.w.w.w.q.w.w.q.w.u.q.:.C 4 4 6 h f 6 q O gXgXgXgXgXgXgXgXgXgXgXgXgXgXgXgXgXgXgXgXgXgX",
"gXgXgXgXgXgXgXgXgXgXgXgXgXgXgXgXgXgXgXgXgXgXgXgXgXgXe 6 6 6 6 4 6 A *.q.w.0.0.q.q.q.w.q.q.q.e.q.:.C 6 6 h d f 6 q * gXgXgXgXgXgXgXgXgXgXgXgXgXgXgXgXgXgXgXgXgXgX",
"gXgXgXgXgXgXgXgXgXgXgXgXgXgXgXgXgXgXgXgXgXgXgXgXgXgXw 6 6 6 4 6 f C *.q.w.q.q.0.9.9.0.0.0.0.w.q.*.C 4 6 6 h f f q & gXgXgXgXgXgXgXgXgXgXgXgXgXgXgXgXgXgXgXgXgXgX",
"gXgXgXgXgXgXgXgXgXgXgXgXgXgXgXgXgXgXgXgXgXgXgXgXgXgXi d f f f 6 6 S ;.q.0.w.9.0.9.9.0.7.9.0.w.9.&.C 3 6 6 h d f q & gXgXgXgXgXgXgXgXgXgXgXgXgXgXgXgXgXgXgXgXgXgX",
"gXgXgXgXgXgXgXgXgXgXgXgXgXgXgXgXgXgXgXgXgXgXgXgXgXgXw 6 6 f f h d C ;.q.7.9.6.9.q.q.0.6.9.9.e.<.$.C 4 6 h h f f q * gXgXgXgXgXgXgXgXgXgXgXgXgXgXgXgXgXgXgXgXgXgX",
"gXgXgXgXgXgXgXgXgXgXgXgXgXgXgXgXgXgXgXgXgXgXgXgXgXgXe 6 6 f f f 4 z $.=.e.6.6.5.9.9.7.8.6.9.e.-.] V 4 6 6 6 6 6 u ; gXgXgXgXgXgXgXgXgXgXgXgXgXgXgXgXgXgXgXgXgXgX",
"gXgXgXgXgXgXgXgXgXgXgXgXgXgXgXgXgXgXgXgXgXgXgXgXgXgXq e 6 6 6 f 4 k ' *.5.8.8.5.=.6.6.6.8.8.7.*.S k 4 6 6 6 f w s ; gXgXgXgXgXgXgXgXgXgXgXgXgXgXgXgXgXgXgXgXgXgX",
"gXgXgXgXgXgXgXgXgXgXgXgXgXgXgXgXgXgXgXgXgXgXgXgXgXgXgXu f 6 6 k h 6 z #.6.0.8.8.0.6.6.0.9.9.=.#.z d f 6 6 d f u L gXgXgXgXgXgXgXgXgXgXgXgXgXgXgXgXgXgXgXgXgXgXgX",
"gXgXgXgXgXgXgXgXgXgXgXgXgXgXgXgXgXgXgXgXgXgXgXgXgXgXgXi j f 6 6 f d d C ] =.5.8.5.5.5.5.9.-.' V 4 f d 6 9 6 d n @ gXgXgXgXgXgXgXgXgXgXgXgXgXgXgXgXgXgXgXgXgXgXgX",
"gXgXgXgXgXgXgXgXgXgXgXgXgXgXgXgXgXgXgXgXgXgXgXgXgXgXgXgX0 f 6 5 6 f f 6 k Z ' $.%.%.&.#.] Z k d f f h f 6 6 p o $ gXgXgXgXgXgXgXgXgXgXgXgXgXgXgXgXgXgXgXgXgXgXgX",
"gXgXgXgXgXgXgXgXgXgXgXgXgXgXgXgXgXgXgXgXgXgXgXgXgXgXgXgXa h 6 q h g 8 6 f 4 k l k k k h 6 0 6 6 g g j 6 6 q   O gXgXgXgXgXgXgXgXgXgXgXgXgXgXgXgXgXgXgXgXgXgXgXgX",
"gXgXgXgXgXgXgXgXgXgXgXgXgXgXgXgXgXgXgXgXgXgXgXgXgXgXgXgXgXM p 8 6 6 5 6 f 6 6 6 f f 6 6 6 6 6 f h 6 5 8 u L = gXgXgXgXgXgXgXgXgXgXgXgXgXgXgXgXgXgXgXgXgXgXgXgXgX",
"gXgXgXgXgXgXgXgXgXgXgXgXgXgXgXgXgXgXgXgXgXgXgXgXgXgXgXgXgXgXm p j f 5 6 f f f f 6 6 h j k h 6 6 6 d 6 n + = gXgXgXgXgXgXgXgXgXgXgXgXgXgXgXgXgXgXgXgXgXgXgXgXgXgX",
"gXgXgXgXgXgXgXgXgXgXgXgXgXgXgXgXgXgXgXgXgXgXgXgXgXgXgXgXgXgXgXm m a w f f f f h f f f f f f f f h a . # - gXgXgXgXgXgXgXgXgXgXgXgXgXgXgXgXgXgXgXgXgXgXgXgXgXgXgX",
"gXgXgXgXgXgXgXgXgXgXgXgXgXgXgXgXgXgXgXgXgXgXgXgXgXgXgXgXgXgXgXgXgX+ L n a q 7 6 f f h 6 8 y n m P O = gXgXgXgXgXgXgXgXgXgXgXgXgXgXgXgXgXgXgXgXgXgXgXgXgXgXgXgXgX",
"gXgXgXgXgXgXgXgXgXgXgXgXgXgXgXgXgXgXgXgXgXgXgXgXgXgXgXgXgXgXgXgXgXgXgXgX+ . o o       . + * & ; - gXgXgXgXgXgXgXgXgXgXgXgXgXgXgXgXgXgXgXgXgXgXgXgXgXgXgXgXgXgXgX",
"gXgXgXgXgXgXgXgXgXgXgXgXgXgXgXgXgXgXgXgXgXgXgXgXgXgXgXgXgXgXgXgXgXgXgXgXgXgXgX: % % - - : , gXgXgXgXgXgXgXgXgXgXgXgXgXgXgXgXgXgXgXgXgXgXgXgXgXgXgXgXgXgXgXgXgXgX",
"gXgXgXgXgXgXgXgXgXgXgXgXgXgXgXgXgXgXgXgXgXgXgXgXgXgXgXgXgXgXgXgXgXgXgXgXgXgXgXgXgXgXgXgXgXgXgXgXgXgXgXgXgXgXgXgXgXgXgXgXgXgXgXgXgXgXgXgXgXgXgXgXgXgXgXgXgXgXgXgX",
"gXgXgXgXgXgXgXgXgXgXgXgXgXgXgXgXgXgXgXgXgXgXgXgXgXgXgXgXgXgXgXgXgXgXgXgXgXgXgXgXgXgXgXgXgXgXgXgXgXgXgXgXgXgXgXgXgXgXgXgXgXgXgXgXgXgXgXgXgXgXgXgXgXgXgXgXgXgXgXgX",
"gXgXgXgXgXgXgXgXgXgXgXgXgXgXgXgXgXgXgXgXgXgXgXgXgXgXgXgXgXgXgXgXgXgXgXgXgXgXgXgXgXgXgXgXgXgXgXgXgXgXgXgXgXgXgXgXgXgXgXgXgXgXgXgXgXgXgXgXgXgXgXgXgXgXgXgXgXgXgXgX",
"gXgXgXgXgXgXgXgXgXgXgXgXgXgXgXgXgXgXgXgXgXgXgXgXgXgXgXgXgXgXgXgXgXgXgXgXgXgXgXgXgXgXgXgXgXgXgXgXgXgXgXgXgXgXgXgXgXgXgXgXgXgXgXgXgXgXgXgXgXgXgXgXgXgXgXgXgXgXgXgX",
"gXgXgXgXgXgXgXgXgXgXgXgXgXgXgXgXgXgXgXgXgXgXgXgXgXgXgXgXgXgXgXgXgXgXgXgXgXgXgXgXgXgXgXgXgXgXgXgXgXgXgXgXgXgXgXgXgXgXgXgXgXgXgXgXgXgXgXgXgXgXgXgXgXgXgXgXgXgXgXgX"
};
