/* XPM */
static char *result[] = {
/* columns rows colors chars-per-pixel */
"80 80 245 2 ",
"   c #7F3E21",
".  c #7C452A",
"X  c #774936",
"o  c #6C503E",
"O  c #5E5A5C",
"+  c #665548",
"@  c #635A58",
"#  c #754C45",
"$  c #5C5E64",
"%  c #566268",
"&  c #991D02",
"*  c #962303",
"=  c #9C2503",
"-  c #952B04",
";  c #9D2C03",
":  c #9B2508",
">  c #9D2C0A",
",  c #972A0B",
"<  c #9D3104",
"1  c #96320B",
"2  c #9D320B",
"3  c #963405",
"4  c #992E12",
"5  c #8B3A1C",
"6  c #8C3917",
"7  c #943413",
"8  c #9C3412",
"9  c #973816",
"0  c #A22604",
"q  c #A22B03",
"w  c #A22C0A",
"e  c #A62605",
"r  c #A43303",
"t  c #A93404",
"y  c #A33904",
"u  c #AC3B03",
"i  c #A3330C",
"p  c #AB350D",
"a  c #A43A0D",
"s  c #AA390D",
"d  c #B23F05",
"f  c #A22D12",
"g  c #A82F17",
"h  c #A33512",
"j  c #A93612",
"k  c #A43A12",
"l  c #A93C17",
"z  c #853D23",
"x  c #893B27",
"c  c #8D3E2C",
"v  c #AD4103",
"b  c #A9450B",
"n  c #B34302",
"m  c #B64B07",
"M  c #BB5203",
"N  c #B75907",
"B  c #AB4517",
"V  c #B14B18",
"C  c #B85918",
"Z  c #BE6311",
"A  c #81422C",
"S  c #834326",
"D  c #844032",
"F  c #AB4726",
"G  c #B45A26",
"H  c #AD4E32",
"J  c #B55838",
"K  c #AE5131",
"L  c #B76438",
"P  c #BF6E34",
"I  c #C55B03",
"U  c #C55608",
"Y  c #C4550C",
"T  c #CC6404",
"R  c #CA6A08",
"E  c #D36B02",
"W  c #D26806",
"Q  c #C47109",
"!  c #DB7503",
"~  c #DE7B04",
"^  c #D97507",
"/  c #C56B15",
"(  c #C97514",
")  c #D57D19",
"_  c #E47D03",
"`  c #E37D10",
"'  c #C26D26",
"]  c #C9762A",
"[  c #C47636",
"{  c #C46F37",
"}  c #B35A44",
"|  c #B86848",
" . c #BC7351",
".. c #BE7A62",
"X. c #C77B4A",
"o. c #C3735C",
"O. c #DA8716",
"+. c #DB9517",
"@. c #D48210",
"#. c #ED8C03",
"$. c #E88604",
"%. c #ED9205",
"&. c #F49404",
"*. c #FB9703",
"=. c #F69B03",
"-. c #FC9C03",
";. c #F59B0B",
":. c #FC9C0A",
">. c #F8950A",
",. c #FC9D12",
"<. c #FA9E1A",
"1. c #E79510",
"2. c #FDA103",
"3. c #FDA30B",
"4. c #FAAB0D",
"5. c #F8A707",
"6. c #FCB50E",
"7. c #FBA313",
"8. c #FCAA12",
"9. c #FCA41B",
"0. c #FAA617",
"q. c #FDB31A",
"w. c #F8BA19",
"e. c #EAAD17",
"r. c #DC952A",
"t. c #D28731",
"y. c #F19D28",
"u. c #DFA23F",
"i. c #E3A62D",
"p. c #FAA926",
"a. c #FBBA28",
"s. c #FAB837",
"d. c #EBAF35",
"f. c #FDC41C",
"g. c #FECB1D",
"h. c #FBC618",
"j. c #FCCA24",
"k. c #FDC52C",
"l. c #FCCB2C",
"z. c #F8C728",
"x. c #FBC332",
"c. c #FDCB33",
"v. c #FDC43D",
"b. c #FDCC3C",
"n. c #F4C737",
"m. c #FDD132",
"M. c #FCD43D",
"N. c #CF8E55",
"B. c #DEA15E",
"V. c #FABB48",
"C. c #EEB34F",
"Z. c #C68A69",
"A. c #C68A73",
"S. c #D1936A",
"D. c #D6A77B",
"F. c #DDAA69",
"G. c #E8B874",
"H. c #E3AB77",
"J. c #FDCD43",
"K. c #FDC64B",
"L. c #F7C746",
"P. c #FDD244",
"I. c #FDD34C",
"U. c #FAD749",
"Y. c #FBC658",
"T. c #FCD453",
"R. c #FDD45A",
"E. c #FBD85D",
"W. c #FEDB55",
"Q. c #FDE15B",
"!. c #FBC968",
"~. c #FBD763",
"^. c #FDDA63",
"/. c #FDDA6C",
"(. c #FBD66A",
"). c #F7CC74",
"_. c #FCDB72",
"`. c #FDDC7C",
"'. c #FAD278",
"]. c #EDCC70",
"[. c #FDE17A",
"{. c #CE978D",
"}. c #D7A799",
"|. c #D9AF92",
" X c #E2BC87",
".X c #E4AF93",
"XX c #DCB8A8",
"oX c #DBBFBC",
"OX c #E4B6A1",
"+X c #F8CC84",
"@X c #FCDE83",
"#X c #F8D88A",
"$X c #FBDC97",
"%X c #EDCF8E",
"&X c #FCE284",
"*X c #FCE38C",
"=X c #FBE88F",
"-X c #FDE394",
";X c #FCE49C",
":X c #FCE99A",
">X c #FAE89A",
",X c #E9D5AB",
"<X c #F8DEA8",
"1X c #E5C9B8",
"2X c #EFD7AE",
"3X c #FCE4A4",
"4X c #FCEAA5",
"5X c #F4E5AB",
"6X c #FAE5AC",
"7X c #F9ECAC",
"8X c #F7E5A7",
"9X c #FCF1AF",
"0X c #FBE5B3",
"qX c #FBEBB4",
"wX c #FBECBC",
"eX c #F7E8B6",
"rX c #FBF1BD",
"tX c #F9F2B9",
"yX c #E8D8CA",
"uX c #EBD5CD",
"iX c #FBEDC4",
"pX c #F7EAC9",
"aX c #FAF2C4",
"sX c #FBF3CB",
"dX c #F9F5CC",
"fX c #EEE4DF",
"gX c #FBEDD9",
"hX c #FCF4D4",
"jX c #FCF4DC",
"kX c #FCFADC",
"lX c #F5F3D9",
"zX c #EBEFD1",
"xX c #F4EDE6",
"cX c #F4F5E3",
"vX c #F5F4EB",
"bX c #FAF3ED",
"nX c #FCFBEC",
"mX c #FBF7E4",
"MX c #F6FDF4",
"NX c #FCFCF5",
"BX c #F6FCFB",
"VX c #FCFCFC",
"CX c #F9F5F3",
"ZX c #F6EFF2",
"AX c None",
/* pixels */
"AXAXAXAXAXAXAXAXAXAXAXAXAXAXAXAXAXAXAXAXAXAXAXAXAXAXAXAXAXAXAXAXAXAXAXAXAXAXAXAXAXAXAXAXAXAXAXAXAXAXAXAXAXAXAXAXAXAXAXAXAXAXAXAXAXAXAXAXAXAXAXAXAXAXAXAXAXAXAXAX",
"AXAXAXAXAXAXAXAXAXAXAXAXAXAXAXAXAXAXAXAXAXAXAXAXAXAXAXAXAXAXAXAXAXAXAXAXAXAXAXAXAXAXAXAXAXAXAXAXAXAXAXAXAXAXAXAXAXAXAXAXAXAXAXAXAXAXAXAXAXAXAXAXAXAXAXAXAXAXAXAX",
"AXAXAXAXAXAXAXAXAXAXAXAXAXAXAXAXAXAXAXAXAXAXAXAXAXAXAXAXAXAXAXAXAXAXAXAXAXAXAXAXAXAXAXAXAXAXAXAXAXAXAXAXAXAXAXAXAXAXAXAXAXAXAXAXAXAXAXAXAXAXAXAXAXAXAXAXAXAXAXAX",
"AXAXAXAXAXAXAXAXAXAXAXAXAXAXAXAXAXAXAXAXAXAXAXAXAXAXAXAXAXAXAXAXAXAXAXAXAXAXi > 2 i AXAXAXAXAXAXAXAXAXAXAXAXAXAXAXAXAXAXAXAXAXAXAXAXAXAXAXAXAXAXAXAXAXAXAXAXAXAX",
"AXAXAXAXAXAXAXAXAXAXAXAXAXAXAXAXAXAXAXAXAXAXAXAXAXAXAXAXAXAXAXAXAXAXj k k a i w ; ; 2 a j s AXAXAXAXAXAXAXAXAXAXAXAXAXAXAXAXAXAXAXAXAXAXAXAXAXAXAXAXAXAXAXAXAXAX",
"AXAXAXAXAXAXAXAXAXAXAXAXAXAXAXAXAXAXAXAXAXAXAXAXAXAXAXAXAXAXAXk i i k j a s a a 1 - 1 8 i r p a k AXAXAXAXAXAXAXAXAXAXAXAXAXAXAXAXAXAXAXAXAXAXAXAXAXAXAXAXAXAXAX",
"AXAXAXAXAXAXAXAXAXAXAXAXAXAXAXAXAXAXAXAXAXAXAXAXAXAXAXAXAXk a 2 1 h k h h a a b j > - ; < < 2 h i w 2 AXAXAXAXAXAXAXAXAXAXAXAXAXAXAXAXAXAXAXAXAXAXAXAXAXAXAXAXAX",
"AXAXAXAXAXAXAXAXAXAXAXAXAXAXAXAXAXAXAXAXAXAXAXAXAXAXAXAXj j 2 1 - < 2 k k h f g g w 0 > : > w q ; < ; ; AXAXAXAXAXAXAXAXAXAXAXAXAXAXAXAXAXAXAXAXAXAXAXAXAXAXAXAX",
"AXAXAXAXAXAXAXAXAXAXAXAXAXAXAXAXAXAXAXAXAXAXAXAXAXAXs p a 2 < ; - = = > h H }  .| | K 1 & : 4 > ; ; ; ; q > AXAXAXAXAXAXAXAXAXAXAXAXAXAXAXAXAXAXAXAXAXAXAXAXAXAX",
"AXAXAXAXAXAXAXAXAXAXAXAXAXAXAXAXAXAXAXAXAXAXAXAXAXa s l k 3 ; ; * : H Z.}.yXuXuXyXyX1XXXZ.H 0 & 3 3 > > ; ; > AXAXAXAXAXAXAXAXAXAXAXAXAXAXAXAXAXAXAXAXAXAXAXAXAX",
"AXAXAXAXAXAXAXAXAXAXAXAXAXAXAXAXAXAXAXAXAXAXAXAX8 l a 8 k j > - F A.XXyXbXMXMXVXVXVXVXnXfXoX{.H - = e q - < ; > AXAXAXAXAXAXAXAXAXAXAXAXAXAXAXAXAXAXAXAXAXAXAXAX",
"AXAXAXAXAXAXAXAXAXAXAXAXAXAXAXAXAXAXAXAXAXAXAX1 i s i a s i h } {.fXvXxXbXvXMXCXxXwX0X-X$X2X,XD.} w 0 q ; < q q AXAXAXAXAXAXAXAXAXAXAXAXAXAXAXAXAXAXAXAXAXAXAXAX",
"AXAXAXAXAXAXAXAXAXAXAXAXAXAXAXAXAXAXAXAXAXAXAXq w h p s i h | XXZXZXcXxXxXZXbX0X).V.p.9.7.7.s.).H.J k w q ; ; q q AXAXAXAXAXAXAXAXAXAXAXAXAXAXAXAXAXAXAXAXAXAXAX",
"AXAXAXAXAXAXAXAXAXAXAXAXAXAXAXAXAXAXAXAXAXAX2 q w 8 a s h  .1XMXzXcXcXvXcXlX#Xp.2.:.:.7.;.&.>.>.p.B.L > ; ; q ; ; q AXAXAXAXAXAXAXAXAXAXAXAXAXAXAXAXAXAXAXAXAXAX",
"AXAXAXAXAXAXAXAXAXAXAXAXAXAXAXAXAXAXAXAXAX8 - = - > 8 h  .1XnXcXvXlXlXvXpX!.p.<.7.,.9.;.;.*.:.:.=.7.r.G = ; - < e e AXAXAXAXAXAXAXAXAXAXAXAXAXAXAXAXAXAXAXAXAXAX",
"AXAXAXAXAXAXAXAXAXAXAXAXAXAXAXAXAXAXAXAXAX0 - > q ; w H OXjXmXjXMXkXmXiX).p.<.<.7.3.3.7.:.-.=.*.:.:.:.@.B , < ; q q e AXAXAXAXAXAXAXAXAXAXAXAXAXAXAXAXAXAXAXAXAX",
"AXAXAXAXAXAXAXAXAXAXAXAXAXAXAXAXAXAXAXAXAXf - q ; - 4 D.uXnXjXmXjXjXhX+Xp.3.0.9.,.$.^ ^ #.-.-.=.=.3.3.>.W r ; q w ; - AXAXAXAXAXAXAXAXAXAXAXAXAXAXAXAXAXAXAXAXAX",
"AXAXAXAXAXAXAXAXAXAXAXAXAXAXAXAXAXAXAXAXk i ; i : , J ,XlXhXhXhXhXmX$XV.:.4.7.1.U v B N.G.C.7.=.-.=.:.:.#.M q 0 w - < ; AXAXAXAXAXAXAXAXAXAXAXAXAXAXAXAXAXAXAXAX",
"AXAXAXAXAXAXAXAXAXAXAXAXAXAXAXAXAXAXAXAXi j a k , F D.pXpXpXdXsXkXwXG.7.,.,.^ m < F A.,XgX0X!.9.-.-.*.-.2.~ p : q ; < q AXAXAXAXAXAXAXAXAXAXAXAXAXAXAXAXAXAXAXAX",
"AXAXAXAXAXAXAXAXAXAXAXAXAXAXAXAXAXAXAXk a j k i 9  .eXpXaXiXpXpXdX'.p.>.:.` n * h Z.pXhXhXhXwXC.7.-.:.-.2.-.Y q q e < q > AXAXAXAXAXAXAXAXAXAXAXAXAXAXAXAXAXAXAX",
"AXAXAXAXAXAXAXAXAXAXAXAXAXAXAXAXAXAXAXk s s k > F D.sXsXaXiXpXpX0Xd.;.*.$.b < & H .XsXwXiXpXtX8Xp.:.*.-.2.2._ d 0 q ; ; ; AXAXAXAXAXAXAXAXAXAXAXAXAXAXAXAXAXAXAX",
"AXAXAXAXAXAXAXAXAXAXAXAXAXAXAXAXAXAXAXi 8 s h 8  .2XaXaXaXwXiXiX+X<.-.%.T 3 < q w | ,XtXiXiXrXiX'.p.-.-.:.-.=.I 0 = < q w AXAXAXAXAXAXAXAXAXAXAXAXAXAXAXAXAXAXAX",
"AXAXAXAXAXAXAXAXAXAXAXAXAXAXAXAXAXAXAXh a a h F S.aXtXwXiXwXaXqXV.,.-.~ v - > w : 9 N.5XrXeXaXrX<Xs.3.*.*.:.2.! u * < < w > AXAXAXAXAXAXAXAXAXAXAXAXAXAXAXAXAXAX",
"AXAXAXAXAXAXAXAXAXAXAXAXAXAXAXAXAXAX8 8 k p w J  XdXtXwXwXaXaX$Xp.3.#.R - q ; q = 1 B .XwXtXeXqXiX!.9.:.-.*.2.#.U * q r w q AXAXAXAXAXAXAXAXAXAXAXAXAXAXAXAXAXAX",
"AXAXAXAXAXAXAXAXAXAXAXAXAXAXAXAXAXAXa k k j i X.%XaXeXtXqXiXqX).<.-.$.V * 0 ; q > , w X.<XrX8X7XrX$Xs.*.2.-.-.*.T = q ; q q AXAXAXAXAXAXAXAXAXAXAXAXAXAXAXAXAXAX",
"AXAXAXAXAXAXAXAXAXAXAXAXAXAXAXAXAXAXa a k s j S.2XtX7X7XqXwX3XV.,.=.W i = > q ; r ; = K  XtX7X7XqX6XY.3.2.-.*.2.! r = q r q ; AXAXAXAXAXAXAXAXAXAXAXAXAXAXAXAXAX",
"AXAXAXAXAXAXAXAXAXAXAXAXAXAXAXAXAXAXa a k i B D.7X5X5X5X5XeX#Xp.=.%.U ; > ; ; < < q 0 2 S.8X7X4X0XqX'.9.*.-.*.2.$.n = q q q < AXAXAXAXAXAXAXAXAXAXAXAXAXAXAXAXAX",
"AXAXAXAXAXAXAXAXAXAXAXAXAXAXAXAXAXa k k 8 3 G G.qX5XeX8X8X5X'.,.-.~ n = < ; ; q ; ; ; = [ %X9X3X3X7X@Xs.-.-.:.2.#.I 0 ; ; ; < AXAXAXAXAXAXAXAXAXAXAXAXAXAXAXAXAX",
"AXAXAXAXAXAXAXAXAXAXAXAXAXAXAXAXAXk 8 i i *  .%X4X5XeX>X8X$XY.:.2.E r = i ; q ; ; q ; = C G.9X3X;X4X-XY.*.-.-.2.&.E q ; ; ; ; ; AXAXAXAXAXAXAXAXAXAXAXAXAXAXAXAX",
"AXAXAXAXAXAXAXAXAXAXAXAXAXAXAXAXAXa 2 i ; = N.#X8XeXwX-X8X#XV.=.-.I r ; ; ; q ; q = ; 0 a N.4X;X-X4X-XY.:.:.-.2.*.! r q ; q ; ; AXAXAXAXAXAXAXAXAXAXAXAXAXAXAXAX",
"AXAXAXAXAXAXAXAXAXAXAXAXAXAXAXAXAXa i i q < F.#X;XeXaX-X;X`.s.=.&.n ; q ; ; ; ; q w ; ; ; X.$X;X=X;X4X!.7.:.*.2.2.$.u q ; ; q ; AXAXAXAXAXAXAXAXAXAXAXAXAXAXAXAX",
"AXAXAXAXAXAXAXAXAXAXAXAXAXAXAXAXAXa k h ; a G.#X3XpXhX;X>X].q.=.$.n = q ; ; ; q ; q ; q * L +X:X=X-X;X_.q.-.-.-.-.#.n ; ; q q r AXAXAXAXAXAXAXAXAXAXAXAXAXAXAXAX",
"AXAXAXAXAXAXAXAXAXAXAXAXAXAXAXAXAXa k j 1 V G.*X8XlXlX;X>XY.8.3._ d = ; q ; q ; ; q ; ; = G G.=X*X*X:X`.s.-.:.*.2.&.M > ; q q q z AXAXAXAXAXAXAXAXAXAXAXAXAXAXAX",
"AXAXAXAXAXAXAXAXAXAXAXAXAXAXAXAXAXj k h 8 G ].*X0XnXmX4X*XY.3.:.! u ; ; ; ; q ; < q ; < = V B.:X*X&X-X`.s.-.:.*.-.&.I ; ; q q ; x AXAXAXAXAXAXAXAXAXAXAXAXAXAXAX",
"AXAXAXAXAXAXAXAXAXAXAXAXAXAXAXAXAXk l i a P ).=XwXVXnXwX-XV.3.=.E r ; q q q ; ; < q ; q & B N.=X*X&X*X`.K.:.-.-.2.&.T q ; q ; ; 6 AXAXAXAXAXAXAXAXAXAXAXAXAXAXAX",
"AXAXAXAXAXAXAXAXAXAXAXAXAXAXAXAXAXk k i f { ].4XjXVXVXcX;XK.=.=.I r ; ; q ; q ; q q q q = s t.*X@X`.&X@XK.-.*.-.-.=.E w ; q q ; 6 AXAXAXAXAXAXAXAXAXAXAXAXAXAXAX",
"AXAXAXAXAXAXAXAXAXAXAXAXAXAXAXAXAXh k w w X.+XhXCXMXBXBXpXV.3.;.U i : q q ; w q ; = e q = a [ [.@X`.&X@XY.2.-.-.-.-.! q = q ; ; 9 AXAXAXAXAXAXAXAXAXAXAXAXAXAXAX",
"AXAXAXAXAXAXAXAXAXAXAXAXAXAXAXAXAX; w = 4 S.uXBXNXnXVXBXCX0XV.:.U 0 = w w ; < ; > ; < ; ; 2 [ `.`.`.&X[.K.-.-.-.-.&.! t ; ; ; q 7 AXAXAXAXAXAXAXAXAXAXAXAXAXAXAX",
"AXAXAXAXAXAXAXAXAXAXAXAXAXAXAXAXAX: B } {.uXZXBXVXBXBXVXVXbXpX#XX.l = = = = ; = 0 ; q q = w [ /.`._.@X`.K.2.-.-.2.-.! r ; ; ; q 7 AXAXAXAXAXAXAXAXAXAXAXAXAXAXAX",
"AXAXAXAXAXAXAXAXAXAXAXAXAXAXAXAX}.}.XXyXxXBXBXNXVXBXBXBXMXCXVXCX1XXX}.A.o.| K F l B i r ; q ' (._._.`._.K.3.-.-.2.=.! r ; ; ; q 7 AXAXAXAXAXAXAXAXAXAXAXAXAXAXAX",
"AXAXAXAXAXAXAXAXAXAXAXAXAXAXAXAXOXoXfXbXVXVXNXVXVXVXVXBXMXMXVXVXNXfX1X}.A.o.} H F B b 8 - ; ' (././._._.K.:.-.2.2.-._ r ; ; q q 7 AXAXAXAXAXAXAXAXAXAXAXAXAXAXAX",
"AXAXAXAXAXAXAXAXAXAXAXAXAXAXAXAXV } ..{.oXcXCXVXVXNXVXNXVXVXbX0X.Xo.J K B s i 2 1 < < r ; r ' (./.(././.K.3.*.-.2.=.! y ; ; q q 8 AXAXAXAXAXAXAXAXAXAXAXAXAXAXAX",
"AXAXAXAXAXAXAXAXAXAXAXAXAXAXAXAX0 & 0 w K |.xXVXVXVXMXMXNXgX+Xp.Y : & & 0 ; = q q q ; q = ; P ~.~.~./.^.L.-.*.-.2.=.! r = q q q 7 AXAXAXAXAXAXAXAXAXAXAXAXAXAXAX",
"AXAXAXAXAXAXAXAXAXAXAXAXAXAXAXAXe r w = , P #XkXVXNXNXVXgX!.3.>.I i ; t q q - ; ; ; ; ; = r ] /.~.~.^.~.v.:.*.-.2.2.E r = q q q 7 AXAXAXAXAXAXAXAXAXAXAXAXAXAXAX",
"AXAXAXAXAXAXAXAXAXAXAXAXAXAXAXAXq ; ; - h ' ].7XmXMXVXbX>Xv.=.;.I > - q w > q q q q ; q = i ] ^.E.R.^.R.s.-.-.-.2.=.E r ; q q q 7 AXAXAXAXAXAXAXAXAXAXAXAXAXAXAX",
"AXAXAXAXAXAXAXAXAXAXAXAXAXAXAXAXAXe q ; > Z L.[.wXVXNXwX/.a.3.-.W r - r ; 0 r q q ; ; q ; s t.Q.E.R.^.T.s.:.:.-.2.&.E r ; ; q q 6 AXAXAXAXAXAXAXAXAXAXAXAXAXAXAX",
"AXAXAXAXAXAXAXAXAXAXAXAXAXAXAXAXAXe q ; 1 C L.T.-XNXnX&X~.s.3.-.! t ; 2 w 0 ; ; ; q q r = b t.E.R.R.E.T.a.-.-.=.2.&.I q = ; q q 5 AXAXAXAXAXAXAXAXAXAXAXAXAXAXAX",
"AXAXAXAXAXAXAXAXAXAXAXAXAXAXAXAXAXq q ; - V C.U.`.jXkX/.E.n.3.-.! u = q = ; q q ; ; q ; * V C.W.I.R.E.K.p.-.-.-.2.%.M ; q q q q S AXAXAXAXAXAXAXAXAXAXAXAXAXAXAX",
"AXAXAXAXAXAXAXAXAXAXAXAXAXAXAXAXAXq ; ; ; b C.P.(.0XaX^.T.v.8.*.$.u ; q q ; ; q ; ; ; q * C C.W.I.T.R.L.q.*.:.-.2.#.m ; ; q q q . AXAXAXAXAXAXAXAXAXAXAXAXAXAXAX",
"AXAXAXAXAXAXAXAXAXAXAXAXAXAXAXAXAX; < ; ; r i.P.~.<XqXT.I.v.q.*.#.M ; ; ; q q q ; q ; ; = P n.T.T.I.T.x.3.2.*.-.2.#.d > ; q 0 q . AXAXAXAXAXAXAXAXAXAXAXAXAXAXAX",
"AXAXAXAXAXAXAXAXAXAXAXAXAXAXAXAXAXr < q - ; r.n.W.@X$XU.J.L.q.*.-.M r ; ; r ; > q r q = i ] P.I.I.I.I.s.2.-.*.-.-.~ r ; ; ; ; q AXAXAXAXAXAXAXAXAXAXAXAXAXAXAXAX",
"AXAXAXAXAXAXAXAXAXAXAXAXAXAXAXAXAXq q q q ; ] n.W._.`.U.I.J.a.*.2.R r = q ; ; ; ; ; r 0 B r.U.I.I.P.P.a.-.-.-.2.-.! q w ; ; q > AXAXAXAXAXAXAXAXAXAXAXAXAXAXAXAX",
"AXAXAXAXAXAXAXAXAXAXAXAXAXAXAXAXAXq q q w - Z d.W.!._.U.P.J.k.:.3.! n : q = ; q ; ; r * C i.W.P.J.I.J.p.-.-.*.2.&.T = w ; ; ; 7 AXAXAXAXAXAXAXAXAXAXAXAXAXAXAXAX",
"AXAXAXAXAXAXAXAXAXAXAXAXAXAXAXAXAXq q q > , V i.P.R.^.M.b.P.x.3.:.#.M : 0 0 q < ; - q 0 ( n.U.M.J.J.x.8.*.-.:.3.$.M : q ; q ; x AXAXAXAXAXAXAXAXAXAXAXAXAXAXAXAX",
"AXAXAXAXAXAXAXAXAXAXAXAXAXAXAXAXAXAX; ; = : t +.J.R.T.b.b.P.x.8.:.-.T > q q q < < ; ; u i.M.J.b.b.J.a.=.-.-.-.3.~ n - ; ; q > x AXAXAXAXAXAXAXAXAXAXAXAXAXAXAXAX",
"AXAXAXAXAXAXAXAXAXAXAXAXAXAXAXAXAXAX; q q > = ( n.I.P.m.b.J.b.q.-.2.^ u q q ; ; q q > Y d.P.b.J.c.c.q.-.-.-.:.-.E q ; ; ; q i X AXAXAXAXAXAXAXAXAXAXAXAXAXAXAXAX",
"AXAXAXAXAXAXAXAXAXAXAXAXAXAXAXAXAXAXq q q q * C i.M.b.c.b.J.b.z.2.2.#.Y - w ; ; q q 2 +.n.M.J.b.m.a.4.-.-.-.2.&.I ; r ; q q 2 AXAXAXAXAXAXAXAXAXAXAXAXAXAXAXAXAX",
"AXAXAXAXAXAXAXAXAXAXAXAXAXAXAXAXAXAX; q q ; ; s r.m.c.c.c.c.b.c.3.2.*.^ t ; ; r < 1 C n.c.c.b.c.l.q.:.*.-.-.2.~ n : q e ; 1 6 AXAXAXAXAXAXAXAXAXAXAXAXAXAXAXAXAX",
"AXAXAXAXAXAXAXAXAXAXAXAXAXAXAXAXAXAXq q < = ; > / a.n.l.m.c.c.b.q.-.-.#.U * > q * y i.n.c.c.c.c.k.4.:.*.-.-.-.T r ; ; q 0 9 c AXAXAXAXAXAXAXAXAXAXAXAXAXAXAXAXAX",
"AXAXAXAXAXAXAXAXAXAXAXAXAXAXAXAXAXAXAXq r ; q * b i.m.m.l.l.c.c.k.3.:.;._ u > : b t.z.l.x.c.l.k.q.2.-.-.*.2.$.M ; ; ; q ; 5 # AXAXAXAXAXAXAXAXAXAXAXAXAXAXAXAXAX",
"AXAXAXAXAXAXAXAXAXAXAXAXAXAXAXAXAXAXAX> q ; q = i ( z.n.l.l.c.k.c.q.3.-.-.E r * p ) c.n.c.c.l.f.3.-.2.*.*.-.E r - q ; ; < 5 AXAXAXAXAXAXAXAXAXAXAXAXAXAXAXAXAXAX",
"AXAXAXAXAXAXAXAXAXAXAXAXAXAXAXAXAXAXAX, e ; q ; ; B e.m.l.k.l.l.l.w.5.-.*.%.I r = m O.n.c.k.w.5.*.*.-.2.:.#.n - : q q ; 6 S AXAXAXAXAXAXAXAXAXAXAXAXAXAXAXAXAXAX",
"AXAXAXAXAXAXAXAXAXAXAXAXAXAXAXAXAXAXAXAXq ; ; ; ; r Z n.c.z.l.j.j.l.q.=.=.2.%.E v q b +.w.q.4.-.-.-.-.2.=.T r ; w ; ; ; z AXAXAXAXAXAXAXAXAXAXAXAXAXAXAXAXAXAXAX",
"AXAXAXAXAXAXAXAXAXAXAXAXAXAXAXAXAXAXAXAX8 = ; ; ; ; u +.z.l.j.j.j.l.z.4.=.-.2.=.$.W M T %.3.2.-.-.*.-.=.~ t ; q q ; q 1 A AXAXAXAXAXAXAXAXAXAXAXAXAXAXAXAXAXAXAX",
"AXAXAXAXAXAXAXAXAXAXAXAXAXAXAXAXAXAXAXAX9 q ; q q q q N e.c.x.k.j.z.z.f.8.-.*.-.2.2.3.*.*.-.2.:.-.-.-.$.N : ; q ; ; q 6 AXAXAXAXAXAXAXAXAXAXAXAXAXAXAXAXAXAXAXAX",
"AXAXAXAXAXAXAXAXAXAXAXAXAXAXAXAXAXAXAXAXAX2 ; ; q q ; < ( w.j.k.z.h.l.l.6.2.-.*.-.-.-.-.-.=.:.:.-.2.>.R ; w ; ; > q w AXAXAXAXAXAXAXAXAXAXAXAXAXAXAXAXAXAXAXAXAX",
"AXAXAXAXAXAXAXAXAXAXAXAXAXAXAXAXAXAXAXAXAXAXq e q q 1 ; y ( f.g.j.f.h.z.l.w.4.2.*.*.:.:.-.-.-.-.-.5.( j = r ; ; q f x AXAXAXAXAXAXAXAXAXAXAXAXAXAXAXAXAXAXAXAXAX",
"AXAXAXAXAXAXAXAXAXAXAXAXAXAXAXAXAXAXAXAXAXAXh w e ; ; ; - a ( w.g.h.h.j.j.j.w.6.5.-.*.:.-.=.=.5.8.R u ; ; ; ; q q 8 AXAXAXAXAXAXAXAXAXAXAXAXAXAXAXAXAXAXAXAXAXAX",
"AXAXAXAXAXAXAXAXAXAXAXAXAXAXAXAXAXAXAXAXAXAXAXw q 1 w q ; q t Q e.g.g.h.f.f.h.h.6.6.4.4.6.6.6.e.Q y ; ; ; - q e 4   AXAXAXAXAXAXAXAXAXAXAXAXAXAXAXAXAXAXAXAXAXAX",
"AXAXAXAXAXAXAXAXAXAXAXAXAXAXAXAXAXAXAXAXAXAXAX6 1 q e q ; q 0 r Z +.w.h.h.f.j.g.g.g.h.h.w.w.1.N > ; w q ; < e 8 x AXAXAXAXAXAXAXAXAXAXAXAXAXAXAXAXAXAXAXAXAXAXAX",
"AXAXAXAXAXAXAXAXAXAXAXAXAXAXAXAXAXAXAXAXAXAXAXAX5 > q > ; q > : = v Q 1.e.w.w.z.h.w.h.e.+.( b ; ; q ; ; q ; w x AXAXAXAXAXAXAXAXAXAXAXAXAXAXAXAXAXAXAXAXAXAXAXAX",
"AXAXAXAXAXAXAXAXAXAXAXAXAXAXAXAXAXAXAXAXAXAXAXAXAX5 > q q > > q q ; - < N Q @.@.O.@./ N y ; * ; q ; ; ; q 2 x AXAXAXAXAXAXAXAXAXAXAXAXAXAXAXAXAXAXAXAXAXAXAXAXAX",
"AXAXAXAXAXAXAXAXAXAXAXAXAXAXAXAXAXAXAXAXAXAXAXAXAXAXS w q q q ; ; q q = = ; ; = q ; * = q ; - ; q ; > < f c AXAXAXAXAXAXAXAXAXAXAXAXAXAXAXAXAXAXAXAXAXAXAXAXAXAX",
"AXAXAXAXAXAXAXAXAXAXAXAXAXAXAXAXAXAXAXAXAXAXAXAXAXAXAXS 2 q ; ; q w ; ; q q q q r q = ; ; ; ; w ; q q 7 c AXAXAXAXAXAXAXAXAXAXAXAXAXAXAXAXAXAXAXAXAXAXAXAXAXAXAX",
"AXAXAXAXAXAXAXAXAXAXAXAXAXAXAXAXAXAXAXAXAXAXAXAXAXAXAXAXAX5 > q e q < < ; q ; < ; ; ; ; q q q q q w 5 X + AXAXAXAXAXAXAXAXAXAXAXAXAXAXAXAXAXAXAXAXAXAXAXAXAXAXAX",
"AXAXAXAXAXAXAXAXAXAXAXAXAXAXAXAXAXAXAXAXAXAXAXAXAXAXAXAXAXAXx x > q ; < q q q ; > ; q q e e ; 4 5 X + AXAXAXAXAXAXAXAXAXAXAXAXAXAXAXAXAXAXAXAXAXAXAXAXAXAXAXAXAX",
"AXAXAXAXAXAXAXAXAXAXAXAXAXAXAXAXAXAXAXAXAXAXAXAXAXAXAXAXAXAXAX# . S 6 7 w q q e q ; ; q 2 6 x X # AXAXAXAXAXAXAXAXAXAXAXAXAXAXAXAXAXAXAXAXAXAXAXAXAXAXAXAXAXAXAX",
"AXAXAXAXAXAXAXAXAXAXAXAXAXAXAXAXAXAXAXAXAXAXAXAXAXAXAXAXAXAXAXAX+ + o X A z z S 5 z S . X o @ O AXAXAXAXAXAXAXAXAXAXAXAXAXAXAXAXAXAXAXAXAXAXAXAXAXAXAXAXAXAXAXAX",
"AXAXAXAXAXAXAXAXAXAXAXAXAXAXAXAXAXAXAXAXAXAXAXAXAXAXAXAXAXAXAXAXAXAXAX$ $ @ @ @ @ @ @ $ % AXAXAXAXAXAXAXAXAXAXAXAXAXAXAXAXAXAXAXAXAXAXAXAXAXAXAXAXAXAXAXAXAXAXAX",
"AXAXAXAXAXAXAXAXAXAXAXAXAXAXAXAXAXAXAXAXAXAXAXAXAXAXAXAXAXAXAXAXAXAXAXAXAXAXAXAXAXAXAXAXAXAXAXAXAXAXAXAXAXAXAXAXAXAXAXAXAXAXAXAXAXAXAXAXAXAXAXAXAXAXAXAXAXAXAXAX"
};
