/* XPM */
static char *result[] = {
/* columns rows colors chars-per-pixel */
"80 80 243 2 ",
"   c #7A472C",
".  c #7C4632",
"X  c #774937",
"o  c #6F4F3B",
"O  c #5F5A54",
"+  c #6E5247",
"@  c #971F00",
"#  c #952402",
"$  c #9C2602",
"%  c #962B02",
"&  c #9D2C03",
"*  c #9D2608",
"=  c #9D2D0A",
"-  c #952D0C",
";  c #9B3003",
":  c #95330D",
">  c #9B310C",
",  c #943609",
"<  c #9B2D13",
"1  c #8B3A1B",
"2  c #8E3715",
"3  c #943413",
"4  c #993211",
"5  c #933419",
"6  c #963817",
"7  c #A22603",
"8  c #A22B03",
"9  c #A92A03",
"0  c #A2260B",
"q  c #A22B0A",
"w  c #A92701",
"e  c #A33204",
"r  c #A93503",
"t  c #AB3B04",
"y  c #A2330A",
"u  c #A83909",
"i  c #B23C01",
"p  c #A32B13",
"a  c #A13413",
"s  c #A83B18",
"d  c #893B22",
"f  c #903A26",
"g  c #A63C27",
"h  c #AD4204",
"j  c #AA4307",
"k  c #B54502",
"l  c #B54B03",
"z  c #BC4D03",
"x  c #B74A09",
"c  c #BB5607",
"v  c #AB4318",
"b  c #B34C18",
"n  c #BA5917",
"m  c #BD6412",
"M  c #82412B",
"N  c #824327",
"B  c #844030",
"V  c #AA4625",
"C  c #B14927",
"Z  c #B65824",
"A  c #B25638",
"S  c #AE5535",
"D  c #BB6626",
"F  c #C35501",
"G  c #C95D03",
"H  c #C04D03",
"J  c #CD6303",
"K  c #C4650A",
"L  c #D26A04",
"P  c #D56B06",
"I  c #CD7B0F",
"U  c #DC7303",
"Y  c #DC7B03",
"T  c #D47309",
"R  c #C06515",
"E  c #D67C14",
"W  c #C87213",
"Q  c #E27C02",
"!  c #C16B2A",
"~  c #C97727",
"^  c #C16E39",
"/  c #C87A39",
"(  c #BD5D55",
")  c #BB6444",
"_  c #BB7756",
"`  c #BD6D56",
"'  c #C26F49",
"]  c #C47847",
"[  c #C87758",
"{  c #D78818",
"}  c #D98D0F",
"|  c #E48302",
" . c #EA8403",
".. c #ED8B05",
"X. c #E48706",
"o. c #F18D03",
"O. c #F18F09",
"+. c #ED9104",
"@. c #F49403",
"#. c #FD9603",
"$. c #F69B03",
"%. c #FD9C03",
"&. c #F59C0A",
"*. c #FD9C0A",
"=. c #FE9608",
"-. c #E38B13",
";. c #FD9F11",
":. c #F79D18",
">. c #E49D18",
",. c #FDA203",
"<. c #FCA30C",
"1. c #F8A80A",
"2. c #EAA817",
"3. c #FCA413",
"4. c #FBAA15",
"5. c #FCA41B",
"6. c #FEA91C",
"7. c #F1A415",
"8. c #FCB415",
"9. c #FCBB1B",
"0. c #F9B619",
"q. c #FDB00F",
"w. c #D68624",
"e. c #D99428",
"r. c #CB8236",
"t. c #D49134",
"y. c #E29C26",
"u. c #E9A82A",
"i. c #FDAB24",
"p. c #FCAB29",
"a. c #EBB129",
"s. c #FEB325",
"d. c #FDBC2D",
"f. c #FBB826",
"g. c #FCAF32",
"h. c #FDB43C",
"j. c #FBBA37",
"k. c #E6AF39",
"l. c #FAC416",
"z. c #FDC41B",
"x. c #FDCC1C",
"c. c #F8C818",
"v. c #FED11E",
"b. c #FCC423",
"n. c #FCC924",
"m. c #FDC42B",
"M. c #FDCA2C",
"N. c #F6C929",
"B. c #F6CB32",
"V. c #FCCC35",
"C. c #FCCC3C",
"Z. c #FAC639",
"A. c #FBD23C",
"S. c #F8D139",
"D. c #F5CD31",
"F. c #D38E4D",
"G. c #CC874D",
"H. c #FCB845",
"J. c #FBBD56",
"K. c #EFB345",
"L. c #C98D6C",
"P. c #D29369",
"I. c #CD967D",
"U. c #D0976C",
"Y. c #DEA969",
"T. c #DDAE75",
"R. c #EABC79",
"E. c #E0A965",
"W. c #FEC443",
"Q. c #FCCD44",
"!. c #FCC44B",
"~. c #FCCC4A",
"^. c #FDD244",
"/. c #FDD24C",
"(. c #FADA49",
"). c #FDCD5A",
"_. c #FAC657",
"`. c #FDD353",
"'. c #FCD55B",
"]. c #FAD95C",
"[. c #F8DA55",
"{. c #EEC642",
"}. c #EEC164",
"|. c #F8C468",
" X c #FDD462",
".X c #FCD963",
"XX c #FDDB6B",
"oX c #EBC87B",
"OX c #FBCC76",
"+X c #FCDD73",
"@X c #FDDD7C",
"#X c #FBD57A",
"$X c #FCE17B",
"%X c #D39A85",
"&X c #D38F8C",
"*X c #D8AB88",
"=X c #DEB48C",
"-X c #DEB698",
";X c #E7BD8B",
":X c #DDB3A5",
">X c #FDDD83",
",X c #FCD687",
"<X c #F9DA95",
"1X c #EFCC8F",
"2X c #FCE184",
"3X c #FCE38B",
"4X c #F6E48B",
"5X c #FBE594",
"6X c #FCE994",
"7X c #FDE59C",
"8X c #FCEB9A",
"9X c #F7E497",
"0X c #F5DBAA",
"qX c #E6C8B4",
"wX c #FDE4A4",
"eX c #FDEAA5",
"rX c #FCE4AC",
"tX c #FCEBAC",
"yX c #F6E6A7",
"uX c #FDF2A9",
"iX c #FDECB3",
"pX c #FCEEBA",
"aX c #F6E7B7",
"sX c #FBF1BC",
"dX c #FBF3B7",
"fX c #FEEDC4",
"gX c #FCEDCA",
"hX c #F7EBC5",
"jX c #FBF2C4",
"kX c #FAF3CB",
"lX c #F7EBD7",
"zX c #FCF4D2",
"xX c #FCF5DB",
"cX c #FAF8D9",
"vX c #ECEBDF",
"bX c #FCF6E4",
"nX c #FBFAEB",
"mX c #FAF8E6",
"MX c #FBFBF4",
"NX c #FCFDFC",
"BX c #FAE8E6",
"VX c #EDD9CA",
"CX c None",
/* pixels */
"CXCXCXCXCXCXCXCXCXCXCXCXCXCXCXCXCXCXCXCXCXCXCXCXCXCXCXCXCXCXCXCXCXCXCXCXCXCXCXCXCXCXCXCXCXCXCXCXCXCXCXCXCXCXCXCXCXCXCXCXCXCXCXCXCXCXCXCXCXCXCXCXCXCXCXCXCXCXCXCX",
"CXCXCXCXCXCXCXCXCXCXCXCXCXCXCXCXCXCXCXCXCXCXCXCXCXCXCXCXCXCXCXCXCXCXCXCXCXCXCXCXCXCXCXCXCXCXCXCXCXCXCXCXCXCXCXCXCXCXCXCXCXCXCXCXCXCXCXCXCXCXCXCXCXCXCXCXCXCXCXCX",
"CXCXCXCXCXCXCXCXCXCXCXCXCXCXCXCXCXCXCXCXCXCXCXCXCXCXCXCXCXCXCXCXCXCXCXCXCXCXCXCXCXCXCXCXCXCXCXCXCXCXCXCXCXCXCXCXCXCXCXCXCXCXCXCXCXCXCXCXCXCXCXCXCXCXCXCXCXCXCXCX",
"CXCXCXCXCXCXCXCXCXCXCXCXCXCXCXCXCXCXCXCXCXCXCXCXCXCXCXCXCXCXCXCXCXCXCXCXCXCXCXCXCXCXCXCXCXCXCXCXCXCXCXCXCXCXCXCXCXCXCXCXCXCXCXCXCXCXCXCXCXCXCXCXCXCXCXCXCXCXCXCX",
"CXCXCXCXCXCXCXCXCXCXCXCXCXCXCXCXCXCXCXCXCXCXCXCXCXCXCXCXCXCXCXCXCXCXCXCXCXCXCXCXCXCXCXCXCXCXCXCXCXCXCXCXCXCXCXCXCXCXCXCXCXCXCXCXCXCXCXCXCXCXCXCXCXCXCXCXCXCXCXCX",
"CXCXCXCXCXCXCXCXCXCXCXCXCXCXCXCXCXCXCXCXCXCXCXCXCXCXCXCXCXCXCXCXCXCXCXCXCXCXCXCXCXCXCXCXCXCXCXCXCXCXCXCXCXCXCXCXCXCXCXCXCXCXCXCXCXCXCXCXCXCXCXCXCXCXCXCXCXCXCXCX",
"CXCXCXCXCXCXCXCXCXCXCXCXCXCXCXCXCXCXCXCXCXCXCXCXCXCXCXCXCXCXCXCXCXCXCXCXCX8 q q = = & = = > = = > CXCXCXCXCXCXCXCXCXCXCXCXCXCXCXCXCXCXCXCXCXCXCXCXCXCXCXCXCXCXCX",
"CXCXCXCXCXCXCXCXCXCXCXCXCXCXCXCXCXCXCXCXCXCXCXCXCXCXCXCXCXCXCXCXCXCXq 8 q & q q 8 & = 8 8 8 8 8 & & : > 3 CXCXCXCXCXCXCXCXCXCXCXCXCXCXCXCXCXCXCXCXCXCXCXCXCXCXCX",
"CXCXCXCXCXCXCXCXCXCXCXCXCXCXCXCXCXCXCXCXCXCXCXCXCXCXCXCXCXCXCX= = & 9 9 8 % > = & ; e e 8 8 8 8 = & & 8 > > 4 CXCXCXCXCXCXCXCXCXCXCXCXCXCXCXCXCXCXCXCXCXCXCXCXCX",
"CXCXCXCXCXCXCXCXCXCXCXCXCXCXCXCXCXCXCXCXCXCXCXCXCXCXCXCXCX5 q 8 8 & q 8 $ & & & $ $ $ & 7 7 $ = = = 8 8 & & 8 = > CXCXCXCXCXCXCXCXCXCXCXCXCXCXCXCXCXCXCXCXCXCXCX",
"CXCXCXCXCXCXCXCXCXCXCXCXCXCXCXCXCXCXCXCXCXCXCXCXCXCXCX, = q q 8 & & & = # $ 7 0 p 6 a s 4 4 - # # & & & = & 8 8 8 ; 3 CXCXCXCXCXCXCXCXCXCXCXCXCXCXCXCXCXCXCXCXCX",
"CXCXCXCXCXCXCXCXCXCXCXCXCXCXCXCXCXCXCXCXCXCXCXCXCXCX> & 8 & 0 * & % $ = g V ) _ L.I.I.I.I.L.` ) V s & 8 8 0 8 = ; = q < CXCXCXCXCXCXCXCXCXCXCXCXCXCXCXCXCXCXCXCX",
"CXCXCXCXCXCXCXCXCXCXCXCXCXCXCXCXCXCXCXCXCXCXCXCXCX8 8 = q = & & & < g ) %XqXvXMXNXNXNXNXNXNXnXlXqX&X( g - $ 8 q & > p 8 = CXCXCXCXCXCXCXCXCXCXCXCXCXCXCXCXCXCXCX",
"CXCXCXCXCXCXCXCXCXCXCXCXCXCXCXCXCXCXCXCXCXCXCXCXq 8 8 & = p & q v _ qXBXNXNXnXMXnXnXmXmXlXgXfXgXlXBXlX:X` s 0 = q 8 & ; < < CXCXCXCXCXCXCXCXCXCXCXCXCXCXCXCXCXCX",
"CXCXCXCXCXCXCXCXCXCXCXCXCXCXCXCXCXCXCXCXCXCXCX$ & & & 8 q 7 < ) -XnXNXMXmXnXMXbXgXwXOXH.p.6.3.<.5.g.J.<X0X*XA p & q ; & q 8 8 CXCXCXCXCXCXCXCXCXCXCXCXCXCXCXCXCX",
"CXCXCXCXCXCXCXCXCXCXCXCXCXCXCXCXCXCXCXCXCXCX; y q & = 8 7 a L.VXMXmXmXBXmXnXvX,Xh.3.*.=.#.%.%.$.%.*.=.*.5.J.oX[ s % % 8 & & 8 8 CXCXCXCXCXCXCXCXCXCXCXCXCXCXCXCX",
"CXCXCXCXCXCXCXCXCXCXCXCXCXCXCXCXCXCXCXCXCX0 = & 8 & 8 7 V *XlXnXbXbXcXnXxX<Xg.*.#.%.*.%.%.%.%.%.%.*.*.%.%.&.5.H./ V 0 w 8 & & & = CXCXCXCXCXCXCXCXCXCXCXCXCXCXCX",
"CXCXCXCXCXCXCXCXCXCXCXCXCXCXCXCXCXCXCXCX& & & q = $ # S =XvXmXxXxXmXmXpX|.:.*.%.%.%.%.,.,.,.%.<.,.%.*.$.%.%.%.,.2.w.s 0 $ 8 & & 0 p CXCXCXCXCXCXCXCXCXCXCXCXCXCX",
"CXCXCXCXCXCXCXCXCXCXCXCXCXCXCXCXCXCXCXCX8 8 8 ; & 0 S *XkXcXlXcXbXxXrXH.;.*.<.*.%.%.=. .Y I L Q +.$.$.*.%.%.&.$.%.&.E u = & & e q = CXCXCXCXCXCXCXCXCXCXCXCXCXCX",
"CXCXCXCXCXCXCXCXCXCXCXCXCXCXCXCXCXCXCX8 8 8 8 e & s *XgXcXcXzXcXzXeXh.*.#.%.%.,.$.U H t & > ^ 1X<XOXh.3.%.$.%.,.$.%.=.J r % $ 8 q q ; CXCXCXCXCXCXCXCXCXCXCXCXCX",
"CXCXCXCXCXCXCXCXCXCXCXCXCXCXCXCXCXCXCX& ; 8 ; $ a P.aXcXzXzXzXxXrXh.3.%.%.*.%.Q z y ; $ b G.qXjXzXkXaXOXg.*.,.,.%.#.%.&.J r $ 8 8 & q 8 CXCXCXCXCXCXCXCXCXCXCXCX",
"CXCXCXCXCXCXCXCXCXCXCXCXCXCXCXCXCXCX8 8 & & & > ) 0XjXkXgXkXzXrX|.=.%.*.%.$.U k q = 8 8 A qXcXcXkXkXjXfX0XJ.&.%.%.%.%.,...K 8 q 8 & q 8 CXCXCXCXCXCXCXCXCXCXCXCX",
"CXCXCXCXCXCXCXCXCXCXCXCXCXCXCXCXCXCX8 & 8 8 $ S *XjXjXsXjXfXsXOX5.%.%.,.$.U t & & ; & = v ' =XgXzXfXpXkXkXwXJ.;.%.%.&.%.%.X.z ; 8 & & 9 = CXCXCXCXCXCXCXCXCXCXCX",
"CXCXCXCXCXCXCXCXCXCXCXCXCXCXCXCXCXCX8 8 8 8 p [ aXjXpXsXsXjX>Xg.$.%.*.%.Y k $ & = & ; % $ 0 C U.0XkXfXsXdXsXrXH.;.%.3.%.%.@.Y r 8 8 = 8 8 CXCXCXCXCXCXCXCXCXCXCX",
"CXCXCXCXCXCXCXCXCXCXCXCXCXCXCXCXCX8 8 & & 7 A =XdXdXsXpXpXiXH.*.%.%.1.| z $ = 8 & = 8 8 = 8 $ s L.rXsXsXiXiXhX<XH.&.=.*.*.,.@.F r $ 8 ; 8 q CXCXCXCXCXCXCXCXCXCX",
"CXCXCXCXCXCXCXCXCXCXCXCXCXCXCXCXCX8 8 & = = P.0XdXdXtXpXiX,X6.#.$.%.$.J e $ q 8 & = 8 7 & ; 8 $ v U.tXiXiXpXpXsXOXp.%.%.,.,.%.Q h $ 8 ; 8 = CXCXCXCXCXCXCXCXCXCX",
"CXCXCXCXCXCXCXCXCXCXCXCXCXCXCXCX8 8 8 & = b R.dXiXaXiXpX7Xh.;.%.%.%.Y k $ 8 9 8 & = & 8 & ; = 8 & Z ;XyXiXtXtXdXwX_.&.#.%.%.*.#.c ; & ; & $ 8 CXCXCXCXCXCXCXCXCX",
"CXCXCXCXCXCXCXCXCXCXCXCXCXCXCXCX8 8 ; $ > _ <XdXrXeXiXtX,X6.*.%.%.#.c e $ & 8 & & 8 $ q q q 8 ; $ 4 _ <XiXrXtXtXrX#Xi.<.%.%.*.%.U t $ ; 8 8 8 CXCXCXCXCXCXCXCXCX",
"CXCXCXCXCXCXCXCXCXCXCXCXCXCXCX8 8 8 8 $ u Y.yXuXwXwXtX7X).<.%.%.#.| t $ = & ; ; & & d d < 7 8 8 7 & s T.eXtXyX8XiX<X_.<.%.#.#.%.+.c # q 8 8 8 CXCXCXCXCXCXCXCXCX",
"CXCXCXCXCXCXCXCXCXCXCXCXCXCXCX7 8 8 $ & b 1XyXyX8X8XeX,Xh.%.%.%.@.L e $ 8 q & 8 = 1 O + 2 8 e q q & % ] 1XtX8X7XrXwX#X3.%.%.%.%.$.L 8 8 & & 7 q CXCXCXCXCXCXCXCX",
"CXCXCXCXCXCXCXCXCXCXCXCXCXCXCX8 q & $ y D <XeX7X8X8XeX|.i.%.%.,...l & 8 8 q 8 8 4 . CXCXd = 8 q = & $ b Y.uX8X7X7XwX<Xs.%.%.%.%.,.Y t & & ; q 8 CXCXCXCXCXCXCXCX",
"CXCXCXCXCXCXCXCXCXCXCXCXCXCX8 8 q & # v F.yXeX7X5X7X5X_.*.%.%.,.Y r ; & 8 & 9 q 1 CXCXCXCXd 8 ; & & 8 q G.5X8X7X7X7X5X!.4.%.%.%.,. .z $ & e q 7 CXCXCXCXCXCXCXCX",
"CXCXCXCXCXCXCXCXCXCXCXCXCXCX8 8 8 ; $ C E.9X8X<X5X5X,XH.%.%.,.$.P > = & & 8 9 3   CXCXCXCX. = 8 & & 8 $ ^ oX6X8X4X9X5X Xi.#.%.%.,.o.J & 8 & & 8 CXCXCXCXCXCXCXCX",
"CXCXCXCXCXCXCXCXCXCXCXCXCX& & & ; ; $ Z oX3X3X3X5X5XXXg.#.%.,.@.G = 8 & ; 8 8 1   CXCXCXCXCX= & & & 8 $ Z E.3X4X4X6X4XXXi.$.%.%.%.@.U 8 8 & & 0 CXCXCXCXCXCXCXCX",
"CXCXCXCXCXCXCXCXCXCXCXCXCX7 & & 8 8 $ D oX3X3X>X3X5X).i.=.#.,.X.H $ q & & 8 8 M CXCXCXCXCXCX1 q = & 8 $ v F.4X4X2X2X4X>Xj.,.%.%.%.%.Q r & 7 8 & > CXCXCXCXCXCXCX",
"CXCXCXCXCXCXCXCXCXCXCXCXCX8 8 & & & y ^ #X>X2X2X3X3X_.6.%.%.,.Q k & 8 q & 8 = M CXCXCXCXCXCXd y 8 & q $ u / 4X2X2X>X>X3Xj.*.#.%.,.%.Q t & 8 8 & : CXCXCXCXCXCXCX",
"CXCXCXCXCXCXCXCXCXCXCXCXCX0 8 8 8 & ; r.@X>X3X3X2X$XW.3.#.%.,.U i $ 8 8 & & & X CXCXCXCXCXCXM , 8 = q $ ; ! #X4X2X>X2X3XW.<.#.%.%.%...k 8 8 8 & ; CXCXCXCXCXCXCX",
"CXCXCXCXCXCXCXCXCXCXCXCXCX0 0 8 q # e G.7XfXzXkXpX2Xj.*.%.,.,.U t & & & 8 & : X CXCXCXCXCXCXX 4 8 & 8 & & D OX2X$X@X>X2X!.3.#.%.%.,.o.k & & 8 & & CXCXCXCXCXCXCX",
"CXCXCXCXCXCXCXCXCXCXCXCXCX$ 8 8 8 $ s P.zXMXNXNXMXgX_.*.%.%.%.P r $ & e 8 = 2 . CXCXCXCXCXCXo 4 & & & & & Z |.@X$X@X@X$X!.3.#.%.%.%.@.l & $ 8 8 & CXCXCXCXCXCXCX",
"CXCXCXCXCXCXCXCXCXCXCXCXCX& 8 8 8 $ v I.NXNXNXNXNXNXOX5.$.%.%.L r & 8 & & = 2 . CXCXCXCXCXCXo 4 8 & 8 & & n |.@X+X+X@X$X!.6.#.%.%.,.o.z ; $ 8 8 ; CXCXCXCXCXCXCX",
"CXCXCXCXCXCXCXCXCXCXCXCXCX= 8 8 8 * V %XNXNXMXNXNXMXOX3.#.*.%.L e & & & 8 8 3 . CXCXCXCXCXCX+ 4 8 & 8 & % n }.XXXXXX+X+X!.6.%.%.%.,.@.z 8 & 8 8 ; CXCXCXCXCXCXCX",
"CXCXCXCXCXCXCXCXCXCXCXCXCX; e 8 & * s U.nXNXNXNXNXcX_.3.%.*.%.L e $ 8 & 8 8 3 . CXCXCXCXCXCX+ q 8 & & 8 $ Z }.XXXXXXXX+XW.5.%.%.%.%.o.z & $ 8 8 ; CXCXCXCXCXCXCX",
"CXCXCXCXCXCXCXCXCXCXCXCXCX& & = = * r G.tXkXbXbXzX8XZ.*.*.%.%.U u $ q ; & 7 4 . CXCXCXCXCXCXX 4 8 & ; & & D }..X.X.X.XXXW.3.#.%.,.,.o.z & $ 8 8 ; CXCXCXCXCXCXCX",
"CXCXCXCXCXCXCXCXCXCXCXCXCXq & ; & 7 r ~  X$X3X<X@XXXd.*.#.%.,.T j $ 0 q & 8 = . CXCXCXCXCXCXX > 7 8 ; $ 8 D )..X.X.X.X.Xm.3.*.%.%.%...k e & q & & CXCXCXCXCXCXCX",
"CXCXCXCXCXCXCXCXCXCXCXCXCX8 8 & & $ e ~ '.(.[.]..X.XZ.3.%.%.,.Y j $ = & & & ; X CXCXCXCXCXCX  = 9 8 & 7 y ~  X.X.X'..X'.d.*.%.%.%.%. .h 8 7 8 8 > CXCXCXCXCXCXCX",
"CXCXCXCXCXCXCXCXCXCXCXCXCX8 8 8 7 & = D _.]. X).`.].Z.3.#.,.,.| k = & & & 8 & M CXCXCXCXCXCX1 & 7 8 & 7 u r..X].`.'.].`.p.%.%.%.%.%. .r 8 8 7 8 : CXCXCXCXCXCXCX",
"CXCXCXCXCXCXCXCXCXCXCXCXCX8 8 8 8 8 # n {.]. X).`.(.Z.6.#.%.,...F = & & & 8 & d X CXCXCXCXCX: = & & 8 $ b t.].`.`.).]./.6.%.%.%.%.$.U q & 8 8 8 3 CXCXCXCXCXCXCX",
"CXCXCXCXCXCXCXCXCXCXCXCXCX= 8 8 8 & # v k.[./.~.`.[./.i.%.%.,.@.L $ & & 8 8 8 3 . CXCXCXCXX = 8 % $ & $ n K.[.`.`.`.[.W.4.%.,.%.%.$.L 8 $ 8 8 8 CXCXCXCXCXCXCXCX",
"CXCXCXCXCXCXCXCXCXCXCXCXCXCX= 8 & & $ j t.`.`.`.`.'.~.f.%.%.%.%.U e % & 8 7 8 - M O CXCXCX  8 q > & $ 7 ~ !.`./.`.`./.m.3.%.%.%.%...F $ $ r 9 8 CXCXCXCXCXCXCXCX",
"CXCXCXCXCXCXCXCXCXCXCXCXCXCX= 8 8 e $ y ~ Q.(.`.`.`.^.d.<.%.%.,. .k ; $ 7 8 & 8 1 X CXCX. 2 8 q q & $ h e./././././.~.0.,.$.%.%.%.Q k $ & & 8 & CXCXCXCXCXCXCXCX",
"CXCXCXCXCXCXCXCXCXCXCXCXCXCX& & & ; $ 8 n H./././././.m.3.%.*.,.o.F ; & 8 8 ; 8 q M O O M & & q 8 & % n k.(.A././.~.V.1.%.%.%.%.,.U e $ & 8 & q CXCXCXCXCXCXCXCX",
"CXCXCXCXCXCXCXCXCXCXCXCXCXCXCX8 & q 8 $ u u.Q.(.A.!.`.Q.i.%.*.%.$.Y t $ 8 & & 8 8 6   M 6 8 8 & & & ; t.{.(.Q.^.~.Q.d.*.%.%.%.%.+.G & 8 & 8 & > CXCXCXCXCXCXCXCX",
"CXCXCXCXCXCXCXCXCXCXCXCXCXCXCXq & & & $ > w.Z.A.S.Q./.Q.d.<.=.%.%.+.l 8 & q q 8 & & 2 : = & $ & $ 8 b k.^.Q.C.Q./.Z.4.%.%.%.,.,.Q l $ e q & & CXCXCXCXCXCXCXCXCX",
"CXCXCXCXCXCXCXCXCXCXCXCXCXCXCX; & & & & ; n k.^.A.W.C.C.m.4.%.%.%.$.L i $ & & q q & 8 & & 0 8 = $ u e.Z.Q.C.A.Q.C.f.%.%.%.%.%.%.G r & & & & 8 CXCXCXCXCXCXCXCXCX",
"CXCXCXCXCXCXCXCXCXCXCXCXCXCXCXCX& & 8 8 % > e.B.A.V.V.A.S.f.*.%.%.%.o.z = & 8 8 8 q 7 8 ; & & # e W B.C.C.C.C.A.m.4.%.%.%.,.,...k & ; & 8 & = CXCXCXCXCXCXCXCXCX",
"CXCXCXCXCXCXCXCXCXCXCXCXCXCXCXCX8 8 8 & ; $ D a.A.V.V.A.V.m.6.&.%.%.*.T j & & ; 8 q y 8 & & = = R u.S.S.V.V.C.B.8.%.#.%.%.,.$.J r $ ; q 8 8 CXCXCXCXCXCXCXCXCXCX",
"CXCXCXCXCXCXCXCXCXCXCXCXCXCXCXCXCX8 8 8 & & t { V.A.V.V.V.V.s.:.$.=.%.$.L y $ & 8 = 8 & $ $ e K u.A.V.Z.V.V.M.f.1.$.%.*.%.%.| j & q 8 = 8 8 CXCXCXCXCXCXCXCXCXCX",
"CXCXCXCXCXCXCXCXCXCXCXCXCXCXCXCXCXq 8 8 8 & 7 n u.V.B.M.V.V.m.0.&.%.,.,.+.G q $ q 8 8 ; y j W a.V.D.Z.V.V.M.9.3.&.%.%.%.<.O.G & & 9 7 = & CXCXCXCXCXCXCXCXCXCXCX",
"CXCXCXCXCXCXCXCXCXCXCXCXCXCXCXCXCX> 8 8 & & $ u W Z.B.M.M.M.B.b.4.%.,.%.%.O.G r $ ; & 8 n y.N.B.M.n.D.B.m.0.,.=.*.%.%.,.=.P r % 8 8 8 & 2 CXCXCXCXCXCXCXCXCXCXCX",
"CXCXCXCXCXCXCXCXCXCXCXCXCXCXCXCXCXCX7 8 & 8 8 $ h e.D.V.n.m.N.n.f.<.%.%.%.%.o.J t & & r K u.B.Z.M.M.n.d.0.<.%.%.%.%.%.%.Q l # ; 8 8 8 = CXCXCXCXCXCXCXCXCXCXCXCX",
"CXCXCXCXCXCXCXCXCXCXCXCXCXCXCXCXCXCXCX8 & 8 ; & 7 l u.B.n.n.n.n.b.8.,.$.*.%.%.%.Y z i 7 % j ~ a.m.b.0.7.%.$.%.%.%.%.%. .l $ & ; q 8 8 , CXCXCXCXCXCXCXCXCXCXCXCX",
"CXCXCXCXCXCXCXCXCXCXCXCXCXCXCXCXCXCXCXCX7 & & q 8 & m u.B.N.n.n.n.m.0.1.$.*.%.,.%.$.| L c x l T &.<.$.%.$.$.,.$.%.$...k 8 = y 8 7 8 = CXCXCXCXCXCXCXCXCXCXCXCXCX",
"CXCXCXCXCXCXCXCXCXCXCXCXCXCXCXCXCXCXCXCX8 = 8 8 & ; - m a.M.M.b.n.M.N.l.q.%.#.%.%.,.%.%.*.#.%.%.*.*.%.%.%.,.,.*.&.X.c 8 $ & $ q 7 & CXCXCXCXCXCXCXCXCXCXCXCXCXCX",
"CXCXCXCXCXCXCXCXCXCXCXCXCXCXCXCXCXCXCXCXCX7 q e e q $ e G u.n.b.b.b.c.b.9.1.%.*.*.*.%.%.$.%.,.#.#.*.%.%.*.=.%.,.-.c % ; & 8 q ; 8 CXCXCXCXCXCXCXCXCXCXCXCXCXCXCX",
"CXCXCXCXCXCXCXCXCXCXCXCXCXCXCXCXCXCXCXCXCXCX% $ & p 9 8 & l >.N.n.n.x.b.n.m.8.,.,.,.$.%.%.%.&.%.%.%.%.&.&.1.1.} l % q ; $ & q & > CXCXCXCXCXCXCXCXCXCXCXCXCXCXCX",
"CXCXCXCXCXCXCXCXCXCXCXCXCXCXCXCXCXCXCXCXCXCXCX8 8 & 8 0 8 8 j E f.x.x.c.l.l.z.z.9.4.,.,.%.%.%.*.%.$.,.1.8.7.T t & & q $ = = 8 5 CXCXCXCXCXCXCXCXCXCXCXCXCXCXCXCX",
"CXCXCXCXCXCXCXCXCXCXCXCXCXCXCXCXCXCXCXCXCXCXCXCXCX; = 8 8 & = ; c { 9.v.v.c.z.z.l.c.c.0.8.q.q.8.8.9.l.0.} l w & & 8 8 = & ; a CXCXCXCXCXCXCXCXCXCXCXCXCXCXCXCXCX",
"CXCXCXCXCXCXCXCXCXCXCXCXCXCXCXCXCXCXCXCXCXCXCXCXCXCXy 8 8 & & & & y c { 2.c.v.n.x.x.n.x.x.x.x.x.l.2.{ x y = & = & ; ; 8 q = CXCXCXCXCXCXCXCXCXCXCXCXCXCXCXCXCXCX",
"CXCXCXCXCXCXCXCXCXCXCXCXCXCXCXCXCXCXCXCXCXCXCXCXCXCXCX8 8 8 = 8 8 $ ; r l c { } 2.2.2.2.2.2.} I c h y q = & 8 q = q 8 = CXCXCXCXCXCXCXCXCXCXCXCXCXCXCXCXCXCXCXCX",
"CXCXCXCXCXCXCXCXCXCXCXCXCXCXCXCXCXCXCXCXCXCXCXCXCXCXCXCX8 8 & & 8 = & & & & ; t h h x l j t r r e 8 & q & $ 8 & & 8 q CXCXCXCXCXCXCXCXCXCXCXCXCXCXCXCXCXCXCXCXCX",
"CXCXCXCXCXCXCXCXCXCXCXCXCXCXCXCXCXCXCXCXCXCXCXCXCXCXCXCXCXCX& 8 8 & & = 8 & $ $ & $ $ $ 8 & $ & & 8 q & = q & & = 3 CXCXCXCXCXCXCXCXCXCXCXCXCXCXCXCXCXCXCXCXCXCX",
"CXCXCXCXCXCXCXCXCXCXCXCXCXCXCXCXCXCXCXCXCXCXCXCXCXCXCXCXCXCXCX& & & & 8 e & e 8 & & $ 8 8 8 & = ; ; & 8 8 ; : 3 CXCXCXCXCXCXCXCXCXCXCXCXCXCXCXCXCXCXCXCXCXCXCXCX",
"CXCXCXCXCXCXCXCXCXCXCXCXCXCXCXCXCXCXCXCXCXCXCXCXCXCXCXCXCXCXCXCXCXCX8 7 8 q 8 8 8 & = & 8 & 8 8 8 8 & q 4 1 f CXCXCXCXCXCXCXCXCXCXCXCXCXCXCXCXCXCXCXCXCXCXCXCXCX",
"CXCXCXCXCXCXCXCXCXCXCXCXCXCXCXCXCXCXCXCXCXCXCXCXCXCXCXCXCXCXCXCXCXCXCX8 & : > ; & & 8 8 & & q > 4 5 1 f B CXCXCXCXCXCXCXCXCXCXCXCXCXCXCXCXCXCXCXCXCXCXCXCXCXCXCX",
"CXCXCXCXCXCXCXCXCXCXCXCXCXCXCXCXCXCXCXCXCXCXCXCXCXCXCXCXCXCXCXCXCXCXCXCXCXCX2 , : - = : = : 3 d M + CXCXCXCXCXCXCXCXCXCXCXCXCXCXCXCXCXCXCXCXCXCXCXCXCXCXCXCXCXCX",
"CXCXCXCXCXCXCXCXCXCXCXCXCXCXCXCXCXCXCXCXCXCXCXCXCXCXCXCXCXCXCXCXCXCXCXCXCXCXCXCXCXCXCXCXCXCXCXCXCXCXCXCXCXCXCXCXCXCXCXCXCXCXCXCXCXCXCXCXCXCXCXCXCXCXCXCXCXCXCXCX",
"CXCXCXCXCXCXCXCXCXCXCXCXCXCXCXCXCXCXCXCXCXCXCXCXCXCXCXCXCXCXCXCXCXCXCXCXCXCXCXCXCXCXCXCXCXCXCXCXCXCXCXCXCXCXCXCXCXCXCXCXCXCXCXCXCXCXCXCXCXCXCXCXCXCXCXCXCXCXCXCX",
"CXCXCXCXCXCXCXCXCXCXCXCXCXCXCXCXCXCXCXCXCXCXCXCXCXCXCXCXCXCXCXCXCXCXCXCXCXCXCXCXCXCXCXCXCXCXCXCXCXCXCXCXCXCXCXCXCXCXCXCXCXCXCXCXCXCXCXCXCXCXCXCXCXCXCXCXCXCXCXCX",
"CXCXCXCXCXCXCXCXCXCXCXCXCXCXCXCXCXCXCXCXCXCXCXCXCXCXCXCXCXCXCXCXCXCXCXCXCXCXCXCXCXCXCXCXCXCXCXCXCXCXCXCXCXCXCXCXCXCXCXCXCXCXCXCXCXCXCXCXCXCXCXCXCXCXCXCXCXCXCXCX",
"CXCXCXCXCXCXCXCXCXCXCXCXCXCXCXCXCXCXCXCXCXCXCXCXCXCXCXCXCXCXCXCXCXCXCXCXCXCXCXCXCXCXCXCXCXCXCXCXCXCXCXCXCXCXCXCXCXCXCXCXCXCXCXCXCXCXCXCXCXCXCXCXCXCXCXCXCXCXCXCX"
};
