/* XPM */
static char *result[] = {
/* columns rows colors chars-per-pixel */
"80 80 245 2 ",
"   c #7C3F1A",
".  c #7D452A",
"X  c #724B3C",
"o  c #794837",
"O  c #6B4F37",
"+  c #5C5D56",
"@  c #5C5D5C",
"#  c #585D5A",
"$  c #5D5D4E",
"%  c #754A42",
"&  c #6B544C",
"*  c #695348",
"=  c #7B5246",
"-  c #635A55",
";  c #615B5C",
":  c #665656",
">  c #725C54",
",  c #6F4F4D",
"<  c #5B615C",
"1  c #56615A",
"2  c #64635D",
"3  c #5C5D61",
"4  c #595F66",
"5  c #615B63",
"6  c #5B6163",
"7  c #5A6667",
"8  c #646464",
"9  c #6A6564",
"0  c #64696B",
"q  c #656768",
"w  c #962503",
"e  c #9C2503",
"r  c #962C03",
"t  c #9C2C03",
"y  c #9D260A",
"u  c #962C0A",
"i  c #9C2C0A",
"p  c #952409",
"a  c #9C3104",
"s  c #96320D",
"d  c #9D320B",
"f  c #9A3506",
"g  c #9B2E13",
"h  c #962F12",
"j  c #8A3B1D",
"k  c #893919",
"l  c #953413",
"z  c #9C3412",
"x  c #9E3A13",
"c  c #943819",
"v  c #A32603",
"b  c #A22B03",
"n  c #A92904",
"m  c #A22B0A",
"M  c #A82908",
"N  c #A23304",
"B  c #A3340C",
"V  c #AB350D",
"C  c #A4390C",
"Z  c #AA3B0B",
"A  c #A93904",
"S  c #A42D12",
"D  c #A33513",
"F  c #AA3612",
"G  c #A43A12",
"H  c #AB3B13",
"J  c #A33A1A",
"K  c #A8381A",
"L  c #B13D05",
"P  c #8B3B23",
"I  c #863D27",
"U  c #963A24",
"Y  c #A83C22",
"T  c #944114",
"R  c #AC4304",
"E  c #AC450C",
"W  c #AB4A0B",
"Q  c #BB4B04",
"!  c #B54907",
"~  c #BD530B",
"^  c #B85709",
"/  c #A94517",
"(  c #B54C16",
")  c #B75816",
"_  c #BB6614",
"`  c #864229",
"'  c #954328",
"]  c #884834",
"[  c #A94625",
"{  c #B45937",
"}  c #B0512B",
"|  c #B9673C",
" . c #B96625",
".. c #C35907",
"X. c #C96708",
"o. c #CE780E",
"O. c #D97907",
"+. c #C86816",
"@. c #CB7416",
"#. c #D67C16",
"$. c #D46D0E",
"%. c #C67230",
"&. c #E47F18",
"*. c #B75D44",
"=. c #BB6846",
"-. c #BA7251",
";. c #BC7663",
":. c #865043",
">. c #C4794C",
",. c #C26E4D",
"<. c #C67762",
"1. c #DB830A",
"2. c #D68815",
"3. c #D48A18",
"4. c #E78809",
"5. c #F18A04",
"6. c #EA9308",
"7. c #F49504",
"8. c #FC9603",
"9. c #F69B03",
"0. c #FC9B03",
"q. c #F59B0B",
"w. c #FC9C0A",
"e. c #F6940A",
"r. c #E88A14",
"t. c #FD9D13",
"y. c #F79C15",
"u. c #E79A1B",
"i. c #FDA203",
"p. c #F6A20C",
"a. c #FCA30C",
"s. c #FDAA0C",
"d. c #F8A505",
"f. c #E8A819",
"g. c #FCA312",
"h. c #FDA419",
"j. c #FDAB1D",
"k. c #F7A716",
"l. c #EAB61B",
"z. c #FCB31C",
"x. c #F9B917",
"c. c #FCB70E",
"v. c #DA9836",
"b. c #D48B2B",
"n. c #E8982E",
"m. c #DEA52B",
"M. c #FDAB22",
"N. c #FAA928",
"B. c #EEB429",
"V. c #FABA28",
"C. c #E5A536",
"Z. c #FAAE37",
"A. c #FBB536",
"S. c #EAB42C",
"D. c #FCC51C",
"F. c #FCCA1C",
"G. c #F8C318",
"H. c #FEC915",
"J. c #FDC422",
"K. c #FCCA23",
"L. c #FDC52B",
"P. c #FBCA2C",
"I. c #F6C628",
"U. c #FBD229",
"Y. c #FCCB34",
"T. c #FBCB3B",
"R. c #FBC637",
"E. c #FCD138",
"W. c #C98558",
"Q. c #D19154",
"!. c #DAA959",
"~. c #ECB746",
"^. c #FBB745",
"/. c #E7B655",
"(. c #FABD58",
"). c #E3AC53",
"_. c #CD9471",
"`. c #D6A66F",
"'. c #E6B877",
"]. c #EDB564",
"[. c #FCCC44",
"{. c #FCCD4B",
"}. c #F8C649",
"|. c #FBD44A",
" X c #FAD347",
".X c #FCCD53",
"XX c #F9C757",
"oX c #FCD453",
"OX c #F4D55B",
"+X c #FCD55A",
"@X c #FAD855",
"#X c #EEC848",
"$X c #FBC865",
"%X c #FDD46C",
"&X c #FDDA6C",
"*X c #FCD963",
"=X c #EBC879",
"-X c #F7CA77",
";X c #FEDD72",
":X c #FCDC7C",
">X c #F7D67E",
",X c #FDE27C",
"<X c #D19786",
"1X c #D6A98F",
"2X c #E4BB92",
"3X c #DBB7A9",
"4X c #E2BDAC",
"5X c #FBDC85",
"6X c #F9D987",
"7X c #E7C795",
"8X c #F8D895",
"9X c #EBC98F",
"0X c #FDE284",
"qX c #FCE38C",
"wX c #FEE98F",
"eX c #FCE494",
"rX c #F9E698",
"tX c #FAF29D",
"yX c #F6DBA8",
"uX c #E7CBB2",
"iX c #E9D2B2",
"pX c #FCE5A3",
"aX c #FAEBA4",
"sX c #FBE5AB",
"dX c #F7E7AB",
"fX c #FBEBB4",
"gX c #F9E8B7",
"hX c #FBF1BA",
"jX c #F6EEAC",
"kX c #DCC5A8",
"lX c #E9D5C8",
"zX c #E9D3C9",
"xX c #FAECC5",
"cX c #FBECCA",
"vX c #F4EBC6",
"bX c #F8F3C8",
"nX c #F9EED3",
"mX c #F9F4D7",
"MX c #FCF4E4",
"NX c #F8F5E9",
"BX c #FBFCF4",
"VX c #FBFDFC",
"CX c #F6FCF8",
"ZX c #F3EDE8",
"AX c None",
/* pixels */
"AXAXAXAXAXAXAXAXAXAXAXAXAXAXAXAXAXAXAXAXAXAXAXAXAXAXAXAXAXAXAXAXAXAXAXAXAXAXAXAXAXAXAXAXAXAXAXAXAXAXAXAXAXAXAXAXAXAXAXAXAXAXAXAXAXAXAXAXAXAXAXAXAXAXAXAXAXAXAXAX",
"AXAXAXAXAXAXAXAXAXAXAXAXAXAXAXAXAXAXAXAXAXAXAXAXAXAXAXAXAXAXAXAXAXAXAXAXAXAXAXAXAXAXAXAXAXAXAXAXAXAXAXAXAXAXAXAXAXAXAXAXAXAXAXAXAXAXAXAXAXAXAXAXAXAXAXAXAXAXAXAX",
"AXAXAXAXAXAXAXAXAXAXAXAXAXAXAXAXAXAXAXAXAXAXAXAXAXAXAXAXAXAXAXAXAXAXAXAXAXAXP P P I AXAXAXAXAXAXAXAXAXAXAXAXAXAXAXAXAXAXAXAXAXAXAXAXAXAXAXAXAXAXAXAXAXAXAXAXAXAX",
"AXAXAXAXAXAXAXAXAXAXAXAXAXAXAXAXAXAXAXAXAXAXAXAXAXAXAXAXAXAXAXAXz z z l l l u z u z s s l l c T AXAXAXAXAXAXAXAXAXAXAXAXAXAXAXAXAXAXAXAXAXAXAXAXAXAXAXAXAXAXAXAX",
"AXAXAXAXAXAXAXAXAXAXAXAXAXAXAXAXAXAXAXAXAXAXAXAXAXAXAXAXAXl l u t b v n v b t t t b b b v b r f c ' AXAXAXAXAXAXAXAXAXAXAXAXAXAXAXAXAXAXAXAXAXAXAXAXAXAXAXAXAXAX",
"AXAXAXAXAXAXAXAXAXAXAXAXAXAXAXAXAXAXAXAXAXAXAXAXAXAXl s m b n v b b m m b a a a t a b m t t r t r t V c P AXAXAXAXAXAXAXAXAXAXAXAXAXAXAXAXAXAXAXAXAXAXAXAXAXAXAX",
"AXAXAXAXAXAXAXAXAXAXAXAXAXAXAXAXAXAXAXAXAXAXAXAXc y m b b t b t b t t d i a a r e b b b t t t t t i b t a u P AXAXAXAXAXAXAXAXAXAXAXAXAXAXAXAXAXAXAXAXAXAXAXAXAX",
"AXAXAXAXAXAXAXAXAXAXAXAXAXAXAXAXAXAXAXAXAXAXAXt t e b a r t i d N r r t p e e e w w e t t m y y t b i y i r t v k AXAXAXAXAXAXAXAXAXAXAXAXAXAXAXAXAXAXAXAXAXAXAX",
"AXAXAXAXAXAXAXAXAXAXAXAXAXAXAXAXAXAXAXAXAXS m b t n v t d m v v e e M K } *.*.*.*.*.[ Y S w y y e r m i t t t r t h I AXAXAXAXAXAXAXAXAXAXAXAXAXAXAXAXAXAXAXAXAX",
"AXAXAXAXAXAXAXAXAXAXAXAXAXAXAXAXAXAXAXAXy m m a t S m e w p y } <.<X1XuXzXzXzXzXzXzXzX4X3X<X<.[ B w e v t r t B B m D ' AXAXAXAXAXAXAXAXAXAXAXAXAXAXAXAXAXAXAXAX",
"AXAXAXAXAXAXAXAXAXAXAXAXAXAXAXAXAXAXt t t t m b b m e t Y -.<X3XzXZXCXVXVXVXVXVXVXVXCXVXCXZXzX4X1X;.Y m e r m a s G C B T AXAXAXAXAXAXAXAXAXAXAXAXAXAXAXAXAXAXAX",
"AXAXAXAXAXAXAXAXAXAXAXAXAXAXAXAXAXb t t r r t b v w ' -.1XzXMXBXCXCXVXCXMXnXgXyX8X8X9X8X8XyXgXcXnXlX3X;.[ y b i z K K V Z x AXAXAXAXAXAXAXAXAXAXAXAXAXAXAXAXAXAX",
"AXAXAXAXAXAXAXAXAXAXAXAXAXAXAXAXm m b N v m y u z =.1XlXBXBXMXNXZXZXnXgX8X(.^.Z.N.y.g.q.w.h.N.^.-XyXxXlX1X=.U g S F K z G A d AXAXAXAXAXAXAXAXAXAXAXAXAXAXAXAXAX",
"AXAXAXAXAXAXAXAXAXAXAXAXAXAXAXr b m i e b b m Y W.lXNXBXNXNXMXMXvX8X^.M.t.t.w.t.h.t.i.0.8.7.8.7.e.7.N.$XdXgX_.Y t m B D z a t d AXAXAXAXAXAXAXAXAXAXAXAXAXAXAXAX",
"AXAXAXAXAXAXAXAXAXAXAXAXAXAXAXN r r r d N e { 1XMXBXMXmXZXNXcX6XZ.h.w.t.w.g.g.g.t.g.a.a.a.w.w.0.0.9.w.e.y.].dX2X{ d w B t t b b s AXAXAXAXAXAXAXAXAXAXAXAXAXAXAX",
"AXAXAXAXAXAXAXAXAXAXAXAXAXAXM m t a i t r =.uXmXmXMXmXNXmX8X~.y.w.a.g.h.t.w.s.s.g.k.k.k.h.w.q.9.0.w.w.w.e.y.N.-X2X<.t e r b m b t g AXAXAXAXAXAXAXAXAXAXAXAXAXAX",
"AXAXAXAXAXAXAXAXAXAXAXAXAXt b e m b e b -.uXmXnXmXnXmXgX-XN.q.w.a.g.p.a.a.q.e.4.&.r.#.o.4.t.w.7.7.9.8.q.w.8.0.y.XX'.<.g i a t t b b AXAXAXAXAXAXAXAXAXAXAXAXAXAX",
"AXAXAXAXAXAXAXAXAXAXAXAXAXb t r m v B =.iXmXmXnXnXmXgX(.y.8.0.a.g.k.s.q.O...! R L ( =.Q.'.-X(.Z.g.7.9.9.8.w.9.7.y.^.].>.i w i t t b m AXAXAXAXAXAXAXAXAXAXAXAXAX",
"AXAXAXAXAXAXAXAXAXAXAXAXt a r N y S =.kXmXbXvXbXmXgX(.y.8.8.9.a.k.y.#...R t S Y =.<X3XlXvXvXdX8X-XXXN.w.8.9.0.d.7.w.Z./.| S w B a t v m AXAXAXAXAXAXAXAXAXAXAXAX",
"AXAXAXAXAXAXAXAXAXAXAXAXb r t a w { 2XnXnXbXhXbXgX(.y.7.0.9.p.q.r.+.H u r i Y | 1XuXvXnXvXnXnXmXnXgX-X^.g.9.9.0.0.8.t.Z.).{ m t m t b m AXAXAXAXAXAXAXAXAXAXAXAX",
"AXAXAXAXAXAXAXAXAXAXAXv b m B w ' `.hXbXcXnXbXfX$Xt.8.9.q.q.w.O.( D D f f D / } %.=.<.`.7XiXbXbXcXcXbXsXXXh.9.9.0.a.0.8.Z.Q.} v t m a a m AXAXAXAXAXAXAXAXAXAXAX",
"AXAXAXAXAXAXAXAXAXAXAXe t a t v W.yXbXhXgXcXgX-Xy.8.0.9.6.5.#.H m C A H G C V z g S y g [ W.kXvXbXxXxXvXhX6XN.q.0.9.0.i.0.Z.%.D y b r i m b AXAXAXAXAXAXAXAXAXAX",
"AXAXAXAXAXAXAXAXAXAXt B t w w { 7XbXgXgXgXgX6XN.7.w.9.9.5.X.a g C C F G D V F x z t w y i z } _.yXbXbXfXxXvX8XN.w.9.p.0.7.a.C.,.p b b b b m AXAXAXAXAXAXAXAXAXAX",
"AXAXAXAXAXAXAXAXAXAXt t b e z `.sXhXdXgXxX8X^.5.9.9.9.7.$.A r a C G D D x x C D u a a N B F G / ,.7XhXhXsXgXhX>XN.8.0.9.0.0.h.v./ b t b v n AXAXAXAXAXAXAXAXAXAX",
"AXAXAXAXAXAXAXAXAXt a f m D | yXfXgXdXgXgX$XM.w.w.t.d.O.E t r r d G G C C C C F V i s C C F G B K | 2XjXfXsXfXfX$XM.8.0.0.9.a.N.%.S v b t b v AXAXAXAXAXAXAXAXAX",
"AXAXAXAXAXAXAXAXm d B C N } `.sXjXsXdXdX8XZ.t.t.t.h.r.^ z B f B d z J F V F K c J / G Z G B H G m u | 9XfXfXsXfXrXXXt.8.0.0.7.y.n.K e e t t b AXAXAXAXAXAXAXAXAX",
"AXAXAXAXAXAXAXAXi D V V G =.8XjXdXrXdXaXXXM.a.g.g.p.+./ D K D V m i z J ' ] = = = ] ' K K G Z B t t u >.9XfXdXpXfX5X^.8.w.w.9.0.y. .s t m t b s AXAXAXAXAXAXAXAX",
"AXAXAXAXAXAXAXAXm D F D ( _.jXaXrXyXdXrXZ.a.a.s.g.4.( B G K G C f B z ` > 0 7 0 0 0 > ] J C a t t t u J Q.rXaXpXsXpX%Xh.w.w.8.0.a.b.G e t b t t AXAXAXAXAXAXAXAX",
"AXAXAXAXAXAXAXb a B V d ,.'.aXaXaXdXsX-Xh.a.g.a.p.X.H D G C C C F U o $ 7 q 9 9 9 0 7 < O s a w i t r p { '.aXpXrXaX8X^.0.8.9.0.0.u.~ w t t t b AXAXAXAXAXAXAXAX",
"AXAXAXAXAXAXb t t b V G W.8XjXsXrXjXeXXXg.h.a.q.1.R d B C G D V K :.; + 1 < @ < 5 8 8 3 5 % c e m i t r S >.8XeXrXaXwX%Xg.9.0.0.9.k.+.B e m t b i AXAXAXAXAXAXAX",
"AXAXAXAXAXAXm t t t t T `.tXaXsXyXaX:XM.a.w.a.7.X.t p a f G D K ] 9 q @ # @ ; # @ @ @ - 5 3 ] h t t b b e [ '.rXrXrXeX5XZ.i.0.0.0.g.#.E e b t b i AXAXAXAXAXAXAX",
"AXAXAXAXAXAXi t t b w } `.tXeXrXrXrX$Xg.w.w.9.4.! u w N a N Z ' > 0 5 ; 3 @ @ @ @ + @ ; @ # * P b b b b e D W.qXeXeXrXeX}.g.0.0.0.a.r.! e b b t m m AXAXAXAXAXAX",
"AXAXAXAXAXt t t t N p  .=XwXqXrXaX6X(.a.a.q.q.O.B i t t r i J :.0 0 9 8 ; @ # @ # 1 @ @ + 1 # X g t t t t t } 9XwXqXrXeX%Xj.0.0.0.0.q.+.r b b t b b AXAXAXAXAXAX",
"AXAXAXAXAXb b t t t w Q.=XqX5XqXrX5XA.a.a.g.9.X.r r t t e u ' > q q 9 7 @ @ @ @ # @ ; @ @ @ 3 : I v r t m t E !.5XwX5XqX:XN.0.0.0.i.w.X.N e a t b a AXAXAXAXAXAX",
"AXAXAXAXAXb t t t t a Q.>XqX6X6XeX%XA.w.g.s.q.X.w t t w r u :.9 q 9 9 8 # + ; 3 # # ; ; 3 1 5 ; X t t m m r a Q.6XwXqX0X0XA.0.0.0.0.0.O.A t r t b d AXAXAXAXAXAX",
"AXAXAXAXAXv t t r t T !.>X>X>X>X8XXXM.h.t.s.6...u a t r t s = 8 0 9 9 < # # 5 ; + 3 ; ; 3 @ < ; % s t b m t t %.=XwX0X,X0X^.a.0.0.0.i.O.R e t N b t AXAXAXAXAXAX",
"AXAXAXAXAXb m t e t / !.5X:X>X>X5X.Xg.a.g.g.4.^ z i i a r l > 9 q 0 9 ; : # 5 # ; @ @ @ 5 1 < ; , k b b m t e  .=XwX:X:X0X}.g.0.0.0.a.4.! e b N b b AXAXAXAXAXAX",
"AXAXAXAXAXn t a t i / =XfXbXmXvX8XA.q.t.w.s.r.( B G B t d ' 2 9 q 8 + ; # 5 : # < @ 2 # 6 @ @ 3 & I t b b b y ( /.wX:X:X0X.Xh.0.w.0.i.4.Q r b b b N c AXAXAXAXAX",
"AXAXAXAXAXM N d B D  .uXBXVXCXCXvXXX8.7.w.a.1.W z G G B G ' 2 0 q 5 # + 5 3 # # @ @ ; @ @ 3 @ 3 - . i t b b e / /.,X:X;X0XXXj.0.0.0.i.4.~ r b t t b l AXAXAXAXAX",
"AXAXAXAXAXM B B D F =.uXVXCXVXVXBX-Xq.7.9.i.#.( z G H V T ' 0 q q 6 # # # # # @ @ ; @ ; @ @ # 4 @ . i t b b t E ).;X;X&X,X.Xj.8.0.0.i.5.~ w b b t t s AXAXAXAXAX",
"AXAXAXAXAXV D G V x =.lXVXVXBXBXBX5Xa.q.9.9.O.E z G F V x ] 8 7 5 3 @ @ 3 # # @ ; @ @ 3 @ ; @ 6 @ . a b b b t / ).&X%X&X;X.XM.8.0.0.i.5.~ w t t t t s AXAXAXAXAX",
"AXAXAXAXAXV G G D z  .uXVXVXBXBXMX-Xh.w.9.9.O.E z G V F / ] 8 8 ; 5 @ ; @ @ ; @ @ @ # 3 6 ; @ < ; ] m b b b e E ).;X;X&X;X.Xj.0.0.0.i.6.~ t b m t t s AXAXAXAXAX",
"AXAXAXAXAXV G C d z W '.nXNXBXMXfX(.w.w.0.0.O.R z B V F K ' - @ ; 3 ; 3 3 # @ ; @ 3 @ 3 @ 5 @ # : I t b b t e ( /.;X&X&X&X}.h.8.i.9.i.4.~ r t t t t l AXAXAXAXAX",
"AXAXAXAXAXV G G t t / ).:X8X8XqX;X[.h.a.a.i.O.R w f B V B j & < 3 # @ @ # @ @ @ 5 ; @ ; 5 3 < 6 : P t b b t w ) /.&X*X*X&X[.h.0.0.0.i.4.! e b t b m AXAXAXAXAXAX",
"AXAXAXAXAXV V B t t x v.|.OXOX>X&X}.j.w.g.a.4.Q e r a d a s % @ @ @ # # # @ 3 @ 3 ; ; ; ; @ 1 < , c t b t t t @.XX*X*X*X*XA.a.0.i.0.i.O.R t t a b m AXAXAXAXAXAX",
"AXAXAXAXAXA F z t t f v.|.OXOXOX&X}.M.t.g.s.4...v r a r b m X ; @ # @ # ; 5 @ + 6 6 < ; ; 3 @ # X d t t r r t %.XX+XoX+X+XV.0.0.0.0.i.O.Z e t b v m AXAXAXAXAXAX",
"AXAXAXAXAXA Z D s r r b.#XOX$XOX*X.XN.t.g.w.7.X.t t r t t m I - 3 + # 3 5 3 ; ; 1 3 @ # # 3 3 - ` b m a t w F v.|.@X+X+XoXM.0.0.0.0.0.$.N v b a n n AXAXAXAXAXAX",
"AXAXAXAXAXB C B f r p  ./.OXXX.XOX{.V.t.g.w.8.O.f t t t t b s * 3 3 @ 3 @ 3 @ ; # 3 3 < ; 7 6 X c b b m t t / ~.@X@X+X@X[.h.0.0.0.i.q.X.n v m t m M AXAXAXAXAXAX",
"AXAXAXAXAXAXG G B N h ) ).|.#XOX@XoXA.h.a.i.w.4.R e t a t p b . : 4 2 @ + 1 < # ; 5 3 @ ; 7 - ` t t v b e B _ .X@X@X.XoXA.a.0.0.0.i.6...e b t t m S AXAXAXAXAXAX",
"AXAXAXAXAXAXx C C V i / v.|.#XOX@X+X{.h.a.9.w.e...b t r t t m f X < < ; - ; < @ 3 5 5 + + 3 o l t r t b e E v.|. XoX.X[.z.a.0.0.0.i.1.E e b t b t AXAXAXAXAXAXAX",
"AXAXAXAXAXAXB B G F B G b.{. XOXoX@X|.M.a.w.w.e.O.A b t t t N b k * 5 ; @ 2 - ; 3 3 @ @ + * c m i t a t t ) ^. X XoXoX[.h.0.0.0.0.i.X.A e b t v m AXAXAXAXAXAXAX",
"AXAXAXAXAXAXA C x D F D  .~.@XoX.X+XoXL.a.8.e.7.7.! b t b b m b a j , 4 7 3 @ @ # @ 3 @ + I i b t b a e / b. X|.{. XT.V.w.0.0.0.i.i.^ r b b t b d AXAXAXAXAXAXAX",
"AXAXAXAXAXAXAXG G K K d } v.@X|..XoXoXA.p.9.8.w.9.$.A w b b r t b m P X ; 4 3 @ < < ; , . t m n b a t w +.#X X|.[.|.R.s.w.0.0.0.9.4.R r t b b b AXAXAXAXAXAXAXAX",
"AXAXAXAXAXAXAXV B G K d x %.|.|.{. X X[.k.0.0.0.9.5.Q b t m t b b w r c ] % : - : % . l t b b b a t e ) C.|.[.E.[.T.V.0.0.0.0.i.q.$.A t a t b i AXAXAXAXAXAXAXAX",
"AXAXAXAXAXAXAXAXm B G B g ) S.@X XT.T.[.I.p.8.8.0.i.O.L w r b b y t b n t l P I P c u t t m N a t t E b.}.E.T.E.E.V.a.0.i.0.0.i.6.R b b N r t l AXAXAXAXAXAXAXAX",
"AXAXAXAXAXAXAXAXb a f N i / @.#X#XT.T.T.T.z.0.8.0.i.7.X.m r b m m t m b v v m b b v b t t a t w r C b.R.[.T.T.E.L.h.8.0.i.0.i.q.o.B v m t b t AXAXAXAXAXAXAXAXAX",
"AXAXAXAXAXAXAXAXAXM t r r t E m.T.E.T.T.T.V.p.9.0.8.0.6...b t t a b v m y t a a b m b b r N v v E 3.R.E.T.Y.E.Y.j.0.0.0.0.9.i.r.! i b t t m t AXAXAXAXAXAXAXAXAX",
"AXAXAXAXAXAXAXAXAXM t e t r d  .S.Y.I.L.Y.T.V.t.w.0.0.w.5.Q i t a a b n m a r t t m b r t t m ( b.R.T.Y.Y.Y.R.z.a.9.0.i.0.i.y.$.m t i t b n AXAXAXAXAXAXAXAXAXAX",
"AXAXAXAXAXAXAXAXAXs y b b m t f m.I.P.P.Y.T.R.z.8.0.0.i.8.5.Q N t t N r t v t t v e v e y G @.S.U.E.P.Y.E.L.j.0.0.9.0.d.w.g.1./ v r m b v b AXAXAXAXAXAXAXAXAXAX",
"AXAXAXAXAXAXAXAXAXAXm b a t b t ^ m.Y.Y.Y.P.L.V.s.0.9.9.8.8.5...m w a t t b N N r a E _ #.l.P.P.Y.Y.P.Y.L.k.w.0.8.0.i.9.i.u.) m t a a m m AXAXAXAXAXAXAXAXAXAXAX",
"AXAXAXAXAXAXAXAXAXAXu r t b m t t _ B.Y.L.L.P.P.D.g.w.9.0.i.0.5.X.L e t t t N ..3.m.m.B.A.K.U.P.Y.Y.L.z.a.w.w.0.0.9.w.0.p.+.d i t b i t t AXAXAXAXAXAXAXAXAXAXAX",
"AXAXAXAXAXAXAXAXAXAXAXw b m b b w A @.I.Y.P.P.P.L.x.a.w.0.9.0.i.7.O...L b e w Z @.u.V.Y.E.P.P.P.L.z.j.i.0.w.w.i.i.0.w.s.1.f y y y b b i AXAXAXAXAXAXAXAXAXAXAXAX",
"AXAXAXAXAXAXAXAXAXAXAXB m m t b t e C 3.V.U.K.L.K.I.x.a.0.0.0.0.0.a.7.O...Q Z N N ~ @.2.l.V.x.x.j.w.0.i.0.0.0.i.0.i.g.2.R b t t t N m i AXAXAXAXAXAXAXAXAXAXAXAX",
"AXAXAXAXAXAXAXAXAXAXAXAXi b t i i t u E 3.B.P.J.J.K.I.D.s.i.0.0.0.0.i.0.8.5.O.X.....Q ..4.0.i.0.9.0.0.9.8.0.0.0.a.k.3.R r b m t r N s AXAXAXAXAXAXAXAXAXAXAXAXAX",
"AXAXAXAXAXAXAXAXAXAXAXAXAXz r a m m t e f #.V.K.L.P.K.F.x.s.i.d.0.i.0.8.0.i.i.i.0.i.0.8.8.0.0.0.0.i.0.0.0.0.0.a.l.1.R e r t b N t r AXAXAXAXAXAXAXAXAXAXAXAXAXAX",
"AXAXAXAXAXAXAXAXAXAXAXAXAXAXm t e m n b w A @.l.P.P.D.K.K.K.x.d.i.0.8.9.p.a.0.0.0.0.w.w.0.0.0.0.0.0.0.0.0.i.c.V.o.A e t m t t t m P AXAXAXAXAXAXAXAXAXAXAXAXAXAX",
"AXAXAXAXAXAXAXAXAXAXAXAXAXAXP M b r a a y m f ^ f.D.K.F.F.J.F.D.c.s.0.0.8.0.0.i.i.i.i.0.0.w.i.0.0.0.0.h.c.x.f...N t b m m m b t U AXAXAXAXAXAXAXAXAXAXAXAXAXAXAX",
"AXAXAXAXAXAXAXAXAXAXAXAXAXAXAXU m a r t m b t a E o.f.F.K.D.J.D.F.G.c.s.a.0.0.9.9.0.0.0.0.0.9.9.i.d.z.D.l.3.! a m b b u t b t j AXAXAXAXAXAXAXAXAXAXAXAXAXAXAXAX",
"AXAXAXAXAXAXAXAXAXAXAXAXAXAXAXAXk f b b b b t t t A ^ 2.l.F.K.U.F.F.D.H.x.c.c.k.s.s.s.s.s.s.c.c.H.G.l.2.^ C r t b b b r b r k AXAXAXAXAXAXAXAXAXAXAXAXAXAXAXAXAX",
"AXAXAXAXAXAXAXAXAXAXAXAXAXAXAXAXAXP z b b b t a b e b A ^ 1.f.x.D.F.F.F.F.F.K.K.D.H.D.D.H.F.D.x.f.3.X.Z i w t t b b t t z j AXAXAXAXAXAXAXAXAXAXAXAXAXAXAXAXAXAX",
"AXAXAXAXAXAXAXAXAXAXAXAXAXAXAXAXAXAX` l a m b m y m v w t b Q @.2.f.f.l.x.G.G.G.G.J.l.G.l.f.3.@.! N e e b m m i b m m g I AXAXAXAXAXAXAXAXAXAXAXAXAXAXAXAXAXAXAX",
"AXAXAXAXAXAXAXAXAXAXAXAXAXAXAXAXAXAXAX. l i t i m M v N a e v e t Z ~ X.o.2.1.1.2.#.o.X.^ A N e e e r a a t e i t y c % AXAXAXAXAXAXAXAXAXAXAXAXAXAXAXAXAXAXAXAX",
"AXAXAXAXAXAXAXAXAXAXAXAXAXAXAXAXAXAXAXAXAXI g t r t b a r a t b b e e b e e t t t v v e e e t b b b i m m b b b f . O AXAXAXAXAXAXAXAXAXAXAXAXAXAXAXAXAXAXAXAXAX",
"AXAXAXAXAXAXAXAXAXAXAXAXAXAXAXAXAXAXAXAXAXAXo P t b a t t b t t r t t t b b b t r r t m m b b t r a a b n n t   O AXAXAXAXAXAXAXAXAXAXAXAXAXAXAXAXAXAXAXAXAXAXAX",
"AXAXAXAXAXAXAXAXAXAXAXAXAXAXAXAXAXAXAXAXAXAXAXAXo ` f t n v t t t b b N b b b b b b t b b t r t b b r t l P o AXAXAXAXAXAXAXAXAXAXAXAXAXAXAXAXAXAXAXAXAXAXAXAXAX",
"AXAXAXAXAXAXAXAXAXAXAXAXAXAXAXAXAXAXAXAXAXAXAXAXAXAXo ` k d m b b b b b t t t b t t b b t t v v b i j . X AXAXAXAXAXAXAXAXAXAXAXAXAXAXAXAXAXAXAXAXAXAXAXAXAXAXAX",
"AXAXAXAXAXAXAXAXAXAXAXAXAXAXAXAXAXAXAXAXAXAXAXAXAXAXAXAXX X ` ` c l a r t t t r t b v b i l c P ` o o & AXAXAXAXAXAXAXAXAXAXAXAXAXAXAXAXAXAXAXAXAXAXAXAXAXAXAXAX",
"AXAXAXAXAXAXAXAXAXAXAXAXAXAXAXAXAXAXAXAXAXAXAXAXAXAXAXAXAX6 @ & X o . ` j ` j ` j j I I o o X * $ 1 AXAXAXAXAXAXAXAXAXAXAXAXAXAXAXAXAXAXAXAXAXAXAXAXAXAXAXAXAXAX",
"AXAXAXAXAXAXAXAXAXAXAXAXAXAXAXAXAXAXAXAXAXAXAXAXAXAXAXAXAXAXAXAXAX6 3 @ @ - > & & - < # 4 7 AXAXAXAXAXAXAXAXAXAXAXAXAXAXAXAXAXAXAXAXAXAXAXAXAXAXAXAXAXAXAXAXAXAX",
"AXAXAXAXAXAXAXAXAXAXAXAXAXAXAXAXAXAXAXAXAXAXAXAXAXAXAXAXAXAXAXAXAXAXAXAXAXAXAXAXAXAXAXAXAXAXAXAXAXAXAXAXAXAXAXAXAXAXAXAXAXAXAXAXAXAXAXAXAXAXAXAXAXAXAXAXAXAXAXAX"
};
