/* XPM */
static char *_09aeba592fc4d2bcc503cba124bdc59vanOhHXlwR5RGwZE[] = {
/* columns rows colors chars-per-pixel */
"47 45 224 2 ",
"   c None",
".  c #020101",
"X  c #090502",
"o  c #0D0905",
"O  c #120B06",
"+  c #140F09",
"@  c #180E03",
"#  c #15100A",
"$  c #1B120A",
"%  c #171007",
"&  c #1B1810",
"*  c #2C1A0B",
"=  c #281709",
"-  c #331D0D",
";  c #311C07",
":  c #2B1D12",
">  c #231A11",
",  c #321F11",
"<  c #39250C",
"1  c #2E2215",
"2  c #3C2413",
"3  c #3C2C1D",
"4  c #332517",
"5  c #2F230A",
"6  c #3D3524",
"7  c #43260A",
"8  c #47290B",
"9  c #492A0D",
"0  c #53320E",
"q  c #563E0D",
"w  c #412715",
"e  c #442916",
"r  c #4B2D13",
"t  c #442B19",
"y  c #4C2E19",
"u  c #4D311B",
"i  c #4A3518",
"p  c #5A3714",
"a  c #5C3912",
"s  c #54331C",
"d  c #59361D",
"f  c #5C3A1D",
"g  c #573511",
"h  c #623E13",
"j  c #633C1C",
"k  c #4C3C29",
"l  c #473824",
"z  c #5D3921",
"x  c #543E24",
"c  c #633D23",
"v  c #5E4019",
"b  c #6B4515",
"n  c #6F4916",
"m  c #64411D",
"M  c #6B441C",
"N  c #664113",
"B  c #734C16",
"V  c #744B1C",
"C  c #7C4D1A",
"Z  c #784918",
"A  c #7B521A",
"S  c #775016",
"D  c #70540B",
"F  c #5B452B",
"G  c #5B4B32",
"H  c #524C36",
"J  c #4A4531",
"K  c #6C4325",
"L  c #684928",
"P  c #714626",
"I  c #724728",
"U  c #744829",
"Y  c #7A4D29",
"T  c #784F27",
"R  c #7E512A",
"E  c #7A5429",
"W  c #644C33",
"Q  c #69593C",
"!  c #7A5A39",
"~  c #7C643D",
"^  c #665D41",
"/  c #796744",
"(  c #7B7452",
")  c #6C6345",
"_  c #8A5519",
"`  c #8B5A1B",
"'  c #84581B",
"]  c #89551A",
"[  c #8D6712",
"{  c #956916",
"}  c #9C7319",
"|  c #86630D",
" . c #A37615",
".. c #A1790C",
"X. c #805423",
"o. c #8B5C23",
"O. c #83552A",
"+. c #87592A",
"@. c #8B5C2A",
"#. c #855825",
"$. c #8E612B",
"%. c #8E6121",
"&. c #946322",
"*. c #93642A",
"=. c #9B6B2A",
"-. c #986925",
";. c #9E7323",
":. c #9E7228",
">. c #86653A",
",. c #946C3A",
"<. c #976C36",
"1. c #9C7033",
"2. c #9C733C",
"3. c #A36D23",
"4. c #A47323",
"5. c #AA7523",
"6. c #A67727",
"7. c #B27D26",
"8. c #A37638",
"9. c #886C47",
"0. c #956E46",
"q. c #8A704A",
"w. c #95764B",
"e. c #897A5C",
"r. c #9D7C51",
"t. c #A47A42",
"y. c #AA7C44",
"u. c #A17641",
"i. c #A47756",
"p. c #A17E52",
"a. c #B58815",
"s. c #BE9215",
"d. c #AE8226",
"f. c #B38223",
"g. c #BE8B25",
"h. c #B8882C",
"j. c #AD823D",
"k. c #B98933",
"l. c #BF9136",
"z. c #C79A18",
"x. c #C69B0A",
"c. c #D7AB09",
"v. c #DFB20D",
"b. c #DFAF1D",
"n. c #D2A310",
"m. c #D3A818",
"M. c #ECBC04",
"N. c #E8B70C",
"B. c #EBBB0A",
"V. c #E5B506",
"C. c #E5B414",
"Z. c #E1B11A",
"A. c #E8B815",
"S. c #E8B711",
"D. c #C18E29",
"F. c #CA9A25",
"G. c #C79729",
"H. c #C79835",
"J. c #D09E23",
"K. c #D4A324",
"L. c #DCAC23",
"P. c #D4A42B",
"I. c #D9A725",
"U. c #E1B226",
"Y. c #F2C302",
"T. c #FACD03",
"R. c #F3C60A",
"E. c #FED200",
"W. c #F2C814",
"Q. c #F7D128",
"!. c #8C825B",
"~. c #93845C",
"^. c #AC834C",
"/. c #AC8447",
"(. c #B3894D",
"). c #B18249",
"_. c #BC964B",
"`. c #A98554",
"'. c #BD8D51",
"]. c #B48B57",
"[. c #B69255",
"{. c #BC975B",
"}. c #BB9B63",
"|. c #B49A69",
" X c #AB9975",
".X c #B9A374",
"XX c #B9B07E",
"oX c #BCA56D",
"OX c #D3A843",
"+X c #E3BD51",
"@X c #C19A65",
"#X c #CAA56B",
"$X c #D7A96F",
"%X c #CAAB77",
"&X c #CBB77A",
"*X c #D8B379",
"=X c #D3AE75",
"-X c #EABB7C",
";X c #E5B475",
":X c #E9C857",
">X c #EDC640",
",X c #C6BD88",
"<X c #C5AE8B",
"1X c #CEBBA4",
"2X c #D0C389",
"3X c #DCCE93",
"4X c #E9C584",
"5X c #F3CD8B",
"6X c #E9D999",
"7X c #F1D897",
"8X c #F7E295",
"9X c #DCCAB6",
"0X c #EFDFB7",
"qX c #ECE3A2",
"wX c #F6ECA9",
"eX c #F8E9A6",
"rX c #FCF2AD",
"tX c #FFF5B2",
"yX c #EEE0B2",
"uX c #EADDC6",
"iX c #F1E7D3",
"pX c #FAF6EB",
"aX c #FFFEFD",
"sX c #F2EBE0",
/* pixels */
"                                                                                              ",
"                                    7.6.                                                      ",
"                              [ M.b.P.6.C         s.c.v.c.z.d.                                ",
"                            x.T.M.L.D.O.2.| [ B *.J.Z.V.Z.P.H.@XO.                            ",
"                      F w.z.T.N.b.g.#.2.Y.Y.Z.P.*.t.t.y.^.].,XyX0.2.L                         ",
"                !.6X&XF.c.T.L.D.C 6.o.L.f.k.L.B.T.W.` { l.:X8XtX:Xq.w./.(.,.                  ",
"            ! rX6X2.E.E.N._ _ _ C _ _ Z { D.P.L.A.>Xz.^.-.F.b.:XE.Q.{ ..;.1.y.^.4             ",
"        + y.y.s.E. .:.F.K.F.D.5.#.o.a.z. .%.6.g.OX4XG.X.2.1.] j.g.[.W.M.L.P.H.,.'.L           ",
"        u.y.*.E.E.V.` _ ` =.y.(.1.z.2.:.A.Y.Y.a..X9X_ ] B.v. ._ ' 6.f.C.L.H.7.V y.'.$         ",
"      . y.y.T P.L.b.L.L.D.4.{ 3.H.I.D.2.2.4.L.+XiXpX:X`.u.*.;.f.h.6.2.6.J.7.3.p y.'.3         ",
"        W y.8.Z %.5.7. .-.t.A { 5.f.G.P./. XuXpXaXaXsX0X%X0.,.y.{.}.`.-.-.=.t.>.y.'..         ",
"        . E y.t.p T @.2.=.G.N.d.{.8.*.+._ ` m. .<XsXv.-.3.o.F.Z.I.;.%.%.L x #X[.(.+           ",
"          4 $ ,.y.t.L i -.G.Z.N.N.R.v.8.k.H.K.z.l.1X2.>.,.' C 4.d.' i !.wXtXeXG X             ",
"        G z c + . i ,.y.y.2.! i 5 < < ^ / ~ >.>.~ e.v D 5 + 4 / 2XrXtXqX!.& X u U             ",
"        $XU U U I t o . X : d E 2.^.{.{.{.}.|.oX&X3X6XwXwXqX,X!.k + . X 2 #.Y U c  X4Xl       ",
"      F / U U U U U U I K 3 > o . . . . . . X . . . . . . . X O * s E *.*.=.:.K u.qX: Q 3X    ",
"      $Xd c Y U U U U U U U U I K c c z d s s y y y s s s c c O.@.*.*.*.*.3.=.j >.5X1 ~.wX    ",
"    : @Xc Y U U U U U U U U U U U U U U U U U U U U U O.O.+.@.$.$.*.*.3.=.<.3.w ! *Xl q.eX    ",
"    0.3 O.c U U U U U U U U I U U U U U Y Y O.Y O.O.O.+.@.@.$.$.*.*.*.=.=.=.$.- !.r.* F `.    ",
"    4XO Y O.U U U U U U U U U U U U U Y Y Y Y O.O.O.+.@.@.@.@.*.*.*.*.=.3.O.c , 6Xt 7 .       ",
"    4X= U U U U U U U U U I U U U U U Y Y Y Y O.O.O.O.@.@.@.*.*.$.*.*.O.U U - l 4X2 8 .       ",
"  o $Xw U U U U U U U U U U U U U U U Y Y O.O.O.O.O.@.@.@.@.@.@.O.U P U U d * 3XW y 9 .       ",
"  X $Xs U U U U U U U I U U U U U U U U U U U U Y Y O.Y Y O.c O.U U P P c = F 4X, r 9 .       ",
"  . ;Xz U U U U I U U U U I U U U U U U U U U U U U c O.c c O.c U Y P p = 2 7Xl y 9 9 .       ",
"    -Xs U U U U U U U U U U I U U U U U U U U U U U U U U U U U U I s - 2 .X].e e 9 8 .       ",
"    r.l U U U U U U U U U U U U U U U U U U U U U U U U U U U U z y * 2 ) ;X: e r 8 8 .       ",
"    # #XK U U U U U U U U U U U U U U U U U U U U U c U Y c c z y - w G 5X: t w 7 8 7 .       ",
"      ].k U U U U U U U U U U U U U U U U U U O.U U Y U c s s t * y G 5X1 t e a 0 8 ; .       ",
"      . -X, U U U U U U U U U Y c Y U U c O.c c c c d d z y , 2 y ( 5X: t r a a a 7 X         ",
"        O 4X: U U U U U U U c c c U c c c z c c c d d y 2 2 y e ,X*X$ e r p h h a 7 .         ",
"        . o 4XJ c U U U U U U U c c c c c z z d d y w w s y ) 0X9.= y y f h h h 8 @           ",
"          , X r.1X, c Y c c c U c c c c z s y y y y d e ^ 0X#X$ t y p m N N b 0 < o a.}       ",
"          . c : + |.3XH , s c c c z z x s d z s w l XXwX|.# , y u m M b b b a 8 . x.Z.P.k.    ",
"            . K I > . W =X7XXX( J 6 3 6 H ( XXqXeX.Xl X 2 u u m M n n B B a 8 X a ` &.*.1.    ",
"              . c U I u $ . O 4 W 9.w.q.^ k = X O , y s u m V V B B B B 0 7 .                 ",
"                . 2 I I K K c z u e w e y s d d s s d K T S S S S A a 8 - .                   ",
"                  3 . z P P c j j f z f z z f K T C ' C A A A B 0 9 < X $ 3                   ",
"                  i.0.. X w P U K K j d s p p N M b M h a 9 9 9 ; X . > i.W                   ",
"                  i.!     . . X * s j K K M K j j j j a r * X . .       ! k                   ",
"                  : .           . . . . . . . . . . D Y.A.P.3.  [                             ",
"                                                $ Y.T.B.L.F.3.c.Y.N.L.H.X.                    ",
"                                                 .T.L.L.F.3.r.f.I.K.D.4.C                     ",
"                                                  %.&.T X._.I ] &.1./.(.                      ",
"                                                  Z C C j                                     ",
"                                                                                              "
};
