/* XPM */
static char *ed7622a48b574a8df586a2e6e46620463NvCjChDRiHwgSD4[] = {
/* columns rows colors chars-per-pixel */
"50 50 154 2 ",
"   c #652500",
".  c #692601",
"X  c #662900",
"o  c #6C2C01",
"O  c #6E2C0A",
"+  c #702700",
"@  c #722E01",
"#  c #782F02",
"$  c #732F08",
"%  c #6F3101",
"&  c #743302",
"*  c #793603",
"=  c #763904",
"-  c #7C3A05",
";  c #75340A",
":  c #7A360A",
">  c #76380C",
",  c #7D3B0A",
"<  c #763411",
"1  c #7B3712",
"2  c #7D3C12",
"3  c #7E3C19",
"4  c #7E4007",
"5  c #7F410A",
"6  c #803A07",
"7  c #803B04",
"8  c #803D06",
"9  c #813E07",
"0  c #803F07",
"q  c #843F06",
"w  c #813D05",
"e  c #813B08",
"r  c #803A09",
"t  c #80390B",
"y  c #813B0A",
"u  c #803D08",
"i  c #803D09",
"p  c #823C08",
"a  c #823C09",
"s  c #803F09",
"d  c #823F08",
"f  c #803C0B",
"g  c #833D0A",
"h  c #823C0B",
"j  c #803E0A",
"k  c #813E0A",
"l  c #813F0B",
"z  c #823F0B",
"x  c #843F08",
"c  c #823B0D",
"v  c #803E0C",
"b  c #813F0D",
"n  c #823E0D",
"m  c #813D0E",
"M  c #833C0E",
"N  c #813F0F",
"B  c #833F0E",
"V  c #823E0F",
"C  c #823E0B",
"Z  c #833F10",
"A  c #853E10",
"S  c #863F11",
"D  c #823E12",
"F  c #803F19",
"G  c #834206",
"H  c #884603",
"J  c #8D4B05",
"K  c #814008",
"L  c #834009",
"P  c #824109",
"I  c #81400A",
"U  c #83400B",
"Y  c #82410B",
"T  c #854009",
"R  c #844309",
"E  c #85420B",
"W  c #87420B",
"Q  c #87450B",
"!  c #82400C",
"~  c #83400C",
"^  c #83410D",
"/  c #83420C",
"(  c #82400E",
")  c #83410F",
"_  c #85420D",
"`  c #84430D",
"'  c #86430C",
"]  c #84400F",
"[  c #86400F",
"{  c #84420E",
"}  c #85420E",
"|  c #85430F",
" . c #86430E",
".. c #85440C",
"X. c #87440D",
"o. c #85440E",
"O. c #87440F",
"+. c #86450F",
"@. c #87460E",
"#. c #84420C",
"$. c #88430A",
"%. c #89440B",
"&. c #89430F",
"*. c #89440D",
"=. c #88450E",
"-. c #89460F",
";. c #8C470E",
":. c #89450C",
">. c #86480D",
",. c #8B490D",
"<. c #804010",
"1. c #814111",
"2. c #834111",
"3. c #804012",
"4. c #814113",
"5. c #854110",
"6. c #844011",
"7. c #844210",
"8. c #854311",
"9. c #854112",
"0. c #874012",
"q. c #844212",
"w. c #854313",
"e. c #874312",
"r. c #864213",
"t. c #874410",
"y. c #874610",
"u. c #864412",
"i. c #874513",
"p. c #814115",
"a. c #824214",
"s. c #834315",
"d. c #864414",
"f. c #874515",
"g. c #854312",
"h. c #884510",
"j. c #884413",
"k. c #884612",
"l. c #894514",
"z. c #894715",
"x. c #894612",
"c. c #874813",
"v. c #8B4811",
"b. c #8A4913",
"n. c #8C4912",
"m. c #8D4A13",
"M. c #834319",
"N. c #8B4719",
"B. c #8E4A1A",
"V. c #904B14",
"C. c #914C19",
"Z. c #935117",
"A. c #95511A",
"S. c #99541B",
/* pixels */
"t c c c t * * 6 * 7 7 7 7 w 7 * - M +.) 5 - = = - 4 , , - - - - 7 - 7 7 7 7 6 8 * e A A c t : , t , ",
"0.S D c , t 6 g * - q x $.;.%.8 8 k , - - - K G - - ` >.Q , , - * - 7 q $.$.&.&.g g g g t , t t k - ",
", : * # @ & * t 8 W +.=.;.n.=.6 = * * - , L Q >.- - - & @ & = , - - K W =.=.=.+.- * * * : , , 2., - ",
"* & & # @ * - x ] =.+.W x x - * & & * - L +.L - 4 - * o o & * , ] %.=.Q W k k 6 * * @ @ , 2.0.0.M , ",
"M 2.) 0.g ] ] h.+.L 8 - - - - - = * , L +.` 4 - - K +.b.i.) , , i.] L , - - - - * * * , ) 0.0.2.) , ",
"2.0.i.h.g M , , , - * - 8 8 L +.r.s.) ) ) ` L K - K +.i.i.) , - - - - * * - k ) k x 0.0.h.i.2.M ) , ",
", , , , - * * * , - * - , , , ] 2.0.0.i.) Y +.+.- 4 - * & = , , - - - * - , , ) t M i.z.d.) ) ) , , ",
"- - , , , - , , 0., - , - * & * = 2 d.z.i.) L 5 = - ) ) M , , : M k , - , - - * * - 5 2.) ) ) i., - ",
", M ) 7.5 , * & @ o @ * 2.i., o @ @ & , h.+.K = - K L 2.2., : & = o o @ , M 2., & @ % * , i.i.` - - ",
"2.) , , * & o o X o = M i.2 & o o . o = , ) 5 , 4 L , , , = @ @ X o @ , d.d., = o X o o - , 5 5 , , ",
"5 = & % % % % o % = 2 s., ; o o + o o & * - - , , , - & @ @ O o O O : 5 M., & o o o o % & = = = , M ",
"- % % % & = > , 2.7.2 ; o o o % @ & & @ @ & * - , - * & @ & ; : M.5 5 , & o X X & & % & & = = & 5 , ",
"= = = = - 4 , , , > O o X o O = @ $ : : & @ & & , , - : : : 2 D 2 2 ; o X   X o % & & & & % % % , , ",
"- - - = = % o o o X X o o O ; ; ; : D D 5 , , * * = , = : * ; ; X . o o o % & ; % & = , 4 , - = = - ",
"= 4 5 , = o X X o o & > ; ; ; ; 2 2 r.N.z.0., - * * , , : & @ o o o O > > > & & & > 5 c.c.>.5 - * = ",
"- Y c.+., * & = , 2.s., , & & @ , 2.r.d.i., * & - , 0.z.r.D * @ 2 2 , 2 , ; & o & = 5 c.c.` - - & * ",
"q x ;.;.;.q 6 7 %.S x 7 7 7 e $.+.] %.W Q Q - & = 7 Q =.Q Q L 8 g 2.0.d., & - m.k +.;.>.,.$.G - % * ",
"q q q S q ;.S q q 6 6 6 x ;.;.;.$.R - - 7 R 7 * - - G G R $.%.+.k k - - ] h.b.=.W W K G 7 R H 4 & * ",
"q q J q ;.V.V.;.q 6 # 7 ;.S.S.V.Z.m.,.R +.Q 8 * - 7 R K Q ;.m.m.] =.- & k C.A.z.Z.V.n.Q R W $.x * = ",
"q q S x q V.;.;.;.q + # 6 V.;.%.=.;.h.;.m.n.W * - K W W ) m.m.m.x.x.k & @ - m.C.d.m.m.h.h.h.0.x - - ",
"6 q S S ;.V.;.%.x 7 7 # * w 7 * @ & - - +.m.h.k & - g ] i.b.b.h.h.W - * * @ - &.@ & * - , 0.l.l., , ",
"6 q S V.V.V.V.S 7 7 7 6 q - # + & @ + @ * ] 0.k & , 0.h.z.C.B.b.k & @ k &.- & & @ & + . o , F N.* , ",
"q x J S x &.x q 7 q x S $.6 7 * M , & + @ : , # * c f.z.N.N.z.g * & - W h.h.t * 0.M = o . # : , & * ",
"q x q q 7 7 7 # p q S ;.$.x $.=., - & @ & * * o * M r.c t , * & @ L n.] - ) z.z., M : $ @ # ; $ & & ",
"7 7 * * * * * q , 8 K L k k 8 k ) M , : & @ @ & : , : & , : : ] , K L ] W ) , , , S F D ; # # ; , , ",
"S g 8 k - * - 6 , 8 W L L k - - 0.M M , t , t , , 0.D c M , * t M W L k L L ) 0.c S f.r.D , 1 , , , ",
"S x e 6 - * * - - , ) b.m.z.+., , - * : M ) 0.2.c S , : c * & * * - , L 0.h.z.m.* , , c D D D ) i.2.",
"7 # # @ * * - k ) L ) h.B.z.) , & & @ * , 0.0.k * , & @ @ @ & t * - W h.b.i.=.+.* & @ @ * : ) i.0.5 ",
"* & & - * - , +.z.i.L , L , * & * * * 6 i.h.0., * - * & * - * k h.h.h.] R , - * * * & * , Y ;.;., - ",
"b.) L ) ) L ) i.) k - - - , - - - , 8 ] h.h.) - * ] &.+.m.] - t b.0., - * - , W * * - q ,.>.G , - , ",
"z.i.L ) L , 5 ] * * = - , ` i.h.L ) L ] ) L k k - ] ] Q h.k * - - * * * * - L +.- - 7 $.$.G G - ) , ",
"- - * = = * * , = * - - - - , L z.h.h.] L W ] =.- 8 * & * & * k * * - , 8 - - * ,.>.$.R H $.R ;.` , ",
"4 4 4 4 - - - = 5 4 - , 5 = = & & 1 M.M.d.7., 5 - - 5 s.2 , 2 2 , 5 4 = 4 5 4 % % = = - Q +.Y K - - ",
"4 Y 4 Y , = = % % % ; 5 5 , & % o & > 5 M.7.5 = , 5 2.2.2 : > ; % % % % > c.5 = % % % * , L +.+.- - ",
", 4 5 - & % o X X o > p.M.> % o o X o = 5 c.5 = 7.5 , > ; = O o X X X 4 5 5 , > % o o o = , ) i.* - ",
"> > % % o o O & ; > p.p.2 O o o o o o % , 5 4 = 5 > & % o o O o > O > 5 M.1 % % o o o o @ ; : , , k ",
"> ; O o @ ; > 1 3 M.3 < O O O O o % % % % * = = 5 = % o o ; > ; 5 > 5 5 < X X % + $ + $ $ $ # @ - , ",
"O ; > 1 1 3 3 1 3 1 $ . X . O O % & * & % % & = , - ; & ; > 2 3 < > > O     X O $ $ : < 1 : $ $ : - ",
"; : 2 2 1 : ; $ O $ O . . $ ; & & - 5 4 - = * - = , , 2 : , ; ; O % X X X O > O ; : , D F D , $ * = ",
"2 , : & o o .   . o $ @ 1 3 : O - K +.;.Q K - - & - , , ; o .   X X % % < 5 5 o & * c f.N.N.N.S , * ",
"5 ` i.L * o & L M = * M : o o = Q Y K 4 K G - o - ) h.i.2., * & ` 4 4 Y 5 * & - & * W h.x.&.x t @ & ",
"K G Y >., * - - L z.+.- * - , - ,.>.;.>.>.Q - o * k i.+.` ` , - = >.>.>.- & - +.L W q R x T $.=.& & ",
"$.G G $.,.,.G - , Q Q - , ;.h.W G Q W W i.+.- @ * k +.] +.=.,.>.>.4 - - K ,.Z.,.m.,.,.R w w q $.& & ",
"H G $.H ,.,.$.R G * * Q Z.m.;.m.;.+.L 8 L +.k * - L +.L Q ;.,.,.,.4 * & 4 Z.S.m.m.m.V.,.%.$.x $.& = ",
"4 G H $.=.,.,.=.Q * @ W Z.Z.m.m.V.V.m.=.z.h.M * - L Q R $.J ,.,.>.;.4 & @ 8 n.V.x %.l.l.;.;.;.l., , ",
"- H R $.$.;.,.,.W 8 & + - b.b.- - 8 ] +.m.m.i.* * - $.$.$.J J J >.Y = & & * - * * # # # 7 e S C., , ",
"7 Q ,.%.&.V.;.$.- 6 * # # 6 - @ + @ # * g N.h.x * R $.J J J J H +.: & = S 0.* # # # + + + # c S , > ",
"R Y ;.;.V.C.x.6 * * g V.&.* # * - * + . @ , g t - b.m.,.;.J H 7 @ & , B.N.D t S t : : # # # t M > > ",
",.;.>.;.+., * * ] &.x g &.A %.A - * % o , > = = : , , - * * * & , M L g ] x x c A g 0.: o o > % X % ",
"- - - - * & & * ] ] A $.$.x x x , 2 % o ; & o o = ; & ; ; : , , M L k L $.q x x g k 0., % X > O % > "
};
