/* XPM */
static char *_61fcf73eb314f32c409e098320a1370hXR8PPoDpn2ljxod[] = {
/* columns rows colors chars-per-pixel */
"50 50 207 2 ",
"   c #333D0B",
".  c #2C2C1E",
"X  c #35351E",
"o  c #363C18",
"O  c #2D2C2B",
"+  c #292824",
"@  c #333425",
"#  c #363A25",
"$  c #34322D",
"%  c #3A362D",
"&  c #36392E",
"*  c #3B3C2B",
"=  c #2F2C33",
"-  c #322E33",
";  c #362E3C",
":  c #343334",
">  c #393636",
",  c #3B3A35",
"<  c #36343B",
"1  c #3A363B",
"2  c #3C3B3C",
"3  c #413E33",
"4  c #413E3A",
"5  c #3E4C0E",
"6  c #3D4712",
"7  c #3E4A13",
"8  c #3D451B",
"9  c #3E481B",
"0  c #3E4423",
"q  c #3F4A25",
"w  c #3E482B",
"e  c #3C412D",
"r  c #3F4234",
"t  c #3E423D",
"y  c #414D0C",
"u  c #414F02",
"i  c #455404",
"p  c #485704",
"a  c #475C04",
"s  c #4A5C03",
"d  c #45540B",
"f  c #475909",
"g  c #4C5D0D",
"h  c #48520B",
"j  c #515F07",
"k  c #505F0C",
"l  c #404711",
"z  c #434D14",
"x  c #40471D",
"c  c #444D1C",
"v  c #455213",
"b  c #4A5514",
"n  c #4D5C14",
"m  c #45511C",
"M  c #49551C",
"N  c #4D5B1B",
"B  c #515D14",
"V  c #515E1C",
"C  c #4D6304",
"Z  c #4E620C",
"A  c #4F680C",
"S  c #516405",
"D  c #536902",
"F  c #52640B",
"G  c #55690A",
"H  c #5A6C0D",
"J  c #4F6313",
"K  c #526213",
"L  c #536913",
"P  c #5A6811",
"I  c #52621C",
"U  c #576A19",
"Y  c #414526",
"T  c #444D23",
"R  c #494F24",
"E  c #41462C",
"W  c #454D2B",
"Q  c #494E2C",
"!  c #465124",
"~  c #4A5423",
"^  c #4D5B24",
"/  c #455129",
"(  c #4A532C",
")  c #4D592A",
"_  c #515D23",
"`  c #515D2C",
"'  c #424334",
"]  c #454B33",
"[  c #494E35",
"{  c #43433C",
"}  c #49443E",
"|  c #45493C",
" . c #4A4C3C",
".. c #484234",
"X. c #475131",
"o. c #4B5334",
"O. c #4E5931",
"+. c #4C533D",
"@. c #4F583D",
"#. c #515635",
"$. c #525B32",
"%. c #555C3B",
"&. c #595E3A",
"*. c #536222",
"=. c #55622B",
"-. c #59652C",
";. c #5A692E",
":. c #556333",
">. c #5A6433",
",. c #5B653B",
"<. c #5A6538",
"1. c #353341",
"2. c #3B3643",
"3. c #3C3B43",
"4. c #3B364D",
"5. c #3D3B4C",
"6. c #3E3B51",
"7. c #413E43",
"8. c #423E4B",
"9. c #423F51",
"0. c #3E4242",
"q. c #3F4052",
"w. c #434344",
"e. c #494545",
"r. c #464944",
"t. c #4B4B45",
"y. c #45434B",
"u. c #4A464B",
"i. c #464A4C",
"p. c #4C4B4C",
"a. c #514D4D",
"s. c #4D5242",
"d. c #4F5843",
"f. c #4D514C",
"g. c #525545",
"h. c #535B43",
"j. c #5A5F44",
"k. c #52534C",
"l. c #565C4A",
"z. c #595C4C",
"x. c #454453",
"c. c #4B4754",
"v. c #4C4B53",
"b. c #46445C",
"n. c #49475B",
"m. c #4C4C5B",
"M. c #454851",
"N. c #504E53",
"B. c #524F5B",
"V. c #4E5155",
"C. c #4E515C",
"Z. c #545354",
"A. c #585653",
"S. c #555A54",
"D. c #5B5B55",
"F. c #53535C",
"G. c #59565B",
"H. c #56595C",
"J. c #5B5B5C",
"K. c #615F5C",
"L. c #5D6544",
"P. c #57604F",
"I. c #5C644C",
"U. c #5C6453",
"Y. c #5F6854",
"T. c #576158",
"R. c #5D625D",
"E. c #606355",
"W. c #62635D",
"Q. c #656952",
"!. c #4D4D63",
"~. c #4D4D69",
"^. c #504E62",
"/. c #514D6B",
"(. c #4F5264",
"). c #545463",
"_. c #595665",
"`. c #565963",
"'. c #5B5C64",
"]. c #54546B",
"[. c #59576D",
"{. c #56596A",
"}. c #5C5C6B",
"|. c #555372",
" X c #5C5C73",
".X c #5D5D79",
"XX c #585676",
"oX c #605F63",
"OX c #605F6D",
"+X c #605E74",
"@X c #615C7C",
"#X c #5D6067",
"$X c #5E6165",
"%X c #5E616A",
"&X c #5E616C",
"*X c #5F6073",
"=X c #626364",
"-X c #606269",
";X c #62636C",
":X c #66686B",
">X c #676968",
",X c #626373",
"<X c #696774",
"1X c #6A6971",
"2X c #65647B",
"3X c #6A6C7C",
"4X c #656871",
/* pixels */
"| I I J.*X}.$X}.'.{.}.V.M.r c.B.m.C.).{.}.}._.).F.l.2 : $ e.Z.p.N.Z.Z.A.J.oXoXK.OX=XK.A.7.- 2 Z.Z.A.",
"| g g H.*X`.$X*X X$X#X(.x.> 4.y.w.3.2 > > > < > & v v M x w.c.p.a.Z.Z.Z.G.K.oXK.K.D.K.K., X ' p.A.k.",
"n g Q _.4X#X'.&X}.H.{.*Xf.5 # 1 > 2 2 , , 7.e.e.V.h.-.L M y.p.p.p.p.N.k.N.A.G.K.K.[.J.oX{ l h | N.a.",
"S N { _.4X&X}.#X%X&X`.{.C.M T n.B._.'.'.OX;X<X1X2X2XD.n v t.t.u.a.p.p.p.a.Z.G.K.z.K.G.J.g.B v w.N.p.",
"W M R S.&X}.*X}.#X&X'.{.C.n ) ]._._.{.`._.}.-X,X&X$X&X) p ] x.r.p.u.p.a.p.p.N.A._.K.G.G.>.j z , e.u.",
"0 c T k.%X}.*X#X`.#X}.*XS.F N f.{.G.F.).'.}.%X;X;XR.R.=.F o.y.} u.p.p.p.p.a.p.p.K.k.J.F.A.~ Q 2 t.u.",
"d m ] Z.;X-X&X$X*X&X'.`.{.~ o.v.F.F.H.'.'.%X$X}.*X}.S.n B [ 4 e.w.w.t.u.p.a.p.u.3 e.} 4 | l l 8 * 3 ",
"M k ~ J.;X'.}.}.#XXX%XR.F.5 7 v.)._.{._._.&X,X}.&X$XQ.f C T : ; $ > 1 > 2 7.2 2 > b 6 c H k T k Y ..",
"} B I '.*X&X#X*X*X X{. X`.I v 5.].{.}._.'.*X=X X_.XXG.( ` 4 ; @ : O . . O % x b n G J Z C =.Z.z.Z.A.",
"B. .) Z.S.T.S.H.H.=.@.(.@.C C ) o.O.M.| | 0.3.0.o.o.| 2 v.N.G.F.y.t B._.B.D.I Z r.d.k.O.D :. X3X;X:X",
"}.p.M ^ n J g N J C a f p b ^ S s D 8 8 m G ~ m g G N | F.J.J.[.y.' }.-XG.).W ! M.).{.<.G =.}.,XOXOX",
";XF.N ^ ` J N ^ I O.O.I g J I ^  .:.M.y.+.K X.i.f.d.V.).[._.B._.u.' '.'.V.~.5.< M.V.).s.m g.}.=X'.'.",
"}.'.m s. XR.#X}.}. X;X=XU.>.<.`. X X].W.-.f W x.M.n.v.F.G.F.Z.A.y.2 {.+X^.].8.% b.f.v.8.: n. X;XoXoX",
"'.S.  w.2X&X&X4X=X;X,X4X,X,X}.{.J.^.C.A.=.g / b.r.f.V.F.F.F.m.).4.3.v. XF.G.8.% x.Z.F.8.O w.'.}.}.oX",
"+Xp.. 8.-XOX$XR.W.$X,XOX'.H._.F.Z.C.].!.[ b ' x.y.v.F.F.v.F.m.m. ./ f.&XA.F.c.{ 1.M.n.y.O t.}.*X-X-X",
"OX7.O y.W. X X,X&X,X,X}.J.)._.F.H.C.~.d.*.L 1.5.x.!.m.Z.V.m.B.F.^ n M.*XF.n.{ W 3.y.8.3.O p.}.$XOXOX",
"}.5.T t.@X-X@X;X X$X}. X`.).`.F.(.V.~.f.s ^ 4.w.r.v.n.p.C.M.n.y.5.b f.(.v.!.) D | < y.< < c._.H.'.OX",
"%Xt.b W F.`.].T.}.)._.V.v.(.~.v.!.f.Z.M.E N Y 4.6.6.y.R m @ : : q 7 W T w t f L 0 1 1.< 4 p.^.(.F.G.",
"].) Z N c / m F x T L g 9 ! , 2 > : : : 2.#.c ; $ y B k K M n n i m m n ) ) J ;.R q.1.w...| m.{.F.G.",
"(.d.I B ^ ` N U ` o.Z ^ +.) { & 2 5.y.y.4 3 3 ..c.+.A.L.L.[ f F s.V.H.Y.>X$X%X&X>X2X;X4Xe., m.m.B.).",
"v.M.5 m ].{.A.[.J.|.v.V.m.v.i.& }.1X:X;XF.$ 4 A.K.oX+X;X'.r.M k.F.H.H.&X%X;X,X}.}.}.$X;Xx., v.m.B.F.",
"n. .h ( H.V.C.S.=.$.q.3.< : z z ;X3X-X;XOX2 } G.k.D.K.D.A.N D h.~.C.V.].].%X$X}.-X=X'.&XB.2 w.m.m.F.",
"y.J Z ^ Z v m s C D T ! M M v  .'.,X;X-X_.2 , N.z.A.A.J.'./ n @.~.(.(.H._.&X-XOXOX;XXX$XA.5.r d.f.k.",
"/ H J L C J f n Z L N g D I g.G.>XK.:X X_.' * a.B.A.D._.D.n I t.m.V.m.V.h.V.F.'.K.P.T.;.>.p.n C ! ~ ",
"G C j F K B I I g.A.#.D F R.1X;X;X;X;X;X'.1 1 a.G.G.J.D.l.V p ( 1 ' Y o.F f n C m J C C A K B z z B ",
",.&.j.j.j.l.z.E.a.A.a.c [ }.:X;X<X,X-X=XJ.3.> ..Z.A.Z.J.y.Y h R 0 M M #.K ~ ` *.h._ f Z L F M [  .j.",
"=XK.K.K.G.A.Z.F.N.N.c.- 8._.oX%X-XOX;X,X}.( R u.a.A.Z.J.{ c V p.v.D.J. XW.}.*X&X`.R.:.Z C >.Q.oXoX=X",
"K.J.A.G.K.K.k.a.N.a.a.4 1 G.:X,X;X,X-X}.[.+.M { a.a.N.v.c K %.[.'.=X-X,X;X;X,X#X*X#X$.F U E.oXK.J.oX",
"J.G.J.J.A.Z.A.A.k.a.t.4 , f.*X&X-X;X&X-X X+.N 2 u. .t.3.n G k.G.}.;X X*X4X%X&XR.$XY.*.A ) J.J.K.K.K.",
"K.oXG.G.G.Z.Z.N.k.p.e.e.$ 0. X).'.$X}. XXXo.g 8.e.a.w., F F _.'.`.#X;X%X&X%X}.$X`.*X,.b R K.K.=XK.W.",
"K.G.k.A.Z.Z.N.a.a.p.u.w.r | (.H.(.`.F.S.).w.b x 8.a.8.e F $.]. X).`.}.$X X&X X*X.XXXr.b [ oXA.A.G.G.",
"K.K.K.A.N.N.a.N.v.p.t.t ] o.m.C.(.S.m.V.). .F ) 8.3 7.o ] |.(.Z.).`.{.R.*X$X`.}.#XY.L a ' oXK.OXK.K.",
"e.e.r.A.F.Z.t.v.a.a.u.| M ^ V.C.~.~.f.!.n.t.G X.q.2 r z v.{.H.(.C.(.).&X}.'.=X$X{.=X*.C t V.$Xk.p.a.",
"& * , 4 w.{ } { 1 , 4.[ G G / r ) +.r.=.w e q J 9 | 6 b V.).V.|.).S.Z.H.{. X}._.S.v.r N n M g v O > ",
"p b c c z M v z =   l p C M v 7 Z f 7 D n n b C i *.f o.).`.V.f.F.m.x.!.n.M.0.t S n ] ^ D -.n z O > ",
"D.&.k S &.T.z.%.^.A.D.I.I.J.{.;X;.Y.#Xd.q w O.:.] *.g t.`.n.C.y.2 < = 0 d i v ~ I ` s.^ S +.| t.y.a.",
"{.V.N N '.XXH.}.'.{.}. X>X>X,X2X*X2X4XR.G M t.i.V.r.W ( +.e N c , 1 2. .O.#.S.&X&X*X{.I D _ v.^.B.F.",
"].+.p g H.).Z.).'._.G.}.,X;X,X$X X$X#X.X( f ] ~.f.M.[ D s / h.Z.'.;XOX,X+X,X;X$X#X#XP.g C K m.f.F.F.",
"H.o.M g.}._.H.{.G.G.'.;X*X&X%X&X$X*X`.'.| 5 w (.V.!.w.N ! V.{.).B.'.J.'.}. X}._.#XC.S.s.U N n.k.F._.",
").z y [ F.F.).).].).}.;X&X&X$X&X%X}.&X#Xd./ t s.F.n.Y v C.F.V.C.m.(.).}.&X}.}.OX{.&X.Xm.C G m.x.v.F.",
"g.` ! f.).).).F.'._.*X&X#X%X:X%X#X%X{.$Xm.m i k.C.0.2 , v.F.Z.).(.).).'.%X%X$X{.#X#X).i.~ ( b.y.y.N.",
"V g m V.C.F.).).{.'.#X*X*X*X&X%X&X&X*X{.{.2.# y.C.v.2.O p.V.v.].H.'.V.F.{.}.&X&X{.#X X@.v r y.i.c.B.",
"_ J ~ V.).).).].{.&X#X#X&X{.{.#X'.{.}.{.J.q.e t b.r.1 > 8.].).C.F.'.).{.}._.#X$X.X`.&Xd.T 1 9.i.c.B.",
"o.N N +.i.n.m.N.F.*X&X%X$X$X&X*X,X}.J.}.k.^ S ' n.f.3.; 7.B.V._.F.G.F.).G.).`.*X'.#X#XC.2 : 6.c.c.B.",
"^ G j R , 3.7.: w.B.)._.).H.).(.F.!.v.s.r N n c 4.1.< r ] p.Z.H.].[._.).).G.`.'.}.*X X].3., 4.M.7.e.",
"V P V  .7.e.4 , $ - - 1 < $ 0 c 6 9 8 y v 5 ! a @ . X F ^ n.(.n.v.F.m.B.F.v.v.y.V.C.m.s.E 3 > 1 $ , ",
"$.n M D.[.'.'.J.8.2 2 3., * $.-.s.&.O.l.l.o.f.h.Z./.r.f J ! m o.n ^ Y , 1 2.7.t W q q 9 x % $ : , 4 ",
",.F a L.:X,X X}.oXOX_.J.y.0.F.).'.@X%X*X$X%X4X&X:X<Xg.d ! M D i a N R * * Y B G C C G v ..X 4 p.a.K.",
"k.K n }.,X}.$X'.}.'.C.m.p.w.N.m.F.).}.&X;X&X}.}.'.$X;.g c s.g.#.f.f.t.t.e.t.g.z.&.,.&.&.Q * } K.K.A.",
"g.F J {.,X}.'.{.}.{.C.m.v.2 v.m.C.F.`.}.&X&X&X&XXX Xg.! * v.N.a.Z.J.J.=XW.K.W.W.K.=XoXK.4 $ 7._.J.A."
};
