/* XPM */
static char *_d83de33936f4debdf607c4db50301e8iXnieB6szbhuKLdL[] = {
/* columns rows colors chars-per-pixel */
"50 50 119 2 ",
"   c #32281F",
".  c #362C23",
"X  c #392E26",
"o  c #3A3027",
"O  c #3D3329",
"+  c #41362D",
"@  c #43392F",
"#  c #453B31",
"$  c #493E34",
"%  c #4C4137",
"&  c #4E4339",
"*  c #51463B",
"=  c #54493E",
"-  c #564B41",
";  c #594D43",
":  c #5D5146",
">  c #5E5449",
",  c #605447",
"<  c #62564A",
"1  c #65594D",
"2  c #695C4F",
"3  c #665C50",
"4  c #6A5E52",
"5  c #6D6155",
"6  c #6F6458",
"7  c #716356",
"8  c #72665A",
"9  c #75695C",
"0  c #7A6C5E",
"q  c #7F705F",
"w  c #7B6D61",
"e  c #7E7164",
"r  c #827365",
"t  c #847669",
"y  c #86796B",
"u  c #8B7C6D",
"i  c #8D7E71",
"p  c #8F806F",
"a  c #90806F",
"s  c #8F8072",
"d  c #938474",
"f  c #988774",
"g  c #978877",
"h  c #998977",
"j  c #968778",
"k  c #978879",
"l  c #9B8B7B",
"z  c #A08F7E",
"x  c #A2917E",
"c  c #9E8E81",
"v  c #9F9083",
"b  c #A59482",
"n  c #A89784",
"m  c #AC9A86",
"M  c #A69588",
"N  c #AB9A8B",
"B  c #AF9D88",
"V  c #AD9C8B",
"C  c #AE9D8A",
"Z  c #B09D89",
"A  c #B29F89",
"S  c #B19F8A",
"D  c #B19F8B",
"F  c #AF9F91",
"G  c #B09F91",
"H  c #B3A18B",
"J  c #B2A08D",
"K  c #B5A28C",
"L  c #B8A58D",
"P  c #B9A68E",
"I  c #BCA88F",
"U  c #B3A191",
"Y  c #B5A393",
"T  c #B7A594",
"R  c #B8A591",
"E  c #BAA791",
"W  c #B9A692",
"Q  c #B8A696",
"!  c #BBA892",
"~  c #BDAA93",
"^  c #BBA896",
"/  c #BEAB94",
"(  c #BEAB96",
")  c #B8A698",
"_  c #B9A798",
"`  c #BCAA99",
"'  c #BDAB9A",
"]  c #BFAC98",
"[  c #BEAC9A",
"{  c #C1AD95",
"}  c #C2AE95",
"|  c #C1AD97",
" . c #C3AF97",
".. c #C2AF98",
"X. c #C1AE9B",
"o. c #C3AF9A",
"O. c #C0AE9C",
"+. c #C3B09B",
"@. c #C4B099",
"#. c #C5B19C",
"$. c #C5B29E",
"%. c #C6B39E",
"&. c #C8B49E",
"*. c #C3B1A0",
"=. c #C6B3A0",
"-. c #C5B3A2",
";. c #C9B5A2",
":. c #C9B6A3",
">. c #CAB6A2",
",. c #CAB7A2",
"<. c #CBB8A5",
"1. c #CCB8A4",
"2. c #CCB9A5",
"3. c #CEBBAA",
"4. c #CFBCAB",
"5. c #D2BEAC",
"6. c #D4C1AE",
"7. c #D5C1B1",
"8. c #DAC6B7",
/* pixels */
"u d e = 1 B 1 4 1 O 1 u u r 3 + $ 5 = , z $ = - + : y w w w 5 - o % 3 8 6 4 ; 7 0 ; ; ; * 8 8 $ 0 w ",
" . .@.U u < e 5.%.l m R m Z R k 9 i 9 ; 9 4 Z n # r  . . .o.-.$.d 1 b ! R / [ 9 w R o./ Q ) _ l b  .",
"l n B K ~ j i O.Z Z 3 3 3 ; 6 l 7 @ r G b < 9 > + r h l z c Z R >.n 8 s k k y = l @.K Z K R o. .r r ",
"> e s d d 0 u j i d : w N s ; < u r G @.R Z 2 . . ; 4 5 9 r i l b ..w & 1 5 5 , < u k k j l l b 7 . ",
"4 : 1 ; $ : l i w ; ; m Z m < . 9 9 r f u u 5 $ + X + + @ < w w k d > t M ` <.$.x $ * 3 9 w w 9 ; : ",
"%.Z u * t ] 2.>.%.w d m i 8 u l i $ + $ * % # i 1 4 m l < $ : < 3 - 1 >.@.J B B x & @ + O # # . : / ",
"m J / d r K Z m Z l t y 4 t o. .%.9 + 4 r 8 : 9 * u D  .o.G F N U U e l k d s d r r Q G : @ j r ; i ",
"8 u i 5 * u d d 8 - d J j w i k l h ; n J Z U 9 X 4 d k b Z G Y W J u ; 1 9 3 - r  . ./ u 4 -. .r + ",
"+ 4 : o X = 1 , + X : 8 w < 1 ; : 1 + = w t y ; 2 1 * 3 7 w u i d d 0 0 S =.k - J Y n l e 0 K M i @ ",
"u ] m 1 . * u = o , t % O d U , 9 d # X $ ; & + r 9 + + X O * 4 8 2 1 ] @.@.~ 5 h d t w ; w l d r $ ",
"U m u - 1 1 k 1 4 3.8.Y w w 4 $ y w 9 l G K u t # 4 ) G i * O $ , 1 r J n b b y : 9 < @ . $ : : ; h ",
"d w 3 = = + * ; i 5.%.>.<.] 1 * l 8 y U n b k l , R 2.2.3.` N Y 5 o , s d s i t * : r u 5 = ; - , Z ",
"- + r t X 4 4 ; u [ Z m Z J d m 8.] - ; 4 9 : $ % x ~ I / /  .o.] 1 o = 5 8 5 : . 2 -.1.>.>.3.<.9 = ",
"F c < % * Z i O 0 D l k j l y F %. .d + + 4 3 O   0 n b b b b m J l ; u % = 8 7 @ r P K K K D U r , ",
"2.2.z # + < - . 0 c k k k i 3 w P m b 9 r 5.2.r 1 , t j j j j j k 9 # 0 y Y &.&.u & t d j j d u : h ",
"K m m 0 X j G * = u u y w 8 $ $ d k k d K &. .x i 8 O & 6 r w r 9 o > $.<. .P Z x & @ : 8 4 3 w 4 u ",
"j j d 8 * o.7.G & < 4 4 8 < # X 7 y t 6 e ! P l @ : u = # 1 2 1 # + z &.Z n b d t - . $ t ; + b f 1 ",
"9 e 9 = & K  .-.w + O 3 U Z b y ; 8 8 : y v l y O : x 7 r y & 1 0 0 h m l s y w 8 - $ 8 d 0 : 4 2 + ",
"# $ # # $ l m D K u + @ ; 1 4 8 # 6 4 $ y l l e 0 8 * @ : 9 : * 1 0 1 y r 9 ; % # @ M 2.-.%.-.Z , . ",
"# $ O t w y l k l h $ 4 m F k 4 1 8 * % w d d e 1 9 < u B ` ! f # + . + * @ 4 y $ = m Z Z Z K R t . ",
"Y =.d & @ 8 u i i w # d J B R ~ o.Y * + 6 9 9 6 O # Z  .R ! I I 1 . # 9 V V i u ; # 9 r t y t t < # ",
"&.@.:.i X ; 8 w 3 4 0 w l k l l c Z u O = 9 w 8 ; & d k l k k f = $ m 5.-.2.O.d 3 + X $ - $ + O . 8 ",
"n n B Y t * & # O ; 9 ; w y i i i i 0 : > < 5 > d 0 : 3 6 5 3 : , u &.} R I P R R 1 O 8 c d w 9 < & ",
": u l l D B 0 O 4 _ l ; o $ : 1 1 - O 0 u O X O 1 = @ 8 j l = & h u I J b l j i 8 + 4  . . . .{ I , ",
"% 5 8 u d k u + s 5.<...w @ 9 Z 3 $ w u 9 : * * y 1 % d l k 1 ; 0 $ , 4 5 3 : * O X 3 n c l z z f ; ",
"5 d & 1 5 3 8 - 8 I K K P l r y < n 5.2.>.>.>.0 o # 9 l b k 1 # @ X 2 i r 7 + . ; c 7 4 8 9 0 9 < X ",
"5 & # 4 < % y y 1 d d d s d 9 . < ^ J Z D m B j , 2 K ~ R  .] b t ; , r < = ; 8 8 r 1 . X $ $ + O 3 ",
"6.i O % M V 5 o = 3 1 4 4 < 3 - & d j j j j j t = 1 y d d g x m I x + < l V O.2.O.i + . t o.` 0 * *.",
"2.>.r ; m &.[ w # # 7 < O o r l $ & , 4 5 8 6 : X O ; - < 6 w t u 0 # n %. .K K P R 4 O G 5.2.r # U ",
"I ~ / 9 * l B @.A 8 $ & 3 < - 3 + . . X $ 8 1 # : & s e o o # % # $ $ r b l i y t u 1 5  .R n ; X u ",
"x b m u O 8 j l J m # i =. .@.o.c w 8 & . 3 k 8 l > t l < & & $ . u u + & % & * ; 1 < l Q z r @ $ f ",
"d i d 8 + # 8 t d i $ x ! K K ! ~ o.%.k # b 7.u O 5 3.<.:.^ ] N 1 1 7 # # ; r 7 @ 0 d i b r 1 u t r ",
"9 w 5 - l ; O & : 3 O = 4 0 t y u u t 3 * K / x : 0 K n b b l k 0 , N F U %.3.$.l < + , t 8 < n i = ",
"& ; # X < & . . 8 U 4 . . X @ # * w 8 % ; m b r u - 8 0 8 8 3 ; O t o.K m m b l f 8 . # 1 * # 1 = X ",
"X X o < l c r w 1 7 , w j t 1 O O t m 7 , j r & @ 8 J t O o O - # , s t 9 6 3 : , $ : # @ - : ; # X ",
"o 8 M @.%.] Q ) i + k 2.>.&.o.b 0 ; * O * 3 % 3 0 1 e 0 4 + * n g # O o 8 l d * . - m 4 b ] ^ _ m , ",
"& B U x d r 9 w 5 + b / B m n K U K l @ X O X 4 7 # 0 Q 5.V : : 8 O o * 0 u t 9 1 * 1 * j x l g h ; ",
"X : 8 4 : # O * # o u z d i u u i j r O @ w c w o d >. . .%.Q 8 # . 4 >.-.o.@.>.%.r o < : & = - = X ",
". . X - 3 # d [ n t - - : : : < 3 : + * V 3.2.R ; K P m b n m m 9 X u @.~ R K Z z = . 3 9 3 = - t 2 ",
"4 e w 8 - O 6 B ~ K i - . . 3 w * . & N 2.R B u % n l d t w w 7 : + ; l l d s e & & i $.:.=.] l d u ",
"2.>.-.:.o.n e 4 r t w - X O : 8 < o c 1.m l d 3 - 2 1 = % + O . 4 y O = 3 8 < + . d  .B n l B u # i ",
"~ J m n m Z R Z : % 3 u c B l r * X 0 g u t : * x = . o . = s e $ 5 i b r ; O X = 8 y w 0 9 3 # X h ",
"f i e w w w w e % 0 2.&. .P K N k : i j 2 * # , = % y l v _ >.@.d u @.o.o.R 9 < &.$.y @ X X 4 u * r ",
"= % # O # O + O . y  .m l l d i w - l J 0 o u / % 9 2.@.] K n x z 9 d b b m z r ]  .o.l r ; 3 n , # ",
"p 2 @ a l 4 X ; r < 0 5 7 1 > : $ O : 4 ; O r l % ; l l d y e 6 4 # ; r r t 8 4 y j l M Z m < # = y ",
"5 5 + 8 t : $ * , + . # l k * X ; l *.Y K d = % < r & @ O @ % ; : # . = - @ ; i + & 3 4 9 8 # . + ; ",
"r r , : : u ` ` d : O O < r * 9 >.=. ./ P Z y @ @ ; , 2 8 k R -.&.x = 4 $ * 1 i w i l w # X * u c d ",
"o.%.~ 0 X u  .R / K d 0 1 $ # B  .m b x k d r * o 0 ..2.%.] P n h i ; O u *.O.>.=.[ ^ m - . l <.&.%.",
"i i e 8 4 1 u s u u s y w - : 5 t t 9 w w 8 > 8 y e B x a p 0 9 7 l r + 9 z h l d i 9 * 4 r 1 d h d ",
"$ $ o ; u $ $ * - = & % O O 1 - 8 5 & q 1 # o * 8 % & % % @ @ p u 1 , O + $ = < : * O . = r + + $ $ "
};
