/* XPM */
static char *result[] = {
/* columns rows colors chars-per-pixel */
"80 80 171 2 ",
"   c #040505",
".  c #070708",
"X  c #070808",
"o  c #0B0B0C",
"O  c #0E0F10",
"+  c #0F1011",
"@  c #121214",
"#  c #161619",
"$  c #17181A",
"%  c #1A1B1D",
"&  c #1D1E21",
"*  c #1F2023",
"=  c #212226",
"-  c #2A2626",
";  c #242629",
":  c #27282C",
">  c #292A2E",
",  c #38282A",
"<  c #34302F",
"1  c #2C2D32",
"2  c #2F3035",
"3  c #313236",
"4  c #33353A",
"5  c #37383E",
"6  c #38393F",
"7  c #3B3034",
"8  c #522323",
"9  c #43373C",
"0  c #423D3C",
"q  c #4C3A3E",
"w  c #533436",
"e  c #612423",
"r  c #78312F",
"t  c #683B3D",
"y  c #783C3D",
"u  c #3B3D43",
"i  c #433E44",
"p  c #4A3D42",
"a  c #523F42",
"s  c #3E4047",
"d  c #3F4148",
"f  c #434145",
"g  c #4A4445",
"h  c #43444B",
"j  c #4A464B",
"k  c #46484F",
"l  c #4D4B4F",
"z  c #4D4846",
"x  c #5C464A",
"c  c #514749",
"v  c #474950",
"b  c #4B4D54",
"n  c #524D51",
"m  c #584F55",
"M  c #4E5057",
"N  c #4F5159",
"B  c #535154",
"V  c #5B5555",
"C  c #52545C",
"Z  c #5B565D",
"A  c #56585F",
"S  c #5D595D",
"D  c #6A4549",
"F  c #77484B",
"G  c #684F54",
"H  c #67565C",
"J  c #735459",
"K  c #70585E",
"L  c #555760",
"P  c #565961",
"I  c #5A5C64",
"U  c #5C5F68",
"Y  c #625E63",
"T  c #6A5F65",
"R  c #745B61",
"E  c #5E6067",
"W  c #5E616A",
"Q  c #646163",
"!  c #62656D",
"~  c #66686F",
"^  c #6C686A",
"/  c #70676E",
"(  c #646770",
")  c #666972",
"_  c #6A6C75",
"`  c #6C6F78",
"'  c #716D71",
"]  c #6E717A",
"[  c #777374",
"{  c #72747D",
"}  c #7B757D",
"|  c #77797F",
" . c #7C7A7C",
".. c #862E2B",
"X. c #84322F",
"o. c #883937",
"O. c #823B3B",
"+. c #843836",
"@. c #9D3B37",
"#. c #A13932",
"$. c #854243",
"%. c #8E4444",
"&. c #8A5558",
"*. c #905051",
"=. c #98595C",
"-. c #A84A46",
";. c #A95855",
":. c #805F65",
">. c #915D60",
",. c #88676D",
"<. c #806970",
"1. c #83767D",
"2. c #907278",
"3. c #B6706F",
"4. c #B57374",
"5. c #737680",
"6. c #767983",
"7. c #7A7C85",
"8. c #7B7E88",
"9. c #867C84",
"0. c #927C83",
"q. c #7E818A",
"w. c #82848D",
"e. c #89848D",
"r. c #86888F",
"t. c #94858D",
"y. c #848791",
"u. c #868992",
"i. c #8A8C95",
"p. c #8C8F98",
"a. c #998890",
"s. c #8E919A",
"d. c #92959D",
"f. c #97999F",
"g. c #9B959D",
"h. c #A4888F",
"j. c #BD8686",
"k. c #9497A0",
"l. c #9699A2",
"z. c #9A9CA5",
"x. c #9D9FA8",
"c. c #A19CA5",
"v. c #B09FA7",
"b. c #9EA0A7",
"n. c #9EA1A9",
"m. c #A2A4AC",
"M. c #A5A8AF",
"N. c #B3A1A8",
"B. c #A7A9B0",
"V. c #ABADB4",
"C. c #AEB0B7",
"Z. c #AFB1B8",
"A. c #B3B5BB",
"S. c #B6B8BE",
"D. c #B8B9BF",
"F. c #B1B2B7",
"G. c #BBBDC3",
"H. c #C5BCC4",
"J. c #BFC1C6",
"K. c #C2C4C9",
"L. c #C8C9CE",
"P. c #C3C5CA",
"I. c #CBCCD1",
"U. c #CFD1D5",
"Y. c #D1D1D6",
"T. c #D5D6DA",
"R. c #D7D8DC",
"E. c #D9DADE",
"W. c #DDDEE2",
"Q. c #EBEBEE",
"!. c None",
/* pixels */
"!.!.!.!.!.!.!.!.!.!.!.!.!.!.!.!.!.!.!.!.!.!.!.!.!.!.!.!.!.!.!.!.!.!.!.!.!.!.!.!.!.!.!.!.!.!.!.!.!.!.!.!.!.!.!.!.!.!.!.!.!.!.!.!.!.!.!.!.!.!.!.!.!.!.!.!.!.!.!.!.",
"!.!.!.!.!.!.!.!.!.!.!.!.!.!.!.!.!.!.!.!.!.!.!.!.!.!.!.!.!.!.!.!.!.!.!.!.!.!.!.!.!.!.!.!.!.!.!.!.!.!.!.!.!.!.!.!.!.!.!.!.!.!.!.!.!.!.!.!.!.!.!.!.!.!.!.!.!.!.!.!.",
"!.!.!.!.!.!.!.!.!.!.!.!.!.!.!.!.!.!.!.!.!.!.!.!.!.!.!.!.!.!.!.!.!.!.!.!.!.!.!.!.!.!.!.!.!.!.!.!.!.!.!.!.!.!.!.!.!.!.!.!.!.!.!.!.!.!.!.!.!.!.!.!.!.!.!.!.!.!.!.!.",
"!.!.!.!.!.!.!.!.!.!.!.!.!.!.!.!.!.!.!.!.!.!.!.!.!.!.!.!.!.!.!.!.!.!.!.!.!.!.!.!.!.!.!.!.!.!.!.!.!.!.!.!.!.!.!.!.!.!.!.!.!.!.!.!.!.!.!.!.!.!.!.!.!.!.!.!.!.!.!.!.",
"!.!.!.!.!.!.!.!.!.!.!.!.!.!.!.!.!.!.!.!.!.!.!.!.!.!.!.!.!.!.!.!.!.!.!.!.!.!.!.!.!.!.!.!.!.!.!.!.!.!.!.!.!.!.!.!.!.!.!.!.!.!.!.!.!.!.!.!.!.!.!.!.!.!.!.!.!.!.!.!.",
"!.!.!.!.!.!.!.!.!.!.!.!.!.!.!.!.!.!.!.!.!.!.!.!.!.!.!.!.!.!.!.!.!.!.( i.u.y.d.n.M.m.l.i.u.p.5.!.!.!.!.!.!.!.!.!.!.!.!.!.!.!.!.!.!.!.!.!.!.!.!.!.!.!.!.!.!.!.!.!.",
"!.!.!.!.!.!.!.!.!.!.!.!.!.!.!.!.!.!.!.!.!.!.!.!.!.!.!.!.!.!.!.!.!.!.! n.z.w.z.M.B.V.x.k.d.B.5.!.!.!.!.!.!.!.!.!.!.!.!.!.!.!.!.!.!.!.!.!.!.!.!.!.!.!.!.!.!.!.!.!.",
"!.!.!.!.!.!.!.!.!.!.!.!.!.!.!.!.!.!.!.!.!.!.!.!.!.!.!.!.!.!.!.!.!.!.C W C ` 7.x.n.m.y.6.! I I !.!.!.!.!.!.!.!.!.!.!.!.!.!.!.!.!.!.!.!.!.!.!.!.!.!.!.!.!.!.!.!.!.",
"!.!.!.!.!.!.!.!.!.!.!.!.!.!.!.!.!.!.!.!.!.!.!.!.!.!.!.!.!.!.W { { k b W s b ) i.V.f.6.C h P P u ~ 5.` !.!.!.!.!.!.!.!.!.!.!.!.!.!.!.!.!.!.!.!.!.!.!.!.!.!.!.!.!.",
"!.!.!.!.!.!.!.!.!.!.!.!.!.!.!.!.!.!.!.!.!.!.!.!.!.!.!.!.{ ! 5.s.d.I b _ b b u I p.] s h v ! I b r.z.y.~ ` !.!.!.!.!.!.!.!.!.!.!.!.!.!.!.!.!.!.!.!.!.!.!.!.!.!.!.",
"!.!.!.!.!.!.!.!.!.!.!.!.!.!.!.!.!.!.!.!.!.!.!.!.!.!.] i.z.7.E n.G.q.N 5.P C 4 h ( N 4 h C ] I ~ V.G.i.` l.d.5.!.!.!.!.!.!.!.!.!.!.!.!.!.!.!.!.!.!.!.!.!.!.!.!.!.",
"!.!.!.!.!.!.!.!.!.!.!.!.!.!.!.!.!.!.!.!.!.!.!.!.! u.l.A.I.V.] z.G.u.N 7.W P b h ) b h I I 6.I ) G.A.p.s.I.G.m.s.{ !.!.!.!.!.!.!.!.!.!.!.!.!.!.!.!.!.!.!.!.!.!.!.",
"!.!.!.!.!.!.!.!.!.!.!.!.!.!.!.!.!.!.!.!.!.!.W 5.d.A.A.U.Q.T.y.W q.W h u.) C b u C d h P P i.I b 8._ ! A.Q.E.G.A.M.i.) !.!.!.!.!.!.!.!.!.!.!.!.!.!.!.!.!.!.!.!.!.",
"!.!.!.!.!.!.!.!.!.!.!.!.!.!.!.!.!.!.C k !.` p.z.V.L.W.R.J.d.( 1 1 ; 4 u._ P W _ { ] ( P I i.C * 1 ; 3 7.A.Y.W.Y.G.M.d.5.C 6 N h !.!.!.!.!.!.!.!.!.!.!.!.!.!.!.!.",
"!.!.!.!.!.!.!.!.!.!.!.!.!.!.!.!.!.{ M._ k { n.V.K.U.A.r.U u > # # % 1 h 4 u h C I P v u 4 u u % $ @ $ 3 C 5.M.I.I.G.M.i.M C b.d.E !.!.!.!.!.!.!.!.!.!.!.!.!.!.!.",
"!.!.!.!.!.!.!.!.!.!.!.!.!.!.!.!.z.I.V.6.U C i.J.V.u.W s ; # & * = & # @ @ @ $ # # # $ * $ # # % = = = $ & 4 C 6.x.A.M.W C ] d.Y.F._ !.!.!.!.!.!.!.!.!.!.!.!.!.!.",
"!.!.!.!.!.!.!.!.!.!.!.!.!.!.!.f.K.A.q.( 7.U A { ! d : $ $ ; ; & # & 2 b _ | 7.U 5 b | w.` h > % @ $ = ; & # * u C _ ! C 5.] ) n.J.B.~ !.!.!.!.!.!.!.!.!.!.!.!.!.",
"!.!.!.!.!.!.!.!.!.!.!.!.!.!.r.M.A.A.w.P 5.7.v % ; % @ $ = * & & 5 ! q.l.B.Z.l._ P E i.M.M.d.q.) h ; $ & = & @ # ; = 3 ] 8.U ` m.A.V.f.! !.!.!.!.!.!.!.!.!.!.!.!.",
"!.!.!.!.!.!.!.!.!.!.!.!.!.s.l.w.d.d.q.I ( 7._ # . + % % # $ 3 P 6.d.n.V.G.L.x.5.{ { u.P.K.C.m.k.w.! b > $ $ $ # o . b w.` U ` f.d.r.i.z.) !.!.!.!.!.!.!.!.!.!.!.",
"!.!.!.!.!.!.!.!.!.!.!.!.!.{ { P B h C ! W ] v + O # + * u U 5.p.l.z.B.D.L.L.p.y.8.y.w.S.U.D.Z.z.l.f.y.] N 1 # # @ O 3 _ ( W U h b P ) 7.I !.!.!.!.!.!.!.!.!.!.!.",
"!.!.!.!.!.!.!.!.!.!.!.!.!.u b ! I C N P 8.N # @ + + 4 ) u.d.n.M.f.7.w.p.y.6.l.x.5.s.n.q.6.i.u.7.i.m.M.z.i.6.v $ O @ + 5 6.( b N A ! L d 5 !.!.!.!.!.!.!.!.!.!.!.",
"!.!.!.!.!.!.!.!.!.!.!.!.~ W k C ] 6.! I N $ O + & b 7.s.z.m.n.i.! N ! ] ] ] V.A.q.n.G.q._ { _ P P 8.d.m.x.d.y.U 1 @ + @ u W P { { E h A ] !.!.!.!.!.!.!.!.!.!.!.",
"!.!.!.!.!.!.!.!.!.!.!.!.i.m.n.{ v W ` 3 # + o & C y.s.d.y.6.q.] h 2 > > P 7.A.J.s.Z.G.u.( 4 : 2 u ! q.6.8.s.d.i.` 2 o + @ ; P 6.M U f.m.z.` !.!.!.!.!.!.!.!.!.!.",
"!.!.!.!.!.!.!.!.!.!.!.) f.V.U.J.M = ; @ @ O * A q.p.s.{ ! W I s 1 4 4 5 ) 6.V.J.s.Z.G.w._ h 4 3 1 3 b W ! _ y.p.u.` 1 O @ @ * ; 4 z.T.G.n.7.!.!.!.!.!.!.!.!.!.!.",
"!.!.!.!.!.!.!.!.!.!.!.8.z.V.T.Z.b * @ @ O & I u.u.i.] L ~ 5 % ; 5 6 s N ] 5.V.A.y.m.A.y.` W s u 5 2 ; ; P W W u.u.u.{ 4 o + @ @ 4 i.R.D.b.d.] !.!.!.!.!.!.!.!.!.",
"!.!.!.!.!.!.!.!.!.!.! d.m.G.Y.w.u $ @ o @ C w.i.i.] h u 4 ; ; 5 6 4 M 5.` q.S.Z.y.m.G.m.6.6.U u 5 u 4 ; 2 u u U y.p.u.) % o @ + : ! K.I.M.l.u.!.!.!.!.!.!.!.!.!.",
"!.!.!.!.!.!.!.!.!.!.] d.A.W.G.U = O @ . > ] p.z.5.u 3 : 3 6 4 u P W 6.] p.V.G.Z.y.m.G.A.x.5.5._ P b 2 5 5 : 1 4 C y.d.6.5 o O @ $ h z.W.L.n.i.W !.!.!.!.!.!.!.!.",
"!.!.!.!.!.!.!.!.!.C _ u.A.I.i.u @ @ O o h 6.f.k.N u b L ~ 7.7.b N ~ ) d.n.s.M.M.6.k.V.i.d.x.{ ! I u C 7.] P M d 5 W z.w.P $ o @ @ ; _ G.J.l.8.I !.!.!.!.!.!.!.!.",
"!.!.!.!.!.!.!.!.!.b ( l.M.w.C & @ # o $ W y.p.( ( 5.` C h N E ) N | M.b.E P l.z.] p.m.` N r.V.r.A W _ A v b ( 6.) ( w.p.] 4 o @ @ @ s | l.G.i.C !.!.!.!.!.!.!.!.",
"!.!.!.!.!.!.!.!.!.C 8.Z.z.P : o O O O 4 5.s.6.I ! N u u 5 1 > k E u.z.! k E b.n.{ d.B.{ b C p.z.) N u > 3 u u v P ! ) s.q.L $ O + o & k w.G.B.W !.!.!.!.!.!.!.!.",
"!.!.!.!.!.!.!.!.!.{ u.l.7.h ; @ o . + C 8.k.W b u 3 u k C b 1 k M N _ ] E W M.M.5.d.V.7.P ] ] P M C h h C b u 4 1 u N i.p._ ; . o @ & 4 ( d.f.8.~ !.!.!.!.!.!.!.",
"!.!.!.!.!.!.` z.B.G.P.G.s.W b u = O $ U i.y.L 1 = 4 5 h W ) C ) W d b _ q.q.B.m.` s.Z.p.6.{ P s A _ ! ! ) b u u : * h 5.s.] 2 . $ 2 h A q.Z.K.K.B.m.7.!.!.!.!.!.",
"!.!.!.!.!.!.A 7.p.b.A.m.q.E M 4 % O % N 5._ E $ * 4 4 u ) u.d.q.! M u b { u.m.z.E w.B.d.8.I 6 k P { u.s.5.k 4 4 1 % h _ ] E 1 X # > k P ] k.V.M.d.y.W !.!.!.!.!.",
"!.!.!.!.!.!.!.k C A _ ! I M u : o + * 4 d N b # * 4 4 3 k E _ W I E I 7.n.z.p.7.C ` i.d.n.i.! E I W ! ~ M 4 4 4 > & u C b u 1 + o & 5 h I ) ` ! B s 4 !.!.!.!.!.",
"!.!.!.!.!.!.!.M ) q.m.C.B.s.( d + o * 2 3 d u % ; 3 4 4 s L ` | ) w.l.l.i.{ I C b j b ! 7.l.f.s._ ] 6.W k 4 4 4 2 * 2 s u : 1 + o i ) 7.m.V.M.i.( h !.!.!.!.!.!.",
"!.!.!.!.!.!.!.C E W q.C.s.` b 4 o   % s 2 u 3 $ ; 4 4 s 2 6 d A u.m._ C ! _ I C P h k k h b P d.l.~ k s 2 u 6 4 2 ; : u 4 4 1 o o h W ! w.C.d.` b 5 !.!.!.!.!.!.",
"!.!.!.!.!.!.!.C I 4 I u.] u u u +   @ 4 2 u 2 # ; 2 6 P s * 4 y.x.y.M j S ] { C b C ~ j 6 u u I l.m.{ > 3 A h 2 2 * ; u 4 3 : X o k I 4 U u.] u u u !.!.!.!.!.!.",
"!.!.!.!.!.!.!.C E u b ) L s d u +   % 2 > s 3 # * > C E 3 d q.k.{ _ 9.9.' S V C h I Y ) ' } Z i U i.x.P 3 b ! 4 ; * : u 4 1 : X X k U u b ) A u s u !.!.!.!.!.!.",
"!.!.!.!.!.!.!.k W h s ] C u P d +   $ > 1 s 4 $ 1 P E 2 3 M E v u m 1.0.0.0.Y i b n _ t.,.J G 0 f f C A u 2 b W u * : s 4 ; * . o d W h u _ b 5 C u !.!.!.!.!.!.",
"!.!.!.!.!.!.!.k M N M I N b M v *   # = 1 s 4 * N W 3 2 s U M u j x D &.$.F K Y I H K y +.$.e w b 4 u I b 3 > C ( h 1 d 4 * % . @ 3 h k C ~ ! C C b u !.!.!.!.!.",
"!.!.!.!.!.!.! q.s.V.G.P.B.q.W b 4 * % = 1 u k I ] v : 3 P 5.k 3 i G &.j.3.*.F m.z.} t +.;.4.X.8 9 2 5 W ] 4 2 3 ( ] b s 4 * * # 1 h P 6.x.K.I.G.x.y.` !.!.!.!.!.",
"!.!.!.!.!.!.N ( 5.d.m.n.y.) b 3 : % + $ u u b U P : 1 : P 7.4 > j t.>.-.-.%.2.P.i.[ F X.#.#.O.J 9 ; 2 E 6.1 2 ; v W L u d * + o & 1 d U 8.l.M.z.8.` P !.!.!.!.!.",
"!.!.!.!.!.!.!.!.3 u b b u 1 % + o o o 1 b u s h 3 * 4 u A W > * j g.h.>.%.&.a.w.P H H y ..X.,.G 7 ; ; b ) 4 d ; & u d 4 b u #   o O # : 4 h b k 4 4 !.!.!.!.!.!.",
"!.!.!.!.!.!.!.!.4 L 5.6.L u % X .   + u I u u k * * d N W M ; : i n 1.v.N.H.c.Z u j T <./ J D , 3 ; * 4 _ b P * # > s 4 A b &     . @ 3 b ` 8.( u !.!.!.!.!.!.!.",
"!.!.!.!.!.!.!.!.b 7.z.Z.s.W 1 o .   # b ! u 4 3 & * v ( ! b 1 : > j n / e.9.' S l B V z a q , z 3 * * 5 _ P ( * & & 4 3 P P :   . X & b 8.V.A.p.P !.!.!.!.!.!.!.",
"!.!.!.!.!.!.!.!.k 6.M.J.z.E 1 O X . # N W u 3 % $ : v W C U u * & h P Z S S [  .' ' 1.T p < u k ; % ; l W N P 2 * # 1 4 P U 1   . o & b y.J.K.p.L !.!.!.!.!.!.!.",
"!.!.!.!.!.!.!.!.b 5.m.P.z.U 1 O o   % L E d 4 # 1 N N u u W v : * 1 C C / [ [ Q V n n V V ; 4 5 & % : A N 2 N M v * 1 u L E 1   . o & v y.P.K.i.L !.!.!.!.!.!.!.",
"!.!.!.!.!.!.!.!.h 5.l.Z.l.L 1 + o . & U ( v 3 1 N d d * 2 U C 3 * ; v } M z 0 < - & % - 0 z h ; % ; u P d & u u L b 1 s W ( 4   o O & k q.G.C.u.N !.!.!.!.!.!.!.",
"!.!.!.!.!.!.!.!.h 5.s.x.y.N : @ O X * ! ` b d s d ; * * 1 N U v * & 1 E M - - > ; < < - 5 P 2 % & 6 C P 5 ; ; ; 5 h u h ( ` u . o O & d 5.x.n.q.C !.!.!.!.!.!.!.",
"!.!.!.!.!.!.!.!.d _ k.p.5.b : @ O o * ! ) N d d 2 & 3 L 4 4 I P d * % 1 I V 6 g 0 0 z g S h ; & 5 C I k ; M s % * 4 h v W _ u o O O & d ( y.d.q.b !.!.!.!.!.!.!.",
"!.!.!.!.!.!.!.!.d ` s.d.6.C 1 # + o & U ( b d 4 % ; v > # $ 2 N A s * & k ' Q Q V g 0 k M > : 4 N A b = $ * d 4 # * u k U ( 4 o O + * v _ i.d.q.N !.!.!.!.!.!.!.",
"!.!.!.!.!.!.!.!.u ] l.n.q.N 1 @ + X & P W v u & O 3 k ; & # # 1 M A k 6 4 k E f < > - h 5 5 h N C u ; @ % * u d % + 4 s P W 2 X O @ * k _ z.n.q.b !.!.!.!.!.!.!.",
"!.!.!.!.!.!.!.!.u _ k.V.q.L 1 + o . % P W u 4 O O : N b v u 1 & : d P W E N b h u u k b A ! I k 4 & ; 4 h v N 5 # O : u L W 3   o O * d ] n.V.q.v !.!.!.!.!.!.!.",
"!.!.!.!.!.!.!.!.4 ! s.Z.q.N 1 + X . # L E 4 u # o O 2 u u b N L d * : M q.d.q.C : f | s.u.E 2 * 4 C P b h s u # o O 2 4 C W 1   . o & k ] V.Z.6.d !.!.!.!.!.!.!.",
"!.!.!.!.!.!.!.!.4 ! k.Z.q.M : o o & 3 k d u u u & + O & & & ; u b M 6 ; 4 A { M % 6 _ { k ; 2 k M h 2 ; % $ + + # ; s 3 k h d ; @ o & d ` V.A.7.d !.!.!.!.!.!.!.",
"!.!.!.!.!.!.!.!.4 U s.A.q.b ; o o & 2 u 1 1 3 h k b N u & o O ; s C W E 2 ; M N * s C 4 > N ! I k 2 % + # 2 M M h d u : 4 1 u * @ . # u _ V.A.6.u !.!.!.!.!.!.!.",
"!.!.!.!.!.!.!.!.1 P p.V.8.v * o X . 1 b 1 ; * 2 4 s C ] C * > 6 4 4 k { q.M M C * k P s W q.A 5 3 u s * u ` E d u 3 : * 1 u s @ . . @ 6 ( m.V.] u !.!.!.!.!.!.!.",
"!.!.!.!.!.!.!.!.1 C q.n.` u & o X X : d : * * : * 1 2 4 v 4 s 2 * > * 6 W s M E ; b P s C M % ; 1 * 4 4 d s 2 1 * * * & : u u @ . o @ 2 I d.m._ 4 !.!.!.!.!.!.!.",
"!.!.!.!.!.!.!.!.; b 7.k.! 4 @ . X X : s ; * ; 4 u s v * 5 5 d 2 s 4 > * d 4 M N ; d P 6 6 4 ; 2 u : 2 u s * s k u u 1 * * 2 4 # o X O : N i.l.W 2 !.!.!.!.!.!.!.",
"!.!.!.!.!.!.!.!.u N 7.s.W 4 @ o o X : 4 * ; 1 4 4 * 1 * d 4 b s 4 * * 2 v s d d u k k 6 d 6 ; & 2 4 d u d : > * 3 u 2 * : 1 4 @ o o + : b i.l.( u !.!.!.!.!.!.!.",
"!.!.!.!.!.!.!.!.E s.Z.G.u.b * # + o * 2 * 1 s 1 * 2 1 1 2 * 3 d d 5 1 2 M u d _ M ! A 4 d s : 4 s k s * : 2 1 2 2 * u 1 ; * 1 @ @ @ % u { V.D.m.] !.!.!.!.!.!.!.",
"!.!.!.!.!.!.!.!.4 E i.m.7.d & O + # 1 4 * 1 d * + * * * + O + * : ; * v b v q._ 5 L q.P v M 2 * ; : & + + % * * @ @ u 4 : 1 u * @ o @ 4 ! z.m.{ h !.!.!.!.!.!.!.",
"!.!.!.!.!.!.!.C d d N W v 1 * & % % * > * 4 N v 5 4 3 & o # * 2 2 4 b P C 6.{ ) A ( _ i._ N L u 2 3 2 & o + 1 3 4 u N u > * : $ % % = : u I W k u N N !.!.!.!.!.",
"!.!.!.!.!.!.) i.s.q.] ] ] ] ] ] b 2 * # 2 d C _ ] { ` b u v C L N L E E r.q.M 6.` q.N W y._ E P N N L b u d ( 5.5.] U s u & $ * u ~ { _ { ] ] 7.i.s.5.!.!.!.!.!.",
"!.!.!.!.!.!.| n.m.k.s.l.l.i.8.5.L u & & u b b b b M b b C N k b b b I q.8.C b { ! 5.C b ( i.( b b b b b P n b M b v b b h ; $ : b ) 6.w.d.l.l.k.x.B.y.!.!.!.!.!.",
"!.!.!.!.!.!.) w.6.8.q.q._ I L L d u & : v ` 5.] ] 5.6.6.5.5.] 6.6.6.q._ C C b I P W b C C ! 8.7.6.6.6.{ 5.{ 6.5.5.` 5.5.C 4 & ; d N P P W 8.y.8.7.q.5.!.!.!.!.!.",
"!.!.!.!.!.!.W y.8.s.Z.l.5.U C P u u & : u b v k N L U b M P P N v N U b b ( ) ) M ! ( ` I h I C v b P P C k I P N N b b k 2 * ; u b C P ` y.n.z.8.y.] !.!.!.!.!.",
"!.!.!.!.!.!.P q.8.u.n.k.6.L d d 2 ; # ; u u 4 u u L N u d C M d h v N h k M W U u C ( C k h M b h h h C k u b I h u 4 u u : $ $ 1 u v b ` u.l.d.7.y.) !.!.!.!.!.",
"!.!.!.!.!.!.L 7.5.5.q.6.! b h 4 : & O & 2 u 3 3 3 u u u u u u 4 u h h C C d b M u v M h k L k h u u 4 u u u u u 4 2 2 4 4 ; @ @ * 2 u v I 5.6.8.5.8.W !.!.!.!.!.",
"!.!.!.!.!.!.v ( _ ` ` ( L h 4 1 * @ . @ & & & & & = ; 1 : : : : ; ; 1 b 3 1 4 4 1 3 4 4 2 h u ; ; ; ; : : 1 : = & & & & & @ . o & : u u b ! ( ` ) _ C !.!.!.!.!.",
"!.!.!.!.!.!.u v L C L C h 3 ; & @ o . @ & & * & * = ; 1 1 : > : : ; : 1 : : : ; = ; : > : 1 1 ; ; > : : : 1 : = * & & = & $ o o O & * 2 u b C C L N u !.!.!.!.!.",
"!.!.!.!.!.!.u d h h u 4 1 ; = & & & & !.!.!.!.!.!.!.!.!.!.!.!.!.!.!.!.!.!.!.!.!.!.!.!.!.!.!.!.!.!.!.!.!.!.!.!.!.!.!.!.!.!.!.!.& & & & * 1 4 u u h v u !.!.!.!.!.",
"!.!.!.!.!.!.!.v b b h h u 4 4 3 1 !.!.!.!.!.!.!.!.!.!.!.!.!.!.!.!.!.!.!.!.!.!.!.!.!.!.!.!.!.!.!.!.!.!.!.!.!.!.!.!.!.!.!.!.!.!.!.; 1 u 3 u h h v b v !.!.!.!.!.!.",
"!.!.!.!.!.!.!.!.!.!.!.!.!.!.!.!.!.!.!.!.!.!.!.!.!.!.!.!.!.!.!.!.!.!.!.!.!.!.!.!.!.!.!.!.!.!.!.!.!.!.!.!.!.!.!.!.!.!.!.!.!.!.!.!.!.!.!.!.!.!.!.!.!.!.!.!.!.!.!.!.",
"!.!.!.!.!.!.!.!.!.!.!.!.!.!.!.!.!.!.!.!.!.!.!.!.!.!.!.!.!.!.!.!.!.!.!.!.!.!.!.!.!.!.!.!.!.!.!.!.!.!.!.!.!.!.!.!.!.!.!.!.!.!.!.!.!.!.!.!.!.!.!.!.!.!.!.!.!.!.!.!.",
"!.!.!.!.!.!.!.!.!.!.!.!.!.!.!.!.!.!.!.!.!.!.!.!.!.!.!.!.!.!.!.!.!.!.!.!.!.!.!.!.!.!.!.!.!.!.!.!.!.!.!.!.!.!.!.!.!.!.!.!.!.!.!.!.!.!.!.!.!.!.!.!.!.!.!.!.!.!.!.!.",
"!.!.!.!.!.!.!.!.!.!.!.!.!.!.!.!.!.!.!.!.!.!.!.!.!.!.!.!.!.!.!.!.!.!.!.!.!.!.!.!.!.!.!.!.!.!.!.!.!.!.!.!.!.!.!.!.!.!.!.!.!.!.!.!.!.!.!.!.!.!.!.!.!.!.!.!.!.!.!.!.",
"!.!.!.!.!.!.!.!.!.!.!.!.!.!.!.!.!.!.!.!.!.!.!.!.!.!.!.!.!.!.!.!.!.!.!.!.!.!.!.!.!.!.!.!.!.!.!.!.!.!.!.!.!.!.!.!.!.!.!.!.!.!.!.!.!.!.!.!.!.!.!.!.!.!.!.!.!.!.!.!.",
"!.!.!.!.!.!.!.!.!.!.!.!.!.!.!.!.!.!.!.!.!.!.!.!.!.!.!.!.!.!.!.!.!.!.!.!.!.!.!.!.!.!.!.!.!.!.!.!.!.!.!.!.!.!.!.!.!.!.!.!.!.!.!.!.!.!.!.!.!.!.!.!.!.!.!.!.!.!.!.!.",
"!.!.!.!.!.!.!.!.!.!.!.!.!.!.!.!.!.!.!.!.!.!.!.!.!.!.!.!.!.!.!.!.!.!.!.!.!.!.!.!.!.!.!.!.!.!.!.!.!.!.!.!.!.!.!.!.!.!.!.!.!.!.!.!.!.!.!.!.!.!.!.!.!.!.!.!.!.!.!.!."
};
