/* XPM */
static char *result[] = {
/* columns rows colors chars-per-pixel */
"50 50 230 2 ",
"   c #09577F",
".  c #075D8B",
"X  c #0A5F90",
"o  c #006697",
"O  c #0A7893",
"+  c #09628E",
"@  c #3E6599",
"#  c #0073AC",
"$  c #0077A7",
"%  c #017CB6",
"&  c #016CA0",
"*  c #3D6AA3",
"=  c #2E74A8",
"-  c #5C79BB",
";  c #0577C8",
":  c #1976C5",
">  c #007EDF",
",  c #057DD7",
"<  c #007EE1",
"1  c #0A7BE0",
"2  c #05839C",
"3  c #088BA3",
"4  c #0694AC",
"5  c #0082BD",
"6  c #009CB4",
"7  c #0B99B3",
"8  c #109AB3",
"9  c #368AA9",
"0  c #3C98B4",
"q  c #308DBD",
"w  c #00A3BA",
"e  c #04A4BA",
"r  c #11A5B8",
"t  c #07B6BC",
"y  c #13BDBE",
"u  c #41A1BD",
"i  c #00C1BE",
"p  c #0083CD",
"a  c #008CCB",
"s  c #0188C3",
"d  c #0193CC",
"f  c #049ACE",
"g  c #0099C1",
"h  c #199ACC",
"j  c #0086D2",
"k  c #008CD4",
"l  c #008CDB",
"z  c #0684DB",
"x  c #1988D7",
"c  c #0092D6",
"v  c #019CD3",
"b  c #0094DB",
"n  c #009ADD",
"m  c #1D92D7",
"M  c #1E95DC",
"N  c #1C9BDA",
"B  c #199ED2",
"V  c #2398CE",
"C  c #259BD3",
"Z  c #219ADD",
"A  c #2D9DD5",
"S  c #399ACD",
"D  c #00ACC4",
"F  c #03A6C7",
"G  c #03B3C5",
"H  c #01B3CA",
"J  c #00BBCB",
"K  c #08B7C7",
"L  c #02A3D4",
"P  c #00ADD5",
"I  c #01A4DB",
"U  c #01ABDC",
"Y  c #0FA0D8",
"T  c #16ABDB",
"R  c #19A7DB",
"E  c #00B4D5",
"W  c #00BBD4",
"Q  c #00B3DC",
"!  c #00BCDC",
"~  c #0AB8DC",
"^  c #19B5D8",
"/  c #12ABC7",
"(  c #26ABCC",
")  c #29A7DB",
"_  c #25B1D9",
"`  c #35B9D7",
"'  c #31ACD0",
"]  c #0083E3",
"[  c #008BE5",
"{  c #0989E4",
"}  c #158BE3",
"|  c #0094E4",
" . c #009CE3",
".. c #019CEA",
"X. c #0996E8",
"o. c #1A97E5",
"O. c #229EE3",
"+. c #00A3E3",
"@. c #00ABE3",
"#. c #00A5EC",
"$. c #00ACEA",
"%. c #0AA5E1",
"&. c #15ACE5",
"*. c #00B4E2",
"=. c #01BBE3",
"-. c #00B3EC",
";. c #03B9EB",
":. c #13B2ED",
">. c #17B7E4",
",. c #00A7F2",
"<. c #00B4F3",
"1. c #00BCF4",
"2. c #00BBF8",
"3. c #0FBFF3",
"4. c #13B7F1",
"5. c #24A2E6",
"6. c #26A8E7",
"7. c #26B9ED",
"8. c #38B4E7",
"9. c #2BB8F0",
"0. c #39B3EE",
"q. c #44A9C4",
"w. c #4AB9D5",
"e. c #4CBACD",
"r. c #49B7E7",
"t. c #00C4C3",
"y. c #00C6CB",
"u. c #00CCCB",
"i. c #18C5C3",
"p. c #00C3D4",
"a. c #00CCD3",
"s. c #00C3DC",
"d. c #03CDDB",
"f. c #0AC1DF",
"g. c #00D2D3",
"h. c #00D3D9",
"j. c #00D8D7",
"k. c #27D2CE",
"l. c #24C3DA",
"z. c #38C7DB",
"x. c #2AD8DA",
"c. c #3DD3DF",
"v. c #21CDC9",
"b. c #3DE4DD",
"n. c #00C4E2",
"m. c #0CC1E5",
"M. c #00C8E4",
"N. c #00C4EE",
"B. c #0BC9E7",
"V. c #1BCCE9",
"C. c #18C7E7",
"Z. c #0ED1E5",
"A. c #1DD3ED",
"S. c #19D6E7",
"D. c #00C3F5",
"F. c #09C2F5",
"G. c #00CAF4",
"H. c #00C3FA",
"J. c #00CBFA",
"K. c #0DCDF1",
"L. c #1ACBF5",
"P. c #00D5F4",
"I. c #00DBF6",
"U. c #00D4F9",
"Y. c #0DD5F9",
"T. c #03DBFA",
"R. c #0BD9F9",
"E. c #11D6F9",
"W. c #14D8F8",
"Q. c #22CDE5",
"!. c #27C7ED",
"~. c #35C9EA",
"^. c #26D2E6",
"/. c #2BD4E5",
"(. c #23D4EB",
"). c #29D6EA",
"_. c #2CDAEC",
"`. c #28D8E6",
"'. c #34DDE5",
"]. c #3BDFE5",
"[. c #32DCEB",
"{. c #36D2E4",
"}. c #23CBF2",
"|. c #2BD4F4",
" X c #29D2F8",
".X c #37D7F6",
"XX c #00E0F7",
"oX c #00E3F9",
"OX c #3AE3E1",
"+X c #51D1D8",
"@X c #65CDD7",
"#X c #46ECDA",
"$X c #49EDDB",
"%X c #4DF2D6",
"&X c #4EF4DA",
"*X c #53F6D4",
"=X c #5CFBD5",
"-X c #58F4DA",
";X c #63E3DC",
":X c #72E9DD",
">X c #79F1DD",
",X c #45CCE6",
"<X c #52CBE7",
"1X c #5BCAE8",
"2X c #42DDED",
"3X c #46D4E7",
"4X c #59D8E9",
"5X c #49CAF3",
"6X c #44DBF9",
"7X c #5ADAF5",
"8X c #75D4E7",
"9X c #75DAF2",
"0X c #68D5EF",
"qX c #46E4E6",
"wX c #56E5E9",
"eX c #4AE2F6",
"rX c #53E3FA",
"tX c #5BE4FA",
"yX c #67E4EB",
"uX c #77E9E4",
"iX c #6DEDFD",
"pX c #64E7F6",
"aX c #75E6F6",
"sX c #8ADCEF",
"dX c #89EAEB",
"fX c #86EAF6",
"gX c #ABF2F6",
"hX c #A6E1F7",
"jX c #CAF7FB",
"kX c None",
/* pixels */
"kXkXkXkXkXkXkXkXkXkXkXkXkXkXkXkXkXkXkXkXkXkXkXkXkXkXkXkXkXkXkXkXkXkXkXkXkXkXkXkXkXkXkXkXkXkXkXkXkXkX",
"kXkXkXkXkXkXkXkXkXkXkXkXkXkXkXkXkXkXkXkXkXkXkXkXr.S kXkXkXkXkXkXkXkXkXkXkXkXkXkXkXkXkXkXkXkXkXkXkXkX",
"kXkXkXkXkXkXkXkXkXkXkXkXkXkXkXkXkXkXkXkXkXkXkX7.O.h A kXkXkXkXkXkXkXkXkXkXkXkXkXkXkXkXkXkXkXkXkXkXkX",
"kXkXkXkXkXkXkXkXkXkXkXkXkXkXkXkXkXkXkXkXkXkX!.$.6.B n ) kXkXkXkXkXkXkXkXkXkXkXkXkXkXkXkXkXkXkXkXkXkX",
"kXkXkXkXkXkXkXkXkXkXkXkXkXkXkXkXkXkXkXkXkX7.D.#.0.&.@.U 8.kXkXkXkXkXkXkXkXkXkXkXkXkXkXkXkXkXkXkXkXkX",
"kXkXkXkXkXkXkXkXkXkXkXkXkXkXkXkXkXkXkXkX7.D.2.,.0.>.=.Q L ) kXkXkXkXkXkXkXkXkXkXkXkXkXkXkXkXkXkXkXkX",
"kXkXkXkXkXkXkXkXkXkXkXkXkXkXkXkXkXkXkX6.,.D.H.<.5XC.n.*.U Y ) kXkXkXkXkXkXkXkXkXkXkXkXkXkXkXkXkXkXkX",
"kXkXkXkXkXkXkXkXkXkXkXkXkXkXkXkXkXkX6.,.<.2.H.<.5XC.n.=.U U I ) kXkXkXkXkXkXkXkXkXkXkXkXkXkXkXkXkXkX",
"kXkXkXkXkXkXkXkXkXkXkXkXkXkXkXkXkX6...<.2.2.J.2.5XV.n.! Q Q I L ) kXkXkXkXkXkXkXkXkXkXkXkXkXkXkXkXkX",
"kXkXkXkXkXkXkXkXkXkXkXkXkXkXkXkX5...#.1.<.H.J.J.7X^.n.=.=.Q U I L ) kXkXkXkXkXkXkXkXkXkXkXkXkXkXkXkX",
"kXkXkXkXkXkXkXkXkXkXkXkXkXkXkX5...,.<.<.2.J.U.J.7Xx.s.n.n.! Q P L v ) kXkXkXkXkXkXkXkXkXkXkXkXkXkXkX",
"kXkXkXkXkXkXkXkXkXkXkXkXkXkX5...,.<.2.2.H.J.U.U.fX2Xd.d.s.! ! Q P L d C kXkXkXkXkXkXkXkXkXkXkXkXkXkX",
"kXkXkXkXkXkXkXkXkXkXkXkXkXO...#.<.J.J.H.J.U.U.7XjXgX`.j.d.s.! E E L f d C kXkXkXkXkXkXkXkXkXkXkXkXkX",
"kXkXkXkXkXkXkXkXkXkXkXkXO...#.<.J.U.J.J.U.U.tXiXfXaXdXx.j.h.p.W E P P L f C kXkXkXkXkXkXkXkXkXkXkXkX",
"kXkXkXkXkXkXkXkXkXkXkXO...#.1.G.T.U.U.U.U.tXiXoXiXeXeXdXx.g.g.g.p.W E P L f C kXkXkXkXkXkXkXkXkXkXkX",
"kXkXkXkXkXkXkXkXkXkXo. .#.-.G.I.T.J.U.U.tXiXT.T.rXqX).wXdXx.u.g.g.d.s.W P L d ) kXkXkXkXkXkXkXkXkXkX",
"kXkXkXkXkXkXkXkXkXM | +.-.D.I.oXU.U.J.tXiXR.U.U..XqX[.'.wXdXk.u.g.g.g.d.p.E L d C kXkXkXkXkXkXkXkXkX",
"kXkXkXkXkXkXkXkXM | +.;.N.U.oXT.U.U.rXiXT.T.U.U..X].'.].b.wXdXk.u.g.u.a.h.d.p.P v C kXkXkXkXkXkXkXkX",
"kXkXkXkXkXkXkXo.| +.;.G.I.XXoXU.U.rXtXT.U.U.U.U. XqXOX#X#X#X-X>Xv.t.u.u.g.h.h.d.W f V kXkXkXkXkXkXkX",
"kXkXkXkXkXkXx b @.1.G.I.I.XXU.U.eXrXT.U.U.U.U.J.tXuX$X%X%X*X%X-X:Xi.i u.a.g.h.h.a.W F V kXkXkXkXkXkX",
"kXkXkXkXkXx l +.-.N.I.I.XXT.U.6XrXT.U.U.U.U.Y.7X4X8X>X-X*X*X*X%XwX;Xi t.u.u.a.a.p.p.J D ( kXkXkXkXkX",
"kXkXkXkXx j n *.N.P.I.XXXXU.6XeXT.U.U.U.U.Y.pX2Xl.^ @X>X=X=X*X%X#X#X;Xi.t.t.t.u.y.p.p.J H ( kXkXkXkX",
"kXkXkX: , c *.M.P.P.P.I.U. X6XT.T.U.U.U.Y.aX7XZ.3Xv./ +X>X=X=X*X#Xb.'.+Xy i t.t.y.p.y.J G F ( kXkXkX",
"kXkX: ; k @.1.G.G.P.I.I. X XU.U.U.U.U.E.aXwXZ.Z.yX3XK 7 +X:X*X%X#Xb././.z.y i t t.t.J J H G e ( kXkX",
"kX: ; c %.>.m.K.K.L.W. X XY.E.E.E.E.L.fX4XZ.A.[.fXyXx./ F e.;X$XqXOXOX).!.` r t t t t K K K K K ` kX",
"- = = q S ' w.r.1X0X8XhXaX9XaXaXfXfXgXsXz.3X7XuXjXgXaX<X` ( 3X|.}.}.L.}.L.9.7.^ T T R R R &.>.>.~.kX",
"kX@   . o % s v v I I 8.sX|.}.(.|._.wXdXc.a.Z./.dXpX(.m.~ (.R.J.H.D.D.D.F.:.-.-.$.+.+.I I +.@.>.kXkX",
"kXkX@ . o # 5 a v I %.+.0.9X|.A.A._._.OXyXc.d.Z.yX2XZ.m.(.W.J.D.D.D.D.3.>.$.$.%.+. .b c c c R kXkXkX",
"kXkXkX* X . # % a v I @.U 8.9X_.A.(./._.OXyX/.d.3XQ.m.(.W.J.D.D.D.D.:.:.$.-.+.n n c a p k N kXkXkXkX",
"kXkXkXkX- . o # s c v I @.U 6.0X[.(.(.^./.'.wXQ.z.l.(.W.J.H.D.D.D.:.} #.-.$.+.n k p p p m kXkXkXkXkX",
"kXkXkXkXkX* X o # % d v I U I ) 4X[.(.Q.Q.^./.2X,X{.E.H.D.D.D.D.:.} | -.$.+.+.n p p p m kXkXkXkXkXkX",
"kXkXkXkXkXkX* + o # % s v I I v Z 1X[.(.Q.Q.^./.{.L.G.D.D.D.2.:.} ] @.$.+.+.n c p p m kXkXkXkXkXkXkX",
"kXkXkXkXkXkXkX9 o O $ 5 a f I I n N <X[.(.V.C.C.!.F.J.H.D.D.:.} < ..@.+.n n k p p m kXkXkXkXkXkXkXkX",
"kXkXkXkXkXkXkXkX9 O 2 4 g L I I  .b N <XOX(.V.C.7.F.D.D.2.:.} < [ #.+.+.n n c j Z kXkXkXkXkXkXkXkXkX",
"kXkXkXkXkXkXkXkXkX9 2 3 6 H ! ! @.U I N ,X[.(.A.!.F.D.2.:.} ] ] ..+. .n k k j M kXkXkXkXkXkXkXkXkXkX",
"kXkXkXkXkXkXkXkXkXkX9 2 4 F W ! n.n.n.*.&.~.(.A.!.F.D.:.} < ] [ +. .n c j j N kXkXkXkXkXkXkXkXkXkXkX",
"kXkXkXkXkXkXkXkXkXkXkX0 2 6 D E ! s.M.M.M.>.~.(.}.3.4.} ] ] ]  .+.n b j j M kXkXkXkXkXkXkXkXkXkXkXkX",
"kXkXkXkXkXkXkXkXkXkXkXkX0 3 6 D H s.s.M.M.M.B.!.!.4.o.[ ] ] [ n n n b k Z kXkXkXkXkXkXkXkXkXkXkXkXkX",
"kXkXkXkXkXkXkXkXkXkXkXkXkX0 4 6 D W s.M.M.n.M.=.9.o.[ [ ] ] | n n b l Z kXkXkXkXkXkXkXkXkXkXkXkXkXkX",
"kXkXkXkXkXkXkXkXkXkXkXkXkXkXu 8 6 H p.s.s.s.n.=.>.X.[ [ ] ] b k j k Z kXkXkXkXkXkXkXkXkXkXkXkXkXkXkX",
"kXkXkXkXkXkXkXkXkXkXkXkXkXkXkXq.8 D H W W p.s.n.:.X.[ < > b c k k Z kXkXkXkXkXkXkXkXkXkXkXkXkXkXkXkX",
"kXkXkXkXkXkXkXkXkXkXkXkXkXkXkXkXq.r w G H W s.s.>.{ z > z b k l O.kXkXkXkXkXkXkXkXkXkXkXkXkXkXkXkXkX",
"kXkXkXkXkXkXkXkXkXkXkXkXkXkXkXkXkXkX8 6 w G J W T { < > n b c O.kXkXkXkXkXkXkXkXkXkXkXkXkXkXkXkXkXkX",
"kXkXkXkXkXkXkXkXkXkXkXkXkXkXkXkXkXkXkX8 6 w H W Y z < l n b 5.kXkXkXkXkXkXkXkXkXkXkXkXkXkXkXkXkXkXkX",
"kXkXkXkXkXkXkXkXkXkXkXkXkXkXkXkXkXkXkXkX8 6 D H B , ] X. .5.kXkXkXkXkXkXkXkXkXkXkXkXkXkXkXkXkXkXkXkX",
"kXkXkXkXkXkXkXkXkXkXkXkXkXkXkXkXkXkXkXkXkX8 6 D h 1 | +.6.kXkXkXkXkXkXkXkXkXkXkXkXkXkXkXkXkXkXkXkXkX",
"kXkXkXkXkXkXkXkXkXkXkXkXkXkXkXkXkXkXkXkXkXkX8 F h 1 ..9.kXkXkXkXkXkXkXkXkXkXkXkXkXkXkXkXkXkXkXkXkXkX",
"kXkXkXkXkXkXkXkXkXkXkXkXkXkXkXkXkXkXkXkXkXkXkXr h X.9.kXkXkXkXkXkXkXkXkXkXkXkXkXkXkXkXkXkXkXkXkXkXkX",
"kXkXkXkXkXkXkXkXkXkXkXkXkXkXkXkXkXkXkXkXkXkXkXkX' 0.kXkXkXkXkXkXkXkXkXkXkXkXkXkXkXkXkXkXkXkXkXkXkXkX",
"kXkXkXkXkXkXkXkXkXkXkXkXkXkXkXkXkXkXkXkXkXkXkXkXkXkXkXkXkXkXkXkXkXkXkXkXkXkXkXkXkXkXkXkXkXkXkXkXkXkX"
};
