/* XPM */
static char *_a9110e89e244c1ff6098f2934863274zOAUfYw1qSc7bMXk[] = {
/* columns rows colors chars-per-pixel */
"50 50 256 2 ",
"   c #003C5E",
".  c #024C7C",
"X  c #005783",
"o  c #0B5891",
"O  c #006786",
"+  c #00798C",
"@  c #006897",
"#  c #047A96",
"$  c #026DA5",
"%  c #0275A7",
"&  c #017CBA",
"*  c #0D6FB7",
"=  c #007FD3",
"-  c #007DDC",
";  c #0577D7",
":  c #167FDC",
">  c #0275CD",
",  c #027DE2",
"<  c #0A7AE6",
"1  c #3873CD",
"2  c #008B9E",
"3  c #0088A5",
"4  c #0296AC",
"5  c #0385BD",
"6  c #0296B2",
"7  c #049CB6",
"8  c #1F9EBE",
"9  c #01ABBD",
"0  c #06A6B7",
"q  c #14A6B6",
"w  c #03BBBA",
"e  c #0DABB7",
"r  c #378DBC",
"t  c #01C2BC",
"y  c #08C5B7",
"u  c #1CD1BE",
"i  c #23CFBF",
"p  c #028BC2",
"a  c #0385CA",
"s  c #0487C7",
"d  c #1D8ACC",
"f  c #0293CD",
"g  c #019CCD",
"h  c #0695C7",
"j  c #0183D4",
"k  c #028BD3",
"l  c #0185DB",
"z  c #028DDC",
"x  c #0C89D6",
"c  c #168AD9",
"v  c #0193D2",
"b  c #019CD4",
"n  c #0496DC",
"m  c #0994DB",
"M  c #019BDC",
"N  c #0999D7",
"B  c #1796DC",
"V  c #199ECB",
"C  c #278DCD",
"Z  c #3E95C7",
"A  c #269AD6",
"S  c #2A95D1",
"D  c #00A4CB",
"F  c #01A9CD",
"G  c #01A6C1",
"H  c #03BBC3",
"J  c #01B5CA",
"K  c #02BBCC",
"L  c #07B4C7",
"P  c #01A1D6",
"I  c #01A5DB",
"U  c #07A8D7",
"Y  c #18A6D8",
"T  c #02B4D4",
"R  c #01BBD4",
"E  c #01B5DD",
"W  c #01BEDC",
"Q  c #09B7D6",
"!  c #17B4D0",
"~  c #33B1D9",
"^  c #028AE2",
"/  c #0488E7",
"(  c #0293E4",
")  c #039CE4",
"_  c #0393ED",
"`  c #0895E8",
"'  c #1A98E4",
"]  c #0598F4",
"[  c #1586E9",
"{  c #2798E7",
"}  c #02A4E4",
"|  c #02ACE4",
" . c #03AAEB",
".. c #07A7E9",
"X. c #15ABEA",
"o. c #02B4E3",
"O. c #02BCE3",
"+. c #01B3ED",
"@. c #01BDEB",
"#. c #0BB6EB",
"$. c #16B5E6",
"%. c #03ACF2",
"&. c #0DA0FD",
"*. c #03B2F3",
"=. c #02BAF3",
"-. c #03BDFD",
";. c #0ABAF6",
":. c #15B3F2",
">. c #16BAF5",
",. c #27A6E6",
"<. c #34ABE7",
"1. c #23B8E7",
"2. c #37B7EC",
"3. c #25ACF1",
"4. c #3AB3F7",
"5. c #25B9F7",
"6. c #54B7D6",
"7. c #4CB3CE",
"8. c #66B6DB",
"9. c #71B7D9",
"0. c #43BAEF",
"q. c #4BB0E8",
"w. c #73BCE4",
"e. c #02C3C9",
"r. c #01CBCC",
"t. c #04C9C6",
"y. c #08D5CE",
"u. c #02C2D3",
"i. c #02CAD7",
"p. c #02C4DB",
"a. c #01CBDC",
"s. c #0ACAD6",
"d. c #12C7D7",
"f. c #01D2D4",
"g. c #03D3DA",
"h. c #03D9D7",
"j. c #17D6D7",
"k. c #1FC9C8",
"l. c #27D6DA",
"z. c #30D1D5",
"x. c #39E6DA",
"c. c #35EBD9",
"v. c #02C3E4",
"b. c #01CCE5",
"n. c #03C1EB",
"m. c #04CBEB",
"M. c #0AC7ED",
"N. c #19C9E7",
"B. c #01D2E4",
"V. c #02D2EC",
"C. c #09DCED",
"Z. c #04DAEA",
"A. c #1BD3E6",
"S. c #1BD7E9",
"D. c #01C3F3",
"F. c #09C5F3",
"G. c #03CCF6",
"H. c #03C5FB",
"J. c #01CCFC",
"K. c #0BC8F8",
"L. c #1BC8F5",
"P. c #01D4F3",
"I. c #01DBF4",
"U. c #02D4FC",
"Y. c #0AD2FD",
"T. c #01DAFC",
"R. c #0ADAFD",
"E. c #0AD8F5",
"W. c #14D8F8",
"Q. c #26CAE8",
"!. c #3AC7E8",
"~. c #26D6E7",
"^. c #38D8E6",
"/. c #27CAF4",
"(. c #26D5F5",
"). c #33D9F6",
"_. c #32C7F8",
"`. c #04E0EF",
"'. c #02E1F6",
"]. c #02E4FA",
"[. c #17E2F4",
"{. c #2AE4E6",
"}. c #37E4F5",
"|. c #38E4E5",
" X c #50CADA",
".X c #76D1DD",
"XX c #46EAD6",
"oX c #59EADB",
"OX c #4AF7D8",
"+X c #55F5DA",
"@X c #55FACB",
"#X c #72F4D5",
"$X c #5BC9E6",
"%X c #47D8E7",
"&X c #55D9EB",
"*X c #47C6F7",
"=X c #47DBF9",
"-X c #59D6F5",
";X c #4DCBE9",
":X c #79C8E5",
">X c #77D2E6",
",X c #78D7F3",
"<X c #68CFF0",
"1X c #45E6E9",
"2X c #5BE3F8",
"3X c #4DE8EB",
"4X c #62E5ED",
"5X c #79E4EA",
"6X c #64E6F8",
"7X c #77E7F8",
"8X c #75F2EF",
"9X c #85A3BA",
"0X c #90A6D2",
"qX c #AFBAC0",
"wX c #8A9BC7",
"eX c #9CC5D6",
"rX c #9DC1CF",
"tX c #9DDDE9",
"yX c #ACD7E6",
"uX c #AFD7E7",
"iX c #89E9E8",
"pX c #94E6E8",
"aX c #8DECFF",
"sX c #87E9FB",
"dX c #9AE5FD",
"fX c #92F5FD",
"gX c #8CF1ED",
"hX c #BAE8F7",
"jX c #A8F4FF",
"kX c #AFEBF5",
"lX c #D1DDF3",
"zX c #CBECFD",
"xX c #CAE7F6",
"cX c #D9EAF7",
"vX c #DAF5FB",
"bX c #C7F3F7",
"nX c #FDFAEE",
"mX c #F3FFEE",
"MX c #E4EBF9",
"NX c #E2F4FE",
"BX c #EEF5FF",
"VX c #EDFEFE",
"CX c #EDF6F4",
"ZX c #F5FEF6",
"AX c #FDFDF4",
"SX c #FEF5FC",
"DX c #F5FEFD",
"FX c #FAFFFF",
"GX c #FFFCFF",
"HX c white",
"JX c #FFFEFF",
"KX c #FDFDFE",
"LX c #FEFEFE",
"PX c #F5F5F9",
"IX c #EEEDF5",
"UX c #C3D0D6",
/* pixels */
"HXHXHXHXHXHXHXHXHXHXHXHXHXHXHXHXAXSXHXGXHXFXDXLXPXHXGXHXGXGXGXDXHXHXHXHXHXHXHXHXHXHXHXHXHXHXHXHXHXHX",
"HXHXHXHXHXHXHXHXHXHXHXHXHXHXHXHXHXVXHXGXSXnXGXDX6.0XPXSXFXAXFXSXHXHXHXHXHXHXHXHXHXHXHXHXHXHXHXHXHXHX",
"HXHXHXHXHXHXHXHXHXHXHXHXHXHXHXHXSXHXnXSXFXLXZX0.X.s w.SXDXDXAXHXHXHXHXHXHXHXHXHXHXHXHXHXHXHXHXHXHXHX",
"HXHXHXHXHXHXHXHXHXHXHXHXHXHXHXHXHXAXFXDXGXHX!.| 3.Y v iXZXDXFXSXHXHXHXHXHXHXHXHXHXHXHXHXHXHXHXHXHXHX",
"HXHXHXHXHXHXHXHXHXHXHXHXHXHXHXHXLXZXVXHXSX2.;. .4.$.o.b :XHXHXSXHXHXHXHXHXHXHXHXHXHXHXHXHXHXHXHXHXHX",
"HXHXHXHXHXHXHXHXHXHXHXHXHXHXHXHXGXAXHXPX2.H.D.] q.L.T o.N :XZXAXHXHXHXHXHXHXHXHXHXHXHXHXHXHXHXHXHXHX",
"HXHXHXHXHXHXHXHXHXHXHXHXHXHXHXHXHXGXSX<.%.D.H.%.*XQ.v.O.U v :XDXHXHXHXHXHXHXHXHXHXHXHXHXHXHXHXHXHXHX",
"HXHXHXHXHXHXHXHXHXHXHXHXHXHXHXHXZXBXq.} ;.;.D.%.*X$.a.O. . .h :XHXHXHXHXHXHXHXHXHXHXHXHXHXHXHXHXHXHX",
"HXHXHXHXHXHXHXHXDXAXLXHXZXHXGXSXPX<._ =.=.-.G.H.-XQ.v.O.E T E f :XDXAXDXHXSXHXGXHXHXHXHXHXHXHXHXHXHX",
"HXHXHXHXHXHXHXHXGXLXGXDXGXSXHXVX<.n X.=.*.;.V.;.<X~.p.R $.o.} } f :XGXGXHXnXDXHXHXHXHXHXHXHXHXHXHXHX",
"HXHXHXHXHXHXHXHXGXGXZXSXHXGXPX~ ] &.+.D.*.J.P.J.,X~.i.p.v.v.F | | N 9.HXHXDXAXDXHXHXHXHXHXHXHXHXHXHX",
"HXHXHXHXHXHXHXHXFXDXHXAXGXBX<.n %.*.=.-.H.m.R.G.gX|.g.M.v.a.! T U D f w.FXHXGXFXHXHXHXHXHXHXHXHXHXHX",
"HXHXHXHXHXHXHXHXZXHXHXLXZX,.]  .+.V.H.H.m.U.J.6XVXbXj.h.s.R E R T D b x w.LXSXZXHXHXHXHXHXHXHXHXHXHX",
"HXHXHXHXHXHXHXHXLXSXHXBXA ]  .%.J.'.J.D.I.Y.6XsX8XgXjXk.j.C.i.T K E g U h 9.HXLXHXHXHXHXHXHXHXHXHXHX",
"HXHXHXHXHXHXHXHXLXLXBX{ ] } *.G.U.I.F.Y.U.2XfXT.7X=Xc.fXl.t.y.h.u.R O.F D g 8.LXHXHXHXHXHXHXHXHXHXHX",
"HXHXHXHXHXHXHXHXSXNXS m %.#.G.].T.Y.Y.P.6XfXT.U.3X2XS.=XjXk.r.h.h.a.u.Q U b f 8.HXHXHXHXHXHXHXHXHXHX",
"HXZXFXHXSXGXZXAXBXS ( | *.H.P.].E.J.P.7X7X'.Y.T.=X|.x.{.1XjXu t.f.f.g.i.u.F b f w.DXZXHXGXFXLXAXHXHX",
"HXLXHXDXHXAXHXMXB c } *.n.I.].C.U.P.2X7XT.T.Y.P.}.%Xl.%X|.oXpXj.t.y.f.s.g.B.p.T 5 w.GXZXHXAXDXSXHXHX",
"LXAXHXHXFXGXBXC / ..@.K.P.`.'.U.U.2X7XR.E.P.U.U.Q.3X|.XXXXXX+XpXk.t.r.r.f.h.Z.i.T f 8.GXAXDXAXFXHXHX",
"DXGXAXDXDXIX{ k | =.P.I.'.].U.J.2X6XT.T.P.Y.P.U.,X7Xc.+XOXOXOX#X5Xy t t y.f.f.g.d.J g 8.FXAXHXDXHXHX",
"HXGXPXZXIXC - %.=.b.P.I.I.U.Y.-X2XR.I.P.Y.T.U.,X$XiX#X@X+X@X@Xc.+XiXy t.t.t.g.s.p.e.L F .XPXSXHXHXHX",
"SXGXHXMXd - ) | M.V.I.R.].V.=X6XE.T.Y.U.P.P.sX&X! w .XiX+X@X@X+Xx.c.5Xw w e.e.r.r.i.s.H G 8.LXnXHXHX",
"GXAXMX: > m #.n.B.P.E.U.T.).=XU.T.U.U.E.J.dXoXb.&XQ.9 9.gX+X+X@XOXx.l.$X! r.w t.r.i.u.R J 9 6.CXHXFX",
"AXcX* * z ..O.P.J.I.`.I._.).Z.Y.U.V.Y.U.aX4Xb.F.4X XL 0  X8XOXoX3Xx.l.^.z.e t w t.H e.H L J 9 8.LXHX",
"xX1 > k ..*.F.K.W.E.A./._.Z.Y.E.Y.Y.C.aX<Xu.(.{.fXoXj.Q 4 6..XOX1X1X^.(.Q.~ q w w L e L H H J L  XGX",
"0Xo r Z Z 7.7. X$X,X>XhX7X7XsXsXdXsXbXtXd.=X4X5XvXbX5X-X0.q &X(./.N.Q./.L.!.<.Q 1.! $.Y Y Y 1.>.!.zX",
"AX9X  X @ & 5 z b n M 0.dXL.M.Q.{.~.3XkXz.b.s.Z.fX7XA.n.T (.'.J.H.H.H.F.K.:.+.%.| ` P I P ..b #.hXLX",
"AXSX0X. @ % 5 x b }  .m q.pX~.E.~.(.~.{.5Xz.a.j.7X}.b.R ).[.J.O.H.=.H.>.X...*... .b N x ` N Y xXGXLX",
"SXnXGXwXX @ % s p N | | P <.iX(.N.~.{.!.{.7X~.u. XQ.R ).W.H.H.K.D.D.#.X.| +.o.I n k f = j B xXZXLXLX",
"FXAXAXGXwX. $ $ p k N I o.} ,.sX}.d.S.~.l.^.4XN.;Xd./.[.G.H.H.@.J.3.c ..*.#.n b k a k > ' lXAXZXLXZX",
"DXAXZXZXGX9XX @ $ p f b I U P V <X}.S.5.~.j.Q.%X X^.W.D.F.@.D.F.>.: ` *. . .) n = p & B lXZXGXZXAXSX",
"HXAXGXDXLXSX0XX @ $ & 5 N U I n B >X{.(.Q.Q.Q.l.&XE.H.H.D.H.D.:.[ j  .o.| ) M z a j d xXGXAXLXFXZXHX",
"HXGXGXHXAXFXDXqXX # % 5 5 D P  .` d -X).~.Q.N.L.!.H.-.K.n.@.5.c , )  . .( ) n a - C xXAXGXDXLXAXHXHX",
"HXHXPXHXLXDXDXDXeXO % 7 h g I b D M x <X{.S.L.N.1.;.J.n.G.:.c , ^  .I ) n n v = C zXHXDXSXHXFXAXHXHX",
"GXHXLXLXLXLXDXFXGXrX+ 2 7 T E v.W | } h <X~.A.S./.;.@.m.:.[ , , ) } } b k m & B xXHXSXHXSXFXFXAXHXHX",
"GXHXHXAXLXLXLXSXGXLXrX+ 4 9 p.p.#.v.v.o.U -XS.S.(.;.@.:.[ , / _ } ) v ( j 5 { zXnXVXZXnXFXFXAXHXHXHX",
"HXSXHXHXHXLXHXHXDXHXHXeX# 6 9 T W W b.m.n.v.*X~.Q.;.:.c < / - ) | n ^ ^ s B cXHXPXLXFXSXHXAXLXGXHXHX",
"HXZXHXHXHXSXGXZXFXHXFXSXyX# 7 9 H p.W b.B.v.n.Q.^.:.' l / / k M I n _ a ' MXSXnXDXHXSXDXAXAXHXDXHXHX",
"HXHXHXZXLXHXHXHXHXAXLXLXSXyX2 4 G u.p.b.v.p.b.E /.{ ^ _ / , ` n x b p ,.MXHXDXHXLXHXHXAXLXHXDXZXHXHX",
"SXHXHXFXLXFXHXHXDXSXLXZXZXHXuX3 7 J p.p.p.p.v.v.X.` / ^ , , n z z l A NXHXZXHXGXLXAXAXHXGXHXHXGXHXHX",
"HXHXHXHXHXHXHXHXHXHXLXHXLXFXDXUX6 e J p.K u.b.v.:.[ _ l , ` f f ^ A NXAXDXGXAXLXHXHXHXHXHXHXHXHXHXHX",
"HXHXHXHXHXHXHXHXSXHXLXLXZXHXFXBXyX6 0 G T J R a.! ] = ; / g j l ,.IXAXVXGXAXGXDXHXHXHXHXHXHXHXHXHXHX",
"HXHXHXHXHXHXHXHXHXHXHXLXHXSXFXFXGXyX4 0 9 T K R Y x / - m v ; <.MXLXAXGXZXSXGXFXHXHXHXHXHXHXHXHXHXHX",
"HXHXHXHXHXHXHXHXHXHXFXSXHXHXHXZXHXLXuX3 4 9 T J Y < - k ` m ,.vXAXDXHXAXDXHXAXLXHXHXHXHXHXHXHXHXHXHX",
"HXHXHXHXHXHXHXHXSXHXGXAXLXLXLXLXFXFXZXyX3 4 9 R Y < ; ] k 3.BXHXVXSXLXDXHXnXAXFXHXHXHXHXHXHXHXHXHXHX",
"HXHXHXHXHXHXHXHXHXHXHXHXLXLXAXLXLXLXHXLXuX4 4 L 8 < ] I 3.CXSXmXLXSXDXHXnXLXGXFXHXHXHXHXHXHXHXHXHXHX",
"HXHXHXHXHXHXHXHXHXZXFXHXHXHXHXHXLXHXZXLXHXuX4 0 S < ` 1.PXGXDXHXnXGXGXAXLXGXFXLXHXHXHXHXHXHXHXHXHXHX",
"HXHXHXHXHXHXHXHXGXGXHXHXSXHXHXHXZXLXSXLXLXHXhX4 V _ 4.vXAXFXPXHXLXDXFXAXHXFXZXAXHXHXHXHXHXHXHXHXHXHX",
"HXHXHXHXHXHXHXHXHXHXHXHXHXHXHXHXHXHXLXLXLXHXDXlXY 6.vXLXAXSXHXFXHXHXHXHXHXHXHXHXHXHXHXHXHXHXHXHXHXHX",
"HXHXHXHXHXHXHXHXHXHXHXHXHXHXHXHXHXGXLXHXSXZXFXCXzXMXHXLXHXZXFXHXHXHXHXHXHXHXHXHXHXHXHXHXHXHXHXHXHXHX"
};
