/* XPM */
static char *coll_removebg_preview__2___1_1671810814[] = {
/* columns rows colors chars-per-pixel */
"40 40 226 2 ",
"   c None",
".  c #5C3917",
"X  c #573518",
"o  c #673719",
"O  c #763A1B",
"+  c #542C24",
"@  c #5D2F28",
"#  c #483423",
"$  c #533C24",
"%  c #5A3924",
"&  c #4B2D24",
"*  c #782D2C",
"=  c #673927",
"-  c #7A3528",
";  c #763030",
":  c #7B4119",
">  c #594124",
",  c #674225",
"<  c #734425",
"1  c #7B4727",
"2  c #725822",
"3  c #B71833",
"4  c #872C29",
"5  c #973929",
"6  c #973B35",
"7  c #8F2E2F",
"8  c #A12F2C",
"9  c #AB312E",
"0  c #B7342C",
"q  c #AC2437",
"w  c #A13E31",
"e  c #B83634",
"r  c #BB2C3A",
"t  c #D7392F",
"y  c #D22D30",
"u  c #C33532",
"i  c #C83835",
"p  c #D53B3D",
"a  c #CE2A36",
"s  c #E42E3D",
"d  c #E7383B",
"f  c #82401C",
"g  c #884B27",
"h  c #964927",
"j  c #99502E",
"k  c #9A5437",
"l  c #A94924",
"z  c #B75327",
"x  c #A74735",
"c  c #A05333",
"v  c #B25B39",
"b  c #B94C33",
"n  c #8E6426",
"m  c #AA643D",
"M  c #C4572D",
"N  c #D44935",
"B  c #D3433B",
"V  c #DC443D",
"C  c #DC4C3D",
"Z  c #D54D38",
"A  c #CF5A32",
"S  c #DC523A",
"D  c #D85937",
"F  c #C84531",
"G  c #E2433F",
"H  c #EC443C",
"J  c #EC4A3B",
"K  c #E84939",
"L  c #F0473E",
"P  c #F14A3D",
"I  c #EF5434",
"U  c #ED543B",
"Y  c #E25C3A",
"T  c #EC5B3B",
"R  c #E55535",
"E  c #F05434",
"W  c #F15C32",
"Q  c #F0533B",
"!  c #F25D3E",
"~  c #D7653E",
"^  c #F2682F",
"/  c #E56936",
"(  c #E4643B",
")  c #ED623C",
"_  c #E46A3D",
"`  c #EE6C3C",
"'  c #E56537",
"]  c #F06334",
"[  c #F0693A",
"{  c #EC7338",
"}  c #F1743A",
"|  c #F27B3D",
" . c #F27732",
".. c #9F0658",
"X. c #9F0856",
"o. c #A4055A",
"O. c #A9095B",
"+. c #BC0B5E",
"@. c #B1085D",
"#. c #AC1359",
"$. c #AB1554",
"%. c #B81B59",
"&. c #B91E4E",
"*. c #A92142",
"=. c #BF2B51",
"-. c #BA1961",
";. c #BA0962",
":. c #C80D5E",
">. c #C21B51",
",. c #DC125C",
"<. c #D1174A",
"1. c #E41C53",
"2. c #E3165A",
"3. c #E21959",
"4. c #C22E46",
"5. c #CC3A47",
"6. c #DC3F42",
"7. c #D63648",
"8. c #C62054",
"9. c #C62C53",
"0. c #D22452",
"q. c #CB3454",
"w. c #DE345C",
"e. c #E52C45",
"r. c #E5244C",
"t. c #E42C4A",
"y. c #E92D4B",
"u. c #E63443",
"i. c #EA3B42",
"p. c #E93C49",
"a. c #E73845",
"s. c #E42252",
"d. c #E62658",
"f. c #E83853",
"g. c #CC1465",
"h. c #C71665",
"j. c #D61565",
"k. c #D90F63",
"l. c #C32661",
"z. c #BE5544",
"x. c #B84A40",
"c. c #B47341",
"v. c #DB4C43",
"b. c #D84947",
"n. c #DE5444",
"m. c #D55B4E",
"M. c #CB4E54",
"N. c #E54241",
"B. c #E94343",
"V. c #EB4A43",
"C. c #EB424C",
"Z. c #E64E42",
"A. c #F24D41",
"S. c #ED5A41",
"D. c #E15B4B",
"F. c #EA5546",
"G. c #F35D42",
"H. c #F25547",
"J. c #DD6945",
"K. c #D96549",
"L. c #DB7546",
"P. c #C76251",
"I. c #DB6855",
"U. c #E46542",
"Y. c #ED6443",
"T. c #EC6A42",
"R. c #E4634D",
"E. c #E66D46",
"W. c #F26543",
"Q. c #F36B44",
"!. c #F56D4B",
"~. c #EC7A4E",
"^. c #E87948",
"/. c #F37445",
"(. c #F47A4C",
"). c #F37749",
"_. c #F06251",
"`. c #EC7655",
"'. c #F27C51",
"]. c #E36351",
"[. c #EE8737",
"{. c #F48432",
"}. c #F48B35",
"|. c #F2833B",
" X c #F48B3B",
".X c #EF9438",
"XX c #F49534",
"oX c #F79B32",
"OX c #F4933C",
"+X c #F59A3B",
"@X c #F5AA3D",
"#X c #F5A637",
"$X c #F6B83A",
"%X c #F8C43A",
"&X c #D89B53",
"*X c #E68148",
"=X c #F48841",
"-X c #F59646",
";X c #EE875A",
":X c #F58755",
">X c #E99655",
",X c #F49A5B",
"<X c #EB954B",
"1X c #F7A842",
"2X c #F8B743",
"3X c #F4A65B",
"4X c #F7A95D",
"5X c #F4B65B",
"6X c #EEA256",
"7X c #F4986C",
"8X c #F3A667",
"9X c #F5B461",
"0X c #F6C741",
"qX c #FAC743",
"wX c #FBDB43",
"eX c #FAD545",
"rX c #FBCC58",
"tX c #FBDB5B",
"yX c #FBE844",
"uX c #FAD66A",
"iX c #F9D972",
"pX c #F9C261",
"aX c #FBE76A",
"sX c #FCF27C",
"dX c #FEF982",
"fX c #FBF583",
/* pixels */
"                                                                                ",
"                                                                                ",
"                                      >X>X                                      ",
"                                        3X                                      ",
"                                        ;X~.k m                                 ",
"                                    x 1 J.!.v c.4X                              ",
"                                  K.h v T.!.J.^.4X,X                            ",
"                                W.T.J./.).).).:X:X:X~.                          ",
"                              W.Q.) ( ' _ ' / ` ).(.'.                          ",
"                        n   W.Y.R R 6XuXiXuX5X>X{ E.~.                          ",
"                          ~ T t K  XuXsXsXdXdXfXiX>X_ E.&X4X                    ",
"                          S t d ) .X#X2XrXaXaXsXfXfX5X~ *X3X:X                  ",
"                        N y d H }  X+X@X2XeXyXwXtXaXsX9XD ~.(.E.                ",
"                      S a s s K } [.OX1X0XwXyXyXwXeXtXiX<XS Y.Y.                ",
"                  D Y p t.u.s K / [.#X2X0XeXwXwXeXqX2X1XrX>XZ U.                ",
"                  D N 7.C.e.s U [..X#X@X$X%X%XqXqX2X2X1X1XpXS D                 ",
"                A A p _.F.e.u.( [..XXXXXXX#X%X%X%X%X2X@X-X-XQ.i                 ",
"                A F D.-XF.t.N.' { {  . .{.XXoXoXoX#X$X@X+X X=Xy                 ",
"              M M i !.=XG.Z.T T U T R ) [ } | |.}.oX#XoX=X|.=X6.3               ",
"              M F p !.W.U S.H u.t.N.K U T ) ) T.}  .}.}. X| /.B.3               ",
"              z 0 v.H.P H Q e.r.e.u.H J I W ] S.) Y.[  .{.| ` V.<.9             ",
"            z z 0 G V.H H p.f.r.H J E W E W T V.Z.A.S.] ^ { Y.p.<.9             ",
"              l 0 H J J i.1.f.y.I Q d d i.H H N.B.V.K T ^ ] S.t.2.q             ",
"              l r J K H y.1.s.f.U E y.1.t.u.u.a.i.B.H I ] ] C.1.k.*.            ",
"              5 u J G N.r.3.3.d.G.Q i.1.1.y.u.u.u.u.H W W P r.3.k.*.c           ",
"              l i G G N.0.3.3.3.C.G.P i.i.H L L i.H E E E a.3.k.j.*.j           ",
"            2 h e N.N.G 0.,.3.2.y.Q G.! P L L L L L P L U C.j.j.j.*.h g         ",
"              f 0 G V V t.:.k.2.d.) ! | } H.A.P P P L L Y.w.g.g.g.7 g g         ",
"              f 8 V K V v.>.:.:.2.W.|. X[.W.W.G.Q./.| | D.h.h.h.>.4 g 1         ",
"              : 4 Z ( C p 6.>.@.;.q.m./. XOX X XOX+X.XI.l.;.+.0.r 4 1 <         ",
"              O O e Y R V G p &.O.@.@.%.q.K.L.*XL.L.M.-.-.8.7.V 7 < <           ",
"              o o 4 D ( S C V p &.o.o.O.O.O.$.#.#.=.=.9.7.N.D.e ; < ,           ",
"              o , o 5 E.`.U.C C V 4.$.......o.$.=.5.b.D.].`.m.; , ,             ",
"                . . o 6 ^.,X*XE._ Y B 5.4.4.5.b.n.n.^.8X7XI.7 % >               ",
"                  X X o 5 L.,X9X5X*XJ.K C C v.v.b.].8X8XP.; % $                 ",
"                      X # ; x L.>X7X`.`.].m.U.n.n.I.P.j ; $ $                   ",
"                                6 6 x x.z.z.b x 7 ; @ # >                       ",
"                                    + + + + & & # #                             ",
"                                                                                ",
"                                                                                "
};
