/* XPM */
static char *pngegg__7_1671737781[] = {
/* columns rows colors chars-per-pixel */
"60 45 224 2 ",
"   c None",
".  c #1A0A09",
"X  c #2A140E",
"o  c #33180E",
"O  c #2A1811",
"+  c #331C12",
"@  c #371C13",
"#  c #3C2114",
"$  c #3D241B",
"%  c #362016",
"&  c #42261A",
"*  c #462A1C",
"=  c #4B2B1C",
"-  c #432416",
";  c #53311D",
":  c #59361F",
">  c #502E1C",
",  c #4A2C20",
"<  c #543423",
"1  c #5E3924",
"2  c #5B3A29",
"3  c #583828",
"4  c #5C3E32",
"5  c #613B25",
"6  c #653E2A",
"7  c #65412C",
"8  c #6C432C",
"9  c #6C462B",
"0  c #76492C",
"q  c #644332",
"w  c #6A4533",
"e  c #6C4936",
"r  c #6E4D3A",
"t  c #734B33",
"y  c #794F37",
"u  c #734E3A",
"i  c #76523C",
"p  c #7C543C",
"a  c #7A5235",
"s  c #7C5641",
"d  c #7C5845",
"f  c #654D40",
"g  c #824C25",
"h  c #89542D",
"j  c #955A2B",
"k  c #82553B",
"l  c #835A3D",
"z  c #8A5D3B",
"x  c #885733",
"c  c #925C32",
"v  c #905E3D",
"b  c #996339",
"n  c #A66A2D",
"m  c #B0712E",
"M  c #A76D36",
"N  c #AE7436",
"B  c #B2783A",
"V  c #835B44",
"C  c #885E46",
"Z  c #8C6143",
"A  c #86614B",
"S  c #8C644C",
"D  c #866145",
"F  c #91664A",
"G  c #93694C",
"H  c #996A46",
"J  c #9B714B",
"K  c #8D6752",
"L  c #8D6D59",
"P  c #946C54",
"I  c #986F54",
"U  c #946E58",
"Y  c #977057",
"T  c #9B7255",
"R  c #967159",
"E  c #9B745B",
"W  c #9F785F",
"Q  c #AC7544",
"!  c #A5734B",
"~  c #AA774D",
"^  c #AD7A4C",
"/  c #A97545",
"(  c #B57C4B",
")  c #B57B43",
"_  c #AB7C53",
"`  c #A2795D",
"'  c #A67958",
"]  c #B07F53",
"[  c #A26B40",
"{  c #9E7961",
"}  c #9B7560",
"|  c #836C66",
" . c #A37D64",
".. c #A57E67",
"X. c #BE813E",
"o. c #BA8144",
"O. c #B9834C",
"+. c #AC815A",
"@. c #AC8057",
"#. c #B58353",
"$. c #B98454",
"%. c #BE8A55",
"&. c #B4845A",
"*. c #B5885E",
"=. c #BC8A5B",
"-. c #B9875B",
";. c #A68067",
":. c #AD8363",
">. c #A5816B",
",. c #AA846A",
"<. c #AD886D",
"1. c #BB8E62",
"2. c #B38B6D",
"3. c #B68A65",
"4. c #BD9164",
"5. c #BA916B",
"6. c #AE8A72",
"7. c #AA8875",
"8. c #B48E73",
"9. c #B98F72",
"0. c #B69174",
"q. c #BC9376",
"w. c #B4927B",
"e. c #BB9579",
"r. c #BE997C",
"t. c #C48C4C",
"y. c #C48843",
"u. c #C38E5B",
"i. c #C58D53",
"p. c #CA9452",
"a. c #C5925C",
"s. c #CA955C",
"d. c #CC9958",
"f. c #D29C5A",
"g. c #D09952",
"h. c #CA9248",
"j. c #C49464",
"k. c #C99664",
"l. c #CD9B65",
"z. c #C2966D",
"x. c #C5996C",
"c. c #CB9B6B",
"v. c #D19D64",
"b. c #C19675",
"n. c #C99D72",
"m. c #C29B7D",
"M. c #C59A74",
"N. c #CFA165",
"B. c #D3A265",
"V. c #D2A26B",
"C. c #DAA868",
"Z. c #CEA274",
"A. c #CDA37D",
"S. c #C9A678",
"D. c #D3A573",
"F. c #D6A975",
"G. c #DAAC75",
"H. c #D3A67B",
"J. c #D4AA7B",
"K. c #DAAD7B",
"L. c #DDB27D",
"P. c #DBB177",
"I. c #E2AF69",
"U. c #E4B56E",
"Y. c #E2B474",
"T. c #E1B47D",
"R. c #E7BC78",
"E. c #BD9A82",
"W. c #BA9780",
"Q. c #BEA486",
"!. c #C39E83",
"~. c #C59F85",
"^. c #C5A285",
"/. c #CBA381",
"(. c #C5A48B",
"). c #CBA88C",
"_. c #CDA988",
"`. c #D4AB84",
"'. c #D5AB84",
"]. c #DDB284",
"[. c #DBB48B",
"{. c #DBB485",
"}. c #C9AA93",
"|. c #C6A995",
" X c #D4B394",
".X c #DABA9A",
"XX c #D8B597",
"oX c #D0AF93",
"OX c #E1B683",
"+X c #E4BB84",
"@X c #E8BD83",
"#X c #E3BB8C",
"$X c #E5BB89",
"%X c #E3BD93",
"&X c #D7B9A2",
"*X c #E6C08D",
"=X c #EBC38C",
"-X c #ECC486",
";X c #F1CC8D",
":X c #E6C294",
">X c #E9C393",
",X c #E5C49C",
"<X c #E9C59B",
"1X c #ECCA9B",
"2X c #ECC996",
"3X c #F1CF9A",
"4X c #F1CD95",
"5X c #F3D39C",
"6X c #EFD19D",
"7X c #DCC2AB",
"8X c #ECCCA2",
"9X c #E3C7A8",
"0X c #F1CFA2",
"qX c #EDD2A7",
"wX c #EDD4AE",
"eX c #F1D2A4",
"rX c #F4D9AC",
"tX c #F5D7A6",
"yX c #E7CCB4",
"uX c #EDD5B3",
"iX c #F9DEB4",
"pX c #F4DBB6",
"aX c #F9E2B7",
"sX c #F7E3C2",
/* pixels */
"                                                                                                                        ",
"                                                                                                                        ",
"                                                                                                                        ",
"                                                                                                                        ",
"                              aX                                                                                        ",
"                              1X=X                                                                                      ",
"                            -X*Xt.@X=X                                                W.L XX                            ",
"                              I.rXf.t.qX  J.                          :X1X3X0X:X1X).8.U }.&X                            ",
"          eXrXeXrXwX      N.J.  N.*X;Xg.I.L.%.                  $X%X>XeXK.D.:X0X:X#XU W.yX&X&X                          ",
"            P.+X>X6X5XaXtX:XU.f.h.p.C.5XC.X.1.p.            8X@X0X<X%XG.T.v.l.,XG.c.yXXX~.|.|.7X                        ",
"        2X<XP.#Xs.B.Q %.N.Q N.X.m X.X.p.N.-XC.X.d.        ,Xn.T.$X#X#Xa.=XI.%X@X.X(.|.E.E.~.W.|.                        ",
"      M.q.x.  S.x.4.s.B.rX;X-XS.f.B N o.h.d.U.L.m B.      <X1XqX4Xk.'.o.G.OX.X8.E  ...>.E.E.(.|.                        ",
"          D.K.J.L.a.4.%.#.m p.U.U.5X5X;XN.N O.g.g.n B.  .X=XK.].D.G.D.'. X!.<. .{ >. .,.8.e.E.W.|.                      ",
"        G.2XN.a.O.O.N X.M h.d.U.-XN.X.O.U.;XR.U.C.t.d.J.c.#X1XM.^.~.~.m.,. .U { { >.{ <.w.8.{ Q.(.                      ",
"    1XJ.Z.      P.O.R.5XR.d.P.a.%.N n n *X^ O.s.=.P.l.' ' 2.E R .... . .R Y U { { >...>.;.E <.^.~.                      ",
"  `.[.        +XU.tXB.G.) b j h %.L.-XN.b b b 0 0 b g w a ^.u d K S K Y K K K {  .<.0. .W 2.r.!.e.Q.                    ",
"  wX      >X].=XG.a.j j g c J.] L.V.#.J `.2.P ...XJ z i k R t p V C K K P K Y ..,...U  .<.0.A.e.r.~.                    ",
"  :X  XX5.4.F.z.j.! &.x   8X+X>XJ.9 D S.S < ; 6 8.).5.i ^.V p s V K  .} W { E U d C ..6.e.0.e.r.r.E.}.                  ",
"                      7XOXc.k.! y ' 0.S O . . . I e.!.^.S D V d p d i q e u u s P K  .,.0.r.e.e.^.(.|.                  ",
"                  &X9X X' T V F T T t O X % O X e ,.2.,X!.3 P 2 6 w q q w u V C P R  .E ` ,.8.0.q.m.~.}.                ",
"                 X~.,.P C C C C k = o @ @ $ + + X P :...m.M.+.r u s D A A V S Y P K P { W ` 6.;.<.e.e.(.                ",
"              |...E V k p u 2 @ + o @ & < & # + X V `.T q.q.^.d e V P R E R T T P E K Y E E E ;.,.<.w.(.                ",
"              } u 6 3 , & @ o @ * * > > & = ; ; @ ^.G ` 2.8.m.^.A q V D K T K K Y P E E P P R E <...w.W.                ",
"              ..e , , & $ - - - 8 6 6 6 5 8 1 : wXqXp K ` e.q.e.r.d e s D D P P E T E P P P E E E  .7.~.                ",
"              7.7.A , $ , * > 6 0 0 8 J x 9 l ].uXS.1 S E :.0.m.r.0.r p s K P E E { E E  .Y E  .R ..>.r.                ",
"              }... .U , y y Z z z b b J ! 3.8XsX&.a t t T <.8.q.r.e.,.e p S P W Y E E {  .{  .R >.>. .w.                ",
"              >...>.,...H H h C q.#.+.4.j.pX,Xu.' t a i t P 8.8.m.q.0.r V D P E Y T E E { E W W 8.{ >.>.                ",
"              7.<.<...Y P s T H +._ ~ *.4.qXrXH.' #.J G ; 5 G <.r.r.r.r d D P Y W Y T `  .W W ;.;.8.,.;.                ",
"              |.8.,.8.9.l p c.~ k.c.-.,XpXn.=.5.) -.Q ~ Z 5 # t E e.^.3 w p S P W ` T W E  .T W ..8.6.7.                ",
"            |.E e.<.K K = G j.*.D.=.q.>X8XZ.1.~ ^ O._ #.5.] x ; $ G 8.$ + 9 k l G G T T I  .E ` ;.>.8.E.                ",
"                  7.} W 2.v #.l.%.F.2X#X_ 1.c &.^ %.:Xu.-.l.H z 7 $ i i 1 * * 6 0 k F F E T ` W ,.<.8.XX                ",
"                    7.:.;.q.' :.@.{.J.#.] b k.a.Q $.=.( k.]  .! R R W ~ +.[ 5.9 = 1 t l Z Z G W 2.8.0.}.                ",
"                E   | >. .E :.T U 1.F ] 1.D.u.1.#XH.l.( A.2...` G F $.] &.#.( '.-.5.s < 9 i l F P V P 7.m.=.uX          ",
"                  G C d a A V C &.&.] O.[ ! H.l.%.H s.G.u.v.*.t 6 v -.] ( #.u.c.G.G.k.p.n.f 3 6 4 q >._.  {.            ",
"                    z.1.x 1 D @.j.u.u.G.D.i.K.] T.c.u.G.c.c.V.H.1.#.u.v.k.T.K.G.qXiX3X>X$XJ.[.5.z.3.`.e.:X,X            ",
"                  {.K.q.D.M.A.k.M.u.=.F.v.-.v.u.) v.OX'.G.G.C.u.].v.T.K.pX4X1XsXtXOXk.K.].>X#X[.{.`.  b.K.              ",
"                          ).#.u.c.OX].n.D.K.j.F.c.k.i.c.T.L.D.@XK.3XaX3X@X2X<XG.j.>XH.m.b.J.n.A.    OX  `.              ",
"                            a.u.u.( -.j.] u.%Xc.D.c.k.].u.D.%X4XiXD.<X].].    '.  '.        '.  <X  D.  9X              ",
"                  G.  A.    /.[.D.u.#X( OXc.n.].u.c.k.k.%XiXtXL.K.].-.~   -.' k.n.        .X                            ",
"                            K.  %X  %XY.].v.C.=.i.K.u.G.s.K.Q Q c /   *.  1./.XX        9X                              ",
"                            9X`.@X#X%X%XR.%X_.@XOXD.'.K.$.[ 3.H.n.H.  K.8X                                              ",
"                                    ~.      0Xv.oX<XK.  q.`.'.              '.                                          ",
"                                        [.8X~.  _.%X].                                                                  ",
"                                                  oX                                                                    ",
"                                                                                                                        "
};
