/* XPM */
static char *result[] = {
/* columns rows colors chars-per-pixel */
"80 80 86 1 ",
"  c #584C3E",
". c #6E5F3F",
"X c #76642D",
"o c #706038",
"O c #79683A",
"+ c #594E42",
"@ c #5D5145",
"# c #605447",
"$ c #625649",
"% c #66594C",
"& c #695C4E",
"* c #675B51",
"= c #6C5E51",
"- c #6E604F",
"; c #6E6153",
": c #6F6358",
"> c #736456",
", c #766658",
"< c #77685B",
"1 c #7B6C5C",
"2 c #7C6E61",
"3 c #7E7163",
"4 c #7F7369",
"5 c #917D27",
"6 c #816F46",
"7 c #8C794A",
"8 c #907E4D",
"9 c #806F5F",
"0 c #827355",
"q c #81705F",
"w c #806F60",
"e c #837263",
"r c #887765",
"t c #8A7967",
"y c #847669",
"u c #887768",
"i c #86796C",
"p c #8C7C6B",
"a c #917F6B",
"s c #877B70",
"d c #8C7E71",
"f c #B6AD3B",
"g c #C3AF10",
"h c #C3AD1B",
"j c #C1B322",
"k c #DCC411",
"l c #E5D208",
"z c #F4DF0C",
"x c #EAE717",
"c c #CEC228",
"v c #93834F",
"b c #908259",
"n c #928261",
"m c #92806D",
"M c #8E8173",
"N c #8F8378",
"B c #948473",
"V c #988775",
"C c #9A8976",
"Z c #948679",
"A c #96897C",
"S c #9C8B7C",
"D c #A08F7F",
"F c #A0917F",
"G c #9C8E81",
"H c #9E9184",
"J c #A08F80",
"K c #A39384",
"L c #A69788",
"P c #A89789",
"I c #A7998B",
"U c #A99A8B",
"Y c #A59B91",
"T c #AD9E91",
"R c #AFA194",
"E c #B1A396",
"W c #B3A699",
"Q c #B5A99C",
"! c #B8AC9F",
"~ c #BAAEA2",
"^ c #BCB1A6",
"/ c #BEB3A9",
"( c #C1B7AC",
") c #C3B9AE",
"_ c #C7BDB4",
"` c None",
/* pixels */
"````````````````````````````````````````````````````````````````````````````````",
"````````````````````````````````````````````````````````````````````````````````",
"````````````````````````````````````````````````````````````````````````````````",
"````````````````````````````````````````````````````````````````````````````````",
"````````````````````````````````````````````````````````````````````````````````",
"``````````````````````````````````````````````````````````ysy```````````````````",
"`````````````````dYYLHHAZy```````````````````````````NGHIYTTLN``````````````````",
"````````````````APUEEERWEI2sG4sGGGGyiBZBBdBddppie``4LEREEERTUUG`````````````````",
"```````````````SUUUTEERRTZZTRSTEEETLyiSFSSFSSDSLH`3LETEEEEEUPUPG<```````````````",
"``````````````dLUUUUUEWIdGEEEEEERRUUS<pSSSSSSSKPGyIEEEEEETPPUPPPe```````````````",
"``````````````eKUKKVmFKMLEEEEEEEWUPPZ4<pBSDSSFIGiIEEEWQELCBJPLUC1```````````````",
"``````````````1dTPPmmteRQEEWWWEPSSPPKPZ2eSSSKLPBKQ!(^EKmaamCPUIu1```````````````",
"``````````````eeHWHmmeCUE/_QPDmmmmKPPIi2CSSKLPLdLPE)TmtmmmmmUWMe1```````````````",
"`````````````=werRCmmySPTEQBtammmmKIRBq1SSDLPPLdLPULFarammmaPIeq9```````````````",
"`````````````>ee3SmmmeLLLFLmramCBpK!Hee1CCKPPFSNLKSKSmmmmmmaCZqee:``````````````",
"`````````````>eeeCmmmiKFSSSmaVSSVtVRe,<,pmDPPLCBKSSSBetmmammCaqee>``````````````",
"`````````````<eeepmmtiCDLDVetVBaiyBS,Bi>taCKKAudSDCSmaaaaaamVaqqe,``````````````",
"`````````````<e19raatettAGVaatrbv1BidUPAwaaare1ySSSSVaaammmmaq99e,``````````````",
"`````````````>eeeeaape0jfbBmt7cxh&meSE!L9aa9we1eDSSSmamammmaae99e,``````````````",
"``````````````weeetare9glvBma6kz5>a1ZK~C9ateeeweSSCDDamaamaatrqrw```````````````",
"``````````````,<<,>>;<e.OpptmyoX ea1CKPa9trewe91BVACattqe99<,119,```````````````",
"``````````````*dAdi>dH3133y31u::12eeDKBaqrrewee>wrue1<,,,,;:1wsw%```````````````",
"``````````````SUREEdGWy><rCC<>1CSr;<aBmmrieeeee<,euw<,,,,;ZITERPN```````````````",
"`````````````MPPLTWBpCe3<emm<;>mmq&;9aar<2eeew1w>e1<,,,,;ZEEEEUPUB``````````````",
"`````````````eIPBmFBrmCPPBmme23mmr1dBaa1u2eeee1e<11,<>,:AWWWPCCPUp``````````````",
"`````````````1ZUmaaermBCDVmBFPFmaVLSitt91dGeeeeew&>,<<>2T~WVmaBUGe``````````````",
"`````````````9rSmmaeeamammVmmFCmaapeetr,3eppeeew1>$;-&%iPPSaammFpw:`````````````",
"````````````>qeBmmar<aaammBmmmmmaaeeqte%yeee91111=`````BDDBtmmmVee>`````````````",
"````````````=<<qraame<tmCBmmtmmmaperre1=eeeeee1<>``````aSDBammaa2e>`````````````",
"```````````32yiMeeppBe,yeeermmVVmBGZe<=<eeee1ee<%``````iDCVmma1<,,:`````````````",
"`````````2ZLPPPUK1,19e,>;%%&;><2>yi,&%&9eweeee1=```````rBBmtr<BKKKJKZ1``````````",
"````````yCSPLKPQUB>>>92```@#$$@@@@%$$&>wewwe2,:>```````;q9<,>wKELLLPHCe`````````",
"````=2dsDDDKPUUKUKi;<>:````$=>>>&%$%---1q11edZpe````````11>>,CL!EUPPDSFM=```````",
"```=2sdSUPDFFDBaCWD1%$```````$=>&&&%%%%;>1iBdeee````````%>>:pLUBKUPPSDKPpy2&````",
"```<edsKPPUDBmammK/L```````````@#==:<,,1pmViee91`````````$%3KWSmmmCFKPPPZiy2````",
"``>weiBUPUFmmmammV~P````````````rCCSFBmmBmaeee99```````````K(KammammFPPPHyuy<```",
"``weq1CUURCammmaaSEKi```````````ZIFFVmtmCBBeeeeq```````````L!CmmmmmmVPUPPureq;``",
"`%wee<wT(FamammaaFULd```````````BWRBq1<1uBBee9e1``````````yKEKaaamammF!UI312e1``",
"`%1we1,mQmmmaaaaaLEPZ```````````<ure11111<ppw9<=``````````pLUUammmmmmaT(B>qeee&`",
"`%<eeq>qmDamepaBmQ/UZ````````````:eqq<11,2ee1>>```````````MUUUmmaaaamaKA2>eqq1%`",
"`&<9er<weaBaaaaammBpi```````````1:2eq,1>,91>1:+```````````ZP~/mmmaqaaVSe9>eeq<%`",
"``1eaKww9eaaaaaareqe<``````````3Hp=,,--->-,2KZ=```````````iBBZBmamaammre11ee9,=`",
"``<eeGy<911rtaVaeeeq>`````````2CSe,>&&%$@>ZBiJB```````````>eqqemamaaar9q1rpi91=`",
"``&wew<=;,,wwtaueee9``````````ZByidSp,>,=eSKpyAd``````````;eeeepaaat9<11>BUie1``",
"```<e<<>=;<9eeerree1`````````ZSyBdZPSdr1<edDSidSd``````````1eeertrwe9,,-2mMee>``",
"```&1,,,<>-wuueearee`````````LZMSdeBi1,=>erBSDdGH``````````1eqerreee,>-qe<2e9```",
"````%-,,<ry2ueeepamp````````ZUGHKB>1e9,->eaaCKJGUi`````````,eetaeeee,-qq,,<e<```",
"```` &>,<wAwe2weamSd````````3NMTLar>91>-=uZmmUPdN<`````````emtar9eew>ar,,,,,;```",
"`````#&,eeGi31eepSJd```````CHGsLKt1>%>&%$11qpUAdHHd````````ySmmre9e1eC1,,>-%````",
"``````%,erZA1ee1uLKd``````BUTETsm1>>$````-,>edZWETLy```````eSSBee<91iB1<,>%#````",
"```````>1ee31eeed~Jd``````ZKBKQSu1>#``````&>euIRCBLi```````ySLCewee1Bd91,&$`````",
"````````&>=%<eeesKLB``````eSmaJZ11%```````@;13JBamG2```````ySRS99ee2Yree>%``````",
"`````````+>,>1<,>ySC``````1BBmCB>;`````````$><SBami1```````iSELseewedeee<%``````",
"``````````1e=>,,,2ed``````1iBmCmdHi````````BGeCmaBe,```````iJK2291w>,11;````````",
"``````````>91%&&=2><`````:2ee9q1BLSM``````ZDLyeqeee,```````iAp9<>,>%%%=`````````",
"```````````,<&%9sGd*2di``Gd2<,,>rDLK`````iLLS9><111AN``````ee<,=>>*1e,``````````",
"````````````&=9edPS2KTTG:HA;==%>mmLPp````AUKmr;>,;:LN``````:;y2<=$=1w```````````",
"````````````$1weCPDdaCKWNSR3uGrammKRy````BWCmmiBG1MTN```yBZ:,LSyw%><=```````````",
"````````````=weeBPDSepaDZMUpMPCmtaCB;````1CCpaBKHyCKy``ZTRUBpLKde9:$````````````",
"````````````;9ewpKSCieaSM:e1<etammp1`````>epaBmr2,e9;`iEUBBiCKLpw91`````````````",
"````````````;19qrBCVS1eMe,31,erttq1>``````<1eppee>e1``iKmaedGKKreee%````````````",
"````````````,9qrpmVDSN,<,iee<eree<=````````,erere<e1`ysSBawAZKDeeew=````````````",
"````````````>epAmaBSSK:=eSpmeBpee;``````````1eeaBeBi`Syar1pSCVaruy1>````````````",
"````````````;wuKBamKST31SHNCrDpq1```````````>2eBSeDy`Kw<,<SSSBaper1>````````````",
"`````````````9r9pmaKLTd:s2iKsYde1````````````eeSKdL,:Ld%$yHCSmaCGie>````````````",
"`````````````<9,1ttDWUSdA2yZid,9<````````````1,2Z4s,uHLe=ALSSBBCHew`````````````",
"`````````````&>,,emK~PGBTG2:2di>$````````````%2pi<*,piSi>LLKCBBa3e1`````````````",
"``````````````&,,<BLPTZyyiZLWKSd,````````````2BSUWd>e<2y4PUTBap<,11`````````````",
"``````````````#>,1aSSLd<iU~/JSACB```````````2CCCSUY>1MTUdPT~Vm9,>>&`````````````",
"``````````````@&,9iSAA,2SZdTQRUSme``````````tVDPDWA&yQICyLTELt,,>&``````````````",
"```````````````%1eedew<21<><KQCamt`````````<aamV`e>%MLMmeKPDSe,,>#``````````````",
"````````````````->eZUKSSSAGiiBataa<````````emapae2M;iCmmrBSCSe1,&@``````````````",
"````````````````$uKUWEmVSCDPA9tamae````````rmmmeyGL2eBtr9wSSGee<&```````````````",
"````````````````ySASLFaaaaaSSirmae>````````<rameBCCp>1,,>>BPUee>#```````````````",
"````````````````ABeSDmtaaprVSB9rw>%````````&1er2ASmr9&&%%$2Pdw<%````````````````",
"```````````````>rppCmapaaapaCB<we1`````````%1q21CBaat<$@*&$1=%%`````````````````",
"````````````````>1111>>>>>>,1==>;```````````%>>&>1>>>>>&%=,>;%``````````````````",
"````````````````````````````````````````````````````````````````````````````````",
"````````````````````````````````````````````````````````````````````````````````",
"````````````````````````````````````````````````````````````````````````````````"
};
