/* XPM */
static char *_000_F_492935926_9LTlZdumMyOJEQY3M4r3EULIf9ikeg09_removebg_preview__1_1671822925[] = {
/* columns rows colors chars-per-pixel */
"80 80 248 2 ",
"   c None",
".  c #130E0A",
"X  c #19150A",
"o  c #1C011C",
"O  c #140315",
"+  c #1A1611",
"@  c #0E0010",
"#  c #241C0A",
"$  c #351410",
"%  c #29240A",
"&  c #37260E",
"*  c #1E0725",
"=  c #220122",
"-  c #2B012C",
";  c #290328",
":  c #330133",
">  c #3B013B",
",  c #3A0539",
"<  c #301028",
"1  c #392527",
"2  c #470115",
"3  c #560517",
"4  c #510E0F",
"5  c #690D15",
"6  c #730E17",
"7  c #7C131A",
"8  c #761417",
"9  c #6B1312",
"0  c #542A12",
"q  c #6A2313",
"w  c #782716",
"e  c #793412",
"r  c #6E300F",
"t  c #54022E",
"y  c #66042B",
"u  c #6A043A",
"i  c #750239",
"p  c #771837",
"a  c #781625",
"s  c #7A2E26",
"d  c #54332F",
"f  c #3F0140",
"g  c #430144",
"h  c #490448",
"j  c #540155",
"k  c #590457",
"l  c #550649",
"z  c #750346",
"x  c #72064E",
"c  c #78026D",
"v  c #7B017C",
"b  c #750174",
"n  c #72086F",
"m  c #723542",
"M  c #84161C",
"N  c #85191C",
"B  c #8B1A1D",
"V  c #901D1F",
"C  c #872719",
"Z  c #883719",
"A  c #94391B",
"S  c #932A1E",
"D  c #8C1C23",
"F  c #861922",
"G  c #931E21",
"H  c #8C2425",
"J  c #952123",
"K  c #9B2324",
"L  c #942429",
"P  c #992B27",
"I  c #893623",
"U  c #973925",
"Y  c #963035",
"T  c #A12726",
"R  c #A83934",
"E  c #AC3A2E",
"W  c #894414",
"Q  c #97451A",
"!  c #8C4A13",
"~  c #A4561B",
"^  c #AD6E19",
"/  c #99452A",
"(  c #9A4234",
")  c #A74728",
"_  c #AA5628",
"`  c #A84A38",
"'  c #BA443A",
"]  c #B85838",
"[  c #B1542D",
"{  c #B6662C",
"}  c #BC6737",
"|  c #B3712F",
" . c #C3533C",
".. c #C4673C",
"X. c #C9763B",
"o. c #D0793E",
"O. c #82094B",
"+. c #88055B",
"@. c #8B1A4D",
"#. c #962352",
"$. c #AC3954",
"%. c #8C0268",
"&. c #950869",
"*. c #990378",
"=. c #93116D",
"-. c #A5097B",
";. c #AB1A75",
":. c #A82764",
">. c #B43668",
",. c #B6287B",
"<. c #B42F72",
"1. c #B95847",
"2. c #B64658",
"3. c #B34D4C",
"4. c #B94666",
"5. c #BE5465",
"6. c #BE7245",
"7. c #C6554C",
"8. c #CC7945",
"9. c #D47B43",
"0. c #C56556",
"q. c #C97658",
"w. c #C86B4C",
"e. c #C55A69",
"r. c #C44877",
"t. c #C95777",
"y. c #C24C6B",
"u. c #C96767",
"i. c #D2726F",
"p. c #B58235",
"a. c #D29018",
"s. c #E4B41A",
"d. c #E0AF10",
"f. c #D79C2C",
"g. c #CC853A",
"h. c #D3893C",
"j. c #D6983D",
"k. c #CB912C",
"l. c #DDA629",
"z. c #DBA639",
"x. c #E7B836",
"c. c #E6B728",
"v. c #EFCF17",
"b. c #FDFA0A",
"n. c #FEF51C",
"m. c #FEFA1B",
"M. c #FEF714",
"N. c #FAEB1A",
"B. c #EDC63A",
"V. c #F5D838",
"C. c #EFCE2B",
"Z. c #FCEB29",
"A. c #FEF422",
"S. c #FEFB23",
"D. c #FEF52D",
"F. c #FCEC3B",
"G. c #FCE935",
"H. c #FEFD35",
"J. c #FEF737",
"K. c #D48A47",
"L. c #D99946",
"P. c #D58657",
"I. c #D28F4C",
"U. c #DCA647",
"Y. c #DFA851",
"T. c #E1AB48",
"R. c #E4B34B",
"E. c #E6B748",
"W. c #E9B753",
"Q. c #ECB453",
"!. c #DD8B6F",
"~. c #E29368",
"^. c #EEB173",
"/. c #EBC74B",
"(. c #F6D74B",
"). c #EBC253",
"_. c #FDDC5D",
"`. c #FAD856",
"'. c #F3C953",
"]. c #FEEC4A",
"[. c #FDE746",
"{. c #FEF342",
"}. c #FEF24D",
"|. c #FEE758",
" X c #FEF255",
".X c #FDD767",
"XX c #FACB77",
"oX c #FED978",
"OX c #F5CB68",
"+X c #FEE367",
"@X c #FBE07F",
"#X c #7F0280",
"$X c #830183",
"%X c #8B0489",
"&X c #97098A",
"*X c #A90585",
"=X c #B2098E",
"-X c #B7188C",
";X c #B70895",
":X c #BB1794",
">X c #AF0491",
",X c #BD2B88",
"<X c #BC11A2",
"1X c #C3199B",
"2X c #C00D9F",
"3X c #C4398A",
"4X c #C42697",
"5X c #CA3894",
"6X c #C40BA7",
"7X c #C618A5",
"8X c #CA0DB2",
"9X c #CC17B4",
"0X c #D217B8",
"qX c #CB26A5",
"wX c #D536A8",
"eX c #D828B9",
"rX c #D830B4",
"tX c #D55A85",
"yX c #D54A99",
"uX c #DA579A",
"iX c #CB4B88",
"pX c #DC6A8B",
"aX c #E67797",
"sX c #E26897",
"dX c #D947A4",
"fX c #DD55A4",
"gX c #DE44B4",
"hX c #E257AE",
"jX c #E86FAC",
"kX c #DD26C6",
"lX c #ED66C4",
"zX c #F170D1",
"xX c #ED5DC7",
"cX c #EB8999",
"vX c #F09790",
"bX c #FBB89E",
"nX c #F8B191",
"mX c #F290AC",
"MX c #F6A7A6",
"NX c #FAB3A7",
"BX c #DE8089",
"VX c #FDC98A",
"CX c #FED886",
"ZX c #FDC697",
"AX c #FED795",
"SX c #FDCDA4",
"DX c #FEE38B",
"FX c #F483C1",
/* pixels */
"                                                                                                                                                                ",
"                                                                                                                                                                ",
"                                                                                                                                                                ",
"                                                                                                                                                                ",
"                                                                                                                                                                ",
"                                                                        2                                                                                       ",
"                                                                        2                                                                                       ",
"                                                                        y 3     2                                                                               ",
"                                                                        i y   2 2                                                                               ",
"                          = = o o o o o                         o O     i y 2 2                                                                                 ",
"                        = = = o o = o =                     o o o     2 i i 3 $                                                                                 ",
"                      = = = = = = = =                   o o o       2     i y 2                                                                                 ",
"                      =         = =                 * o o *         y     i y 2                                                                                 ",
"                                                = o = o o o       y z     i i 3                                                                                 ",
"                                            ; ; = = = = =         z     z O.O.y                                     O                                           ",
"                                        - - - - - - - - -       z +.  +.&.&.*Xu 2           *                       o o o                                       ",
"                    ,               < , : : : - : - : : -   o ; z %.%.-.*X&.*X+.y         =                         = * o o                                     ",
"                  f f f           , , , , : > : : : : : :   = : x &.-.>X=X*.=X=.z       - <                         ; = = =                                     ",
"                  h f h             f f f >       > > > g - - g %.*X>X6X=X*X=X*Xx t     : :                         - - - -                                     ",
"                  h l h                                 - > > x *.*X6X6X=X;X>X>X%.u h , , f                         : - - :                                     ",
"                    k l                                 O - h %.*X>X8X;X;X;X;X<X*.x k h , g                     : > : : : :                                     ",
"                                                      O = : x *X;X8X8X;X;X;X;X6X>X%.x h , , g               > > > > > > > > > > > >                             ",
"                                                      O ; t c *X<XkX8X6X<X;X;X8X;X%.x < O               g g g g g g f g g > g > >                               ",
"                                                    @ o - j *.;X8X0X6X2X;X=X:XeX<X=.x ; O                     h h h g g h g h g                                 ",
"                                                    O o t b &X;X0X8X:X;X:X:X-X<X;X*.x , O                       h h h h h h                                     ",
"                                                    O g b &X*X6X8X6X1X:X:X-X,X:X7X-.+.u o                       j j j j j                                       ",
"                                                    k b $X*.*X8X8X2X8XqXqX:X-X:X;X*X%.u ; @                   k j j j                                           ",
"                                                  n v $X%X*.>X8X6X9X7X1X<X:X-X<X-X*X%.z t @                 k k                                                 ",
"                                                n b #X$X&X*X>X8X7X0X1X1X:X:X-X7X=X*X&.z t                                                                       ",
"                                            b b b v $X%X*.*.-.1X9XeX7X1X:X4X:X:X;X-.;.+.z         2                                                             ",
"                                          v v v v $X$X&.+.+.;.9XeX4X1X4X4X4X4X4X9X1X=X*.%.c b     $                                                             ",
"                                        #X#Xv v #X$Xv z z +.;.7XeX1X4X4XwXwXqX0XkX8X7X=X*.%.b b b u                                                             ",
"                                      %X%X#X#X#X%X  p z x :.,X4X-X4XwXrXrXkXkXrXeX0X1X;.&.i l     u                                                             ",
"                                    %X%X%X#X%X%X%X  y p #.&X,XqX,.,XwXdXwXgXgXrXqX1X,.;.F y 2     3 2                                                           ",
"                                      %X%X%X&X&X&X  p x :.,X,X,X,.3XdXgXrXgXkXwX4X3X,.:.+.i 5 4   2 2                                                           ",
"                                          %X%X&X&Xp p m :.<.,X3XiXyXyXdXfXdXdXyX3X3X<.:.#.p 5 3   3 2 b                                                         ",
"                                          $ < l n =.#.:.>.>.3XiXiXyXfXfXfXfXyXyXyXwX3X<.:.@.a 3 3 y z $X                                                        ",
"                                      * X $ # X d s #.,.3X3X5XfXfXhXjXlXxXhXfXuXdX5X3X>.>.:.:.:.@.=.*.%X                                                        ",
"                                  . + + X 4 $ # q s s >.4.3XdXhXxXzXzXlXhXjXsXuXiXiXr.>.$.$.>.,.-.=.&.$X                                                        ",
"                                  + + + # $ 0 0 q s #.2.4.4.iXpXjXlXjXzXjXjXsXsXuXtXr.4.>.>.<.;.=.=.=.                                                          ",
"                                  + X X X & 9 w w H $.5.4.5.tXpXsXaXjXFXjXaXaXsXsXtXr.iX>.>.>.@.p                                                               ",
"                                  . X X # % q e s I ` 2.5.t.pXBXcXmXmXFXjXmXcXcXaXt.y.4.$.2.R s q                                                               ",
"                                . . X X # & r r r s ( 3.2.5.BXcXmXcXmXmXmXmXmXcXsXtXy.y.5.2.3.I w 0                                                             ",
"                                . + X % # 0 w r e / 3.2.5.u.i.cXcXvXMXNXMXMXmXcXaXpXtXt.t.4.3.U s s                                                             ",
"                              . X X % % & r e e Z ` 1.0.u.i.i.cXMXNXNXMXNXNXMXcXi.i.e.7.e.e.5.` e w                                                             ",
"                              . X X % % & r Z Z Z ] 0.q.i.i.cXMXnXbXSXSXSXNXnXvXi.i.i.e.u.e.e.1.I w w                                                           ",
"                              + X % % %   Z Z W ( 1.w.q.q.!.vXnXNXbXSXAXSXZXAXnXvXi.u.u.i.i.7.1./ w w                                                           ",
"                                  # %     Z A / ` 0.q.q.q.i.vXnXZXZXSXSXbXnXVXVXnX!.q.q.q.w.1.1.` Z w w                                                         ",
"                                        m / W ! ] 6.6.q.q.~.^.VXVXVXAXZXnXVXVXVXVXvXP.P.q.8.} 1.] U e q                                                         ",
"                                      d 0 e W ! _ | q.P.P.~.nXVXVXAXAXXXVXVXVXVXVX^.!.P.9.w.} .. .) C q                                                         ",
"                                      d r ! ! ! } | I.I.P.^.VXoXAXDXDXDXDXCXCXCXCXXX~.I.I.8...} ] [ e r C                                                       ",
"                                      s ! ! ! ~ | I.P.P.~.XXXXoXCXAXCXCXCXoXXXXX@X@XOXY.I.8.......[ Z C w                                                       ",
"                                      e W W ! } K.I.I.~.^.OXoXDXDXCXoXoXXXXX.XXXXX@XOXR.L.I.8...] ] / C C w                                                     ",
"                                w     W ! ^ | X.K.U.I.Y.OXOXoX@XoX.XoX.X.X.X.XOXoX.X/.U.L.h.| } } ..[ C C C                                                     ",
"                              q w   A Q ^ a.j.h.h.R.U.W.OXOX.X.X.X.X.X.X.X.X.X.XoX`.).U.L.L.o.X.....] A C N                                                     ",
"                              8     W ! ~ p.j.h.U.U.U.W.).`._..X+X_._..X_._._.+X_.(.'.W.T.L.L.o.o.X...A C w 9                                                   ",
"                              w   Z Q ^ ^ o.o.h.R./.).).'..X.X|._.|.|.+X+X|._.|.`.`.|.(.E.T.L.h.j.z.X.A C N 9 4                                                 ",
"                              w S Z Q ^ f.j.o.K.T.Y.W.).`.|.[.(.[.`.|.+X|.`.|.(.|.|.(.c.z.T.T.K.h.h.~ A Z C 6 3 5                                               ",
"                            9 C S A A ~ X.o.h.I.Y.U.T.).(.[.[.[.[.|. X|.[.|.[.|.|.[.V.x.T.z.R.K.o.[ Q A C C 9 5 6                                               ",
"                            8 N S A Q { X.o.K.L.U.U.R.E.C.F.F.{.]. X|.[.|.[. X|.[.[.[.B.l.T.U.h...Q A A C 9 5 6 6 5                                             ",
"                            M B S A A ..8.K.| L.R.U.l.c.V.F.G.{. X].].].F. X|.].].].G.c.l.T.E.9.{ A A C w 8 8 8 5 6                                             ",
"                            8 N S A ) ..} } g.U.R.f.l.B.V.Z.F.}.F.{.F.F.]. X X}.F.Z.Z.c.x.x.Q.K...~ A Z C M 7 a a F F                                           ",
"                          7 5 9 8 Z ) _ _ X.L.R.E.f.c.C.Z.[.{.F.{.F.J.{. X XF.D.Z.Z.V.V.x.Q.E.h.o.) A A C F a F H D M                                           ",
"                        6 M M 7 H ` ` ..8.U.E.T.j.z.s.C.F.J.D.F.D.A.{.}.{.D.Z.A.A.F.G.C.s.x.E.j.o.[ A S H D H D D M 6 3                                         ",
"                      D 7 7 T ' ' 7. .] g.z.E.T.a.a.C.F.Z.D.F.A.A.J.{.H.A.A.N.J.J.D.N.v.s.x.(.E.9.] P P H L D D F 6 7 7 M B                                     ",
"                    G D P ' ' E R E E [ L.E.W.x.a.f.B.v.G.J.A.n.N.S.S.N.N.S.J.J.n.N.n.C.s.s./.W.9...) L H G D D M 8 D D D M B                                   ",
"                    L L 3.7.7. .' E  .o.'.`.`.E.g.a.s.C.F.A.M.M.N.m.S.m.H.H.D.M.M.n.N.v.d.a.T.Q.9...) L G G G D 7 N D M B B M M                                 ",
"                  G L R 7. .' ' T T ' 9.Q.Q.'.E.k.a.s.V.G.M.M.m.S.m.S.H.H.m.m.m.n.b.N.v.s.z.R.U. .` M D G G G G 7 M 7 V G F M M B                               ",
"                H D P R R K J J T T T [ L.Q.Q.E.a.a.x.V.F.H.H.D.S.H.H.H.m.m.m.b.b.M.N.B.).U.K.) U G 7 G G K G G 8 6 6 M M 7 M V V B                             ",
"            N L L L L G 6 8 M G G G G T E ) [ X.g.z.x.V.F.H.S.m.H.{.H.m.m.b.b.b.b.N.V./.j.| )       B G G G K       6 8 5 V G G G J G M                         ",
"          N G J L M 8 7     B J G V M B M N S U ) { h./.G.m.S.H.H.H.S.b.b.b.b.b.Z.(.k.| |             K G T K           6 N G T T K K K B                       ",
"        N K T K K B 8       K G B M         M S A ) _ p.B.F.H.H.H.m.b.b.b.M.D.V.T.g._ _               T T T               M N G K T T T J B M                   ",
"      N M B J G B M J T K J B N N               N S U ) X.x.(.(.F.A.Z.Z.G./.R.I.{ W                   T T T                   B V G K G T K G B N N             ",
"  N B B B B       B J J J B B                       N S A ) { | p.p.p.| | _ / ( I                       J J G                   B B B B B G G B B B B B         ",
"                                                                  1 1 1 < 1 * 1                                                                                 ",
"                                                                      * * *                                                                                     ",
"                                                                                                                                                                ",
"                                                                                                                                                                ",
"                                                                                                                                                                ",
"                                                                                                                                                                "
};
