/* XPM */
static char *tRitD__1___1_1671739319[] = {
/* columns rows colors chars-per-pixel */
"50 50 185 2 ",
"   c #384F26",
".  c #385525",
"X  c #3E5B29",
"o  c #405424",
"O  c #425B26",
"+  c #425C2C",
"@  c #495E2D",
"#  c #4A5D31",
"$  c #446D26",
"%  c #43622B",
"&  c #4B642D",
"*  c #46692D",
"=  c #4A6B2D",
"-  c #516D2E",
";  c #4C712C",
":  c #4E782F",
">  c #52722D",
",  c #58742E",
"<  c #557A2F",
"1  c #5B792F",
"2  c #476530",
"3  c #4C6532",
"4  c #4D6C32",
"5  c #536732",
"6  c #526D34",
"7  c #5A6E36",
"8  c #54673B",
"9  c #546C3A",
"0  c #5A6E3A",
"q  c #4D7034",
"w  c #547334",
"e  c #5A7435",
"r  c #557A35",
"t  c #5B7B35",
"y  c #55743A",
"u  c #5B753B",
"i  c #56793A",
"p  c #5D7B3B",
"a  c #647435",
"s  c #637D36",
"d  c #687F37",
"f  c #61753C",
"g  c #637C3C",
"h  c #6A7B3C",
"j  c #576F41",
"k  c #5D7541",
"l  c #5E7C41",
"z  c #627442",
"x  c #6A7745",
"c  c #647D42",
"v  c #6A7D42",
"b  c #6F754A",
"n  c #677F4E",
"m  c #6D7E49",
"M  c #727541",
"N  c #757B43",
"B  c #717E48",
"V  c #5D8135",
"C  c #5D833B",
"Z  c #5F8B3A",
"A  c #638336",
"S  c #6A8535",
"D  c #628836",
"F  c #63843C",
"G  c #6A843D",
"H  c #648A3D",
"J  c #6B8C3D",
"K  c #70863F",
"L  c #728B3E",
"P  c #6C9937",
"I  c #65903F",
"U  c #6C923C",
"Y  c #72923D",
"T  c #739C3E",
"R  c #5F8241",
"E  c #658442",
"W  c #6B8443",
"Q  c #668A42",
"!  c #6C8B43",
"~  c #658349",
"^  c #6B8449",
"/  c #668B4B",
"(  c #6C8B4A",
")  c #728645",
"_  c #728C44",
"`  c #798D46",
"'  c #72834A",
"]  c #7A8348",
"[  c #738C4B",
"{  c #7A8E4B",
"}  c #679042",
"|  c #6C9344",
" . c #6D924A",
".. c #739344",
"X. c #7A9445",
"o. c #749A44",
"O. c #7A9B46",
"+. c #74934B",
"@. c #7B954C",
"#. c #749B4B",
"$. c #7B9B4C",
"%. c #6D8A55",
"&. c #708551",
"*. c #728D52",
"=. c #7E8B51",
"-. c #778D59",
";. c #6F9251",
":. c #759352",
">. c #7B9553",
",. c #749952",
"<. c #7B9B53",
"1. c #7B945A",
"2. c #7E9D5B",
"3. c #73A046",
"4. c #7AA047",
"5. c #77A04B",
"6. c #7CA24D",
"7. c #7EA84D",
"8. c #7DA353",
"9. c #7EA159",
"0. c #809445",
"q. c #809B45",
"w. c #889B47",
"e. c #82934C",
"r. c #839C4D",
"t. c #838D53",
"y. c #868D58",
"u. c #8A8E59",
"i. c #849454",
"p. c #839C53",
"a. c #8A9A55",
"s. c #80975B",
"d. c #8C935A",
"f. c #839D5A",
"g. c #8B9C5B",
"h. c #919957",
"j. c #919D5A",
"k. c #81A046",
"l. c #82A24D",
"z. c #84AC4D",
"x. c #84A454",
"c. c #8AA354",
"v. c #83AB55",
"b. c #8CAB55",
"n. c #85A45A",
"m. c #8CA35B",
"M. c #86A95D",
"N. c #8CAB59",
"B. c #96A456",
"V. c #95AC53",
"C. c #93A55C",
"Z. c #90AB5B",
"A. c #85B057",
"S. c #89B257",
"D. c #84B05E",
"F. c #8EB35E",
"G. c #8FBD5C",
"H. c #91B457",
"J. c #95B35B",
"K. c #8E8966",
"L. c #8C9B63",
"P. c #959267",
"I. c #9A9C73",
"U. c #A89E77",
"Y. c #85A263",
"T. c #8AA560",
"R. c #85AE60",
"E. c #8FAB63",
"W. c #8FAB68",
"Q. c #9AA362",
"!. c #94AC60",
"~. c #9DAC64",
"^. c #8BB066",
"/. c #94B563",
"(. c #99B362",
"). c #9FBB61",
"_. c #96B468",
"`. c #99A677",
"'. c #9BB871",
"]. c #A5B67C",
"[. c #A4AE83",
"{. c #AAA981",
"}. c #B3BA8F",
"|. c #C4BE93",
" X c #BBC08E",
/* pixels */
"J e 4 F E ..d A 8.! G F ( 1.y | i.r.` f ^ g w | ( 4 Y G u ! Q ! ~ / / #.! 9 +.X.e ! $.g k ( ! E o...",
"w +.C t g X.W [ ^ b.b.w : V u [ _ o.e X p [ y E -.9 ) u F p p C R E } J i w ! J J A X._ F ; 4  .+.q ",
"l ~ ) ..f _ X.@ 6 ,...r ! w u W G @.e q y ^ %.<.W 6 ..r.p ( ,.i i $...& p X.3...A ( b.n.Q < p w +.^ ",
"+.W p.e.t.` v 9 w ! $.k A X.6 W ! p.<.E y J e 6 $...+.+.+.W l., k #.6.0 ( 3.| H } ..H p ~ r ..i Q Y ",
">.) e.$.L & y +.y 6 :.c 7 +.# +.E %.[ 1.+.p.3 9 $.r.^ [ } Q ,.<.E } ! @.| Z y #.F Q } V } V & c Q _ ",
"S g W _ s X i W -.:.@.p y x.) u 5..._ J ,.^ C ! $.W @.N.Q +.+.,.A...p ! Q Q  .+.| Q  .Q 3.3.g 9 $.F ",
"_ W H $./ p w k A u ( ) J X.@.+.T Y Y L H 6 f.+.z W r.c.! 9.+.w +.#...) i Q w #.G Q l %.R  ./ = A  .",
"^ W E +.@.f.u +.G @ u J.+.( ^ E b.L ) >.[ ! [ @.E G <.m.#.v.o. .Q } 8.f.8 Q +./ C ( R R } Q w _ Y J ",
"* #.( c +.[ >.n.E = ( #.E r.{ F c.w.g G #.k 9 i E x.>.f.[ +._ | p y :.| $.G ~  .C t C ( 6.> X <.Y t ",
"w Q $.o.$.G | F z <.! [ ! r.h.h.@.w 5 >.p.p = < u <.G a.a.+.L E ! u i  .z...Q l ( R y +.p.X.^ Q F f ",
"u ( O.Y S _ ( F ^ @.@.7 W p.!.r.C.z 4 ^ g 4 $.G y V J i.h ( ..! p o.H % 4 E Q  .n.t 6 E | U >.H X...",
", p J.b.s @.[ @.E E ( ( @.<.f.^ p.r.! 4 ! l [ _ f W W X.( ^ 6.V w #.p r p } } C o.$.E #.o.w ( i #.$.",
"8.p k.V.` e _ <.8 & - l M._ f.g.g.a.s $ F g W ` h 9 y G +.t A 8.g C $.H U 5.! ..( <.R.v.v.F <.c 3 ( ",
"x.@.l._ 6 e f.( i t A w Q A a.] y <.( :.8 E E ) p O c ( J ..i 9.8.( X.p | +.G Q ,.[ R Q >.} $.E.0 s ",
"( x.) c A w ^ e 4 $.[ e s H r.W W e E c k z _ p.y B ) | v.$.6 E N.i.W g _ J 8.Q <.8.E R Q E 6.#.$.l.",
"i $.J B W C w #.g ^ +.g ^ z G +.+.W 6 6 } t.h Q u ' ) A /.v.i x.m.h { G X.@.^ / 6.7.o.#.p q l ~ #.6.",
"O.V | +.- % $ C h h { W & 3 ( p Q W ) X.S G a s y i g ( Y.E.e | W 0 ^ X.e.d.' F E @.! H C Q 6 Q q % ",
"Y W >.' 7 5 :.9 c E G E 4 u [ 5 G C.c.e.) g t U h i g +.v.c g N.G c p q.] d.( p i ! ..W W E #.t = i ",
"<.].U.b z ^ ^ j z [ x.c x t.A d A r.~.y.[ ! u G A g g ..U + i +.u i >.g ! g J h i +.! ..H w $.o.E Z ",
"+.}.I.' ) 6 * G >.N t l u _ S J n.(.N W ^ A J H #.v F ..W * y ( ~ :.[ 5 W u g g p s +.x.F i l | $.t ",
"9 l 2.C.v 9 ` K G h 1 g 6 G A i @.^ E g g h p.Q y E W ! <.( y c c ( _ w $.{ 0 G J s g D o.<.p ! r.h ",
"i X E 8.A h _ 0.g t H A i C E F t w C +.u G r.[ X | ( ( @.:.[ X.3 2 x.$.! @._ S H F Q t ( ^.n.[ [ G ",
"z 6 i H f.c.w.u.( F g J ( 8.v.! G p Q $.w W $.> i ! o.o.+.J <.( w ! r.E @.c i d E V Y _ i y J.r.B _ ",
"A v g Q e J ..>.G J g <.( E ,.$. .>.3 +.Q { [ } = @.b.S L ! F u <.| ) G a.[ ( r | 5.v.O.w :.E.@.0 +.",
"..f p ..Q t : w ( 6.#. .i w H ! $.n.z t E 1.[ @.@.F ).X.W @.[ ! +.) y ! B.j.i.D ! o.9.G.Q V 5.f c u ",
"p V Q r ~ V y R } ( > J 3 D H 6  .+.6.O.H  .Q W @.$.w.L e [ +.9 i c @.p.T.+.f.=.p ( Y.W.p.e 6.@.u i ",
"| ( Z C ( 6 o.w F >.4 u s $.! E 4 E +.) | Q W W $.X.( w y p.^ 4 > e ,.+.i.1.m.@.W ~ <.<.:.( 2.x.*.y ",
"H / / | 3.; w R ..A 9 ^ ! $.g V p % e &.x.U ' v | | v ! p E 6 E +.e D A a.=.@.m.u l x.7.Q p u @.$.r.",
"%.y /  .#.X.# *.J $.o @./._ w i @.p E F p.X.g.v i G ' 7 w V E E +.g G ( r.' p +.E W _ _ H E y i Q O.",
"} Q C U Q E 4 +.p <.L 1 #.d E ^ ~ A r g Y d J _ c G g.p 1 p c g _ h u k ! +.! G @.@.@.! W E ! H 4 6 ",
"q ! 6.! y p w D #.F.o.[ J _ i.W r.$.z W @.) ! 8._ G r.L _ c ~ W h g O c ^ G W _ ` g ! $.} w $.( r } ",
"%.#.l.a   +.O.T G +.! ! G _ W ` a.e.d.G O.f k ( x.+.p W f.:.e X.<.y ' W e g Z.$._ W g ! | F F o.#.| ",
"u Q 7.O.E  .| S = _ p.V U | g g +.r.d ) v @ 4 E /.J w C >.c F s p i { W S D c.Q.+.^ _ e #.R.E $.E ! ",
"8.| t [ #.p E z G W n.A ,.) W H ( D & X ! W w  .X.t C C w k  .s F 4 G G G Z.C.' i V o.G q <.g.@.X.! ",
"8.6.i [ E ..r.9 W ) x.F 4 w +.J p.E 3 y ! W 6 F <.i H G 6 +.+.E D 7 F E i E u @.E ! S.J p n.b.) N. .",
",.+.J >.= ,...t g _ r.g %  .[ c <.<.E y u -.%.+.-.8 S J p ! p E _ E ! C ..- r ! t w /.8.p 6.) u W Q ",
"Q | | _.p u #.A +.( H % / Q $.^ ! ,.&.p _ e E @.g 4 ! f 9 p w E .._ :.Q x.s W *.E  .1.f.s 8.) ^ g x.",
"w c 9.5.v e p ( ' :.H t p $.T T <.G $.f.X.6 # +.G E b.) z O.p ! | i ( 4 ( | E 1.c $.M.$.@.! W +.g H ",
"l 9 c ;.6.O.D ( L.( <.! w N.k.S L G ..%.c * p $.N.! +.@.C >.M.v.v.H n.>.& , ! <.E ^ @.@.E A p ^ ^ u ",
"+.w F R $.$.F ..#.r [ 9.W H.V.d @._ Q - *.+.+.$.W _ [ ) ( ,./ p [ ..o.8.$.r.H 6.b.3 +.O.v E w = H f ",
"! o.C * * R E /.S.7 [ _ l.w.X.G E { [ ( @.$.W [ W r.@.= E 2.| F  .u ~ ( #.+.i M.p $.J F +.e + r y p ",
"[ 7.= w i i } E G y F n.[ [ e 6 W +.+.u ! @.u g O.B.t.@. .v.5...H R 6 C r % F r X T X._ i.z u 1.k k ",
"u | ,.J F o.i . E z.L o.h m H = >.p.( + 4 i ( +.@.!.a.a.Q H ( Y G ! | ! * C U o.g ! ,. XK.v v 6 C +.",
"i o.$.t H v.X.i P T G H >.v D E ^ e 4 p t w :.c.p.f.+.C.^ w +.L ! p E o./ V H x.s / :.[.L.a.y E A D ",
"W p.S ^ ..$.e E <.+.@.@.! 7 & = C ( y p.! 6 +.! ' m.[ x.{ g #.+.7.C i p 5._ J _ w C q * ( p.g ` z.x.",
"p.[ G g X.1 e ( :.[.|.P.z 9 & $ H p f $.G e V t a.i.d.m.@.} ! E Q o.8.E @.) g ` 0.z ! 3 i } p.r.! F.",
"G x ` h _ X.w C y `.{.8 B u >.s.5 E ) X.t W E +.e.^ y ,.b.| A p p E 2.b.@.[ K ! C.u.^ g i G e ! 2.'.",
"7 ^ r.+.q.I.v Q % i f.Q.W 6 i k 9 ^ g ) _ 5 8 g L { g ! n.@.w A X.e y /.@.f @.0.N t.G G g ! e u <.:.",
"^ p J 0.N y.=.^ 3 w 8.r.6 z e G ( m $.[ w & 6 ^ ! >.C l ! O.6.5.v.A ! 8.v c p o.G E ! +.i ! E _ N.8.",
"E l x._ { i.W e p w  .C v g r.J e.M Q :.u x ' E q G v ^ C V +. ._.F.> } ..W E ( w u <.+.c e ! ^ %.Z "
};
