/* XPM */
static char *abstract_black_voronoi_3d_blocks_banner_background_organic_voronoi_pattern_blocks_571381_2671671812886[] = {
/* columns rows colors chars-per-pixel */
"70 70 256 2 ",
"   c black",
".  c #010101",
"X  c #020202",
"o  c gray1",
"O  c #040404",
"+  c gray2",
"@  c #060606",
"#  c #070707",
"$  c gray3",
"%  c #090909",
"&  c gray4",
"*  c #0B0B0B",
"=  c #0C0C0C",
"-  c gray5",
";  c #0E0E0E",
":  c gray6",
">  c #101010",
",  c #111111",
"<  c gray7",
"1  c #131313",
"2  c gray8",
"3  c #151515",
"4  c #161616",
"5  c gray9",
"6  c #181818",
"7  c #191919",
"8  c gray10",
"9  c #1B1B1B",
"0  c gray11",
"q  c #1D1D1D",
"w  c #1E1E1E",
"e  c gray12",
"r  c #202020",
"t  c gray13",
"y  c #222222",
"u  c #232323",
"i  c gray14",
"p  c #252525",
"a  c gray15",
"s  c #272727",
"d  c #282828",
"f  c gray16",
"g  c #2A2A2A",
"h  c gray17",
"j  c #2C2C2C",
"k  c #2D2D2D",
"l  c gray18",
"z  c #2F2F2F",
"x  c gray19",
"c  c #313131",
"v  c #323232",
"b  c gray20",
"n  c #343434",
"m  c #353535",
"M  c gray21",
"N  c #373737",
"B  c gray22",
"V  c #393939",
"C  c #3A3A3A",
"Z  c gray23",
"A  c #3C3C3C",
"S  c gray24",
"D  c #3E3E3E",
"F  c #3F3F3F",
"G  c gray25",
"H  c #414141",
"J  c gray26",
"K  c #434343",
"L  c #444444",
"P  c gray27",
"I  c #464646",
"U  c gray28",
"Y  c #484848",
"T  c #494949",
"R  c gray29",
"E  c #4B4B4B",
"W  c #4C4C4C",
"Q  c gray30",
"!  c #4E4E4E",
"~  c gray31",
"^  c #505050",
"/  c #515151",
"(  c gray32",
")  c #535353",
"_  c gray33",
"`  c #555555",
"'  c #565656",
"]  c gray34",
"[  c #585858",
"{  c gray35",
"}  c #5A5A5A",
"|  c #5B5B5B",
" . c gray36",
".. c #5D5D5D",
"X. c gray37",
"o. c #5F5F5F",
"O. c #606060",
"+. c gray38",
"@. c #626262",
"#. c gray39",
"$. c #646464",
"%. c #656565",
"&. c gray40",
"*. c #676767",
"=. c #686868",
"-. c DimGray",
";. c #6A6A6A",
":. c gray42",
">. c #6C6C6C",
",. c #6D6D6D",
"<. c gray43",
"1. c #6F6F6F",
"2. c gray44",
"3. c #717171",
"4. c #727272",
"5. c gray45",
"6. c #747474",
"7. c gray46",
"8. c #767676",
"9. c #777777",
"0. c gray47",
"q. c #797979",
"w. c gray48",
"e. c #7B7B7B",
"r. c #7C7C7C",
"t. c gray49",
"y. c #7E7E7E",
"u. c gray50",
"i. c #808080",
"p. c #818181",
"a. c gray51",
"s. c #838383",
"d. c #848484",
"f. c gray52",
"g. c #868686",
"h. c gray53",
"j. c #888888",
"k. c #898989",
"l. c gray54",
"z. c #8B8B8B",
"x. c gray55",
"c. c #8D8D8D",
"v. c #8E8E8E",
"b. c gray56",
"n. c #909090",
"m. c gray57",
"M. c #929292",
"N. c #939393",
"B. c gray58",
"V. c #959595",
"C. c gray59",
"Z. c #979797",
"A. c #989898",
"S. c gray60",
"D. c #9A9A9A",
"F. c #9B9B9B",
"G. c gray61",
"H. c #9D9D9D",
"J. c gray62",
"K. c #9F9F9F",
"L. c #A0A0A0",
"P. c gray63",
"I. c #A2A2A2",
"U. c gray64",
"Y. c #A4A4A4",
"T. c #A5A5A5",
"R. c gray65",
"E. c #A7A7A7",
"W. c gray66",
"Q. c #A9A9A9",
"!. c #AAAAAA",
"~. c gray67",
"^. c #ACACAC",
"/. c gray68",
"(. c #AEAEAE",
"). c #AFAFAF",
"_. c gray69",
"`. c #B1B1B1",
"'. c #B2B2B2",
"]. c gray70",
"[. c #B4B4B4",
"{. c gray71",
"}. c #B6B6B6",
"|. c #B7B7B7",
" X c gray72",
".X c #B9B9B9",
"XX c gray73",
"oX c #BBBBBB",
"OX c #BCBCBC",
"+X c gray74",
"@X c gray",
"#X c gray75",
"$X c #C0C0C0",
"%X c #C1C1C1",
"&X c gray76",
"*X c #C3C3C3",
"=X c gray77",
"-X c #C5C5C5",
";X c #C6C6C6",
":X c gray78",
">X c #C8C8C8",
",X c gray79",
"<X c #CACACA",
"1X c #CBCBCB",
"2X c gray80",
"3X c #CDCDCD",
"4X c #CECECE",
"5X c gray81",
"6X c #D0D0D0",
"7X c gray82",
"8X c #D2D2D2",
"9X c LightGray",
"0X c gray83",
"qX c #D5D5D5",
"wX c gray84",
"eX c #D7D7D7",
"rX c #D8D8D8",
"tX c gray85",
"yX c #DADADA",
"uX c gray86",
"iX c gainsboro",
"pX c #DDDDDD",
"aX c gray87",
"sX c #DFDFDF",
"dX c gray88",
"fX c #E1E1E1",
"gX c #E2E2E2",
"hX c gray89",
"jX c #E4E4E4",
"kX c gray90",
"lX c #E6E6E6",
"zX c #E7E7E7",
"xX c gray91",
"cX c #E9E9E9",
"vX c #EAEAEA",
"bX c gray92",
"nX c #ECECEC",
"mX c gray93",
"MX c #EEEEEE",
"NX c #EFEFEF",
"BX c gray94",
"VX c #F1F1F1",
"CX c gray95",
"ZX c #F3F3F3",
"AX c #F4F4F4",
"SX c gray96",
"DX c #F6F6F6",
"FX c gray97",
"GX c #F8F8F8",
"HX c #F9F9F9",
"JX c gray98",
"KX c #FBFBFB",
"LX c gray99",
"PX c #FDFDFD",
"IX c #FEFEFE",
"UX c white",
/* pixels */
"h h h j j g s p f a p s j j i 0 d h h s a d d a g f f g g s a s f s a d d a a f a s f g h h g f f j g p i d h g s a p a s s d d d p u s g h ",
"i i p p a p u y a p i p s s i t p a a p i p p p a p a d s i y y a p a d d i y u a a a a a a a a a s a i i a a p p i i p a a a s a u y p s a ",
"y y y u i i u y y u i u y y i a y t t u u u u p y y u p p t e e q 0 q r t t t u a p i u y y u i p u y u i y y y y u u u i i i p y t t u i y ",
"u u y u i p i u t y y u t t u a i t r y u y u p u t y i i y t y w 0 8 8 9 w u a a p i u y y u u p y y i u e r p r y u y y u i u r t y i y r ",
"u y y y u u y t u t t u i y t u p y r t y y y u i y y u u u u p d a y w q e y u u u u u u u u u i u i i r 0 e a e y i y y u i y y y u i r 0 ",
"u u y y u y t r i r r i p y r t i u r w e y y r i y t y u y y i i a p u y u y r t t y y u u y y t y i u e 0 e u q y p y t u i y i u i u e 8 ",
"u u u i i u t r u r e u i t r u y i t 0 w i i w u y y i u t r r w y u u u i u r y y t t t y u u e y u y t r e q 0 y p t r y u t u y u u t 0 ",
"r r t u u y r w y e e u y w r p y a u 9 q s s e u u i s p t q q u p p t t u u t p i y r r y i p e y u y i a r 6 8 t i t e y y r t r y i i t ",
"y y y y i p t 0 y q y p q e p u y y i i r y u w t u u u u u t w u p t e y u t y y t i y 0 q y u t u a u w r i t 6 e i w 8 y s e i y t y y y ",
"r y i i i i t q u w r y 9 w i y y t u u y i i w y u i u y u t w y i r w y y t u y t u u q q y u w r i u e t p y w p p r w t t q u r r y u t ",
"e y i i i i y e u w w e q t p u i t u i u p i 0 y i i y y y t w t y e w y y t i r r u u w e u u w e u i r y p y 0 i y e i u q r p r r i p r ",
"t y y y u p u e w 9 9 0 w u a i i u p p y u y 9 y i i y t t r e t y w w y y r i r e y u e r u u t r u u r t i y 9 y w w s y 7 r a r e i i w ",
"u t e e y p u w 8 9 8 8 r i y r t y a a t y y q t i i y r r t r y t e r i y r i r w y u e r i y u e t y e t p i w i e e d r 4 q i e w t t 0 ",
"t r e e y i t 0 w u r q u p t e w w u i t u u w r u i t e r t t e e w t p t e u t e t y e r i y y q w t w r i i 0 y r t s y 0 t p y r t t e ",
"9 e u u y t w 9 y f i w i a t t r w r y y p y 8 e y i t e r t y 9 9 9 r p t w u y e t t w r i u t 0 w t w q w q 5 0 r y u i i i u u y e r i ",
"4 e a a y w 9 8 e s t 9 t i r y p e w t u p r 2 e y u t e r y u 5 6 7 e p t q u u r r t w r i u u q e y w 7 6 3 6 0 y y w t i r w r e 9 q u ",
"r i u t y r w y r p t 0 y a y e r r w q 0 9 4 > , 0 t 0 0 y y 8 t u i t e r t r a q 0 q 8 r s u s w 7 6 u d r u p i i u y y y y y t r 6 y r ",
"r i i u i t r u r i y w t u r q f p w 8 9 y d f i y t r w 0 0 e y u i y r w r y r e t w 6 6 w t y q q q i s e i p i i u y y y y r r e 6 u r ",
"e i p i p u t i e u y e e r w 9 u y e 9 0 t p s d y 0 7 7 9 e u i u i i r 0 w i u t 8 8 r t 0 9 q q y y p p w p i i i u y y t t t t y 8 p y ",
"e p p i p u t i e r t e 0 w e 0 r u a p i i u t r u q 1 3 y s y i y u i r 7 0 i s u 6 7 d h t e w e p u p i q p i i u u y t r r u u u 9 p t ",
"r p i u i t e y r q r e 8 q y e u i i t t u p a u s u 8 0 p s r i t t i r 7 9 y t p e q p a u f y t i y i i q u u u u u y t r e t y y 8 i e ",
"r i u t y r w y y 9 e t 9 e p r u u t w w t y t i y y i i u y u u t t u r 0 0 r y t q 0 y i y u a y u r u u 0 u u u u u y r e w y y y 8 i t ",
"r i y r t e e u u 8 e i w y s e r t y y i a i t q w r u u y y i y y y u y t e w i q 9 w y a i q i y i r t y 0 i u u u u y r w q i u y 7 u e ",
"r i y e t r r p u 7 r s t u s 0 2 2 1 3 0 u p i 8 i a w q i p e y u u u i i t q q 0 p d r t s i y y p r t r 0 p y u u u y r w q u y e 3 q 6 ",
"y p r 0 r u t t u w r u t y i u u r t r w y p t t r y t w u a y i i y r w e t i 9 r u u y u u y y i r a q t w u i e a a t y q 0 t t t t r w ",
"0 t w q t u r r t q r i y y u t u r t t e u p t t t u t w t p t u t r r t y u u q r y y y u u y u i r p q t w u a t u t t t 9 t i y t y p s ",
"9 r r e i u e e u w r u t y p i u t y y r u p t t t u y w t p u r e w r u p i y r y y t y i i y u i t i w e w u a u u r i r 4 y a y w r i s ",
"r i u u p u e r y q q e q e p s u t u u t u p r t r u u e t p i w w r y i i i y u u t r y i i y u u y u e w w y w e r t g y 2 y t e q w r y ",
"u a i u p u r u 0 7 9 w 0 q u i u t u u t u i w y e t y q q t r 0 r u i u t y u u u t e t i i t y t u y r 0 w r 6 9 0 q s t 2 y 0 w r t y y ",
"t u y t i y t a 8 8 r a u t u y y t u i t y y 0 i e e r 0 9 q 0 q t p i t e t i y y t e r u u t t r i t y 9 q w t r e 7 q 0 1 0 e y p p y t ",
"r y t y i r e p e w p f p y i u t r u u t y t 9 p w q t e r t e e y u u r r t i e t y r e t y y r e p t i 9 q 0 s p p q 9 w 7 9 p p p u t e ",
"y i u i i e q u u r u i e w u i t r u u r t r 8 i 0 q y i a d s y t t t t t y u q t y r e r y y e w a t p 8 q 9 t r d u t f s u i y r r t y ",
"i y y u r 9 0 t i e r a i 0 0 u e t y t e 0 7 6 u e 0 e u i u u 0 e y u y r t u r e s w q p w t y e y p r 4 3 9 t i i t r u i i u u y t r r ",
"r t i p y w q e w e y i u r w e w r y i i i i i y w 0 e u i u y r e t i u r r u r e s r e i e u p e e u u 0 9 e y i i y t u i u p i u y t t ",
"e u p u t t t r 7 e u y y u t q r y u i i u i i r 0 9 e u i y t i r r i i e w y e w i y r r w p a w 9 r u t t u y u u y y u u t y t e 0 8 6 ",
"y p u w q y p i 9 e y y u u y w u i i u t r r t e 0 9 r i i y r p e w i i e w u 0 0 t y e 9 q p p w 8 q r r t p r r t t u i y t i i y t e e ",
"y i u w w u a p t e r u i t t y y u u u u u i a e 0 9 r i i t e p e w y u e e u 0 w e y w 7 w p u r w w w q r p e q q r u i y r u u u i a s ",
"e t y y u i i y p t e y u t t i y u u u u u i p r q 0 r i i t e u r e r e w r y e y e t e 8 y p y y u y e q r p r 0 9 e u i y t t t t t y u ",
"e e t i p u y y y y r e t u u y y u u y t t t t y w q t i i t e t u y q 9 q r r r p w e q 0 p u r y p p y r t p u w 9 e i i y t a a p i u y ",
"u e w y u t t p w u y 0 w a a e r t u u u y u u u e q t i i t r r p i 0 7 0 e w r s q 0 9 9 a r q r u p i y y u s r 0 r i i y t r r r t t y ",
"t r t u i u u p u r q q t p i t w i y e y u e q y t t y t w 8 6 t u t u a t 0 q u u t q 0 e i a q r i i y r y i i p p u u u y r u i u r r u ",
"t r r y y t t y u r w e t u u u q u y e u i e q u q 4 2 5 0 e r y u t y p r 9 q u u t e r y y r w t i u t r y i e y u u u u t w u i y e r y ",
"e e r u u y t y u w q t u y y u q u y e u i r w u e 0 w i d s i u u r r i r 9 q y y y u p p r 7 r y i u r r y i t y u y u i y e u u y e e t ",
"9 0 e u i y r t u 0 9 t p i y u 0 y t e u p t e 7 9 e i f d y 9 u u e r i y q e e t u i p i w 6 y u u y r e y i p i y e r y y e u u y r e e ",
"7 9 w u u r q 0 u 9 6 w p a u t q u t w u p y r 6 q r t y u r q u y w r a i e r 0 r u u y t w 9 u i u t r r y i u u r w w e 0 7 u y y t e q ",
"r r y p i t w q y 0 6 9 y a u w w u t w y i y y 9 t i u u p p y y t w r a i e r 0 r u y t r e w i i u t r t y i t y y u u y 0 3 y y u u e 0 ",
"p u u i u y y i r r q 8 q y y 0 r i t q t i u u 7 e u y y i t 9 y r q e a u 0 0 r y u y y u t w u u u y t y y u y u u i a a t 9 y y i i r 8 ",
"u r w w e r i d w u t 7 7 e r 0 t p t 0 r u u u y i u e t p u q t r q e p t 8 7 u u y y i p y 0 u u u y y y u u i y e w t a a u y y i p t 7 ",
"r i r 0 e u i a i r a u w 8 3 0 u y r w r i p i e y y 0 8 q r e t q 3 3 w y e w u p y w t a u 9 p i t e r u u t u t r y p a i t e r i a t 8 ",
"r u e 9 r u u i i e p u r q 6 e u i y w 9 9 0 9 u p p y t r 0 4 8 r r w q 9 0 y i i t r i s y 9 a p y r t u y e u t e r i p u r u u i u w 6 ",
"t y q 9 r u y y i w u u u y 0 y u p i e 7 5 4 4 y u u u a s t 6 4 t a i r 0 0 i y r w r u u e 8 q w q q r u u r i r q e y i y e w r y i y w ",
"y y q 0 y i t y i w y u i i w y u p i t w q 9 7 y y r e u d d u 7 e t u a i t u t w w r t e q w 0 q q w r u u r i r q w y i y e 7 0 r u u t ",
"u y q w i i t y p q t y i i w t i i u u i p y q i p u e e u p u q r e t s s u u y y y y r w t a p p i u u i t q u t e r y u y e w e e w 0 8 ",
"y y w r p i r y i w t y u u q t i u y u a d u q e i a t e t u y w i i u i y t p t u u r q w y s a a p u u i t q t t t t y y t r a i r 8 6 8 ",
"t t e t p y e y i w y u u u q y u u u u p a y w 0 t i t r u i u w i i u u t r p r y y q 0 r u u t t t r y i u e w r y u t e e e a p y w e y ",
"r r e t i r q y u w u i u u w i t u i u u i y r r u u e e y i u e t e r a p t y t u y q e p a r i i y t y u y e 0 r u u r w q w y i p i p d ",
"e y e r p e 0 p r e t i i r 0 9 p i y y u i y e r i i e w y i t 0 y s r e t q p a 9 i e u t i i p i r e u u y s 4 i u r p r 8 y t i u y t p ",
"8 w 0 w u e q p y q 8 w u i t w r t u u i i y t 8 r t e e u i y 9 e i e e y w p u 8 u w y t i u t p y q t u y t 5 t u y p y e p t u y r r u ",
"8 q 0 q t e w i t q 8 0 e r y i 0 e y i i u u u q y i y r t t e 0 e y w t p e i u 9 p q t u a u e a u 9 w u r q 0 r u i i y y i r t y e r r ",
"t y r q w e r u q t i y 0 7 e d w w r u i u u u q y u t w e e w e r u w u s r i i 0 i 8 w y a u y a t 0 e t e w y r i a t r y t t e y w y w ",
"a p u q 8 e u y 0 t s s e 8 w a u w 0 r i i u y 5 9 q 0 8 0 r y y t y w u s e t i 9 y 6 0 e u y a u w w t w q u i e t i t e t t y e u q u 9 ",
"i u u q 6 e p t e e y p a u t r s r 9 e i i y y 9 q e q 9 9 e u t r t 0 t p 0 w p 8 y 0 r r u u a t 0 r i w q s u e w r y r r u y q i 0 p 7 ",
"t t i e 6 r a q t e e y p i y r s r q y p u y u y i a i e q e y r r t 0 r u 9 q t 3 t t p r r y r e q r p y r p u y 0 q i r q p y 0 i 9 p 4 ",
"t y s y 8 t p 7 y t y y r w r i i r r p a y t i r u a a y e t i r t y q t i 0 e 7 - 0 t a q 9 q 8 e e e i p y y a a 0 0 a r 7 p t 8 u 8 i 2 ",
"u t r r e 0 9 0 p r 0 r p e 0 u p t y i u i y 8 e w u p t e u u u 7 a w 0 a w u y e 6 u u y 5 9 u 1 8 i i t w s u r p 8 y r e i y 7 1 4 0 w ",
"i p a p t q w u t w 8 q y e q t u e t u y y r 7 e q y p t r u u u 8 a e 0 p w y i i w s i u 9 y s 7 w p i u t s y r a 9 y r e y i q 5 5 6 7 ",
"q r i y 0 5 9 t t e 0 0 w r e e u e t u y y r 8 w 0 r u r e u u y 8 p e 9 y q t q t 0 t 0 0 5 r u 6 9 0 8 q 0 e r e p 8 y r w e q 9 7 6 4 3 ",
"r u s a r 0 r a u y r q 0 e r 0 i r t i u y t 0 w 9 e y r r i i u 0 i t 0 r q t e i e y q r 0 i a w r 9 8 t r r w e a 9 u y w q 0 q t i i r ",
"t t u u t w r u e w e 9 5 0 e 5 t 0 w t e q q 8 0 7 0 r w e y y t 9 t r 9 9 0 e w y 8 0 8 r 9 e i q e 6 5 r r w 0 q i 7 y t 0 8 8 8 q y p y ",
"6 5 5 6 6 4 4 6 5 2 6 6 , 5 0 1 9 3 5 9 7 4 5 3 4 < 2 6 4 5 9 9 7 3 6 9 3 < 4 6 1 5 ; : : 6 < 1 7 < 3 : ; 5 4 3 2 4 q , 9 9 3 , 4 1 , 3 6 6 "
};
