/* XPM */
static char *pngegg__8_1671812387[] = {
/* columns rows colors chars-per-pixel */
"70 70 25 1 ",
"  c #070606",
". c #090706",
"X c #0B0907",
"o c #0D0C0B",
"O c #110E0C",
"+ c #13110E",
"@ c #18130F",
"# c #151413",
"$ c #181614",
"% c #1B1916",
"& c #1C1C1C",
"* c #211E1C",
"= c #22201E",
"- c #242423",
"; c #282726",
": c #292827",
"> c #2B2B2B",
", c #302F2E",
"< c #31302F",
"1 c #333333",
"2 c #383736",
"3 c #3B3B3B",
"4 c #434342",
"5 c #4A4A4A",
"6 c gray32",
/* pixels */
"-&&=&>O#&->-;-#&&#-#---&--&###-541113-#11-#&###&#&11----22>>>-&132$$32",
">-===;$ooo&--&&&&-&o--&&&--#o=211,>--1--13#&#&&&#&>;>->>1>>&&&>>113>;1",
">>-=&&#>=&oO&>;--&#o&-&----->o>>1>;-;;1&>1>##&--&o-->>>111>-#--->113&>",
"11>-&%>>-&-&33>;&&# o&--->&&-o->21>--&-&->>>oo--># -->-&&&-&#>-&-111;-",
">>>>#---=&-#-,;>-&oooo#->>-##o;>1>>>-&&#->>>-oo&#-&o#o&--&*###&&>>>><#",
"&>>-#--&&=&=$&><>&#->3>o#1&-ooo&>>;>-#oo&--&####-234531>>,22>#&-111>>&",
"#>1>==--=--&--;>-#&->>14##-1>11#&---&oo#---##->&#>132>-->>->>##>131;&&",
"&#>>>#>;-&##&-#&#&&--->14o41-;>>#&#o&#o&----#>>-##;>----;=&&->&#>2<-&>",
",&o$-#;-&#oo&&#&>-&--->>31>1-->--#-,-&>o##oo>1--;&O##&&--&%,>>,4;&;&;>",
"-;>-%&oO#o&#oo&&-&---->>11---;>>>o>>-&-1# >311>>-;44-#o#&&->,>>,1>&#&-",
"##-->;&$=&##;&o ooo#&#---#&&-><>,o>>&-->3#-3>>--;,12-1,&##->->>>11-oo#",
" &=--&&&&&#&=&&&->>>>& &#-=o&-<<>#1,&&->,>&1-&&&>133;321&o&&&&&--&#&=o",
"$&#O&&&#&##&&&#&&->1<<-o&-&&#-;&o-1>>->>11o&ooo#&-11=33111->144-#--&&;",
">$&231>&--&&&=--->11><-&o-->Oo&21#-;-&&>>-##-->1-O#>#321;;1111,##&&---",
":>&1331>&->&&>>>11>>>-&-#->>:-11,>&&&-&-;&;&##&>>1-##42>--;----###&-=-",
":,=21111-#>>-><1>11>-&&-&#o#-;323,,,#&--&>>&#&&-->33&11---&---# o##&-;",
"<>>3<1<<>1o&&#-<>>>;&#&>->44&13441>-o##-o--&&&=;>>145+>--&####-o #&;11",
"1$42;->;>>1&342#o->>;--1-1133#<1321-O&&#o--&#&=>;>>2%+#&##>;,2>=&o&>21",
"<=1<-=--;;;#;>112-o&>-;-&3311;&>11<-#113o&-&&--;->->1>1,>;-<1>-=&&o<11",
"#O=-&&&o&>&&&-><>;>o##>34431<1&>>>>>&11>1o#&-&----&1;---;;=131-=--##oO",
"3<#o#<><###=##<<<--1o&<1343>>>o;-##=;1>11>1o#ooO--o#=&&&&&&-31>--&o>24",
"&&=&O>>;>-#&&#>11<><;&>1321--&oOo#&&>;>>---&#-&-;>1-Oo#>144=&31-&&>&--",
"&#&&O&;><>-&#&-21<>:;#>1341-&#&&-->&&=--==&&=##&&&&=;-&=->144#&o->-&&&",
"-&&=,-&231-##&&---#o#O:211>;&o&-&&---##o&=&#&#o#&##&-&&#&&-<44OO--&&&&",
";=&->>>&32>#&&#-&o->&>#>-&--#-&&&##->11<-$$+;&#&&#&&=-&&&=->131o-&&---",
"--=--->#32>---o##>=#11>&#oOo&--&#o#&>1<<<35$>-&&&#&=--&-->->111o&--->-",
"----&=-o>>#1>-&#1&o>>-&##;>&-&-&&#=<1#-1112$>=&&&-o-;>-;>>>>1<>o&=-;>>",
"><-&&&#-o#-2>->#&#><-&###&-&=-=-&#>>14-#-;>&-=&&&>-#><>>;>>>>>;o#&-->-",
">--&&o#>3#&1<><1$1:<<;&##&;&##&$o-1><<1<&#&;$O&#####+,>;->1>--&oXoo##=",
"###oo#-->2-##&-1;:1111-&##&#---12-111>>>&;;---o#>333>#--==-;-#1>,>>>-+",
"o==#---=&<23<&oo#&1<>>;&&&#&1131>&>>2<--&O&##&#=->1>1;Oo>23; -111<>--#",
"&##=&=&-&->11144#---=&&&=&11&11;&#->1>---####&=-->,>>2#13444&>3332>-&&",
"-&#&-#-&&&-<112>O&&o&11##1112>1-&o&->--&&#Oo&&&-=;<;->=13333o#>3421--&",
">&#&&>->-&--;>-#2=X1>,13#>111#1>&oo;---&&&##&&&;-;=&=->-21<-1>o&442--#",
"----->->&&#&&-&1>1*->>111&1->#--#-oOOO#&1>=&==>#1-&#&--#>-o3212&-31-#>",
">->><-#-&####o;;-->#->>>1o#o#o-&#>>3-55#11;-;>&#>--&&&-##o1--&-1$-#=>>",
">>>>>>#>&-&#&;<;-->$>>>-&#>>o#&o-=&-4342&<;-##o1>>---&#o#>&-&&->3.>1<>",
">>>>--#1>>--&;>-&>>*>;-&&>;-# o-&&=#,>1###&#11O&---&#o>3#<>-&---11&1>>",
"#o#--&#1->>>$--=->1@--=&o>-=->>-=&#&-=#643->1;>o---#=<-1o>>>>>-->; 1-#",
"333&o#o#o##->&>--;-#ooO#>-=&---&&#X&&%1331;1>--##&o211>>-&11>>-o36>##4",
"2>11>&&>42>#O&>---#11>@#&&#&-##&&&O&&o111-#1--&>oo3>11;;1#21>-&3122o>2",
">>-&&&&-1241&$&=&-&31-&+ ##-111o;&&;-#11-#1>&&#&&<111>>>>O=>;&3>>>>#-<",
"&&-&&=>-211--;O&&&>2>&&&ooo&>111oo<;=#>-&1>-&##&#21>>;-->-O# <>---&&>>",
"&&&#o&>&>1>$>;+ooo>;&&&&o o#&123-6;o o&>O--&##&&=11>>--=--oo1-&&&&##-&",
"&####&->&>-$1-&>1>>&==&#oo#oooo#244&4443#&--=&-&-3331---&=O->-=-&&###&",
"####&--1$,>&1=&111-&=&#oo##&>3>-342#32>>&#--;;>&;3431>>-&##->>---&#o&&",
"&&##&--1#;>#>&#11>=-&&& oo#-->>#<<oo>>-# &=###>--43311>>-#O---->;=&#&&",
"---&#&&###-#-&#-#31#&&# oo#-->##-o4oo##oo&o155>>#211131<-&O->->1>-==o-",
"->-&##&353-##-#o4433>#>&# #->-3#-31>-   oo#1133&o<>>>12<-&#--->>>>-&oo",
"o&&###&21>>>#-#132<>---&&# &--321>--&--o->1>1111o--->>1>&-#&=---><>=-#",
">#oo o&1>-&&&>-,1-&-<>&&#-###311<=#o---o->>>>>>-o#&&&&-&####---&=--&3>",
">-&&=<>>-#&-#>->>-43<>-#--<o>211>#---&&o#>>>>---oooo#&---&-#&-&####11>",
"-&#-->>&&#&*#-%>>&>>>-&&->1o>221-#-&#&#o#&->---&&&12<>---##& ooo#-111>",
"-#&>---&##&$###1>o>&-&&&&&>##&-#34####&##--&#-&&-=;21>---#o#&>>-#;>>>>",
"-#->-#o Xo&1>O&>>#--->-#&&##1325423>#-##o&&&&&---->>1>>>--###&->#;>---",
"-#->&->>>-&--+>>>o>-&>--&#o&>34421>##-->#&--##&>>>>&3>>>>--###&;#>>>--",
"&&o#o11>-&#&&X&-#o&#&&&-#&--13441>>,=&--&-<-&&->-->#41<>>-&###&-&331>-",
">>><&#<<-&##&&oo>>#o >>o,;-#>1241&1;&&=>#-1>-&&&-&&&331--&&#&&-&-31&##",
">>>>>#&>;=&&O>;----1#<>>-&O#->,>>#Ooo=;<3&ooooo##&#&131>-&#&&--&-&#45o",
"#-#->oo#&-&o>;&&#&--o1<--&oo&--oo&33&#>134&541--##o-->>--#o#&>>-44542>",
"ooo o>333,O->-=#ooo#11<>>-&Ooo>5&>131>o<<<>33<---& oo&#oo<o-&#-54211->",
"#o&--->134,&>;-&oo-;>>>>>-&;->,<&>111>>&-#111>--->-#--2>1<o>1>131>><--",
"#>>&#&-;13>-<>-&#o#--->1>-#->>>>#>;>;&=&&&>>>>>->>&#-->>>&-#-<1>>><1--",
"1>-&#&&###O&-&&### #>>111-#-1>-;O----#--#&-1>1<->-###&-->>>-#---&o##&#",
"13>&#&o3344##oo----o&<112-&11>-&1o####&--o->>>1>>>-#&-->><><1ooo&354o-",
"#1>-- 311245>2>----#&o>1>#o##-31--#o&##&--ooo#1331>>&---><>--&<<>1445o",
"##-&o-1<1>34#1<>---->4<-464>-221>-&-o##&-&#--#&>>>--&>-->11>O><<>14344",
"&-#oo-<<-113-->1-&&->3444332o123>-&&&#o&-####&#o#>-&#-&&--->#-><<1432&",
"2112-#&>-1333o11-&&#><>>>>--#131>-&#&&# ooo#o#&11o#&ooo#o141##>11332;3",
"---->-#--><11#->-&#o----->&&#3<##->;o&#>>#o###&&&-11>-#&33211o##&#->-3"
};
