/* XPM */
static char *FXD_vY__1___1_1671733915[] = {
/* columns rows colors chars-per-pixel */
"50 50 153 2 ",
"   c #040600",
".  c #090E00",
"X  c #0C1300",
"o  c #121600",
"O  c #151B00",
"+  c #1A1E01",
"@  c #172200",
"#  c #1C2300",
"$  c #1F2900",
"%  c #212600",
"&  c #282701",
"*  c #242B00",
"=  c #2A2E00",
"-  c #263200",
";  c #2C3400",
":  c #2E3A00",
">  c #323500",
",  c #333C00",
"<  c #393E01",
"1  c #353A0A",
"2  c #364100",
"3  c #3B4300",
"4  c #3E4900",
"5  c #424501",
"6  c #444C00",
"7  c #494D01",
"8  c #4B4E0A",
"9  c #465100",
"0  c #4B5401",
"q  c #4E5900",
"w  c #4D530C",
"e  c #525600",
"r  c #535C00",
"t  c #5A5E00",
"y  c #545B0A",
"u  c #565A13",
"i  c #615D02",
"p  c #566100",
"a  c #5B6400",
"s  c #5D6900",
"d  c #576108",
"f  c #5D650B",
"g  c #5E690B",
"h  c #5D6516",
"j  c #626601",
"k  c #636C00",
"l  c #696E01",
"z  c #646C0B",
"x  c #706E05",
"c  c #657200",
"v  c #6A7400",
"b  c #677900",
"n  c #6D7A00",
"m  c #6B740A",
"M  c #6D7A0B",
"N  c #737501",
"B  c #787203",
"V  c #737C00",
"C  c #7A7D00",
"Z  c #727E0C",
"A  c #646C16",
"S  c #666F19",
"D  c #697314",
"F  c #6E7A18",
"G  c #6F7721",
"H  c #6F8000",
"J  c #758300",
"K  c #7A8400",
"L  c #778800",
"P  c #7C8B00",
"I  c #768309",
"U  c #78840A",
"Y  c #7D8B0A",
"T  c #7E9100",
"R  c #7A8313",
"E  c #7D8C10",
"W  c #7A8424",
"Q  c #7C8628",
"!  c #818401",
"~  c #888202",
"^  c #838D00",
"/  c #839300",
"(  c #899500",
")  c #869A00",
"_  c #8B9C00",
"`  c #83910F",
"'  c #8E970B",
"]  c #899B0A",
"[  c #929D00",
"{  c #848E15",
"}  c #869110",
"|  c #8B9412",
" . c #8DA300",
".. c #8FA20F",
"X. c #93A400",
"o. c #9AA401",
"O. c #95AA00",
"+. c #9BAC00",
"@. c #9CA80D",
"#. c #96B300",
"$. c #9CB300",
"%. c #9EB900",
"&. c #99A111",
"*. c #A2AE00",
"=. c #A0AF09",
"-. c #A3B400",
";. c #AAB600",
":. c #A4BB00",
">. c #ABBC00",
",. c #A7B609",
"<. c #A7BE08",
"1. c #B3BE02",
"2. c #A2B319",
"3. c #858D29",
"4. c #989C20",
"5. c #98A129",
"6. c #A1A939",
"7. c #A6C200",
"8. c #ABC400",
"9. c #ADCA00",
"0. c #B2C400",
"q. c #B8C502",
"w. c #B3CC00",
"e. c #B9CD00",
"r. c #B4D200",
"t. c #BBD401",
"y. c #BBDA00",
"u. c #C2CD00",
"i. c #C4D201",
"p. c #C3DD00",
"a. c #CBDA00",
"s. c #D2DD01",
"d. c #C4E200",
"f. c #CCE600",
"g. c #CBEA00",
"h. c #CCEA0F",
"j. c #DDE300",
"k. c #D2EE01",
"l. c #DCEC04",
"z. c #CEF200",
"x. c #D6F302",
"c. c #DCF200",
"v. c #D7FA00",
"b. c #DBFB00",
"n. c #CDEA11",
"m. c #D7F710",
"M. c #DFF816",
"N. c #E6F200",
"B. c #E1FD00",
"V. c #EBFF01",
"C. c #F4FF00",
"Z. c #C1D723",
"A. c #D4E525",
/* pixels */
"7.I c %.V 0 2 $ } h.k , v p J C.a.> p n q ( r L L # * a J , a k 3 # c $.k * 9 a 4 3 @ 7  . .0 & r O.",
"-.k.) 6 r ^ s * 4 8.2.R / 7./ ) C.V k p P ^ , b n o q k / 6 c 3 > 2  .T t 4 4 P k 9 $ s %.J 0 4 9 L ",
", >.g.P s l * * 2 e J @._ _ +.L L P p c +.M 1 y 4 0 / P T 3 p p 4 2 r / b ) T n p - ; a L P b )  .0 ",
"* 2 j P P 2 - q k 5 q P P c w ' -.[ K t s +.T S 3 L L L n J w.b.$.t v J v O.T a / q 0 < k _ n O.) 0 ",
"* ; : , / 8.n k / ;.P k p 4 o = a.c.p 2 p X.P v 0 a $.k 7 J +./ e J n q 0 0 0 q p.v.T s N a 6 r q 9 ",
"* > 9 2 0 k k 7 X.C.t.r p r 4 0 a K o 7 n X._ ^ 7 n t.9 r ^ _ E Z r./ 4 +.3 @ * n ) 7 P P 6 ^ p 2 s ",
"r 4 2 2 4 3 r X.r ) X.6 7 P t t 0 4 e r V v 0 v 4 0 f.4 ; o.^ d 7 P 0 @ 0 p > v X.M I 9.:.; c / s @ ",
"w. .s 2 : 2 2 7.w.L r c K V N 3 < t y 0 s 2 p +.P # P 6 o : : 4 s p e > o k V P b.M y L j @ + , s q ",
"l.V.v.+.6 : , p r.+.u 4 p v e.d.Y 7 5 t 0 J *.s 6 0 J c 0 2 > r J s v n ; * O 0 +.e > r 7 a ; @ 3 j ",
"8 K _ X.r K C = 0 p 4 - < k _ C.V.:.v r a v < @ 0 k T c j L b c o , a ) s , 3 q k L a k K n q 6 e C ",
"; ; ; & ; V % c $.+ @ > < e 0 / ^ -.*.! 5 3 2 $ 4 v n 6 v / _ c X q J ) k r a n V  .0 0 ( / v V ~ 2 ",
"3 0 # < k z 7 b w.r $ c N c 3 + o ; K d.^ v ( $.L a c 3 ^ 4 c T > s / H L p v j v L 4 ( e b / ^ B 2 ",
"@ : V K k W D M $.T s V s V * q c a p w./ k s -.O.2 q k _ y : p > n ^ P l.C.s > j s v ( a L v s k L ",
", 2 J K < Y z v #.:.9 * n s * 0 6 V a s s b ) $./ k L  .^ m 3 G 0 6 Z w.X.N.C.s v r ) P g s a q 3 = ",
"c 2 a ,.{ j y./ v O.r 7 s > j V a 2 : 7 v p % / / V n n O._ $.K l e r e.w.J w./ r j K  ._ a q < 6 + ",
"q ; 6 X.v n m.Z.m 0 p 0 4 n v e 0 3 O > )  .* @ 7 a c k e a -.n / v = 0 w.) v / / v 7 r 7.V ( _ l # ",
": * & P L 7 h 3.5 * N B -.-.J = $ 2 2 T O. .- - 4 c ( k 5 s P -.K j v : < c >.c.-.7 5 k X.s > w.;.& ",
"* V v k -.O.O.7. .0 0 r y.B.g.r.q * s  .) J e * 0 p.a.v + k K b = P $.r y 9 4 u.*.. 6 V / q p b +.t ",
"v j J n ) y.p.w.7 ; 9 p P -.y.y.X.0 5 n L 9 9 $ s +.f.0 # r v q 0 +.0 < a J r 7 < 6 0 v p ; <.$.n e ",
"j < p %.p 3 j v * O r O.K ) c q 0 n N  .L T T 9 n 0 7 5 l 0 p 9 V X.* , 6 c L r 0 c 0 p p r ^ w.+.b ",
"e.r.%.J p k k 7 4 . 9 +._ +.F M X.P j r a O. . .0 p e 0 r w e 0 ^ 3 O * s k 7 r v 3 w e 0 P -.>.^ c ",
"A.k.8.P J K p s p > @ 7 e 7 w O.w.O.2 s 9 n ) s a K : 6 8 3 c t > 3 K o.y.) 3 k X.f k r a 5 > a / < ",
"z ( P X.-.P s V V ^ 0 X < 0 ; a K 4 > $.a - r 3 N -.w.0.t.$.^ ^ J b j j  . .V n :.p.( ! 7 5 > # 2 q ",
"0 V V ^ _ P / V V O.j ; 4 n [ r 6 O * V s O ; , c ^ c.C.k.;.[ ;.g.T b P O.9./ c J n _ 0.8.n r : * > ",
", < 2 9 %.y.#.: # < 9 7 l v P k V 6 % & e , & 2 r n v X.r + > t 8.P v e > r 9 r < # < $.y.s : : * * ",
": : 2 2 6 T $.0 # # c n y a L r , ; @ < o.t P o.% 7 0 < + 3 c s t p s J 4 X ; 6 p v c a P p L 9 < 0 ",
"V a 2 J j - 9 9 , : # , J r a k k ; : % 5 : 8.t.5 t J = < n q n 4 , s #. .$ $ , 0 0 n 0 s 3 * 6 _ X.",
"/ ^ 7. .X.c a e * - - * 6 2 , q *.7 0 >   > ;.$.s N n p - 0 0 4 ; + 6 ) #.J 3 * s c 3 + r 0 4 r 0.V.",
"a 6 ) O.V ( p 9 s s 2 r r s J v K v ^ 7 q c V q v c j s * v K 0 4 + J 7.L q 7 ; 9 J 2 @ > n s v < j ",
"6 9 V a s J | } 6 3 s 9.d.g.v.p.K N l + s 7._ J 9 * v 9 q ^ < ; : 3 v H T p L L T 4 s 0 k $.c v # # ",
"; * a r 9 s n @.# 2 k 0.l.s.[ a ; > k j g U 7.:.J # s 2 J a r 4 > : , k O.L  . .$.2 n s p n V 4 , 3 ",
"q c 9 2 ; , ; k j c c > = 3 * ; % p R Q z k L _ _ s 6 a >.e.d.d.r.v j V K 0 L  .H r b 9 5 ^ ~ ; 2 9 ",
"a 9.9. .k k 4 * 0 r V & : ; q : 2 K 0 I Y X.J c d e C ! f.b.x.d.L 7 J k p 9 6 4 e , 4 v V P V l ^ 7 ",
"J T H s e K * 2 p l p : 2 < < : ^ ^ y 8 P x.n.5.@ 2 j 7 v +.T c 8 L +.P 2 / P = @ ; ; e v p 0 p 4 d ",
"0 t.g.$.J q : s V o.e = f = X : 7 P ,.&.0 -.6.S n j 3 0 V v O...S %.9.$.$ s +.p $ # k _ b 5 V 2 o 0 ",
"# > J L s  .$.s t ( x v ^ 3 3 9 2 7 X.P v 3 0 7.y.2 ; 0 O.o.[ M q n ( 0 o & = 7 J 6 ;.v.s > O.K & < ",
", * * ; > q p q _ T L s ; z ! n 9 * < ) ( ) y.c.X.* @ # V ( t 0 , , q 0 2 * # 5 o.0 e V.L 6 ;.*.t o ",
"; : $ < 4 ; 3 : c r.9.7 O , ^ v , = < 0 ^ w.e.K V e > X O * * 6 t [ b j K > @ ; & O 9 [ V % ^ q.1.6 ",
"k q 3 0 9 3 2 2 4 6 r < 7 o j V > ; [ n L c 3 7 k 7 0 0 r > + < a [ V j ; + < < # o 7 r s - = v _ v ",
"; 2 $.y.y.p.H a C < *.C ( < + s 2 e v 6  . .r v k s b n X./ : 7 x r P r v K 6 r t N p 0 # X ] 9.P n ",
"6 a I 1.q./ r 5 r > V 0.t.;.6 4 < j 7 0 / L j P c a V L ^ r 7 t k 0 k 0 p 1.s a e n s k C > r / w.X.",
"p V ; + > ; + r R D : = V ^ s 6 0 e ) y.d.O./ +.) V / 9 9 6 n ) L n 9 0 7 / X.H H 2 < / t.v / >.1._ ",
"V k ; 2 6 2 r c d { 2 I 9.) P n j 7 t.M.f.P [ o.P  .J H M a L v r q 6 p 6 s / -.J k e j 0.v K ^ r ^ ",
"K i 2 0 O ; K ^ z L a w / 8.$.K 6 9 I 4.n ( K p _ X.0 X.Y Y w.P , $.q O - : 7 T  ./ s 2 4 +.q . * < ",
"^ k K k < 6 , _ @.s n I V 0.-.P 2 s V < n k 0 p 6 q 4 a 0 7 P 9 O e p : 5 n 0 J T < _ L 6 p e 9 a X.",
"*.s e ^ _ k c 2 / V a 7.i.j 0 J j / 9 g -./ , $.0 O - , 9 j q e , O e / j l.s k r r [ : r j ^ n v B.",
"c c j p 9./ _ p 6 v t.t.n % X s +.V q 0 ) 6 + e t > 7 P p o.n j , # > < , i.] 6 0 P v X : a a 6 r 0.",
"r 0 7 6 _ 9.X.( e 9 r t k 6 % % ; , 7 p q q , o e ( p b.V p V 0 3 4 < o < a s a e t > p  .X.4 b K j ",
"s 3 > n n v v [ c r e 4 4 J r 3 * * p X.n j < @ > > > ;.-.p 0 n ;.0 n K _ p v _ N t v n / $.V J J > ",
"3 % : v s t v K 0 q 2 X 2 a a s c 0 x v n 7 < 4 , o 2 l _ T 3 p *.^ c L $./ L ;.+.t./ c P :.X.r i.j."
};
