/* XPM */
static char *_151891ecb764c96cd76d4d433616e6cWmsclRiIo82WmxGC[] = {
/* columns rows colors chars-per-pixel */
"50 50 235 2 ",
"   c #393C1B",
".  c #2F2C2C",
"X  c #2D2827",
"o  c #332D2B",
"O  c #352C25",
"+  c #383C24",
"@  c #36332C",
"#  c #3B342C",
"$  c #3D3B2B",
"%  c #393728",
"&  c #372E32",
"*  c #353234",
"=  c #3C3433",
"-  c #3D3B33",
";  c #3B353B",
":  c #3D3B3C",
">  c #343138",
",  c #423D26",
"<  c #42352C",
"1  c #433B2D",
"2  c #433727",
"3  c #423634",
"4  c #443C34",
"5  c #493D34",
"6  c #423639",
"7  c #433C3B",
"8  c #4A3D3A",
"9  c #483234",
"0  c #3B4D06",
"q  c #3C5207",
"w  c #3C451B",
"e  c #3D4421",
"r  c #3F422D",
"t  c #3E403B",
"y  c #435505",
"u  c #425A02",
"i  c #4B5D05",
"p  c #44540E",
"a  c #475D0A",
"s  c #4B5C0C",
"d  c #48550D",
"f  c #505D0F",
"g  c #424F15",
"h  c #444C1B",
"j  c #4A4E1E",
"k  c #40451C",
"l  c #455412",
"z  c #4A5416",
"x  c #465B13",
"c  c #4D5B14",
"v  c #47531B",
"b  c #4B541C",
"n  c #4D5B1C",
"m  c #535E12",
"M  c #525D1B",
"N  c #53571D",
"B  c #466102",
"V  c #4C6304",
"C  c #4D620B",
"Z  c #4C6708",
"A  c #526904",
"S  c #52650C",
"D  c #546B0C",
"F  c #546907",
"G  c #4D6114",
"H  c #4D611B",
"J  c #536313",
"K  c #536A13",
"L  c #54631C",
"P  c #5C6C1A",
"I  c #586718",
"U  c #5A7311",
"Y  c #606F1C",
"T  c #444525",
"R  c #444A22",
"E  c #4B4C23",
"W  c #43432D",
"Q  c #454A2B",
"!  c #4B4C2B",
"~  c #484124",
"^  c #465222",
"/  c #4C5423",
"(  c #4C5B22",
")  c #4C522B",
"_  c #46542B",
"`  c #525623",
"'  c #525B23",
"]  c #52542D",
"[  c #545C2A",
"{  c #5B5B29",
"}  c #444234",
"|  c #4C4434",
" . c #464B35",
".. c #4B4B35",
"X. c #45423B",
"o. c #4B433B",
"O. c #4B4B3B",
"+. c #44493A",
"@. c #514535",
"#. c #514B32",
"$. c #51463C",
"%. c #534B3B",
"&. c #5B4C3E",
"*. c #4D5334",
"=. c #4B5638",
"-. c #535434",
";. c #545B34",
":. c #53523B",
">. c #5B543C",
",. c #5B5839",
"<. c #5B5836",
"1. c #524D2F",
"2. c #60543E",
"3. c #5A6325",
"4. c #5C642B",
"5. c #566326",
"6. c #586537",
"7. c #667B2E",
"8. c #626B37",
"9. c #677137",
"0. c #636A27",
"q. c #3E3C42",
"w. c #3E3A49",
"e. c #443C42",
"r. c #463D45",
"t. c #503D41",
"y. c #413C52",
"u. c #454143",
"i. c #4C4343",
"p. c #4D4D43",
"a. c #45434B",
"s. c #4B444D",
"d. c #4B494B",
"f. c #524642",
"g. c #544C43",
"h. c #5A4E44",
"j. c #564C4A",
"k. c #5A4D48",
"l. c #4D5441",
"z. c #4D524D",
"x. c #545345",
"c. c #5C5343",
"v. c #555349",
"b. c #5C544B",
"n. c #5E5B4A",
"m. c #595B48",
"M. c #4A4753",
"N. c #4C4A54",
"B. c #4D4B5A",
"V. c #484457",
"C. c #514D5B",
"Z. c #554F56",
"A. c #4D5057",
"S. c #53525C",
"D. c #5B5A5B",
"F. c #595657",
"G. c #604F45",
"H. c #635445",
"J. c #665A44",
"K. c #6A5A46",
"L. c #63554B",
"P. c #69574D",
"I. c #635A4C",
"U. c #6B5B4C",
"Y. c #695744",
"T. c #634F50",
"R. c #625654",
"E. c #695750",
"W. c #655C52",
"Q. c #6C5C53",
"!. c #655C5A",
"~. c #6B5D5A",
"^. c #705E59",
"/. c #5E6243",
"(. c #5F615C",
"). c #636544",
"_. c #67604E",
"`. c #6B634E",
"'. c #6C6A46",
"]. c #706249",
"[. c #6A7545",
"{. c #6D6255",
"}. c #6D645A",
"|. c #6E6959",
" X c #63615A",
".X c #726355",
"XX c #736955",
"oX c #73665B",
"OX c #78665C",
"+X c #75695C",
"@X c #796C5D",
"#X c #796B55",
"$X c #7A715B",
"%X c #6F744F",
"&X c #4D4A62",
"*X c #524D61",
"=X c #565363",
"-X c #5E5C64",
";X c #5E5B6A",
":X c #585569",
">X c #5C5873",
",X c #615E65",
"<X c #615E6A",
"1X c #615E71",
"2X c #5F6167",
"3X c #5D6371",
"4X c #626165",
"5X c #6C6462",
"6X c #63626C",
"7X c #6A686C",
"8X c #746662",
"9X c #786762",
"0X c #756B62",
"qX c #7A6D63",
"wX c #7B6D6A",
"eX c #7C7165",
"rX c #7D7269",
"tX c #656472",
"yX c #696574",
"uX c #6B6976",
"iX c #756B75",
"pX c #7B7677",
"aX c #806F68",
"sX c #817365",
"dX c #82746B",
"fX c #857C66",
"gX c #847973",
"hX c #847A7A",
"jX c #857574",
"kX c #8C847B",
"lX c #8B8575",
"zX c #92837E",
"xX c #7B7983",
"cX c #7B7A86",
"vX c #968C80",
/* pixels */
"lX0XeXeX+X$XO.;.C ( O.{.wX9X@X@X|.$XXX0X9XE.i., ( J O.}.0XqXrXW.| s.O.F.F.2X6X4X!.u.q.w.f._.qX@XqX@X",
"zX0XqX9XrX[.L I D -.j.+X+X0X0X8XoX+X+X~.c.4 } ` S S b ).9XwXsXqXb.o.;.^ &XS.=XB.a.q.w.T :.I.+XOX0X+X",
"zXoX@XaXeX8.A B n o.f.c.XXoX0XoXqX8XJ.o.1 W ' F M <.b c.qX9X#X+X9XI.m d _ l.+.q._ n : v l x.!.+X+X8X",
"lX}.sXeX|.-.P l G l p.p.g.{.@X}.L.@.2 = W J s s ) l.! @.0X+X9XwX.XoX,.c i D a J Z / 4 E l M -.I.oX+X",
"kXXXqXeXb.k c ( i q G ^ O.$.c.| 1 4 * * - ;.+.A.!  .X.o.}..X+XoX9X+X}.{ L L S M [ p.p.%.L B J k.I.+X",
"kX@XaXoXO.l 0 v [ [ B S ! -.n m ! . @ X.N.S.B.S.F.+.; } b.+X+X].{.{.{.i.c m ) ,XQ.!.!.{.0.V U =.%.x.",
"wX~.sXf.) c s ! b.$.<.I C H C ^ } : N.>X;X-XuXuXuX;Xa.4 g.~.}.Q.Q..XQ.t.4 i -.}.}.oX+X@X'.8.D x :.:.",
"|.g.h.! b c ] g.Q.P.Y.,.G V _ 6 a.:X:X XtX6X6X4X6XtX;Xu.O.f.U.Q.Q.^.].g.# R { ~.|..X9XoX0XqX4.i M n ",
"0X+.%.| J V L R.].P.~.U.J.! } & * =X=X7XtX3X6XtX6X6X6X=Xe.i.O.R.~.J.&.5 # o @.}.{.oX+X+X8X0XXX'.s C ",
"9.n Q Q I D <.U.H.P.K.Y.P.W.1 W   : S.*X4X7X2X5X6XtX-XyXN.E [ O.&.5 % ~ / ! O._.}.oXoX+X+XoX$XqX4.' ",
"8.0 p I S ( k.E.H.K.P.P.P.Q.I.%.l J  .v.D.;XtXuX4X4XyX6X6Xl./ ` r.6 : 5.S A ] F.oX.XoXoX0XoX@XwX0XW.",
"%Xs ( H H ! W.K.U.U.P.P.K.K.U.E.$.u B _ *XD.3XtX7XyX<X<XyX>X: n n b G K J c 1 c.!.oXoXoXoX+X+X+XrX9X",
"hX) P u d :.Q.K.Q.I.U.U.P.Q.E.U.L./ U x ! :XS.2X2X6XtXtX6XM.w.@ l c z 4.) ..M ^ g.!.oX{.U.oX+X0X}.+X",
"eX4 J C M ,.Y.P.P.U.].U.^.^.].P.9 4 I A K =.F.F.2X6X3XD.u.; 7 : h p. X$XI.u.4.K E c.!.{.+X@X+X9X0X0X",
"0XO M J b I.E.K.U.U.Q.Q.U.K.Q.8 5 m M I L K x B.S.B.d.q.e.8 i.| W.qXqXOXdXR.] a s / m.~.oX@X#XoX+X@X",
"W.@ + C n E.Q.P.U.^.E..XU.`.$.3 Q s *.:.9.L Z ! B.u.7 : o.o.Z.|.+X.X@X9X9XsXg.M D s [ c.h.b.L.!.{.+X",
"E.O r z :.~.W.K.E.].U..XQ.o.} h ^ n ..oXfXXX-.d  .r.o.} r.I.+XoXoX+X+X0X9X9X0Xc.' L K / W | X.4 | o.",
"n.@ + ..&.2.E.Q.~.^..XE.$.1 E ! } -.}.rXqXrX+X-.} r.o.x.= v.{..XoX+X@X@X+X@X0X|.o.h [ a ] [ c L m M ",
"[.w & = 5 r.@.$.$.h.h.8 = 1 ..} i.I.eXrXqXdXjX{.4 4 o.}.g.3 b.oXoXoX+XoXoXqX0XwX!.| ' x G A V U V Z ",
"7.s L k @ 1 4 7 1 1 3 4 4 3 X.x.}.@XeXqXwX0X+XeXo.3 o.}.@X3 o._.oXoX}.oX+X0X+X+XoX:.^ K [ C I [ c c ",
"%X+.( L ( v r = 3 4 : - o.i.j.{.eXrXqXeXwXqX+XqX&.- o.b.$X!.= | E.+XoXoXXXXXOXoX_.M P u c ;X7X-XD.D.",
"cX;X:XS.=._ s Q f.8 2 - u.j.W.}.0XqX0XeX0XwXqXqXn.3 ..x.`.eXg.= h.}..XoX.X+XeXrXh.] S V [ ;X-X4X6X6X",
"xXtX7XuXD.V.*.) c.b.o.: u.n.0X0X+X@X+X0X$X+X+X0XW.4 c g.W.+X{.4 T :.}.oX9XoXQ.F.$.j L e /.2XtX2X2X2X",
"pX;X5XyXyXs.a.: o.b.r.p.v.|.8X#X+X+X9X8X0X0XqX0X.X4 f ) v.9X{.1 c ` >.o.o.| 1.Q v y p d.;X X;X;X6XtX",
"cX;XtX6XtXA.a.u.# u.i.h.W.+XXX8XoX+X9X9X+X9X@X+X+X .c i %.h.6 2 $ i l } Q x K C b s C l.<X,X-X6X;X<X",
"xX2X7X6XuX=Xe.N.$ : %.b.{.+X+X.X@X+X@X+X+XoX+X9XOXg.c G *.W ' +   p b #.L J { ,.O. .H O.:X4X-X2X<X6X",
"cX2X6X-X6X6Xa.M.a.: O.$.Q.+X0XXXoXoX+X+X+XoX@X+XaXb.` I a l S g } :.n.W.U.).U.^.H.} J =.*X4X4X-X<X6X",
"cX;XtX6X4X-Xd.a.a.o X.g.&.}.8X{.+XoX+X+XoX+XoXoX@XI.` J u c -.,.}.|.oXQ.^.^.U.U.Q.| / S x.;X;X4X-X-X",
"cX;X6X6X6XyXD.w.d./ ) $.O.Q.oX0X+XoXoXoXoXoXoXoX9X`.~ J G 5.b.OX8X8X.XQ.E.Q.].U.Q.G.8 z ..:X3X-X2X-X",
"pX4X-X6XtX6XB.w.e.J ) i.f.h.{..X.XoXOXoX@XoX.X}.P.>.1 M C I I.+X.X]..X~.Q.U.U.Q.P.K.4 8 u.N.-X(.<X-X",
"pX;X6X6X:Xa.q.u.X.n 4 e.g.i.c.|..X{.W.L.c.$.4 1 ; O = l A P ,.+XoXQ.U.P.{.^.Q.E.].E.@.7 W a.=X,X-X-X",
"xX;X6XB.u.X.p.+.c _ d.$ 1 g.| 8 5 5 4 3 1 4 4 4 R / ' H ( K ` {.U.Q.^..XU.U.U.I.P.E.G.3 3 u.C.,X,X,X",
"iXa.y.w._ g M z c.|.0X5 # X.# 4 - # $ - z m T / l A ( *.;.K 5.n.}.U.{.E.E..XU.U.E.P.Y.5 < X.s.S.;X-X",
"|.r ;.H 0 q c H I.b.R.o.@ # @ o X @ } c /  ./ a.:.-.p.j.j.) ) &.U.E.U.K.U.W.P.U.Y.Y.H.f.4 1 ; B.B.u.",
"9.u Z Z v v x C R . # @ X . @ # $ x.-.,.I.n.}.oX{.|.eX{.i.W E g.!.U.K.Q.Q.K.P.Y.E.Y.I.c.< 3 1 + ;.L ",
"7.u v =.W.+Xn.N z @ + 8 o.v.W.}.$XeXeXrXrXrX0X+XwX@X|.8Xf.( C ..J.U..XQ.P.U.U.E.U.P.I.$.< < / J K D ",
"8.G '.+X+X@X5XE c } n.0XeXrXrXfXgXwXrXsX+XeX@X+X+XoX+XXX!.1 H i <.H.R.L.G.L.L.H.&.$.8 2 9 6 ! c c M ",
"hX`.#X.XOXOX9X! n 1 n.wXeXeXeXwXrXeXqXqXqX0X|.@X+X+X8XwX#X%.c D E 5 e.5 4 8 4 5 9 3 e.# < = ) F N n.",
"hX8XoX8X@X@XoXo.E T g.qXwXqXeXqXqXeXqX$XqXqX0X+X.XoX+X.XoXj.R c d _ E b R - X.Q E ~ E b [ k k x ] {.",
"lXU.{.0X.XoX+Xo.k E o.{.rXeXqXeX0XeXqXwX9X@X8X#XoX0X{.XXoX3 b C c G i C c d G s R Q E j x V c q c.{.",
"hXE..X{.oX{.}.g.1 r 4 I.wXaX9XaX@XqXqX9XeX@X8X@XsXOXOX#XP.# Q c v 5.3.;.l.[ ;.p.&XM.B.A.v.[ H 5.h.~.",
"fX~.oXoXoX9X#X@.= j f n.0X$XeX@XrXwXeX0X0XXX}.E.I.c.k.f.$.= + c z.;XtX<X-X,X3X(.D.7X6X;X6XB.v L c.W.",
"}.%.&.L.H.c.G.t.% R l p.i.@.o.f.c.v.>.&.o.| 8 < # 3 3 # < 2 = } B.2X-X;X,X4X,X6X6X;X!.D.,XC.X.( | %.",
"F.1 1 : 1 4 4 o w p q R ..! ! ~ 4 o.o.5 3 2 3 2 1 3 < < 3 O - - F. X,X;XD.:XA.N.N.a.a.M.p.q.: * : - ",
"!.@ i.+._ m / ....v x a J V J s L ' m R R @ * * % @ # ~ ! e / H M.M.M.d.: y.q.w.q.w.r  .L ' z r 7 - ",
",X# | i M s S F N c a / [ [ /.).)./.4.:.;.X.r @ & 4 o...` ) n x u.q.; ; > } / ^ ^ + z p s M -.p.X.6 ",
"kXoX@X'. Xm.).c z K u :.~.gXhXjXdXeX9X+XiX'._.N #.g.x.g.&.b.-.z : = # + w l c G i L n y ( m. X@X0X0X",
"vXsXjXdXfXrXgX<.v L 5.>.9XdXdXrXwX9X$XOX8X0X0X&.n X. .#.$.r...  o * X.*.l.v.S./.6.z.[ ( O.rXrXqXrXeX",
"kXeXwXrXsXdX~.[ D a c b.eXrXeXqX+XqX0X+X+XoXoX>.g z / ` T . o . @ a.2X3X;X-X6XuX6Xs.u.4 g.+X0XqXqXeX",
"kXqXqXeXqXrX!.` C i n W.dXrXqXqX+X@X0X+X#X9X+Xc.x v :._.{.!.p.= = 7 F.:X4X<X6X6X6Xs.e.: g.+X0XqXqXqX"
};
