/* XPM */
static char *_111_w032_n003_207B_p1_207__2_1671733528[] = {
/* columns rows colors chars-per-pixel */
"50 50 30 1 ",
"  c #2C231D",
". c #302721",
"X c #352C25",
"o c #382F26",
"O c #362D28",
"+ c #382F29",
"@ c #393027",
"# c #373028",
"$ c #3D342C",
"% c #3E3530",
"& c #40372E",
"* c #42392F",
"= c #403730",
"- c #453C33",
"; c #483F36",
": c #4A3F39",
"> c #474136",
", c #4A4136",
"< c #4D443A",
"1 c #4F483B",
"2 c #50473C",
"3 c #52493E",
"4 c #504740",
"5 c #554C42",
"6 c #594F44",
"7 c #575042",
"8 c #5A5146",
"9 c #5D5349",
"0 c #60564B",
"q c #635B4D",
/* pixels */
"&-82,4--2658<*<54-,1<332<333,-<2<22<1<,,-,2,-**;36",
"-<32142>$-<--<9477%-2,<21<3,*22<32232<21<-<;,<2<-&",
"=44551231-X29884684--<;:;;-&*31,13353<223,@,<2<22-",
":65313333--4958675461*,<,,,<$,33313>,,-,3*,332332<",
"65455514<-2$:16886465-%1,1,,*,,,,$*--*$X@,,3332323",
"673555551$:,4418855458--3,1,,&$*-,>,,,<--*,<332231",
"8556551>-%155552<46674-%*1,12-,1,,,,--2<2-*3122333",
",,41<>%-<<654466<441>;<,,***21,,,<<,<<--22*,333<33",
"---#--<3<-303333-:;;233;*21***,2<<13<;22*22-<3<;;;",
";,<-,<,1<,0338,,03333353*3333,*,,---,3662&;;*22633",
",,,,,,<<3;3388**6333<:3,,,332,333<->338608&-3,6633",
",,<-&&*<-&<3,,3<-<2;-;2;331;,1135415666603;303;83<",
"*,**333&&,32;230;o*<23<232,&3,232585883803&379,*<3",
"$oo&03<,,<<23<383;,,<<**,3&;363223<43633;*;63793<;",
"**&@@,23333333332,3<-<,2;-.,33,,,&-;--*,2*<3763,33",
"-&&@@36<333333382;-;3800q0*;*.&*,58555833<30302o6<",
"**-*@35235225258;-,6668960,2;+:476453535528882*o&&",
",,,*O6653682<<1>*3565698895-<4,5235521255555,o,,*,",
",,<&X;9682-,1<4<65254998003;56251265852655<<*,,*,*",
"21-+<o;<$*489689566559686<;<4765-26875255836,,*---",
"31@**--$X=:<;%<<<--=-<<5,-775585<<,603388822*,,,-,",
"&$ &+ --&,488454-;<4544:;<415784<6<,3033<1,-,3,,<,",
"*@o*,,+:9899989q6<68988445451><1,232,,,<<<**333<*-",
",<<,<5%;98988794184<5548,6566<4>32333;<3,-<23,,&,-",
"22<316;<66898945988<5566>4557<-233336;-<-3<<-*-,**",
"<,,<13;396485<6899749566555538,<533,,-<<,3,*-,<<*,",
",,3322*266--;59655<47565;441,,,>,,*-2<<,;-,*,<23-,",
",-,--;&241,<455>18488455-755525131232,2;,,23*<33-*",
",-,<,-266-:6352<78,<<266-=-<1-,223333;22,332;,83--",
"111-;5232-;4<27251%---%-.-52<40q83<<,-,*,3,<3;*;*-",
"<1<>8236,155*,83<$47486;$:;<258868,2333330336;;,11",
"2;-84,<;<4161-5-,5554556:15-:6856363063080626,2311",
"8=1,<<5322538*&&23383362*233,4,11884865880<,414538",
"$1<4232352333;25,*233;<;33;&,,1--<-<222886;;-->138",
"=<15732155331*21<2;;:;&32:*&556<84;256525,285521;&",
"6&=833343>,<-154<23,-:2<<:,<-2-<814655543-28666703",
"5=--<4<-;5891<4432<<-,1<;-23;*-<,<<58841--8555563<",
"&;94-:-669086-122322<<2<2&23-23<25<255224-26585,,3",
"<8555260549864-22331,<232$,3<3<321<1<2211<-882*$-<",
"8886566844968841733,<1<23-*32<232<35<121,4,-<25<:;",
"498877981896662$233,22223< @3322,,3322<<112-176566",
";98669886888656,$<22,23,3*$&**o=,3<322<<4222,55556",
";88868891<8888862<;,3<23*&,2;*$,313,<322451211656;",
"-48889894-,68868892**33,@3,2,3-;113<*3322145412833",
"5<4<1585<2<,6885<<,2-$=$<332,2<o2<3<;;36554661-636",
"54454><5<855<;<<<<1222 .3663523-,31,-#-;12561-<233",
"65-555<,25858,-553525<&;+-;*-<,Xo3*&1-#,-$,,*<5533",
"54>8792<96866--<322,2-;2;&*,-..<&o-22,>54122222436",
"5-48351>165,<-:<<1<;-&<,<<122,@3,<3<33-33333233333",
"4.14<5521>;1<<141<46--2,<<<<35-*22<<33-33333<33333"
};
