/* XPM */
static char *ezgif_com_gif_maker__1___1_1671811552[] = {
/* columns rows colors chars-per-pixel */
"70 70 256 2 ",
"   c black",
".  c #010101",
"X  c #020202",
"o  c gray1",
"O  c #040404",
"+  c gray2",
"@  c #060606",
"#  c #070707",
"$  c gray3",
"%  c #090909",
"&  c gray4",
"*  c #0B0B0B",
"=  c #0C0C0C",
"-  c gray5",
";  c #0E0E0E",
":  c gray6",
">  c #101010",
",  c #111111",
"<  c gray7",
"1  c #131313",
"2  c gray8",
"3  c #151515",
"4  c #161616",
"5  c gray9",
"6  c #181818",
"7  c #191919",
"8  c gray10",
"9  c #1B1B1B",
"0  c gray11",
"q  c #1D1D1D",
"w  c #1E1E1E",
"e  c gray12",
"r  c #202020",
"t  c gray13",
"y  c #222222",
"u  c #232323",
"i  c gray14",
"p  c #252525",
"a  c gray15",
"s  c #272727",
"d  c #282828",
"f  c gray16",
"g  c #2A2A2A",
"h  c gray17",
"j  c #2C2C2C",
"k  c #2D2D2D",
"l  c gray18",
"z  c #2F2F2F",
"x  c gray19",
"c  c #313131",
"v  c #323232",
"b  c gray20",
"n  c #343434",
"m  c #353535",
"M  c gray21",
"N  c #373737",
"B  c gray22",
"V  c #393939",
"C  c #3A3A3A",
"Z  c gray23",
"A  c #3C3C3C",
"S  c gray24",
"D  c #3E3E3E",
"F  c #3F3F3F",
"G  c gray25",
"H  c #414141",
"J  c gray26",
"K  c #434343",
"L  c #444444",
"P  c gray27",
"I  c #464646",
"U  c gray28",
"Y  c #484848",
"T  c #494949",
"R  c gray29",
"E  c #4B4B4B",
"W  c #4C4C4C",
"Q  c gray30",
"!  c #4E4E4E",
"~  c gray31",
"^  c #505050",
"/  c #515151",
"(  c gray32",
")  c #535353",
"_  c gray33",
"`  c #555555",
"'  c #565656",
"]  c gray34",
"[  c #585858",
"{  c gray35",
"}  c #5A5A5A",
"|  c #5B5B5B",
" . c gray36",
".. c #5D5D5D",
"X. c gray37",
"o. c #5F5F5F",
"O. c #606060",
"+. c gray38",
"@. c #626262",
"#. c gray39",
"$. c #646464",
"%. c #656565",
"&. c gray40",
"*. c #676767",
"=. c #686868",
"-. c DimGray",
";. c #6A6A6A",
":. c gray42",
">. c #6C6C6C",
",. c #6D6D6D",
"<. c gray43",
"1. c #6F6F6F",
"2. c gray44",
"3. c #717171",
"4. c #727272",
"5. c gray45",
"6. c #747474",
"7. c gray46",
"8. c #767676",
"9. c #777777",
"0. c gray47",
"q. c #797979",
"w. c gray48",
"e. c #7B7B7B",
"r. c #7C7C7C",
"t. c gray49",
"y. c #7E7E7E",
"u. c gray50",
"i. c #808080",
"p. c #818181",
"a. c gray51",
"s. c #838383",
"d. c #848484",
"f. c gray52",
"g. c #868686",
"h. c gray53",
"j. c #888888",
"k. c #898989",
"l. c gray54",
"z. c #8B8B8B",
"x. c gray55",
"c. c #8D8D8D",
"v. c #8E8E8E",
"b. c gray56",
"n. c #909090",
"m. c gray57",
"M. c #929292",
"N. c #939393",
"B. c gray58",
"V. c #959595",
"C. c gray59",
"Z. c #979797",
"A. c #989898",
"S. c gray60",
"D. c #9A9A9A",
"F. c #9B9B9B",
"G. c gray61",
"H. c #9D9D9D",
"J. c gray62",
"K. c #9F9F9F",
"L. c #A0A0A0",
"P. c gray63",
"I. c #A2A2A2",
"U. c gray64",
"Y. c #A4A4A4",
"T. c #A5A5A5",
"R. c gray65",
"E. c #A7A7A7",
"W. c gray66",
"Q. c #A9A9A9",
"!. c #AAAAAA",
"~. c gray67",
"^. c #ACACAC",
"/. c gray68",
"(. c #AEAEAE",
"). c #AFAFAF",
"_. c gray69",
"`. c #B1B1B1",
"'. c #B2B2B2",
"]. c gray70",
"[. c #B4B4B4",
"{. c gray71",
"}. c #B6B6B6",
"|. c #B7B7B7",
" X c gray72",
".X c #B9B9B9",
"XX c gray73",
"oX c #BBBBBB",
"OX c #BCBCBC",
"+X c gray74",
"@X c gray",
"#X c gray75",
"$X c #C0C0C0",
"%X c #C1C1C1",
"&X c gray76",
"*X c #C3C3C3",
"=X c gray77",
"-X c #C5C5C5",
";X c #C6C6C6",
":X c gray78",
">X c #C8C8C8",
",X c gray79",
"<X c #CACACA",
"1X c #CBCBCB",
"2X c gray80",
"3X c #CDCDCD",
"4X c #CECECE",
"5X c gray81",
"6X c #D0D0D0",
"7X c gray82",
"8X c #D2D2D2",
"9X c LightGray",
"0X c gray83",
"qX c #D5D5D5",
"wX c gray84",
"eX c #D7D7D7",
"rX c #D8D8D8",
"tX c gray85",
"yX c #DADADA",
"uX c gray86",
"iX c gainsboro",
"pX c #DDDDDD",
"aX c gray87",
"sX c #DFDFDF",
"dX c gray88",
"fX c #E1E1E1",
"gX c #E2E2E2",
"hX c gray89",
"jX c #E4E4E4",
"kX c gray90",
"lX c #E6E6E6",
"zX c #E7E7E7",
"xX c gray91",
"cX c #E9E9E9",
"vX c #EAEAEA",
"bX c gray92",
"nX c #ECECEC",
"mX c gray93",
"MX c #EEEEEE",
"NX c #EFEFEF",
"BX c gray94",
"VX c #F1F1F1",
"CX c gray95",
"ZX c #F3F3F3",
"AX c #F4F4F4",
"SX c gray96",
"DX c #F6F6F6",
"FX c gray97",
"GX c #F8F8F8",
"HX c #F9F9F9",
"JX c gray98",
"KX c #FBFBFB",
"LX c gray99",
"PX c #FDFDFD",
"IX c #FEFEFE",
"UX c white",
/* pixels */
"l z x c x z j h g g g h j h i q d j j d s g g d j k l l k j f d j h g g f f f f f g h k k k h h j h h g f g h j f d f g j h g h g a i f l l ",
"a a s d s a p i p a s s d d s p a s s a p a a a i p a a p i y t s d f g f a u t a a a a p p p p a p i i p a p i p p p s s s s s d i u a d s ",
"u u i i i i u u y u i i i i s f p u u i i u i p y u u u u y y t 0 w r y u u u u s a i u y u i i p u y u p p u t t y u u i i i i p u u p p y ",
"p p p p p p a a p u u u u y i a p y t i p u u a p p p p p p p p e w 0 0 w t p d s a p i i i p p p p p i i u i i t u i u u i i i u u p a i t ",
"i i i i i i i p s y t i a i y y p y r y i i i p p p i i i i i i g d i t r t u p y u u u i i i i u p p u e w y a r i a u u i p i i i p a y w ",
"u u u i i u u u p e w i d p y y i u r e t i i y i i i i i u u y a a a p i u y t t y u u i i i i u p a u e w t p w i a y t i p u i i i i r 8 ",
"u i p p p i y t u w w i a y t i u p y 0 w a p e i p p a p i y t r t y u i i i u i i u u u i i p i i i i i u t r q u a t e u i y u u u i t q ",
"y u i p i u t e i r r i y w e p u d i 9 w d s q u i p p i u r e s a i u u i p s a i t r e r y i u t r u a p e 7 0 i a t e u p y u y u a a u ",
"t u i u u u y r t t t t r r u s y i p u u p i y y i i u i i y e t p y w u p u u u y p i q w i p e y s p e t p t 0 r i r 9 r i r i t r y u t ",
"r u i i i p y w u u y t r r u a p p i u i a i r y i p u u i y e y a y w u p u u u y p i q w i p e t a p r u s i q i p t r u u t i y t i i u ",
"t y i i a a y q r t t r r t u p a a i u p a u w u p p u y u t e u a y w u i y i y t p p w e i i r r i i e y s i q d p r p p e r u t t u i y ",
"y u u u p a u w 9 q q q e y p p i p p i p p u e y p p u t y t e u p t e u i y i t r p p e r i u y r u u w r i y 9 d y q d i 8 w u r r y y r ",
"y u y t y i y e 9 w w q e u p i r i a p u i u t y p p u t t t r t u r e i u t i t r i p r t p u u e y u e t p u 8 p r q d i 7 w p y r t t e ",
"r y u t t y t e t u y e t p p t e y i i u i u r r i p y r t y y e r w r p u r i y r u i r t p u u w t i t y a p 8 y t r s i q y s u t y y r ",
"9 r p i y r e q i a p t y a p e y t t t i a t 9 e u i y e r y u 9 q q r a u e u u r y u e t a i i w t i t e t e 9 w y i i u y p a y e r y y ",
"5 e a a u r q 9 y p i r t s a r p t q e a d r 4 w y i t e r u i 7 9 0 t s u e u i r t y e y a p a e t u w 8 8 5 8 8 t p t t p a u e q w r y ",
"t p u y i t e u u s y 0 y s u e i u r w e e 9 3 5 9 e r t y r 0 y p a u r y u y u t q 0 q r p d i r 7 0 s d y y p p i u u u u u i p i 8 i t ",
"r p i u p u t p y a u w t i t q i y w 9 w i s a u i y e e t y t u p p u r e t i i t w 0 q w e r t t q e a p t i p p i u u u u y t y y 6 i r ",
"r p p i s p y a t i u r e t r 0 a i r 0 w u d g f a r 8 6 q y u p i i p r 9 w p i t q q e r w 0 e y y u a y t a p p i i u y y y y u u 8 p t ",
"r p p i s p y p r t y r 0 e t w y i i y r y u y a u w 6 6 w u a a u u p r 7 0 a i r q w u p i t e u i p s y r a p i i i u y t t i p p 0 a t ",
"r p i u a u r u t w r e 8 e p y r u p i i p i u i i y r r i s s a y u p t 7 0 p p t q e i s s p y i u i d i r i i i i i u y t r y u i 9 p r ",
"t p u t i t e y u 9 e t 9 r d u a s p u u p p i y p p p p a a i p u u p y q w u p y e e y p a i i p t u d p r u i i i i u t r e y u i 9 a y ",
"t p y r y t r i p 8 r p w u f r i u r w r i i y r y i u u i i t i i i i u y t r u y t y u i i u p p y y a u e u i i i i u t e w i p i 8 i e ",
"t i t e y y t s a 8 t d t i d 0 3 4 4 7 e a s i e t y t y p a i u i i u i p u w r t u p a a p i i a u y i t e p i i i i u t e w i u r 2 q 5 ",
"y p r 0 y p u i p e r u t y p i u u y r t i i y i r y u t u s i p p i y r r u p 9 r i i i p a p a i i i y r t i y s s p a y 0 9 u u u u u t ",
"w u r q y i t r y q t p y y i y u u y r t i i y p t u i r t p u i y t t y i i i e y i i i p p i a i u i y r t u y p y t i y e y u t e t p d ",
"0 y t r p i e e u w t p y y p i u i u t y i i y i y p p r t p i y r e t p a a i u i i y u p p y p i u i y e r u p p y u p e 9 t d u e r p d ",
"e i u u s p r t y q w t w r a s u i u y u p i t y t i p r t s a r r t u p p p i p p u t u a p y p u u i y e e t r t y a f e 7 w a u r r u p ",
"y a i u s i t p 9 6 0 r q w u i y i i y u i u r y r u u w e i y w y p p u y u p p i y r y a a u i u u u t w w r 9 q q y p e 8 e q w t y u i ",
"u p u y i t r a 7 7 t s i y u y y u u y u i y w i r t t 0 w r q w u s a y r y p y u y r y p p i i u u u t w q e t u w 9 q 9 7 0 e y p p u y ",
"y i y y i r w p r e a g p u p i t y u y u u r 0 p e e t e y u e r u p p y t u p r y u t t u i u u y u u t q 0 w p g i 9 0 w q q s s s p y r ",
"t i u i p r q i p t i i w q u p r y u y u u r 0 p e e y i d g p t y u u u u i p e u i y r t y y u y u u t q 0 q w d a e u g d p s i y t y u ",
"p y u p y q q y y i i u t r t y r t u u t w 0 9 p r q r i p i p 9 r i u t y u i u t f e w d r y r r i s t 6 5 q i i i i i p i i u u y y y u ",
"i u i i y e e y w t u i u t t t r u p a p i i i u e q r i p i i e t u i u t y u t e s r e p e u i t t p i w q r u u u u i p i i s a i y t e ",
"y i p u t y u y 9 w y p p u t r r t u i i p a s t q 0 t p p u u i t t p i r r u e q p u r t w p s r q t p u t y y t t y i i i u a p u t w 0 ",
"t p p t t p a y q e y i p i y t t y u y t t y i e 0 0 t p p u t a t r i p r r u w q y i t q w s a r 0 w y y y u t r e t u i i u u u y t t r ",
"t i p t y s s u y y y u u i u u p p p i y y u i r 0 q y a p y t a t e u u t t i w e r i t 9 r a i t e w e r y i t e w r u i u y i i i p p a ",
"y u u y u a a u a i y t y u i i u i i i u u i p t w q y a p y r u y t r r r y u e y w y e 9 u p u i u t r r u p y e w e u p u r i i i i i p ",
"i t r u p i i i a i t t y u i i t y u u y y u i u e w y p i y t t a p w 0 e y r r a w e w 0 a y y i i u y u i p u r w r u p y e u u y y y y ",
"p r e i a u y p i y r r y i i u u i p p i y y u p t e y p i y t t d s q 7 w t w t f w q q q d t r y u u i p p u i t w r u p y e p p i i i i ",
"i y y i i u i s p y w w y a a u e a i r u u r w i u u u y w 9 8 u p i i s t 9 w u y r w q e u s q t p a i y u p i p p u y u y r p i u y u u ",
"y t t u i y y u i t e r y i i i w p i r u i r e i e 9 0 e t t t u i y u a t 0 e a i y y u i u y e y p p u y u p u p a a a a i r p i u y y u ",
"r e t p a i u i u e w y i y y p q p i r i p t r i e 9 q u d d a u i t y p t q r a i u p d a t 9 t u p i y t u i i p p i p a i t p i u y t y ",
"9 0 e i a i u u u 0 8 t a i y i 0 i i r i a y t e r t i d g a t u i r t a u w y y y u a s i w 7 u i i u t t y i a p y e r u y r p i u y t t ",
"9 9 w y u t e r u 9 5 e a s u y q i u r i a u y 6 w i p p p t q i i r t s i e y e t i p i t e q p i i y t t y i p i y r t y r 9 i i i y r e ",
"i y y i i t r t y q 7 0 u s i e w p u e u a i i 6 r p u y i i t i u e t s i e r r y i p u y t t p i u y y y y u y u i p a a e 6 u i p u r q ",
"d a i p i y u p t y e 9 w i u q r a u w y p i p w u p y y a a y y y w r s i q q y y u i p i y r i u u y u u u y u u u i s s y 9 t i a i e 9 ",
"i t r r t t i s r a i 9 7 r y q y s u q t i i p e u i t y a y 9 t t q r a u 9 9 u y t u a p t 0 u u y u u u u y a i e w y a a y r i a i e 8 ",
"y i e q y u u d s r p y w 9 3 q u u t e r i a p i u r 9 8 q e e r 0 7 8 w t y t i i y r y i y w p i t e t p i y p u y u p a i t r y p d u 9 ",
"y u w 0 y u y a a r p u r w 7 t u p u e 9 9 q q t i p u t r q 8 q w e w w w w e i u t t i a y 9 a p u t y i u e p y r t i p u r y y i i r 8 ",
"y y 0 0 y i y i p e p i u y q p y p a r 7 5 5 6 r i s s a i r 9 8 e i i r w w t y r w e i a r 6 q w w w t i i r p t e r u p u r t y p a u w ",
"u y 0 0 i p t y i w i p p i e a t p a y e q 0 8 t u i u u p p i 8 r a s i y u a y t r e y i t 0 0 q w e y p u e p y e r u p u r 0 e i a p t ",
"u u w w p a y y p w i i p i w i u i i i p p y q y u y r t p s a e t i a p p a s i a p y r u p p s s a i p i r 9 i y r t u i u t w e r e w 0 ",
"u u e e a p t y p w u i i i 0 y p p i i a d u q y i i y y i u y u u y u i i u u y p i r 0 e i s s s a i p p t 0 y y u u u u y y s a t 9 7 9 ",
"t u r r p i r y i q y i p i 0 t i p i i p a y w y i i y y u u t y y u i i i u y e y y w 0 w y u t y t t u a i r w y p p y r t y g f p r e u ",
"e u t r i y e t i q y u p i q t t i p i u i u t u u y e r i a a w t i a a p p p y u u t t u i u i i u y u p u e 9 t a p t w e y t p a p s g ",
"y u w t d e 8 a u t r i p y q 8 t i p y t i i y q i p r w u s a e y s r y p e p u t u i t i s u y i i y u a a y 5 a u r d y 9 i u a p u u a ",
"0 w 9 e a r 0 s r w w t u y t t e u p u u p i t q y u e e i i r q t p e t p e p r w y u t u a y y i u r t i i t 6 u u y s i r a y i i t t i ",
"0 q 9 w u r w a e q q e r r u a w t i i p a i t r u u t y p u q q r i e y a r p t w y i y i s i i i t e e y y r q t i p p i i a t y y r r t ",
"i u e w r r t p t r t t e w t a r t y u p p i u e y u t r y y e r y a r u s r a i e r u r t a p a i t e e r t r u t p s u t i u r t t r r r ",
"f a y w 0 e i i t y p p y e r p u t r y i p p p 8 w r q 8 9 w t y u a e u s e u i q w r q w u u s i t r r t t y p t u a y r y y t t t t r w ",
"s u y w 7 r a y e t p s i t y p p t e t u i i p 9 e y e 8 8 e p t y i q t p 0 r p q e y e e u p a u t y y y y i i t e y u r t p y r r y r q ",
"u t i r 8 y s w r t u a i y y p a t e y p i u i t u a p t e y a r t y 0 t p 0 e r 8 w a u t u i i r e u i u u p i i w e p r q d y e r y r 0 ",
"y y s i 0 u a 7 u y u i u t t u p t r i s i y t u i a a i t t y r r y q y s w t 4 < 8 i y w e w y w e u p u u a a f e q s e 7 s t e e t r 9 ",
"y y i u r 0 q t a r 0 y d y w a s u t p s p r 0 t e i s t e u i u 0 u t w p u y i r q u d r 7 q u 5 e i u i y s p u i e t u q s p 8 1 3 q r ",
"r y p i w 8 q y i r 0 e i r q y p t r u a u w 9 r w i s t r i i i q i t e p u y i y e u s r 9 r a 7 r u t u t p i u i e y i q a p w 7 8 0 0 ",
"w y a p q 6 0 i i t w q e t r e p y t i a u e q e 0 t p r r i i i 0 u t q y r t y y e r i e 9 t s 9 r r q r w y t t i e y i 0 y q 9 8 8 7 4 ",
"t i a a r 0 e p i y t w 0 t u q a u y p a i r e w 9 r i r r i p p q i y q t e t t u r w r w q y s 0 r w 8 r e t e t i e u p 0 r e e r u y r ",
"u y y u t e e y e w e 0 5 w t 6 t e w t y e q 0 q 7 q t w e u u i 9 u t 0 w 0 r q t q 8 0 q 0 r i 0 e 8 6 r e e q e y q y p 8 0 0 9 0 t u y ",
"9 7 6 8 8 6 5 6 7 3 7 7 , 5 0 < 8 5 5 8 8 6 4 4 4 < 3 7 5 6 0 9 0 1 9 9 3 3 2 8 2 7 3 > 2 5 4 5 9 3 7 1 > 8 7 5 3 6 9 3 8 w 1 2 3 < , 4 7 6 "
};
