/* XPM */
static char *tRitD__2___1_1671737268[] = {
/* columns rows colors chars-per-pixel */
"50 50 237 2 ",
"   c #414F22",
".  c #455E20",
"X  c #52592E",
"o  c #545C33",
"O  c #5B5936",
"+  c #665D3A",
"@  c #745F3E",
"#  c #58672A",
"$  c #4E6430",
"%  c #5D6231",
"&  c #5B6C34",
"*  c #5E6B39",
"=  c #576435",
"-  c #5B7138",
";  c #57722C",
":  c #60662F",
">  c #656A2F",
",  c #63762C",
"<  c #636635",
"1  c #646C34",
"2  c #686E37",
"3  c #6B653D",
"4  c #656E3B",
"5  c #6B6C3B",
"6  c #65643A",
"7  c #736C3A",
"8  c #637335",
"9  c #63733B",
"0  c #6C733C",
"q  c #6A7D3B",
"w  c #697935",
"e  c #727B34",
"r  c #74733D",
"t  c #737B3C",
"y  c #7A7C3E",
"u  c #7A723F",
"i  c #715C49",
"p  c #6C6D42",
"a  c #686B43",
"s  c #736C44",
"d  c #7E6D45",
"f  c #746C4C",
"g  c #7C6C4B",
"h  c #786545",
"j  c #657643",
"k  c #6C7443",
"l  c #6C7B43",
"z  c #6C7A49",
"x  c #6E764A",
"c  c #747444",
"v  c #7A7444",
"b  c #747B44",
"n  c #7C7B44",
"m  c #75724A",
"M  c #7B744B",
"N  c #757B4B",
"B  c #7C7B4B",
"V  c #7E6A52",
"C  c #7B7352",
"Z  c #757C51",
"A  c #7C7C52",
"S  c #777252",
"D  c #687B50",
"F  c #826D4D",
"G  c #876A46",
"H  c #837C46",
"J  c #84734C",
"K  c #8A754D",
"L  c #837B4C",
"P  c #897D4D",
"I  c #847445",
"U  c #927C4F",
"Y  c #856A52",
"T  c #847453",
"R  c #8A7454",
"E  c #847C54",
"W  c #8B7B54",
"Q  c #857459",
"!  c #8B745A",
"~  c #857C5A",
"^  c #8B7C5A",
"/  c #927C56",
"(  c #93755B",
")  c #98775C",
"_  c #937C5B",
"`  c #997D5E",
"'  c #9A7D52",
"]  c #8E7661",
"[  c #8D7C62",
"{  c #937D62",
"}  c #9B7D62",
"|  c #977A67",
" . c #A07F6A",
".. c #6B8335",
"X. c #7A823D",
"o. c #7B8A3C",
"O. c #748637",
"+. c #7E923C",
"@. c #6D8241",
"#. c #6E824B",
"$. c #738345",
"%. c #7C8345",
"&. c #7D8A43",
"*. c #73824A",
"=. c #7B834C",
"-. c #78894D",
";. c #7D9449",
":. c #7C8453",
">. c #7D8A53",
",. c #7A8357",
"<. c #7A9158",
"1. c #80813E",
"2. c #838344",
"3. c #83844C",
"4. c #8A834B",
"5. c #848C4C",
"6. c #8A8A4C",
"7. c #898645",
"8. c #938D4C",
"9. c #8E944C",
"0. c #879348",
"q. c #94954D",
"w. c #848453",
"e. c #8C8454",
"r. c #848B53",
"t. c #8C8A53",
"y. c #85835A",
"u. c #8C835B",
"i. c #858B5C",
"p. c #8C8B5B",
"a. c #928454",
"s. c #938C54",
"d. c #9A8C55",
"f. c #93845C",
"g. c #9A845D",
"h. c #948B5B",
"j. c #9B8C5C",
"k. c #889358",
"l. c #919154",
"z. c #9B9356",
"x. c #959A55",
"c. c #94925B",
"v. c #9C935C",
"b. c #9C9B5D",
"n. c #979C58",
"m. c #A38B5A",
"M. c #A3935D",
"N. c #A49A5D",
"B. c #AA9D5B",
"V. c #89A145",
"C. c #868761",
"Z. c #8D8462",
"A. c #8D8A60",
"S. c #948463",
"D. c #9B8464",
"F. c #958B62",
"G. c #9C8B64",
"H. c #968468",
"J. c #9D856A",
"K. c #968C69",
"L. c #9D8B6A",
"P. c #8F9166",
"I. c #959263",
"U. c #9C9363",
"Y. c #9D9A64",
"T. c #9C936A",
"R. c #959669",
"E. c #9F8F71",
"W. c #9D8470",
"Q. c #A18665",
"!. c #A28C64",
"~. c #A98C64",
"^. c #A2856B",
"/. c #A38C6C",
"(. c #AA8D6C",
"). c #A39364",
"_. c #AA9365",
"`. c #A59964",
"'. c #AA9A65",
"]. c #A4936B",
"[. c #AB946C",
"{. c #A49B6C",
"}. c #AC9C6C",
"|. c #B3956C",
" X c #B19A6D",
".X c #B99D6E",
"XX c #B29566",
"oX c #A58C73",
"OX c #AA8D73",
"+X c #A68F79",
"@X c #A38475",
"#X c #A49373",
"$X c #AC9474",
"%X c #A49B74",
"&X c #AD9B73",
"*X c #AE947A",
"=X c #AC9B7B",
"-X c #A59379",
";X c #B29574",
":X c #B39B74",
">X c #B99D74",
",X c #B3967B",
"<X c #B49C7B",
"1X c #BA9D7C",
"2X c #B89775",
"3X c #B08968",
"4X c #96A464",
"5X c #A5A26B",
"6X c #ACA16C",
"7X c #A8A064",
"8X c #B5A46E",
"9X c #B4A274",
"0X c #BAA176",
"qX c #B4A27B",
"wX c #BCA37C",
"eX c #BCAA7B",
"rX c #BEA976",
"tX c #A5A275",
"yX c #C39977",
"uX c #C2A27B",
"iX c #C2A97F",
"pX c #B59A82",
"aX c #BA9D82",
"sX c #B59A84",
"dX c #BDA383",
"fX c #BFA489",
"gX c #B8A684",
"hX c #C29F80",
"jX c #C3A383",
"kX c #C3A68B",
"lX c #C8A78A",
"zX c #CDAC8D",
"xX c #C8A985",
"cX c #D0AC8E",
"vX c #C8B28E",
"bX c #CAAC96",
"nX c #D5B6A1",
/* pixels */
"oXoXg.[.h.%.n.O.w e +.% w n.O.%.4.e 7 r 0 B oX[ R L ( G.f.p.=.e.W K 3 l b s.~.3 G %.t._._.].4.7 n & ",
"s oXD.W.T.c.5.;.r.0 t t =.E c L 2., > w k p.B ~ _ F ^ F m [.G.g 5 s B $.r / ^ o I 7.t.a.g.` ! y 2.E ",
"[.Q.[.^ u.T.u.L >...4 v.f.L w.t e 1.8.w c y.p.<XT.u.h.w.w.(.#X-.l n.f.L r.d X 9 & =.G.K _.|.!.6.> 2 ",
"} C ^ [.6XG.#XN =.-.0.j.n N D.'.s.b.U.7 %.F.gX;XS.f T &X=XpX/.tX5Xb u.A :.w.=.c.3.l * h.|.wX;Xg.7.q ",
"R K _ !.F.^.#XN e.s.j.:XI.].*XF.U.d.3.2.j.t.e.T f.w.t.f.G.sX} ^.Z.N J.A r.f.S.#X].A.Z L./._.S.D.!.& ",
"T.T W ( N + o 9 c.j.L ).<X<X*X[.&XY.h.4.%.s.6.P I f.v n !.<XS.f.T u._ ~.P.Z k R $X].H.^.OX[.J ( !.L ",
"y.f.t.A w.q $ t.N.s.Y.G.H.J.oX1XqXe.b.`.L _.).`.e.!.n %.&XoXS.,X(.D.` [.u.T.5X&X]./.-XoX} /.Q.g.f._.",
"~ h G.{.U.h.4 t.wX<XdX^ ~ $Xg G.aXw.p.a.!.D.$X:X Xs.B G.].f.u.^ ).[.] D.[.oX1X[.].+X! { ! Y D.=X6.N ",
"u.s.G.].aXE r.*XkXkXaXpXI.f.A G.pX{.h./.K.S.dX9X XM.X.!.f.Y /.Y.u.U.S.G.|.$X$Xd.c.S.S.J./.S.e.`.W ^ ",
"u.5 y f.=XK.T.<XjX,XvX%Xy.c c.T.! K.=XT.f.$XpX+XG.j.0X[.(.} D.9Xg.4.h.f.f.f.s.8XeXe.{.M.t.v.h.h.d.~.",
"f.L `.1X*XJ.J.oXZ.[ W.C A -.w.S.!.T } S.Z./.] @X/.f.,X(.R g / aX'.h.,X;Xn.x.x.8X_.).}.d.5.q.M.D./.F ",
"_ G.,X/.H.J.W.pXE.m = a w.t.U.e.^ c._ pX{.@X,X#XF.f.f.e.o.7 ).[.G.(.}.:X5Xz.iXN.4.2XwX'.z.).v.d.P e.",
"g.D./.! S H.| _ ].y.9 -.M T R ^ _ Q.` pXOX*X,XD.h.c W `.x.h.5X0X0X0X:X:X0X5X`.N.z.4.f.8..XhX8.O.s. X",
"N.U.<XT x J.L.E Q w.* #.u.i.r.m Z B T pX^.oX*Xh.- c f.}.uX8Xh.&X X,X1XaXwXbXdXa.z.n q.4.(.OXb w s.).",
"}.`.s.5.=.W D.[.F.J L H.=XT.F.p.*.4 ^ ;X<XG.j.b.Y.f.n !.jX:Xe.T._.^.;XwXj.wX1XeXXX8.P 7.e.^.q.0.h.].",
"}.h.6.t.2.6.!.j.g.e.E #XfX1X[.>.=.B f.e.j.B %.}.a.u.t.m.4.a.xXlX^. .,X[.].dX,X2Xd.8.m.H M.s.'.[.L u ",
").h.).e.5.1.6.u < y.f.$X$XL.E.f.S.:X_.t O.3.L 4.M :.=.- ; L yX:X[.! J.S.:X1X^ u.Y.M.XXm.d.M.d.L H M ",
"_.j.e.n u H t r &.s.^.f p H.S.u.:.H.$Xt.%.d.s.4.p.].c.l j c a.T B l T wX>X#Xy.A h.M.!.2X>XiX_.v.P f.",
"|.j.p < 0 $ % B a.j.#X].S.^ d.6X:X^ /.I.$.3.g.[.s.h.f.5.l.s.@.X.+ 4.;XxXuXwXI.,.,.Y.!.!.:XuX1X;X).f.",
":XU.e.p & 1 r 4.I f.'.z.7X9.B.xX XW u.3.5.3.a.M ! S.2 2 k.N N r.B &XwX1X].qXR.k.:.p.R.e. XwX1X(.!.f.",
"wXI.y.m 9 x G u h.#X2XN.n.7X8X8.g.]._.v.0 % 3 u P -.5 e.b.$.d.2.Z.S.L.} ` 1X0XT.F.I.<.:.].,X/.[.jX2X",
"<Xi.#.B 4 a o   ^ }.:X:Xn.].iX9.G.| #X6.5.q , t 0.8 W v s.v.4.v.<XL._ } (.aX1XoXD.S.*.z L.f._.1XoX;X",
"K.%XC.* - v.X.>.Y.&X:X9X6X6Xv.M._.M F.I.9.;., , t , # o.n.`.2.m.^.! ! yXlXOX*X,X#X&XC.z A.E.qX[.D.$X",
"S.P.i.<.>.d.s.U.Y.;X1XkXfXnX`.g.[.5XU.u.r.;.t w e +...b v.B.o.j.f 5.3.*XaXsXOX;X$XJ.wX=XP.-X%XD.].$X",
"!.%Xp.#X&X:X}.'.(.OXhX/.}.dX0XrXU.L.(.K.n k.b t o.n 4Xk.a.4.7X%.8 B -.R.E.H./.D.<Xf.! (.gX#X_._ $X].",
"<X=XR.qXfX}.9XD.^.@XuXg.9X2XaX}.c g *XF.j r.q 8 e $ k.0.e M e.9 0 % * e.] ( /.f.!.(.f.} $XoXF s G.wX",
"gX=X{.&X*Xh.dXoX} *X(./.zX*X~ f.&.o o 9 t.>.@.3.v.u.e.O.o.P v b c < . o W Q.OXi.y.g.g._ $X$X).=.e..X",
"%X).;XF.L.<X} [.w.V G.;X}.Q.y.L t.$ b t.j.f.`.v.L P B v e.4.> w % y.O.r./.-X$XG.s K D.D.<X].j.(.[.P ",
"#X{.#X'.T.G.j.f.r.p ;XuXuX=XC.*.b l `.N.l.L _.&X*.L t.t t e y 7 5 k n T oX*X!.&Xv.e.f.{ $XqX_.1XwX&X",
"pX#X}.gX[.P t.5 B }.xXwX9XgX{.A.Y.$XwX:XT.`.).$X&X].*Xl.y e > w 4 c _ u.s oXh._ ( W ` $X/.:X!.L <XqX",
"].].0XL.u.a.4.v T.z.d.B.U.:X/.| oXbXdXkXjX{ ] #X*X*XF.m.z.v.7.w b A ^.;X[.(.!.D./.v R Q.D.D.h.8 =X&X",
"vX[.'.G.y M.d.B G.X.q.d.v.D.J.,XoXH.pXdXpXA.F.J.oX,X[.Y.t.v.2 1 y.w.y.Q ( C D.^.#X/ / / f.f.{.r.[.!.",
":X}.[.`.m.[.}.'.9X[.z.[.M.t.{ J.-XE @XfX%XA.G.e.T 1XwXI.t.y 8.t.I.A.K.S.F W ` T R ( D._ !.j.g.s.~.!.",
"!..X}.e.g.M.M.[.}.M.M.xX).4.E D.G.c 6 f ~ N A :.G.dXf.5.}.3.e.h.L.sX&XU.W R ` U.^ L g.D.Q.T J p J g.",
"C 8XeX3.P h.v.z.M.v.d.!.L `.p.S I.j j N w.=.r.U.OX=Xk.h.).L w.dX}.{ S.C f.w.h A p.$.N S.m.^ e.5 L `.",
"l u.F.h.I j.0.G.].`.e.6.a.L.y.B 5 - z B e.I.e./.! L.U.G.s.g.(.^.^.S.F.m ! I.w.g.|.E 3.K g.y.4.b K _ ",
">.N G.9X9XU.u.u.h.W s.].<Xu.+ N L Z.:.p.g f.p.! f.D.%XS.[._ Y } ) (.^ t.j.:X%X*X].M G u _ b O k e.W ",
"=Xf.m.g.Q.f.W [.}.).s.$X#Xv.3.y.G.oXpXP.:.T ! F.h.R S.u.Y T f ) Y D.f.< n g.aX$XT.-.9 v 3 k 9 e.4.v ",
"&XD.g.!.S.g.| ( $XwXh.|.}.;X&XD.OXkXaX].U.N Z } { ;X%Xu.A m e.C (.D.W h. X;X*X( =X5X-.`.3.l b e.L L ",
"f.S.j.<X'.[.^.F / &X}.0XaXpX<XQ f S.oX[.r.-.=.c T lXqXw.w.s ^ N ! H.} $X*X#XJ.^ { E N ^ w.%.H _.m.h ",
"]. X:XD.1X;Xa.: h.}.jX}.;XOX>XG.A ^ ^.K.p.b $ B qXbXG.0 6 y.L.%XZ.^ } OX{ S L./.~ B L.~ N A G 6 6 + ",
" X$XG.h.Q.D.s.V.t.`.f.`.!. .,X/.!.D.S.~ ~ ,.>.i.C.kX$Xi.N u.[ | u.p.,X,Xh x L./.Q.J.) p.>.R.= 4 1 b ",
"[._ ^.#Xf.W f.8XiX:Xe.dXOX^.g S.0X0XqXT.r.F.G.f.:.C.H.y.=.a p C y./.OX[ ,.~ J.3X} ! |.j.C.T }.Y.l k ",
"/.S.oXT.p.v f.#XuX(.:XcX2Xa.*.^ zX:X/.wXwXoX]./.1XqX#XA N N B N y.T h O Z f } Q.{ { D.K.i.k ! &Xw.l ",
"W /.,XQ.N 0 4.n [.t H ~.f.< 5 &X1X/.` ;XaX,X*X*XZ.{ g.Q.#X[.`.f.A a a A y.* O ! _ /.(.oX&X{.f.$XK.N ",
"]./.sX/.3.Y.u.t.B ; * H %.$.v T.G.J. .2X,XoXOX$X:XS._ { $X;XG.[.J.m z A.:X!.a h T f.2X/.:X[.&X(.T.u.",
"_.oX/.T.7XU.T Z -.l r.c.l t.n Z.J._ 3XbXsXpX/./ !./.!.` D.<X1X_.c e.$X!.!.>Xp.m g E L.f.!././.#X+XoX",
"D.$X>Xv t.a.B T.U.t.&.r.*.t.8.pXD./ L #X-X( S./.r.s K f.S././.:Xp.l :X[.g._ ~ P p z B e./.f.L.[ ! oX",
"$X].h.%.L 4.t.c.G.s 1 b.l.e.7.!.{ n c.#.%X! D.OXD.e.t.W D.[.Q.^ ).Y.e.' g.B l B h.>.>.f.g.!.].L.{ ! ",
"/.g.e 5.a.d.[.e._ B v L d.6X6.2.u.& p 0 6 f S.<X(.&XD.R J ` / G.f.R s 4 M.h.c N `.:XgX^.f.[.9X;XJ.R "
};
