/* XPM */
static char *cartoon_fire_golem_game_character_white_72398162_removebg_preview_copy1671813359[] = {
/* columns rows colors chars-per-pixel */
"80 80 253 2 ",
"   c None",
".  c #2E0505",
"X  c #380907",
"o  c #3C140D",
"O  c #381714",
"+  c #3D2424",
"@  c #3E231C",
"#  c #480906",
"$  c #580D07",
"%  c #44120D",
"&  c #4B140D",
"*  c #4D180F",
"=  c #56170C",
"-  c #451512",
";  c #451A15",
":  c #4B1B14",
">  c #4A1C1A",
",  c #491916",
"<  c #521C14",
"1  c #561C14",
"2  c #4B0E11",
"3  c #650D06",
"4  c #68170B",
"5  c #781708",
"6  c #691D14",
"7  c #781C14",
"8  c #740F05",
"9  c #462116",
"0  c #4C231C",
"q  c #492419",
"w  c #53231B",
"e  c #5C241B",
"r  c #5D2A1B",
"t  c #562517",
"y  c #682719",
"u  c #792717",
"i  c #68351C",
"p  c #78361A",
"a  c #76220E",
"s  c #4A1E20",
"d  c #452222",
"f  c #4B2322",
"g  c #4A2A28",
"h  c #542B23",
"j  c #5B2B23",
"k  c #552928",
"l  c #5B332B",
"z  c #583329",
"x  c #4A3332",
"c  c #583835",
"v  c #4E2F2F",
"b  c #632D23",
"n  c #682D24",
"m  c #653223",
"M  c #63342A",
"N  c #6A3727",
"B  c #733423",
"V  c #783926",
"C  c #663E35",
"Z  c #783A2E",
"A  c #5B4239",
"S  c #5B412E",
"D  c #764426",
"F  c #694438",
"G  c #774937",
"H  c #7B533C",
"J  c #6B432B",
"K  c #7B522E",
"L  c #5F3E41",
"P  c #5A4C4C",
"I  c #654A45",
"U  c #784D42",
"Y  c #785547",
"T  c #685957",
"R  c #765C53",
"E  c #69524B",
"W  c #7C6358",
"Q  c #6F605B",
"!  c #726C6F",
"~  c #5B6169",
"^  c #871B09",
"/  c #811F12",
"(  c #872A14",
")  c #9B2914",
"_  c #88381A",
"`  c #973818",
"'  c #8D270D",
"]  c #A63A0D",
"[  c #A63617",
"{  c #B73916",
"}  c #A72E0F",
"|  c #863926",
" . c #963C25",
".. c #852C24",
"X. c #C93A16",
"o. c #984319",
"O. c #A84618",
"+. c #B54917",
"@. c #BA5719",
"#. c #B2490F",
"$. c #BC611E",
"%. c #864627",
"&. c #98452A",
"*. c #8B5528",
"=. c #9B562A",
"-. c #864C36",
";. c #964C34",
":. c #89553A",
">. c #975838",
",. c #A54827",
"<. c #A4572A",
"1. c #B95525",
"2. c #A55835",
"3. c #B64F30",
"4. c #9D683B",
"5. c #9A6B32",
"6. c #A86735",
"7. c #B7683A",
"8. c #A97537",
"9. c #B67438",
"0. c #AF6B2B",
"q. c #C64A14",
"w. c #C65617",
"e. c #D34E14",
"r. c #E75519",
"t. c #EF5217",
"y. c #CF6A1E",
"u. c #EC691A",
"i. c #C75826",
"p. c #D95627",
"a. c #CF542F",
"s. c #E55723",
"d. c #C86627",
"f. c #D66729",
"g. c #C76836",
"h. c #D96639",
"j. c #CA7937",
"k. c #D8773A",
"l. c #D3782E",
"z. c #E86636",
"x. c #E8753A",
"c. c #E96F28",
"v. c #875945",
"b. c #8E5A4B",
"n. c #A85945",
"m. c #8B6247",
"M. c #966748",
"N. c #98764A",
"B. c #896759",
"V. c #956B55",
"C. c #977459",
"Z. c #A36646",
"A. c #B66A44",
"S. c #A9754A",
"D. c #B67845",
"F. c #A66955",
"G. c #A77556",
"H. c #B67C54",
"J. c #B06F50",
"K. c #977A68",
"L. c #8A7770",
"P. c #AA7E64",
"I. c #B67D60",
"U. c #C67945",
"Y. c #D77846",
"T. c #CC724C",
"R. c #E57B44",
"E. c #F07343",
"W. c #B88738",
"Q. c #C58538",
"!. c #D7853B",
"~. c #D69337",
"^. c #EB843A",
"/. c #F78938",
"(. c #F3943B",
"). c #EB8A28",
"_. c #F5A937",
"`. c #DCA03A",
"'. c #B78749",
"]. c #A88358",
"[. c #B88856",
"{. c #B18D50",
"}. c #9C836F",
"|. c #B68763",
" X c #B9966A",
".X c #A98871",
"XX c #C88847",
"oX c #D68849",
"OX c #C99847",
"+X c #D89549",
"@X c #C78B56",
"#X c #DB8A56",
"$X c #C89758",
"%X c #D89758",
"&X c #E88848",
"*X c #F58847",
"=X c #E9974B",
"-X c #F69948",
";X c #E98753",
":X c #EA9857",
">X c #F49955",
",X c #F08E53",
"<X c #D8A758",
"1X c #D9B457",
"2X c #D2AA52",
"3X c #F6A74C",
"4X c #E8A959",
"5X c #F7A957",
"6X c #E9B559",
"7X c #F7B659",
"8X c #F4B14A",
"9X c #CA9A64",
"0X c #CD9166",
"qX c #E49D65",
"wX c #CBA56A",
"eX c #D7A764",
"rX c #D6B26B",
"tX c #E7A766",
"yX c #E7B766",
"uX c #F7B965",
"iX c #EEAD6F",
"pX c #E9C459",
"aX c #F9C45B",
"sX c #F9CB4B",
"dX c #F8E952",
"fX c #DCC46B",
"gX c #EBC66A",
"hX c #F9C667",
"jX c #F9D667",
"kX c #F7CB77",
"lX c #E8D578",
"zX c #FAD679",
"xX c #EAC874",
"cX c #FBE766",
"vX c #FAE37C",
"bX c #697580",
"nX c #867F80",
"mX c #8C8789",
"MX c #B19788",
"NX c #BAA595",
"BX c #B3A5A1",
"VX c #C8A78A",
"CX c #E9B984",
"ZX c #C5B6B0",
"AX c #F9C987",
"SX c #F9D685",
"DX c #FADA98",
"FX c #EBC894",
"GX c #FBE697",
"HX c #FCE486",
"JX c #FBDCA4",
"KX c #FCEAAE",
"LX c #E0D8D5",
/* pixels */
"                                                                                                                                                                ",
"                                                                                                                                                                ",
"                                                                                                                                                                ",
"                                                                                                                                                                ",
"                                                                                                                                                                ",
"                                                                                                                                                                ",
"                                                          i.2.                                                                                                  ",
"                                                        q.` G                                                                                                   ",
"                                                    w.] u h c                                                                                                   ",
"                                                  ,._ j w h v                                                                                                   ",
"                                                  M 6 6 6 e f E                                                                                                 ",
"                                                  j 7 7 7 6 M B.  VXZXMXLXZX          Y.0XY.i.#X                                                                ",
"                                          q. .M j 6 6 7 7 u | Z.  LXLXBXLXMXMX.XB.A.S.9.iXCX&XY.T.                                                              ",
"                                        q.[ y 6 n 6 f f y V ;.>.U MXBXL.VX'. XV.V.S.[.eXCXFXCXg.A.                                                              ",
"                                        #.u h b b y f w k u ,.7.:.G.|.M.D.9.v.[.yXG.:.G.|. XDXqXT.K.                                                            ",
"                                      q.] h j b 1 y y > 1 (  .7.S.G.G.M.G S.[.eX X].XXrXwX XwX%Xi.:.                                                            ",
"                                      +. .n n n y y < , 1 (  .6.S.].|.V.Y F [.yX:.M.rXwXb.F N.:Xq._ F                                                           ",
"                                    Y +._ V y i D V m B _ 2.7.>.:.M.C.F H H S wXrXgX XZ.:.{.wX<Xw.o.c                                                           ",
"                      GXDX          U ] o.Z Z 4.@X<X4X7X4XhXeXS.'.@XH.:.4.].A H m.H {.D.'.9XM.:.$.o.z F     1.k                                                 ",
"                  KXGX    JX        A ] +.'.%X7XaX,X>XhX5X3Xl.XX%XxXyX2XwXN.N.G.:.:.@X%X[.V.F F $.o.v c     ` ; c R                                             ",
"                  KX              Q F o.w.yX7X>X7XuXpX7X^.e.l.yX$XeXeXJ.@Xn.H.U F [.uXS.G F :.9.@.p q h     _ ; f I                                             ",
"                  DX              T A ;.q.3XjXaXhXjX7X^.e.y.7XuXyXeX[.J.b.>.J.A.rXzXuX4X;XY.g.$.#.i ; q   f.p ; f A C.                                          ",
"                DXDXDX            T F -.#.^.jXcXjX5X3Xf.y.=X>X7XhX:XU.U.;X#X,XuXSXSX5X5XE.,Xf.#._ * % q   #X=.N j C G.B.                                        ",
"            JXDXJXGXDXDX            -.=.,.$.8X7X7X6Xl.y.oXY.*X5X>X7XkXkXkXiXuXkXuX,X5X5X,X&Xw.o.t * 9 9 2.2.:.>.>.>.-.b.m.                                      ",
"          DXCX        DXDX          >.2.Z.#.f.*XE.:Xq.l.XXE.E.7XhXcXjXzXjXhXjXzXaX3X7X7XhX!.#.p > ; ; r +.V 9 ; Z n f l G F.                                    ",
"          DXiX          SX          4.7.Z.%.` a.z.d.w.XXoX*X5XhXjXhX7X7XhXjXjXcXjXaXhX7XQ.O._ 0 > ; < o.| > ; r b , , f l >.G.                                  ",
"          GXSX        DXAX          S.1.=.G 1 &.a.{ d.$X%X7XhXuXuXaX,X*XuXHXzX7X8X7X=X$.O.p w > > w o.` w : 1 | r > w b Z n.J..X                                ",
"                  KXKXSXSX           X6.-.G w | 3.i.!.%XtXzXuXz.=X7X-X*X5XHXHXhX4Xj.@.o.i 0 , - t &.%.w < : : V  .&.&.y p l R J.L.                              ",
"              GXGXDXiX>X              M.-.G w p a.i.f.<XhXaX7X3XhXuXhXzXzXzX4XQ.@.o.p h ; , , y %.N w r < - - - < p y e > 0 I V.V.L.                            ",
"            SXkXkXAXAX                  H C n -.g.i.q.yXuX7XaXhXzXvXSX+Xf.@.#._ B l h 0 ; q l J z w q ; , , % : y 1 = 1 > B N I M.V.                            ",
"          kX5XuXuX                      G z M G ;.3.>.%XxXkXkX4X^.l.l.@._ B M z l M n 6 h F F I C z : - % : n p * * < - u y e f F F.                            ",
"          kX5XjX      KX                  v.l h e 3.:.G.C.].H.1.o.p G :.z z z m u y ) ) H Y H F M z 0 , 1 V B y 1 y < y a & 1 & z G.                            ",
"          hXhXvX    GXGX                  #XA.n m 7.Z.J.H G H m.l c Y m.J -.Z B 1 * 6 6 G F F M l l N Z B y = % ( p y & # % 1 < w M.CX                          ",
"          hXaXjXvXvXhXkX          nX XxXqXY.Y.a.g.;Xj.<XS.H H A F H M l h %.i w < 1 % & Z -.U |  .3.3.3.| = & % * : : - % t i & % N qX                          ",
"          uX3X8XhX7X7XhXkX      mX}.$X%Xh.a.a.p.h.:XY.tX$X:.m.:.H z g g n ,. .V y & 2 6 n.I.v.Z M b j b e e 1 6 u u - , > w y & - N %X                          ",
"          kX5X(././.7XhXhXzX    K.'.1X<X;X>XtX:X;XR.R.+XgX2X<XH.4.H G D B u  .y & & 2 | 0XP.W T E c v g f > < u { ) : ; > , ; , j C @X                          ",
"          FXkX3X/.3X3X3XhXaX3X}.S.OX6X2X+XY.R.:XtX>XR.k.yX$X'.eXD.j.7.D e ; 2 6 - % X Z 0X XMXL.Q I A v h q ; y 3.;.w ; - - , < N v.@X                          ",
"      B.|.eXzXhX_.-X/.-X7XaX(.[.OX2XOX9.0.l.a.x.,X:X&X=XXX<X$XyX6.9.U.%.w 2 2 u & # % Z P.VXNX.XB.F x x v d > 0 N n.&.y & - * : M Y                             ",
"      c 2.[.'.eXxXuX3Xx._.aX(.4XW.0.<.%.p D D p 7.oXtX  v.S.hXyX2.0.0.y 1 4 4 6 $ 2 X B F. X XP.Y A c I E x I F c n ) ' 4 = - - k -.                            ",
"    T z G.R v.$XFXyX7X8XaXjXkXyX4.D p i r 9 o o q J R     @XeXS.=Xk.%.* # # 4 # # # # 2 v.I.P.F.v.F I W R I E c k 7 ^ 4 1 * - - k 2.                            ",
"    L.W L.Y P.VXNX].=X-X7XkXgX+XD q @ @ @ + + P ~ ~ ~       %XV U.g.,.^ $ # # # X 3 $ $ B b.F.Z.:.v.B. XE P L k ( [ 7 * 4 < - - y h.                            ",
"    mXT P U @XK.Q }.yXiXyX4XQ.D @ g A T ~ ! bX              eX7.i.1.+.{ ^ # # 8 $ 3 $ $ Z -.;.-.;.:. X].R U Z  .3.) = 1 u < - :  .                              ",
"      mXmXQ b.}.T A |.+XQ.=.N @ q E                           :X1./ ' { } ^ 8 5 3 # # 3 ..n.;.-.v.-. X].M.J.U ,.a.y 1 6 _ , : _ i.T.                            ",
"          ! P I L.P Q D m 9 @ A T                               g.u a [ } ' ^ 5 8 # # 3 ..    F.F.b.S.wXS.U v.h.,.w 1 7 { ) [ p.-X+X                            ",
"              T ! ! ! q @ + E                                   oXA.n.` [ 4 8 3 8 3 5 /           Y.a.a.3.2.h.z.a...u ) X.s.p.z.5X                              ",
"                      x g                                       U.g.T.[ ] 8 3 8 5 ^ /  .          ;XR.E.E.z.s.t.s.e.q.X.X.s.s.,XuX                              ",
"                                                                  7.G y ` 4 3 5 ^ V ..2.            ;X;X,X*X*Xu.t.t.r.t.r.e.z.3X                                ",
"                                                                  n., 3 ' 4 X # 7 U F.n.                ,X,X,X*X*X*Xx.x.z.x.^.&XM.R C.                          ",
"                                                                7.( X $ ( ' # . d v B.2.                    iX>X,XR.p.z.&X&X&XY.M.:.'.%X                        ",
"                                                                [ a # $ ( ' 3 # O + + &.                    iX:Xz.p.R.&XR.Y.;X%X%X!.XX9X                        ",
"                                                              3.) ^ 3 $ * 4 7 4 # . . _ A.              I.rXqXh.a.p.z.z.k.R.&X!.j.S.L.                          ",
"                                                            | ' ^ ^ 3 X X % = 3 $ $ 4 _ =.N z         $X%XtXqXh.h.z.R.&X=X+Xj.m.R !       L.B.].].{.            ",
"                                                        l n 4 = 8 ^ 3 X o . X 3 p 6.OX2XOXW.K i       6X4X#X+XoXU.U.J.2.%.F I T !       G.m.:.{.{.4.rX          ",
"                                                        G 6 8 ( ] { [ ( 4 4 *.W.<XfXlXlXlXpX~.0.:.M     {.m.G Z N j < 2 f L ~ !       rX1X2XOXU.{.4.'.          ",
"                                                    c N 2.) 5 _ _  .i.a.l.2XfXrX{.{.N.:.:.Q._.W.5.p h   rXY c v f , s v c T !     gXgX4XoXXXG.H 5.OXZ.          ",
"                                                  F f < y a ) [ ,.d.j.j.6XrX{.S.5.=.o.<.Q.pX~.D :.0.D   @X4.v.F k f x c v k U eXpX+Xk.g.3.7.C.F F               ",
"                                                    u u ' ( _ &.j.Q.5.5.`.~.$.d.y.).).sXdXcX~.J J 5.0.5.XXZ.M.U c s , , s g C F.eX+XU.                          ",
"                                              C b.  =.` u t i _ W.lXlXQ.y.q.{ { q.)._.sXdXcX8X9.i K Q.4X%XoXD.v.I v s s s v c v.G.9X                            ",
"                                                A %.2.D ; ; e D W.2XcX~.q.} ' ] } 1.~.2XOX'.pX3X0.0.pXjX3X^.x.Z.v.L v d d d k c C G                             ",
"                                            -.  C w j O o X X r 5.D 5.).t.' t ) _ D :.G z m gXvXQ.OXcXdXpXpXf.g.v.U c x g d f g v k                             ",
"                                          c N :.m.f o X X . . o *.i p ).t.#._ O.p q q q t p fXwXD 5.dXdXcX4Xp.T.n.b.L x g d s s v M                             ",
"                                              G   j % o . . . . p *.W.`.u.e.#.y.d.i t t r =.gX5.y D `.).x.R.k.U.F.b.s s x d 2 , k                               ",
"                                                  F N M z M j j D W.pXW.p { e./.(.<.t p <.6XfXJ i *.d.    VXI.F.F.Z 2 , v 2 v L                                 ",
"                                                  v M -.>.M.      5.2XW.t ` r.s.(.^.@.f.(.jXlX{.W.K D       I.F.B.n # g , k                                     ",
"                                                      w e B C   % % 8.1XJ u { ^ @.^.c.u.(.7XW.J q 9 9           B.b w c k                                       ",
"                                                                o X V 1XN.i } 6 | s.u.x.8X8.9 @ 9 9 9 z                                                         ",
"                                                                G % q OX2XK i ( t ' r.x.5.t 9 9 9 q 9 t                                                         ",
"                                                                  G i D.lX].*.[ r t ` p.#.` y < q q q q                                                         ",
"                                                                        GXfX~.q.$.Q.<.q.c.).c.y.+._ i w                                                         ",
"                                                                          {.sX).r.e.d.` r._.sX_.u.u.A.                                                          ",
"                                                                          ].{.1XsX_.8.p =.1XjXsX).-X                                                            ",
"                                                                              4.1XcX5.i i J ].fXzX                                                              ",
"                                                                                       XN.G.                                                                    ",
"                                                                                                                                                                ",
"                                                                                                                                                                ",
"                                                                                                                                                                ",
"                                                                                                                                                                ",
"                                                                                                                                                                ",
"                                                                                                                                                                ",
"                                                                                                                                                                "
};
