/* XPM */
static char *_5880f2e90894f3b95df5a68d872e3879iyFmWCYFRUstsjp[] = {
/* columns rows colors chars-per-pixel */
"45 45 218 2 ",
"   c None",
".  c #050506",
"X  c #0C0605",
"o  c #0E0B0B",
"O  c #090707",
"+  c #160904",
"@  c #1D0C04",
"#  c #140C0A",
"$  c #141517",
"%  c #0E1115",
"&  c #220D05",
"*  c #2C0F08",
"=  c #330E05",
"-  c #2C1204",
";  c #2B1309",
":  c #241006",
">  c #331304",
",  c #3B1205",
"<  c #351907",
"1  c #3D1A05",
"2  c #3B1309",
"3  c #3B1D0A",
"4  c #34170A",
"5  c #291B17",
"6  c #361C13",
"7  c #392519",
"8  c #3B230F",
"9  c #1D1F21",
"0  c #1D242B",
"q  c #1B2025",
"w  c #242426",
"e  c #21262B",
"r  c #2D2C2C",
"t  c #2A2526",
"y  c #362C28",
"u  c #262D32",
"i  c #2B343B",
"p  c #2C3237",
"a  c #333435",
"s  c #383739",
"d  c #431305",
"f  c #4C1405",
"g  c #431D05",
"h  c #4B1C05",
"j  c #421C0B",
"k  c #4C1B0B",
"l  c #441609",
"z  c #531504",
"x  c #5B1704",
"c  c #531C05",
"v  c #5C1905",
"b  c #541B0A",
"n  c #5E1C09",
"m  c #401E13",
"M  c #611703",
"N  c #631904",
"B  c #691C06",
"V  c #641D09",
"C  c #6D1F09",
"Z  c #452107",
"A  c #4A2205",
"S  c #48230C",
"D  c #562906",
"F  c #5C2B06",
"G  c #55220C",
"H  c #5D210C",
"J  c #532A09",
"K  c #5B2C09",
"L  c #522505",
"P  c #442313",
"I  c #4A2517",
"U  c #5C2511",
"Y  c #522D13",
"T  c #562818",
"R  c #5D3415",
"E  c #64220D",
"W  c #6C220C",
"Q  c #632D0A",
"!  c #622D05",
"~  c #73250D",
"^  c #78280F",
"/  c #653107",
"(  c #6A3306",
")  c #633109",
"_  c #6B350B",
"`  c #6E3809",
"'  c #733A0A",
"]  c #763A08",
"[  c #642512",
"{  c #6C2A14",
"}  c #672A14",
"|  c #732C14",
" . c #7A2C12",
".. c #673314",
"X. c #6A3318",
"o. c #74321B",
"O. c #7C351A",
"+. c #783819",
"@. c #4B3429",
"#. c #593526",
"$. c #4A3C36",
"%. c #5C3F33",
"&. c #6C3E2C",
"*. c #653E2E",
"=. c #7B3920",
"-. c #7E440A",
";. c #4A403B",
":. c #5C4432",
">. c #79412D",
",. c #694D39",
"<. c #674837",
"1. c #784B38",
"2. c #78523E",
"3. c #2A3840",
"4. c #323B42",
"5. c #363F46",
"6. c #413E40",
"7. c #32424C",
"8. c #3C454C",
"9. c #3B4348",
"0. c #364A55",
"q. c #3D4B54",
"w. c #3A4E5A",
"e. c #3D515C",
"r. c #484748",
"t. c #544D4B",
"y. c #584A46",
"u. c #58514F",
"i. c #444D54",
"p. c #494E52",
"a. c #4C5155",
"s. c #43515A",
"d. c #48545B",
"f. c #545A5E",
"g. c #5C5959",
"h. c #515457",
"j. c #795942",
"k. c #665D5B",
"l. c #7D6046",
"z. c #4D5B64",
"x. c #485A65",
"c. c #535C62",
"v. c #575F65",
"b. c #5D6266",
"n. c #566269",
"m. c #5B646B",
"M. c #5C656C",
"N. c #596972",
"B. c #636669",
"V. c #62696D",
"C. c #666261",
"Z. c #646D73",
"A. c #6B7176",
"S. c #6B747B",
"D. c #6D787F",
"F. c #637179",
"G. c #727678",
"H. c #822F14",
"J. c #843216",
"K. c #833519",
"L. c #8A3619",
"P. c #8C3A1D",
"I. c #85391C",
"U. c #943D1E",
"Y. c #8B3D20",
"T. c #903E20",
"R. c #81420A",
"E. c #83422B",
"W. c #924123",
"Q. c #9C4423",
"!. c #95492C",
"~. c #874F39",
"^. c #9A5034",
"/. c #895038",
"(. c #A44424",
"). c #A44B2A",
"_. c #A94B2B",
"`. c #A14826",
"'. c #A7502F",
"]. c #A5583A",
"[. c #835B46",
"{. c #885E47",
"}. c #955D45",
"|. c #846249",
" X c #8B6249",
".X c #8E6B4D",
"XX c #95674C",
"oX c #9D6E52",
"OX c #9A7252",
"+X c #A96244",
"@X c #A27856",
"#X c #B36E52",
"$X c #B0855D",
"%X c #8A847F",
"&X c #6C7981",
"*X c #737C82",
"=X c #707F89",
"-X c #74828A",
";X c #7A848A",
":X c #7E888E",
">X c #7B8286",
",X c #7B8991",
"<X c #81888E",
"1X c #818C93",
"2X c #8B8E90",
"3X c #86939A",
"4X c #8A959C",
"5X c #8A959A",
"6X c #959699",
"7X c #908A84",
"8X c #8D9AA2",
"9X c #929EA4",
"0X c #9C9EA2",
"qX c #96A1A5",
"wX c #9BA3A6",
"eX c #9AA6A9",
"rX c #A5A7AB",
"tX c #AAACB1",
/* pixels */
"                    q               w           p 0                                       ",
"                    u 9.m.s.Z.:X<X;X;X1X,X:X>XZ.q.u                                       ",
"                    i 8.c.3XwXeXqXeXeXeX3X3X4Xc.8.                                        ",
"                      w Z.:XD.:X-X9X3X:XS.Z.D.s $                                         ",
"                      2X0XrX2Xn.x.n.z.z.S.6XtXrX6X                                        ",
"                    B.rXD.Z.G.<XM.e.d.V.F.N.n.D.rX                                        ",
"                    g.n.-X:XM.i.i.s.i.7.i.N.3XF.i.                                        ",
"                    s D.eXqX-Xd.D.S.n.4.n.3XwX;Xi 6                                       ",
"                j.~.@.c.qXeX8X;X9XeX8Xs.D.wX9XD.p k B E [ U T                             ",
"          [.XX^.o.B d a S.qX-XA.>X7X7X8.i.;XN.5.t f M x z N W O.X.                        ",
"      1.#X+XK.{ &.#.I 6 r 8.M.F.M.k.r.s s.i w 5 f f f z z z x n S                         ",
"      @.Q.T.^ ^.#X#X#X}.Y @ . $ r 8.0 % o @ = z M M M M N N z =                           ",
"        T o.o.Q.(.(._._.K.K : O $ 7.p ; * > z M ~ L.L.C x , & #                           ",
"          $ #.Q.(.(.(.(.Q.{ ) Y a $.P g j V C ~ T.Q.K.M z @ . .                           ",
"            @.'.(.T.T.Q.(.T.W #.p.r.A J Y.T.L.K.O.o.N N d & , =                           ",
"          5 o *._.T.Y.{ | W v I b.a.3 G ~ V [ [ E x M z l  .~ 2                           ",
"          [.m # ~.`.(.Q.o.| W [ h.Z.R h k } W k , f z k T.`.L.d                           ",
"        %.].K.d 5 >. .T.} u.k.#.$.F.:.' Z > > , z f = H { | E l                           ",
"        ~.J.~ M = #.E.n f k 6.v.n.V.y.Z 1 - - f x 2 = [ K.{  .b                           ",
"      <.!. .E n = 6 Y k 1 2 P ;X4X4Xu.D K I &.>.E.E.=.T [ { | b                           ",
"      1.K. .W H m 3 1 1 g A A g.1X9XG._ ' ..!._.(.(._.T.{ v z b             j.2.|.,.<.    ",
"        = l x f &.T > < < > > 7 s z.p.S / / +.(.(.(.L. .V z l           2. X          @.  ",
"            * R !.W.o.H S 3 3 - X + O J ] / X.(.Y.{ z x x k           l.@X                ",
"              /.`.(.T.P.P.+.) - + & O < ` -.} } k z x z m             OX,.                ",
"            /.).U.Y.U.J.^ H ` 4 > : . 1 ( F l z M x d *             ,.oX                  ",
"          ~.).(.Q.o.H  .J.} -.J A > X @ g 1 f x f f x , :           j.[.                  ",
"        1.^.J.J.U.Q.O.G x c Q h J 1 + - d - d f x M N x d           j.2.                  ",
"      <.].(.U. .C W J.P.O.| N h ` J & > 1 d x N N { N N x l         |.XX                  ",
"    :.+X_.(.(.(.U.^ B B ^ U.~ b ` ` - g n N E { P.Q. .N N M 2       ,.{.                  ",
"    }.'.(.(.(.(.Q.Q.P.K.J.J.B d 1 / 1 U ~ { | | K.J.~ N N N x ;        X                  ",
"  ..+.+.P.Q.(.(.Q.W.I.o.{ V n S J K - U | O.P.J. . .~ B N N M ,       oX                  ",
"8 ) ) ) ) ..+.K.K.K. .~ W ~ W ) ' F > | L.J.H.~ ~ C W | E c h , ;   :.|.                  ",
"    ; S D ( ( ! Q / F G c z c ' R.! > d x c c F Q _ _ X.' ! / 1 >   .X X                  ",
"      b.C.;.8 3 Z / F ' ( F ' R.] L - g / ` ` / ] ( D ! F g 4 :   <.OX                    ",
"      c.9X4XF.q.r w 5 Z g Z A L h > + & 1 < 8 7 7 y a r.B.9.y |.$X@X@.                    ",
"      0 i 8.i.0.0.w.0.7.q       # O . 7 @.d.0.w.w.s.M.V.v.;.oX|.[.                        ",
"                u 0.w.7.                @.*X-Xe.i r y y 5                                 ",
"                  F.&Xi                   d.9Xz.                                          ",
"                  4X,Xi                   p.9X&X0                                         ",
"                a.8X4X8.                  Z.eX,Xi                                         ",
"              f.D.,X4Xn.0                 ;XqX;Xs.u                                       ",
"        a.Z.f.f.S.M.4X=X3.              f.9XqXZ.N.8.p.A.9.                                ",
"  s b.r.G.V.i.A.<X9X3Xz.3.                *X6XeX1XG.b.G.V.p.h.r                           ",
"  h.s k.u.r g.C.a.&X5.                      a.;Xf.k.k.a r.t.$.u.                          ",
"      r.  t t.w i 3.                          4.i 9 $.                                    "
};
