/* XPM */
static char *p_removebg_preview__2___1_1671812037[] = {
/* columns rows colors chars-per-pixel */
"80 80 206 2 ",
"   c None",
".  c #7F330E",
"X  c #792811",
"o  c #7F3615",
"O  c #4B2137",
"+  c #47253E",
"@  c #4A253C",
"#  c #4D293E",
"$  c #522636",
"%  c #592532",
"&  c #542936",
"*  c #5C2C35",
"=  c #512739",
"-  c #532B3C",
";  c #5A2D3A",
":  c #5C3535",
">  c #56313C",
",  c #5B333D",
"<  c #5B3535",
"1  c #5C2828",
"2  c #6C2D2F",
"3  c #672B2E",
"4  c #7D2821",
"5  c #683C2D",
"6  c #7B3223",
"7  c #74322C",
"8  c #7A332C",
"9  c #773D2E",
"0  c #632E33",
"q  c #692F31",
"w  c #633434",
"e  c #6C3334",
"r  c #63353C",
"t  c #653C3C",
"y  c #6A3C3E",
"u  c #6E3A37",
"i  c #713532",
"p  c #723D39",
"a  c #763C35",
"s  c #6E442E",
"d  c #77482C",
"f  c #7A4B2D",
"g  c #784628",
"h  c #7E502A",
"j  c #7F5227",
"k  c #6C443D",
"l  c #65423F",
"z  c #7E4237",
"x  c #75433C",
"c  c #79443B",
"v  c #754D3C",
"b  c #7D493D",
"n  c #784B36",
"m  c #7D553C",
"M  c #462740",
"N  c #482740",
"B  c #472840",
"V  c #492941",
"C  c #512E41",
"Z  c #4F3045",
"A  c #533345",
"S  c #5A3442",
"D  c #573847",
"F  c #5D3A44",
"G  c #533548",
"H  c #5C3D49",
"J  c #56384A",
"K  c #623D44",
"L  c #683F42",
"P  c #5F414C",
"I  c #654146",
"U  c #6A4345",
"Y  c #64454C",
"T  c #6A4649",
"R  c #66484E",
"E  c #6C4C4D",
"W  c #744642",
"Q  c #734B45",
"!  c #7B4E46",
"~  c #724D4A",
"^  c #73514D",
"/  c #7A5346",
"(  c #674A50",
")  c #6C4E50",
"_  c #6E5151",
"`  c #715454",
"'  c #8B260C",
"]  c #9E2E05",
"[  c #972F0E",
"{  c #883907",
"}  c #9F3008",
"|  c #8A2912",
" . c #822412",
".. c #90241B",
"X. c #883819",
"o. c #983B1D",
"O. c #A12F03",
"+. c #A43104",
"@. c #AA3301",
"#. c #A7360A",
"$. c #B53C05",
"%. c #AD2F19",
"&. c #A13E1A",
"*. c #B42C13",
"=. c #823627",
"-. c #8A3721",
";. c #8C3A24",
":. c #843C2C",
">. c #8A3F2C",
",. c #873925",
"<. c #943D21",
"1. c #803E30",
"2. c #8D400D",
"3. c #9A4807",
"4. c #8C451B",
"5. c #964E19",
"6. c #BA410A",
"7. c #AC570A",
"8. c #B35D04",
"9. c #A5421B",
"0. c #AA4718",
"q. c #B44413",
"w. c #BC4C16",
"e. c #AD5C12",
"r. c #B65616",
"t. c #9E6A1D",
"y. c #9A611C",
"u. c #B7600B",
"i. c #BA6411",
"p. c #A5711C",
"a. c #AB751A",
"s. c #AC771B",
"d. c #B17D18",
"f. c #89442C",
"g. c #924127",
"h. c #9A4425",
"j. c #97482C",
"k. c #875728",
"l. c #824435",
"z. c #8B4632",
"x. c #864A39",
"c. c #944D33",
"v. c #835633",
"b. c #84533C",
"n. c #835A3B",
"m. c #8A5936",
"M. c #985235",
"N. c #AA4E24",
"B. c #A44E29",
"V. c #A44722",
"C. c #AA542C",
"Z. c #966421",
"A. c #9D6C25",
"S. c #98692A",
"D. c #936735",
"F. c #A57424",
"G. c #B27F22",
"H. c #C94B0B",
"J. c #D34D07",
"K. c #DC5205",
"L. c #D8530B",
"P. c #C14A11",
"I. c #CA5214",
"U. c #D05714",
"Y. c #ED5A03",
"T. c #E3590A",
"R. c #E45401",
"E. c #F35D02",
"W. c #C96E05",
"Q. c #C46B09",
"!. c #D57704",
"~. c #FD6200",
"^. c #F76104",
"/. c #804E42",
"(. c #8B5441",
"). c #B58217",
"_. c #BD8513",
"`. c #B7831E",
"'. c #BA8519",
"]. c #BD8A1C",
"[. c #B68220",
"{. c #C78E0E",
"}. c #CB930E",
"|. c #D49C0D",
" X c #D99F0C",
".X c #C38C14",
"XX c #CE9814",
"oX c #C99315",
"OX c #D39C13",
"+X c #DCA30C",
"@X c #E6A906",
"#X c #E3AA0C",
"$X c #E0A608",
"%X c #EDB305",
"&X c #EDB40C",
"*X c #F5BA04",
"=X c #FABE02",
"-X c #F6BD0B",
";X c #F2B304",
":X c #E4AC11",
">X c #FFC302",
",X c #FEC50A",
"<X c #FFC80A",
"1X c #FFC807",
"2X c #FCC612",
"3X c #FEC816",
/* pixels */
"                                                                                                                                                                ",
"                                                                                                                                                                ",
"                                                                                                                                                                ",
"                                                                                                                                                                ",
"                                                                                                                                                                ",
"                                                                                                                                                                ",
"                                                                                                                                                                ",
"                                                                                                                                                                ",
"                                                                                          ,X1X                                                                  ",
"                                                                                        ,X>X>X>X                                                                ",
"                                                                                      <X>X>X>X=X,X      2X                                                      ",
"                                                                    2X1X1X          ,X>X>X>X>X,X,X>X1X>X>X                                                      ",
"                                                                  <X>X>X>X>X      1X>X>X>X=X,X,X>X>X>X>X<X                                                      ",
"                                                                2X,X>X>X>X>X>X>X>X>X>X>X,X  2X>X>X>X>X>X                                                        ",
"                                                              2X,X=X>X>X>X>X>X>X>X>X>X1X        ,X>X=X1X                                                        ",
"                                                              >X>X>X=X%XXX.X%X*X=X>X>X            >X>X                                                          ",
"                                                            >X>X#XG.D.m L T n.v.s.*X,X                                                                          ",
"                                                          1X>X#Xm T Y T S , ^ ~ Y A.-X1X                                                                        ",
"                                                          >X*Xk.D I Y A # * / ` ) F +X>X<X                                                                      ",
"                                                        1X>X`.K D I e ..& 7 l.I H w p.%X<X                                                                      ",
"                                                        =X].Q F S K *.%.- 7 1.;.9.,., y.2X                                                                      ",
"                                                        #Xk r y P , 2 & # 7 * :.B.z.l.f.D.                                                      2X              ",
"                                                        -Xt.4 8 A V - K U z z b Q T E E ( K F                                                 <X>X              ",
"                                                          OX- S C I R ` _ _ _ E b k P H D V - l.                                            >X>X1X              ",
"                                                          '.- I E ) ) ` ) _ _ _ E =.- M M = =.! `                           2X<X          1X>X>X>X              ",
"                                                          v.L ) ` ( ) ` E _ _ _ Y i q M 0 &.c.` ) `                         ,X>X<X      ,X>X>X>X<X              ",
"                                                        E U L Y R D R ) R _ _ _ Y 0 q.6 <.M.! K D R E                     >X=X>X1X,X  1X>X>X>X>X                ",
"                                          <X<X3X    ) ) W W H ; A # H R Y E E R A =.B.x.E K T C + D E E                 ,X>X>X>X    >X>X>X>X>X=X                ",
"                                        1X>X1X      _ E :.r S 8 -.V V C Z Z A V e N.) ( D S K V N V D I E               >X>X>X>X      >X>X>X>X2X                ",
"                                        >X>X      ) R D ,.z.z.l.g.8 N B + # # - w.w.F V + , D B V + N V R             >X>X>X=X=X,X      >X>X>X                  ",
"                                        >X>X      R D - j.! ) ( ! 0.X.w S Y E E C.I.w B - x Z V N B V @ K           <X>X>X*Xp.k..X      1X>X>X                  ",
"                            1X<X      <X>X,X    ~ H B ; >.K V V K f.g.Q _ T Y P ~ M.<.V 7 a V + V V B O H           >X>X=XG.T , n XX      ,X<X                  ",
"                        2X2X+X;X      >X>X,X    R D B - 7 - B # V :.K D D V V V P b.I.9.q.- B V B # O O H         >X>X>X.XE Y = C k.                            ",
"                      2X-Xs.k n.OX  <X>X>X<X  U E D B # ;.= + + B 8 ; N N N V G G E U.~.<.V N B N + O B         1X>X>X@Xv._ H @ + : oX                          ",
"                    2X,X+XI E Y A.>X>X>X>X1X  R ) D # V 9.9.o.;.-.0.<.# N V Z V B Z h.H.0 V V B V O B V         =X>X>X_.R ( - 1 O 5 OX                          ",
"                    ,X>X}.Y ` ) S.>X>X>X>X    ) Y A # 0 c M.C.x.C.z.h.9.:.S Z V # + e 7 M V B V N N V         G.S.$X>X%Xs.y.5.s - = k.                          ",
"                    >X>X).R _ E m.*X<X>X>X    ( D i 9.>.) c.! ` ^ ) E x.N.V.>.e - # % * B B V V V V C       :Xm D h %X>X>X@Xy.U P + h                           ",
"                    >X>Xd.R E U m.#X    <X    F h.w.N.~ E j.T E ` ) ) ` ` ~ ! /.c.;.:.:.* = + V V Z       >X+Xt D < |.>X_.n E ^ P + F.                          ",
"                    ;X@X_.I U E Q n.[.        ,.w.x.! I K a Y R Y R ( ) _ ) ) _ /.N.~ _ ~ u = V G V   A. X>X%Xn.Y R F.;Xn.` ` E A - XX                          ",
"                  v.4.5.k.d U E T _ / D.      l.^ ` H M * Q H V V G G A Y _ E ` W z.E _ ) ) Y V V V   V > .X>XF.J V n ).^ R R D V : :X                          ",
"                  # D f.Q U U k U _ ` ` v f   E ) R V + , U D # G Z B B Z E E E S j.Q ) ) P ( I ,     + N Z.>X Xt B C U Y C # V B s &X                          ",
"                  # R _ U I Y T U E T U E , a.  F C V V - S V 0 - B N B # G P G - 0.~ E Y Z V D T     , Y m OX=Xt.V V > y D + + B k.1X                          ",
"                Z Z E ~ E r D R E U T T Y t +X    + V N + # N - % B N N B + B B 0 N.` Y G V V + V -   S A A k .Xp.; V # o.* + + # .X                            ",
"                < # P P I # + G I U F , S k.=X    = + N V O + + # N V N V B B + =.c.( J V B B V V C   : B B Z U k r @ $ 6 - B & ).,X                            ",
"              A.# B > < @ + B V > U Z + - _.1X      = # V V O N + + N V N V B = a Y G V V B V B V     a.O B B V , h.X.@ + w 5 a.2X                              ",
"              .X< # p._.& B B + O S Z B f.*X          A Y P V + V + V V N B # e K V V B V N + V N     :Xg O O O V ; &.= 5 +X%X-X                                ",
"              <X+X{.>X|.# # M @ g I V # _.1X          U Y ` H 0 = V V V N B 3 l.Z V # B + V + B #       '.: O % # $ 6 d .X1X                                    ",
"                1X>X>XoX+ + M s @XS.> j %X1X            R E R p u Y Y V V B 7 z V V B B V B B V -         G.d r.e.{. X&X                                        ",
"                      :Xh s h .X>X%X+X*X>X              R R Y y p Y ) Y V V $ y V V N B N V N #                                                                 ",
"                            2X>X1X1X1X1X                A V V - w Y ) ( D V V * V + V B V V +     U ~                                                           ",
"                                                          # V N ; C G Z Z V B 7 ; B N V + # -     E )                                                           ",
"                                                          # N V = # Z Z V V B 7 =.B B V N -                                                                     ",
"                                                            # N + V C V N V N * &.# + V V                                                                       ",
"                                                  e.Q.Q.      V V - = V + N N V <.q B #                                                                         ",
"                                                i.W.W.!.        ; q.P.3 N O O + 0 ;.                                                                            ",
"                                                W.W.8.!.i.      U.K.R.#.$ # + # V         T.^.Y.L.                                                              ",
"                                                3.3.{ 3.{       K.$.@.+.  V -           H.E.~.~.~.$.                                                            ",
"                                                  . { { X.      +.] ] }                 K.E.E.~.E.#.                                                            ",
"                                                    X X                               T.J.E.K.Y.J.]                                                             ",
"                                                                            7.0.      K.$.$.@.$.@.}                                                             ",
"                                                                            7.2.      O.O.O.@.@.O.                                                              ",
"                                                                            2.o        .] ] O.O.[                                                               ",
"                                                                                        X ' |                                                                   ",
"                                                              I.                                                                                                ",
"                                                              L.K.$.                                                                                            ",
"                                                              $.+.#.                                                                                            ",
"                                                              | ' |                                                                                             ",
"                                                                                                                                                                ",
"                                                                                                                                                                ",
"                                                                                                                                                                ",
"                                                                  4.        P.L.                                                                                ",
"                                                                            6.P.                                                                                ",
"                                                                                                                                                                ",
"                                                                                                                                                                ",
"                                                                                                                                                                ",
"                                                                                                                                                                ",
"                                                                                                                                                                ",
"                                                                                                                                                                ",
"                                                                                                                                                                ",
"                                                                                                                                                                "
};
