/* XPM */
static char *_207_w032_n002_524b_p1_524__1_1671811282[] = {
/* columns rows colors chars-per-pixel */
"70 70 228 2 ",
"   c #0B161D",
".  c #161616",
"X  c #1C1916",
"o  c #14161C",
"O  c #161A1D",
"+  c #1D1C1B",
"@  c #1A1716",
"#  c #221D1D",
"$  c #2A1E1B",
"%  c #261A18",
"&  c #371D19",
"*  c #1E201E",
"=  c #23211E",
"-  c #2C221E",
";  c #2F281E",
":  c #33241D",
">  c #3B251D",
",  c #382A1D",
"<  c #0E1725",
"1  c #141C24",
"2  c #1B1E23",
"3  c #151B29",
"4  c #191E29",
"5  c #171521",
"6  c #221F21",
"7  c #281F20",
"8  c #1E2124",
"9  c #1B222A",
"0  c #162127",
"q  c #252323",
"w  c #292525",
"e  c #262826",
"r  c #2B2926",
"t  c #232429",
"y  c #2A2629",
"u  c #262929",
"i  c #2C2B2B",
"p  c #332523",
"a  c #3B2621",
"s  c #342A23",
"d  c #3C2B23",
"f  c #322629",
"g  c #322D2B",
"h  c #3B2D2B",
"j  c #2E302E",
"k  c #3B3124",
"l  c #33312F",
"z  c #3C312C",
"x  c #373125",
"c  c #2D2E32",
"v  c #212A33",
"b  c #322E31",
"n  c #2E3134",
"m  c #2D3238",
"M  c #333235",
"N  c #3A3535",
"B  c #353539",
"V  c #39373B",
"C  c #36383C",
"Z  c #3A3A3D",
"A  c #3A3935",
"S  c #611F0F",
"D  c #5B210E",
"F  c #492414",
"G  c #44251C",
"H  c #4B2519",
"J  c #442A1D",
"K  c #4B2B1C",
"L  c #452516",
"P  c #532C1A",
"I  c #5B2E1A",
"U  c #562A16",
"Y  c #45331E",
"T  c #4C331D",
"R  c #5D331B",
"E  c #533A1E",
"W  c #5C391A",
"Q  c #7A270C",
"!  c #642D13",
"~  c #6C2915",
"^  c #643314",
"/  c #6E3316",
"(  c #64351A",
")  c #683B1A",
"_  c #743412",
"`  c #7C3B13",
"'  c #773916",
"]  c #72290F",
"[  c #432B24",
"{  c #4B2D22",
"}  c #422E2B",
"|  c #492B28",
" . c #443424",
".. c #4B3B23",
"X. c #44312C",
"o. c #4A322C",
"O. c #4B392B",
"+. c #483626",
"@. c #523B24",
"#. c #5A3E21",
"$. c #53342A",
"%. c #573529",
"&. c #492E31",
"*. c #433534",
"=. c #4B3533",
"-. c #443A34",
";. c #433C3C",
":. c #4A3D3C",
">. c #483835",
",. c #523532",
"<. c #553934",
"1. c #5B3A33",
"2. c #573B39",
"3. c #522E20",
"4. c #693A29",
"5. c #673A34",
"6. c #7A3828",
"7. c #471A14",
"8. c #6A451B",
"9. c #7A4215",
"0. c #774919",
"q. c #7A511C",
"w. c #5B4323",
"e. c #564328",
"r. c #4B413E",
"t. c #4A4238",
"y. c #5B423E",
"u. c #56433F",
"i. c #4F4127",
"p. c #644522",
"a. c #674926",
"s. c #734C28",
"d. c #7E5525",
"f. c #6B443D",
"g. c #64463A",
"h. c #774738",
"j. c #765431",
"k. c #3C3C41",
"l. c #413E42",
"z. c #3F4043",
"x. c #424143",
"c. c #4C4242",
"v. c #44434A",
"b. c #534443",
"n. c #5B4443",
"m. c #644944",
"M. c #794A43",
"N. c #785048",
"B. c #84330E",
"V. c #8E3B0D",
"C. c #8C320A",
"Z. c #963B0B",
"A. c #853A12",
"S. c #88300D",
"D. c #AA3B07",
"F. c #94430E",
"G. c #99450E",
"H. c #854314",
"J. c #874815",
"K. c #9C4510",
"L. c #964812",
"P. c #84541D",
"I. c #885517",
"U. c #955B15",
"Y. c #AC4109",
"T. c #A7480C",
"R. c #B94A09",
"E. c #AA590D",
"W. c #B4550C",
"Q. c #B9580C",
"!. c #A84A12",
"~. c #A35812",
"^. c #8C611B",
"/. c #956518",
"(. c #B6650B",
"). c #A86715",
"_. c #B36711",
"`. c #AA7618",
"'. c #B67911",
"]. c #B66B0F",
"[. c #844A3D",
"{. c #8B5724",
"}. c #906328",
"|. c #C44C06",
" X c #D74B03",
".X c #C35408",
"XX c #C75808",
"oX c #DB5A05",
"OX c #D95203",
"+X c #E95603",
"@X c #CB6D0B",
"#X c #C76409",
"$X c #D86905",
"%X c #C97509",
"&X c #D0760B",
"*X c #E66705",
"=X c #FF6901",
"-X c #F76102",
";X c #E67604",
":X c #FF7300",
">X c #814C44",
",X c #885C41",
"<X c #AE8F10",
"1X c #C7860C",
"2X c #D8850A",
"3X c #DA930B",
"4X c #DC9412",
"5X c #C38412",
"6X c #E78605",
"7X c #FD8C01",
"8X c #FE8200",
"9X c #E69706",
"0X c #FB9A02",
"qX c #D6A508",
"wX c #ECAE08",
"eX c #FFA300",
"rX c #F7A804",
"tX c #ECBC05",
"yX c #FFB201",
"uX c #FEB901",
"iX c #F3B404",
"pX c #FEC501",
"aX c #FECB01",
"sX c #FFD401",
"dX c #FFE401",
"fX c #FEEB00",
"gX c #FEF301",
"hX c #FFFF00",
/* pixels */
"c r w w t R.` 9 h M M M B B B M i i t t w w w w w n m B B C i t q % # + + # # # # q 2 w y w q 6 q q # + X X O + O o X O @ X + # w y t w w w ",
"c c w & 4 ` |.q r d r u u u r e q q = q w w w t i M M B B C k.i q = # # # # # # 6 6 q w i c M c y w w 6 # # + # # # # # # # = t w w w w w t ",
"j n = - q d +XA.+ : > : w = q 2 # + X 6 w w w e c M B B C C k.k.i w q # 6 q q * 6 q y c B C k.k.Z w w y w 6 w # = q w w w w w w w y w w q u ",
"M n = - - t XX;Xs : : $ $ $ # % # + # q w w t q n M M B B C k.A y q q q 6 q 6 + # w y M M C C B b w t w q w y w w i b M N V V b w w w w i N ",
"B c q - - w Q.eXP...Y w # % # + # + q w w y y # u M M B B n i r = w q 6 q q # # # q c c M c i i # t w w w w w g g M M A N Z Z k.r w w t M B ",
"B i = w : k U.yX9XP.e.d r q # # + q q w q w w q + c u i e q w # w 6 6 2 4 q q q q w # q q q 8 + # q q w w w i i i g M M B A k.A q w t i Z B ",
"B c q - , O./.yXpX0X_.W q 6 q 6 q 6 w w i y w w # % q q q q = = 6 6 : s : w q q q q = @ + O O + q # 2 q w w g s g M M M N V l.w w w t M k.C ",
"B u q $ ,  .).yXuXuXyX0XQ.- q w y c A ;.l.V i y y # $ : p $ $ 1 T ;X(.8.T r q q q = q q + + % # # q q q q = w w r r g M M V i = w w q n k.k.",
"B q w $ : k @X6X).).&X0X7XT.1 w t N l.x.x.x.z.i w w # # $ # 1 [ ;X8.4 q y g g w q q q q q q w q q 6 6 w w # = q q r w r r r # = y y q i k.k.",
"i w p $ # +.XX#.e.i. .) oX=X9.1 s z l A N N l g w t w q = 4 [ ;X) 3 o.1.=.-.*.A i q y q w w 6 6 + q 6 6 q # + # + q = q = = % t q q w w z.z.",
"q u - $ 5 T.F.i  .k s 4 t K.=XA.9 o.l M g r g s r t w , T I.7XE.3 { 4.=.M M C A Z M w y q # + q 6 q q # = q + + X + X # X X = q 6 q # w B N ",
"t 7 # @ J R.} 2.-.B M i y 9 W -XG.6 | s g i r t - w r q.pXdX9X- q { d i N B B C V Z V w q 2 q 6 q 6 6 # q t w 6 = = # # = = t # # 6 = = w i ",
"# # % O Z.P 2.:.B B M M i w 0 s +XR.: d d s - # - q  .wXhXdXU.q w [ ; t M A A A -.k.x.V q q 6 6 + 6 q 6 6 y w q w w q t w r q 6 6 q q q = r ",
"# # 8 { ` b m.C C C C g i q w q q oX*X9.E Y , # 1 d 2XaXpXrXY q f a ; = w l Z Z Z Z k.x.M q w 6 q 6 q w w t w i i M M i q q q = q = # w # # ",
"w q t { P 2.r.C Z M i r + # w w 8 , 7XyX6X_.U.P.E.=X7X;X$Xq.w w w , w w w w l Z Z Z l.k.x.i w 6 6 6 q y i c M M C Z k.N w w q 1 0 2 1 8 q w ",
"w w 9 I ( b.c.Z M i t X + t w # = q E.uXpXpXuXeX#X' J s w q w t w , w q r w w r Z k.l.l.x.g q w 6 q w i c M b M B C A M w w J ! D.D._ H w 6 ",
"8 w t 3.( :.-.i w = X # q q 6 6 # s w.2XaXaX0XP.i 8 w y w y y w - : w ; w r r r i N A C b i y w 6 q y i c c M B B B Z j - 8 V.+X|.V.V.Z.V.A.",
"~ > t d I w i q + + = q 6 6 6 q = , ..q.9XuX%Xi.%.4.<.A V g w y q = w = ; = e r r i r q q w 6 w q q q 6 i c b M M B n q - 9 F.|.w 1 1 2 6 , ",
"H D > w d 2 % + 6 w q q q q q q 8 w Y w.s.7X/.O.5.>.m C k.k.y q t % X + e w r r r r q q # 6 q w 6 q q # + e t w u u = $ - 8 R.W 2 - r q q q ",
"m c & p w w w t y w q i i h h h X.o.d k s I.XXy X.i c M M i 7 q w r = X X = q r g r = + + # u 9 4 6 6 6 X # - # $ $ & & x #.*XW s w w q y y ",
"k.k.B i w w y w q w i N V A N N *.,.6.%.w w *X'   * = = 8 % w w q 8 q q # + + + q r = # + < ; ` R w q q 6 + % # # % $ ;  .'.aXI...k t g N B ",
"Z Z k.r w t y q w i N C N B M M M c N 5.[ 1 W.8XZ.& O   o 6 y w q # = = q q % % = X     O / .XL.H.` I > w w q w p q w w.'.dXhX1Xa. .k =.M M ",
"C k.i q t # 6 w u B Z V Z C B N M M c *.[ 0 _ eXyX7X$XL.( d q 3 < 1 2 2 = = r x d K W F.R.!.6.&.&.&.a w w p / ].'.~.Z.#X9XtXfXdXP. .1.*.c M ",
"B u q q # # 6 y M k.A Z A C B N B N M r s u > J.0.I.~.R.XXXXW.!.H.^ L - 2 * s 8.'.pX6XA.d &.>.N *.2.5.h q w +.2X4X8.s g O.{.`.dX<Xf ,.X.n M ",
"t e = q q # q i Z Z Z Z Z Z A C N N u q w w 6 1 1 4 4 1 9 f K ( H.!.XXoXoX#X2XtXhXaX) 9 } N m c m m V 2.f u s J.8.g q o.h.,Xg.).%Xt ,.N n n ",
"t = # q 6 = w M l.k.k.r.Z Z Z A V i = w w q = w w w w g b m c v 9 9 t [ / E.9XsXhXwXp.$.=.c n m m B B B N q q S.a p <.5.x.r.c.-.(.r } o.i u ",
"X % t q 6 t i ;.z.z.k.k.Z Z Z Z r q w w w 7 q w w b V Z k.C C C V M b u 9 t  .s.3XyX@.[ h c n n B B C k.k.i w  XK h l.B B B A 9 0.( 5 - # * ",
"1 q - # 6 q b x.x.z.k.k.z.Z ;.i r ; e = = w w y B l.k.k.V C B M M M b c c g z  .+.*X) 2 - u n B B m B k.V k.t U B.2 } M i e e * s K.4 + # # ",
"U F & 6 6 q b v.x.z.x.z.z.Z i r r e r = q w q A l.k.k.Z Z B B N B c c c c c i z t ( XX2 - 8 q i B B k.k.Z Z g 1 ! > X # 8 = X q 9 H.Q.$   o ",
"L 6 6 q q 7 q M x.x.x.x.A g r r r r = * w w q M k.k.Z Z Z Z C M M M c c c i u h s O ;X0.+ - 8 q y c m m n r w 8 : ! 8 # = # = q q 6 6X0XE.9.",
"2 6 q q q q 6 q l N N l r r r s r r * = w q q # i i j M M N B M M b b c c y h %.d 2 ].U.2 & + 8 q q w w t r q q w H q q q 6 q # = 4 K 0.9.L.",
"w w y i y q 6 # r l i i g g g r = = X q q q q q # i i r e q t e t t y w f [ [ 6 8 0.iX`.d % X O + * + 2 * + = q # & 2 q 8 q + q = q * 1 1 1 ",
"B V k.Z k.M q q + - l i r i w q 6 + # w q 6 6 q # + t r r u t i s g d [ : + % _ @XyXgXqXe.r # % + % X O + # q 6 6 7 6 q q w u q q q 6 w w w ",
"Z V k.k.l.l.g 6 w # = w q q = = + + 6 w q 6 6 6 q # - : w , d a , > % @ F V.R..XE._.3XuXp.r w q # + # # # # 6 w w w y y y y y w y q = w w y ",
"V k.Z k.k.l.;.w w q # # = # # # # # q q q w w q t w # $ : $ $ % % < 8.@XQ.R w 1 4 s O.~.9.4 w w w t q # 6 t i c c b b m M c i u w q q t b M ",
"V V k.k.k.k.l.p q r w w = = 6 q q w q q w w y i r w t # # % # q < L.eXU.6 q w w w r t d F.9 w w q q y i M M C C B B M B b m c c w w 6 y M M ",
"C V k.k.k.k.b.g t w q t y i q w w w w w w c C Z A V y w w # 4 d W.7X9.< t y 6 t q q w q F.J q w f =.;.k.k.B C B B m B M m M c c y w w i n M ",
"k.C k.k.k.k.2.y w w s M C B N t + 2 w w b C V C k.k.i w q 2 C.|.H.a =.5.5.1.1.&.} f w 9 A.A.0 f M.n.k.k.C C C B B B B M M c m c i y y c M M ",
"M n i g i d | p s g >.M B C C i # 6 w i B M C C A i w y 1 ^ R.w 9 1.>XN.m.n.l.f.y.1.f 9 / Y.4 o.M.r.Z k.Z k.C C B B B m b m b c i q w i m M ",
"w u r q t $.p > G q h M M M r p 6 $ g M m M B M i t r y $ V.q u $.o.M k.k.k.Z k.C Z z 8 ( T.4 ,.M.:.Z k.Z V C B B B B M M M m c t t w q e e ",
"e w w r [ { O ~ a q - u i q w p # & h N n M i t t r q q P > 8 d l g i l N Z Z Z Z Z A q K R.o o.M.r.Z k.k.Z C V V B B M m i u q 8 t w = = t ",
"q q w s [ % q B.w w # X * 8 $ = $ 7.f =.c u q y e = X q : + q z i g g g g r g i l i r 8 J  X> w >Xb.Z k.C Z Z A B m i r t q = q + q r q X q ",
"6 - : : % 1 I B.9 w # + + + # 8 $ Q $ # > w q q * = = x ; r w r g g r r r r q q = + + q 8 _ Y.- ,.g.Z k.Z B M j i t q q q q q 8 o 6 w y # X ",
"# # % + + 7 D.P t w w q = q = 6 6 H ] F O $ : = # = 8.J...E x - r r w e q e = = + X # r q 1 U V.% s z i i e q e t y w t 8 e * * @ q w y q = ",
"% # # 5 $ C.P 2 q w w q q + 6 # = 5 # ` G.T & 6 > 0.9X3Xd.w...- = e = = q * * + + # q 6 6 - 2 a ~ % # r r i e w e e e q e + . X 6 w w w y w ",
"+ = 4 L S.G 4 = q t w q 6 q 6 q q # + + %XaXqX#X$X0XpXsXwX`.8.s = = = + + + O X # q q 6 q 6 = 2 w P % # q q e e q q 8 + X X + q q $ # # q w ",
"# 4 U D., 8 - q u y r t t w w 6 = = * 1 /.aX'.#.E s.).4XpXfX].r = % + = + + % % q # q 6 6 6 6 = 8 = w q # % = O 2 + + % = q = = 6 & q = w y ",
"w 2 S.I 9 g M M N M M M g r w q 6 # O - XX8.X.l *.a.j.}.{.wX1X# - = q = = = 6 q # q 6 q q q 6 q w w t w w q # # # # = * q q q 8 7 L q q M k.",
"= 8 _ g Z k.Z Z Z A l M M r q q 6 2 J |.( c ;.*.*.t.g.j.e.8.$Xw q y u q = q q t w w q w q q q i M B Z B r w w q w w q 6 6 6 w q & H 6 w Z k.",
"= : ! V x.Z Z Z V C A M c = = w 1 ^ |.^ t V M m B B A t.O.q Q.W 4 w w w w t r m M l i t q 6 q M C V Z N w t w w w t i i b M b q G D 4 g l.k.",
"1 H $.c.z.l.x.Z A B b r = X w w 2 _ , 1 i C B C B M M n l 0 J.W.4 w w y r M A N M M M M w q i B M i u r + 6 w y i M V k.x.x.l.r q ] U q w } ",
"P G.m.m.x.k.A l g w q = X X w 2 - I 2 - i Z C Z C B B M M 9 W @Xq w t g Z Z C A B N B g q w q q t q * X X w w b A Z Z ;.k.x.N w 4 7.S.Q D % ",
":XR.,.f.1.d r r q = + o . O q q ! H 8 w i k.Z Z V C C M i 1 8.W.4 r N z.Z Z Z Z C B M = q q # X + # # # w w w M B Z Z Z z.Z r w w q q , ~ S.",
"F.Y.Z.H a { [ , - # O F P K = - - 2 q t i k.z.Z C B i e = 1 ~.'.4 X.r.Z Z Z ;.Z A M = = + q q 6 # q q q w t g M B A Z Z Z M e = w w q q 4 a ",
"c q { V.^ s Y Y p X ! / { w q q y q = q q j M l i e q * = [ tXqX .O.b.k.z.Z l.Z l = r = # 6 2 6 # + q q 6 q b M C N A k.A w q = t w t s h *.",
"M.1.q i L._.I.s.8.` J t s h f s w w q q = q w t q * O # : ^.gXiX8...f.c.z.x.Z i r r = X q q # 6 + 6 2 # q w b M M C C Z i = = * t w y V ;.:.",
"m.1.$. .e.2XuXrX(. .$.5.=.N N b i y t q q + # + + + * - +./.fXdX2X@.s m.b.l.l s u = X # 6 8 6 q q q q q 6 t i i M M l l w = * + 6 w b V B B ",
"V  .[ 3.a.`.pX5Xw.a.f.:.B n M c n u w w 6 = # 6 = # + - Y q.uXfXsX;XF.' 4.[ q $ % % # q 6 q y u i i u w q 6 % # = = = w = * + # y y b C B V ",
"b g s J @.^.2Xp.h.h.;.M b B m M c c q w q w w y w t q # s E 9XyX~.W P R B.Y.! O # q q 6 q i M B k.k.k.i w q # # X = % = + % + w y c B M B B ",
"i q q : w P.U.O.h.u.B B B B B m B i 8 w q w w t i w q q - = &X@Xu t O 1 9 w _ P t q w q i M B C C C Z g q 6 q q w q = = q - q w 7 c m M B B ",
"w t = - 1 F._ X.f.k.Z V B B m M n q O y t r q w C C M y w 1 W.9.9 6 d o.s 8 9 K , 6 y y M M M M c c y 6 q q q w t y w w w y u y y c m M b M ",
"e = + % 4 |./ M b.k.C Z C C B B i + # w = q q u C Z k.y w 5 Z.( 4 [ [.[.[.5.h t p w y w u e t t q q + . 6 w q t w q y w w w w q y c c n m M ",
"e * + o { OXJ g l.Z Z k.Z V B c 2 @ q w # t u u C k.k.b q k %Xd.s 5.n.y.y.m.m.1.w w y = O * + O + @ X # i M b y w w w y y 6 y w y c c m b n ",
"8 * . * D.T.1 f -.Z V M B i i 6 . # w = q q q y k.k.:.*.q 8.wX/.=.Z A Z Z k.k.2.>.w w w + + % X + = w b k.k.k.C b y w y y w y w u c c c b c ",
"* O O > OX> O - w w e q q e * + + t q # 6 w w i k.C u.<.5 ) _.i.A A Z Z Z Z Z Z A r w w t w w q y q i k.k.k.k.C k.m c y q y w q i c v i c c ",
"O X o G.T.< = q % # + # + + + + q q q + 6 y r i Z v.N.1.8 / d i A M A V V Z Z M s r w w w w w w w y k.k.k.Z C C B B B b i w y w + u c c c i ",
"X + >  XH 1 - y q q # 6 = = + + q 6 q q q u # q j *.$.t , U u M N N N V Z N i r i w w w w w w w w M k.k.k.V V B B B M M b c y q q + q y v c ",
"# 8 ` +X: + q w y w w y q - q q q 6 q 6 q q # % X X . q H w i M M M B A g r r g r q y q t w y y t w M Z C C V B B B M b c c c y w 7 # # % 6 ",
"q t f  XV.1 y w w q y c b c i q q 2 6 w w q q 6 # # q p 7 q y M l l g r w r r r w = w t q w w w w w y y M B V M B M M b c c i i y y w w 6 # ",
"w r 9 / +X, u w w q M B B A C i w w u w y w y w q w t w y y q g r w e = r r w e = + w w w w w w w t u q u i B m n n c c c i c i y w w y y w "
};
