/* XPM */
static char *_78f0c7e114844f5def162d65ab98edfzlIebUM7IWxyOla4[] = {
/* columns rows colors chars-per-pixel */
"50 50 45 1 ",
"  c #3C5606",
". c #375D03",
"X c #3B5D05",
"o c #3D550B",
"O c #3E5B0A",
"+ c #3D5710",
"@ c #3F5C11",
"# c #376000",
"$ c #3D6403",
"% c #3F6902",
"& c #3E620A",
"* c #415D06",
"= c #40560C",
"- c #425D0B",
"; c #435E11",
": c #426506",
"> c #436B05",
", c #496D06",
"< c #44640C",
"1 c #48660C",
"2 c #456A0B",
"3 c #4A6C0C",
"4 c #516F0E",
"5 c #467106",
"6 c #4A7206",
"7 c #477109",
"8 c #4D720C",
"9 c #4D790B",
"0 c #507607",
"q c #547D05",
"w c #51750D",
"e c #527A0D",
"r c #587E0E",
"t c #456411",
"y c #496611",
"u c #476911",
"i c #4B6C11",
"p c #506F12",
"a c #4E7211",
"s c #517511",
"d c #547B11",
"f c #55810D",
"g c #59820D",
"h c #5A8211",
"j c #5F8B12",
/* pixels */
"sOO8:1wO36:813<8X<yo *  O:t-oa2>;O-3<i>%e6:+1u3838",
"6368u1,X1ei13,o;a1-.w311<1&>82:w8O8>-33&<11:O<6s31",
"<313,--5>8<a>:w<<1>>w>&2>p823$Oy93>>y&,;,o3:u>:3>2",
"i3-&>3e3e>X<8O3>#u3o*:<9><--16<232a3;t1<&Ow2ii6i<3",
"$>iO<f22d:6uoo-828<o1oO03u<*:a;#,e>,@:36:6t:>11->a",
",<t-Ot>$13i8,2&a>#w3:8&$u:,s:7a>3sO&e$,d2w8:a-$w23",
"u=<%<w6<,3a$Ou>2i33<6r1t8:&221w<1113t23i%>8<1:$222",
",<82uo1d<,1-13i18t3iet8:O13 8:-8>16uo2-<e8w&O-t333",
"33&-<>t3&i8<122t:%6e&:3:i8:;>X<3<i>:<8d:w-e>38,<<3",
"-18:8,<8>8%:u8$>1X1e>&<3i:&u3<3:o33t1><X8:s;3$32:8",
",3%Oiwo<-<63ait<1o<1:8s-<-tw<-s-%OO2o3y8@%>-O33322",
"t:>13%:3>a1w>&11><O,<-w3$a6>8X:e2&-$29,2*<a3188-&3",
">haaa>it,,$O23u:>8>at#:teu<>d>w6t83O83>u1:&<1>:;26",
"<2%u8e3><w&2w633i11u;>,1w<o8d1w-<w1+wOw1-&,3:&1-s1",
":a2i>.<,O<3u6$><3<-<<o1s&&t>:;:86#<1O&3>683<t4i5X-",
">s,:3O6u8e3O:Oae.:e#:u:2::;2X83>43&&,1o&:3,23>8X:*",
"31<8iao-i6#,-o;<:433Oe:,io:81af%<t<-ti*3u:11>>a<2u",
"t>:i6%i&8s8e<36-4818-O8i2d>>i<aif:31%33&6i-3u33%2a",
"122-3%,13i39&86<:>e>aO5622a81%,3<#O<$>s<<d2,3-O3id",
"1o:<s2=3w3>u:-uu3,-:2&$<<<&tO:5dO<8t3O;e2,2wt:71&:",
"&s883<o:>3319O->3oO<yae2-2,tdd6<<38>;33t.>g&8,<a>i",
"687i>$i<8o38$<<$32<8O%u&2dww1%e>Xt8<i>>s6>9>Ot3a92",
"u2&e>3a<01X2<ot6y<fiX><<:<%28.3>3t#1s<>h2eOawo%7a6",
"%82;u122>3>i1<o1823>1811-u>r<-31<w2>1<&t:21<8g>t>3",
"a2>6<<8%133s2#3>X88#Oa%382t>.3388>:dOs92<at>$>-<<:",
"8i2i$&3*33%w8:a2*d,2i-8e:&81Oe>>e:2t>22>s>2&6a<%;-",
"w3>6<-<:18>i1i+uw-8u8Oe*2<-13<><1u13iaOX362ai-y2au",
"-<1-<a@:w-w:2><:><:>tX>-u31$6e1j3<6y:88;i<:>1&<y88",
"+%X18:8ts:3#86<:6it>wO>8:>d232%>8%&2$71:,a:83>2u32",
"i62O,%&-8><3-yat-,O1o-<3-,-iw<&><o1-:ya2>3<&;8i66e",
"-<3 ws-13>oi8a2$2<%383-:2s>6uttr<o11t2:w3a:,O>8<#i",
":8&-253-8-1,%:t$1,<w>>8&aq#Ou$18$8,:-&<1-35;3$2iss",
"o68;<#:<>.;t6-<Oiwt-8<-1 1339:Oae<,2O-t<$,3<wws229",
"<;2>i1118,3:s-O;:>28<o:>O882<3O6t131:&3823O,;263%2",
"--O$u8a::a,#-<><<:893iO:t:$i<t:%6::22$9t1i2>w.:u2d",
"1<3Oa%:u><<1oy81<t8#6e*9<ou>%a&&d8O8<311%6s<-t8,:a",
":32&3,:iO<w:12u-8Oe8a1y5&33u,3w<3si;<2-w%68&;33wt<",
"%d82t-<3O3>$88$2<%3ug>a,69>38*336,>t,w:8the<3:,-:8",
"d><;%&te:s3,i<&3,o:>&%13tO12%O3>aw2u>a&&2232<>82<2",
":6i898<233<wiou>8;1188e&O-o616e3-3w>tif;#>r&31t2>8",
"s6><2>utwo2i:1:>32>s&$u16i6a8>95&t7<a%$h83a>&<38a8",
"t3&i52a26>#3<o;6u<fuX,1<-2%78&,<2t$%at2d>6-ue-%6si",
">e3t3<3>181i<<=1323,28:3-t2e<O3<-d28<<%<:3<,3h2t:6",
"<8>8>-8%3i3s>&8>$66#oa&682u%o8,8w%2dOa91<8u>%3+1<:",
"O2i2#1u-33$88>i2<s3:8-s8&#83Oe>&w3,t%i:>872&6w<>t:",
"O2382--:2e6u1uo38-83i*8*8<O<31et;13ie1:o<8ti<-u>83",
">:-<2O1>8322a%<>>i<>u %<2a3$88>8,>>t%8,ieuO2u$<323",
"i%&t2>a33*.<u8t;2w22r62e&:w88a>-u&2t<tO27t>6a68<&<",
"288ia68:-;i82:2o-i9>@i3d2t@7>ta,w<,2O:266>1w>8s:8d",
"2st8, i>d8128&&8288:d2688<i2-w2,r,1t&3w<a3<1&22>i2"
};
