/* XPM */
static char *c03dc4df6a87469eae16013bfcfa6638kx3t4fPL8kaV3N5l[] = {
/* columns rows colors chars-per-pixel */
"50 50 230 2 ",
"   c #2D3619",
".  c #232D28",
"X  c #2A352C",
"o  c #2B3A2D",
"O  c #273327",
"+  c #343B28",
"@  c #2F3C34",
"#  c #2F3B3B",
"$  c #2A3533",
"%  c #323D34",
"&  c #323D3A",
"*  c #232E30",
"=  c #1D2A0E",
"-  c #3B4429",
";  c #344234",
":  c #3B4534",
">  c #3A4936",
",  c #35433B",
"<  c #3A463C",
"1  c #3C4A3D",
"2  c #374837",
"3  c #424D3E",
"4  c #444737",
"5  c #43523C",
"6  c #485635",
"7  c #575A38",
"8  c #4C502D",
"9  c #5B623C",
"0  c #60673E",
"q  c #333E42",
"w  c #364342",
"e  c #3A4543",
"r  c #3D4B44",
"t  c #3E4C4A",
"y  c #3A464B",
"u  c #3B4850",
"i  c #424D43",
"p  c #414D4B",
"a  c #454A46",
"s  c #445244",
"d  c #46534B",
"f  c #49554C",
"g  c #4B5A4C",
"h  c #4A5746",
"j  c #525D4D",
"k  c #545A49",
"l  c #424F51",
"z  c #465353",
"x  c #4A5553",
"c  c #4D5B53",
"v  c #4D5B5A",
"b  c #48535A",
"n  c #525C53",
"m  c #525D5C",
"M  c #585F57",
"N  c #52624D",
"B  c #5D664A",
"V  c #546353",
"C  c #5A6554",
"Z  c #5C6A54",
"A  c #55635D",
"S  c #59655C",
"D  c #5C6B5C",
"F  c #566858",
"G  c #5E715A",
"H  c #4E604D",
"J  c #666A48",
"K  c #6E744B",
"L  c #697245",
"P  c #737A4E",
"I  c #616D5D",
"U  c #666958",
"Y  c #63725B",
"T  c #6A7658",
"R  c #757C55",
"E  c #7A7C5B",
"W  c #757658",
"Q  c #545E63",
"!  c #4D5A62",
"~  c #546263",
"^  c #5A6663",
"/  c #5C6B63",
"(  c #5B666A",
")  c #5E6C6A",
"_  c #576764",
"`  c #5E6A73",
"'  c #5D6772",
"]  c #5F7266",
"[  c #626D64",
"{  c #626D6C",
"}  c #696D6C",
"|  c #647365",
" . c #6A7565",
".. c #6C7B65",
"X. c #64736B",
"o. c #69746B",
"O. c #6C7B6C",
"+. c #677A64",
"@. c #717F6B",
"#. c #767A63",
"$. c #636D73",
"%. c #636E78",
"&. c #667374",
"*. c #6A7573",
"=. c #6D7B73",
"-. c #66737C",
";. c #6A757B",
":. c #6E7A7B",
">. c #737E75",
",. c #727D7B",
"<. c #7D7E70",
"1. c #7C825C",
"2. c #778154",
"3. c #73826C",
"4. c #7C836D",
"5. c #7C8667",
"6. c #738274",
"7. c #7A8573",
"8. c #7A8876",
"9. c #75837B",
"0. c #79857D",
"q. c #7C8A7C",
"w. c #76887C",
"e. c #6E8070",
"r. c #82875D",
"t. c #848A63",
"y. c #83836B",
"u. c #858A6B",
"i. c #888A67",
"p. c #8C936B",
"a. c #8C9565",
"s. c #91966A",
"d. c #858B75",
"f. c #8C8D73",
"g. c #868877",
"h. c #83927C",
"j. c #8D917C",
"k. c #899375",
"l. c #949B72",
"z. c #92947B",
"x. c #959A7B",
"c. c #9B9B7B",
"v. c #969974",
"b. c #9AA377",
"n. c #A1A67B",
"m. c #6E7A82",
"M. c #6D7782",
"N. c #737D82",
"B. c #737D89",
"V. c #768384",
"C. c #798584",
"Z. c #7D8B83",
"A. c #75818A",
"S. c #7B858C",
"D. c #7D8A8C",
"F. c #778880",
"G. c #7E8A92",
"H. c #7A8590",
"J. c #7E9087",
"K. c #828D84",
"L. c #828C8D",
"P. c #888688",
"I. c #859384",
"U. c #85928C",
"Y. c #8B9A8C",
"T. c #899987",
"R. c #969884",
"E. c #828D93",
"W. c #838E99",
"Q. c #859293",
"!. c #8A9594",
"~. c #8C9B93",
"^. c #86929A",
"/. c #8A959C",
"(. c #8D999B",
"). c #929E95",
"_. c #929E9D",
"`. c #97A287",
"'. c #94A294",
"]. c #94A29C",
"[. c #9BA899",
"{. c #97A89C",
"}. c #A4A983",
"|. c #A4A48C",
" X c #A9AB8B",
".X c #A4A886",
"XX c #AAB288",
"oX c #B5B98D",
"OX c #A9AC94",
"+X c #ABB297",
"@X c #B4BB93",
"#X c #B7BA97",
"$X c #8E9AA3",
"%X c #8C96A1",
"&X c #929DA3",
"*X c #949EAA",
"=X c #95A3A3",
"-X c #99A5A4",
";X c #9CAAA4",
":X c #96A2AA",
">X c #9AA4AB",
",X c #9DABAB",
"<X c #9EAAB3",
"1X c #9AA7B3",
"2X c #9FB1A5",
"3X c #A1ADAD",
"4X c #A2AEA4",
"5X c #A5B2AA",
"6X c #A8B6A4",
"7X c #B8BBA6",
"8X c #A2AEB5",
"9X c #A9B5B6",
"0X c #B1BEB5",
"qX c #BBC198",
"wX c #BAC4A4",
"eX c #BAC8B8",
"rX c #C3C79D",
"tX c #C6C9A7",
"yX c #CCD2A6",
"uX c #C9CAB5",
"iX c #D6D8B7",
"pX c #CDD5B8",
"aX c #DDE2BC",
"sX c #E3E9BD",
"dX c #A6B2C3",
"fX c #B6C4C5",
"gX c #D8E5CA",
"hX c #E6E9C4",
"jX c #F6FAD3",
"kX c #EDF5D1",
/* pixels */
"tX7Xu.y.z.d.g.|.uXuX|.<.R.y.f.tXuX#Xv.z.j.<.R.R.7XsXoXu.k.j.8.+XuX#X|.f.i.f.z.c.7XuX7XP.g.g.<.P.P.P.",
".XtXwXx.W c.z.uXuX|.W g.y.R.z.|.W aX|.c.7.R.z.wXaXn.r.R f.j.|.0Xy.uX X Xy.z.z.|.aX|.f.#.f.f.7XuXR.P.",
"kXaXi.p.iXiXW  X XJ |.#XOX|.f.#XaXjXoXE tXhXc.t.tXL l.oX#XtX} z.hXjXoXi.#XhX XE tXE f.f.|.f.#Xz.W } ",
"tX1.K P #Xp.a.J i.tX XtXuXc.J E oXs.W W |.b.1.L 1.n.rXn.aXz.y.#. X}.E 0 n.v.i.K y.c.iX#Xf.8 y.hXOXP.",
"n.a.2.qXK 2.XXjXyXa.t.r.v.8 E K n.a.L XXr.9 n.sXsXs.s.r.s.7 E U s.v.J oXv.7 n.sXhXv.yXsXv.P rXiXy.f.",
"yX0 a.b.n.P b.sXhXtXtX}.oXc.9 qXiXs.a.b.}.s.a.yXsXyXoXoXoX#X7 c.aXv.i.n. Xs.i.#XjXoXi.i.r.s.v.n.yXc.",
"b.b.l.2.qXs.8 0 p.XXs.J W y.z..XoX2.b.P XXl.7 0 2.rXn.E 7 W c.|.rXy.}.K n.n.9 0 r.0 9 c.iXsXrXqXoXE ",
"qXqXb.t.2.2.a.b.K 5.v.#XE 5.E z.rXrXb.a.5.2.s.b.P P E tXf.y.i.y.oXtX Xi.i.r.1. X|.7 7 rXjXoXE E c.W ",
"XX2.- 2.T 7 K l.B b.`.OXB + 4 y.`.k.6 6 T 9 L i.r.E OX|.W 7 + U |.`.7 8 W k 7 U i.  K #.5.J 7 f.#Xy.",
"q.3.> ;     ..+X..3.d.j.M 4 k M 3.h.6 = -   k OXW i.} R.<.4 U k #.f.4 + 7 + J R.iXg.k U d.y.U R.<.k ",
"G h Z q.'.T 4.3.4.4 3 C a k <.n F O o 3.+X3.Y 4.g.U a k a 4 k U M + 4 y.7Xg.4 } g.o.+ a k k k 7.U 3 ",
"] H 3.eX0X..C h j n i o.,.} y y @ f D 2XpXh.C n k a N.N.<.} X * . % } ).0X4Xn M [ M 4 f i d f i a a ",
"Y.w.O.9.O.q.>.h 1 3 [ ).:.*.P.E.L.*.n ~...O.8.; ^ *.N.L.P.B.} b d K.} >.K.>.P.[ } [ x a A *.0.{ *.>.",
"=.D.D.w.S Z.q. .; s P.]._.;.E.P./.-X*.O.s j O.9.} N.%.B.P.W.*X<.d U.I.0.S f Y.4X_.).[ e :.:.&.} ,.,.",
"V.&.X.*.=.o.g ; s . f Q Q m *X>X&X9X_.a o ..T.F.C.;.-.$.;.E.P.P., h S p x I.).!.[.!.q b ;X(.D.V.$.} ",
"V.=.9.;.>.g r i % r o O X $ ^ >X>X,X~.o O.{.U.-X/.G.H.B.-.;.M.N.p & % n X.*.,.*.,.;.$ N.G.&.D.D.C.L.",
"J.~.(.~.F.c & < n g % 3 h.h.h h >.:.# , ` G.<X<X<X$XG.1XG.G.J.-.&.b $.B.;.;.,.;.,.} m a z ] e.D.G.%X",
",XG.=./ A c / w.>.I.8.q.+X[.T ..@.I.F e , , e.1X1XdX8X:X8X:X=X$XQ.$.;.P.N.B.H.E.C.,._ y t _ F._.H.:X",
"_.] r w e t _ *.).4XY.o.q.Y.7.h.3.3.s 2 2 o w t G.J.) ) F.e.e.J.U.;.,.S.Q.Q.E.%X/./.:.v 2 g e.J.eX1X",
"e.t r m A m c d A ,.F.o.U.OX>.V 3.3.H s g r r ; , ] c ] e.eXq.F } [ X.C.W./.E.W.%X:X(.V.g ; 1 H F.,X",
"_ t g X.=.&.) v r e e e } <.} [ Z 3.e.6.e.] d o ~.J.D J.w.2Xe.H + ; g { D.,X1X<X*X<X3X;X=.H e.I.F ) ",
"t t c X.:.9.;.*.) l b { ,.,.&.,.I.q.w.9.F.U.J.w.=.=.9.F.J.Y.q.H 3 ; 3 d ^ D.(.$X*X,X8X0X~.e.'.2X2XF ",
"r F X.F.L.Z.C.S.S.{ } ;.;.;.} *.v b _ &.9.V.S.G.$XJ.J.A.F.) e.~.K.V s a r c V z { ,.U.=XF./ X.v e._ ",
"; _ e.J.U.E.L.!.E.S.E.m.;.W.E.$._ y u ` H.^.^.$XG.1X$XA.-.-.9.=XU.d e s a s h 1 & , ; t t v G.e.] c ",
"r , w.J.,X2XD._.(.&X*XL.Q E.E.H.-.u _ u A.:X(.3X8X(.X.u t y _ G.M.a Q & + : 5 T.6X3.r ] :XG.G.G.-.] ",
"e.t c ] U.=X;X8X8X*X*XL.$.$.H.3X$X%.u t v ` 2X5X8XX.w , _ u t ) $.&.:.>.D Z 5.gXgX3.w.'.<XfXdX1X=X$X",
"q.] ; {.eXU.;X^.&X3X0X/.$.l N.4X2X~.F r _ H F T.w.F t r ] e.X.u :.%XQ.P.C C 4.k.N Z w.'.G.G.dXdX,X=X",
"e.G ] w.Q.,X*._ } /.Q.m z a /.9X2X2XY.e.{.eX'.6 G 2 1 G e.e.e.v Q W._.*.h : Y Z 3.2.s ) J.A.M.` A.F.",
"D g e./ / J.z z ^ *.m r p n F.J.2XeXw.] e.G J.G H 2 g ] F.w.F._ * y m 1 , @ H J.e.1 2 ; c v u J.G.G.",
"/ | ] J.e.z r 1 n g d s 3 2 1 1 t ] r V J.] G F 2 t e.J.J.G.(.-.a X x A , ) 9.V.w._ z t , r c c ] ) ",
"e.=.J.| X.| s , , , h O > C +.v w u D.=.X.F.w.t r 2 ) (.1XG.G.$XS 3 S ^ t A.H.%.A.G.&.] v t g ; _ ] ",
"9.&.V.Z.].D.=.c < g 6.; 6.gXkXJ.9.(.*X9XeXG.].G.e.t u ) G.:X1X$X4XI.s @ &X>XM.A.G.$XG.G.~.G 2 ] ) V.",
"-.Q %.H.A./.=XC.x ; s ..h.6Xk.N D.*X-X>X9X0X9X,XL.;.p x Q.-X].2X).o.i w ) E.S.m.Q./.&X4X_.} $ P.D.V.",
"H.A.M.` ;.S.!.-X!./ ; j Z Y Y 3.^ S.D.B.B.S.E.L.L.U./ | 0XwX6.O.S p @ & t d d p P.8X-X8X&XX m Q././.",
"/./.G.S.E.N.$.{ { ,.r % g 3.3.H X s / | X.,.q.K.w.f D  .H ..j.g % & e < , X t , a C.K.U.*.. K._.&X>X",
",X/.].-X(.!.W.;.$.( p c =.D.=.f i 2 2 , 1 n o.q.V I Y ..h.3.N > d A } [ ] D eXwXn h K.>.@ m a } $X<X",
"6X).'.].U.L.C.*.;.q b ;.;.N.A.V.C s j h 5 s g F 0.| o.@.I C j 3 *.9.~.~.T.] {.q.T.e.G '.r @ # $ ~ &.",
"j g 3 A U.D.Q z y q D./.m.B.^.E.U.6.8.F e n } 9.*.,.K.Q.Z.>.=.w.) ~ :.'.{.3.T.`.T.Z e.e.g c w w * # ",
"I.8.F @.5X{.} m p w S.>X!.-.D.Q._.).-X{ p *.N.;.*.%.$.;./.&XE.D.;.~ v _ F H +.I.T F e.] ] ] &.~ _ ~ ",
"8.3.8.).[.I.X.v a # & d ^ Q ~.-X-X=X=Xz w E.*XH.H.-.%.-.` B.G.-.` &.&.] ] D F G G N e.e.F.F.G.D.G.J.",
"h.o.D =.U.K.=.S , & ; o o . V '._.5XQ.# ;._.>X&X$XW.E.B.S.` ' ` ` -.m.9.F.w.] s 2 H ] J.J.G.=XJ.G.J.",
"g h c | q.Y.).'.K.V : h h.7.B 1 >.=.& $ *.E.&X3X*X:XE.>X%X&Xm.;.A.A.H.D.D.F.=./ r r e.J.G.;X=X3X{.e.",
"r r p n *.Z.q.9.o.q.8.3.[.`.5.e.3.Y.f < o < X.].3X0X5X].{.{.T.9.` M.A.D.!.!.U.g.H , t ] =X9X$X8X_ r ",
"^ ^ m x n S c e [ [.[.3.h.`.5.3.G q.h h o o X ; 6.D C [ q.@.3.8.~.G.(.G.^.].&X&Xe.v t t y e.eX~.g s ",
"*.9.:.^ x x d r S w.*.H h.T.3.N h.| g g F n < < s @.I I 3.eXk.> ] D.=X_./.4X3X4X&X:.[ {.2XX.F / r r ",
";.V.V.,.*.{ Q d # e 2 1 8.8.2.3.o.} q.>.9.o.h % U.I.| @.8.[.3.g O _ U.~.!._.3X8X0X~.,.>.{.'.H s r g ",
"C.C.C.L.U.D.$.v z t w , A ] X.J.E.!.Q.N.D././.{ Q X.9.K.'.[.7.I s a s e a x } ;.Q.f o.>.j D Y 5 s e.",
"(./.!.W.W.E.E.D.Q $.&.d t v w.G.Q.^.B.W.H.S.%XS.z m & A S !.K.~.I.I p s x a e e y [ ^ 9.h.Z 1 - r w.",
"/.>X:X&X*X*X*X*X} ( ^ a v { N.P.E.S.H.G.%X$X$X%X~ # p D.,.P./.&XL.{ i 1 h h & D !.&X&X^.D.V.e.F c c ",
"/.>X*X*X*X*X*X>X( Q S a v { ,.B.G.S.H.W.$X:X:X*X` w x /.D.S.S.M.*.m a < 2 3 2 9.=X<X<X1X*X=XG.J.F v "
};
