/* XPM */
static char *_ad020c115db4945e216d099fb821159GnJIUZ34yXhqIUja[] = {
/* columns rows colors chars-per-pixel */
"50 50 237 2 ",
"   c #060402",
".  c #0C0504",
"X  c #0D0A06",
"o  c #0D0B09",
"O  c #120606",
"+  c #130A06",
"@  c #1B0A06",
"#  c #140C0B",
"$  c #1B0C0C",
"%  c #0F130B",
"&  c #14120D",
"*  c #1B110E",
"=  c #140F10",
"-  c #0F1A11",
";  c #151111",
":  c #1C1412",
">  c #1C1A15",
",  c #1E1B19",
"<  c #191815",
"1  c #210D0D",
"2  c #290C0E",
"3  c #22130E",
"4  c #2B120E",
"5  c #26180F",
"6  c #2C0F12",
"7  c #230F10",
"8  c #3A0E11",
"9  c #221514",
"0  c #2B1515",
"q  c #231916",
"w  c #2B1A16",
"e  c #251C1A",
"r  c #2B1D1C",
"t  c #2C1618",
"y  c #331413",
"u  c #3D1416",
"i  c #351915",
"p  c #331519",
"a  c #331C1C",
"s  c #3A1C1C",
"d  c #391817",
"f  c #380F0E",
"g  c #1A211A",
"h  c #25221D",
"j  c #2C211E",
"k  c #282013",
"l  c #33221D",
"z  c #3A211D",
"x  c #2D1E20",
"c  c #371E21",
"v  c #252422",
"b  c #2C2322",
"n  c #252823",
"m  c #2D2924",
"M  c #2E2A29",
"N  c #28292A",
"B  c #332523",
"V  c #3A2424",
"C  c #332925",
"Z  c #3A2A25",
"A  c #352C2A",
"S  c #3B2C2B",
"D  c #3A2528",
"F  c #2F302D",
"G  c #35322D",
"H  c #3C312D",
"J  c #3B392D",
"K  c #353432",
"L  c #3D3432",
"P  c #3C3935",
"I  c #3B3A39",
"U  c #343431",
"Y  c #451D1C",
"T  c #4B1D1D",
"R  c #461917",
"E  c #581D1F",
"W  c #45231C",
"Q  c #57221E",
"!  c #491C21",
"~  c #5F1D21",
"^  c #711B25",
"/  c #681D21",
"(  c #432423",
")  c #432A24",
"_  c #432C2A",
"`  c #4C2C2D",
"'  c #492727",
"]  c #522224",
"[  c #5B2525",
"{  c #542D2C",
"}  c #57292A",
"|  c #43322D",
" . c #4B332E",
".. c #413026",
"X. c #57342F",
"o. c #4C2E31",
"O. c #552D31",
"+. c #433533",
"@. c #4C3534",
"#. c #443A35",
"$. c #4C3B35",
"%. c #443C3A",
"&. c #4B3C3B",
"*. c #473639",
"=. c #523433",
"-. c #5C3132",
";. c #523A35",
":. c #533D3B",
">. c #5B3D3B",
",. c #543938",
"<. c #632829",
"1. c #662728",
"2. c #74292D",
"3. c #75292E",
"4. c #682A33",
"5. c #653639",
"6. c #773537",
"7. c #733330",
"8. c #3C423B",
"9. c #45423E",
"0. c #4C423E",
"q. c #434135",
"w. c #53413D",
"e. c #5A423E",
"r. c #58463B",
"t. c #66423F",
"y. c #483E41",
"u. c #5F3F42",
"i. c #613840",
"p. c #464444",
"a. c #4C4442",
"s. c #4E4D4B",
"d. c #4B4A46",
"f. c #534443",
"g. c #5B4442",
"h. c #544A45",
"j. c #5C4A45",
"k. c #544C4A",
"l. c #5B4D4B",
"z. c #5B4748",
"x. c #56524D",
"c. c #5B514E",
"v. c #5F5241",
"b. c #555352",
"n. c #5C5453",
"m. c #5A5A54",
"M. c #5B5B5A",
"N. c #575757",
"B. c #624543",
"V. c #634A46",
"C. c #634C4B",
"Z. c #6B4848",
"A. c #754646",
"S. c #64524D",
"D. c #6D534D",
"F. c #645246",
"G. c #74534D",
"H. c #724A53",
"J. c #625453",
"K. c #6C5554",
"L. c #665A56",
"P. c #6B5956",
"I. c #655C5B",
"U. c #6A5D5B",
"Y. c #695559",
"T. c #735652",
"R. c #755A55",
"E. c #725C5B",
"W. c #795F5E",
"Q. c #624F51",
"!. c #5A615A",
"~. c #63635E",
"^. c #6C615D",
"/. c #79655D",
"(. c #5E5E60",
"). c #6D5D60",
"_. c #656364",
"`. c #6C6362",
"'. c #6C6B6B",
"]. c #696867",
"[. c #726462",
"{. c #7B6662",
"}. c #736965",
"|. c #7B6965",
" X c #746C6C",
".X c #7B6C6B",
"XX c #7A6469",
"oX c #6B7369",
"OX c #7D726E",
"+X c #74716B",
"@X c #786E71",
"#X c #737374",
"$X c #7C7474",
"%X c #7C7B7B",
"&X c #777979",
"*X c #6F6F71",
"=X c #892E2A",
"-X c #822A32",
";X c #893535",
":X c #943639",
">X c #9B322E",
",X c #A13439",
"<X c #883B45",
"1X c #A13C42",
"2X c #864A4E",
"3X c #81655C",
"4X c #866B68",
"5X c #83726D",
"6X c #8B746D",
"7X c #94766E",
"8X c #827371",
"9X c #857C7B",
"0X c #8B7A77",
"qX c #977976",
"wX c #8D6C75",
"eX c #8B817D",
"rX c #97837A",
"tX c #837E81",
"yX c #7D8683",
"uX c #8D8582",
"iX c #8E8B8A",
"pX c #888686",
"aX c #928483",
"sX c #9A8483",
"dX c #9B8C8C",
"fX c #948C8A",
"gX c #97918E",
"hX c #999896",
"jX c #8E9494",
"kX c #A28887",
"lX c #A59998",
"zX c #AA928E",
"xX c #ACA29F",
"cX c #A8A3A2",
"vX c #B2AFAC",
"bX c #C3B9B7",
"nX c #D7CECB",
/* pixels */
": , M x K x : 9 r e e x v , p S S B h q v c b m C S D L +.L *.@.:.h.l.S.D.e.j.V.V.g.j.h.h.h.f.=.&.@.",
"m ].*X_.%Xk.* L L.Y.f.L m p ( r.K.V.#.w c z.).`.).a.L +.b A L *.%.S 0.f.E.5X{.L.|.T.:.e.j.L.V.,.f.f.",
"%.$X]._.%X].m L.L.J.C.J w !  .V.R.3XV.9 c gXcXtX_.k.K L A L L L L * e &.l.sX0X$X5X.XV.Y.U.S.w.:.J.n.",
"p.'.'.]._.M.L ).U.:.l.q.s } _ w.G.G.r.q o.lXhX&XN.M.H M L %.%.a.I e r 0.J.XXOX^.^.}.w.n.^.h.e.V.`.U.",
"v %.y.I I I C J.l.*.I w 8 ,.&.@.B.V.>.j :.pX%X#XM.b.A j L L L h.+.P | f.K.S.v. .w.l.a.x.c.0.,.5.0.0.",
"e e > > e b : w r 9 - V ` q * 0 Z  .` t B 9.%.d.I b b j j b b | B B L f.w.&.w.w.B.:.e.&.Z W 5.} B B ",
"r e a l w l Z l e & # u c $ # > e h w d m j 0 > S 0.h.h.#.0.h.@.u.f.}. X}.S.K.^.R.Z.B.5.>.>.{ X.}..X",
"9 B +.$. .| w.w.H * s ( t c 9 > H L V 5.m./.C.H .XlXeXaXgXcXkX` 0XcXhXgXgX9XK././.6X7XqXqX/. .L.nXnX",
"r n S '  .H ) >.l 5 <.O.F L n j y.Q.u.g.^.tXP.M OXdX8XlXvXbXxX$.pXvXcXjXpXiX~.G.qXrXqX0XzXsXw.l.bXbX",
"r B _ _ :.&. .H J d O.&.N.9.h S n.U.B.K.OX8X&.b }.uX$XOXaXlXfX#.aXvXgXiXhXhX].G.7XrX5X6XrX6XB. .qXzX",
"e V o.S Z z B j w 8 z p.].b.m :.`.D.K.U.E.J.L r n.[.I.}.eXgXeX| gXkXH.~.%X%XU.D.3X|./.4XXXr.=.W ! } ",
"< 0 t r a 9 e r y d j 8.L K e H &.,.S.l.f.B , B A b #.f.&.v. .z 9.E.e.J M a.J.H.T.X.{  .H r 0 y s s ",
"e e < e B e j z p p b a r e a q r t 0 > c b h S S A j Z _ B.R.4X|.V.V C S j.^.6X5XG.V.Z h b r p 0 y ",
"G P K x x e B W a &.j.,.C G z.h._ j.d.&.B +.P L L L H B R.7X4X6XqX2Xi 5 @.E.5XhXhXdX8Xf.H  .' T Y T ",
"K U I , ; l } E @.J.F.$.r L n.S.>.OXI.&.L 0.%.+.L C q J 3X4X7X7X7.7.u R 5.^.+XeXsX8Xl.&.w.5.5.[ { W ",
"K F I N ; ' 6.7.$.j.S.J r A m.{ H.^.d.*.L G L A v , < H G.7X7X3XR 1.R E ] *.S.U.5.=.S +.;.t.{ Q ] T ",
"N N N g + E 4.j V +.&.S > A  .[ #.f.&.S C D r : ; # m 0.=.@.w.c y [ R R T d 0 v i Y -.=.$. .a y Y Y ",
"# = , % @ 8 a 9 9 r r 9 * w c ( C b A S A C A A C *.o.*.%.+.V & 3 u 2 R u $ & & 3 i ` _ 0.H B B z p ",
"> : 9 & w 4 o # m f.L.x.f.=.V e L S &.%.&.L C +.c.n.).XXb.C a 0 2 4 4 f y 5 y J f.P.K.L '._.N._.C.` ",
"< t q 0 y % o q a.n.U.^.K.u.D v #.p.&.+.L A e h.*XU. X&XN.%.:.' <.Q W R W ~ ^ ^.dXsXXXa.9X&X(.b.J.*.",
", e e y : - : w L b.U.[.Z.y.D v +.L S A S j 9 n.OX$X%X&X_.8.%.} 1.2.1./ 2.2.<X0XsXdX[.y.8XI.a._.M.p.",
"; - 7 6 O = # 9 t L L ` ' f.+.q S v C v v > e %.l.~.#X$X].%.=.O.Q 2.1.2.^ W ^.5X^.L.0.+.k.%.I a.s.q.",
"# . 1 1 O # # 0 e r 0 r b C r e C e e : * 9 b S F P &.9.a.4.4.C ( ] W <.1.k 8.' B H G #.y.&.#.f.f.w.",
"L 0 + * B N h q n B t e K L H L S L S +.+.S +.f.&.m j { 4.W l l 3 : > i s i } 4._ w S g.B.:.h.D.C.C.",
"B.V r r $.+.Z _ $.V 3 a.*X(.(.(.(.%.A [.n.J.`.[.Q.#.C &.w.P $.=.+.#.e x N.[.2X4.H  .0.$.Z.R.V.C.0.j.",
"` _ S S $.S H e.:.V # a.@XN.b.M.N.A L c.J.[.`.[. X9.m l.l.K.D.Z.f.}.< &.pXiX4XH ;.t.V.e.t.S.5.;.) f.",
"! &.C D C A G  .V B 9 d.#X]._.b.m.L C y.`.^.J..X.Xf.j z.C.[.j.g.x.j.> I wXsXn.S X.t.B.=.r. .X.;.+.w.",
"c L e q 0 j h w w e : y.).N.N.b.s.M r &.^.h.w.^.U.&.V D L h.f.+.x.i.e L H.c.d.S 0.;.z z  ...$.w. .$.",
"0 > < : $ @ $ 2 9 0 * C +.M K M N r b B r C b 9 v > , x c c c t g L : b G h =.s 0.:.j #.@.,.%._ Z &.",
": * e : # 1 0 s l S C e e , , = < v ; 0 b A p.n.U.k.I.b.b t c q < b S @.l l 5.5.&.z.q.J h.*.K _ #.%.",
"j l B < : d ! _ &.+.S x : # # < ; x q q ; k.hXtXlXz.fXcXp.B +.G | O.r.D.H H u.g.0.r.6.Q 0.A A S L A ",
"9 c p ; : p s Z S x x q : ; # ; ; e e $ , s.%XtX}.z.cXyXI V s a W $.$. .l H S G m k :X:X .n x h h h ",
": 9 $ $ 9 r C b B r > X : > * # o # & * * #.m.m.~.*X~.m.G B C t C S B S C C j * n ) <.6.r.C n A A C ",
"$ * $ : v q O : B C m &.y.&.q 9 e r B S C C j h A p.#.A q j L 0.c.S.[.U.l r #.S.|.R.A.3XX.-.5.E.*X*X",
"b t q q x # $ %.n.l.U.[.[.}.C : @.;.$.w.$.9 q b *.&.x.#.v B L.}.[.J.[.J.C +.5XR.5XT.t.2X=X=X1XD._._.",
"t r B x x $ > k.l.L.I.[.|.U.b e T.G.) z @.r 9 e C %.l.%.j A }.K.[.l.`.[.%.B qX4X/./.3X6.t.=X:X6.d.p.",
"r 9 q : $ : r f.k.C V K.c.n.q C R.;.z  .S C q e v A H A r Z &.&.a.f.y.a.A j |.4XF.E.T.6.>X>X>X;X%.I ",
"O O $ # # $ : r : V t &.L b * j +.0 ) | q * # < , o e e r c V ` C C q q X O C  .C l l } >X;X;X;.S A ",
"; : : : 9 q r r w w 1 $ e G 9.S t w 9 9 l j e 9 e : e b &.h.P.c.U.a.q   : h A # a !  .X.-X<.3.7.D D ",
"m h ; : e b C S :.Z @ %.].%XtXJ.$Xa.* }.^.h.n.&.h.&.$ J.OXOX.X5X$X&.x A $X'.&X9.e Z.r.6.-X` W 3._ Z ",
"C m $ e e e x B B a @ J.@X*XtXiXhXk.A aX}.c.L.I.uXl.B .XE..X8X0X8Xc.q %.gXgXiX&.) F.Z ` 4.' l  .D B ",
"b A > : r q e C t 9 $ c. XF _.@XpXk.n U.U.l.k.U.aXU.q L.U.8X$X`.U.I.e *.pXpXpXh.3.{ ..V 5 k j Z t V ",
"b A > $ $ * : r * 9 $ S b.b.].(.(.p.e *.*.S S h.I.k.: p.h.c.#.&.y.&.m L p.k.x.A 4.z k z & & r l q B ",
", > : < # # 9 ; q $ : $ > K x C A e , B v q e m H : X # : 9 3 * e t r r q > q t p > # t a e z 4 r A ",
"= o ; , ; 9 x q # . $ : $ O . e q ; q e q e ; o ; x K I 0.e : $.u.&.:.u.| l #.V %.L x D Z *.F e e 9 ",
"O .     = o # : O $ @ @ * > : # 9 9 ; # ; ; * x N.'._.@X*X+.S C.z.r.g.C.&.+.0Xf.I.E.L v &.a.p.%.I , ",
"o o = o = o O # @ $ 7 $ * e * * : * # o ; # ; &.s.%X*X].].L Z S.r.D.e. ...| 8XU.[.XX+.C M.N._.`.N.v ",
"o   o X . . # # @ 7 6 7 * # O O : ; < e < ; ; A M._.*X&X#XS Z T.r.D.r.) j +.uX.XU.&.+.b b.M.`.M.N.x ",
"      . @ $ O $ $ $ @ $ $ # O $ $ # = = # @ , v a.a.k.k.n.v r A +.*.D b r A f.k.s d y y z 0.b.b.a.v ",
"o o o   O # O O O O O O # O O $ 6 # = ; ; 9 q x ; e h < e $ * : : 0 9 e e 9 b j 4 i d y 3 e b m b $ "
};
