/* XPM */
static char *_010_09_04_12_03_38__1_1671732885[] = {
/* columns rows colors chars-per-pixel */
"50 50 105 2 ",
"   c #1D1F2B",
".  c #1D2228",
"X  c #262127",
"o  c #24252B",
"O  c #29272C",
"+  c #262930",
"@  c #282B32",
"#  c #2B2F3B",
"$  c #3E2E31",
"%  c #2E343B",
"&  c #393035",
"*  c #36353A",
"=  c #3B343C",
"-  c #422C2E",
";  c #432E32",
":  c #463133",
">  c #4B3436",
",  c #4D3C37",
"<  c #463639",
"1  c #4B3639",
"2  c #44393D",
"3  c #4D3B3B",
"4  c #523531",
"5  c #513B37",
"6  c #593A37",
"7  c #533D3C",
"8  c #5B3E3D",
"9  c #4F413D",
"0  c #54423E",
"q  c #5A413E",
"w  c #57493E",
"e  c #62453E",
"r  c #2F3541",
"t  c #443E45",
"y  c #4B3E41",
"u  c #4F3F49",
"i  c #533D40",
"p  c #583F42",
"a  c #503E4A",
"s  c #4E4243",
"d  c #45434C",
"f  c #4B424B",
"g  c #4F484F",
"h  c #544343",
"j  c #5B4543",
"k  c #554946",
"l  c #5D4A45",
"z  c #54454B",
"x  c #5B4649",
"c  c #554B4B",
"v  c #5C4B4B",
"b  c #5D5147",
"n  c #5D514E",
"m  c #554C53",
"M  c #5B4E51",
"N  c #5A4C59",
"B  c #5D5252",
"V  c #5F565B",
"C  c #624544",
"Z  c #634A46",
"A  c #6A4C46",
"S  c #63474A",
"D  c #644C4B",
"F  c #6A4D4B",
"G  c #704F4A",
"H  c #605247",
"J  c #65524E",
"K  c #6C524D",
"L  c #71544D",
"P  c #79574E",
"I  c #634E51",
"U  c #694F51",
"Y  c #645353",
"T  c #6C5452",
"R  c #675854",
"E  c #6B5955",
"W  c #635559",
"Q  c #6B5658",
"!  c #665A5A",
"~  c #6C5A5A",
"^  c #725552",
"/  c #745954",
"(  c #7A5C55",
")  c #715458",
"_  c #735C5B",
"`  c #7A5D5A",
"'  c #6E605E",
"]  c #73615E",
"[  c #7D625C",
"{  c #665960",
"}  c #6A5E62",
"|  c #725E61",
" . c #7B5E60",
".. c #6D6262",
"X. c #746263",
"o. c #7B6363",
"O. c #7C6A66",
"+. c #73646B",
"@. c #786A6A",
"#. c #815F56",
"$. c #81625B",
"%. c #816661",
"&. c #876963",
"*. c #8A6C64",
"=. c #846A69",
/* pixels */
"v y < : 7 x , 8 8 j D Z 0 j D I h E D x T ) _ T / F Z ) ^ j w Z T w J T w l J b w v Z h h j j , h 9 ",
"V h y i x x 7 l q C D S j l I I 3 Y v l K T T K U F F T K Z Z J H 0 J H 0 w l Z h j j , < h j h 0 3 ",
"h $ ; 1 , 3 > Z j j Z Z j l D x 3 D v D U F U ) C C F Z Z Z J ^ Z 9 l Z 9 0 w w 0 0 q 0 0 8 0 0 0 , ",
"c < 1 1 1 8 l ) l j S D x x v x h D D T U S L ) C S F F Z D K T Z 0 H C 0 q q l w 0 0 j l 0 3 0 h , ",
"x 7 p > ; 1 p p C S F ) S D I I v D S _ T S / $.S U ) G K K K K ) Z J J Z D Z J J h 5 0 0 0 h v h 7 ",
"c a I x 7 S F C C C U T I S U I D D U _ K S ) ) S F F G K K F D / F ^ J Z D l D j 0 9 q k h x v p 7 ",
"i - p i > p C j j 8 F U F D I D v v F _ T S / ) e C F F A A F L ^ F K Z Z Z 7 Z 0 7 0 l Z b x 0 i , ",
"N ; 1 p : i F F C 8 C ^ U I T S x l I ` ^ F / G 8 C F F F Z ^ o.^ L K Z D Z 0 Z w j j j v v x 0 h 7 ",
"p ; 1 p 7 7 7 p 7 7 F ) T S F S j F U F K L L L A G e Z / K J L L L [ E w H Z x 8 D S 8 l J b 9 h j ",
"S p I x j S p 5 6 7 S T ^ T T F F U ^ T ^ ^ P ^ #.#.A ^ ` D e J G A / K H L J J v I Z p w b b l j h ",
"1 7 S j 7 C p 5 l l C F T T J D S S T ^ ^ / L L #.^ C G / j Z L ( P ^ G H j 0 j j C C 8 q 9 9 w 0 7 ",
"p : i x j j j T Z S l S K K C j j x F T / ^ L A #.G e A K A T [ P G G H K Z 5 C C F G A J q j J , , ",
"x 1 p M j p p D j C C Z T T Z Z S v D K / / ( L %.#.^ G L L ` L / L K T _ J p D p S U C 8 8 0 l h 8 ",
"i i D x j S j 0 j F S D ) ^ S K T J l D T / [ [ ( #.( ( ^ ( [ Z [ ^ ^ E ~ Y h v I ) ) S l l v T h h ",
"p p D x S T D S l / T F T K l F R D l F T ^ ^ ^ ( ( L P ^ ( %.^ A w J R J E Y Q N I S S j 3 9 l 0 0 ",
"x 1 3 j p j p S j ) ) S K S q T Y D H ) [ ( L Z &.P F G F ^ &.[ E b R R b B Y I p x S ) R 0 < v 3 h ",
"p C p 7 q C 6 K Z L %.o.Z j Z l J A J K / ^ K Z %.( ^ K ^ ( $.` K l T L H Z w j 7 E T h v v x Y 0 q ",
"p i 8 p Z C 4 C A / %.$.J K _ _ J / ^ Z Z _ ` K &.( / ( ( / / G L Z T T J K J J Z _ D 7 Z D 0 j l l ",
"I p j S T A q F e A / / D F T ) J / / J F _ ( ^ [ ^ ^ / / ^ / ) T Z K L A K K J w K x 5 v v 7 7 v Z ",
"x 1 5 7 8 p 6 F F F ^ K Z D T ) Z A ^ ( ` ^ F F / K F F G / %.$./ H K H Z J Z Z 7 J Y Z Z l j l w k ",
"I 1 p j 8 j C ( F L K F F F U G A F L / ( L T ^ ( / ( J S ( %.( ] e / L A H C Z Z K F C j j l j 9 9 ",
"i < p j 5 8 q L C L F A F F F ) ^ / L C S ^ ` ` / ` ( / T ( o.) P L ( / K L J K ^ D w 0 0 C H l 9 9 ",
"x i I D x D K L A / ^ L ^ ^ ^ ` / ( L S A ( ` ( / ^ / / K ^ _ ( [ K [ / A G A ^ / K Z Z Z ^ / J 9 3 ",
"c i v h 5 Z F S 8 F F A G U S ^ ^ A F ( ` ( ^ / %.^ K / J w K _ L e L A e q e L J A K K Z j l q h h ",
"s h h 7 7 j J ( | c U Q U F ( G / K K ^ L L P P %.L Z L K A T =. .U F T j j J A F G L ( T e w b , 3 ",
"z z i 8 q e C S S i I Q U F P L L ] E A H [ [ P *.( L ( / J J ` ^ F ) ` l j K J G ^ / K K H b l 0 w ",
"M Y z 8 F A C l ) x I o.) ^ ` ` ^ _ / A L [ [ P $.P L ( ) F T ` ^ S ] [ l j ^ K U ^ P K K H b k J J ",
"M I j p K K S A _ C c Y D S F T ) J H E P L P ( L A A K J D T o./ Z ^ E 5 8 ) ^ G C A / ^ w 0 b k j ",
"a M i 7 C A C A [ D l T R Y F K / Z Z T P / L ( L G G K Z Z K _ / Z K K , q ) F F C F G K 0 w J l x ",
"u a i 7 6 e G A C q j v T D C l / E F Z A ( [ ( L L L L K K T ^ [ ^ / ^ H K ) G F ) L C q v J J j w ",
"m a x C 6 e P A C S Y Q _ ~ J J _ T D Z H ( [ P G L ^ L K ^ E K T P P ^ / / ) ) G ) G 8 6 S b k J H ",
"N a C A 6 G #.A q F T I Y I Z D ] D Z L [ L L [ P P K C C J K F e L K H R T G ^ G S C C l l h , h j ",
"x i p > 1 x D Q I i i D v h l D T q Z [ / A A L L L e w l K R _ J v E w H J J J j j j x Y D h < h s ",
"x y i 1 y D x I Y x D ~ Y x x D J T / T K [ [ L / T H Z Y T Y T J Z ] T ' T J T 0 J Y D R Q v 7 x c ",
"I i i i h I I I x h Y | T v Y Q H _ [ T H [ $.K [ K J ^ _ ~ R D b E O.E X.] E E v Q E v B Q I h R Q ",
"Q a i a z I Q I z p D ~ Y v Y _ Z T _ _ ^ ^ / H ^ D F / | ~ ~ R J E X.Z E T J J l E R v v D h 3 x x ",
"I i i c i x Q | Y x v I Z j Z Y v Z T _ K J K J T C J ~ E ~ ..' J E T 9 H H h k h v Y E Q x 2 > x l ",
"a 1 i p > i _ } ~ D x I v v Y R D S J H Z K ( T T Z K ~ Y ~ X.Q J ' R 9 E J 0 w b n v J Y h 3 k h x ",
"I i i M 1 3 | _ Q x v I I Y T ~ Y Y J l C K [ T J D T _ Y | X.B J ' ' w ' ' k b Q E b k c x x Y B Y ",
"| I x Q z p o.} R I Y Q T T R T _ J D Y K J T K J Z E ] R X.+.h b E R 9 J J w J B R Y v n v k h h x ",
"Y 3 z v s s Y W ~ i v Y I i I I l v J E E J D D D j K J J E E ~ I _ R s k k , n v T I T I x h h w l ",
"y < s h 2 y B ..! h v Y I h U T h v Z l l J D l D l J T T ' Y E Q R Y k m B s k Y D S _ Q h s s h l ",
"y 2 y z s s c } W h B I Y x U Q v R R l v _ _ v _ T E ~ ] ] M Y T R ] Y c b k m x Y I I T Y R h b Y ",
"2 = & f M M g B c h M I W x Y Q x T R v J _ ~ h R R ] E X.] D R I T X.! c c n B x Y I I Y ! ..B ! ' ",
"O O X t m V c W B v v c I h Y Q x J R R ~ ! Y s h v Y W Q ~ Q _ ~ Y Q B n B n k Y v v o.X.h c R n n ",
"o o X d t m m } { W v 3 x h n R v I W ~ ~ ~ v h h h Q ! Y ~ ~ ~ ~ Q ! v c c k k x x v X.} h s m k f ",
"% @ + d * g m { ! ! v 2 v x n R x v I M B Y B c B c ..X.Y } | Y Y ~ ..B B n s n h v v J B c B c c f ",
"r o . g * m m g B Y v 2 R Y Y W R ~ ! v v ! ....B h ..@.Y +.o.D R ! R v ....k n ! Y h v n k n B M c ",
"r #   d * u g W N Y Y a M v V W _ _ ) K Y Y Q ~ Y M Y W M Y { I I v Y Y Y Y M V B W v Y Y v v v v z ",
"r # . d r u z W I W Y z M M W Q | _ Q T I R ! ! ! ! ..} V } +.{ W Y ~ ~ ! ..! } V { V W R n Y v y 3 "
};
