/* XPM */
static char *_a3767f339f94e27ba2766b1bb70a998AigtIXyWpf1yoEZ4[] = {
/* columns rows colors chars-per-pixel */
"50 50 161 2 ",
"   c #1C1F24",
".  c #1F2327",
"X  c #1F252C",
"o  c #222426",
"O  c #282A25",
"+  c #23262A",
"@  c #28272C",
"#  c #25292D",
"$  c #2A2C2D",
"%  c #2F302A",
"&  c #33332D",
"*  c #262B31",
"=  c #2A2D33",
"-  c #2D3135",
";  c #2E3239",
":  c #323335",
">  c #373936",
",  c #393936",
"<  c #33353B",
"1  c #35393E",
"2  c #3A3B3D",
"3  c #403E3F",
"4  c #43433D",
"5  c #4A473E",
"6  c #333741",
"7  c #363A42",
"8  c #3B3D44",
"9  c #3B3E49",
"0  c #3D4146",
"q  c #3E4249",
"w  c #424344",
"e  c #494641",
"r  c #474946",
"t  c #4D4946",
"y  c #42454C",
"u  c #44484E",
"i  c #4B4B4D",
"p  c #524E45",
"a  c #524F4E",
"s  c #53524C",
"d  c #434751",
"f  c #464A53",
"g  c #4A4D55",
"h  c #474A59",
"j  c #4B4E59",
"k  c #4D5056",
"l  c #4E525B",
"z  c #535355",
"x  c #5A5753",
"c  c #5C5A54",
"v  c #52555D",
"b  c #58575B",
"n  c #53595E",
"m  c #5A595D",
"M  c #615D56",
"N  c #625E5A",
"B  c #606056",
"V  c #64615D",
"C  c #4F5361",
"Z  c #525661",
"A  c #595764",
"S  c #555A64",
"D  c #5A5C65",
"F  c #565C69",
"G  c #5A5D6A",
"H  c #605F64",
"J  c #5D6066",
"K  c #57616B",
"L  c #5D626C",
"P  c #5E6471",
"I  c #5F6974",
"U  c #636165",
"Y  c #6A6466",
"T  c #6B6966",
"R  c #61646D",
"E  c #6C676E",
"W  c #65686E",
"Q  c #6B6B6D",
"!  c #706B6F",
"~  c #74706F",
"^  c #626672",
"/  c #646975",
"(  c #686A76",
")  c #696974",
"_  c #6B6E75",
"`  c #696C75",
"'  c #636979",
"]  c #666978",
"[  c #656C79",
"{  c #686C78",
"}  c #686F79",
"|  c #6A6E79",
" . c #6B6D79",
".. c #6A6E7A",
"X. c #716F74",
"o. c #716F72",
"O. c #66707C",
"+. c #69707A",
"@. c #6B727A",
"#. c #6B717D",
"$. c #6D717D",
"%. c #6C737D",
"&. c #6E727D",
"*. c #6F737E",
"=. c #6C747F",
"-. c #6C717D",
";. c #757170",
":. c #727275",
">. c #787775",
",. c #7E7A77",
"<. c #707078",
"1. c #767479",
"2. c #71747E",
"3. c #797478",
"4. c #78777C",
"5. c #7B787F",
"6. c #7E7C7A",
"7. c #807E7F",
"8. c #82817F",
"9. c #6C6F80",
"0. c #6A7080",
"q. c #6C7280",
"w. c #6D7580",
"e. c #6E7381",
"r. c #717580",
"t. c #747682",
"y. c #727682",
"u. c #717882",
"i. c #737A82",
"p. c #727A85",
"a. c #767A85",
"s. c #747985",
"d. c #787C87",
"f. c #797B85",
"g. c #767F89",
"h. c #767B89",
"j. c #7B7F8A",
"k. c #7A7D8A",
"l. c #7A7E90",
"z. c #817F85",
"x. c #807F8D",
"c. c #7D818D",
"v. c #7E8392",
"b. c #81828E",
"n. c #828594",
"m. c #808992",
"M. c #848B95",
"N. c #858995",
"B. c #898A96",
"V. c #828598",
"C. c #868A9A",
"Z. c #8B8E9C",
"A. c #87919B",
"S. c #88909B",
"D. c #8D909F",
"F. c #90949D",
"G. c #898EA1",
"H. c #8D91A1",
"J. c #9295A2",
"K. c #9498A4",
"L. c #989CA8",
/* pixels */
"I ^ P P L P K F Z A d < 0 ; 8 y y d d 0 < : @ 6 = : y y u < = 6 < 1 1 : 2 0 0 7 ; ; D J G G G F / ^ ",
"G K P G G G G C A g ; - - - ; - - # + +   o @ R d @ - 8 8 : 8 y q q 9 < ; o . X # # d F l S L F F F ",
"G F F S F Z C h g 8 7 z D D k 0 & g v z x b 3 8 y +   + + * 7 g F G v 7 q v &.c.v.O.8 q F S Z G G F ",
"q q q 7 7 2 7 2 < = 6 q y 0 q < s z.b.6.3.! x * y d d d f q 9 q y 9 7 = v t.M.S.A.c.I 6 7 q y q 0 y ",
"< < < - - - $ 2 < < 8 9 9 9 9 @ a 5.o.! Y N a y &.&.a.k.g.k.u.%.y...^ 7 d W +.=.p.=.^ g : 9 + # $ = ",
"L ^ [ { / F > 8 i j A A R W ) 9 t 3.! T Y Y w g &.{ &.y.#.e.#.L ^ H ^ q y S D / P L G 8 } R 8 n F G ",
"[ / ' 9.e./ 6 u C A W ^  .) t.d 4 _ U Y N V 4 n { { { / ( / / K F R W 1 = 8 y g k u y 2 <.v d ^ D L ",
"P P I #...^ : g H ) $.k.k.b.N.h & N x B N N w v L L L L R L L D G S Z 0 8 y 0 9 > 7 = $ < 8 Z R L ^ ",
"/ [ { q.[ I 6 k / &.a.k.v.v.m.Z $ x N N c c w j G Z S F F F F v Z C l f / w.a.p.u.#.^ K d < D I ^ ^ ",
"P [ ' [ [ I 7 l G P 9.s.c.v.S.L @ s N c M M w g n l l g v l j v h g d d F F ^ P ^ L L F f 0 L P P P ",
"I ' ' ' I [ 0 l K } s.k.v.c./ q O 4 s s x p , u d f l u d l j f g u 7 0 u g S F v n h q 8 > K L F F ",
"P P / I I O.6 6 l v n v q 1 * # # $ % : $ & - 8 9 8 8 y 0 q q 0 8 < # $ ; 6 6 ; ; ; ; ; = * C I L L ",
"I P I [ I I 0 F / 1 * < < 7 0 8 y y 9 0 < - # = 7 7 + # + + o + @ o o @ q v A / / ^ L J l 0 F P L L ",
"I I I I [ K j F.v.g 0 q q j h g C l v n l D y L J.W w J J b k g i u y : v 2.&.{ e.2.%.[ L q C I I I ",
"P O.I K O.K j p./ d 0 q C l j l F F F F F K u / v.L b ;.;.3.6.f.4.1.>.0 y F K L L ^ L F C q F I K P ",
"' [ O.[ =.q q K Z 0 0 q l C K K G J F G P ^ l F %.l g m U E E ! U x U 1 q g Z Z F F l d q 0 C I K L ",
"P F S l l - 9 y u ; q Z n L L P ^ / ' [ .. .v u L u w i b A b b b z z : = 9 0 u f f q 6 7 * l q.[ I ",
"+ * + $ $ o $ $ # * < q q l F ^ / } =.#.G Z 9 9 g 8 3 w t a a g z a t < R { ^ u 7 h Z L n v n q < - ",
"+./ ^ ` ` L v d u - 0 l g f y ; q d f h q 6 = + ; * - 2 3 w w w w w 3 8 b.J.L.{ 8 S / / J k u 1 #./ ",
"x.n.n.a.2.` G Z g 8 p.h.w.=.L = u D S n Z Z Z A Z 1 @ % : , , , & : : , J ( ^ < # 7 7 9 9 d - 8 n.n.",
"D D F j j j j j 8 8 y.{ ..G S 0 D i.t.t.t.{ R G R 8 @ o o @ $ @ @ @ @ $ < q 7 1 ^ d.N.D.Z.K.{ 1 ^ L ",
"@ o o @ $ = @ # # d { P G F A q S G A ^ ^ ^ G Z v 9 < u 0 8 2 , : $ - @ # * @ n n.B.J.K.J.N.p.; $ $ ",
"^  .9.$.^ G v d @ y L L A Z v 9 v Z Z A Z Z Z j g 1 9 _ f.x.x.j.s.t.2.W L g 1 D { f.k.n.k.n.e.< g A ",
"N.B.B.N.n.s. .L 8 q n h Z Z j < 9 j j g g z f d y < 7 v F ^ / ^ ^ ] / L D n 8 l ^ F /  .....G q { j.",
"Z Z v h l g f f < 0 j j h g 8 $ 7 y y y y y 8 1 = = - y j Z Z S Z Z Z n g y 8 8 g h F L G G k < d h ",
"o @ # + @ o o + + 1 u d y < @ * = ; : 1 1 - = # @ o + - 8 8 q y 9 7 7 8 8 ; # # * 7 8 q g d 1 X . @ ",
"v n l k g g y y 8 1 1 : $ # = u l g g f d d u y y y y < # : * = 6 < < 9 y v A W F d 8 < ; * # q l v ",
"V.C.C.n.n.v.k.a.t.2.( v # = u l d h n S F D L S A L L v < S 8 9 z D ( ..r.t.k.k.d.2.=./ L 7 7 c.m.V.",
"p.p.a.h.y.y.=.&.^ / ^ D 1 8 S l n S S n Z F L F l Z D l 9 ..h 9 d Z R G G G P / / F L R R y f g...&.",
"u.e.u.#.{ ` / ^ / A v G d 9 j C S F G G L R L D L L { S q N.l 9 g g z C Z Z Z G S L F j n 7 n y.y.y.",
"/ I / / ^ ^ R G A F v l y y l F G L G L ^ ^ / / ( ^ / G q f.d < y 9 y d h d f j Z j h y 0 - Z ' ^ L ",
"L K K L G A F n Z j j g 1 u n F G R ^ ^ ^ R / { [ { { } 0 ; : % * $ * * ; < < 7 7 = : @ # $ f P Z Z ",
"Z Z F Z F Z l C h h q y < h Z D L ^ ^ / { / { &.#.#.#.+.2 ; 0 0 2 > : : : : : : , : @ : f / q h D S ",
"S n v l l l l g k y 8 w = Z R L / [ e...e.y.y.y.u.e.i.R - 3 k i i a z z z z z g i x 3 9 F &.L ; l Z ",
"1 q y d y 0 2 2 : < < : o 8 l v D S L K L L R J J S l y : w t g z z v z z b b m m z w 1 D } ` # @ = ",
"< * * + * # : > 2 w $ $ = * * = ; < < q q q f 8 # < ; 8 # w i z z z m D H D m D v m i # - 6 7 < 1 8 ",
"n.2.^ v < $ ~ 8.7.T > i l S D F K ..9.0.e.w.u.F - g D / 2 w b z b A N U R U U U D H k = L y.c.B.G.Z.",
"d.j. ./ g $ 3.,.6.T 2 k g l L K F K ....q.#.[ K < l / M.n 7 b m U U H D U E E W Y W z d C.N.Z.x.l.n.",
"&...G A j : T T T B 2 q h f l F K L / I I L K S 7 l { C.S - m m J U W W _ X._ Q R H < i t.t.f.t...t.",
"R S Z g y , c N x p > 0 f f h C S F F G K F S C < l L u.L o : , > 8 0 i u w < : = $ o 9 W / ^ $.$. .",
"l l g y 0 : s s t 5 : 1 g f d h l l C C F Z S k < u F [ j * d f f d d f f d f g g g d 7 b j S G F G ",
"8 7 7 - - $ 5 5 4 4 O < y d d f h y g l l g k y < < 0 y = y G ] y.k.n.n.m.Z.m.k.r.2.H 6 d A S Z l f ",
"$ @ + . o o O $ & % O $ < 7 0 1 < ; 1 1 < 1 1 - . o . - = q z j G ^ ..9.e.9.#./ ^ H A 6 < 9 9 7 ; - ",
"q g F ^ ` / l 8 $ o % # # . + * 9 y d < * + X # < k W c.F @ 0 j l g n S l g l n z d 7 = : @ $ $ - ; ",
"H.C.v.G.G.G.v.h./ 8 o @ < d S  .j.n.Z.k.( g 1 $ ` m.V.j.( = @ * $ # # # @ # # X + # < 8 g Z W &.v.V.",
"v.k.c.v.v.c.v.p.k.l * j R `  .f.x.k.j.f.y. .H 8 [ k.j.C.$.= ; y d g v S L R D l 7 = L d.j.n.V.N.v.l.",
"c.v.v.c.g.a.a.=.e.L = v F G ( t.s.r.y.2.( / R 7 L k.k.n.$.; g <.r.k.j.n.m.c.y.&.2.0 P p.e.h.h.l.l.k.",
"l.h.h.h.k.&./ { +.R 1 d A R / (  .&.( { ^ G F 7 D ` t.c.{ 6 j W / r.y.t.a.y.&.=.` d P ....#.e.p.h.h.",
"w.w.e.e.=.{ { { / P q 8 v D G D G D D D v j g 1 g G ^ { G 6 d v Z A G ^ ^ R ( ^ D 9 R ^ ^ ^ &.&.y.y.",
"O.[ O.' / / ^ ^ K R y 7 u d j l j v v j g y y = 9 j l Z v 1 9 y j l S S A F G A n 7 G ^ L ^ / [ ..{ "
};
