/* XPM */
static char *_735f4bcf156482cc1e49c2b47c82f9bJwhYvOZtU5AO6jU5[] = {
/* columns rows colors chars-per-pixel */
"50 50 148 2 ",
"   c #392B22",
".  c #453424",
"X  c #4F3D2D",
"o  c #523C2E",
"O  c #5F3E2B",
"+  c #4C3B33",
"@  c #4C3D38",
"#  c #523E33",
"$  c #593E35",
"%  c #523E3A",
"&  c #623E2E",
"*  c #53402F",
"=  c #4F4231",
"-  c #544333",
";  c #5B4435",
":  c #574833",
">  c #5B4935",
",  c #55433B",
"<  c #5C453B",
"1  c #564A3B",
"2  c #5C4B3C",
"3  c #5D503C",
"4  c #61512D",
"5  c #634434",
"6  c #614D36",
"7  c #6A4936",
"8  c #62463B",
"9  c #644A3D",
"0  c #6A4B3D",
"q  c #655533",
"w  c #6C5B37",
"e  c #65523C",
"r  c #6A543D",
"t  c #6D5B3D",
"y  c #73503C",
"u  c #74623D",
"i  c #79673F",
"p  c #564441",
"a  c #5A4642",
"s  c #5D4B42",
"d  c #594548",
"f  c #5B4D4B",
"g  c #5D5143",
"h  c #5F514A",
"j  c #644C42",
"k  c #694D42",
"l  c #634E4B",
"z  c #645344",
"x  c #6B5444",
"c  c #6C5A45",
"v  c #65544A",
"b  c #6C554A",
"n  c #66594B",
"m  c #6C5B4C",
"M  c #715545",
"N  c #785340",
"B  c #725C44",
"V  c #795B45",
"C  c #72564B",
"Z  c #735C4C",
"A  c #7D5E4C",
"S  c #695650",
"D  c #675956",
"F  c #6D5D52",
"G  c #6E5F58",
"H  c #735D53",
"J  c #7A5E53",
"K  c #725F58",
"L  c #6D614C",
"P  c #746345",
"I  c #796646",
"U  c #7A6842",
"Y  c #74634C",
"T  c #7A634D",
"R  c #7D6A4D",
"E  c #6D6253",
"W  c #6F675C",
"Q  c #746354",
"!  c #7B6554",
"~  c #766954",
"^  c #7C6B54",
"/  c #74645A",
"(  c #7B665A",
")  c #75695B",
"_  c #7B6B5C",
"`  c #7D7156",
"'  c #767059",
"]  c #7D715C",
"[  c #736561",
"{  c #7A6760",
"}  c #766B62",
"|  c #7C6D63",
" . c #7B6E69",
".. c #777066",
"X. c #7D7264",
"o. c #7F7865",
"O. c #7D726A",
"+. c #7E7371",
"@. c #7E7C70",
"#. c #815E4A",
"$. c #84614E",
"%. c #836655",
"&. c #826C55",
"*. c #826D5C",
"=. c #896C59",
"-. c #837156",
";. c #8A7356",
":. c #84725C",
">. c #8A745C",
",. c #85795F",
"<. c #8C785D",
"1. c #90785C",
"2. c #806760",
"3. c #826D62",
"4. c #826F68",
"5. c #837464",
"6. c #8A7563",
"7. c #847965",
"8. c #8A7A65",
"9. c #83756B",
"0. c #89756A",
"q. c #857B6A",
"w. c #8B7C6C",
"e. c #917A64",
"r. c #917D6C",
"t. c #817671",
"y. c #847B72",
"u. c #8A7E72",
"i. c #857B79",
"p. c #8D7F7C",
"a. c #927F70",
"s. c #93805F",
"d. c #87806E",
"f. c #8C816D",
"g. c #92826D",
"h. c #878173",
"j. c #8C8273",
"k. c #8C847A",
"l. c #8F887E",
"z. c #928474",
"x. c #948977",
"c. c #9C8B77",
"v. c #948478",
"b. c #94897D",
"n. c #9A8C7C",
"m. c #8D8381",
"M. c #948781",
"N. c #A09383",
/* pixels */
"4 q q w Y ^ ~ ^ Z ~ _ 5._ ( ~ / _ ~ ~ H Q / J Q c Y P ^ B P 1.i i i i U R R P Z Y b z x B B r 6 9 2 ",
"w t t P R ` ` ] 5.5._ _ _ ( ) ) ( Q Q ~ ) 3._ ( ( ^ Y :.P t ;.I w i U R R Y c m x 8 8 e e e > > : * ",
"w c t P ` :.5.6.w.0._ ( ) _ ) ~ Q H m / ) *.( ~ *.~ Y 8.~ e R I P R R R ` R Y ! m 2 - : 2 e e e > > ",
"t P P ~ :.8.w.w.9.5.X. .o.9.} ( ) ~ ~ ( ] _ ^ _ ~ Z Z -.R r P R R R P ~ ,.7._ ( z - . . - : * X = * ",
"^ -.^ ] 8.8.0.w.5.5.9.q.8.q.9.X.0.7.q.q.6.9.7.8.w.7.8.g.g.8.g.e.^ ` ~ :.g.z.5._ / Z m / ~ Q n v h n ",
"L Y ~ ~ _ X._ X.4.9.9.9.X.} X.o.0.9.7.7.( L L ` Y Y Y L Q ~ ~ P ~ ~ L L ~ ~ ~ ) L / ) E n v n / _ ] ",
"e c c m Q / / ) |  .X.} / W ) ) ) ) ) ) L 3 3 3 c c c z z m z v L n 1 = 1 2 3 v n n h 2 , = h E Q F ",
"L E Q E ~ / / } ) } } [ ) W E E E E / ) ~ L n L Q Y Y L Q H m / W L h h ) ) v 2 1 1 1 g g g h h ~ E ",
"F F G G / / / / [ [ _ } ) ~ Q Q ~ F 3.*.Q / S m Q F v v G K / K m m m n H | ) l   1 D D f f f h / n ",
"E G F F H / / ) / ~ ) ( / Q E m Q Y _ _ Q ~ / ~ ) E v j v m G Q m F / ~ m / / v , h h s @ = p p G n ",
"F F S G E / / ) _ _ _ _ ) ~ m m m m ) _ Q ~ ~ ( ( ) ~ / H F F m E n n / ) ) S , 1 h v < p , > , ( S ",
"m n m m Q ~ ( ( | _ _ | ( ) Q m / Z :.*.( _ ( ( ( _ 3.*._ ~ H H Q n n E 3.4.H + < s 9 s e n x x | K ",
"z z c m ~ ( ~ ~ ~ ~ ~ _ *.X.( ~ ~ ~ 5.5.( _ _ :.*.*.! ! Z Z ( _ m F ~ Q / 3.) j m v 9 6 e c B B ( H ",
"r z c L Q ~ ( ~ ! ( _ _ :.5.*._ ~ Q 5.:.^ ^ ^ *.! ^ ^ ( T T T &.L P b 9 x 3.3.z Y m m c B B t r K v ",
"c c c c Z ~ Y T _ _ ^ ( _ _ ( ( E Y 5.:.~ ^ ~ &.! &.&.&.&.T T V R y e 8 Z *.! 9 x b Z Z Y B q q K l ",
"c c t c c P Q ! Y Y Z Z / ! Q Z ~ ~ w.8._ _ ^ _ *.&.R T T T A P V t V $.T ! J z b b b r e > q e ( n ",
"m / ~ m ~ 0.o.f.7.7.7.o.o.o.] d.q.f.j.f.d.7.7.7.9.7.7.7.7.f.q.' ] 7.5.7.8.8.7.:.:.` Y L L Y ] 7.o.} ",
"z n m z n E E 7.q.w.h.q.d.d.d.f.q.7.7.q.w.q.7.] 7.f.j.q.o.d.j.j.g.f.g.f.f.q.w.w.7.d.f.f.f.f.f.d.j.f.",
"v v n g n n n q.h.j.h.d.d.d.h.j.f.d.q.7.q.7.o.) 9.7.q.q.7.7.f.x.z.j.j.j.f.q.q.7.g.f.f.f.8.g.8.f.q.7.",
"2 z z 3 h 2 h d.u.u.d.d.h.h.h.h.j.f.q.w.d.7.5.5.8.7.8.j.x.x.z.x.j.j.n.n.z.g.f.g.f.7.] R ~ ~ -.] *.5.",
"- - - - 1 : 1 7.j.u.u.h.j.j.k.k.q.d.d.d.w.d.f.w.5.5.6.w.w.8.5.5.9.9.5.7.7.9.q.x.7.9.5.:.] ' ~ Q ( _ ",
": > 3 3 3 3 g o.z.w.u.u.h.j.j.h.f.f.f.q.7.7.7.w.] 5.0._ Z m m / Q m m m m m _ r.8.q.w.f.j.w.o.' E / ",
"L P Y P ` ~ L ,.f.f.q.d.d.j.h.d.f.d.d.o.7.7.9.5.8.a.w.! b b J ! Y B c c c m 5.z.j.j.h.j.j.j.h.h.O.O.",
"-.` ,.] ,.` ~ ,.f.f.7.d.f.j.j.f.q.o.] o.7.w.w.w.w.w.5.Q Z ! / Z x c c Z c c _ w.w.w.h.k.k.k.@...@.q.",
"' ' ' ' ' ) ' ..u.u.u.u.h.w.9._ 5.( ] :.q._ ] _ | Q Y H c x M r 6 r 0 x 2 > ( j.w.k.j.k.m.k.@.@.@.t.",
"' ] ] ' ' X.7.q.5. .5.0.8.w.w.8.:.^ :._ 5.~ X.X.z.0.5.5.*.^ T V c m c ~ _ ( r.x.w.k.j.k.m.l.y.y.t.q.",
"P Y R Y ~ ( :.5.5.*.*.:.6.8.6.6.8.;.<.] -.c Y Q c z c Y ! &.&.T :.-.Y *.:.] q.w.u.k.k.j.l.h...} @.t.",
"R ` ` R ^ ^ :.-.6.6.:.:.<.>.:.>.` ` >.` ^ 2 > > > > > c r r t e Y ! L m m m X.w.9.j.j.k.j.@.W E 9.O.",
"-.-.-.-.>.>.:.<.:.=.>.>.1.1.;.;.&.R ;.;.<.Z B x x x Z Z c c c t ! ( Y H c n 5.j.8.h.u.k.k.u.X.} O.O.",
"R R ^ ^ ` -.:.*.>.>.>.<.;.;.;.;.;.-.<.,.e.&.&.! ^ *.6.6.8.r.c.n.z.z.8.w.8.0.u.w.z.v.8.9.q.9.X.O.9.O.",
"^ ^ ^ -.:.<.6.6.6.6.<.;.&.&.&.I R R >.-.=.C C C C C Z b m ~ 0.5.u.z.w.x.n.M.N.n.v.z.9._ } ) ) ) o.X.",
"^ ^ ^ _ *.5.>.:.>.<.:.` $.R R R R R e.e.6.V C J H C b b m _ w.q.8.w.q.w.w.q.w.q.q.q.X.} X.) ) ) | X.",
"-.` P R &.&.>.-.e.&.=.&.;.;.R -.;.;.1.<.! x j b s s l s l { u.a.0.6.0.*._ 6.:.<.8.w.0.9.7.X.| 9. .| ",
"P Y P &.&.^ =.=.;.&.&.%.&.=.T &.Y V T &.^ Z j j z j s < 2 ~ 0.w.0.6.0.6.6.r.8.w.z.w.5.| 9.9.O.y. .} ",
"~ *.*.:.*.A ! J %.! %.A %.e.6.6.6.5.5.w.r.r.3.3.3.*.3.6.8.g.r.*.6.*.6.6.>.:.&.:.r.w.*.*.8.9.4.5.| | ",
"/ ) ( *.C 5 5 8 5 0 k 0 b 6.0.6.5.3.|  .) ) _ 3.6.^ ! T T $.&.T %.J =.=.:.<.*.6.6.6.5.5.w.0.4.| 5.5.",
"F / / *.C 8 7 0 8 7 0 8 x 4.4.4.t.t.9.9.| } | 6.5.~ T ! ^ %.%.%.%.Z J Y T ! Z ! 3.0.6.9.w.9.4.4.| } ",
"} | ) 5.( k r y 7 0 k j C 0.0.y. . . .4.9.9.3._ _ ! *.r.r.6.*.C 6.*.*./ ( 5.5.6.0.w.9.9.9.9.9.t.4.} ",
") [ / *.J 9 5 5 & & 0 0 C 3.{ | | |  .9.9.9.4._ Q s < a , % % % % + , + j | q.u.q.u.9.O.t.i.i.i.t.4.",
") / m _ %.0 5 & 7 0 M x J { H H G [ | { Q Q [ 3.K s a f d p d d % , , + 1 | q.y.q.i.t.t.p.m.i.+.4. .",
"E F Q ! A 0 7 y N N #.%.J J / K H H [ K 3.K K { / p b d l d p p p l a s % 4.9.v.9.9.u.M.p.p.m.+. . .",
"n m H ! J M V #.#.$.%.%.%.K ! K ! / / H  .K ( { K p l p s j d j % s % , % 3.3.u. .} 9.h.y.i.i.+.[ [ ",
"F m m ! A C V A A #.#.#.A H m H K K / H { K K 2.H p j % % a d a % s , p , 4.} 9.y.O.9.i.+.+. . .[ [ ",
"Q E Q ! ! A A %.%.=.=.2.*.*.*.3.( ( *.( 0.*.3.3.2.J K C H H K l l l < s 2 _ ( ) 0.5.O.O.O.} [ [ [ K ",
"2 2 j b x M C A 0 k k k k k b b m C Z Z *.Z C C ( J K 3.2.4.2.J K H F H Q 0.3.5.5.0.9.9.y.O.O.O.G F ",
"X # o - 8 $ 5 k 0 0 0 0 8 9 9 j 8 8 j 8 b ; $ o < 8 j %.2.J J C ( J J J ( 6._ 5._ 5._ / ) } E G m m ",
"> > > 8 8 j k 8 k k k 8 9 8 9 j x 9 k 0 C 8 8 $ 8 $ $ J J C J C M k k j x C x x b Q v - , 2 , % z r ",
"+ o $ ; 8 k k k k k k k k 9 9 9 0 9 0 0 C 0 k 5 k $ $ J J k C k J C C x M x 0 x x ! x o $ l < - > > ",
"# $ o j < j x j 8 a j k k j j $ k k k k C & 8 j $ j 8 C 2.k k M k M k 0 M r x c c ~ z - - > - o o - ",
"# < # j < j k s j 2 j k k k j j k k C k A & 8 & $ 8 $ l C k k M k M M r x x z c n Z e o - - - X X X "
};
