/* XPM */
static char *fvd_r6__1___1_1671733242[] = {
/* columns rows colors chars-per-pixel */
"50 50 185 2 ",
"   c #020301",
".  c #050905",
"X  c #090B07",
"o  c #060B08",
"O  c #0C0E0A",
"+  c #100F0A",
"@  c #0E120D",
"#  c #12130D",
"$  c #19160F",
"%  c #141612",
"&  c #161914",
"*  c #1A1B15",
"=  c #1C1E19",
"-  c #231F17",
";  c #221F19",
":  c #1E201B",
">  c #262115",
",  c #23231D",
"<  c #29261E",
"1  c #2B281F",
"2  c #1F2220",
"3  c #252621",
"4  c #282721",
"5  c #262922",
"6  c #2C2B24",
"7  c #2D2E28",
"8  c #322D24",
"9  c #322F29",
"0  c #2F302A",
"q  c #333127",
"w  c #3A3627",
"e  c #34332B",
"r  c #3A352D",
"t  c #3B382E",
"y  c #353730",
"u  c #3A3730",
"i  c #363831",
"p  c #3C3B33",
"a  c #3C3F39",
"s  c #483F2D",
"d  c #41392D",
"f  c #423D34",
"g  c #413F38",
"h  c #483F39",
"j  c #4A3F34",
"k  c #3E4037",
"l  c #3F413A",
"z  c #444236",
"x  c #4B4334",
"c  c #4A4835",
"v  c #45433A",
"b  c #4A453C",
"n  c #45483F",
"m  c #4C493D",
"M  c #564D37",
"N  c #51463C",
"B  c #534A3D",
"V  c #5B4B3E",
"C  c #5C4E36",
"Z  c #5F523F",
"A  c #67553D",
"S  c #474740",
"D  c #4B4740",
"F  c #4D4B42",
"G  c #4E4E49",
"H  c #534D44",
"J  c #594F44",
"K  c #524F48",
"L  c #584F48",
"P  c #4F5149",
"I  c #545145",
"U  c #5A5246",
"Y  c #595A46",
"T  c #55534A",
"R  c #5B554B",
"E  c #55584E",
"W  c #5C5A4D",
"Q  c #555350",
"!  c #565952",
"~  c #5D5B52",
"^  c #5D5F58",
"/  c #635244",
"(  c #695546",
")  c #655A46",
"_  c #6B5E47",
"`  c #62564C",
"'  c #625A4E",
"]  c #6B5C4C",
"[  c #715B4B",
"{  c #635751",
"}  c #635D53",
"|  c #6A5E53",
" . c #635F59",
".. c #5E6156",
"X. c #5F6158",
"o. c #61604F",
"O. c #6C614A",
"+. c #72644E",
"@. c #656155",
"#. c #6A6255",
"$. c #6D6852",
"%. c #64635B",
"&. c #6B655A",
"*. c #66695E",
"=. c #6C6A5D",
"-. c #756353",
";. c #7C6555",
":. c #756C54",
">. c #796B55",
",. c #71665A",
"<. c #736A5E",
"1. c #7A6D5D",
"2. c #78715E",
"3. c #74715E",
"4. c #6D6C62",
"5. c #736D62",
"6. c #796E61",
"7. c #6F7166",
"8. c #747265",
"9. c #7B7365",
"0. c #7C7967",
"q. c #74746A",
"w. c #7B766A",
"e. c #76796E",
"r. c #7C7A6C",
"t. c #777870",
"y. c #7D7C71",
"u. c #836C4D",
"i. c #846E5D",
"p. c #85765C",
"a. c #88705E",
"s. c #837364",
"d. c #887362",
"f. c #847B65",
"g. c #83766A",
"h. c #837B6D",
"j. c #8B7D6D",
"k. c #8A7D66",
"l. c #937D6C",
"z. c #987F6B",
"x. c #847E72",
"c. c #897E72",
"v. c #7E8074",
"b. c #86806E",
"n. c #8A826F",
"m. c #91836D",
"M. c #9A886D",
"N. c #848274",
"B. c #8B8374",
"V. c #8E8975",
"C. c #85847A",
"Z. c #8A867A",
"A. c #8D8A7D",
"S. c #938673",
"D. c #908977",
"F. c #96877A",
"G. c #938B7C",
"H. c #998C7C",
"J. c #9B8973",
"K. c #96917E",
"L. c #9E947E",
"P. c #A1967E",
"I. c #8D8C82",
"U. c #938E81",
"Y. c #9B8E81",
"T. c #959284",
"R. c #9A9483",
"E. c #92928B",
"W. c #98968A",
"Q. c #9C998D",
"!. c #9E9C92",
"~. c #A19383",
"^. c #A59984",
"/. c #A19B8B",
"(. c #A89F8A",
"). c #A39E92",
"_. c #A7A08F",
"`. c #ACAA9F",
"'. c #A2A191",
"]. c #B0AB97",
"[. c #B5AE9C",
"{. c #B4B1A3",
"}. c #C1BEAD",
"|. c #CAC3AE",
" X c #CEC9B5",
/* pixels */
"q.e.v.v.7.P * % % 6 w 8 8 , & : * & e t O i x.I.x.c.&.{ 5.W | | L H F L v 4 7 v x ( V 8 - % %.K p W ",
"X.7.4.*.7.v.~ 0 : = * * , 6 : , q q t , %.C.x.y.g.5.D | <.K D D v L ` ` f ; ..@.p t 8 r < ; S.R.n 7 ",
"P %.*.7.q.e.e.@.K =.q.y , 6 : < x < * 8.Y.g.h.c.d.L h =.R u F &.5.| | } 9 K R.A.=.v < $   j M.T.R.#.",
"e ! T E E ..W k B.).Z.&.p < & * # 7 G.R.c.B.Y.c.6.u g L p v ,.6.&.&.| f y B.N.8.=.w.B.< 8 B.N.A.K.k.",
"0 F p i k 0 @ l q.D K K W @.o.O.B h.j.9.9.l.H.c.6.g b v L | | @.| | &.~ 0.N.4.8.w.4.B # m.G.C.Z.N.h.",
"9.e = I P , y e.g g f g F &.0.>.o.h.9.,.h.Y.g.c.| r 6 ' 6.H R | | | |  .~ *.8.=.%.W . - P.!.).Q.T.6.",
"B.V.T n e ; @.i 9 F g T ~ T 4.W z 0.h.~.~.s.g.6.b 6 r { J f v R | J g T %.@.=.8.o.5   M K.Q.`.(.B.N.",
"b.G.B.W 5 4.@., f v W &.T K ~ g.m U j.H.5.6.6.u u f F J R | <.` f m u y F =.@.~ z # % f.R.N.V.h.Z.E.",
"T.Z.N.N.I.q.g u R H h F D v  .w.$.m 9.9.<.g.T 7 g x b { 1.&.f 4 # * * i ^ ! ~ 9 v i i <.A.0.V.N.I.E.",
"*.8.V.T q.T g u D F T u g L F 7 G $.' @.' j.n t u 7 J c.H % o y ! i 7 7.4.K 4.4.w.@.e w N.N.R.r.e.0.",
"y.y.w.0 } <.| m { &.g.L g v p 7 a o.m c <.{ z 0 6 p 9 = o i W B.K.Z.T.%.y K T q.r.U h q Y G.B.w.e.I.",
"N.7.F p =.K F T ` ,.F v g 9 h p n I %.Y 6.f e e D < O 3 m J.R.:.) 0.N.W l W 4.| @.m h b e 8.r.4.r.x.",
"k 4., ~ #.| ` i.R ; 3 9 6 9 r u g I 4.x.k m q e 0 % P K.'._.v.$.0.+.U ..u h L F H H W ` f x N.q.q.5.",
"@.F & &.l.-.( d.d 3 p r g p u e x H ^ t.q.z : & % k A.Q.W.R.@.Y W c x t H R | { L | | | H * =.0.8.4.",
"u.# m W ;.;.[ d % y y u g D g v a f H %.*.o.: : 2 3.V.q.e.*.n c m M C e e R 6.L L L {  ., + I ~ 0 , ",
"z   %.W i.;.V * 9 9 u g b F g p v e e H F N.*.t 8.R.8.8.0.c Y @.m _ O.b e 8 e 9 L L | G 7 t q b F q.",
", . I 0.i.Z 8 5 b m b p v 7 p v v g L b W 4.5.5.5.y.0.0.0.Y 3.e.o.p.>.p F e , : R L g e * u - g. X}.",
". @ a A.d.-.e 0 p f T g n e e K F e e p v v ~ ^ ! @.0.v.h.%.r.b.,.p.) e E i 5 q N f 6 % X 9 4 ; B b ",
"& @ T I.g.V , 7 e y n g F K D F p y D F a G L ^ 4.} &.N.3.=.N.v.+.d 8 6 @.v : , , , O + = N = O 6 X ",
"w.m x w.6.V e e 0 p y v F v p i u G L T g 7 p p E 5.W 8.Y c c z w X t t U ~ $.c W L % = 6 +   7 R.j.",
"%.&.W =.U U b e a p y n R E E T v  .n g v u y S G ^ 4.=.m e m o.w 9 @.t v @.2.Y j.| 7 u = X S x.e.=.",
" .! ~ :.W b p e y e e g F v L T W ~ F v p e u T K T e.%.W $.9.8.@.6.W t e F 5.v 9.9.| & @ &.B.w.9.9.",
"c.5.~ N.%.z U F e 6 R #.} F W } R K a u e u p K ~ ~ %.4.8.0.W ! ~ @.x f B x %.U #.&.9 . %.U.x.B.N.&.",
"h.=.T F &.U ' W G E 9.F.l.' R { | R g R @.h 6 e Z 1.T S ..^ ~ P ^ q.b N { ! b R ~ p . e N.q.Z.h.} R ",
"K  .u D  .&.} s.i.M.l.z.i.| ' H R F W } e * m >.m.R.B.e I *.7.4...t...B ,.,.| f e 5 7 V.r.h.N.&.@.W ",
"q.4.W v R &.| 6.-.J ] J T h.` J b b e O   _ (.C.N.G./.' G e.4.t.v.v.4.5 ] <.| x t e b A.b.j.0.8.R b ",
"R K q.4.f b ,.H , * b e e ` ' p e 6 X   M L.W.W.C.N.H.,.i P ..4.e.e.q.< # > < < f m p &.N.9.6.' f F ",
"H { ~ ! F 8 $ O + % 8 8 e 6 * i =.7 : m P.A.'.`.).A.9.2.z 0 P *.X.*.e.F @ # O , b H } <.&.<.R U T m ",
"` v p b ` e e @.b 6 8 < , < ; * 4 p t W A.v.n./.H.x.w.0.} r ..T 4.e.t.7.7 & , w < 6 4.,./ R v m F R ",
"9 4 x z * 6 B.w.q.@.v v 9 7 6 * r N e m A.b.V.0.C.I.I.N.0.i e 0 n E v.7.F = - 1 w r r R U H T b r } ",
"4 x k & * ' #.&.} =.9.w.} 5 * ; g b f x N.A.A.C.E.I.y.y.V.$.: S S 0 p k ' 5.P : * 6 , % , p b m n H ",
"F r @ * < U U Y #.~ T W ..H f H | ` v z B.B.8.q.N.e.N.N.A.A.m E k : * F Z.Q./.F , 7 , * ; * * * e f ",
"; 2 5 y v p T t F p 9 4 7 T | R |  .| p w.w.e.N.N.4.w.A.C.B.#.* , S 4. .g K 4.} 5 3 , < 6 * 6 i 6 & ",
"p S y.7.e.7 * < * , p p e D { R { | 9 4 x.q.=.v.4.W 0.=.y.G.q.7.q.} 6 e D u S T T : # 1 x e t < * % ",
"Z.w.N.x.x.%.5 @ * , e b { { L L } 6 $ 1 8.w.v.%.I N.N.y.C.g &.y.L 9 9 u h D v K 5.&.c & & 4 t @.q.q.",
"c.U.9.5.w.x.,.D 0 t m T { F r u 5 e f q T c P @.y.R ! y.6 a 5.F u u L L H  .&.K %.f.:.Y <.G.G.U.x.h.",
"s.L L 5.4.H { H u F H a a 6 % + X * 8 t I i 3 I ! R 4.% n =.H =.H D H v x R L G W &.B 9.h.0.c.c.c.B.",
"D F | 5.W R ` =.` R F { H = O % * z < f |.{.E.R >.A o a 5.| { g R | &.&.S p g F 8.&.f 5.j.5.<.c.Y.F.",
"9 W &.R g R { ` ,.| &.9.R 9 6 6 < 6 O @ m R.[.].d   n @.,.l.] -.{ ` 6.<.D v H H 4.0.x 5.H.^.H.F.S.c.",
"D D f u D L N b x H { h g G 6 % . . @ U #   - r . : 5.R a.-.( a.| , , p v g D p 7 U R ,.H.g.5.g.j.9.",
"g T H R ,.5.5.&.W { 9 ; 6 # X u ~ &.w.R.w.k #   @ 7 q.d.u.;.V 4 = e 9 y 6 8 g u e ~ $.3.@.,.9.9.R v ",
"` 6.} #.| <.,.| | | r 8 . 4 q.U.I.h.e.=.<.w.N.e = { Z.d./ d ; 2 6 e u u u u y g n I I m U g.<.f 3 v ",
"U m p J { | | | { f 9 $ &.Z.5.y.Z.B.h.5.@.g 4.5.e 0.U.[ J 2 9 S g g p p p g 9 p b ~ W U 6.&.D e v x ",
"&.] { L { | { / f r 8 e T.x.h.c.h.<.=.} W L ~ ! ' %.,.V K | W T q.=.F D H p u f m %.w.o.R p u e e u ",
",. .{ #.H J H V / j ; e w.j.j.0.<.@.} &.5.&.5.R H } p Y D.0.4.q.5.&.F u g f v p n ~ N.I g t r r i i ",
"% O O * 7 x r J b r u K 9.5.9.=.~ } ~ } { R } m m b & 6.8.=.W W h r 7 5 y v v y r ~ 4.~ p * p v * % ",
"` H ! n % = f 7 b 5.F } h.8.T I K } K H L T F 7 b < = @.Y ' @.b 7 e p S x K n f v H E &.& = * % 7 l ",
"n.$.&.L w e a %.&.b v } &.5.T v | | H W &.` e 8 z # , B W m i 4 5 p S u H g e r n F %.I.a & 3 I B.T.",
"y.! 6 d H T H ' v 7 e t H U H W J R H W H f = b 4 & , p i e : & 6 g K S y a f v p m R 4.=.R &.0.N.y.",
"t.q.U b B #.,.` f t p f m T R H v g e W { 9 e N = , v 7.k & & : F v F ~ v D L H H { ] R ~ | 0 ! e.4."
};
