/* XPM */
static char *f63987e43b53458db33a7ec9188641649zdSXtCddr0gTBRS[] = {
/* columns rows colors chars-per-pixel */
"50 50 254 2 ",
"   c #14242D",
".  c #1A242D",
"X  c #1C2A2D",
"o  c #172827",
"O  c #0F2636",
"+  c #142633",
"@  c #1A2634",
"#  c #1C2B34",
"$  c #152C3C",
"%  c #1B2C3B",
"&  c #152937",
"*  c #1C323C",
"=  c #193539",
"-  c #0F3039",
";  c #232B2D",
":  c #23262C",
">  c #232C34",
",  c #2A2E34",
"<  c #232D3B",
"1  c #262834",
"2  c #243135",
"3  c #24333C",
"4  c #2B343C",
"5  c #29373A",
"6  c #313A3E",
"7  c #2A3227",
"8  c #181F2F",
"9  c #2D403E",
"0  c #152C43",
"q  c #1C2D42",
"w  c #192B48",
"e  c #1D3243",
"r  c #1B3943",
"t  c #1C344A",
"y  c #1E3A4C",
"u  c #163446",
"i  c #1E3B54",
"p  c #1A3955",
"a  c #0C2840",
"s  c #222E43",
"d  c #233443",
"f  c #2A3544",
"g  c #233A45",
"h  c #2B3B45",
"j  c #23354A",
"k  c #243B4D",
"l  c #2B3C4B",
"z  c #2D364A",
"x  c #323D45",
"c  c #323E4A",
"v  c #243C53",
"b  c #2A3D51",
"n  c #253E59",
"m  c #2C3E5B",
"M  c #283554",
"N  c #323B54",
"B  c #243D65",
"V  c #1D4259",
"C  c #25414E",
"Z  c #2C424C",
"A  c #294447",
"S  c #354043",
"D  c #33444C",
"F  c #3A484C",
"G  c #244255",
"H  c #2B4254",
"J  c #25445B",
"K  c #2C445C",
"L  c #264C5E",
"P  c #2C4A5D",
"I  c #274955",
"U  c #334455",
"Y  c #344A54",
"T  c #31445C",
"R  c #334C5B",
"E  c #3A4C5B",
"W  c #3D4D56",
"Q  c #3B515D",
"!  c #36515C",
"~  c #2F515D",
"^  c #1D4667",
"/  c #1E5779",
"(  c #1B4F6F",
")  c #244462",
"_  c #2B4662",
"`  c #2B4B64",
"'  c #234A6C",
"]  c #2C4B6B",
"[  c #254966",
"{  c #324C63",
"}  c #324D6B",
"|  c #374964",
" . c #2D5466",
".. c #2C536C",
"X. c #26596E",
"o. c #2D596D",
"O. c #26536B",
"+. c #365465",
"@. c #3B5464",
"#. c #34536C",
"$. c #3A536C",
"%. c #345B6D",
"&. c #3C5B6C",
"*. c #3D5866",
"=. c #254C72",
"-. c #2B4E73",
";. c #274B78",
":. c #344C76",
">. c #2D5274",
",. c #2B5B73",
"<. c #2D557C",
"1. c #2C5C7B",
"2. c #255877",
"3. c #335474",
"4. c #3B5574",
"5. c #345B74",
"6. c #3C5C73",
"7. c #33567A",
"8. c #345B7C",
"9. c #3A5C7B",
"0. c #3A5679",
"q. c #2C617A",
"w. c #326275",
"e. c #3D6275",
"r. c #33637B",
"t. c #3B637C",
"y. c #3F687C",
"u. c #43555A",
"i. c #44556C",
"p. c #445C6C",
"a. c #455966",
"s. c #445B78",
"d. c #48636B",
"f. c #426273",
"g. c #43657B",
"h. c #4C6A7C",
"j. c #48657A",
"k. c #516C7D",
"l. c #566B73",
"z. c #606D7E",
"x. c #2C5582",
"c. c #2D5A84",
"v. c #2C5C8A",
"b. c #255488",
"n. c #335B83",
"m. c #3A5D83",
"M. c #325D8B",
"N. c #385D89",
"B. c #345681",
"V. c #275C95",
"C. c #345C96",
"Z. c #304F85",
"A. c #2A6388",
"S. c #346284",
"D. c #3C6284",
"F. c #3A6B84",
"G. c #35628C",
"H. c #3B648C",
"J. c #326A8A",
"K. c #3B6A8C",
"L. c #366883",
"P. c #2D6699",
"I. c #346493",
"U. c #3B6692",
"Y. c #356B93",
"T. c #3D6A93",
"R. c #33679A",
"E. c #366A9B",
"W. c #3B6C9B",
"Q. c #3C669A",
"!. c #3C729B",
"~. c #397295",
"^. c #38718E",
"/. c #3B6DA2",
"(. c #356CAA",
"). c #366DA6",
"_. c #3572A4",
"`. c #3D74A3",
"'. c #3C74AA",
"]. c #3877AA",
"[. c #347AB3",
"{. c #3978B5",
"}. c #2F6FA8",
"|. c #415984",
" X c #436484",
".X c #446C85",
"XX c #4B6C83",
"oX c #42658B",
"OX c #436B8D",
"+X c #4C6C8A",
"@X c #4B6686",
"#X c #526D87",
"$X c #45728A",
"%X c #4C748B",
"&X c #52738C",
"*X c #577486",
"=X c #436B92",
"-X c #4B6D93",
";X c #436C9B",
":X c #456897",
">X c #427493",
",X c #4C7394",
"<X c #447895",
"1X c #4B7A96",
"2X c #44729C",
"3X c #4C749B",
"4X c #4D7C9A",
"5X c #417C9E",
"6X c #537B9C",
"7X c #577897",
"8X c #566C9D",
"9X c #62788D",
"0X c #436CA2",
"qX c #4374A3",
"wX c #447AA4",
"eX c #4B7AA4",
"rX c #4274AC",
"tX c #437BAB",
"yX c #4B7CAA",
"uX c #4B74A4",
"iX c #527BA4",
"pX c #567AA6",
"aX c #437DB2",
"sX c #457DB8",
"dX c #5672AA",
"fX c #657DA7",
"gX c #3C7DC1",
"hX c #3582B4",
"jX c #3A81AD",
"kX c #59849C",
"lX c #62809E",
"zX c #4C82A2",
"xX c #4982AA",
"cX c #5184AB",
"vX c #5C85AB",
"bX c #5687A7",
"nX c #4583B5",
"mX c #4D83B4",
"MX c #4885BD",
"NX c #5389B7",
"BX c #528ABB",
"VX c #5788B3",
"CX c #5D93B4",
"ZX c #5C97B9",
"AX c #6487A9",
"SX c #6697B5",
"DX c #6790AD",
"FX c #3D82C3",
"GX c #498AC5",
"HX c #508CC5",
"JX c #5792C6",
"KX c #4B92C7",
"LX c #659FC4",
"PX c #67A3C7",
/* pixels */
"< , 2 # # 2 r ( 8.B.N.U.Q.H.m.D.V.:X} ] 8.4.0.v.;XQ.I.n.=.=.yXqXA.<.) n t e 3 X 1 > # 3 f M j k g d ",
"j # 5 A A 2 U 1X!.`.'.sXaX'./.E.].3X:.;.c.3.8.A.U.G.M.n.>.>.wX).T.oX4.#.J b 3 ; < * g C K _ ` #.} } ",
"0.g l +.Q h h e.5X2XyXmXmXyXyXyXeX&X$.G.E.n.7.b.Q.T.T.D.,.=.wX{.D.H.D.H.7.] d X j G ) [ :.0.5.S.H.K.",
"2X` I +.&.F # 0 $ % $ r k i v t n g t G.'.G.B.M.E.R.G.S.D.8.`.[.`.qX/.`.W.m.g : J 3.>.1.n.8.n.G.E.`.",
"E. .~ %.&.Q x g 5 5 , ; : : : > O   & U.aXT.N.H./.)./.N.D.7.qXJX[.[.[.[.].=Xk ; {  XG.N.G.m.G.G.E.'.",
"yX+.Y e.5.@.E @.Y Y S 2 ; # % < H 4 s qXaXW.N.W.rXrX'.I.m.' B.VXHXHXGXHXNX3Xd o ` +XW.U.U.S.G.R.`._.",
"2XR W f.D.&.*.&.6.6.+.Z d * j l ] k w qXsXqXqXrXrX).P.E.6X} 0 w i ) ] 3.D.g.e , ` uX).).qXY.!.'.`.`.",
"=.d F f.L.t.f.s.g.f.&.Y 3 3 d f G.] p mXGXMXsXFXeXrXaXtX6XH . 4 1 : : @ < U   4 o.cX{.{.tX`.tXsXNXtX",
"& # Z XX,XK.~.^.K.J.%.u.X k G f I./ ^ >. X+XH.N.#X4.g.+.t q f g g < > 1 4 s d 3 ` kXtXnXnXNXyXwXD h ",
"C g g @.XXkXbX7XkX1Xh.u.3 P { z oX..v q e q 0 0 w a u 0 % s S Z b h h h z z l l D H V ] 6.} t 0 * $ ",
"} P t j R f.XXp.f.6.Q x f ` } l ,X9.` b d q t j n p v t j z c l T U U U T | { R a.3 = % d d j l J J ",
"4.0.G q & 3 l * # r d < j 3.5.k '.E.M.<.-.3.7.n.7.0.>._ T l U H T { { $.} 0.s.$.F.w.6.v ` 3.9. X5.4.",
"7.m.>.k # X f j 5 G b z T H.oXC MX].P.v.v.M.M.I.B.Q.M.B.0.n #.4.} $.4.5.8.m.+X+.zXkX%XV OX2XI.A.8.3.",
"n.n.<.` 3 4 i.4.*.6.s.E T =X-Xv nXqXT.I.H.U.H.H.G.rX'.rXD.V 9.m.9.D.S.H.N.oX+XP e.d.E e 3XqXY.;XD.M.",
"M.I.G...% z @XoX XH.oXp.v -X,XM tXwXW.;X2X2XW.I.Y.].(.yXK.L +X=XoXOXK.!.;X-X#Xr   , , C pX`.E.2XE.W.",
";X`.`.8.% l #XQ.:X2X3Xk.K 3X6Xm HXnX]._._.].'.].eXaX'.mX$XJ &X:X=X>XU.uX;X3X#X& 3 , > _ tX[.hXtXtX`.",
"hX[.mX9.@ c #XOX;XqXAXl.@ fX-XH NXBXtXtX/.`.W.`.{.GXR.VXpX' 7X6X>XyX].'.tXiXj.% 4 f 3 _ pXnX{.gX].'.",
"KXKXmXS.v { 7XVXlXAXDXl.@ _ p < NXNXtX{.'.sXMXGXNXvXoX,X@X{ @X&XkXAXvXCXAX&Xa.3 F c d { vXNXGXsXGXGX",
".X+X9.n s < d H Y R R 3 % $ + ; [ 5.H.eXyXHXMXaX@X9.{ l d j d g k b H { E l f 5 U z d t -.H.iXvXxX'.",
"& q q j N U 4 h % $ & y +.m d 4 . @ % f b K b y t $ % @ # 3 d d < < 1 1 4 1 z E $.i.i._ p p t i 4 3 ",
">.-.-.<.M.B.>.) } P _ D.m.] _ J c l < 8 8 : : . u $ & g Z Z P P b l x 1 x z H +.} :.s.s.4.$.g # -.=.",
"N.<.m.H.v.v.G.8.oX} ] T.b.x.7.;.' [ B p i j d @  . .y I I i  . .L P R d E $.5.m.oX9.s.4.s.@XH f 9.3.",
"S.D. X|.N.N.N.9.qX` ] I.V.oXU.V.M.v.v.^ ' J J y r.5.J L L O.w.r.X.o.#.y | s.m.m.D.D. X9.oX@Xn U G.v.",
"[.`.U.I./.).).U.W.[ #.Y./.,X3X_.G.H.oXB.7.:.] J r.5.o. . .,.,.,.,.o.r.J  X+X@XH.U.OXoXoX-X,XG R =XH.",
"wXeX0X0X0X0X/.E.wXp g.E./.uX;X).!.I.Y.J.c.;..X= q.w.X.O.1.q.q.q.2.r.XXI  X-XU.E.2X3X:X|.3X7X` ` qXW.",
"}.}._.}./.).'.tX8Xt $.eXpX+XH.tXqXrX).Q.I.C.:Xu  .w.%.,.r.8.5.,.q.q.g.J #XlX-XH.H.:X-X-X&X@Xm 4.'._.",
"].'.aXrX!.;XK.oX| @ j ..8.#.3.K.U.0XuXuXpXdX8Xi w.t.1.S.L.q.S.q.X.r.t.k p.9X7X7X#X7XfXfX7X@Xv | Q.0X",
"m _ ` ` K v d < # < % O 0 r G y C _ [ I P 0.4.* J.^.J.~.~.P.~.~.^.%Xh.r $ < s j M i.i.i.i.u.q q j t ",
"1 1 > # 2 2 2 3 = C I C C $ % @ o * * +   $ q o ,.r.w.^.<XJ.F.w.L ~ ! d x 4 4 4 . X @ # d d % d 3 > ",
"M v g k k V G I I X.w.+.! n l , X T | H j m M v r r r r C r - # $ e 3 A F x x x 6 , > l U q j { ` P ",
"Y.H.OXD.5.O.O.X.X.2.q.O.` X. .A g :.:.n v } ' :.$.K L V C Z 2 D R Q Q Q E E Q @.x X % K $.i V 4.n.8.",
"hX{.qXH.0. . .w.y./ A.o.o./ X.I r 0.Z.] [ 9.=.=.x.=.c.=.-.4.P f.a.p.a.p.&.6.6.&.W s $ G 0.B =.7.B.n.",
"GX{./.3X..o.,.r.r.1.q.q.q.r.^.( V t.;Xb.v.U.n.8.7.3.7.-.n.-X] g.&.f.f.d.&.&.f.g.d., . P K.Z.m.r.Q.0X",
"[.GXW.4Xo.O.L.1.r.r.J.^.q.^.F.o.V F.iX!.Q.I.M.N.<.c.G.N.=X-X..*Xg.e.e.&.&.&.h.*Xh.h < o.W.C.Q.~.].].",
"FXJXG.,X%.O.~.A.S.J._._._.~.<Xo.= L -XuXuX2X;XuXeXT.S.U.AXAX+.d.5.6.e.g.h.h.h.k.h.f & ,.tX(.{.{.FXFX",
"BXVX4.s.+.+.zXY.A.jXhXhXhXjXzXV A * G ) ) #.0.|.8.4...#.9.4.d d.%X$Xg.e.j.j.k.k.k.3 O G.JXnXnXBXHXHX",
"<.[ 0 3 3 g  .O.y.<X5XjXjX^.w.C h # % @ X # # % # 3 3 e 0 0 % l.7X*X*XXX*X*X9X9Xa.f s 9.vX2X;X!.D.t.",
"r % > 2 2 # = C = 5 = g = o o o < s c 4 2 2 X # z h f l K | g u.*Xk.k.h.d.E l d r z z J o.J n i % $ ",
"% 2 5 3 2 # o X 2 ; o : # @ g Y ` _ m e % 3 j $.3.5.9.D.0.4.H Z A g g * % % % % = m N t y % < % 3 d ",
"x x 3 * l S 6 ; - = * 3 C P ` ' >.-.` J P J ' H.}.E.Y.R.x.N.} v 5 2 2 3 4 5 3 h C m M t C < , 6 9 9 ",
"I Y Y A Y ! Y G D l g #.0.B.;.>.>.x.>.L B [ P H.E.I.R.M.G.m.7.9.2.|.5 #.b.I M _ v ` I 1.c.H x +.u.Y ",
"Q ! ~ Y *.f.f.6.%XXX+.9.8.>.-.8.9.x.O. .:.s.L oXU.U.I.T.I.G.M.c.T.8XA #.x.P H m P J J 8.I.+.F r.! Y ",
"d.d.*.%.g.h.$X$XzXbXw.K.K.B.m.oXS.M.1.5.B.@XJ oX=XoXN.;XM.U.I.T.W.dXg ..C.` { ] } ^ ) 8.W.$.D .X&.+.",
"p.&.e.y.$X<XzXzXjXCXF.OXW.v.M.B.<.I.H.n.N.8X) ;XT.;XQ.;XU.qXH.pXzXfXr ..Q...} -.:.=.9.S.Y.#.l <Xg.w.",
"g.e..X<X<XzXcXbXbXSX.X.X>XQ.E.I.n.V.c.q.C.3XV U.R.tXyXqXqXpX-.pXCXfXd o.rX>.7.N.n.x.=XG.R.0.Z 1X.Xh.",
"%X$X1XzXzXcXCXbXk.*XR P #.H.3X2X3X;X2X1XpX-XL ,XyXNXVX3X7X7X_ 9Xe.4.X ..rXS.n./.I.R.T.G.).g.S <X$X7X",
"1X<XbXCXbXZXSXbX! Q # # e G J ` $.-.9.&.0.b = +.o.4._ H b j + l O s o P rX2XE.(.'.(.2XY._.&.l $X%.kX",
"SXCXLXPXZXCXkXL.g d , 6 4 d # > % 0 y O M % o # @ @ 8 d f + 3 # = s 7 I ).rXrXgXsXGXmXwXqX+.5 $XV kX",
"bXDXDX7Xl.@.Z 3 r j G ) ] #.` i t v e e l v v n J ` J v j s J J v k r T @XiXcX`.D.K.g.$.P j g D k &.",
"i I I C g 5 # > H { 4.8.m.m.7.} 3.0.{ ` $.#.] >.D.H.8.} | { 8.B.5.` d j J ) ] i ) G t r f d # * # Z "
};
